<svg width="33" height="33" viewBox="0 0 33 33" fill="none" xmlns="http://www.w3.org/2000/svg">
<path d="M21.6176 14.4118C21.6176 15.837 21.195 17.2301 20.4032 18.4151C19.6114 19.6001 18.486 20.5237 17.1693 21.0691C15.8526 21.6145 14.4038 21.7572 13.006 21.4792C11.6082 21.2011 10.3242 20.5149 9.31644 19.5071C8.30868 18.4993 7.62238 17.2154 7.34434 15.8176C7.0663 14.4198 7.209 12.9709 7.7544 11.6542C8.29979 10.3375 9.22339 9.21208 10.4084 8.42029C11.5934 7.6285 12.9866 7.20588 14.4118 7.20588C16.3229 7.20588 18.1557 7.96507 19.5071 9.31644C20.8585 10.6678 21.6176 12.5006 21.6176 14.4118ZM29.5518 29.5518C29.4562 29.6476 29.3427 29.7235 29.2177 29.7753C29.0928 29.8271 28.9588 29.8538 28.8235 29.8538C28.6882 29.8538 28.5543 29.8271 28.4293 29.7753C28.3044 29.7235 28.1908 29.6476 28.0952 29.5518L21.6537 23.109C19.4136 24.9726 16.5412 25.9009 13.6341 25.7008C10.727 25.5007 8.00897 24.1876 6.04534 22.0346C4.0817 19.8816 3.02364 17.0545 3.09125 14.1413C3.15885 11.2281 4.34692 8.45314 6.40832 6.39356C8.46972 4.33398 11.2458 3.14836 14.159 3.08333C17.0723 3.0183 19.8984 4.07885 22.0497 6.04439C24.201 8.00993 25.5117 10.7291 25.7092 13.6364C25.9067 16.5437 24.9759 19.4152 23.1103 21.6537L29.5518 28.0952C29.6476 28.1908 29.7235 28.3044 29.7753 28.4293C29.8271 28.5543 29.8538 28.6882 29.8538 28.8235C29.8538 28.9588 29.8271 29.0928 29.7753 29.2177C29.7235 29.3427 29.6476 29.4562 29.5518 29.5518ZM14.4118 23.6765C16.2442 23.6765 18.0354 23.1331 19.559 22.1151C21.0825 21.0971 22.27 19.6501 22.9712 17.9572C23.6725 16.2643 23.8559 14.4015 23.4985 12.6043C23.141 10.8071 22.2586 9.15632 20.9629 7.86063C19.6672 6.56494 18.0164 5.68256 16.2192 5.32508C14.422 4.9676 12.5592 5.15107 10.8663 5.85229C9.17341 6.55352 7.72646 7.741 6.70844 9.26457C5.69043 10.7881 5.14706 12.5794 5.14706 14.4118C5.14978 16.8681 6.12676 19.223 7.86364 20.9599C9.60052 22.6968 11.9554 23.6737 14.4118 23.6765Z" fill="#C83A2D"/>
</svg>
