<svg width="33" height="33" viewBox="0 0 33 33" fill="none" xmlns="http://www.w3.org/2000/svg">
<path d="M29.5518 28.0952L23.109 21.6537C24.9764 19.4118 25.9076 16.5362 25.7088 13.6252C25.5101 10.7142 24.1967 7.99193 22.0419 6.02462C19.8872 4.0573 17.0569 2.99645 14.1399 3.06274C11.2229 3.12904 8.44369 4.31737 6.38052 6.38055C4.31734 8.44372 3.12901 11.2229 3.06271 14.1399C2.99642 17.0569 4.05727 19.8872 6.02459 22.042C7.9919 24.1967 10.7142 25.5101 13.6252 25.7089C16.5362 25.9076 19.4117 24.9764 21.6537 23.109L28.0952 29.5519C28.1909 29.6475 28.3044 29.7234 28.4294 29.7751C28.5543 29.8269 28.6883 29.8535 28.8235 29.8535C28.9588 29.8535 29.0927 29.8269 29.2177 29.7751C29.3426 29.7234 29.4562 29.6475 29.5518 29.5519C29.6475 29.4562 29.7233 29.3427 29.7751 29.2177C29.8269 29.0927 29.8535 28.9588 29.8535 28.8236C29.8535 28.6883 29.8269 28.5544 29.7751 28.4294C29.7233 28.3044 29.6475 28.1909 29.5518 28.0952ZM5.14705 14.4118C5.14705 12.5794 5.69041 10.7882 6.70843 9.26459C7.72645 7.74102 9.1734 6.55354 10.8663 5.85231C12.5592 5.15109 14.422 4.96762 16.2192 5.3251C18.0164 5.68258 19.6672 6.56496 20.9629 7.86065C22.2586 9.15634 23.141 10.8072 23.4984 12.6043C23.8559 14.4015 23.6725 16.2643 22.9712 17.9572C22.27 19.6501 21.0825 21.0971 19.559 22.1151C18.0354 23.1331 16.2441 23.6765 14.4118 23.6765C11.9554 23.6738 9.60051 22.6968 7.86363 20.9599C6.12675 19.223 5.14977 16.8681 5.14705 14.4118Z" fill="#6B7280"/>
</svg>
