<svg width="33" height="33" viewBox="0 0 33 33" fill="none" xmlns="http://www.w3.org/2000/svg">
<path d="M30.3677 8.93016C30.1724 8.71102 29.933 8.53578 29.665 8.41601C29.3971 8.29623 29.1068 8.23464 28.8133 8.23531H22.6471C22.6471 6.59721 21.9964 5.0262 20.8381 3.86788C19.6797 2.70957 18.1087 2.05884 16.4706 2.05884C14.8325 2.05884 13.2615 2.70957 12.1032 3.86788C10.9449 5.0262 10.2942 6.59721 10.2942 8.23531H4.12798C3.83622 8.23609 3.54791 8.29838 3.28184 8.41811C3.01578 8.53784 2.77795 8.71232 2.58386 8.93016C2.3914 9.1472 2.24697 9.40245 2.16005 9.6792C2.07312 9.95595 2.04565 10.2479 2.07945 10.536L3.91438 25.9772C3.97389 26.4803 4.21681 26.9438 4.59666 27.279C4.9765 27.6142 5.46661 27.7976 5.9732 27.7941H26.9796C27.4862 27.7976 27.9763 27.6142 28.3562 27.279C28.736 26.9438 28.9789 26.4803 29.0385 25.9772L30.8734 10.536C30.907 10.2478 30.8793 9.9558 30.7922 9.67905C30.705 9.4023 30.5604 9.14709 30.3677 8.93016ZM16.4706 4.11766C17.5627 4.11766 18.61 4.55148 19.3822 5.32369C20.1545 6.0959 20.5883 7.14324 20.5883 8.23531H12.353C12.353 7.14324 12.7868 6.0959 13.559 5.32369C14.3312 4.55148 15.3786 4.11766 16.4706 4.11766Z" fill="#C83A2D"/>
</svg>
