<svg width="33" height="33" viewBox="0 0 33 33" fill="none" xmlns="http://www.w3.org/2000/svg">
<path d="M30.3676 8.93016C30.1724 8.71102 29.9329 8.53578 29.665 8.41601C29.397 8.29623 29.1067 8.23464 28.8132 8.23531H22.647C22.647 6.59721 21.9963 5.0262 20.838 3.86788C19.6797 2.70957 18.1087 2.05884 16.4706 2.05884C14.8325 2.05884 13.2615 2.70957 12.1031 3.86788C10.9448 5.0262 10.2941 6.59721 10.2941 8.23531H4.12792C3.83616 8.23609 3.54785 8.29838 3.28178 8.41811C3.01572 8.53784 2.77789 8.71232 2.5838 8.93016C2.39134 9.1472 2.24691 9.40245 2.15998 9.6792C2.07306 9.95595 2.04559 10.2479 2.07939 10.536L3.91432 25.9772C3.97383 26.4803 4.21675 26.9438 4.5966 27.279C4.97644 27.6142 5.46655 27.7976 5.97314 27.7941H26.9796C27.4862 27.7976 27.9763 27.6142 28.3561 27.279C28.736 26.9438 28.9789 26.4803 29.0384 25.9772L30.8733 10.536C30.9069 10.2478 30.8793 9.9558 30.7921 9.67905C30.705 9.4023 30.5603 9.14709 30.3676 8.93016ZM16.4706 4.11766C17.5626 4.11766 18.61 4.55148 19.3822 5.32369C20.1544 6.0959 20.5882 7.14324 20.5882 8.23531H12.3529C12.3529 7.14324 12.7867 6.0959 13.559 5.32369C14.3312 4.55148 15.3785 4.11766 16.4706 4.11766ZM26.9912 25.7353C26.9874 25.7367 26.9833 25.7367 26.9796 25.7353H5.95127L4.12792 10.2941H28.8235L26.9912 25.7353Z" fill="#6B7280"/>
</svg>
