<svg width="33" height="33" viewBox="0 0 33 33" fill="none" xmlns="http://www.w3.org/2000/svg">
<path d="M28.1583 13.3528L17.8642 3.64029C17.8591 3.6359 17.8544 3.63117 17.85 3.62613C17.471 3.28145 16.9771 3.09045 16.4648 3.09045C15.9525 3.09045 15.4586 3.28145 15.0796 3.62613L15.0655 3.64029L4.78293 13.3528C4.57319 13.5457 4.40576 13.78 4.29125 14.0409C4.17674 14.3018 4.11763 14.5837 4.11768 14.8686V26.7647C4.11768 27.3108 4.33459 27.8344 4.72069 28.2205C5.1068 28.6066 5.63047 28.8236 6.1765 28.8236H12.353C12.899 28.8236 13.4227 28.6066 13.8088 28.2205C14.1949 27.8344 14.4118 27.3108 14.4118 26.7647V20.5883H18.5294V26.7647C18.5294 27.3108 18.7464 27.8344 19.1325 28.2205C19.5186 28.6066 20.0422 28.8236 20.5883 28.8236H26.7647C27.3108 28.8236 27.8344 28.6066 28.2205 28.2205C28.6066 27.8344 28.8236 27.3108 28.8236 26.7647V14.8686C28.8236 14.5837 28.7645 14.3018 28.65 14.0409C28.5355 13.78 28.368 13.5457 28.1583 13.3528ZM26.7647 26.7647H20.5883V20.5883C20.5883 20.0422 20.3714 19.5186 19.9852 19.1325C19.5991 18.7464 19.0755 18.5294 18.5294 18.5294H14.4118C13.8658 18.5294 13.3421 18.7464 12.956 19.1325C12.5699 19.5186 12.353 20.0422 12.353 20.5883V26.7647H6.1765V14.8686L6.19065 14.8557L16.4706 5.14709L26.7519 14.8532L26.766 14.866L26.7647 26.7647Z" fill="#6B7280"/>
</svg>
