<svg width="33" height="33" viewBox="0 0 33 33" fill="none" xmlns="http://www.w3.org/2000/svg">
<path d="M28.8235 14.8686V26.7647C28.8235 27.3108 28.6066 27.8344 28.2205 28.2205C27.8344 28.6066 27.3107 28.8236 26.7647 28.8236H21.6176C21.0716 28.8236 20.5479 28.6066 20.1618 28.2205C19.7757 27.8344 19.5588 27.3108 19.5588 26.7647V21.6177C19.5588 21.3447 19.4504 21.0828 19.2573 20.8898C19.0643 20.6967 18.8024 20.5883 18.5294 20.5883H14.4118C14.1387 20.5883 13.8769 20.6967 13.6839 20.8898C13.4908 21.0828 13.3824 21.3447 13.3824 21.6177V26.7647C13.3824 27.3108 13.1654 27.8344 12.7793 28.2205C12.3932 28.6066 11.8696 28.8236 11.3235 28.8236H6.17647C5.63043 28.8236 5.10676 28.6066 4.72066 28.2205C4.33456 27.8344 4.11765 27.3108 4.11765 26.7647V14.8686C4.1176 14.5837 4.17671 14.3018 4.29122 14.0409C4.40573 13.78 4.57316 13.5457 4.7829 13.3528L15.077 3.64029L15.0912 3.62613C15.4702 3.28145 15.9641 3.09045 16.4764 3.09045C16.9887 3.09045 17.4826 3.28145 17.8616 3.62613C17.866 3.63117 17.8707 3.6359 17.8757 3.64029L28.1699 13.3528C28.3775 13.5467 28.5428 13.7814 28.6553 14.0423C28.7678 14.3032 28.825 14.5845 28.8235 14.8686Z" fill="#C83A2D"/>
</svg>
