<svg width="33" height="33" viewBox="0 0 33 33" fill="none" xmlns="http://www.w3.org/2000/svg">
<path d="M30.8824 17.5V25.7353C30.8824 26.2813 30.6655 26.805 30.2794 27.1911C29.8932 27.5772 29.3696 27.7941 28.8235 27.7941H4.11766C3.57163 27.7941 3.04796 27.5772 2.66185 27.1911C2.27575 26.805 2.05884 26.2813 2.05884 25.7353V17.5C2.05884 16.954 2.27575 16.4303 2.66185 16.0442C3.04796 15.6581 3.57163 15.4412 4.11766 15.4412H9.26472C9.53774 15.4412 9.79957 15.5496 9.99262 15.7427C10.1857 15.9358 10.2941 16.1976 10.2941 16.4706C10.2941 16.7436 10.1857 17.0055 9.99262 17.1985C9.79957 17.3916 9.53774 17.5 9.26472 17.5H4.11766V25.7353H28.8235V17.5H23.6765C23.4035 17.5 23.1416 17.3916 22.9486 17.1985C22.7555 17.0055 22.6471 16.7436 22.6471 16.4706C22.6471 16.1976 22.7555 15.9358 22.9486 15.7427C23.1416 15.5496 23.4035 15.4412 23.6765 15.4412H28.8235C29.3696 15.4412 29.8932 15.6581 30.2794 16.0442C30.6655 16.4303 30.8824 16.954 30.8824 17.5ZM15.7423 17.1989C15.8379 17.2946 15.9514 17.3706 16.0764 17.4224C16.2014 17.4742 16.3353 17.5008 16.4706 17.5008C16.6059 17.5008 16.7398 17.4742 16.8648 17.4224C16.9898 17.3706 17.1033 17.2946 17.1989 17.1989L23.3754 11.0224C23.5685 10.8293 23.6771 10.5673 23.6771 10.2941C23.6771 10.021 23.5685 9.75898 23.3754 9.56582C23.1822 9.37266 22.9202 9.26415 22.6471 9.26415C22.3739 9.26415 22.1119 9.37266 21.9188 9.56582L17.5 13.9859V3.08825C17.5 2.81523 17.3916 2.5534 17.1985 2.36035C17.0055 2.16729 16.7436 2.05884 16.4706 2.05884C16.1976 2.05884 15.9358 2.16729 15.7427 2.36035C15.5496 2.5534 15.4412 2.81523 15.4412 3.08825V13.9859L11.0224 9.56582C10.8293 9.37266 10.5673 9.26415 10.2941 9.26415C10.021 9.26415 9.75898 9.37266 9.56582 9.56582C9.37266 9.75898 9.26415 10.021 9.26415 10.2941C9.26415 10.5673 9.37266 10.8293 9.56582 11.0224L15.7423 17.1989ZM25.7353 21.6177C25.7353 21.3123 25.6447 21.0137 25.4751 20.7598C25.3054 20.5059 25.0642 20.308 24.7821 20.1911C24.4999 20.0742 24.1895 20.0436 23.8899 20.1032C23.5904 20.1628 23.3153 20.3099 23.0993 20.5258C22.8834 20.7418 22.7363 21.0169 22.6767 21.3164C22.6172 21.6159 22.6477 21.9264 22.7646 22.2086C22.8815 22.4907 23.0794 22.7319 23.3333 22.9015C23.5873 23.0712 23.8858 23.1618 24.1912 23.1618C24.6007 23.1618 24.9935 22.9991 25.283 22.7095C25.5726 22.4199 25.7353 22.0272 25.7353 21.6177Z" fill="#6B7280"/>
</svg>
