<svg width="33" height="33" viewBox="0 0 33 33" fill="none" xmlns="http://www.w3.org/2000/svg">
<path d="M9.56558 11.0224C9.37242 10.8293 9.2639 10.5673 9.2639 10.2941C9.2639 10.021 9.37242 9.75898 9.56558 9.56582C9.75874 9.37266 10.0207 9.26415 10.2939 9.26415C10.5671 9.26415 10.829 9.37266 11.0222 9.56582L15.4409 13.9859V3.08825C15.4409 2.81523 15.5494 2.5534 15.7425 2.36035C15.9355 2.16729 16.1973 2.05884 16.4704 2.05884C16.7434 2.05884 17.0052 2.16729 17.1983 2.36035C17.3913 2.5534 17.4998 2.81523 17.4998 3.08825V13.9859L21.9185 9.56582C22.1117 9.37266 22.3737 9.26415 22.6468 9.26415C22.92 9.26415 23.182 9.37266 23.3751 9.56582C23.5683 9.75898 23.6768 10.021 23.6768 10.2941C23.6768 10.5673 23.5683 10.8293 23.3751 11.0224L17.1987 17.1989C17.1031 17.2946 16.9895 17.3706 16.8646 17.4224C16.7396 17.4742 16.6056 17.5008 16.4704 17.5008C16.3351 17.5008 16.2011 17.4742 16.0762 17.4224C15.9512 17.3706 15.8377 17.2946 15.742 17.1989L9.56558 11.0224ZM30.8821 17.5V25.7353C30.8821 26.2813 30.6652 26.805 30.2791 27.1911C29.893 27.5772 29.3693 27.7941 28.8233 27.7941H4.11742C3.57138 27.7941 3.04771 27.5772 2.66161 27.1911C2.2755 26.805 2.05859 26.2813 2.05859 25.7353V17.5C2.05859 16.954 2.2755 16.4303 2.66161 16.0442C3.04771 15.6581 3.57138 15.4412 4.11742 15.4412H10.8601C10.9277 15.4411 10.9946 15.4544 11.0571 15.4802C11.1196 15.5061 11.1764 15.544 11.2242 15.5917L14.2829 18.6581C14.5698 18.946 14.9107 19.1744 15.2861 19.3303C15.6614 19.4862 16.0639 19.5664 16.4704 19.5664C16.8768 19.5664 17.2793 19.4862 17.6547 19.3303C18.03 19.1744 18.371 18.946 18.6579 18.6581L21.7204 15.5956C21.8154 15.4986 21.9449 15.4431 22.0807 15.4412H28.8233C29.3693 15.4412 29.893 15.6581 30.2791 16.0442C30.6652 16.4303 30.8821 16.954 30.8821 17.5ZM25.7351 21.6177C25.7351 21.3123 25.6445 21.0137 25.4748 20.7598C25.3052 20.5059 25.064 20.308 24.7819 20.1911C24.4997 20.0742 24.1892 20.0436 23.8897 20.1032C23.5902 20.1628 23.315 20.3099 23.0991 20.5258C22.8831 20.7418 22.7361 21.0169 22.6765 21.3164C22.6169 21.6159 22.6475 21.9264 22.7644 22.2086C22.8812 22.4907 23.0792 22.7319 23.3331 22.9015C23.587 23.0712 23.8855 23.1618 24.1909 23.1618C24.6005 23.1618 24.9932 22.9991 25.2828 22.7095C25.5724 22.4199 25.7351 22.0272 25.7351 21.6177Z" fill="#C83A2D"/>
</svg>
