<svg width="40" height="40" viewBox="0 0 40 40" fill="none" xmlns="http://www.w3.org/2000/svg">
<g clip-path="url(#clip0_2461_3575)">
<path d="M30.8766 -0.185059H9.1231C3.98235 -0.185059 -0.185059 3.98235 -0.185059 9.1231V30.8766C-0.185059 36.0173 3.98235 40.1847 9.1231 40.1847H30.8766C36.0173 40.1847 40.1847 36.0173 40.1847 30.8766V9.1231C40.1847 3.98235 36.0173 -0.185059 30.8766 -0.185059Z" fill="url(#paint0_linear_2461_3575)"/>
<path d="M26.5102 7.77949C28.0428 7.78566 29.5108 8.39719 30.5944 9.48087C31.6781 10.5645 32.2896 12.0325 32.2958 13.5651V26.4349C32.2896 27.9674 31.6781 29.4354 30.5944 30.5191C29.5108 31.6028 28.0428 32.2143 26.5102 32.2205H13.4894C11.9569 32.2143 10.4889 31.6028 9.40518 30.5191C8.32151 29.4354 7.70997 27.9674 7.7038 26.4349V13.5651C7.70997 12.0325 8.32151 10.5645 9.40518 9.48087C10.4889 8.39719 11.9569 7.78566 13.4894 7.77949H26.5102ZM26.5102 5.08851H13.4894C8.82707 5.08851 5.01196 8.90796 5.01196 13.5659V26.4349C5.01196 31.0972 8.83141 34.9123 13.4894 34.9123H26.5102C31.1726 34.9123 34.9877 31.0929 34.9877 26.4349V13.5651C34.9877 8.90275 31.1726 5.08765 26.5102 5.08765V5.08851Z" fill="white"/>
<path d="M20.0001 14.9766C20.9936 14.9766 21.9648 15.2712 22.7909 15.8232C23.617 16.3752 24.2609 17.1598 24.6411 18.0777C25.0213 18.9956 25.1208 20.0056 24.927 20.9801C24.7331 21.9545 24.2547 22.8496 23.5522 23.5522C22.8496 24.2547 21.9545 24.7331 20.9801 24.927C20.0056 25.1208 18.9956 25.0213 18.0777 24.6411C17.1598 24.2609 16.3752 23.617 15.8232 22.7909C15.2712 21.9648 14.9766 20.9936 14.9766 20.0001C14.9782 18.6682 15.508 17.3915 16.4497 16.4497C17.3915 15.508 18.6683 14.9782 20.0001 14.9766ZM20.0001 12.2856C18.4743 12.2856 16.9828 12.7381 15.7142 13.5858C14.4455 14.4334 13.4568 15.6383 12.8729 17.0479C12.289 18.4575 12.1362 20.0086 12.4339 21.5051C12.7315 23.0015 13.4663 24.3761 14.5451 25.455C15.624 26.5338 16.9986 27.2686 18.4951 27.5662C19.9915 27.8639 21.5426 27.7111 22.9522 27.1272C24.3619 26.5434 25.5667 25.5546 26.4144 24.286C27.262 23.0173 27.7145 21.5258 27.7145 20.0001C27.7145 17.9541 26.9017 15.9919 25.455 14.5451C24.0082 13.0984 22.046 12.2856 20.0001 12.2856Z" fill="white"/>
<path d="M27.8826 13.7759C28.8927 13.7759 29.7116 12.957 29.7116 11.9469C29.7116 10.9368 28.8927 10.1179 27.8826 10.1179C26.8725 10.1179 26.0536 10.9368 26.0536 11.9469C26.0536 12.957 26.8725 13.7759 27.8826 13.7759Z" fill="white"/>
</g>
<defs>
<linearGradient id="paint0_linear_2461_3575" x1="26.2733" y1="41.8792" x2="13.7264" y2="-1.8795" gradientUnits="userSpaceOnUse">
<stop stop-color="#FFDB73"/>
<stop offset="0.08" stop-color="#FDAD4E"/>
<stop offset="0.15" stop-color="#FB832E"/>
<stop offset="0.19" stop-color="#FA7321"/>
<stop offset="0.23" stop-color="#F6692F"/>
<stop offset="0.37" stop-color="#E84A5A"/>
<stop offset="0.48" stop-color="#E03675"/>
<stop offset="0.55" stop-color="#DD2F7F"/>
<stop offset="0.68" stop-color="#B43D97"/>
<stop offset="0.97" stop-color="#4D60D4"/>
<stop offset="1" stop-color="#4264DB"/>
</linearGradient>
<clipPath id="clip0_2461_3575">
<rect width="40" height="40" fill="white"/>
</clipPath>
</defs>
</svg>
