<svg width="32" height="32" viewBox="0 0 32 32" fill="none" xmlns="http://www.w3.org/2000/svg">
<path d="M2 29.0001C1.92375 29.0001 1.84675 28.9914 1.7705 28.9739C1.31925 28.8664 1 28.4639 1 28.0001C1 18.9131 2.1495 11.3556 16 11.0119V4.00011C16 3.60261 16.2352 3.24336 16.5987 3.08411C16.961 2.92586 17.3857 2.99436 17.6787 3.26586L30.6787 15.2659C30.8837 15.4541 31 15.7209 31 16.0001C31 16.2794 30.8837 16.5461 30.6787 16.7346L17.6787 28.7346C17.3867 29.0061 16.962 29.0764 16.5987 28.9164C16.2352 28.7569 16 28.3976 16 28.0001V21.0119C6.499 21.2394 4.746 24.7444 2.8945 28.4474C2.72275 28.7921 2.372 29.0001 2 29.0001ZM17 19.0001C17.5527 19.0001 18 19.4474 18 20.0001V25.7159L28.5255 16.0001L18 6.28436V12.0001C18 12.5529 17.5527 13.0001 17 13.0001C5.953 13.0001 3.57425 17.2726 3.1065 24.0969C5.17775 21.3146 8.708 19.0001 17 19.0001Z" fill="black"/>
</svg>
