<svg width="32" height="32" viewBox="0 0 32 32" fill="none" xmlns="http://www.w3.org/2000/svg">
<g clip-path="url(#clip0_2461_3563)">
<path d="M30.6082 0.0670625C30.4342 0.02325 30.2491 0 30.0545 0C29.7391 0 29.401 0.059375 29.0497 0.176562L1.83552 9.248C0.895518 9.56131 0.24758 10.2016 0.0579551 11.0048C-0.131732 11.8081 0.161268 12.6707 0.861955 13.3716C0.930518 13.4402 1.00921 13.4977 1.09539 13.5421L11.6781 18.9972L30.6082 0.0670625Z" fill="black"/>
<path d="M13.0037 20.3229L18.459 30.9057C18.5034 30.9919 18.5608 31.0705 18.6293 31.139C19.1924 31.7022 19.8418 31.9998 20.5074 31.9999H20.5076C21.5157 31.9999 22.376 31.2969 22.753 30.1655L31.8245 2.95149C32.0133 2.3848 32.0475 1.85199 31.9327 1.3938L13.0037 20.3229Z" fill="black"/>
</g>
<defs>
<clipPath id="clip0_2461_3563">
<rect width="32" height="32" fill="white"/>
</clipPath>
</defs>
</svg>
