<svg width="40" height="40" viewBox="0 0 40 40" fill="none" xmlns="http://www.w3.org/2000/svg">
<g clip-path="url(#clip0_2461_3879)">
<path d="M33.128 0.418213H6.87155C3.25988 0.418213 0.332031 3.34606 0.332031 6.95773V33.2142C0.332031 36.8258 3.25988 39.7537 6.87155 39.7537H33.128C36.7397 39.7537 39.6675 36.8258 39.6675 33.2142V6.95773C39.6675 3.34606 36.7397 0.418213 33.128 0.418213Z" fill="black"/>
<path d="M32.2603 16.8676V11.6222C25.4037 11.3327 25.1831 5.10201 25.1831 4.51653V4.47241H19.8835V24.9016C19.8829 25.7844 19.604 26.6446 19.0863 27.3597C18.5687 28.0748 17.8387 28.6085 17.0002 28.8848C16.1618 29.161 15.2575 29.1659 14.4162 28.8986C13.5748 28.6313 12.8391 28.1055 12.3139 27.396C11.7886 26.6865 11.5004 25.8294 11.4904 24.9466C11.4803 24.0639 11.7489 23.2004 12.2579 22.4791C12.7669 21.7579 13.4905 21.2155 14.3255 20.9291C15.1606 20.6428 16.0647 20.627 16.9092 20.8842V15.4742C16.5032 15.4222 16.0943 15.3961 15.685 15.3961C13.805 15.3961 11.9672 15.9536 10.404 16.9981C8.84081 18.0426 7.62246 19.5271 6.90301 21.264C6.18356 23.0009 5.99532 24.9122 6.36209 26.7561C6.72887 28.6 7.63418 30.2937 8.96355 31.6231C10.2929 32.9524 11.9866 33.8577 13.8305 34.2245C15.6744 34.5913 17.5857 34.403 19.3226 33.6836C21.0595 32.9641 22.544 31.7458 23.5885 30.1826C24.633 28.6194 25.1905 26.7817 25.1905 24.9016C25.1905 24.7684 25.1905 24.636 25.1813 24.5046V14.4448C27.6215 16.6774 32.2603 16.8676 32.2603 16.8676Z" fill="#00F6EF"/>
<path d="M33.8211 18.1616V12.9135C26.9636 12.624 26.7439 6.39327 26.7439 5.80779V5.76367H21.4443V26.1929C21.4439 27.0757 21.1651 27.936 20.6476 28.6512C20.13 29.3665 19.4001 29.9003 18.5617 30.1767C17.7232 30.4532 16.819 30.4581 15.9775 30.191C15.1361 29.9238 14.4003 29.398 13.8749 28.6885C13.3495 27.979 13.0613 27.1219 13.0512 26.2391C13.0411 25.3564 13.3096 24.4929 13.8186 23.7715C14.3276 23.0502 15.0511 22.5077 15.8862 22.2213C16.7213 21.9349 17.6255 21.9192 18.47 22.1764V16.7655C18.063 16.7145 17.6532 16.6897 17.243 16.6911C15.3629 16.6916 13.5253 17.2497 11.9624 18.2946C10.3995 19.3396 9.18158 20.8246 8.46266 22.5617C7.74374 24.2989 7.55611 26.2102 7.92349 28.0541C8.29087 29.8979 9.19677 31.5913 10.5266 32.9203C11.8565 34.2492 13.5505 35.154 15.3946 35.5201C17.2386 35.8862 19.1499 35.6973 20.8865 34.9772C22.6232 34.2571 24.1074 33.0382 25.1513 31.4746C26.1952 29.911 26.752 28.073 26.7513 26.1929C26.7513 26.0596 26.7513 25.9273 26.7421 25.7958V15.7361C29.1823 17.9686 33.8211 18.1616 33.8211 18.1616Z" fill="white"/>
<path d="M25.3145 5.76367C25.57 7.15522 26.3163 9.33077 28.4918 10.6037C26.8292 8.66717 26.7455 6.16808 26.7455 5.80779V5.76367H25.3145Z" fill="#FF004F"/>
<path d="M33.8208 18.1617V12.9136C33.2959 12.8943 32.7733 12.8329 32.2583 12.7297V16.8612C32.2583 16.8612 27.6195 16.6709 25.1811 14.4384V24.4954C25.1866 24.6268 25.1903 24.7592 25.1903 24.8924C25.19 26.6122 24.7233 28.2997 23.8397 29.7752C22.9562 31.2506 21.6889 32.4588 20.173 33.2709C18.657 34.083 16.9492 34.4687 15.2313 34.3868C13.5135 34.3049 11.8501 33.7586 10.4182 32.806C11.735 34.166 13.4279 35.1017 15.28 35.4933C17.132 35.885 19.0588 35.7146 20.8134 35.0042C22.568 34.2938 24.0705 33.0756 25.1284 31.5057C26.1862 29.9359 26.7512 28.086 26.7509 26.193C26.7509 26.0597 26.7509 25.9273 26.7417 25.7959V15.7362C29.182 17.9687 33.8208 18.1617 33.8208 18.1617Z" fill="#FF004F"/>
<path d="M16.9091 20.8757C15.8972 20.5671 14.806 20.6518 13.8538 21.1129C12.9016 21.574 12.1586 22.3775 11.7732 23.3627C11.3878 24.348 11.3885 25.4424 11.7751 26.4272C12.1617 27.412 12.9058 28.2145 13.8586 28.6744C13.3379 27.9632 13.0542 27.1062 13.0477 26.2248C13.0412 25.3434 13.3122 24.4823 13.8223 23.7635C14.3324 23.0446 15.0557 22.5045 15.8898 22.2197C16.7239 21.9348 17.6266 21.9196 18.4698 22.1763V16.7654C18.0628 16.7144 17.6529 16.6896 17.2428 16.691C17.1297 16.691 17.0185 16.691 16.9064 16.6974L16.9091 20.8757Z" fill="#FF004F"/>
</g>
<defs>
<clipPath id="clip0_2461_3879">
<rect width="40" height="40" fill="white"/>
</clipPath>
</defs>
</svg>
