<svg width="18" height="18" viewBox="0 0 18 18" fill="none" xmlns="http://www.w3.org/2000/svg">
<g clip-path="url(#clip0_2884_6990)">
<path d="M8.99941 1.25C9.71566 1.25 10.3832 1.60025 10.7919 2.18525L10.8707 2.30525L16.9562 12.4662C17.1411 12.7866 17.2417 13.1486 17.2486 13.5184C17.2555 13.8882 17.1684 14.2537 16.9955 14.5806C16.8226 14.9076 16.5696 15.1854 16.2601 15.3879C15.9506 15.5904 15.5948 15.711 15.2259 15.7385L15.0797 15.7445H2.91091C2.54169 15.7403 2.17954 15.6427 1.85826 15.4607C1.53699 15.2787 1.26706 15.0183 1.07368 14.7037C0.880305 14.3892 0.769777 14.0307 0.752417 13.6619C0.735057 13.2931 0.81143 12.9258 0.974408 12.5945L1.04866 12.4557L7.13116 2.30225C7.32591 1.98111 7.60013 1.71558 7.92737 1.53126C8.25461 1.34695 8.62383 1.25008 8.99941 1.25ZM9.00691 11.2475L8.91166 11.2528C8.72937 11.2744 8.56137 11.3622 8.43947 11.4995C8.31757 11.6367 8.25024 11.8139 8.25024 11.9975C8.25024 12.1811 8.31757 12.3583 8.43947 12.4955C8.56137 12.6328 8.72937 12.7206 8.91166 12.7423L8.99941 12.7475L9.09466 12.7423C9.27695 12.7206 9.44495 12.6328 9.56685 12.4955C9.68875 12.3583 9.75607 12.1811 9.75607 11.9975C9.75607 11.8139 9.68875 11.6367 9.56685 11.4995C9.44495 11.3622 9.27695 11.2744 9.09466 11.2528L9.00691 11.2475ZM8.99941 5.9975C8.81571 5.99752 8.6384 6.06497 8.50113 6.18704C8.36385 6.30911 8.27615 6.47731 8.25466 6.65975L8.24941 6.7475V9.7475L8.25466 9.83525C8.27634 10.0175 8.36412 10.1855 8.50138 10.3074C8.63864 10.4293 8.81584 10.4967 8.99941 10.4967C9.18298 10.4967 9.36018 10.4293 9.49743 10.3074C9.63469 10.1855 9.72248 10.0175 9.74416 9.83525L9.74941 9.7475V6.7475L9.74416 6.65975C9.72266 6.47731 9.63496 6.30911 9.49769 6.18704C9.36041 6.06497 9.18311 5.99752 8.99941 5.9975Z" fill="#FFCC00"/>
</g>
<defs>
<clipPath id="clip0_2884_6990">
<rect width="18" height="18" fill="white"/>
</clipPath>
</defs>
</svg>
