<svg width="32" height="32" viewBox="0 0 32 32" fill="none" xmlns="http://www.w3.org/2000/svg">
<g clip-path="url(#clip0_2147_2919)">
<path d="M15.9998 31.9995C24.8362 31.9995 31.9995 24.8362 31.9995 15.9998C31.9995 7.16333 24.8362 0 15.9998 0C7.16333 0 0 7.16333 0 15.9998C0 24.8362 7.16333 31.9995 15.9998 31.9995Z" fill="#C83A2D"/>
<path d="M14.1498 31.8927C14.757 31.9626 15.3741 31.9998 16.0001 31.9998C24.8366 31.9998 32 24.8364 32 15.9999C32 15.2788 31.9515 14.5691 31.859 13.8732L23.2656 5.27977C23.0948 5.07921 22.8991 4.90046 22.6818 4.75052V6.12458L21.3258 4.75052H20.0078V6.13783L18.6518 4.75052C17.8694 5.29046 17.3538 6.19264 17.3538 7.20977V8.70071L13.932 5.28096C13.3823 4.63502 12.5647 4.22314 11.6552 4.22314H11.0114C9.36626 4.22314 8.02026 5.56914 8.02026 7.21427V10.1483C8.02026 11.0578 8.43214 11.8753 9.07808 12.4251L10.2373 13.5951V15.0491C9.6287 15.2185 9.17845 15.779 9.17845 16.4398V26.3332C9.17845 26.8174 9.42026 27.2475 9.78889 27.5098L14.1498 31.8927Z" fill="#911D12"/>
<path d="M12.4293 12.498H10.2373V15.2099H12.4293V12.498Z" fill="#E1E1E3"/>
<path d="M12.4289 12.498H11.333V15.2099H12.4289V12.498Z" fill="#C8C6CC"/>
<path d="M12.0447 27.7768H10.6219C9.82797 27.7768 9.17847 27.1273 9.17847 26.3334V16.44C9.17847 15.6461 9.82797 14.9966 10.6219 14.9966H12.0447C12.8386 14.9966 13.4881 15.6461 13.4881 16.44V26.3335C13.488 27.1273 12.8385 27.7768 12.0447 27.7768Z" fill="#394CE2"/>
<path d="M12.0446 27.7768C12.8386 27.7768 13.4881 27.1273 13.4881 26.3334V16.44C13.4881 15.6461 12.8386 14.9966 12.0446 14.9966H11.3333V27.7768H12.0446Z" fill="#1B2DDD"/>
<path d="M21.7628 12.498H19.5708V15.2099H21.7628V12.498Z" fill="#E1E1E3"/>
<path d="M21.7624 12.498H20.6665V15.2099H21.7624V12.498Z" fill="#C8C6CC"/>
<path d="M21.3782 27.7768H19.9554C19.1615 27.7768 18.512 27.1273 18.512 26.3334V16.44C18.512 15.6461 19.1615 14.9966 19.9554 14.9966H21.3782C22.1721 14.9966 22.8216 15.6461 22.8216 16.44V26.3335C22.8216 27.1273 22.172 27.7768 21.3782 27.7768Z" fill="#394CE2"/>
<path d="M21.3781 27.7768C22.1721 27.7768 22.8216 27.1273 22.8216 26.3334V16.44C22.8216 15.6461 22.1721 14.9966 21.3781 14.9966H20.6667V27.7768H21.3781Z" fill="#1B2DDD"/>
<path d="M11.6552 13.1395H11.0114C9.36626 13.1395 8.02026 11.7935 8.02026 10.1483V7.21427C8.02026 5.56914 9.36626 4.22314 11.0114 4.22314H11.6552C13.3003 4.22314 14.6463 5.56914 14.6463 7.21427V10.1484C14.6463 11.7935 13.3003 13.1395 11.6552 13.1395Z" fill="white"/>
<path d="M11.6551 4.22314H11.3333V13.1393H11.6551C13.3003 13.1393 14.6463 11.7933 14.6463 10.1482V7.21414C14.6463 5.56914 13.3003 4.22314 11.6551 4.22314Z" fill="#E1E1E3"/>
<path d="M22.6818 4.75049V10.3219H21.3258V4.75049H20.0078V10.3219H18.6518V4.75049C17.8693 5.29043 17.3538 6.19261 17.3538 7.20974V10.1527C17.3538 11.7953 18.6978 13.1394 20.3404 13.1394H20.9931C22.6358 13.1394 23.9798 11.7954 23.9798 10.1527V7.20974C23.9798 6.19261 23.4642 5.29043 22.6818 4.75049Z" fill="white"/>
<path d="M22.6817 4.75049V10.3219H21.3257V4.75049H20.6667V13.1393H20.9931C22.6357 13.1393 23.9797 11.7953 23.9797 10.1526V7.20968C23.9797 6.19261 23.4642 5.29043 22.6817 4.75049Z" fill="#E1E1E3"/>
<path d="M11.353 26.2977H11.3132C10.8941 26.2977 10.5513 25.9548 10.5513 25.5357V23.843C10.5513 23.4239 10.8941 23.0811 11.3132 23.0811H11.353C11.7721 23.0811 12.115 23.4239 12.115 23.843V25.5357C12.1149 25.9548 11.7721 26.2977 11.353 26.2977Z" fill="white"/>
<path d="M11.3532 26.2977C11.7723 26.2977 12.1151 25.9548 12.1151 25.5357V23.843C12.1151 23.4239 11.7723 23.0811 11.3532 23.0811H11.3333V26.2976H11.3532V26.2977Z" fill="#E1E1E3"/>
<path d="M20.6868 26.2977H20.6469C20.2279 26.2977 19.885 25.9548 19.885 25.5357V23.843C19.885 23.4239 20.2279 23.0811 20.6469 23.0811H20.6868C21.1058 23.0811 21.4487 23.4239 21.4487 23.843V25.5357C21.4486 25.9548 21.1058 26.2977 20.6868 26.2977Z" fill="white"/>
<path d="M20.6867 26.2977C21.1057 26.2977 21.4486 25.9548 21.4486 25.5357V23.843C21.4486 23.4239 21.1057 23.0811 20.6867 23.0811H20.6667V26.2976H20.6867V26.2977Z" fill="#E1E1E3"/>
</g>
<defs>
<clipPath id="clip0_2147_2919">
<rect width="32" height="32" fill="white"/>
</clipPath>
</defs>
</svg>
