<svg width="16" height="16" viewBox="0 0 16 16" fill="none" xmlns="http://www.w3.org/2000/svg">
<g clip-path="url(#clip0_2107_1204)">
<path d="M14.5279 12.469C14.2859 13.028 13.9995 13.5426 13.6677 14.0157C13.2153 14.6606 12.845 15.107 12.5596 15.3549C12.1171 15.7618 11.643 15.9702 11.1354 15.982C10.771 15.982 10.3315 15.8783 9.81989 15.668C9.30663 15.4586 8.83494 15.3549 8.40364 15.3549C7.95131 15.3549 7.46619 15.4586 6.9473 15.668C6.42761 15.8783 6.00895 15.988 5.68887 15.9988C5.20207 16.0196 4.71685 15.8052 4.23252 15.3549C3.92339 15.0853 3.53674 14.6231 3.07354 13.9683C2.57657 13.269 2.16799 12.4582 1.8479 11.5338C1.5051 10.5353 1.33325 9.56839 1.33325 8.63232C1.33325 7.56006 1.56495 6.63525 2.02903 5.86026C2.39376 5.23776 2.87898 4.74671 3.48627 4.38623C4.09356 4.02574 4.74974 3.84205 5.45638 3.83029C5.84303 3.83029 6.35008 3.94989 6.98018 4.18495C7.60851 4.42079 8.01195 4.5404 8.18884 4.5404C8.32108 4.5404 8.76926 4.40055 9.52904 4.12174C10.2475 3.86318 10.8539 3.75612 11.3507 3.79829C12.6968 3.90693 13.7082 4.43758 14.3807 5.3936C13.1768 6.12306 12.5813 7.14476 12.5931 8.45544C12.604 9.47635 12.9744 10.3259 13.7022 11.0004C14.0321 11.3135 14.4005 11.5555 14.8104 11.7273C14.7215 11.9851 14.6276 12.232 14.5279 12.469ZM11.4406 0.320274C11.4406 1.12046 11.1482 1.86759 10.5655 2.55912C9.86236 3.38122 9.01182 3.85627 8.08948 3.78131C8.07773 3.68531 8.07091 3.58428 8.07091 3.47811C8.07091 2.70993 8.40532 1.88783 8.99918 1.21565C9.29566 0.875319 9.67274 0.592335 10.13 0.366593C10.5863 0.14422 11.0179 0.0212425 11.4238 0.000183105C11.4356 0.107155 11.4406 0.214134 11.4406 0.320264V0.320274Z" fill="#121212"/>
</g>
<defs>
<clipPath id="clip0_2107_1204">
<rect width="16" height="16" fill="white"/>
</clipPath>
</defs>
</svg>
