<svg width="24" height="24" viewBox="0 0 24 24" fill="none" xmlns="http://www.w3.org/2000/svg">
<g clip-path="url(#clip0_2884_5350)">
<path d="M11.236 2.06641L9.542 7.71341L9.513 7.83641C9.48235 8.02108 9.50415 8.21066 9.57592 8.38356C9.6477 8.55645 9.76657 8.70573 9.919 8.81441L12.683 10.7884L11.132 13.5044C11.0631 13.6186 11.0178 13.7453 10.9986 13.8773C10.9795 14.0092 10.9869 14.1436 11.0204 14.2726C11.054 14.4017 11.113 14.5227 11.194 14.6286C11.275 14.7344 11.3764 14.8231 11.4921 14.8892C11.6079 14.9553 11.7357 14.9977 11.868 15.0137C12.0004 15.0297 12.1346 15.0191 12.2628 14.9825C12.391 14.9459 12.5105 14.8841 12.6145 14.8006C12.7184 14.7171 12.8046 14.6137 12.868 14.4964L14.868 10.9964L14.92 10.8914C15.0091 10.682 15.024 10.4484 14.9624 10.2293C14.9007 10.0102 14.7662 9.8187 14.581 9.68641L11.663 7.60141L13.286 2.19141C16.927 3.26541 20 8.68841 20 14.0834C20 18.6734 16.727 21.7934 12 22.0004C7.25 22.0004 4 18.7904 4 14.0834C4 8.42941 7.372 2.73941 11.236 2.06641Z" fill="#BEBEBE"/>
</g>
<defs>
<clipPath id="clip0_2884_5350">
<rect width="24" height="24" fill="white"/>
</clipPath>
</defs>
</svg>
