<svg width="14" height="14" viewBox="0 0 14 14" fill="none" xmlns="http://www.w3.org/2000/svg">
<g clip-path="url(#clip0_2154_2122)">
<path d="M12.8374 11.0126C12.0621 10.5347 11.7073 9.0271 11.7073 8.52469V6.41252C11.7073 4.11179 10.057 2.19781 7.87581 1.78675C7.93362 1.71186 7.98283 1.62971 8.02027 1.54074C8.0767 1.40804 8.10769 1.2612 8.10769 1.10909C8.10788 0.880523 8.03771 0.665301 7.91814 0.488879C7.79856 0.311855 7.62996 0.17191 7.43063 0.087418C7.29776 0.0309805 7.15093 0 6.99881 0C6.77044 0 6.55522 0.0701641 6.3786 0.189738C6.20177 0.309121 6.06164 0.477914 5.97714 0.67725C5.92087 0.810168 5.88992 0.956785 5.88992 1.10909C5.88972 1.33725 5.96008 1.55269 6.07946 1.7293C6.09278 1.74891 6.10692 1.76813 6.12163 1.78675C3.94069 2.198 2.29036 4.11198 2.29036 6.41252V8.52469C2.29036 9.0271 1.93554 10.5347 1.16019 11.0126C-1.2818 12.5177 2.9182 14 6.99881 14C11.0794 14 15.2794 12.5177 12.8374 11.0126ZM6.65382 0.876832C6.69891 0.810168 6.76278 0.757066 6.8371 0.725895C6.88668 0.704922 6.9406 0.693164 6.99881 0.693164C7.08604 0.693356 7.16446 0.71925 7.2311 0.764121C7.29776 0.80902 7.35087 0.873113 7.38226 0.947406C7.40304 0.996816 7.4146 1.05071 7.4146 1.10914C7.41441 1.19637 7.38874 1.27457 7.34384 1.34121C7.29894 1.40787 7.23485 1.46098 7.16074 1.49237C7.11114 1.51315 7.05722 1.52491 6.99881 1.52491C6.91159 1.52471 6.83338 1.49904 6.76653 1.45414C6.70008 1.40905 6.64696 1.34496 6.61559 1.27066C6.59481 1.22125 6.58305 1.16755 6.58305 1.10914C6.58324 1.02167 6.60892 0.943469 6.65382 0.876832Z" fill="#F8CC6D"/>
<path d="M13.4645 12.1475C13.4645 13.1706 10.551 14.0002 6.9567 14.0002C3.36264 14.0002 0.449219 13.1706 0.449219 12.1475C0.449219 11.1245 3.36264 10.2949 6.9567 10.2949C10.551 10.2949 13.4645 11.1245 13.4645 12.1475Z" fill="#EBB75A"/>
<path d="M7.38657 0.959328C7.50615 1.2653 7.25385 1.50232 6.99805 1.51624V14C7.65473 14 8.3118 13.9628 8.96417 13.8894C9.67946 13.8091 10.3918 13.6869 11.0887 13.5046C11.6428 13.359 12.1986 13.1789 12.7031 12.9038C13.0168 12.7333 13.38 12.4996 13.5155 12.1507C13.6401 11.8294 13.467 11.5264 13.2336 11.3082C13.044 11.131 12.8056 11.0205 12.619 10.8421C12.3967 10.6294 12.235 10.3583 12.1072 10.0811C11.8853 9.60146 11.7063 9.03747 11.7063 8.50489V6.51016C11.7063 5.46399 11.4088 4.45408 10.7813 3.60921C10.0805 2.66498 9.03198 2.00378 7.87564 1.78618C8.42766 1.07067 7.90094 -0.00038271 6.99805 1.02589e-07V0.701777C7.14723 0.693738 7.29798 0.761742 7.37637 0.935813L7.37873 0.941309C7.37971 0.94325 7.3807 0.945219 7.38149 0.94757C7.38247 0.950332 7.38403 0.952656 7.38482 0.955418C7.38597 0.957988 7.38657 0.959328 7.38657 0.959328Z" fill="#F7BB62"/>
<path d="M5.78074 10.8724C3.0514 11 0.998047 11.5534 0.998047 12.2175C0.998047 12.9738 3.6633 13.5869 6.95647 13.5903V10.8447C6.55424 10.8451 6.16082 10.8544 5.78074 10.8724Z" fill="#AD7E42"/>
<path d="M8.31429 10.8784C7.88617 10.8558 7.44162 10.8442 6.98448 10.8442C6.97546 10.8442 6.96625 10.8444 6.95703 10.8444V13.59C6.96625 13.59 6.97546 13.5902 6.98448 13.5902C10.2906 13.5902 12.9707 12.9756 12.9707 12.2172C12.9707 11.5637 10.9804 11.0168 8.31429 10.8784Z" fill="#9E703B"/>
<path d="M8.51397 11.617C8.51397 12.4279 7.85652 13.0854 7.04594 13.0854C6.23539 13.0854 5.57812 12.4279 5.57812 11.617C5.57812 11.3451 5.65223 11.0903 5.78121 10.8721C6.17012 10.8536 6.57256 10.8442 6.98439 10.8442C7.44152 10.8442 7.8861 10.8558 8.3142 10.8784C8.44143 11.0951 8.51397 11.3478 8.51397 11.617Z" fill="#ECC052"/>
<path d="M6.51691 12.5739C6.68374 12.5739 6.81898 12.4386 6.81898 12.2718C6.81898 12.105 6.68374 11.9697 6.51691 11.9697C6.35008 11.9697 6.21484 12.105 6.21484 12.2718C6.21484 12.4386 6.35008 12.5739 6.51691 12.5739Z" fill="white"/>
<path d="M3.56823 5.97771C3.56842 5.29398 3.78553 4.66221 4.15541 4.1441C4.5251 3.6264 5.0475 3.22379 5.65478 3.00345C5.79866 2.95112 5.87295 2.79233 5.82081 2.64826C5.76845 2.50437 5.60947 2.43027 5.46561 2.48261C4.75071 2.74194 4.13835 3.21397 3.70405 3.82201C3.26977 4.4297 3.01345 5.17537 3.01367 5.97769C3.01367 6.13059 3.13784 6.25468 3.29083 6.25468C3.44404 6.25468 3.56823 6.13059 3.56823 5.97771Z" fill="white"/>
</g>
<defs>
<clipPath id="clip0_2154_2122">
<rect width="14" height="14" fill="white"/>
</clipPath>
</defs>
</svg>
