<svg width="28" height="28" viewBox="0 0 28 28" fill="none" xmlns="http://www.w3.org/2000/svg">
<path opacity="0.2" d="M24.5 11.375V21C24.5 21.2321 24.4078 21.4546 24.2437 21.6187C24.0796 21.7828 23.8571 21.875 23.625 21.875H18.375V11.375H24.5Z" fill="#C83A2D"/>
<path d="M3.0625 14C2.83044 14 2.60788 13.9078 2.44378 13.7437C2.27969 13.5796 2.1875 13.3571 2.1875 13.125C2.1875 12.8929 2.27969 12.6704 2.44378 12.5063C2.60788 12.3422 2.83044 12.25 3.0625 12.25H6.125C6.35706 12.25 6.57962 12.1578 6.74372 11.9937C6.90781 11.8296 7 11.6071 7 11.375C7 11.1429 6.90781 10.9204 6.74372 10.7563C6.57962 10.5922 6.35706 10.5 6.125 10.5H4.375C3.67881 10.5 3.01113 10.2234 2.51884 9.73116C2.02656 9.23887 1.75 8.57119 1.75 7.875C1.75 7.17881 2.02656 6.51113 2.51884 6.01884C3.01113 5.52656 3.67881 5.25 4.375 5.25C4.375 5.01794 4.46719 4.79538 4.63128 4.63128C4.79538 4.46719 5.01794 4.375 5.25 4.375C5.48206 4.375 5.70462 4.46719 5.86872 4.63128C6.03281 4.79538 6.125 5.01794 6.125 5.25H7C7.23206 5.25 7.45462 5.34219 7.61872 5.50628C7.78281 5.67038 7.875 5.89294 7.875 6.125C7.875 6.35706 7.78281 6.57962 7.61872 6.74372C7.45462 6.90781 7.23206 7 7 7H4.375C4.14294 7 3.92038 7.09219 3.75628 7.25628C3.59219 7.42038 3.5 7.64294 3.5 7.875C3.5 8.10706 3.59219 8.32962 3.75628 8.49372C3.92038 8.65781 4.14294 8.75 4.375 8.75H6.125C6.82119 8.75 7.48887 9.02656 7.98116 9.51884C8.47344 10.0111 8.75 10.6788 8.75 11.375C8.75 12.0712 8.47344 12.7389 7.98116 13.2312C7.48887 13.7234 6.82119 14 6.125 14C6.125 14.2321 6.03281 14.4546 5.86872 14.6187C5.70462 14.7828 5.48206 14.875 5.25 14.875C5.01794 14.875 4.79538 14.7828 4.63128 14.6187C4.46719 14.4546 4.375 14.2321 4.375 14H3.0625ZM25.375 6.125V21C25.375 21.4641 25.1906 21.9092 24.8624 22.2374C24.5342 22.5656 24.0891 22.75 23.625 22.75H4.375C3.91087 22.75 3.46575 22.5656 3.13756 22.2374C2.80937 21.9092 2.625 21.4641 2.625 21V16.625C2.625 16.3929 2.71719 16.1704 2.88128 16.0063C3.04538 15.8422 3.26794 15.75 3.5 15.75C3.73206 15.75 3.95462 15.8422 4.11872 16.0063C4.28281 16.1704 4.375 16.3929 4.375 16.625V21H17.5V17.5H8.75C8.51794 17.5 8.29538 17.4078 8.13128 17.2437C7.96719 17.0796 7.875 16.8571 7.875 16.625C7.875 16.3929 7.96719 16.1704 8.13128 16.0063C8.29538 15.8422 8.51794 15.75 8.75 15.75H17.5V12.25H11.375C11.1429 12.25 10.9204 12.1578 10.7563 11.9937C10.5922 11.8296 10.5 11.6071 10.5 11.375C10.5 11.1429 10.5922 10.9204 10.7563 10.7563C10.9204 10.5922 11.1429 10.5 11.375 10.5H23.625V7H10.5C10.2679 7 10.0454 6.90781 9.88128 6.74372C9.71719 6.57962 9.625 6.35706 9.625 6.125C9.625 5.89294 9.71719 5.67038 9.88128 5.50628C10.0454 5.34219 10.2679 5.25 10.5 5.25H24.5C24.7321 5.25 24.9546 5.34219 25.1187 5.50628C25.2828 5.67038 25.375 5.89294 25.375 6.125ZM19.25 15.75H23.625V12.25H19.25V15.75ZM23.625 21V17.5H19.25V21H23.625Z" fill="#C83A2D"/>
</svg>
