<svg width="32" height="32" viewBox="0 0 32 32" fill="none" xmlns="http://www.w3.org/2000/svg">
<g clip-path="url(#clip0_2147_8828)">
<path d="M15.9146 0C15.9146 0 15.9141 0 15.9136 0H13.2481C12.8799 0 12.5811 0.298815 12.5811 0.667005C12.5811 1.0352 12.8799 1.33301 13.2481 1.33301H15.9146C16.2828 1.33301 16.581 1.03513 16.581 0.667005C16.581 0.298877 16.2828 0 15.9146 0Z" fill="#434A54"/>
<path d="M14.4336 17.961L13.9844 16.7061C14.0083 16.6973 16.374 15.8448 18.958 14.4542C22.2958 12.6573 24.4843 10.7901 25.2851 9.05381C26.1767 7.12217 26.3261 5.60654 25.705 4.78522C25.2168 4.13871 24.2138 3.86527 23.0234 4.05184C21.9326 4.22371 20.9639 4.77253 20.7705 5.32722L19.5117 4.88872C19.704 4.33696 20.1533 3.83596 20.8124 3.44046C21.3798 3.09964 22.0917 2.84964 22.8163 2.73539C24.5009 2.46976 25.9785 2.93558 26.7685 3.98152C27.2324 4.59478 27.4501 5.3751 27.4159 6.29992C27.3798 7.25305 27.0702 8.36731 26.496 9.61244C25.5585 11.6447 23.2293 13.672 19.5731 15.6369C16.9038 17.0723 14.5332 17.9258 14.4336 17.961Z" fill="#D5D5D5"/>
<path d="M4.58105 2.66699L6.14838 6.66702L7.91452 22.1495H21.2476L23.2475 2.66699H4.58105Z" fill="#E6E9ED"/>
<path d="M6.45215 9.33301L7.9141 22.1495H21.2471L22.5625 9.33301H6.45215Z" fill="#FFCE54"/>
<path d="M22.58 31.333C22.58 31.7012 22.2821 32 21.914 32C21.5459 32 21.2471 31.7012 21.2471 31.333C21.2471 30.9648 21.5459 30.667 21.914 30.667C22.2822 30.667 22.58 30.9649 22.58 31.333Z" fill="#E9573F"/>
<path d="M7.87257 31.333C7.87257 31.7012 7.57376 32 7.20557 32C6.83738 32 6.53906 31.7012 6.53906 31.333C6.53906 30.9648 6.83738 30.667 7.20557 30.667C7.57376 30.667 7.87257 30.9649 7.87257 31.333Z" fill="#E9573F"/>
<path d="M23.4584 25.4141L21.7036 20.586C21.4526 19.8974 20.6479 19.333 19.9145 19.333H9.24802C8.51464 19.333 7.70944 19.8974 7.45894 20.586L5.70355 25.4141C5.45255 26.1026 5.24805 27.2666 5.24805 28V30C5.24805 30.7333 5.84761 31.333 6.58099 31.333H22.5805C23.3139 31.333 23.9145 30.7333 23.9145 30V28C23.9145 27.2666 23.7094 26.1026 23.4584 25.4141Z" fill="#FC6E51"/>
<path d="M23.2471 2.66695V1.333C23.2471 0.964807 22.9483 0.666992 22.5801 0.666992H6.58057C6.21238 0.666992 5.91406 0.964869 5.91406 1.333V2.66695H23.2471Z" fill="#D5D5D5"/>
<path d="M14.5811 22.1494C12.7402 22.1494 11.248 23.6416 11.248 25.4824C11.248 27.3232 12.7402 28.8164 14.5811 28.8164C16.4218 28.8164 17.9145 27.3232 17.9145 25.4824C17.9145 23.6416 16.4218 22.1494 14.5811 22.1494ZM14.5811 27.4824C13.4785 27.4824 12.5811 26.5849 12.5811 25.4824C12.5811 24.3799 13.4785 23.4824 14.5811 23.4824C15.6841 23.4824 16.581 24.3799 16.581 25.4824C16.581 26.5849 15.6841 27.4824 14.5811 27.4824Z" fill="#E9573F"/>
<path d="M13.9146 8H13.9151H15.2471C15.2471 8 15.2476 8 15.2481 8C15.6163 8 15.9146 7.70119 15.9146 7.333C15.9146 6.96481 15.6163 6.66699 15.2481 6.66699H13.9146C13.5464 6.66699 13.248 6.96487 13.248 7.333C13.248 7.70113 13.5464 8 13.9146 8Z" fill="#434A54"/>
<path d="M15.2481 9.33301H13.9146C13.5464 9.33301 13.248 9.63182 13.248 10C13.248 10.3682 13.5464 10.667 13.9146 10.667H13.9151H15.2471C15.2471 10.667 15.2476 10.667 15.2481 10.667C15.6163 10.667 15.9146 10.3682 15.9146 10C15.9146 9.63182 15.6163 9.33301 15.2481 9.33301Z" fill="#434A54"/>
<path d="M15.2481 12H13.9146C13.5464 12 13.248 12.2988 13.248 12.6669C13.248 13.0351 13.5464 13.3329 13.9146 13.3329H13.9151H15.2471C15.2471 13.3329 15.2476 13.3329 15.2481 13.3329C15.6163 13.3329 15.9146 13.0351 15.9146 12.6669C15.9146 12.2988 15.6163 12 15.2481 12Z" fill="#434A54"/>
<path d="M15.2481 14.667H13.9146C13.5464 14.667 13.248 14.9649 13.248 15.333C13.248 15.7011 13.5464 16 13.9146 16H13.9151H15.2471C15.2471 16 15.2476 16 15.2481 16C15.6163 16 15.9146 15.7012 15.9146 15.333C15.9146 14.9648 15.6163 14.667 15.2481 14.667Z" fill="#434A54"/>
<path d="M14.5806 28.1494C13.1104 28.1494 11.9141 26.9531 11.9141 25.4824C11.9141 24.0117 13.1104 22.8164 14.5806 22.8164C16.0513 22.8164 17.247 24.0117 17.247 25.4824C17.247 26.9531 16.0513 28.1494 14.5806 28.1494Z" fill="#E6E9ED"/>
<path d="M15.2476 24.1494C15.2476 24.5176 14.9488 24.8164 14.5806 24.8164C14.2124 24.8164 13.9141 24.5176 13.9141 24.1494C13.9141 23.7812 14.2124 23.4824 14.5806 23.4824C14.9488 23.4824 15.2476 23.7812 15.2476 24.1494Z" fill="#CCD1D9"/>
</g>
<defs>
<clipPath id="clip0_2147_8828">
<rect width="32" height="32" fill="white"/>
</clipPath>
</defs>
</svg>
