<svg width="24" height="24" viewBox="0 0 24 24" fill="none" xmlns="http://www.w3.org/2000/svg">
<g clip-path="url(#clip0_2884_4446)">
<path d="M12 0C5.37269 0 0 5.37269 0 12C0 18.6273 5.37269 24 12 24C18.6273 24 24 18.6273 24 12C24 5.37269 18.6273 0 12 0ZM2.06897 12C2.06897 6.52428 6.52428 2.06897 12 2.06897C14.419 2.06897 16.6378 2.93917 18.3621 4.38166L4.38166 18.3621C2.93917 16.6378 2.06897 14.4186 2.06897 12ZM12 21.931C9.6869 21.931 7.55752 21.1337 5.86759 19.8025L19.8025 5.86717C21.1337 7.55752 21.931 9.6869 21.931 12C21.931 17.4757 17.4757 21.931 12 21.931Z" fill="#BEBEBE"/>
</g>
<defs>
<clipPath id="clip0_2884_4446">
<rect width="24" height="24" fill="white"/>
</clipPath>
</defs>
</svg>
