<svg width="28" height="28" viewBox="0 0 28 28" fill="none" xmlns="http://www.w3.org/2000/svg">
<g clip-path="url(#clip0_2147_9893)">
<path d="M26.527 22.6494L15.9288 27.4411C15.2754 27.7492 14.5941 27.7191 13.9685 27.3576L0.589808 20.564C0.207493 20.3184 0.0939568 19.9593 0.117127 19.709C0.140298 19.4588 0.198225 19.1877 0.870173 18.993L1.86188 18.627L15.2823 25.9419L24.8193 22.0446L26.527 22.6494Z" fill="#01579B"/>
<path d="M15.8014 26.6739C15.5364 26.7982 15.2456 26.8576 14.953 26.8471C14.6605 26.8367 14.3746 26.7566 14.1192 26.6137L1.05791 20.0332C0.872549 19.9312 0.81694 19.6972 0.928159 19.5165C1.21547 19.0415 1.74377 17.54 0.872549 16.2935L15.623 23.3953L15.8014 26.6739Z" fill="#F5F5F5"/>
<path d="M25.9619 22.1069L15.8016 26.6738C15.4656 26.8198 14.796 27.0793 14.0244 26.5602C14.6338 26.6043 15.0625 26.3517 15.2826 25.9416C15.4981 25.5431 15.4332 24.8896 15.1714 24.5212C15.0115 24.2988 14.5828 23.9443 14.3951 23.745L25.385 19.4469C26.3581 19.046 27.2711 19.6461 27.417 20.376C27.5792 21.2009 26.5273 21.8751 25.9619 22.1069Z" fill="#94C6D6"/>
<path d="M26.4695 19.0899L15.9801 23.7704C15.3197 24.0322 14.5806 23.9975 13.948 23.6777L0.546147 16.8702C0.416392 16.8053 0.224075 16.6269 0.147612 16.3836C0.0224908 15.9781 0.180051 15.4683 0.655049 15.3062L15.1784 22.7092L25.1232 18.4527L26.4695 19.0899Z" fill="#01579B"/>
<path d="M27.2595 19.769L26.1171 19.3543L23.763 19.491L15.9823 22.9643C15.3219 23.2261 14.5828 23.1913 13.9502 22.8716L0.546036 16.0664C0.200794 15.8903 0.27494 15.3782 0.654938 15.3064L10.3148 10.985C10.5905 10.9341 10.8732 10.9642 11.1304 11.0731L24.9146 17.6443C24.9146 17.6443 27.1042 19.1434 27.2595 19.769Z" fill="#0091EA"/>
<path d="M23.6303 19.5585C23.6303 19.5585 25.0808 18.9908 26.2208 19.0418C27.3608 19.0928 27.757 19.8922 27.757 19.8922C27.5415 18.9121 26.5289 18.4116 26.5289 18.4116L11.468 10.8278C11.3637 10.7838 10.9791 10.6934 10.3883 10.9367C9.91095 11.1337 8.35156 11.8635 8.35156 11.8635L23.6303 19.5585Z" fill="#616161"/>
<path d="M27.822 20.0773C27.7131 19.644 27.4443 19.1806 26.9485 18.9558C26.2951 18.6616 25.3636 18.738 24.7681 19.0485L23.6305 19.5536V20.3553L25.0694 19.7158C26.4689 19.0925 27.0898 20.0263 27.1431 20.2464C27.3656 21.1431 26.9346 21.6622 25.6625 22.2461L23.5957 23.1775V23.9839L25.973 22.925C27.025 22.5033 28.2252 21.7108 27.822 20.0773Z" fill="#424242"/>
<path d="M6.82676 19.8664L2.8252 14.3355L3.45312 14.0552L7.95517 20.2417L6.82676 19.8664Z" fill="#01579B"/>
<path d="M11.9597 22.4151L11.2461 21.8497L23.6308 19.3218V19.7273L21.8953 20.3853L11.9597 22.4151Z" fill="#01579B"/>
<path d="M2.6084 9.64099L18.2509 7.02734L25.0839 14.5508C25.4292 14.9146 25.2415 15.5171 24.7503 15.6167L8.60032 18.9301L2.6084 9.64099Z" fill="#9CCC65"/>
<path d="M24.7498 14.9681L8.71113 18.2166L8.66016 18.9813L24.7498 15.6818C25.204 15.5868 25.394 15.0678 25.1461 14.7017C25.058 14.8314 24.9236 14.9334 24.7498 14.9681Z" fill="#689F38"/>
<path d="M25.6148 18.4738C25.7839 18.7426 25.631 19.0971 25.3205 19.1597L10.5562 22.1533C9.66875 22.3364 8.79754 21.7548 8.71876 20.8511C8.65156 20.0865 9.16827 19.3937 9.92131 19.2361L24.1203 16.0479L25.6148 18.4738Z" fill="#689F38"/>
<path d="M12.0595 17.5005L6.17877 9.08496L2.82366 9.9724C2.04744 10.744 2.33707 12.0114 2.33707 12.0114C2.33707 12.0114 7.474 20.2555 8.28498 21.3098C9.09595 22.3641 10.28 22.1995 10.28 22.1995L12.2796 21.7964L12.0711 18.0659L12.0595 17.5005Z" fill="#616161"/>
<path d="M12.0596 17.5562L9.23514 18.1401C8.46356 18.3139 8.32453 19.0391 8.32453 19.0391L1.50542 9.26807C1.50542 9.26807 0.534567 10.4428 1.17871 11.4415L8.28514 21.3098C9.06136 22.4151 10.2801 22.2089 10.2801 22.2089L12.2798 21.8057L12.0735 18.1494L12.0596 17.5562Z" fill="#424242"/>
<path d="M24.7246 18.1723C24.7964 18.3299 24.7038 18.5129 24.5346 18.5477L10.4167 21.444C9.5293 21.627 8.90138 21.0385 8.93382 20.2368C8.97553 19.2242 9.54321 18.7956 10.2939 18.6403L24.4813 15.7417C24.4813 15.7417 23.9994 16.2839 24.3678 17.2988C24.4929 17.6486 24.6273 17.9591 24.7246 18.1723Z" fill="#B9E4EA"/>
<path d="M9.65434 18.3346L3.60449 9.77539" stroke="#424242" stroke-width="12.9438" stroke-miterlimit="10"/>
<path d="M10.129 14.6856L2.34832 10.7651L2.0332 11.3861L11.0234 15.9669L10.129 14.6856Z" fill="#424242"/>
<path d="M24.3858 13.777L23.8158 13.1514L15.0503 17.1738L10.1289 14.7386L10.9677 15.9388L14.2278 17.6048L16.6561 17.2317L24.3858 13.777Z" fill="#689F38"/>
<path d="M26.5247 12.2293L15.9288 17.021C15.2754 17.3292 14.5941 17.2991 13.9685 16.9376L0.589808 10.144C0.207493 9.89837 0.0939568 9.53923 0.117127 9.28899C0.140298 9.03874 0.198225 8.76765 0.870173 8.57301L1.4981 8.34131L15.2429 15.0863L26.4042 10.4684L26.5247 12.2293Z" fill="#C62828"/>
<path d="M15.7994 16.254C15.5344 16.3783 15.2436 16.4377 14.9511 16.4272C14.6585 16.4167 14.3727 16.3367 14.1172 16.1937L1.05596 9.61328C0.870596 9.51133 0.814987 9.2773 0.926206 9.09657C1.21352 8.62157 1.74181 7.12012 0.870596 5.87354L15.292 13.2094L15.7994 16.254Z" fill="#F5F5F5"/>
<path d="M25.959 11.6874L15.7987 16.2544C15.4627 16.4003 14.7931 16.6598 14.0215 16.1408C14.6309 16.1848 15.0595 15.9323 15.2796 15.5222C15.4951 15.1236 15.4303 14.4702 15.1684 14.1018C15.0086 13.8794 14.5799 13.5249 14.3922 13.3256L25.382 9.02743C26.3552 8.62658 27.2681 9.2267 27.4141 9.95657C27.5763 10.7814 26.5244 11.4557 25.959 11.6874Z" fill="#94C6D6"/>
<path d="M26.4692 8.6705L15.9799 13.351C15.3195 13.6128 14.5804 13.578 13.9478 13.2583L0.543607 6.45075C0.404584 6.38124 0.196048 6.20282 0.128853 5.95026C0.0292192 5.5749 0.158975 5.08136 0.652509 4.88673L12.9353 2.28467L26.4692 8.6705Z" fill="#C62828"/>
<path d="M27.2569 9.34911L26.1146 8.93435L23.7604 9.07106L15.9797 12.5443C15.3194 12.8062 14.5802 12.7714 13.9477 12.4517L0.543465 5.64412C0.198223 5.46803 0.321027 5.0023 0.652367 4.88413L10.3145 0.565119C10.5903 0.514144 10.8729 0.544266 11.1301 0.653168L24.9143 7.22436C24.9143 7.22436 27.1016 8.72118 27.2569 9.34911Z" fill="#F44336"/>
<path d="M23.6309 9.13615C23.6309 9.13615 24.8381 8.71213 25.9781 8.76311C27.1181 8.81408 27.7599 9.46981 27.7599 9.46981C27.5259 8.4225 26.5319 7.98921 26.5319 7.98921L11.4709 0.405457C11.3667 0.361433 10.982 0.271067 10.3912 0.514359C9.91388 0.711309 8.35449 1.44118 8.35449 1.44118L23.6309 9.13615Z" fill="#616161"/>
<path d="M25.0094 8.64034L9.59863 0.866596L10.1084 0.637207L25.781 8.49205L25.0094 8.64034Z" fill="#424242"/>
<path d="M27.8201 9.65738C27.7112 9.22409 27.5281 8.8047 27.0114 8.5869C26.3511 8.30885 25.7486 8.25092 24.7662 8.62861L23.6285 9.13373V9.93543L25.0674 9.29592C25.7973 8.95299 26.8724 9.02714 27.1412 9.82653C27.4354 10.7024 26.9326 11.2423 25.6606 11.8262L23.5938 12.7576V13.564L25.9711 12.5051C27.0253 12.0833 28.2256 11.2909 27.8201 9.65738Z" fill="#424242"/>
</g>
<defs>
<clipPath id="clip0_2147_9893">
<rect width="28" height="28" fill="white"/>
</clipPath>
</defs>
</svg>
