<svg width="32" height="32" viewBox="0 0 32 32" fill="none" xmlns="http://www.w3.org/2000/svg">
<g clip-path="url(#clip0_2147_6877)">
<path d="M18.9233 30.4134H13.0156C7.44575 30.4134 4.66085 30.4134 2.93051 28.683C1.2002 26.9528 1.2002 24.1678 1.2002 18.5979V15.6441C1.2002 10.0742 1.2002 7.28929 2.93051 5.55894C4.66085 3.82861 7.44575 3.82861 13.0156 3.82861H18.9233C24.493 3.82861 27.2781 3.82861 29.0083 5.55894C30.7387 7.28929 30.7387 10.0742 30.7387 15.6441V18.5979C30.7387 24.1678 30.7387 26.9528 29.0083 28.683C28.0436 29.6478 26.7511 30.0746 24.831 30.2635" fill="#1C274C"/>
<path d="M18.9233 30.4134H13.0156C7.44575 30.4134 4.66085 30.4134 2.93051 28.683C1.2002 26.9528 1.2002 24.1678 1.2002 18.5979V15.6441C1.2002 10.0742 1.2002 7.28929 2.93051 5.55894C4.66085 3.82861 7.44575 3.82861 13.0156 3.82861H18.9233C24.493 3.82861 27.2781 3.82861 29.0083 5.55894C30.7387 7.28929 30.7387 10.0742 30.7387 15.6441V18.5979C30.7387 24.1678 30.7387 26.9528 29.0083 28.683C28.0436 29.6478 26.7511 30.0746 24.831 30.2635" stroke="#1C274C" stroke-width="2" stroke-linecap="round"/>
<path d="M8.58496 3.82868V1.61328" stroke="#1C274C" stroke-width="2" stroke-linecap="round"/>
<path d="M23.3545 3.82868V1.61328" stroke="#1C274C" stroke-width="2" stroke-linecap="round"/>
<path d="M11.5391 19.3365L13.7544 17.1211V23.0288" stroke="white" stroke-width="2" stroke-linecap="round" stroke-linejoin="round"/>
<path d="M17.4463 21.5519V18.598C17.4463 17.7823 18.1075 17.1211 18.9232 17.1211C19.7389 17.1211 20.4001 17.7823 20.4001 18.598V21.5519C20.4001 22.3676 19.7389 23.0288 18.9232 23.0288C18.1075 23.0288 17.4463 22.3676 17.4463 21.5519Z" stroke="white" stroke-width="2" stroke-linecap="round"/>
<path d="M31.7873 11.213L23.9005 11.2129L14.396 11.2129M0.240234 11.2129L6.5092 11.2129" stroke="white" stroke-width="2"/>
</g>
<defs>
<clipPath id="clip0_2147_6877">
<rect width="32" height="32" fill="white"/>
</clipPath>
</defs>
</svg>
