<svg width="58" height="60" viewBox="0 0 58 60" fill="none" xmlns="http://www.w3.org/2000/svg">
<path d="M16.2211 7.47461V13.0896M41.4538 7.47461V13.0896M7.20459 46.7794V18.6971C7.20459 17.2079 7.77426 15.7797 8.78827 14.7267C9.80228 13.6737 11.1776 13.0821 12.6116 13.0821H45.0537C46.4877 13.0821 47.863 13.6737 48.877 14.7267C49.891 15.7797 50.4607 17.2079 50.4607 18.6971V46.7744M50.4607 46.7744C50.4607 48.2636 49.891 49.6918 48.877 50.7448C47.863 51.7978 46.4877 52.3894 45.0537 52.3894H12.6116C11.1776 52.3894 9.80228 51.7978 8.78827 50.7448C7.77426 49.6918 7.20459 48.2636 7.20459 46.7744V28.0579C7.20459 26.5687 7.77426 25.1405 8.78827 24.0875C9.80228 23.0345 11.1776 22.4429 12.6116 22.4429H45.0537C46.4877 22.4429 47.863 23.0345 48.877 24.0875C49.891 25.1405 50.4607 26.5687 50.4607 28.0579V46.7744ZM34.2397 31.8012H39.6467M18.0186 37.4161H28.8326M28.8374 31.8012H28.8495V31.8161H28.8374V31.8012ZM28.835 43.0311H28.8495V43.0461H28.835V43.0311ZM23.428 43.0336H23.44V43.0486H23.4304V43.0336H23.428ZM18.021 43.0336H18.033V43.0461H18.0186V43.0336H18.021ZM34.2421 37.4261H34.2541V37.4386H34.2421V37.4261ZM34.2421 43.0336H34.2565V43.0486H34.2421V43.0336ZM39.6491 37.4236H39.6635V37.4361H39.6515L39.6491 37.4236Z" stroke="#9CA3AF" stroke-width="3.32739" stroke-linecap="round" stroke-linejoin="round"/>
</svg>
