<svg width="32" height="32" viewBox="0 0 32 32" fill="none" xmlns="http://www.w3.org/2000/svg">
<g clip-path="url(#clip0_2147_9229)">
<path d="M7.11621 9.77772L8.1766 4.24236C8.18905 4.17346 8.22519 4.11108 8.27878 4.06602C8.33237 4.02095 8.40002 3.99605 8.47004 3.99561H23.5422C23.6122 3.99605 23.6799 4.02095 23.7335 4.06602C23.7871 4.11108 23.8232 4.17346 23.8357 4.24236L24.8961 9.77772H7.11621Z" fill="#FDCA89"/>
<path d="M23.2415 4.66244L24.0884 9.11074H7.92252L8.76949 4.66244H23.2415ZM23.5482 3.32862H8.46938C8.24469 3.32934 8.02726 3.40828 7.85444 3.55189C7.68162 3.6955 7.56421 3.89481 7.52237 4.11557L6.30859 10.4446H25.7024L24.4953 4.11557C24.4532 3.89368 24.3348 3.6935 24.1606 3.54976C23.9864 3.40602 23.7674 3.32779 23.5416 3.32862H23.5482Z" fill="#5C2D51"/>
<path d="M0.666992 7.99707H31.3449V28.0044H0.666992V7.99707Z" fill="#9FDBAD"/>
<path d="M30.011 8.6639C30.1879 8.6639 30.3575 8.73416 30.4826 8.85923C30.6076 8.9843 30.6779 9.15393 30.6779 9.33081V26.6705C30.6779 26.8474 30.6076 27.017 30.4826 27.1421C30.3575 27.2671 30.1879 27.3374 30.011 27.3374H2.00073C1.82386 27.3374 1.65422 27.2671 1.52916 27.1421C1.40409 27.017 1.33382 26.8474 1.33382 26.6705V9.33081C1.33382 9.15393 1.40409 8.9843 1.52916 8.85923C1.65422 8.73416 1.82386 8.6639 2.00073 8.6639H30.011ZM30.011 7.33008H2.00073C1.47011 7.33008 0.961211 7.54087 0.586001 7.91608C0.210791 8.29129 0 8.80018 0 9.33081L0 26.6705C0 27.2011 0.210791 27.71 0.586001 28.0852C0.961211 28.4604 1.47011 28.6712 2.00073 28.6712H30.011C30.5416 28.6712 31.0505 28.4604 31.4257 28.0852C31.8009 27.71 32.0117 27.2011 32.0117 26.6705V9.33081C32.0117 8.80018 31.8009 8.29129 31.4257 7.91608C31.0505 7.54087 30.5416 7.33008 30.011 7.33008Z" fill="#5C2D51"/>
<path d="M16.0057 25.1901C14.5838 25.1901 13.1938 24.7685 12.0115 23.9785C10.8293 23.1885 9.9078 22.0657 9.36366 20.752C8.81952 19.4384 8.67715 17.9928 8.95455 16.5983C9.23195 15.2037 9.91667 13.9227 10.9221 12.9172C11.9275 11.9118 13.2086 11.2271 14.6031 10.9497C15.9977 10.6723 17.4433 10.8146 18.7569 11.3588C20.0706 11.9029 21.1934 12.8244 21.9834 14.0067C22.7734 15.1889 23.195 16.5789 23.195 18.0008C23.1915 19.9065 22.4329 21.733 21.0854 23.0805C19.7379 24.428 17.9113 25.1866 16.0057 25.1901Z" fill="white"/>
<path d="M16.0056 11.4784C17.2956 11.4784 18.5567 11.8609 19.6293 12.5776C20.7019 13.2943 21.5379 14.3129 22.0315 15.5047C22.5252 16.6965 22.6544 18.008 22.4027 19.2732C22.151 20.5384 21.5298 21.7006 20.6177 22.6128C19.7055 23.5249 18.5433 24.1461 17.2781 24.3978C16.0129 24.6495 14.7014 24.5203 13.5096 24.0266C12.3178 23.533 11.2991 22.697 10.5825 21.6244C9.86577 20.5518 9.48324 19.2907 9.48324 18.0007C9.485 16.2714 10.1728 14.6135 11.3956 13.3907C12.6184 12.1679 14.2763 11.4801 16.0056 11.4784ZM16.0056 10.1445C14.4518 10.1445 12.9329 10.6053 11.641 11.4685C10.349 12.3318 9.34205 13.5588 8.74744 14.9943C8.15282 16.4298 7.99724 18.0095 8.30037 19.5334C8.60351 21.0574 9.35174 22.4572 10.4504 23.5559C11.5492 24.6546 12.949 25.4029 14.473 25.706C15.9969 26.0091 17.5765 25.8535 19.0121 25.2589C20.4476 24.6643 21.6746 23.6574 22.5378 22.3654C23.4011 21.0735 23.8618 19.5546 23.8618 18.0007C23.8618 16.969 23.6586 15.9475 23.2638 14.9943C22.869 14.0411 22.2903 13.1751 21.5608 12.4456C20.8313 11.716 19.9652 11.1374 19.0121 10.7425C18.0589 10.3477 17.0373 10.1445 16.0056 10.1445Z" fill="#5C2D51"/>
<path d="M13.0313 18.0006C13.0312 18.3912 13.1081 18.778 13.2576 19.1389C13.407 19.4998 13.6261 19.8278 13.9023 20.104C14.1785 20.3802 14.5065 20.5993 14.8673 20.7488C15.2282 20.8983 15.615 20.9753 16.0057 20.9753C16.3963 20.9753 16.7831 20.8983 17.144 20.7488C17.5049 20.5993 17.8328 20.3802 18.109 20.104C18.3852 19.8278 18.6043 19.4998 18.7538 19.1389C18.9032 18.778 18.9801 18.3912 18.9801 18.0006C18.9801 17.6099 18.9032 17.2231 18.7538 16.8622C18.6043 16.5013 18.3852 16.1734 18.109 15.8972C17.8328 15.6209 17.5049 15.4018 17.144 15.2523C16.7831 15.1028 16.3963 15.0259 16.0057 15.0259C15.615 15.0259 15.2282 15.1028 14.8673 15.2523C14.5065 15.4018 14.1785 15.6209 13.9023 15.8972C13.6261 16.1734 13.407 16.5013 13.2576 16.8622C13.1081 17.2231 13.0312 17.6099 13.0313 18.0006Z" fill="#9FDBAD"/>
<path d="M16.0056 15.6932C16.462 15.6932 16.9081 15.8285 17.2876 16.0821C17.667 16.3356 17.9628 16.696 18.1375 17.1177C18.3121 17.5393 18.3578 18.0033 18.2688 18.4509C18.1797 18.8985 17.96 19.3097 17.6372 19.6324C17.3145 19.9551 16.9034 20.1748 16.4558 20.2639C16.0082 20.3529 15.5442 20.3072 15.1225 20.1326C14.7009 19.9579 14.3405 19.6622 14.087 19.2827C13.8334 18.9032 13.6981 18.4571 13.6981 18.0007C13.6981 17.6977 13.7578 17.3976 13.8737 17.1177C13.9897 16.8377 14.1597 16.5833 14.3739 16.3691C14.5882 16.1548 14.8426 15.9848 15.1225 15.8688C15.4025 15.7529 15.7026 15.6932 16.0056 15.6932ZM16.0056 14.3594C15.2854 14.3594 14.5814 14.5729 13.9826 14.9731C13.3838 15.3732 12.917 15.9419 12.6414 16.6072C12.3658 17.2726 12.2937 18.0047 12.4342 18.7111C12.5747 19.4174 12.9215 20.0663 13.4308 20.5755C13.94 21.0848 14.5889 21.4316 15.2952 21.5721C16.0016 21.7126 16.7337 21.6405 17.3991 21.3649C18.0644 21.0893 18.6331 20.6225 19.0332 20.0237C19.4334 19.4249 19.6469 18.7209 19.6469 18.0007C19.6469 17.035 19.2633 16.1088 18.5804 15.4259C17.8975 14.743 16.9713 14.3594 16.0056 14.3594Z" fill="#5C2D51"/>
<path d="M24.9287 10.2778H29.1236V12.4786H24.9287V10.2778Z" fill="#F05071"/>
<path d="M28.4568 10.9447V11.8116H25.5957V10.9447H28.4568ZM28.5635 9.61084H25.4957C25.1702 9.61084 24.8581 9.74012 24.628 9.97025C24.3978 10.2004 24.2686 10.5125 24.2686 10.838V11.9117C24.2686 12.2371 24.3978 12.5493 24.628 12.7794C24.8581 13.0095 25.1702 13.1388 25.4957 13.1388H28.5635C28.8889 13.1388 29.201 13.0095 29.4312 12.7794C29.6613 12.5493 29.7906 12.2371 29.7906 11.9117V10.838C29.7906 10.5125 29.6613 10.2004 29.4312 9.97025C29.201 9.74012 28.8889 9.61084 28.5635 9.61084Z" fill="#5C2D51"/>
</g>
<defs>
<clipPath id="clip0_2147_9229">
<rect width="32" height="32" fill="white"/>
</clipPath>
</defs>
</svg>
