<svg width="24" height="24" viewBox="0 0 24 24" fill="none" xmlns="http://www.w3.org/2000/svg">
<g clip-path="url(#clip0_2884_5364)">
<path d="M19 19.002V21C19 21.2449 18.91 21.4813 18.7473 21.6643C18.5845 21.8474 18.3603 21.9643 18.117 21.993L18 22H6C5.73478 22 5.48043 21.8946 5.29289 21.7071C5.10536 21.5195 5 21.2652 5 21V19.006C5 18.7407 5.10536 18.4864 5.29289 18.2988C5.48043 18.1113 5.73478 18.006 6 18.006L18 18.002C18.2652 18.002 18.5196 18.1073 18.7071 18.2948C18.8946 18.4824 19 18.7367 19 19.002Z" fill="#BEBEBE"/>
<path d="M11.9998 2C12.952 1.99982 13.8844 2.2715 14.6874 2.78311C15.4904 3.29472 16.1307 4.02497 16.5328 4.888L16.5928 5.025L16.7288 5.016C17.8272 4.96631 18.9112 5.28002 19.8133 5.90856C20.7153 6.53711 21.3851 7.44545 21.7188 8.493L21.7818 8.706C22.089 9.8398 21.9872 11.0455 21.4942 12.1118C21.0012 13.178 20.1486 14.0366 19.0858 14.537L18.9988 14.574V16.002C18.9988 16.2672 18.8935 16.5216 18.706 16.7091C18.5184 16.8966 18.2641 17.002 17.9988 17.002L5.99885 17.006C5.75391 17.006 5.51751 16.916 5.33448 16.7533C5.15144 16.5905 5.0345 16.3663 5.00585 16.123L4.99885 16.006V14.573L4.87585 14.518C4.2605 14.2219 3.71235 13.8028 3.26518 13.2867C2.81801 12.7705 2.48131 12.1683 2.27585 11.517L2.21185 11.294C2.00748 10.5242 1.98996 9.71676 2.16074 8.93885C2.33152 8.16093 2.68566 7.43507 3.19368 6.82168C3.7017 6.2083 4.3489 5.72516 5.08139 5.41247C5.81388 5.09977 6.61048 4.96659 7.40485 5.024L7.47085 4.882C7.85724 4.05563 8.46236 3.35072 9.22066 2.8436C9.97896 2.33648 10.8615 2.04648 11.7728 2.005L11.9998 2Z" fill="#BEBEBE"/>
</g>
<defs>
<clipPath id="clip0_2884_5364">
<rect width="24" height="24" fill="white"/>
</clipPath>
</defs>
</svg>
