<svg width="28" height="28" viewBox="0 0 28 28" fill="none" xmlns="http://www.w3.org/2000/svg">
<path opacity="0.2" d="M22.7506 21H5.2506C5.09745 20.9991 4.94723 20.958 4.81494 20.8808C4.68266 20.8036 4.57294 20.6931 4.49677 20.5602C4.4206 20.4274 4.38063 20.2768 4.38086 20.1237C4.38109 19.9705 4.42152 19.8201 4.4981 19.6875C5.21888 18.4406 6.1256 16.1667 6.1256 12.25C6.1256 10.1614 6.95528 8.15838 8.43213 6.68153C9.90898 5.20468 11.912 4.375 14.0006 4.375C16.0892 4.375 18.0922 5.20468 19.5691 6.68153C21.0459 8.15838 21.8756 10.1614 21.8756 12.25C21.8756 16.1678 22.7834 18.4406 23.5053 19.6875C23.582 19.8203 23.6224 19.9709 23.6225 20.1242C23.6226 20.2776 23.5825 20.4282 23.5061 20.5612C23.4296 20.6941 23.3196 20.8046 23.187 20.8816C23.0544 20.9586 22.9039 20.9995 22.7506 21Z" fill="#C83A2D"/>
<path d="M24.5001 7.77702C24.2941 7.88368 24.0542 7.90419 23.8331 7.83405C23.612 7.76391 23.4279 7.60885 23.321 7.40295C22.4858 5.75302 21.2217 4.3585 19.6614 3.36592C19.5641 3.30459 19.4799 3.22471 19.4135 3.13083C19.3472 3.03696 19.2999 2.93093 19.2746 2.8188C19.2492 2.70668 19.2461 2.59065 19.2656 2.47734C19.285 2.36403 19.3266 2.25566 19.3879 2.15842C19.4492 2.06118 19.5291 1.97697 19.623 1.91061C19.7169 1.84424 19.8229 1.79701 19.935 1.77162C20.0472 1.74623 20.1632 1.74317 20.2765 1.76262C20.3898 1.78207 20.4982 1.82365 20.5954 1.88498C22.4139 3.04932 23.8905 4.67576 24.8742 6.59795C24.9808 6.80393 25.0013 7.04382 24.9312 7.26491C24.8611 7.48601 24.706 7.6702 24.5001 7.77702ZM3.90588 7.87545C4.06619 7.87539 4.22339 7.83128 4.36034 7.74796C4.49728 7.66463 4.60871 7.54529 4.68245 7.40295C5.51764 5.75302 6.78181 4.3585 8.34213 3.36592C8.53852 3.24206 8.67765 3.04525 8.72893 2.8188C8.78021 2.59235 8.73944 2.35481 8.61557 2.15842C8.49171 1.96204 8.2949 1.8229 8.06845 1.77162C7.842 1.72034 7.60446 1.76112 7.40807 1.88498C5.58961 3.04932 4.11302 4.67576 3.12932 6.59795C3.06024 6.7313 3.02664 6.88019 3.03176 7.03028C3.03688 7.18038 3.08054 7.32663 3.15855 7.45496C3.23656 7.58329 3.34629 7.68938 3.47718 7.76303C3.60806 7.83667 3.7557 7.87539 3.90588 7.87545ZM24.2606 19.2439C24.4156 19.5097 24.4978 19.8117 24.4988 20.1194C24.4999 20.4272 24.4198 20.7297 24.2666 20.9966C24.1134 21.2635 23.8925 21.4853 23.6263 21.6396C23.3601 21.7939 23.0578 21.8752 22.7501 21.8755H18.2876C18.0868 22.8645 17.5502 23.7536 16.7688 24.3923C15.9874 25.0309 15.0093 25.3798 14.0001 25.3798C12.9909 25.3798 12.0128 25.0309 11.2314 24.3923C10.45 23.7536 9.91343 22.8645 9.7126 21.8755H5.2501C4.94256 21.8748 4.64061 21.7932 4.37467 21.6388C4.10873 21.4843 3.88819 21.2625 3.73526 20.9957C3.58233 20.7288 3.50242 20.4264 3.50357 20.1189C3.50472 19.8114 3.5869 19.5096 3.74182 19.2439C4.72729 17.5431 5.2501 15.1248 5.2501 12.2505C5.2501 9.92981 6.17197 7.70421 7.81292 6.06327C9.45386 4.42233 11.6795 3.50045 14.0001 3.50045C16.3207 3.50045 18.5463 4.42233 20.1873 6.06327C21.8282 7.70421 22.7501 9.92981 22.7501 12.2505C22.7501 15.1237 23.2729 17.542 24.2606 19.2439ZM16.4742 21.8755H11.526C11.7073 22.3867 12.0425 22.8292 12.4855 23.1422C12.9286 23.4551 13.4577 23.6232 14.0001 23.6232C14.5425 23.6232 15.0716 23.4551 15.5147 23.1422C15.9577 22.8292 16.2929 22.3867 16.4742 21.8755ZM22.7501 20.1255C21.5864 18.1272 21.0001 15.4781 21.0001 12.2505C21.0001 10.3939 20.2626 8.61346 18.9499 7.3007C17.6371 5.98795 15.8566 5.25045 14.0001 5.25045C12.1436 5.25045 10.3631 5.98795 9.05035 7.3007C7.7376 8.61346 7.0001 10.3939 7.0001 12.2505C7.0001 15.4792 6.41166 18.1283 5.2501 20.1255H22.7501Z" fill="#C83A2D"/>
</svg>
