<svg width="32" height="32" viewBox="0 0 32 32" fill="none" xmlns="http://www.w3.org/2000/svg">
<g clip-path="url(#clip0_2147_6658)">
<path d="M18.0845 17.377C17.8985 17.658 17.6575 17.8985 17.377 18.0845L21.3035 22.011C21.499 22.2065 21.815 22.2065 22.0105 22.0105C22.206 21.815 22.206 21.499 22.0105 21.3035L18.0845 17.377Z" fill="#231F20"/>
<path d="M16.5 13.5505V7C16.5 6.7235 16.2765 6.5 16 6.5C15.7235 6.5 15.5 6.7235 15.5 7V13.5505C15.6615 13.5175 15.8285 13.5 16 13.5C16.1715 13.5 16.3385 13.5175 16.5 13.5505Z" fill="#231F20"/>
<path d="M16 14.5C15.1715 14.5 14.5 15.1715 14.5 16C14.5 16.8285 15.1715 17.5 16 17.5C16.8285 17.5 17.5 16.8285 17.5 16C17.5 15.1715 16.8285 14.5 16 14.5ZM16 16.5C15.7235 16.5 15.5 16.2765 15.5 16C15.5 15.7235 15.7235 15.5 16 15.5C16.2765 15.5 16.5 15.7235 16.5 16C16.5 16.2765 16.2765 16.5 16 16.5Z" fill="#231F20"/>
<path d="M27.0002 16.0002C27.0002 15.7237 27.2237 15.5002 27.5002 15.5002H28.9877C28.8662 12.2877 27.5802 9.3742 25.5382 7.16969L24.4857 8.2217C24.2902 8.4172 23.9742 8.4172 23.7787 8.2217C23.5832 8.0262 23.5832 7.7102 23.7787 7.5147L24.8307 6.4627C22.6257 4.4202 19.7122 3.1347 16.4997 3.0127V4.5002C16.4997 4.7767 16.2762 5.0002 15.9997 5.0002C15.7232 5.0002 15.4997 4.7767 15.4997 4.5002V3.0127C12.2872 3.1342 9.3737 4.4202 7.1692 6.4627L8.2212 7.5147C8.4167 7.7102 8.4167 8.0257 8.2212 8.2217C8.0257 8.4172 7.7097 8.4172 7.5142 8.2217L6.4622 7.16969C4.4202 9.37519 3.1347 12.2887 3.0127 15.5012H4.4997C4.7762 15.5012 4.9992 15.7242 4.9997 16.0012C4.9997 16.2772 4.7762 16.5007 4.4997 16.5012H3.0127C3.1347 19.7137 4.4207 22.6267 6.4627 24.8312L7.5147 23.7792C7.7102 23.5837 8.0252 23.5837 8.2217 23.7792C8.4167 23.9742 8.4167 24.2902 8.2217 24.4862L7.16969 25.5382C9.3742 27.5802 12.2872 28.8657 15.4997 28.9872L15.5002 27.5002C15.5002 27.2237 15.7232 27.0007 16.0002 27.0002C16.2757 27.0002 16.4992 27.2237 16.5002 27.5002L16.4997 28.9872C19.7122 28.8657 22.6252 27.5797 24.8297 25.5372L23.7777 24.4852C23.5822 24.2892 23.5822 23.9737 23.7777 23.7777C23.9727 23.5827 24.2887 23.5827 24.4852 23.7777L25.5367 24.8297C27.5792 22.6252 28.8647 19.7122 28.9862 16.4997H27.5002C27.2237 16.5002 27.0002 16.2767 27.0002 16.0002ZM22.7177 22.7177C22.1317 23.3037 21.1827 23.3042 20.5967 22.7182L16.3442 18.4657C16.2307 18.4812 16.1177 18.5002 16.0002 18.5002C14.6192 18.5002 13.5002 17.3812 13.5002 16.0002C13.5002 15.1847 13.8962 14.4682 14.5002 14.0112V7.0002C14.5002 6.1717 15.1717 5.5002 16.0002 5.5002C16.8287 5.5002 17.5002 6.1717 17.5002 7.0002V14.0112C18.1042 14.4677 18.5002 15.1847 18.5002 16.0002C18.5002 16.1182 18.4812 16.2307 18.4657 16.3442L22.7177 20.5962C23.3032 21.1822 23.3032 22.1317 22.7177 22.7177Z" fill="#C83A2D"/>
<path d="M16 0C7.1635 0 0 7.1635 0 16C0 24.8365 7.1635 32 16 32C24.8365 32 32 24.8365 32 16C32 7.1635 24.8365 0 16 0ZM16 30C8.268 30 2 23.732 2 16C2 8.268 8.268 2 16 2C23.732 2 30 8.268 30 16C30 23.732 23.732 30 16 30Z" fill="#C83A2D"/>
</g>
<defs>
<clipPath id="clip0_2147_6658">
<rect width="32" height="32" fill="white"/>
</clipPath>
</defs>
</svg>
