<svg width="32" height="32" viewBox="0 0 32 32" fill="none" xmlns="http://www.w3.org/2000/svg">
<g clip-path="url(#clip0_2147_6402)">
<path d="M22.5201 20.2334C22.1867 19.6279 22.4668 18.841 23.3364 18.2488C26.1987 16.2987 23.6698 12.9802 23.2084 11.6865C23.2164 11.6705 22.9789 11.1903 22.9869 11.1743L22.5068 11.1503C22.3547 11.1289 18.468 10.8088 13.2129 10.8062C7.95502 10.8062 3.95629 11.1263 3.80157 11.1503C3.80157 11.1503 3.09465 11.6705 3.09999 11.6865C2.83056 12.7695 0.49641 15.4131 3.08665 18.2488C3.79623 19.025 4.23372 19.6279 3.90294 20.2334C3.58016 20.823 2.61982 20.9083 2.61982 20.9083C2.61982 20.9083 2.84123 21.5112 3.37475 21.8367C3.86826 22.1381 4.47647 22.2075 4.89528 22.2181C4.89528 22.2181 6.53586 24.4883 10.8254 24.4883H15.6004C19.8899 24.4883 21.5304 22.2181 21.5304 22.2181C21.9492 22.2075 22.5575 22.1381 23.051 21.8367C23.5845 21.5112 23.8059 20.9083 23.8059 20.9083C23.8059 20.9083 22.8429 20.823 22.5201 20.2334Z" fill="#312D2D"/>
<path d="M13.207 24.4853V21.9671L20.8284 21.3643L21.5219 22.2179C21.5219 22.2179 19.8814 24.488 15.5919 24.488L13.207 24.4853Z" fill="url(#paint0_radial_2147_6402)"/>
<path d="M21.5058 21.1165C20.364 19.3826 22.8956 18.7344 22.8956 18.7344L22.8982 18.737C22.4581 19.2839 22.258 19.7614 22.5168 20.2336C22.8396 20.8231 23.7999 20.9085 23.7999 20.9085C23.7999 20.9085 22.4928 22.0715 21.5058 21.1165Z" fill="url(#paint1_radial_2147_6402)"/>
<path d="M23.2135 11.6862C23.2162 12.7692 26.1025 14.8259 23.4056 18.1818C23.2642 18.3578 22.6026 18.9847 22.4532 19.4942C22.4532 19.4942 19.9084 15.9436 19.1481 13.8576C18.996 13.4361 18.8547 13.0039 18.836 12.5558C18.8226 12.2197 18.8733 11.8195 19.0681 11.5341C19.3055 11.1846 23.0801 11.3901 23.0801 11.3901C23.0775 11.3954 23.2135 11.6862 23.2135 11.6862Z" fill="url(#paint2_radial_2147_6402)"/>
<path d="M3.10012 11.6866C2.83069 12.7696 0.525883 15.3812 3.02542 18.1822C3.17481 18.3502 3.82837 18.9851 3.97776 19.4946C3.97776 19.4946 6.52265 15.944 7.28291 13.858C7.43763 13.4365 7.57635 13.0043 7.59502 12.5562C7.60836 12.2201 7.55768 11.8199 7.36294 11.5345C7.12552 11.185 6.84809 11.2784 6.44529 11.2784C5.67702 11.2784 3.56695 11.3905 3.30552 11.3905C3.30552 11.3958 3.10012 11.6866 3.10012 11.6866Z" fill="url(#paint3_radial_2147_6402)"/>
<path d="M13.2202 24.4853V21.9671L5.59885 21.3643L4.90527 22.2179C4.90527 22.2179 6.54585 24.488 10.8353 24.488L13.2202 24.4853Z" fill="url(#paint4_radial_2147_6402)"/>
<path d="M4.92206 21.1165C6.0638 19.3826 3.53225 18.7344 3.53225 18.7344L3.52958 18.737C3.96973 19.2839 4.1698 19.7614 3.91104 20.2336C3.58827 20.8231 2.62793 20.9085 2.62793 20.9085C2.62793 20.9085 3.93505 22.0715 4.92206 21.1165Z" fill="url(#paint5_radial_2147_6402)"/>
<path d="M26.2754 31.096C26.2754 27.8895 22.4634 25.7794 17.6804 25.0405V24.1762C17.5204 24.1762 15.3303 24.627 15.3303 24.627H11.1795L8.79465 24.1309L8.79732 25.1419C4.09434 25.8621 0.263672 27.7801 0.263672 31.096V32.0109H26.2728V31.096H26.2754Z" fill="url(#paint6_radial_2147_6402)"/>
<path d="M13.263 22.6958H10.8408V24.5685C10.8408 24.5685 12.9722 24.8139 12.9722 27.5402H13.6925C13.7725 24.5418 15.6878 24.5418 15.6878 24.5418V22.6985L13.263 22.6958Z" fill="#EDC391"/>
<path d="M13.1811 27.7589C13.1704 27.6629 13.0984 26.9 13.085 26.7746C12.941 25.4781 12.2047 24.6859 11.3217 24.4858L8.72084 23.8242C8.55278 23.8242 8.41406 24.0003 8.41406 24.2164L8.8142 27.3881L12.4341 28.3405L13.1811 27.7589Z" fill="#F8F8F7"/>
<path d="M10.6788 31.4162C11.0132 31.4162 11.2843 31.1451 11.2843 30.8106C11.2843 30.4762 11.0132 30.2051 10.6788 30.2051C10.3444 30.2051 10.0732 30.4762 10.0732 30.8106C10.0732 31.1451 10.3444 31.4162 10.6788 31.4162Z" fill="#9E9E9E"/>
<path d="M17.7345 31.4162C18.0689 31.4162 18.34 31.1451 18.34 30.8106C18.34 30.4762 18.0689 30.2051 17.7345 30.2051C17.4 30.2051 17.1289 30.4762 17.1289 30.8106C17.1289 31.1451 17.4 31.4162 17.7345 31.4162Z" fill="#9E9E9E"/>
<path d="M13.3037 27.7482C13.3144 27.6521 13.3864 26.8892 13.3997 26.7638C13.5438 25.4674 14.2801 24.6751 15.163 24.475L17.7639 23.8135C17.932 23.8135 18.068 23.9895 18.068 24.2056L17.6679 27.3774L14.048 28.3297L13.3037 27.7482Z" fill="#F8F8F7"/>
<path d="M13.7598 26.7716C13.1756 26.7503 12.1059 26.5528 10.9641 26.7663C8.03777 27.3184 6.28249 29.5566 6.67196 31.4932C6.70931 31.6746 6.77066 31.8454 6.84535 32.0108H8.35788L8.68066 29.3618C9.05413 28.9564 13.7918 27.8306 13.7918 27.8306L13.7598 26.7716Z" fill="url(#paint7_radial_2147_6402)"/>
<path d="M13.3992 26.7639C13.3858 26.8786 13.3485 27.2947 13.3352 27.4255L13.3592 27.6762L9.08301 28.9006C8.64819 29.0607 8.35742 29.4742 8.35742 29.9383V32.0111H8.63218C8.63218 32.0111 8.94963 30.0744 8.99765 29.8156C9.04566 29.5569 9.25107 29.5115 9.37111 29.4662L14.0314 28.071C14.0314 24.7045 15.1651 24.4751 15.1651 24.4751C14.2795 24.6752 13.5432 25.4674 13.3992 26.7639Z" fill="url(#paint8_linear_2147_6402)"/>
<path d="M20.4716 12.3984H5.89313C4.32192 12.3984 3.03613 13.7669 3.03613 15.4422C3.03613 17.1174 4.32192 18.4859 5.89313 18.4859H20.4716C22.0428 18.4859 23.3286 17.1147 23.3286 15.4422C23.3286 13.7696 22.0428 12.3984 20.4716 12.3984Z" fill="#EDC391"/>
<path d="M13.1811 1.89648C8.53943 1.89648 4.23926 6.86088 4.23926 14.0074C4.23926 21.1139 8.67014 24.6271 13.1811 24.6271C17.692 24.6271 22.1228 21.1139 22.1228 14.0074C22.1228 6.86088 17.8253 1.89648 13.1811 1.89648Z" fill="#F9DDBD"/>
<path d="M3.11059 11.7053C3.21996 12.7697 3.94555 12.9324 3.94555 12.9324C3.82284 15.0692 4.22031 16.3843 4.43105 16.9178C4.4684 17.0112 4.59911 17.0032 4.62312 16.9071C4.88721 15.8481 5.78619 12.1588 5.69816 11.5159C5.69816 11.5159 8.72322 10.9157 11.6122 8.78964C12.1991 8.35749 12.8367 7.98936 13.5142 7.71993C17.1395 6.27676 17.8971 8.73895 17.8971 8.73895C17.8971 8.73895 20.41 8.25612 21.1676 11.7453C21.453 13.0525 21.6451 15.1465 21.8078 16.611C21.8185 16.7151 21.9598 16.7364 21.9999 16.6404C22.2533 16.0588 22.7601 14.9064 22.8802 13.73C22.9229 13.3166 23.491 12.7697 23.1789 11.5719C22.8241 10.2035 21.3916 3.68652 13.1461 3.68652C4.90055 3.68652 2.93986 10.0327 3.11059 11.7053Z" fill="#312D2D"/>
<path d="M9.02704 15.9949C9.75336 15.9949 10.3422 15.3858 10.3422 14.6344C10.3422 13.883 9.75336 13.2739 9.02704 13.2739C8.30072 13.2739 7.71191 13.883 7.71191 14.6344C7.71191 15.3858 8.30072 15.9949 9.02704 15.9949Z" fill="#312D2D"/>
<path d="M17.3366 15.9949C18.0629 15.9949 18.6517 15.3858 18.6517 14.6344C18.6517 13.883 18.0629 13.2739 17.3366 13.2739C16.6103 13.2739 16.0215 13.883 16.0215 14.6344C16.0215 15.3858 16.6103 15.9949 17.3366 15.9949Z" fill="#312D2D"/>
<path d="M15.4565 19.2573C14.6055 19.7614 11.8205 19.7614 10.9722 19.2573C10.4841 18.9665 9.98523 19.412 10.188 19.8548C10.388 20.2896 11.9059 21.3006 13.221 21.3006C14.5362 21.3006 16.0353 20.2896 16.2354 19.8548C16.4382 19.4093 15.9446 18.9665 15.4565 19.2573Z" fill="#444444"/>
<path d="M10.9801 12.2229C10.732 11.8948 10.1611 11.4199 9.0514 11.4199C7.94168 11.4199 7.36814 11.8974 7.12272 12.2229C7.01335 12.3669 7.04003 12.535 7.11739 12.6363C7.18675 12.7297 7.39482 12.8177 7.62423 12.7404C7.85365 12.663 8.3018 12.4309 9.0514 12.4256C9.80099 12.4309 10.2492 12.663 10.4786 12.7404C10.708 12.8177 10.916 12.7324 10.9854 12.6363C11.0601 12.535 11.0894 12.3669 10.9801 12.2229Z" fill="#454140"/>
<path d="M19.2418 12.2229C18.9937 11.8948 18.4228 11.4199 17.3131 11.4199C16.2034 11.4199 15.6299 11.8974 15.3844 12.2229C15.2751 12.3669 15.3017 12.535 15.3791 12.6363C15.4485 12.7297 15.6565 12.8177 15.886 12.7404C16.1154 12.663 16.5635 12.4309 17.3131 12.4256C18.0627 12.4309 18.5109 12.663 18.7403 12.7404C18.9697 12.8177 19.1778 12.7324 19.2471 12.6363C19.3245 12.535 19.3512 12.3669 19.2418 12.2229Z" fill="#454140"/>
<path d="M14.21 17.099C14.1806 17.0883 14.1539 17.0803 14.1246 17.0776H12.2359C12.2066 17.0803 12.1773 17.0883 12.1506 17.099C11.9799 17.1683 11.8865 17.3444 11.9665 17.5338C12.0465 17.7232 12.4227 18.2514 13.1803 18.2514C13.9379 18.2514 14.314 17.7205 14.394 17.5338C14.4767 17.3471 14.3807 17.1683 14.21 17.099Z" fill="#DBA689"/>
<path d="M27.2252 13.2363C24.491 13.0176 22.0955 15.0556 21.8767 17.7899C21.6766 20.2654 23.3332 22.4582 25.678 23.013L25.3446 25.622C25.3473 25.622 27.2306 25.8354 27.2546 25.8407L27.4707 23.1117C29.7488 22.8156 31.5894 20.9643 31.7788 18.5848C31.9976 15.8505 29.9595 13.455 27.2252 13.2363Z" fill="url(#paint9_linear_2147_6402)"/>
<path d="M26.8754 22.5671C29.1295 22.5671 30.9568 20.7398 30.9568 18.4857C30.9568 16.2316 29.1295 14.4043 26.8754 14.4043C24.6213 14.4043 22.7939 16.2316 22.7939 18.4857C22.7939 20.7398 24.6213 22.5671 26.8754 22.5671Z" fill="url(#paint10_linear_2147_6402)"/>
<path d="M29.7677 18.1364C30.3279 20.1291 28.8901 22.2071 26.9907 20.956C25.0914 19.7049 23.4135 20.0197 24.0164 18.2351C24.6192 16.4504 25.0941 14.8819 26.4946 15.1993C27.8977 15.5141 29.2075 16.1437 29.7677 18.1364Z" fill="white"/>
<path d="M26.8228 19.4649C27.583 19.4649 28.1993 18.8486 28.1993 18.0884C28.1993 17.3282 27.583 16.7119 26.8228 16.7119C26.0626 16.7119 25.4463 17.3282 25.4463 18.0884C25.4463 18.8486 26.0626 19.4649 26.8228 19.4649Z" fill="url(#paint11_linear_2147_6402)"/>
<path d="M29.7672 18.1362C30.0313 18.9152 30.0073 19.8302 29.5644 20.5771C29.3484 20.9479 28.9962 21.2627 28.5641 21.3934C28.1319 21.5267 27.6651 21.4467 27.2703 21.268C26.8782 21.0573 26.5634 20.8332 26.1953 20.6491C25.8351 20.4597 25.4563 20.3077 25.0802 20.1396C24.7094 19.9689 24.2986 19.8115 24.0158 19.462C23.8905 19.278 23.8424 19.0539 23.8584 18.8431C23.8691 18.7391 23.8905 18.6351 23.9118 18.5337L24.0158 18.2403L23.9518 18.5417C23.9411 18.6431 23.9278 18.7444 23.9278 18.8458C23.9331 19.0459 23.9972 19.2379 24.1172 19.3847C24.3786 19.6701 24.7761 19.8088 25.1576 19.9529C25.5444 20.0942 25.9312 20.2463 26.31 20.4277C26.6834 20.6064 27.0489 20.8572 27.385 21.0306C27.7371 21.1933 28.1293 21.26 28.4947 21.156C28.8602 21.0599 29.1723 20.7958 29.3937 20.473C29.6151 20.1476 29.7485 19.7581 29.8045 19.358C29.8659 18.9552 29.8445 18.5417 29.7672 18.1362Z" fill="#F7CB4D"/>
<path d="M25.2539 26.0409C25.2539 25.9422 25.6781 23.0132 25.6781 23.0132L25.7341 22.9838C25.9885 22.8561 26.2711 22.7947 26.5556 22.8054C26.8401 22.8161 27.1172 22.8986 27.3613 23.0452L27.468 23.1092L27.2519 26.273L25.2539 26.0409Z" fill="#757575"/>
<path d="M24.0778 2.80075C21.5036 1.09349 17.5476 0.00244141 13.1807 0.00244141C8.81383 0.00244141 4.79643 1.09349 2.22219 2.80075C0.60296 3.87312 -0.0879482 5.41233 0.301521 6.85016C0.594957 7.91987 3.03314 9.66181 3.03314 9.66181C6.01018 11.0596 6.29295 8.67747 13.1487 8.66946C20.0044 8.67747 20.2872 11.0596 23.2642 9.66181C23.2642 9.66181 25.7051 7.91987 25.9958 6.8475C26.3853 5.41233 25.6971 3.87312 24.0778 2.80075Z" fill="url(#paint12_radial_2147_6402)"/>
<path d="M3.11018 11.7055L2.83008 9.51269C2.83008 9.51269 4.67872 6.50098 13.3031 6.50098C21.9274 6.50098 23.4933 9.49402 23.4933 9.49402L23.1839 11.5694C16.5976 10.1129 9.67781 10.249 3.11018 11.7055Z" fill="url(#paint13_radial_2147_6402)"/>
<path d="M7.22145 1.7417C7.22145 1.7417 7.90169 4.33994 9.54226 6.76212C6.51454 6.66608 5.90366 3.40094 7.22145 1.7417Z" fill="url(#paint14_linear_2147_6402)"/>
<path d="M3.32627 3.09131C3.47032 4.47046 3.35294 5.89229 5.84448 7.60755C2.46463 8.62657 1.06414 5.4468 3.32627 3.09131Z" fill="url(#paint15_linear_2147_6402)"/>
<path d="M19.2017 1.7417C19.2017 1.7417 18.5214 4.33994 16.8809 6.76212C19.9086 6.66608 20.5195 3.40094 19.2017 1.7417Z" fill="url(#paint16_linear_2147_6402)"/>
<path d="M23.0983 3.09131C22.9542 4.47046 23.0716 5.89229 20.5801 7.60755C23.9599 8.62657 25.3604 5.4468 23.0983 3.09131Z" fill="url(#paint17_linear_2147_6402)"/>
<path d="M13.213 0.914551C13.5998 1.37605 13.7998 1.83754 13.9439 2.29903C14.0853 2.76053 14.1439 3.22202 14.1466 3.68352C14.1466 4.14501 14.0879 4.60651 13.9465 5.068C13.8025 5.52949 13.6024 5.99099 13.213 6.45248C12.8235 5.99099 12.6234 5.52949 12.4794 5.068C12.338 4.60651 12.2793 4.14501 12.2793 3.68352C12.282 3.22202 12.3407 2.76053 12.482 2.29903C12.6234 1.83754 12.8235 1.37605 13.213 0.914551Z" fill="url(#paint18_linear_2147_6402)"/>
<path d="M24.6536 26.2511C24.3575 26.2965 24.0694 26.3685 23.8 26.4886C23.4105 26.6593 21.5592 26.0964 21.4258 27.8837C21.4098 28.3772 21.3485 29.9351 21.7593 30.7034C22.6183 32.3066 25.9101 31.9465 26.1582 31.9891C27.724 32.2479 27.0732 27.2008 26.1955 26.5499C26.0861 26.4779 25.9074 26.3845 25.75 26.2965C25.4432 26.1284 24.9604 26.2058 24.6536 26.2511Z" fill="url(#paint19_radial_2147_6402)"/>
<path d="M26.806 30.9219L25.0347 30.8659C24.929 30.8581 24.8242 30.8894 24.7401 30.9538C24.656 31.0183 24.5985 31.1113 24.5785 31.2154C24.5305 31.4448 24.6986 31.6635 24.9413 31.7115L26.6913 31.989C26.9714 32.0397 27.2408 31.8583 27.2728 31.5862L27.2888 31.4475C27.3155 31.17 27.0967 30.9299 26.806 30.9219Z" fill="url(#paint20_radial_2147_6402)"/>
<path d="M24.5501 27.0093C24.5047 27.0093 21.8691 29.1807 21.8691 29.1807C21.8691 29.1807 21.9278 30.2424 22.9469 31.1094C23.235 31.3521 24.0646 31.6989 24.454 31.7123C27.1163 31.811 26.7882 26.9986 24.5501 27.0093Z" fill="url(#paint21_radial_2147_6402)"/>
<path d="M21.4152 29.0602C21.4152 29.0602 21.7807 29.3483 22.3248 29.5697C23.9788 30.2447 24.2028 28.2146 24.2428 27.8998C24.4589 26.2859 25.8861 26.6594 27.0972 26.5927C27.3479 26.5794 28.2096 26.4567 28.4496 25.8911C28.7031 24.9495 27.7347 24.9521 25.694 24.8081C25.1392 24.7681 24.5843 24.7734 24.0321 24.8454C21.3965 25.1842 21.3352 27.8465 21.4152 29.0602Z" fill="url(#paint22_radial_2147_6402)"/>
<path d="M27.3854 28.0546L24.8511 28.244C24.5097 28.2653 24.5017 28.5241 24.4803 28.8469C24.451 29.1963 24.491 29.4978 24.8618 29.5244L27.4067 29.6712C27.8362 29.6978 28.2043 29.3751 28.2043 28.9616V28.7508C28.1936 28.332 27.8228 28.0119 27.3854 28.0546Z" fill="url(#paint23_radial_2147_6402)"/>
<path d="M27.3669 26.5606L25.1901 26.8434C24.8647 26.8807 24.6326 27.1421 24.6272 27.4516C24.6166 27.7877 24.91 28.0598 25.2648 28.0678L27.4656 28.1078C27.8764 28.1132 28.2152 27.785 28.1938 27.3902L28.1831 27.1902C28.1538 26.7874 27.783 26.4966 27.3669 26.5606Z" fill="url(#paint24_radial_2147_6402)"/>
<path d="M27.1398 29.5883L25.1311 29.679C24.8323 29.687 24.5976 29.9057 24.5682 30.1858C24.5309 30.4899 24.7763 30.7647 25.0991 30.7994L27.1024 31.0021C27.4759 31.0395 27.812 30.7674 27.8227 30.4072L27.828 30.2232C27.836 29.8577 27.5239 29.5643 27.1398 29.5883Z" fill="url(#paint25_radial_2147_6402)"/>
<path d="M27.4819 29.6737C27.5139 29.3882 25.2118 29.6577 24.9317 29.4203C24.6116 29.1482 24.6516 28.6226 25.0491 28.4493C25.4972 28.2518 27.6713 28.1958 27.6686 28.0731C27.6686 27.8464 24.7369 28.3932 24.8196 27.4676C24.8757 26.8407 25.4812 26.846 25.9294 26.7713C26.1961 26.726 27.3672 26.6486 27.3672 26.5659C27.3672 26.4832 27.0791 26.5072 27.0471 26.5046C26.8337 26.4832 25.4599 26.5473 25.0997 26.6566C24.6276 26.8007 24.2434 27.2195 24.3768 27.753C24.3982 27.8437 24.4382 27.9237 24.4862 28.0011C24.5796 28.1451 24.3688 28.5373 24.3421 28.74C24.2754 29.2629 24.5609 29.543 24.5555 29.7324C24.5529 29.8764 24.4115 29.9778 24.3715 30.1992C24.3288 30.4446 24.5342 30.722 24.4835 31.0128C24.4648 31.1115 24.4568 31.1915 24.4755 31.2929C24.5049 31.445 24.5822 31.5783 24.6916 31.6877C24.945 31.9438 25.2945 31.9758 25.6359 31.9945C25.8653 32.0078 26.807 32.0638 27.0204 31.9438C26.5162 31.9331 24.9877 31.8958 24.7823 31.3196C24.769 30.9274 25.1878 31.0448 25.4492 31.0715C25.7453 31.1008 26.3002 31.1142 26.5989 31.0875C26.6816 31.0795 27.0284 31.0422 27.0284 30.9808C27.0284 30.8874 26.2068 30.9168 26.1054 30.9114C25.7373 30.8954 24.961 30.9488 24.7956 30.5086C24.7343 30.3486 24.761 30.1485 24.8703 30.0125C25.1317 29.679 27.4632 29.8204 27.4819 29.6737Z" fill="#EDBD82"/>
</g>
<defs>
<radialGradient id="paint0_radial_2147_6402" cx="0" cy="0" r="1" gradientUnits="userSpaceOnUse" gradientTransform="translate(17.1009 20.8469) scale(6.24725 3.06865)">
<stop offset="0.728" stop-color="#454140" stop-opacity="0"/>
<stop offset="1" stop-color="#454140"/>
</radialGradient>
<radialGradient id="paint1_radial_2147_6402" cx="0" cy="0" r="1" gradientTransform="matrix(-1.67214 0.782438 -0.580459 -1.24049 23.2548 19.9175)" gradientUnits="userSpaceOnUse">
<stop offset="0.663" stop-color="#454140"/>
<stop offset="1" stop-color="#454140" stop-opacity="0"/>
</radialGradient>
<radialGradient id="paint2_radial_2147_6402" cx="0" cy="0" r="1" gradientTransform="matrix(-0.586879 -7.84498 6.53828 -0.489328 18.4985 14.8377)" gradientUnits="userSpaceOnUse">
<stop offset="0.725" stop-color="#454140" stop-opacity="0"/>
<stop offset="1" stop-color="#454140"/>
</radialGradient>
<radialGradient id="paint3_radial_2147_6402" cx="0" cy="0" r="1" gradientTransform="matrix(0.591457 -7.90617 -6.58927 -0.493144 7.93031 14.8013)" gradientUnits="userSpaceOnUse">
<stop offset="0.725" stop-color="#454140" stop-opacity="0"/>
<stop offset="1" stop-color="#454140"/>
</radialGradient>
<radialGradient id="paint4_radial_2147_6402" cx="0" cy="0" r="1" gradientUnits="userSpaceOnUse" gradientTransform="translate(9.32655 20.8469) rotate(180) scale(6.24725 3.06865)">
<stop offset="0.728" stop-color="#454140" stop-opacity="0"/>
<stop offset="1" stop-color="#454140"/>
</radialGradient>
<radialGradient id="paint5_radial_2147_6402" cx="0" cy="0" r="1" gradientTransform="matrix(1.67214 0.782438 0.580459 -1.24049 3.17471 19.9178)" gradientUnits="userSpaceOnUse">
<stop offset="0.663" stop-color="#454140"/>
<stop offset="1" stop-color="#454140" stop-opacity="0"/>
</radialGradient>
<radialGradient id="paint6_radial_2147_6402" cx="0" cy="0" r="1" gradientUnits="userSpaceOnUse" gradientTransform="translate(13.4019 32.502) scale(17.9663 10.5354)">
<stop offset="0.559" stop-color="#F8F8F7"/>
<stop offset="1" stop-color="#C6C6C6"/>
</radialGradient>
<radialGradient id="paint7_radial_2147_6402" cx="0" cy="0" r="1" gradientTransform="matrix(5.12523 -1.43257 -1.08241 -3.87146 11.8809 30.7032)" gradientUnits="userSpaceOnUse">
<stop offset="0.153" stop-color="#BDBDBD"/>
<stop offset="1" stop-color="#BDBDBD" stop-opacity="0"/>
</radialGradient>
<linearGradient id="paint8_linear_2147_6402" x1="11.7605" y1="32.0004" x2="11.7605" y2="26.1165" gradientUnits="userSpaceOnUse">
<stop offset="0.299" stop-color="#BDBDBD"/>
<stop offset="0.657" stop-color="#CDCDCD"/>
<stop offset="1" stop-color="#E0E0E0"/>
</linearGradient>
<linearGradient id="paint9_linear_2147_6402" x1="27.2949" y1="13.212" x2="26.1491" y2="25.3891" gradientUnits="userSpaceOnUse">
<stop offset="0.119" stop-color="#757575"/>
<stop offset="0.226" stop-color="#7A7A7A"/>
<stop offset="0.359" stop-color="#8A8A8A"/>
<stop offset="0.479" stop-color="#9E9E9E"/>
<stop offset="0.488" stop-color="#969696"/>
<stop offset="0.524" stop-color="#7B7B7B"/>
<stop offset="0.566" stop-color="#656565"/>
<stop offset="0.615" stop-color="#545454"/>
<stop offset="0.676" stop-color="#494949"/>
<stop offset="0.76" stop-color="#424242"/>
<stop offset="0.996" stop-color="#404040"/>
</linearGradient>
<linearGradient id="paint10_linear_2147_6402" x1="26.2453" y1="21.8904" x2="27.7119" y2="13.97" gradientUnits="userSpaceOnUse">
<stop stop-color="#212121"/>
<stop offset="0.996" stop-color="#404040"/>
</linearGradient>
<linearGradient id="paint11_linear_2147_6402" x1="26.7423" y1="16.7226" x2="26.8937" y2="19.268" gradientUnits="userSpaceOnUse">
<stop stop-color="#FFCA28"/>
<stop offset="0.341" stop-color="#FFC825"/>
<stop offset="0.629" stop-color="#FFC21A"/>
<stop offset="0.898" stop-color="#FFB809"/>
<stop offset="1" stop-color="#FFB300"/>
</linearGradient>
<radialGradient id="paint12_radial_2147_6402" cx="0" cy="0" r="1" gradientUnits="userSpaceOnUse" gradientTransform="translate(13.281 4.66523) scale(14.5944 6.15885)">
<stop offset="0.462" stop-color="#FAFAFA"/>
<stop offset="0.634" stop-color="#EAEAEA"/>
<stop offset="0.969" stop-color="#C1C1C1"/>
<stop offset="1" stop-color="#BDBDBD"/>
</radialGradient>
<radialGradient id="paint13_radial_2147_6402" cx="0" cy="0" r="1" gradientTransform="matrix(10.8449 0.0704915 0.0694071 -10.5878 13.1724 7.90124)" gradientUnits="userSpaceOnUse">
<stop offset="0.303" stop-color="#F8F8F7"/>
<stop offset="0.504" stop-color="#E8E8E7"/>
<stop offset="0.895" stop-color="#BFBFBF"/>
<stop offset="1" stop-color="#B3B3B3"/>
</radialGradient>
<linearGradient id="paint14_linear_2147_6402" x1="6.6023" y1="1.3709" x2="8.603" y2="7.10624" gradientUnits="userSpaceOnUse">
<stop stop-color="#757575" stop-opacity="0"/>
<stop offset="1" stop-color="#757575" stop-opacity="0.9"/>
</linearGradient>
<linearGradient id="paint15_linear_2147_6402" x1="1.70036" y1="3.66964" x2="5.56838" y2="7.70439" gradientUnits="userSpaceOnUse">
<stop stop-color="#757575" stop-opacity="0"/>
<stop offset="1" stop-color="#757575" stop-opacity="0.9"/>
</linearGradient>
<linearGradient id="paint16_linear_2147_6402" x1="19.8211" y1="1.3709" x2="17.8204" y2="7.10624" gradientUnits="userSpaceOnUse">
<stop stop-color="#757575" stop-opacity="0"/>
<stop offset="1" stop-color="#757575" stop-opacity="0.9"/>
</linearGradient>
<linearGradient id="paint17_linear_2147_6402" x1="24.7218" y1="3.66991" x2="20.854" y2="7.70466" gradientUnits="userSpaceOnUse">
<stop stop-color="#757575" stop-opacity="0"/>
<stop offset="1" stop-color="#757575" stop-opacity="0.9"/>
</linearGradient>
<linearGradient id="paint18_linear_2147_6402" x1="13.2119" y1="0.913751" x2="13.2119" y2="6.45488" gradientUnits="userSpaceOnUse">
<stop stop-color="#757575" stop-opacity="0"/>
<stop offset="1" stop-color="#757575" stop-opacity="0.9"/>
</linearGradient>
<radialGradient id="paint19_radial_2147_6402" cx="0" cy="0" r="1" gradientTransform="matrix(-0.133361 -5.3976 -5.70644 0.14092 21.9175 29.5753)" gradientUnits="userSpaceOnUse">
<stop offset="0.307" stop-color="#F9DDBD"/>
<stop offset="1" stop-color="#FFD29C"/>
</radialGradient>
<radialGradient id="paint20_radial_2147_6402" cx="0" cy="0" r="1" gradientUnits="userSpaceOnUse" gradientTransform="translate(28.2969 28.3037) rotate(-20.035) scale(3.95605 3.95605)">
<stop stop-color="#FFD29C"/>
<stop offset="1" stop-color="#F9DDBD"/>
</radialGradient>
<radialGradient id="paint21_radial_2147_6402" cx="0" cy="0" r="1" gradientUnits="userSpaceOnUse" gradientTransform="translate(25.3139 28.1687) rotate(-0.269288) scale(3.61304 3.61303)">
<stop stop-color="#FFD29C"/>
<stop offset="1" stop-color="#F9DDBD"/>
</radialGradient>
<radialGradient id="paint22_radial_2147_6402" cx="0" cy="0" r="1" gradientTransform="matrix(4.00397 0.703559 0.699607 -3.89092 27.2609 26.252)" gradientUnits="userSpaceOnUse">
<stop stop-color="#FFD29C"/>
<stop offset="1" stop-color="#F9DDBD"/>
</radialGradient>
<radialGradient id="paint23_radial_2147_6402" cx="0" cy="0" r="1" gradientUnits="userSpaceOnUse" gradientTransform="translate(29.3009 28.6038) rotate(-3.193) scale(4.49677)">
<stop stop-color="#FFD29C"/>
<stop offset="1" stop-color="#F9DDBD"/>
</radialGradient>
<radialGradient id="paint24_radial_2147_6402" cx="0" cy="0" r="1" gradientUnits="userSpaceOnUse" gradientTransform="translate(29.1506 28.7264) rotate(4.956) scale(4.29697 4.29697)">
<stop stop-color="#FFD29C"/>
<stop offset="1" stop-color="#F9DDBD"/>
</radialGradient>
<radialGradient id="paint25_radial_2147_6402" cx="0" cy="0" r="1" gradientUnits="userSpaceOnUse" gradientTransform="translate(28.8472 28.3364) rotate(-12.368) scale(4.29857 4.29857)">
<stop stop-color="#FFD29C"/>
<stop offset="1" stop-color="#F9DDBD"/>
</radialGradient>
<clipPath id="clip0_2147_6402">
<rect width="32" height="32" fill="white"/>
</clipPath>
</defs>
</svg>
