<svg width="24" height="24" viewBox="0 0 24 24" fill="none" xmlns="http://www.w3.org/2000/svg">
<path d="M5.64637 0L5.17578 9.17647L5.64637 18.3529L9.70519 18.8235L13.764 18.3529L14.2346 9.17647L13.764 0C13.5351 0 5.87531 0 5.64637 0Z" fill="#FFDF40"/>
<path d="M5.64677 19.0586C3.71538 19.0586 2.82324 20.053 2.82324 21.1762C2.82324 22.3457 3.77129 23.2939 4.94089 23.2939H13.7644L14.235 21.1762L13.7644 19.0586C13.5355 19.0586 5.87571 19.0586 5.64677 19.0586Z" fill="#FFF5F5"/>
<path d="M20.4705 19.0586C20.0984 19.0586 14.1368 19.0586 13.7646 19.0586V23.2939H20.4705C20.4705 22.7815 20.4705 19.5744 20.4705 19.0586Z" fill="#ECE6F2"/>
<path d="M21.8823 0C21.6534 0 13.9936 0 13.7646 0V18.3529L17.8235 18.8235L21.8823 18.3529V9.17647V0Z" fill="#FFBE40"/>
<path d="M5.6466 18.3529C5.6466 17.8351 5.6466 0.517271 5.6466 0C5.39973 0 5.18759 0 4.94072 0C3.38387 0 2.11719 1.26659 2.11719 2.82353V21.1765L5.6466 18.3529Z" fill="#FF9F40"/>
<path d="M10.2348 9.08669V11.9995L11.9995 12.4701L13.7642 11.9995L14.2348 7.05836L13.7642 2.11719C12.672 2.11719 11.6177 2.62862 10.9414 3.52895C10.9411 3.52895 10.941 3.52895 10.9407 3.52895C9.38387 3.52895 8.11719 4.79554 8.11719 6.35248C8.11719 7.67352 9.02599 8.77446 10.2348 9.08669Z" fill="#FFF5F5"/>
<path d="M17.2941 11.9995C17.2941 10.9803 17.2941 10.1059 17.2941 9.08669C18.5042 8.77408 19.4117 7.67201 19.4117 6.35248C19.4117 4.79563 18.1451 3.52895 16.5882 3.52895C16.5881 3.52895 16.588 3.52895 16.5878 3.52895C16.5878 3.52895 16.5876 3.52895 16.5875 3.52895C15.9384 2.66486 14.9019 2.11719 13.7646 2.11719V11.9995L15.5294 12.4701L17.2941 11.9995Z" fill="#ECE6F2"/>
<path d="M13.7644 13.4118C12.4337 13.4118 9.59844 13.4118 8.82324 13.4118C8.82324 12.918 8.82324 12.4937 8.82324 12H13.7644L14.235 12.7059L13.7644 13.4118Z" fill="#ECE6F2"/>
<path d="M13.0584 16.235C11.7276 16.235 8.89239 16.235 8.11719 16.235C8.11719 15.7413 8.11719 15.317 8.11719 14.8232H13.0584V16.235Z" fill="#4D5E80"/>
<path d="M19.4109 16.235C18.0802 16.235 15.2449 16.235 14.4697 16.235C14.4697 15.7413 14.4697 15.317 14.4697 14.8232H19.4109V16.235Z" fill="#3D4566"/>
<path d="M18.7058 13.4118C17.3751 13.4118 14.5398 13.4118 13.7646 13.4118C13.7646 12.918 13.7646 12.4937 13.7646 12H18.7058V13.4118Z" fill="#D7CFE6"/>
<path d="M3.52903 21.1761C3.52903 20.3977 4.16231 19.7643 4.9408 19.7643H13.7643L14.2349 19.0584L13.7643 18.3525C13.2744 18.3525 5.43068 18.3525 4.9408 18.3525C4.16235 18.3525 3.45647 18.6692 2.94522 19.1805C1.8416 20.284 1.84075 22.0673 2.94522 23.1716C3.45647 23.683 4.16235 23.9996 4.9408 23.9996H9.35256H13.7643L14.2349 23.2937L13.7643 22.5878C13.2744 22.5878 5.43068 22.5878 4.9408 22.5878C4.55158 22.5878 4.19863 22.4295 3.94301 22.1739C3.68734 21.9183 3.52903 21.5653 3.52903 21.1761Z" fill="#FFBE40"/>
<path d="M21.8823 23.9997C21.8823 23.5059 21.8823 23.0816 21.8823 22.5879C19.0868 22.5879 17.4851 22.5879 13.7646 22.5879V23.9997H21.8823Z" fill="#FF9F40"/>
<path d="M21.8823 19.7643C21.8823 19.2706 21.8823 18.8463 21.8823 18.3525C21.6534 18.3525 13.9936 18.3525 13.7646 18.3525V19.7643H21.8823Z" fill="#FF9F40"/>
</svg>
