<svg width="32" height="32" viewBox="0 0 32 32" fill="none" xmlns="http://www.w3.org/2000/svg">
<g clip-path="url(#clip0_2147_6380)">
<path d="M32.0002 31.9998V30.222C32.0002 28.8075 31.4383 27.451 30.4381 26.4508C29.4379 25.4506 28.0814 24.8887 26.6669 24.8887H12.4447C11.0302 24.8887 9.67362 25.4506 8.67343 26.4508C7.67323 27.451 7.11133 28.8075 7.11133 30.222V31.9998H32.0002Z" fill="#E1E8ED"/>
<path d="M19.5558 31.9998L24.0002 24.8887H15.1113L19.5558 31.9998Z" fill="#226699"/>
<path d="M15.6797 24.9228C15.6797 26.6668 23.4308 26.6668 23.4308 24.9228V21.5903H15.6797V24.9228Z" fill="#D4AB88"/>
<path d="M15.6728 23.087C16.7537 24.3083 18.0941 24.639 19.5519 24.639C21.0088 24.639 22.3483 24.3074 23.4301 23.087V19.9839H15.6719L15.6728 23.087Z" fill="#CC9B7A"/>
<path d="M20.5844 6.20799C18.8733 5.65422 21.868 2.9191 20.8618 4.22755C18.2449 4.27822 14.06 7.03466 12.1489 9.53421C10.0893 12.2275 10.5276 13.9191 10.8431 16.2418C11.2013 18.8729 12.6804 19.7147 13.8627 20.0667C15.564 22.3147 17.3729 22.2187 20.4102 22.2187C26.3409 22.2187 28.6236 17.8515 28.3071 12.3467C28.0698 9.69688 24.8867 7.59999 20.5844 6.20799Z" fill="#963B22"/>
<path d="M26.264 11.7983C25.6898 11.0036 24.9556 10.3636 23.3449 10.1378C23.9494 10.4143 24.8783 11.6729 24.9538 12.2009C25.0294 12.7298 25.0267 13.7565 24.6107 13.1778C22.7894 10.6436 20.2747 11.0436 18.2071 9.75028C16.7636 8.84717 16.3236 7.84717 16.3236 7.84717C16.3236 7.84717 16.1476 9.1805 13.9583 10.5396C13.3236 10.9334 12.5663 11.8107 12.1467 13.1067C11.8445 14.0383 11.9387 14.8685 11.9387 16.2872C11.9387 20.4294 15.3529 23.9121 19.5636 23.9121C23.7743 23.9121 27.1885 20.3983 27.1885 16.2872C27.1876 13.7112 26.9183 12.7041 26.264 11.7983Z" fill="#D4AB88"/>
<path d="M20.4102 18.4051H18.716C18.6035 18.4051 18.4957 18.3605 18.4162 18.2809C18.3367 18.2014 18.292 18.0936 18.292 17.9811C18.292 17.8687 18.3367 17.7608 18.4162 17.6813C18.4957 17.6018 18.6035 17.5571 18.716 17.5571H20.4102C20.5227 17.5571 20.6305 17.6018 20.71 17.6813C20.7895 17.7608 20.8342 17.8687 20.8342 17.9811C20.8342 18.0936 20.7895 18.2014 20.71 18.2809C20.6305 18.3605 20.5227 18.4051 20.4102 18.4051Z" fill="#C1694F"/>
<path d="M16.1733 15.4398C15.9486 15.4398 15.7331 15.3505 15.5743 15.1917C15.4154 15.0328 15.3262 14.8173 15.3262 14.5927V13.7455C15.3262 13.5209 15.4154 13.3054 15.5743 13.1466C15.7331 12.9877 15.9486 12.8984 16.1733 12.8984C16.3979 12.8984 16.6134 12.9877 16.7723 13.1466C16.9311 13.3054 17.0204 13.5209 17.0204 13.7455V14.5927C17.0205 14.7039 16.9987 14.8141 16.9561 14.917C16.9136 15.0198 16.8512 15.1132 16.7725 15.1919C16.6939 15.2706 16.6004 15.333 16.4976 15.3755C16.3948 15.4181 16.2846 15.4399 16.1733 15.4398ZM22.9519 15.4398C22.7273 15.4398 22.5118 15.3505 22.353 15.1917C22.1941 15.0328 22.1048 14.8173 22.1048 14.5927V13.7455C22.1048 13.5209 22.1941 13.3054 22.353 13.1466C22.5118 12.9877 22.7273 12.8984 22.9519 12.8984C23.1766 12.8984 23.3921 12.9877 23.5509 13.1466C23.7098 13.3054 23.7991 13.5209 23.7991 13.7455V14.5927C23.7991 14.8173 23.7098 15.0328 23.5509 15.1917C23.3921 15.3505 23.1766 15.4398 22.9519 15.4398Z" fill="#662113"/>
<path d="M19.6746 21.943C17.2266 21.943 16.4746 21.3163 16.3493 21.1892C16.2939 21.1366 16.2493 21.0735 16.2182 21.0037C16.1872 20.9338 16.1701 20.8585 16.1682 20.7821C16.1642 20.6277 16.2216 20.4781 16.328 20.3661C16.4343 20.2541 16.5807 20.189 16.7351 20.185C16.8895 20.181 17.0391 20.2385 17.1511 20.3448C17.1973 20.3777 17.792 20.7777 19.6746 20.7777C21.6302 20.7777 22.1955 20.3466 22.2009 20.3421C22.2546 20.2889 22.3184 20.2469 22.3886 20.2187C22.4587 20.1905 22.5338 20.1766 22.6094 20.1778C22.6851 20.1791 22.7597 20.1954 22.8289 20.2259C22.8981 20.2564 22.9605 20.3005 23.0124 20.3554C23.1201 20.4683 23.1791 20.6189 23.1768 20.7749C23.1745 20.9308 23.111 21.0796 23 21.1892C22.8737 21.3163 22.1226 21.943 19.6746 21.943Z" fill="#C1694F"/>
<path d="M27.7139 10.6668C27.7139 10.6668 25.3832 11.5557 19.5557 11.5557C13.7281 11.5557 11.3975 10.6668 11.3975 10.6668V5.3335H27.713L27.7139 10.6668Z" fill="#CCD6DD"/>
<path d="M14.2219 9.99978C14.2219 10.1177 14.1751 10.2307 14.0917 10.3141C14.0084 10.3974 13.8953 10.4442 13.7775 10.4442C13.6596 10.4442 13.5465 10.3974 13.4632 10.3141C13.3798 10.2307 13.333 10.1177 13.333 9.99978V7.33312C13.333 7.21524 13.3798 7.1022 13.4632 7.01885C13.5465 6.9355 13.6596 6.88867 13.7775 6.88867C13.8953 6.88867 14.0084 6.9355 14.0917 7.01885C14.1751 7.1022 14.2219 7.21524 14.2219 7.33312V9.99978ZM25.7775 9.99978C25.7775 10.1177 25.7306 10.2307 25.6473 10.3141C25.5639 10.3974 25.4509 10.4442 25.333 10.4442C25.2151 10.4442 25.1021 10.3974 25.0187 10.3141C24.9354 10.2307 24.8886 10.1177 24.8886 9.99978V7.33312C24.8886 7.21524 24.9354 7.1022 25.0187 7.01885C25.1021 6.9355 25.2151 6.88867 25.333 6.88867C25.4509 6.88867 25.5639 6.9355 25.6473 7.01885C25.7306 7.1022 25.7775 7.21524 25.7775 7.33312V9.99978ZM16.8886 10.3553C16.8886 10.4732 16.8417 10.5863 16.7584 10.6696C16.675 10.753 16.562 10.7998 16.4441 10.7998C16.3262 10.7998 16.2132 10.753 16.1298 10.6696C16.0465 10.5863 15.9997 10.4732 15.9997 10.3553V7.68867C15.9997 7.5708 16.0465 7.45775 16.1298 7.3744C16.2132 7.29105 16.3262 7.24423 16.4441 7.24423C16.562 7.24423 16.675 7.29105 16.7584 7.3744C16.8417 7.45775 16.8886 7.5708 16.8886 7.68867V10.3553ZM19.9997 10.4442C19.9997 10.5621 19.9528 10.6751 19.8695 10.7585C19.7861 10.8418 19.6731 10.8887 19.5552 10.8887C19.4374 10.8887 19.3243 10.8418 19.241 10.7585C19.1576 10.6751 19.1108 10.5621 19.1108 10.4442V7.77756C19.1108 7.65969 19.1576 7.54664 19.241 7.46329C19.3243 7.37994 19.4374 7.33312 19.5552 7.33312C19.6731 7.33312 19.7861 7.37994 19.8695 7.46329C19.9528 7.54664 19.9997 7.65969 19.9997 7.77756V10.4442ZM23.1108 10.3553C23.1108 10.4732 23.064 10.5863 22.9806 10.6696C22.8973 10.753 22.7842 10.7998 22.6663 10.7998C22.5485 10.7998 22.4354 10.753 22.3521 10.6696C22.2687 10.5863 22.2219 10.4732 22.2219 10.3553V7.68867C22.2219 7.5708 22.2687 7.45775 22.3521 7.3744C22.4354 7.29105 22.5485 7.24423 22.6663 7.24423C22.7842 7.24423 22.8973 7.29105 22.9806 7.3744C23.064 7.45775 23.1108 7.5708 23.1108 7.68867V10.3553Z" fill="#99AAB5"/>
<path d="M25.111 0.000213967C24.0826 0.000213967 23.1226 0.284658 22.2959 0.772658C21.4566 0.274385 20.5002 0.00765953 19.5242 -0.000304553C18.5482 -0.00826864 17.5876 0.242813 16.7403 0.727325C15.9057 0.250566 14.9611 -6.6625e-05 13.9999 0.000213967C10.9314 0.000213967 8.44434 2.48733 8.44434 5.55577C8.44434 8.62421 18.4834 8.44466 19.4808 8.44466C20.5092 8.44466 30.6666 8.62421 30.6666 5.55577C30.6666 2.48733 28.1786 0.000213967 25.111 0.000213967Z" fill="#E1E8ED"/>
<path d="M8.88867 22.0001C8.88867 25.0686 7.09756 26.6668 4.88867 26.6668C2.67978 26.6668 0.888672 25.0686 0.888672 22.0001C0.888672 18.9317 2.67978 15.5557 4.88867 15.5557C7.09756 15.5557 8.88867 18.9317 8.88867 22.0001Z" fill="#99AAB5"/>
<path d="M4 24.8887H5.77778V31.9998H4V24.8887Z" fill="#99AAB5"/>
<path d="M8.88867 22.0001C8.88867 25.0686 7.09756 26.6668 4.88867 26.6668C2.67978 26.6668 0.888672 25.0686 0.888672 22.0001C0.888672 18.9317 2.67978 15.5557 4.88867 15.5557C7.09756 15.5557 8.88867 18.9317 8.88867 22.0001Z" fill="#C1694F"/>
<path d="M4 24.8887H5.77778V31.9998H4V24.8887Z" fill="#C1694F"/>
<path d="M13.2386 3.99041C13.2957 4.00281 13.3546 4.00384 13.412 3.99344C13.4694 3.98304 13.5242 3.9614 13.5733 3.92977C13.6223 3.89815 13.6647 3.85715 13.6978 3.80913C13.731 3.76112 13.7544 3.70703 13.7666 3.64996C13.7942 3.52107 14.0635 2.36907 14.9391 1.68374C15.6146 1.15485 16.4937 0.806407 16.7231 0.720184C16.3661 0.520554 15.9881 0.361064 15.596 0.244629C15.22 0.431296 14.7835 0.676629 14.3915 0.984184C13.2929 1.84374 12.9542 3.1993 12.8973 3.46241C12.873 3.57765 12.8952 3.69782 12.9592 3.79673C13.0231 3.89564 13.1236 3.96526 13.2386 3.99041ZM24.0449 1.69174C24.9213 2.37796 25.1906 3.52818 25.2173 3.65707C25.2421 3.77235 25.3116 3.87308 25.4106 3.93709C25.4596 3.96879 25.5144 3.99052 25.5719 4.00104C25.6293 4.01156 25.6882 4.01066 25.7453 3.99841C25.8024 3.98615 25.8565 3.96277 25.9045 3.9296C25.9526 3.89643 25.9936 3.85413 26.0253 3.8051C26.057 3.75607 26.0787 3.70128 26.0893 3.64385C26.0998 3.58642 26.0989 3.52749 26.0866 3.47041C26.0297 3.2073 25.6929 1.85263 24.5924 0.991296C24.229 0.714177 23.8393 0.473323 23.4289 0.272184C23.0459 0.392393 22.6772 0.553937 22.3293 0.753962C22.6289 0.871296 23.42 1.20196 24.0449 1.69174Z" fill="#CCD6DD"/>
</g>
<defs>
<clipPath id="clip0_2147_6380">
<rect width="32" height="32" fill="white"/>
</clipPath>
</defs>
</svg>
