<svg width="32" height="32" viewBox="0 0 32 32" fill="none" xmlns="http://www.w3.org/2000/svg">
<g clip-path="url(#clip0_2147_3126)">
<path d="M16.0013 2.66406C20.2746 2.66406 23.86 4.06406 23.9973 6.5174L25.3173 14.4454L25.3346 14.6641C25.3346 18.9654 21.9213 22.0827 17.3346 22.5907V26.6641H21.3346C21.6883 26.6641 22.0274 26.8045 22.2774 27.0546C22.5275 27.3046 22.668 27.6438 22.668 27.9974C22.668 28.351 22.5275 28.6902 22.2774 28.9402C22.0274 29.1903 21.6883 29.3307 21.3346 29.3307H10.668C10.3143 29.3307 9.97521 29.1903 9.72516 28.9402C9.47511 28.6902 9.33464 28.351 9.33464 27.9974C9.33464 27.6438 9.47511 27.3046 9.72516 27.0546C9.97521 26.8045 10.3143 26.6641 10.668 26.6641H14.668V22.5907C10.0813 22.0841 6.66797 18.9654 6.66797 14.6641L6.68664 14.4454L8.00797 6.5054L8.0093 6.45473C8.20397 4.0414 11.7653 2.66406 16.0013 2.66406ZM16.0013 5.33073C14.3693 5.33073 12.856 5.58673 11.7826 6.01606C10.9906 6.3334 10.668 6.63873 10.668 6.66406C10.668 6.69073 10.9906 6.99473 11.7826 7.31206C12.8546 7.7414 14.3693 7.9974 16.0013 7.9974C17.6333 7.9974 19.1466 7.7414 20.22 7.31206C21.012 6.99473 21.3346 6.6894 21.3346 6.66406L21.308 6.6294C21.2146 6.53606 20.88 6.28006 20.22 6.01606C19.148 5.58673 17.6333 5.33073 16.0013 5.33073Z" fill="#7958E1"/>
</g>
<defs>
<clipPath id="clip0_2147_3126">
<rect width="32" height="32" fill="white"/>
</clipPath>
</defs>
</svg>
