<svg width="28" height="28" viewBox="0 0 28 28" fill="none" xmlns="http://www.w3.org/2000/svg">
<path d="M19.8647 2.31634C19.8126 2.66219 19.59 3.0316 19.1826 3.36323C17.8468 4.44325 17.4015 5.33378 17.2879 5.61329C17.2642 5.67487 17.2547 5.70801 17.2547 5.70801H10.7461C10.7461 5.70801 10.7367 5.67487 10.713 5.61329C10.5993 5.33378 10.154 4.44325 8.81824 3.36323C8.80402 3.35377 8.79456 3.34425 8.7851 3.33479C7.27873 2.07473 8.47721 0.374227 10.7462 1.00893C10.8551 1.03737 10.9546 1.06105 11.0446 1.07527C12.262 1.2553 11.9446 0 14.0004 0C16.2126 0 15.6773 1.44949 17.2547 1.00898C17.6905 0.885828 18.0837 0.852687 18.4295 0.881125C19.4195 0.971086 19.9879 1.60109 19.8647 2.31634Z" fill="#54514E"/>
<path d="M24.2321 17.7684C24.2321 23.4195 19.6515 28.0002 14.0004 28.0002C12.532 28.0002 11.1345 27.6923 9.87447 27.1286C7.54391 26.1054 5.66813 24.2296 4.64016 21.899C4.0812 20.6343 3.76855 19.2369 3.76855 17.7684C3.76855 12.4394 8.9176 8.37037 10.4997 6.92563C10.5944 6.84508 10.6797 6.76458 10.746 6.69824H17.2545C17.3209 6.76458 17.4061 6.84508 17.5009 6.92563C19.0831 8.37037 24.2321 12.4393 24.2321 17.7684Z" fill="#54514E"/>
<path d="M17.9887 6.28118C17.9887 6.59383 17.7803 6.8496 17.5008 6.92545C17.444 6.94438 17.3824 6.95389 17.3208 6.95389H10.6796C10.618 6.95389 10.5565 6.94443 10.4996 6.92545C10.2201 6.84966 10.0117 6.59388 10.0117 6.28118C10.0117 5.91171 10.3101 5.61328 10.6796 5.61328H17.3208C17.6903 5.61328 17.9887 5.91171 17.9887 6.28118Z" fill="#F7D770"/>
<path d="M17.1437 20.8209C16.9686 21.1501 16.7262 21.4249 16.4214 21.6505C16.1151 21.8744 15.748 22.0415 15.3208 22.152C15.1343 22.1987 14.939 22.2312 14.7406 22.2583V23.5005H13.2587V22.2827C12.8363 22.2475 12.4329 22.1818 12.0533 22.0772C11.4726 21.9183 10.7124 21.2763 10.7124 21.2763C10.6473 21.239 10.6044 21.1722 10.5958 21.0985C10.586 21.0237 10.6115 20.9483 10.6647 20.8957L11.4075 20.1529C11.4878 20.0727 11.6114 20.058 11.7084 20.1166C11.7084 20.1166 12.2642 20.5997 12.685 20.7135C13.1063 20.8285 13.5243 20.8865 13.9419 20.8865C14.4673 20.8865 14.9021 20.7938 15.247 20.6083C15.5923 20.4201 15.7642 20.1323 15.7642 19.7364C15.7642 19.4529 15.6802 19.2278 15.5094 19.063C15.3397 18.8987 15.0528 18.7963 14.6473 18.7512L13.3167 18.6368C12.5288 18.5599 11.921 18.3403 11.4949 17.9802C11.0665 17.6186 10.854 17.0704 10.854 16.3384C10.854 15.9328 10.9359 15.5717 11.1007 15.254C11.2656 14.9368 11.4889 14.6684 11.7736 14.4499C12.0582 14.2308 12.39 14.0659 12.7674 13.9581C12.9247 13.9115 13.0906 13.8816 13.2587 13.8546V12.7842H14.7406V13.8323C15.087 13.8664 15.4162 13.9217 15.723 14.0063C16.2425 14.1473 16.789 14.5751 16.789 14.5751C16.8579 14.6114 16.904 14.6781 16.9159 14.7535C16.9273 14.8305 16.9023 14.9064 16.8487 14.9622L16.1519 15.6693C16.0777 15.7447 15.9627 15.7642 15.8678 15.7148C15.8678 15.7148 15.4552 15.4214 15.0989 15.3287C14.7427 15.2355 14.3685 15.1878 13.9738 15.1878C13.4592 15.1878 13.0786 15.287 12.833 15.4838C12.5863 15.6806 12.4643 15.9387 12.4643 16.2548C12.4643 16.54 12.5505 16.7591 12.7267 16.9125C12.9013 17.0654 13.1963 17.1652 13.6138 17.2075L14.779 17.3078C15.6438 17.3832 16.2983 17.6131 16.7413 17.9958C17.1854 18.3787 17.4066 18.9382 17.4066 19.6703C17.4067 20.1106 17.3183 20.4923 17.1437 20.8209Z" fill="white"/>
</svg>
