<svg width="28" height="28" viewBox="0 0 28 28" fill="none" xmlns="http://www.w3.org/2000/svg">
<g clip-path="url(#clip0_3164_7415)">
<path d="M8.21116 22.1235C6.62605 20.5384 5.8335 18.6083 5.8335 16.3333C5.8335 14.8361 6.08161 13.3292 6.57783 11.8125C7.07405 10.2958 7.71572 8.92033 8.50283 7.686C9.28994 6.45167 10.1696 5.44522 11.1418 4.66667C12.1141 3.88811 13.0668 3.49922 14.0002 3.5C14.9529 3.5 15.9108 3.88889 16.8737 4.66667C17.8366 5.44445 18.7116 6.45089 19.4987 7.686C20.2858 8.92111 20.9274 10.2966 21.4237 11.8125C21.9199 13.3284 22.1676 14.8353 22.1668 16.3333C22.1668 18.6083 21.3747 20.5384 19.7903 22.1235C18.206 23.7086 16.2759 24.5008 14.0002 24.5C11.7244 24.4992 9.79472 23.7071 8.21116 22.1235ZM15.1668 21C15.4974 21 15.7747 20.888 15.9987 20.664C16.2227 20.44 16.3343 20.1631 16.3335 19.8333C16.3327 19.5036 16.2207 19.2267 15.9975 19.0027C15.7743 18.7787 15.4974 18.6667 15.1668 18.6667C14.1946 18.6667 13.3682 18.3264 12.6877 17.6458C12.0071 16.9653 11.6668 16.1389 11.6668 15.1667C11.6668 14.8361 11.5548 14.5592 11.3308 14.336C11.1068 14.1128 10.8299 14.0008 10.5002 14C10.1704 13.9992 9.8935 14.1112 9.6695 14.336C9.4455 14.5608 9.3335 14.8377 9.3335 15.1667C9.3335 16.7806 9.90244 18.1564 11.0403 19.2943C12.1782 20.4322 13.5537 21.0008 15.1668 21Z" fill="#BEBEBE"/>
</g>
<defs>
<clipPath id="clip0_3164_7415">
<rect width="28" height="28" fill="white"/>
</clipPath>
</defs>
</svg>
