<svg width="32" height="32" viewBox="0 0 32 32" fill="none" xmlns="http://www.w3.org/2000/svg">
<path d="M6 2H26C28.2 2 30 3.8 30 6V26C30 28.2 28.2 30 26 30H6C3.8 30 2 28.2 2 26V6C2 3.8 3.8 2 6 2Z" fill="#3749A6"/>
<path fill-rule="evenodd" clip-rule="evenodd" d="M13.2 16.1V25.8C13.2 25.9 13.3 26.1 13.5 26.1H17.4C17.6 26.1 17.7 26 17.7 25.8V16H20.5C20.6 16 20.8 15.9 20.8 15.8L21.1 12.8C21.1 12.6 21 12.5 20.8 12.5H17.7V10.4C17.7 9.9 18.1 9.5 18.7 9.5H20.9C21.1 9.5 21.2 9.4 21.2 9.2V6.3C21 6.1 20.9 6 20.7 6H17.1C15 6 13.2 7.6 13.2 9.6V12.5H11.3C11.1 12.5 11 12.6 11 12.8V15.8C11 15.9 11.1 16.1 11.3 16.1H13.2Z" fill="white"/>
</svg>
