<svg width="24" height="24" viewBox="0 0 24 24" fill="none" xmlns="http://www.w3.org/2000/svg">
<g clip-path="url(#clip0_2908_18424)">
<path d="M3.0548 14.328L3.0368 14.16L3.0328 14.117C2.99811 13.7447 2.98242 13.3709 2.9858 12.997C3.0038 6.707 7.2758 3 15.9858 3H19.9998C20.265 3 20.5194 3.10536 20.7069 3.29289C20.8944 3.48043 20.9998 3.73478 20.9998 4L20.9978 6.057C20.4998 14.758 16.2578 19 8.9998 19H6.3688C6.19679 19.6942 6.0715 20.3991 5.9938 21.11C5.97936 21.2405 5.93934 21.3669 5.87604 21.482C5.81274 21.5971 5.7274 21.6986 5.62488 21.7806C5.52237 21.8627 5.40469 21.9238 5.27856 21.9604C5.15244 21.997 5.02033 22.0084 4.8898 21.994C4.75927 21.9796 4.63286 21.9395 4.51779 21.8762C4.40272 21.8129 4.30124 21.7276 4.21915 21.6251C4.13707 21.5226 4.07598 21.4049 4.03937 21.2788C4.00276 21.1526 3.99136 21.0205 4.0058 20.89C4.1218 19.8447 4.31513 18.8623 4.5858 17.943L4.4678 17.797L4.2598 17.517L4.1028 17.288L3.9208 16.995L3.8228 16.824L3.7578 16.702C3.59896 16.4002 3.46615 16.0854 3.3608 15.761L3.2888 15.524L3.2038 15.197L3.1468 14.929L3.1038 14.687L3.0548 14.328ZM11.5938 10.086C8.7488 11.351 6.7398 13.216 5.4858 15.669C5.55113 15.8023 5.6238 15.9357 5.7038 16.069L5.8888 16.35L5.9588 16.447C6.0388 16.5563 6.1248 16.666 6.2168 16.776L6.4138 17H7.0628C8.0998 14.729 9.8398 13.054 12.4058 11.914C12.6482 11.8063 12.8379 11.6068 12.9332 11.3592C13.0285 11.1117 13.0215 10.8364 12.9138 10.594C12.8061 10.3516 12.6066 10.1619 12.359 10.0666C12.1115 9.97135 11.8362 9.97832 11.5938 10.086Z" fill="#C83A2D"/>
</g>
<defs>
<clipPath id="clip0_2908_18424">
<rect width="24" height="24" fill="white"/>
</clipPath>
</defs>
</svg>
