<svg width="24" height="24" viewBox="0 0 24 24" fill="none" xmlns="http://www.w3.org/2000/svg">
<path fill-rule="evenodd" clip-rule="evenodd" d="M12.9628 2.28584C12.9025 2.20508 12.8266 2.13729 12.7396 2.08652C12.6525 2.03575 12.5561 2.00304 12.4562 1.99035C12.3562 1.97766 12.2547 1.98524 12.1578 2.01264C12.0608 2.04004 11.9703 2.0867 11.8918 2.14984C9.97534 3.68841 8.71121 5.89447 8.35279 8.32584C7.69597 7.84953 7.12024 7.27043 6.64779 6.61084C6.58362 6.52114 6.50046 6.4467 6.40423 6.39281C6.308 6.33893 6.20107 6.30693 6.09106 6.2991C5.98105 6.29127 5.87067 6.3078 5.76778 6.34751C5.66489 6.38722 5.57202 6.44913 5.49579 6.52883C4.17511 7.91039 3.32854 9.67652 3.0787 11.5714C2.82886 13.4662 3.18873 15.3914 4.10619 17.0681C5.02364 18.7447 6.45103 20.0858 8.1816 20.897C9.91217 21.7082 11.856 21.9474 13.7316 21.58C15.6073 21.2126 17.3172 20.2576 18.6138 18.8534C19.9104 17.4492 20.7263 15.6687 20.9433 13.7698C21.1603 11.8709 20.7672 9.9522 19.8208 8.29166C18.8745 6.63113 17.4241 5.31497 15.6798 4.53384C14.6075 4.0124 13.6758 3.24154 12.9628 2.28584ZM15.7498 14.2498C15.7494 14.7923 15.6314 15.3282 15.4038 15.8205C15.1762 16.3129 14.8445 16.7501 14.4316 17.1018C14.0187 17.4536 13.5344 17.7116 13.0121 17.858C12.4898 18.0045 11.942 18.0358 11.4064 17.95C10.8708 17.8642 10.3602 17.6632 9.90981 17.3608C9.45943 17.0585 9.08 16.6621 8.7977 16.1989C8.51539 15.7358 8.33692 15.2168 8.27462 14.678C8.21231 14.1392 8.26764 13.5932 8.43679 13.0778C9.06479 13.5428 9.78679 13.8878 10.5698 14.0778C10.7821 12.7088 11.4624 11.4557 12.4948 10.5318C13.3958 10.6518 14.2226 11.095 14.8213 11.7789C15.42 12.4628 15.75 13.3409 15.7498 14.2498Z" fill="#BEBEBE"/>
</svg>
