<svg width="32" height="32" viewBox="0 0 32 32" fill="none" xmlns="http://www.w3.org/2000/svg">
<g clip-path="url(#clip0_2260_2740)">
<path d="M1 21H31V29H1V21Z" fill="#AAB2BD"/>
<path d="M7.5 29L7 31H3L2.5 29H7.5Z" fill="#838F9B"/>
<path d="M29.5 29L29 31H25L24.5 29H29.5Z" fill="#838F9B"/>
<path d="M1 23H7V27H1V23Z" fill="#FCD770"/>
<path d="M25 23H31V27H25V23Z" fill="#FCD770"/>
<path d="M20 27C21.1046 27 22 26.1046 22 25C22 23.8954 21.1046 23 20 23C18.8954 23 18 23.8954 18 25C18 26.1046 18.8954 27 20 27Z" fill="#A0D468"/>
<path d="M12 27C13.1046 27 14 26.1046 14 25C14 23.8954 13.1046 23 12 23C10.8954 23 10 23.8954 10 25C10 26.1046 10.8954 27 12 27Z" fill="#A0D468"/>
<path d="M29 14H3L1 21H31L29 14Z" fill="#CCD1D9"/>
<path d="M23.99 14C23.855 10.99 22.5 10.85 22.5 8C22.5 8 22.01 7.92 21.425 8.15C21.06 5.255 19.5 5.86 19.5 1C19.5 1 16 1 16 7.5V8.5C16 2 12.5 2 12.5 2C12.5 6.37 11.235 6.32 10.72 8.375C10.075 8 9.5 8 9.5 8C9.5 10.85 8.145 10.99 8.01 14C8.005 14.16 8 14.325 8 14.5C8 14.925 8.04 15.315 8.12 15.68C8.43 17.19 9.355 18.185 10.595 18.665L10.705 18.71V18.725C12.105 18.885 13.71 18.98 15.43 18.995C15.415 18.995 15.4 18.995 15.385 18.99C14.605 18.955 13.905 18.625 13.39 18.11C12.84 17.56 12.5 16.8 12.5 15.96C12.5 15.335 12.69 14.725 13.05 14.215L13.675 13.32L16 10L18.325 13.32L18.95 14.215C19.31 14.725 19.5 15.335 19.5 15.96C19.5 17.59 18.225 18.915 16.615 18.99C16.6 18.995 16.585 18.995 16.57 18.995C18.25 18.98 19.825 18.885 21.2 18.74C21.205 18.735 21.21 18.735 21.21 18.735C22.55 18.285 23.56 17.265 23.88 15.675C23.96 15.315 24 14.92 24 14.5C24 14.325 23.995 14.16 23.99 14Z" fill="#FF826E"/>
<path d="M18 17.46C18 17.14 17.905 16.835 17.72 16.575L16 14.115L14.28 16.575C14.095 16.835 14 17.14 14 17.46C14 18.255 14.605 18.915 15.385 18.99C14.605 18.955 13.905 18.625 13.39 18.11C12.84 17.56 12.5 16.8 12.5 15.96C12.5 15.335 12.69 14.725 13.05 14.215L13.675 13.32L16 10L18.325 13.32L18.95 14.215C19.31 14.725 19.5 15.335 19.5 15.96C19.5 17.59 18.225 18.915 16.615 18.99C17.395 18.915 18 18.255 18 17.46Z" fill="#FC6E51"/>
<path d="M18 17.46C18 18.255 17.395 18.915 16.615 18.99C16.6 18.995 16.585 18.995 16.57 18.995C16.56 18.995 16.545 18.995 16.535 18.995C16.36 19 16.18 19 16 19C15.82 19 15.64 19 15.465 18.995C15.455 18.995 15.44 18.995 15.43 18.995C15.415 18.995 15.4 18.995 15.385 18.99C14.605 18.915 14 18.255 14 17.46C14 17.14 14.095 16.835 14.28 16.575L16 14.115L17.72 16.575C17.905 16.835 18 17.14 18 17.46Z" fill="#E9573F"/>
<path d="M10.705 18.7249C7.59 18.3799 5.5 17.7349 5.5 16.9999C5.5 16.4949 6.49 16.0299 8.12 15.6799C8.43 17.1899 9.355 18.1849 10.595 18.6649L10.705 18.7099V18.7249Z" fill="#E6E9ED"/>
<path d="M23.88 15.675C25.51 16.03 26.5 16.495 26.5 17C26.5 17.745 24.37 18.39 21.21 18.735C22.55 18.285 23.56 17.265 23.88 15.675Z" fill="#E6E9ED"/>
<path d="M31.5 21L29.377 13.5H24.45C24.3265 12.216 23.9785 11.4455 23.6605 10.759C23.306 9.993 23 9.332 23 8V7.5765L22.5825 7.5065C22.5585 7.5025 22.251 7.457 21.827 7.527C21.638 6.607 21.3195 6.0465 21.009 5.506C20.5125 4.645 20 3.7545 20 1V0.5H19.5C19.3665 0.5 16.7835 0.555 15.841 4.345C14.737 1.547 12.6205 1.5 12.5 1.5H12V2C12 4.7545 11.4875 5.645 10.9915 6.5065C10.788 6.86 10.5805 7.2245 10.4075 7.693C9.897 7.5075 9.5115 7.5 9.5 7.5H9V8C9 9.332 8.694 9.993 8.3395 10.759C8.0215 11.4455 7.6735 12.216 7.55 13.5H2.623L0.5195 20.863L0.5 29.5H2.1095L2.6095 31.5H7.3905L7.8905 29.5H24.1095L24.6095 31.5H29.3905L29.8905 29.5H31.5V21ZM24.236 16.2755C25.4325 16.576 25.8845 16.873 25.986 17.002C25.8065 17.268 24.8925 17.623 23.3275 17.921C23.734 17.4575 24.04 16.905 24.236 16.2755ZM9.247 11.1785C9.5675 10.487 9.897 9.7745 9.98 8.5905C10.7095 8.8205 12 9.6325 12 12.5H13C13 10.0645 12.1585 8.8165 11.301 8.1755C11.451 7.7235 11.6415 7.382 11.8585 7.005C12.3565 6.1405 12.916 5.1675 12.992 2.6045C13.847 2.9055 15.5 4.059 15.5 8.5H16.5V7.5C16.5 3.055 18.156 1.903 19.0085 1.6045C19.084 4.168 19.644 5.14 20.142 6.0055C20.452 6.544 20.724 7.019 20.876 7.868C20.7365 7.9485 20.5965 8.0415 20.458 8.159C19.4905 8.978 19 10.4385 19 12.5H20C20 10.783 20.3765 9.5505 21.089 8.9345C21.415 8.6525 21.7585 8.544 22.0145 8.505C22.0875 9.7415 22.425 10.471 22.753 11.179C23.137 12.009 23.5 12.7925 23.5 14.5C23.5 16.383 22.64 17.7105 21.081 18.2475C20.4455 18.316 19.7525 18.374 19.0025 18.4165C19.6185 17.779 20 16.913 20 15.9585C20 15.228 19.7785 14.526 19.36 13.928L16 9.128L12.6405 13.928C12.2215 14.526 12 15.228 12 15.9585C12 16.913 12.3815 17.779 12.9975 18.4165C12.2325 18.373 11.5275 18.3135 10.8815 18.243L10.7755 18.1985C9.3085 17.631 8.5 16.3175 8.5 14.5C8.5 12.7925 8.863 12.009 9.247 11.1785ZM18.5 17.458C18.5 17.037 18.3725 16.6325 18.131 16.2885L16 13.2435L13.869 16.2885C13.628 16.6325 13.5 17.037 13.5 17.458C13.1895 17.0365 13 16.521 13 15.9585C13 15.434 13.159 14.9305 13.4595 14.5015L16 10.872L18.541 14.502C18.841 14.9305 19 15.434 19 15.9585C19 16.521 18.8105 17.0365 18.5 17.458ZM15.493 18.495C14.942 18.469 14.5 18.016 14.5 17.4585C14.5 17.244 14.565 17.038 14.688 16.8625L16 14.988L17.312 16.8625C17.435 17.0375 17.5 17.2435 17.5 17.4585C17.5 18.016 17.058 18.469 16.507 18.495C16.3375 18.4965 16.1735 18.5 16 18.5C15.8265 18.5 15.6625 18.4965 15.493 18.495ZM8.662 17.919C7.1035 17.6215 6.193 17.268 6.014 17.002C6.116 16.8735 6.5685 16.576 7.768 16.275C7.964 16.9 8.26 17.457 8.662 17.919ZM3.377 14.5H7.5C7.5 14.7755 7.517 15.043 7.549 15.3015C5.821 15.73 5 16.2735 5 17C5 19.2015 13.1065 19.466 15.467 19.496C15.492 19.4965 15.516 19.5 15.5415 19.5H16.4585C16.4835 19.5 16.508 19.4965 16.533 19.496C18.8935 19.466 27 19.2015 27 17C27 16.273 26.1785 15.729 24.4495 15.301C24.4815 15.0425 24.5 14.7765 24.5 14.5H28.623L30.3375 20.5H1.663L3.377 14.5ZM1.5 23.5H6.5V26.5H1.5V23.5ZM6.6095 30.5H3.3905L3.1405 29.5H6.8595L6.6095 30.5ZM28.6095 30.5H25.3905L25.1405 29.5H28.8595L28.6095 30.5ZM1.5 28.5V27.5H7.5V22.5H1.5V21.5H30.5V22.5H24.5V27.5H30.5V28.5H1.5ZM30.5 23.5V26.5H25.5V23.5H30.5Z" fill="black"/>
<path d="M20 22.5C18.6215 22.5 17.5 23.6215 17.5 25C17.5 26.3785 18.6215 27.5 20 27.5C21.3785 27.5 22.5 26.3785 22.5 25C22.5 23.6215 21.3785 22.5 20 22.5ZM20 26.5C19.173 26.5 18.5 25.827 18.5 25C18.5 24.349 18.9195 23.799 19.5 23.592V25.5H20.5V23.592C21.0805 23.799 21.5 24.349 21.5 25C21.5 25.827 20.827 26.5 20 26.5Z" fill="black"/>
<path d="M12 22.5C10.6215 22.5 9.5 23.6215 9.5 25C9.5 26.3785 10.6215 27.5 12 27.5C13.3785 27.5 14.5 26.3785 14.5 25C14.5 23.6215 13.3785 22.5 12 22.5ZM12 26.5C11.173 26.5 10.5 25.827 10.5 25C10.5 24.349 10.9195 23.799 11.5 23.592V25.5H12.5V23.592C13.0805 23.799 13.5 24.349 13.5 25C13.5 25.827 12.827 26.5 12 26.5Z" fill="black"/>
<path d="M28.5 24.5H29.5V25.5H28.5V24.5Z" fill="black"/>
<path d="M26.5 24.5H27.5V25.5H26.5V24.5Z" fill="black"/>
<path d="M2.5 24.5H3.5V25.5H2.5V24.5Z" fill="black"/>
<path d="M4.5 24.5H5.5V25.5H4.5V24.5Z" fill="black"/>
</g>
<defs>
<clipPath id="clip0_2260_2740">
<rect width="32" height="32" fill="white"/>
</clipPath>
</defs>
</svg>
