<svg width="32" height="32" viewBox="0 0 32 32" fill="none" xmlns="http://www.w3.org/2000/svg">
<g clip-path="url(#clip0_2147_3110)">
<path d="M5.89671 20.3008C7.96055 17.9574 7.96055 14.421 5.89312 12.0776C3.04459 13.0916 1.29248 14.6144 1.29248 16.1874C1.29248 17.7496 3.00518 19.2724 5.89671 20.3008ZM15.3058 22.8877L15.3094 22.7551C14.754 22.7874 14.1951 22.8053 13.6325 22.8053C13.0234 22.8053 12.4143 22.7838 11.8123 22.748C12.6149 23.289 13.5644 23.5936 14.5641 23.6115C14.7612 23.6151 14.9439 23.5434 15.0837 23.4073C15.2234 23.2639 15.3022 23.0812 15.3058 22.8877ZM20.3651 9.72715C20.3794 9.10012 19.4299 8.37993 18.0397 8.34409C15.4133 8.27602 12.8765 8.77048 10.8019 9.7164C11.7228 9.62324 12.6651 9.57667 13.6289 9.57667C16.0081 9.57667 18.312 9.86331 20.3472 10.4151L20.3651 9.72715ZM20.6302 22.6906C21.6192 22.6906 22.4576 22.0385 22.7442 21.1464C21.7195 21.5871 20.5514 21.9525 19.2687 22.2248C19.6485 22.5222 20.125 22.6906 20.6302 22.6906Z" fill="#663333"/>
<path d="M28.1764 16.191C28.1764 14.3815 28.7962 12.6473 29.9142 11.2607C28.2194 11.3968 26.7145 12.3893 25.9191 13.9193C25.9155 13.93 25.8474 14.0304 25.8116 14.0698C25.5643 14.3242 25.1594 14.3349 24.9015 14.0877C23.9914 13.2099 22.5617 12.4467 20.7738 11.8841C18.6705 11.2213 16.1982 10.8701 13.6256 10.8701C11.6155 10.8701 9.69856 11.0779 7.92494 11.49C7.6813 11.5473 7.44481 11.6046 7.21191 11.6691C9.22917 14.3349 9.22917 18.0506 7.2155 20.7164C8.12201 20.9636 9.09302 21.1535 10.1142 21.2896C11.25 21.4401 12.4324 21.5154 13.622 21.5154C15.1197 21.5154 16.5852 21.3971 17.979 21.1607C21.0138 20.6483 23.5363 19.6056 24.8979 18.2942C25.1523 18.047 25.5607 18.0541 25.808 18.3121C25.8438 18.348 25.8725 18.3874 25.8976 18.4304C25.9047 18.4411 25.9119 18.4519 25.9155 18.4662C25.9155 18.4698 25.9191 18.4698 25.9191 18.4734C26.7109 19.9997 28.2158 20.9887 29.907 21.1248C28.7962 19.7346 28.1764 18.0004 28.1764 16.191Z" fill="#663333"/>
<path d="M31.9779 9.87709C32.0424 10.1172 31.9636 10.3716 31.7737 10.5328C30.3047 11.7833 29.4626 13.6071 29.4626 15.5347C29.4626 17.4624 30.3047 19.2862 31.7737 20.5367C31.9636 20.6979 32.0424 20.9523 31.9779 21.1888C31.9135 21.4289 31.72 21.6116 31.4763 21.6582C31.1001 21.7298 30.7095 21.7657 30.3154 21.7657C28.248 21.7657 26.349 20.7552 25.1916 19.082C24.8692 19.3292 24.518 19.5693 24.1311 19.7914V19.8129C24.1311 21.7442 22.5581 23.3171 20.6268 23.3171C19.4767 23.3171 18.4161 22.7618 17.7676 21.8373C17.3806 21.8947 16.99 21.9448 16.5959 21.9878L16.5923 22.2494C16.5816 22.7868 16.363 23.292 15.976 23.6683C15.5962 24.0337 15.1018 24.2344 14.575 24.2344H14.5392C12.6366 24.2021 10.8845 23.3422 9.68776 21.866C8.3262 21.6725 7.04705 21.3823 5.88256 20.9953C2.14901 19.7699 0.00634766 17.7777 0.00634766 15.5347C0.00634766 14.1947 0.783871 12.9191 2.24934 11.8442C3.54641 10.8947 5.35585 10.1243 7.48418 9.61553C10.021 7.49436 13.9623 6.29762 18.0721 6.40511C20.118 6.45885 21.6874 7.64485 21.6516 9.10673L21.6229 10.153C23.0526 10.6474 24.2636 11.2709 25.1881 11.9875C26.3454 10.3142 28.2408 9.3038 30.3118 9.3038C30.706 9.3038 31.0965 9.33963 31.4727 9.41129C31.72 9.45787 31.9135 9.63702 31.9779 9.87709Z" fill="#663333"/>
<path d="M20.6731 14.3459C20.7806 14.0091 20.5907 13.6472 20.2539 13.5397C18.3191 12.927 16.0259 12.6045 13.6288 12.6045C13.2741 12.6045 12.9839 12.8911 12.9839 13.2494C12.9839 13.6042 13.2705 13.8944 13.6288 13.8944C15.8969 13.8944 18.0539 14.1954 19.8634 14.7687C19.9278 14.7902 19.9923 14.7973 20.0568 14.7973C20.3327 14.7937 20.5835 14.6182 20.6731 14.3459Z" fill="#4EC8D8"/>
<path d="M29.9143 11.2608C28.7964 12.6475 28.1765 14.3817 28.1765 16.1911C28.1765 18.0006 28.7964 19.7348 29.9143 21.1214C28.2231 20.9852 26.7182 19.9963 25.9264 18.4699C25.9264 18.4664 25.9228 18.4664 25.9228 18.4628C25.9156 18.4484 25.9085 18.4377 25.9049 18.4269C25.8798 18.3875 25.8511 18.3481 25.8153 18.3087C25.5681 18.0543 25.1632 18.0436 24.9052 18.2908C23.5436 19.6022 21.0212 20.6449 17.9863 21.1572C16.5925 21.3937 15.127 21.512 13.6293 21.512C12.4362 21.512 11.2573 21.4367 10.1215 21.2862C9.10034 21.1501 8.12933 20.9602 7.22282 20.7129C9.2365 18.0471 9.2365 14.3315 7.21924 11.6657C7.45214 11.6048 7.68862 11.5439 7.93227 11.4866C9.70588 11.0745 11.6228 10.8667 13.6329 10.8667C16.2055 10.8667 18.6778 11.2178 20.7811 11.8807C22.569 12.4468 23.9987 13.21 24.9088 14.0843C25.1632 14.3315 25.5716 14.3243 25.8189 14.0664C25.8547 14.027 25.9228 13.9266 25.9264 13.9159C26.7146 12.3895 28.2195 11.397 29.9143 11.2608Z" fill="#4EC8D8"/>
<path d="M22.7407 21.1465C22.4541 22.0422 21.6156 22.6908 20.6267 22.6908C20.1215 22.6908 19.6485 22.5224 19.2651 22.225C20.5479 21.9491 21.7159 21.5872 22.7407 21.1465Z" fill="#92E4EA"/>
<path d="M20.2542 13.5397C20.591 13.6472 20.7809 14.0091 20.6734 14.3459C20.5875 14.6218 20.3331 14.7973 20.0607 14.7973C19.9963 14.7973 19.9318 14.7866 19.8673 14.7687C18.0542 14.1954 15.8972 13.8944 13.6327 13.8944C13.278 13.8944 12.9878 13.6077 12.9878 13.2494C12.9878 12.8947 13.2744 12.6045 13.6327 12.6045C16.0262 12.6045 18.3158 12.927 20.2542 13.5397Z" fill="#663333"/>
<path d="M18.0395 8.34406C19.4298 8.37989 20.3828 9.10366 20.3649 9.72712L20.347 10.4151C18.3118 9.86686 16.0079 9.57663 13.6288 9.57663C12.6649 9.57663 11.719 9.62321 10.8018 9.71637C12.8763 8.77402 15.4131 8.27598 18.0395 8.34406ZM15.3057 22.7515L15.3021 22.8841C15.2985 23.0812 15.2197 23.2639 15.0799 23.3965C14.9402 23.5326 14.7539 23.6043 14.5604 23.6007C13.5607 23.5828 12.6112 23.2782 11.8086 22.7372C12.4105 22.7766 13.0197 22.7945 13.6288 22.7945C14.1949 22.8017 14.7539 22.7838 15.3057 22.7515Z" fill="#92E4EA"/>
<path d="M5.79296 15.2236C5.79296 14.8152 5.45973 14.4819 5.05126 14.4819C4.64279 14.4819 4.30957 14.8152 4.30957 15.2236C4.30957 15.6321 4.64279 15.9653 5.05126 15.9653C5.45973 15.9653 5.79296 15.6357 5.79296 15.2236Z" fill="#663333"/>
<path d="M5.89312 12.0776C7.96055 14.421 7.96055 17.9574 5.89671 20.3007C3.00518 19.2724 1.29248 17.7496 1.29248 16.191C1.29248 14.618 3.04459 13.0916 5.89312 12.0776Z" fill="#92E4EA"/>
<path d="M4.30957 15.2236C4.30957 15.4203 4.38771 15.609 4.52681 15.7481C4.6659 15.8872 4.85455 15.9653 5.05126 15.9653C5.24797 15.9653 5.43662 15.8872 5.57572 15.7481C5.71481 15.609 5.79296 15.4203 5.79296 15.2236C5.79296 15.0269 5.71481 14.8383 5.57572 14.6992C5.43662 14.5601 5.24797 14.4819 5.05126 14.4819C4.85455 14.4819 4.6659 14.5601 4.52681 14.6992C4.38771 14.8383 4.30957 15.0269 4.30957 15.2236Z" fill="#663333"/>
</g>
<defs>
<clipPath id="clip0_2147_3110">
<rect width="32" height="32" fill="white"/>
</clipPath>
</defs>
</svg>
