<svg width="28" height="28" viewBox="0 0 28 28" fill="none" xmlns="http://www.w3.org/2000/svg">
<g clip-path="url(#clip0_3164_7409)">
<path d="M15.1668 4.16763C15.1812 6.08995 15.6953 7.97547 16.6587 9.63901C17.6221 11.3025 19.0016 12.6869 20.6618 13.6561C18.5746 13.1052 16.7076 11.9251 15.3146 10.2762C13.9215 8.6272 13.0699 6.58933 12.8754 4.43947L12.8241 4.4383C12.0541 4.4278 11.2106 4.4873 10.3939 4.60513C9.5796 4.7218 8.7641 4.89913 8.05593 5.13597C7.3851 5.36114 6.6641 5.68547 6.17526 6.1743L5.4986 6.85097L7.93343 10.5026C6.98493 11.968 6.06676 13.6655 5.87193 16.399C5.64871 16.4215 5.40682 16.4526 5.14626 16.4923C4.14643 16.6451 2.7756 16.9695 1.6871 17.694L0.50293 18.485L9.51543 27.4975L10.3041 26.3133C10.9609 25.3275 11.3191 24.4583 11.4988 23.5611C11.5956 23.0793 11.6364 22.601 11.6539 22.125C13.6419 21.9885 16.1304 21.4891 18.2013 20.3481L19.5079 22.9731L20.6548 21.8263C22.0408 20.4391 22.8481 18.814 23.3066 17.5645C23.5378 16.9395 23.72 16.2974 23.8514 15.6441C25.3506 13.5908 25.8954 11.198 26.0273 9.16914C26.1638 7.06097 25.8639 5.23514 25.6259 4.36013L25.4346 3.6543L24.7159 3.51897C21.0853 2.83763 17.8198 2.92047 15.1668 4.16763ZM22.6533 7.57897L21.0001 9.23214L19.3469 7.57897L21.0001 5.9258L22.6533 7.57897Z" fill="#BEBEBE"/>
</g>
<defs>
<clipPath id="clip0_3164_7409">
<rect width="28" height="28" fill="white"/>
</clipPath>
</defs>
</svg>
