<svg width="32" height="32" viewBox="0 0 32 32" fill="none" xmlns="http://www.w3.org/2000/svg">
<g clip-path="url(#clip0_2884_7096)">
<path d="M18.9102 2.90869C18.9102 2.90869 21.8191 1.4541 24.728 1.4541C29.0913 1.4541 32.0002 4.36303 32.0002 8.72656C32.0002 11.6411 29.0913 14.5444 29.0913 14.5444L18.9102 2.90869Z" fill="#004ED6"/>
<path d="M21.517 3.2099L22.9714 1.75531C23.3732 1.3537 24.0244 1.3537 24.426 1.75531C24.8276 2.15692 24.8276 2.80829 24.426 3.2099L22.9714 4.66424C22.5698 5.06585 21.9186 5.06585 21.517 4.66424C21.1154 4.26263 21.1154 3.61151 21.517 3.2099Z" fill="#0026B6"/>
<path d="M24.4262 4.66473L25.8806 3.21039C26.2824 2.80878 26.9335 2.80878 27.3351 3.21039C27.7368 3.612 27.7368 4.26312 27.3351 4.66473L25.8806 6.11932C25.4789 6.52093 24.8278 6.52093 24.4262 6.11932C24.0246 5.71771 24.0246 5.06634 24.4262 4.66473Z" fill="#0026B6"/>
<path d="M26.4828 6.97113L28.7892 4.66449C29.1909 4.26288 29.8422 4.26288 30.2438 4.66449C30.6454 5.0661 30.6454 5.71747 30.2438 6.11908L27.9372 8.42547C27.5356 8.82708 26.8845 8.82708 26.4828 8.42547C26.0812 8.02386 26.0812 7.37274 26.4828 6.97113Z" fill="#0026B6"/>
<path d="M27.937 9.88031L30.2436 7.57367C30.6452 7.17206 31.2963 7.17206 31.6979 7.57367C32.0995 7.97528 32.0995 8.62665 31.6979 9.02826L29.3915 11.3347C28.9899 11.7363 28.3388 11.7363 27.937 11.3347C27.5353 10.933 27.5353 10.2819 27.937 9.88031Z" fill="#0026B6"/>
<path d="M0.47999 2.97973C1.03468 1.86719 2.06568 1.06763 3.2815 0.807128C5.23194 0.387207 5.81983 0 11.6375 0C18.9099 0 30.5456 5.81787 30.5456 14.5447C30.5456 23.2715 20.3642 27.6347 14.5464 27.6347C10.1831 27.6347 7.27417 26.1804 7.27417 26.1804C7.27417 26.1804 6.26026 29.3488 4.417 31.2209C3.63306 32.0183 2.42506 32.2202 1.42457 31.7209C0.466807 31.2465 -0.0947161 30.2265 0.0168561 29.1635C0.167247 27.7851 2.07276 25.5637 2.9109 24.7258C2.9109 24.7258 0.343516 23.2959 0.0180767 20.3625C-0.10912 19.2932 0.443613 18.258 1.40284 17.769C2.31324 17.3098 3.41041 17.4431 4.18458 18.1067C5.46558 19.2124 7.27417 21.4409 7.27417 23.2715C7.27417 23.2715 20.3642 23.2715 20.3642 17.4536C20.3642 17.4536 17.4553 14.5447 13.092 14.5447C10.3396 14.5447 2.2356 14.4021 0.15504 5.77685C-0.068593 4.8352 0.0463971 3.84497 0.47999 2.97973Z" fill="#99CEFA"/>
<path d="M15.1886 5.52051C14.7865 5.52051 14.4606 5.84644 14.4606 6.24829C14.4606 6.29028 14.4642 6.33203 14.4713 6.37353C14.5223 6.67041 14.5475 6.97119 14.5465 7.27246C14.5465 8.05493 14.277 8.71753 13.7225 9.29834C13.7159 9.30542 13.7096 9.31225 13.7035 9.31933C13.6964 9.32592 13.6896 9.33252 13.683 9.33935C13.4264 9.59643 13.1388 9.82006 12.8263 10.0051C12.4821 10.2119 12.3707 10.6587 12.5778 11.0029C12.7843 11.3467 13.2303 11.4582 13.5743 11.2524C13.6017 11.2361 13.6293 11.2192 13.6573 11.2019L13.6576 11.2017L13.6613 11.1995L13.6622 11.1987L13.6642 11.1975L13.6669 11.1958L13.6686 11.1948L13.6713 11.1931L13.6727 11.1921L13.6757 11.1904L13.6771 11.1894L13.6796 11.188L13.6813 11.1868L13.684 11.1851L13.6857 11.1841L13.6881 11.1826L13.6896 11.1816L13.6927 11.1794L13.6935 11.1792L13.6979 11.1763L13.7015 11.1741L13.702 11.1736L13.7059 11.1711L13.7064 11.1709L13.7103 11.1685L13.7106 11.1682C13.9808 10.9973 14.2364 10.8044 14.4755 10.592C14.4784 10.5894 14.4816 10.5867 14.4845 10.5837L14.4891 10.5798V10.5796C14.4921 10.5769 14.4952 10.5742 14.4979 10.5718L14.4984 10.5715C14.4996 10.5703 14.5009 10.5691 14.5023 10.5679L14.503 10.5671L14.5067 10.564L14.5077 10.563L14.5111 10.5598L14.5123 10.5586L14.5157 10.5557L14.5172 10.5544L14.5204 10.5515L14.5216 10.5503L14.5248 10.5474L14.5265 10.5459L14.5292 10.5435L14.5311 10.5415L14.5333 10.5395L14.5358 10.5371L14.5377 10.5354L14.5406 10.5327L14.5421 10.5315L14.5455 10.5281L14.5467 10.5271L14.5507 10.5234L14.5514 10.5229C14.6083 10.47 14.6647 10.415 14.7208 10.3581C14.7296 10.3491 14.7382 10.3401 14.7465 10.3308C14.756 10.3215 14.7655 10.3123 14.7748 10.3027C15.2074 9.85669 15.5411 9.32422 15.7538 8.74048V8.74023C15.7582 8.72778 15.7626 8.71533 15.767 8.70263C15.7692 8.69653 15.7714 8.69018 15.7733 8.68383L15.7736 8.68359L15.7799 8.66504V8.66455C15.7821 8.65844 15.7841 8.6521 15.7862 8.64599V8.64575C15.7884 8.6394 15.7904 8.63305 15.7924 8.62695L15.7926 8.62646L15.7946 8.62036C15.796 8.61596 15.7972 8.61181 15.7987 8.60766V8.60742C15.8007 8.60107 15.8026 8.59497 15.8048 8.58862V8.58789C15.8068 8.58178 15.8087 8.57544 15.8107 8.56909L15.8109 8.5686C15.8114 8.56665 15.8121 8.56445 15.8129 8.5625C15.8141 8.5581 15.8153 8.5542 15.8165 8.5498L15.8168 8.54931C15.8175 8.54712 15.818 8.54516 15.8187 8.54321V8.54297L15.8207 8.53686V8.53662C15.8214 8.53442 15.8219 8.53247 15.8226 8.53027V8.52978L15.8246 8.52368C15.8258 8.51928 15.827 8.51513 15.8282 8.51098L15.8285 8.51025L15.8302 8.50415L15.8321 8.49756C15.8329 8.49536 15.8334 8.49341 15.8339 8.49121L15.8341 8.49072C15.8348 8.48877 15.8353 8.48657 15.8358 8.48462L15.8361 8.48413L15.8378 8.47802V8.47778L15.8395 8.47168L15.8397 8.47094L15.8414 8.46484L15.8417 8.4646L15.8434 8.45849V8.458L15.8451 8.4519L15.8453 8.45117C15.8458 8.44922 15.8463 8.44726 15.847 8.44507V8.44458C15.8478 8.44262 15.8483 8.44067 15.8487 8.43872V8.43823L15.8505 8.43237L15.8507 8.43115L15.8524 8.42529V8.4248C15.8531 8.42285 15.8536 8.4209 15.8541 8.4187V8.41845L15.8558 8.41235L15.8561 8.41162L15.8578 8.40527V8.40503C15.8583 8.40283 15.8588 8.40088 15.8595 8.39868L15.8612 8.39233V8.3916C15.8619 8.3894 15.8624 8.38745 15.8629 8.38525C15.8636 8.38305 15.8641 8.3811 15.8646 8.3789V8.37842C15.8654 8.37646 15.8658 8.37451 15.8663 8.37231L15.8666 8.37158C15.8671 8.36938 15.8675 8.36743 15.868 8.36548L15.8683 8.36499C15.8688 8.36279 15.8693 8.36084 15.8697 8.35888V8.3584C15.8702 8.35644 15.871 8.35449 15.8715 8.35229L15.8732 8.34546V8.34472L15.8746 8.33886L15.8749 8.33813L15.8766 8.3313C15.8771 8.3291 15.8776 8.32715 15.878 8.32519L15.8783 8.32446C15.8788 8.32251 15.8793 8.32055 15.8795 8.3186L15.8798 8.31811L15.8812 8.31201L15.8815 8.31103C15.882 8.30908 15.8824 8.30688 15.8829 8.30493L15.8832 8.3042C15.8834 8.30224 15.8839 8.30053 15.8844 8.29858L15.8846 8.29785L15.8861 8.29175L15.8863 8.29077C15.8868 8.28882 15.8871 8.28662 15.8876 8.28467L15.8878 8.28393C15.8883 8.28198 15.8888 8.28003 15.8893 8.27807V8.27759L15.8907 8.27148L15.891 8.27026L15.8925 8.2644V8.26367L15.8939 8.25781L15.8942 8.25708L15.8954 8.25097L15.8956 8.25L15.8968 8.24389L15.8971 8.24292L15.8983 8.23755L15.8986 8.23657C15.899 8.23462 15.8995 8.23266 15.8998 8.23071L15.9003 8.22925C15.9005 8.22729 15.901 8.22534 15.9015 8.22339L15.9017 8.22241C15.902 8.2207 15.9025 8.21899 15.9027 8.21728L15.9032 8.21582L15.9044 8.2102L15.9047 8.20874L15.9059 8.20288L15.9061 8.2019L15.9073 8.19629V8.19555L15.9086 8.18945L15.9091 8.18799C15.9093 8.18603 15.9098 8.18408 15.9103 8.18213V8.18139L15.9115 8.17578L15.9117 8.17456C15.9122 8.1726 15.9125 8.17065 15.913 8.1687L15.9144 8.16137V8.16064L15.9156 8.15503L15.9159 8.15381L15.9171 8.14795L15.9186 8.14062V8.13989L15.9198 8.13403L15.92 8.13305C15.9203 8.13086 15.9208 8.1289 15.9213 8.12695L15.9215 8.12573L15.9225 8.11963L15.9227 8.11889L15.9237 8.11328L15.9239 8.11206C15.9244 8.11011 15.9247 8.10815 15.9252 8.1062L15.9254 8.10473C15.9259 8.10278 15.9261 8.10083 15.9264 8.09887L15.9266 8.0979C15.9271 8.09594 15.9274 8.09399 15.9276 8.09228L15.9293 8.08374C15.9296 8.08178 15.93 8.07959 15.9303 8.07763L15.9305 8.0769L15.9315 8.07104L15.9318 8.07007L15.9327 8.06396L15.933 8.06274C15.9335 8.06079 15.9337 8.05859 15.9342 8.05664V8.05591C15.9347 8.05395 15.9349 8.05224 15.9352 8.05029L15.9354 8.04883C15.9359 8.04687 15.9362 8.04492 15.9364 8.04297L15.9366 8.0415C15.9371 8.0393 15.9374 8.03735 15.9379 8.0354V8.03442C15.9383 8.03247 15.9386 8.03076 15.9388 8.02881L15.9391 8.02783C15.9393 8.02563 15.9398 8.02368 15.9401 8.02173L15.9403 8.02026C15.9408 8.01806 15.941 8.01611 15.9413 8.01416L15.9415 8.01318L15.9425 8.00757V8.00635C15.943 8.00439 15.9432 8.00244 15.9435 8.00049L15.9437 7.99902L15.9447 7.99292L15.9449 7.99194C15.9452 7.98999 15.9454 7.98828 15.9457 7.98633L15.9459 7.98511L15.9469 7.979L15.9471 7.97754L15.9481 7.97143L15.9484 7.97046C15.9486 7.96875 15.9488 7.96679 15.9491 7.96509L15.9493 7.96362L15.9503 7.95752L15.9506 7.9563L15.9515 7.94995V7.94922L15.9525 7.94336V7.94238L15.9535 7.93628L15.9537 7.93457C15.954 7.93261 15.9542 7.93042 15.9545 7.92846L15.9547 7.92773L15.9554 7.92187L15.9557 7.92065C15.9559 7.9187 15.9564 7.91675 15.9567 7.91455V7.91308L15.9576 7.90698L15.9579 7.906L15.9586 7.90039V7.89892L15.9596 7.89282L15.9598 7.8916C15.9601 7.8894 15.9603 7.8872 15.9606 7.88525V7.88452L15.9615 7.87866V7.8772L15.9625 7.87109L15.9628 7.86987L15.9635 7.86352V7.86279L15.9642 7.85644L15.9645 7.85571L15.9652 7.84936L15.9654 7.8479L15.9662 7.84155V7.84106C15.9664 7.83887 15.9669 7.83691 15.9672 7.83496V7.83374C15.9674 7.83178 15.9676 7.82959 15.9679 7.82763L15.9681 7.82593C15.9684 7.82397 15.9686 7.82178 15.9689 7.81982L15.9691 7.81909L15.9696 7.81299L15.9698 7.81177C15.9701 7.80981 15.9703 7.80786 15.9706 7.80566L15.9708 7.8042L15.9713 7.79785L15.9716 7.79712C15.9718 7.79516 15.972 7.79321 15.972 7.79126L15.9723 7.78979C15.9725 7.78784 15.9728 7.78564 15.973 7.78345L15.9733 7.78222C15.9735 7.78003 15.9737 7.77783 15.974 7.77588V7.77514L15.9745 7.76904L15.9747 7.76782L15.9755 7.76172V7.76001L15.9762 7.75366V7.75293C15.9764 7.75097 15.9767 7.74878 15.9769 7.74707L15.9772 7.7456C15.9772 7.74365 15.9774 7.74145 15.9777 7.7395L15.9779 7.73779C15.9779 7.73584 15.9781 7.73364 15.9784 7.73144L15.9786 7.73071L15.9791 7.72485L15.9794 7.72363C15.9794 7.72143 15.9796 7.71924 15.9799 7.71704V7.71582C15.9801 7.71362 15.9803 7.71142 15.9806 7.70923V7.70874C15.9808 7.70654 15.9811 7.70459 15.9813 7.70263V7.70117C15.9816 7.69897 15.9818 7.69702 15.9818 7.69482L15.9821 7.69336L15.9825 7.68701V7.68652C15.9828 7.68432 15.983 7.68213 15.9833 7.68017V7.67895C15.9835 7.67676 15.9838 7.6748 15.9838 7.67261L15.984 7.6709L15.9845 7.66455L15.9847 7.66357L15.9852 7.65796V7.65649C15.9855 7.65429 15.9855 7.65234 15.9857 7.65014L15.986 7.64868L15.9864 7.64209V7.64136C15.9867 7.6394 15.9867 7.63745 15.9869 7.63525V7.63403C15.9872 7.63183 15.9874 7.62964 15.9874 7.62744L15.9877 7.62622L15.9882 7.61963V7.61914C15.9884 7.61694 15.9884 7.61474 15.9886 7.61279V7.61133C15.9889 7.60913 15.9891 7.60718 15.9891 7.60498L15.9894 7.60376C15.9894 7.60132 15.9896 7.59912 15.9896 7.59692L15.9899 7.59668C15.9899 7.59448 15.9901 7.59228 15.9904 7.59009V7.58887C15.9904 7.58667 15.9906 7.58447 15.9908 7.58227V7.58105C15.9911 7.57861 15.9911 7.57641 15.9913 7.57422C15.9916 7.57178 15.9916 7.56958 15.9918 7.56738V7.56616L15.9923 7.55957V7.55835L15.9928 7.55151V7.55127L15.993 7.54468L15.9933 7.54346L15.9935 7.53686V7.5354C15.9938 7.5332 15.9938 7.531 15.994 7.52881V7.52832C15.9943 7.52612 15.9943 7.52392 15.9943 7.52197L15.9945 7.52051C15.9945 7.51831 15.9947 7.51611 15.9947 7.51391V7.51269L15.9952 7.50586V7.50537C15.9952 7.50317 15.9955 7.50122 15.9955 7.49878L15.9957 7.49756L15.996 7.49096V7.4895C15.996 7.4873 15.9962 7.48511 15.9962 7.48291V7.48242C15.9965 7.48022 15.9965 7.47803 15.9967 7.47583V7.47436L15.9969 7.46802V7.46655C15.9969 7.46435 15.9972 7.46216 15.9972 7.45971V7.45947L15.9974 7.45288L15.9977 7.45141L15.9979 7.44482V7.44336L15.9982 7.43677V7.43603C15.9982 7.43408 15.9982 7.43188 15.9984 7.42969V7.42822C15.9984 7.42602 15.9987 7.42383 15.9987 7.42163V7.42041C15.9987 7.41797 15.9989 7.41577 15.9989 7.41357V7.41308C15.9989 7.41089 15.9989 7.40869 15.9991 7.40649V7.40503C15.9991 7.40283 15.9991 7.40063 15.9994 7.39868V7.39038L15.9996 7.38965V7.3833L15.9999 7.38159V7.37353L16.0001 7.36694V7.35986L16.0004 7.3584C16.0004 7.3562 16.0004 7.354 16.0004 7.3518V7.35034C16.0006 7.3479 16.0006 7.3457 16.0006 7.34326C16.0006 7.34082 16.0006 7.33862 16.0006 7.33642V7.33496C16.0006 7.33276 16.0006 7.33056 16.0008 7.32812V7.31152C16.0008 7.30932 16.0008 7.30688 16.0008 7.30469L16.0011 7.30322C16.0011 7.29858 16.0011 7.29394 16.0011 7.28906V7.28784C16.0011 7.28564 16.0011 7.28345 16.0011 7.281V7.23364C16.0008 7.23169 16.0008 7.22973 16.0008 7.22754V7.2268C16.0008 7.22534 16.0008 7.22339 16.0008 7.22192V7.21997C16.0008 7.2185 16.0008 7.21704 16.0008 7.21557V7.21435L16.0006 7.20239V7.19507C16.0006 7.19092 16.0006 7.18701 16.0004 7.18286V7.17065L16.0001 7.16968C16.0001 7.16577 16.0001 7.16162 16.0001 7.15771V7.15674L15.9999 7.15112V7.15063C15.9999 7.14648 15.9999 7.14258 15.9999 7.13843V7.13794L15.9996 7.13208V7.13159L15.9994 7.11914L15.9991 7.11304V7.11279C15.9991 7.10669 15.9989 7.10034 15.9987 7.09424V7.08764C15.9984 7.08154 15.9982 7.07544 15.9982 7.06909V7.06885C15.9896 6.75049 15.9579 6.43335 15.9034 6.11963C15.8412 5.77344 15.5402 5.52124 15.1883 5.52051H15.1886Z" fill="#C9E5FC"/>
<path d="M12.365 27.6348C11.9634 27.6348 11.6377 27.3091 11.6377 26.9075C11.6377 26.5063 11.9624 26.1811 12.3635 26.1804C12.4062 26.1804 16.5749 26.1348 20.6885 23.3935C24.6811 20.7317 24.728 16.7661 24.728 16.7263C24.728 16.3247 25.0535 15.999 25.4551 15.999C25.8567 15.999 26.1824 16.3247 26.1824 16.7263C26.1824 16.9209 26.1284 21.5144 21.4951 24.6038C16.9998 27.6006 12.5525 27.6348 12.365 27.6348Z" fill="#C9E5FC"/>
<path d="M13.5315 11.6445C12.728 11.6484 12.0801 12.303 12.084 13.1062C12.0879 13.8843 12.7034 14.5217 13.4807 14.5525L13.4834 14.5527C13.4856 14.5527 13.4881 14.5527 13.4905 14.553H13.492C13.4949 14.5532 13.4973 14.5532 13.5003 14.5535H13.5012L13.5105 14.5537L13.512 14.554C13.5142 14.554 13.5164 14.554 13.5188 14.5542C13.5327 14.5547 13.5469 14.5554 13.5608 14.5561C13.5733 14.5566 13.5857 14.5569 13.5982 14.5571C13.6116 14.5583 13.6253 14.5593 13.6389 14.5601C16.471 14.718 18.6257 16.0649 19.6692 16.8643C20.3084 17.3508 21.2207 17.2273 21.7073 16.5881C22.1931 15.9502 22.0708 15.0395 21.4341 14.5522C20.1345 13.5571 17.4148 11.8579 13.803 11.6558C13.7869 11.6548 13.771 11.6543 13.7551 11.6538C13.7368 11.6523 13.7183 11.6514 13.6997 11.6504L13.5962 11.646C13.5745 11.645 13.553 11.6445 13.5315 11.6445Z" fill="#64AEF7"/>
<path d="M30.5456 14.5447C30.5456 5.81787 18.9099 0 11.6374 0C5.81982 0 5.23193 0.387207 3.28149 0.807128C2.75464 0.926269 2.25659 1.14868 1.81641 1.46167C3.77173 1.51367 13.9602 2.0332 21.8188 7.27221C30.5456 13.0901 30.5456 24.8498 14.5464 27.6347C20.3642 27.6347 30.5456 23.2715 30.5456 14.5447Z" fill="#0A86E3"/>
<path d="M23.5825 2.25488C23.1807 2.25464 22.8547 2.58008 22.8545 2.98169C22.8542 3.23242 22.9834 3.46558 23.1958 3.59863C24.1421 4.18286 25.041 4.84082 25.8835 5.56665L25.8943 5.57593H25.8945C25.8977 5.57885 25.9014 5.58203 25.9048 5.58496L25.9055 5.58545C25.9089 5.58838 25.9126 5.59155 25.9158 5.59448L25.916 5.59472C25.9268 5.604 25.9373 5.61328 25.948 5.62256L25.9485 5.62304C25.9519 5.62597 25.9553 5.62915 25.9587 5.63208L25.9595 5.63257C25.9626 5.6355 25.9658 5.63818 25.9692 5.64111L25.9702 5.64209C25.9736 5.64502 25.9768 5.6477 25.98 5.65063L25.9807 5.65136C25.9841 5.65429 25.9875 5.65722 25.9907 5.66015L25.9915 5.66064L26.0017 5.66967L26.0024 5.67041C26.0056 5.67334 26.009 5.67627 26.0122 5.67895L26.0132 5.67993C26.0161 5.68237 26.02 5.68579 26.0227 5.68823L26.0242 5.68945C26.0273 5.69238 26.0298 5.69458 26.0332 5.69751L26.0349 5.69897C26.0376 5.70141 26.041 5.70459 26.0439 5.70703L26.0452 5.70825C26.0481 5.71069 26.052 5.71411 26.0549 5.71679L26.0557 5.71753C26.0588 5.72046 26.0623 5.72339 26.0657 5.72632L26.0669 5.72754C26.0703 5.73047 26.0728 5.73266 26.0759 5.73559L26.0779 5.7373C26.0808 5.73999 26.0835 5.74243 26.0864 5.74487L26.0884 5.74658C26.0913 5.74926 26.0942 5.75195 26.0972 5.75439L26.0989 5.75586C26.1016 5.75854 26.1047 5.76123 26.1077 5.76367L26.1094 5.76538C26.1121 5.76782 26.115 5.7705 26.1179 5.77295L26.1204 5.77539C26.1233 5.77783 26.1262 5.78051 26.1291 5.7832L26.1311 5.78467L26.1396 5.79248L26.1416 5.79443C26.1445 5.79687 26.1472 5.79931 26.1499 5.80175L26.1521 5.80371L26.1602 5.81103L26.1626 5.81323L26.1709 5.8208L26.1728 5.82251L26.1814 5.83032L26.1838 5.83252L26.1926 5.84033L26.1946 5.84228C26.197 5.84448 26.2002 5.84741 26.2026 5.84961L26.2053 5.85205C26.2078 5.85424 26.2107 5.85693 26.2131 5.85913L26.2156 5.86133L26.2234 5.86841L26.2261 5.87085C26.2285 5.87304 26.2314 5.87549 26.2336 5.87768L26.2366 5.88037C26.2395 5.88305 26.2415 5.88476 26.2441 5.88745L26.2476 5.89038C26.2502 5.89282 26.2524 5.89477 26.2551 5.89746L26.2581 5.8999C26.2605 5.90234 26.2634 5.90478 26.2656 5.90722C26.2666 5.90771 26.2676 5.90869 26.2683 5.90942C26.2707 5.91162 26.2737 5.91455 26.2761 5.91674L26.2786 5.9187C26.281 5.92114 26.2839 5.92383 26.2864 5.92602L26.2888 5.92846C26.2913 5.93066 26.2942 5.93335 26.2966 5.93554L26.2991 5.93799C26.302 5.94043 26.3044 5.94262 26.3071 5.94531L26.3103 5.94799C26.313 5.95068 26.3152 5.95263 26.3181 5.95532L26.321 5.958C26.3235 5.9602 26.3259 5.96264 26.3284 5.96484L26.3313 5.96753L26.3384 5.97412L26.3415 5.97705C26.344 5.97924 26.3462 5.98144 26.3486 5.98364L26.3516 5.98633L26.3589 5.99316C26.3601 5.99438 26.3611 5.99536 26.3623 5.99633L26.3694 6.00293L26.3733 6.00659C26.3752 6.0083 26.3779 6.01098 26.3801 6.01294L26.3835 6.01611C26.3857 6.01831 26.3882 6.0205 26.3904 6.0227L26.3938 6.02563L26.4009 6.03222L26.4038 6.03491C26.4062 6.03735 26.4082 6.0393 26.4106 6.0415C26.4116 6.04248 26.4131 6.0437 26.4141 6.04467C26.4165 6.04687 26.4185 6.04883 26.4209 6.05102L26.425 6.05493C26.427 6.05688 26.4292 6.05883 26.4311 6.06079L26.4355 6.06469C26.438 6.06714 26.4399 6.06909 26.4424 6.07129L26.4458 6.07446C26.4478 6.07641 26.4504 6.07885 26.4524 6.08081L26.4561 6.08423C26.4585 6.08642 26.4602 6.08813 26.4626 6.09033L26.4661 6.09375L26.4727 6.09985L26.4761 6.10302C26.4785 6.10547 26.4805 6.10742 26.4829 6.10962L26.4871 6.11352L26.4927 6.11889C26.4944 6.12036 26.4961 6.12207 26.4978 6.12378C26.5 6.12573 26.501 6.12671 26.5029 6.12866C26.5046 6.13012 26.5063 6.13159 26.5081 6.1333C26.51 6.13525 26.512 6.1372 26.5142 6.13916C26.5154 6.14038 26.5166 6.1416 26.5178 6.14282L26.5239 6.14868L26.5278 6.15234L26.5337 6.15796L26.5388 6.16259L26.5437 6.16772C26.5454 6.16919 26.5474 6.1709 26.5491 6.1726L26.5542 6.17773C26.5559 6.1792 26.5576 6.1809 26.5593 6.18237L26.5647 6.1875L26.5693 6.19214L26.5754 6.19775L26.5852 6.20752C26.5867 6.20874 26.5879 6.20996 26.5891 6.21118L26.5952 6.21704C26.5969 6.2185 26.5986 6.22046 26.6003 6.22216C26.602 6.22363 26.6035 6.22509 26.605 6.22656L26.6103 6.23144C26.6118 6.23315 26.6135 6.23462 26.615 6.23632L26.6206 6.2417L26.6252 6.24609C26.6269 6.2478 26.6287 6.24926 26.6304 6.25097C26.6323 6.25293 26.6343 6.25488 26.6362 6.25683L26.6404 6.26074C26.6418 6.2622 26.6443 6.26464 26.646 6.26611L26.6501 6.27026L26.6555 6.27539L26.6653 6.28515L26.6719 6.29126L26.675 6.29467C26.6775 6.29687 26.6797 6.29907 26.6819 6.30127L26.6851 6.3042L26.6916 6.31079L26.6956 6.31445L26.7014 6.32031L26.7068 6.32544L26.7119 6.33056C26.7136 6.33203 26.7148 6.33349 26.7163 6.33496C26.7185 6.33691 26.7205 6.33886 26.7224 6.34106L26.7261 6.34448C26.7283 6.34668 26.7305 6.34887 26.7324 6.35083C26.7334 6.3518 26.7346 6.35302 26.7353 6.35376C26.7378 6.35595 26.74 6.35815 26.7422 6.36059L26.7454 6.36377C26.7476 6.36596 26.7498 6.36792 26.7519 6.37011L26.7615 6.37963C26.7632 6.3811 26.7649 6.38305 26.7666 6.38452L26.7727 6.39062C26.7742 6.39209 26.7747 6.39257 26.7764 6.39428C26.7786 6.39648 26.7808 6.39868 26.783 6.40088L26.7859 6.4038C26.7883 6.40625 26.7905 6.40844 26.793 6.41088L26.7952 6.41308C26.7978 6.41552 26.8003 6.41796 26.8027 6.42041L26.8047 6.42236C26.8071 6.42505 26.8096 6.42749 26.8123 6.43017L26.8132 6.43115C26.8174 6.4353 26.8213 6.43896 26.8252 6.44311L26.8262 6.44409C26.8286 6.44653 26.8311 6.44897 26.8335 6.45141L26.8359 6.45385C26.8384 6.4563 26.8406 6.45849 26.843 6.46093L26.8455 6.46338C26.8479 6.46582 26.8501 6.46801 26.8523 6.47046L26.8552 6.47314C26.8577 6.47558 26.8599 6.47802 26.8623 6.48022L26.8643 6.48242C26.8669 6.48486 26.8691 6.4873 26.8718 6.48974L26.8738 6.49194C26.8804 6.49853 26.8872 6.50537 26.8938 6.5122L26.895 6.51342C26.8977 6.51611 26.9004 6.5188 26.9031 6.52148L26.9048 6.52319C26.9072 6.52563 26.9097 6.52832 26.9121 6.53076L26.9143 6.53296L26.9216 6.54052L26.9329 6.55175L26.9431 6.56225L26.9451 6.56421C26.9478 6.56689 26.9502 6.56958 26.9526 6.57202L26.9543 6.57373C26.9568 6.57641 26.9592 6.57885 26.9619 6.5813L26.9639 6.58349C26.9663 6.58618 26.969 6.58886 26.9714 6.5913L26.9727 6.59253L26.9807 6.60083L26.9819 6.60205C26.9888 6.60913 26.9958 6.61621 27.0024 6.62329L27.0037 6.62451C27.0063 6.62744 27.009 6.63012 27.0117 6.63281L27.0129 6.63403L27.021 6.64233L27.0222 6.64355L27.03 6.65161L27.0317 6.65356C27.0342 6.65625 27.0366 6.65869 27.0393 6.66137L27.0408 6.66308C27.0476 6.67016 27.0542 6.677 27.061 6.68408L27.0623 6.6853C27.0644 6.68774 27.0669 6.69018 27.0691 6.69262L27.0718 6.69531C27.0742 6.69775 27.0764 6.70019 27.0789 6.70288L27.0806 6.70459L27.0884 6.71264L27.0896 6.71386C27.0923 6.71679 27.095 6.71948 27.0977 6.72241L27.0979 6.72265C27.1111 6.73657 27.1245 6.75048 27.1377 6.76464L27.1379 6.76489C27.1406 6.76782 27.1436 6.77099 27.1465 6.77392L27.147 6.77441C27.1572 6.7854 27.1672 6.79589 27.1775 6.80688L27.1777 6.80712C27.1836 6.81323 27.1892 6.81933 27.1951 6.82544L27.1956 6.82617L27.2041 6.8352L27.2129 6.84472L27.2134 6.84521C27.2454 6.87963 27.2773 6.91406 27.3093 6.94873V6.94897C27.3123 6.95214 27.3149 6.95507 27.3179 6.95825L27.3184 6.95874C27.3284 6.96972 27.3384 6.98071 27.3484 6.99169C27.3542 6.99804 27.3599 7.00439 27.3657 7.01074C27.3686 7.01391 27.3716 7.01709 27.3743 7.02026H27.3745C27.3901 7.03784 27.4058 7.05517 27.4216 7.07275L27.4219 7.07299C27.4434 7.09692 27.4646 7.12085 27.4858 7.14477L27.4861 7.14502C27.4988 7.15918 27.511 7.17334 27.5237 7.1875L27.5244 7.18847L27.5325 7.19751L27.533 7.19799C27.5356 7.20117 27.5383 7.20434 27.541 7.20727L27.5413 7.20752C27.5566 7.22509 27.572 7.24267 27.5874 7.26049L27.5876 7.26074L27.5959 7.27026L27.5962 7.2705C27.603 7.27832 27.6099 7.28637 27.6169 7.29443C27.6194 7.29711 27.6216 7.2998 27.6238 7.30249L27.6257 7.30493C27.6279 7.30737 27.6304 7.31005 27.6326 7.31274L27.6343 7.31469L27.6414 7.32275L27.6428 7.3247C27.6453 7.32763 27.6477 7.33032 27.6501 7.33325L27.6509 7.33398C27.6602 7.34472 27.6694 7.35571 27.6787 7.36645L27.6797 7.36767L27.6873 7.37646L27.6882 7.37768L27.6953 7.38623L27.697 7.38818C27.6992 7.39086 27.7019 7.39355 27.7041 7.39648L27.7051 7.39746L27.7244 7.42041L27.7251 7.42114C27.7275 7.42407 27.73 7.427 27.7324 7.43017L27.7334 7.43115C27.7358 7.43383 27.7383 7.43676 27.7405 7.43945L27.7422 7.44165C27.7446 7.44433 27.7466 7.44677 27.749 7.4497L27.7507 7.45166L27.7573 7.45971L27.7595 7.46215C27.7615 7.46459 27.7639 7.46752 27.7661 7.46997L27.7666 7.47045C27.77 7.47485 27.7737 7.479 27.7771 7.48315L27.7786 7.48486L27.7852 7.49292L27.7871 7.49511C27.7893 7.4978 27.7915 7.50048 27.7937 7.50317L27.7954 7.50512L27.8025 7.51342L27.8037 7.51513C27.8061 7.51806 27.8083 7.52075 27.8108 7.52368L27.8118 7.5249C27.8152 7.5288 27.8184 7.53295 27.8218 7.53686L27.8232 7.53881C27.8257 7.5415 27.8279 7.54418 27.8301 7.54687L27.8315 7.54882C27.8337 7.55151 27.8362 7.55419 27.8384 7.55688L27.8401 7.55908C27.8423 7.56176 27.8445 7.56445 27.8464 7.56689L27.8486 7.56958C27.8508 7.57202 27.8528 7.57446 27.855 7.57714C27.8557 7.57836 27.8562 7.57885 27.8572 7.58007C27.8594 7.58251 27.8613 7.58496 27.8635 7.58764L27.8652 7.58959C27.8674 7.59252 27.8696 7.59497 27.8718 7.5979L27.8726 7.59863C27.8755 7.60229 27.8787 7.6062 27.8816 7.60961L27.8845 7.61328L27.8901 7.62011L27.8928 7.62353C27.895 7.62597 27.897 7.62841 27.8989 7.63085L27.9011 7.63378C27.9033 7.63623 27.9053 7.63867 27.9072 7.64135L27.9099 7.64453C27.9119 7.64672 27.9138 7.64917 27.9155 7.65136L27.9194 7.65625C27.9209 7.6582 27.9226 7.66015 27.9241 7.6621C27.9255 7.66357 27.927 7.66552 27.9282 7.66723C27.9304 7.66967 27.9324 7.67236 27.9346 7.6748L27.9365 7.67749C27.9387 7.67993 27.9407 7.68261 27.9429 7.68505L27.9451 7.68774C27.947 7.69018 27.9487 7.69262 27.9507 7.69506L27.9536 7.69848C27.9556 7.70092 27.9575 7.70336 27.9592 7.70556L27.9617 7.70874C27.9636 7.71118 27.9656 7.71337 27.9675 7.71606L27.9702 7.71923C27.9722 7.72167 27.9741 7.72412 27.9758 7.72631C27.9773 7.72802 27.979 7.72998 27.9802 7.73168C27.9817 7.73364 27.9834 7.73559 27.9849 7.73754L27.9885 7.74218C27.9905 7.74462 27.9924 7.74707 27.9944 7.74951L27.9968 7.75244C27.9988 7.75488 28.0007 7.75756 28.0027 7.76L28.0049 7.76269L28.011 7.77026C28.012 7.77148 28.0129 7.77294 28.0139 7.77417L28.019 7.78051C28.0203 7.78222 28.0217 7.78393 28.0229 7.78564L28.0273 7.79101C28.0286 7.79272 28.0305 7.79516 28.0317 7.79663C28.0334 7.79882 28.0349 7.80078 28.0366 7.80273C28.0378 7.80444 28.0386 7.80542 28.04 7.80712L28.0452 7.81347L28.0483 7.81787L28.0535 7.82421C28.0547 7.82592 28.0554 7.82666 28.0566 7.82812C28.0583 7.83032 28.0601 7.83276 28.0618 7.83471L28.0654 7.83935L28.0701 7.84521C28.0715 7.84741 28.073 7.84912 28.0745 7.85107L28.0781 7.85571L28.0828 7.86181C28.084 7.86328 28.0854 7.86498 28.0864 7.86645L28.0913 7.87231C28.0925 7.87426 28.094 7.87597 28.0955 7.87792L28.0996 7.8833C28.1011 7.885 28.1025 7.88696 28.104 7.88891L28.1079 7.89379C28.1094 7.89575 28.1108 7.89794 28.1123 7.89965C28.1138 7.90136 28.1155 7.9038 28.1167 7.90527C28.1179 7.90698 28.1194 7.90869 28.1206 7.91015C28.1221 7.91235 28.1238 7.91455 28.1255 7.9165C28.1265 7.91796 28.1277 7.91943 28.1287 7.92089C28.1304 7.92285 28.1321 7.92529 28.1338 7.92724L28.1367 7.93115C28.1382 7.9331 28.1404 7.93603 28.1421 7.93798C28.1433 7.93969 28.1445 7.9414 28.1457 7.94287C28.1472 7.94482 28.1487 7.94677 28.1504 7.94873C28.1514 7.95043 28.1528 7.95214 28.154 7.95361C28.1555 7.95581 28.157 7.95776 28.1587 7.95971L28.1623 7.96459C28.1641 7.96679 28.166 7.96948 28.1677 7.97143L28.1704 7.97509L28.1758 7.98193L28.1787 7.98608L28.1868 7.99633L28.1921 8.00366L28.1956 8.00805L28.2087 8.02563C28.21 8.02709 28.2112 8.0288 28.2124 8.03027C28.2139 8.03222 28.2161 8.03515 28.2175 8.0371C28.2185 8.03832 28.2195 8.03955 28.2205 8.04077C28.2224 8.04345 28.2239 8.0454 28.2258 8.04785L28.2339 8.05883C28.2346 8.05981 28.2356 8.06103 28.2363 8.06201C28.2383 8.06469 28.24 8.06665 28.2417 8.06933C28.2432 8.0708 28.2441 8.07226 28.2454 8.07397C28.2468 8.07592 28.2488 8.07861 28.2502 8.08056L28.2534 8.08471C28.2551 8.08715 28.2571 8.08959 28.259 8.09204L28.2615 8.09545C28.2634 8.0979 28.2651 8.10058 28.2671 8.10302L28.2698 8.10644L28.2749 8.11352L28.2778 8.11743L28.2832 8.12451L28.2856 8.12792L28.2913 8.13549L28.2939 8.1394C28.2959 8.14184 28.2976 8.14428 28.2996 8.14672L28.3025 8.15063C28.3042 8.15307 28.3064 8.156 28.3081 8.15844L28.3105 8.16162L28.3164 8.16943L28.3184 8.17211C28.3203 8.1748 28.3225 8.17773 28.3245 8.18041L28.3342 8.19384L28.3403 8.20214L28.3491 8.21386L28.3506 8.21606L28.3572 8.22509L28.3586 8.22705C28.3608 8.23022 28.363 8.23315 28.3652 8.23608L28.3667 8.23803C28.3689 8.24096 28.3708 8.24389 28.373 8.24682L28.3748 8.24926C28.3769 8.25219 28.3789 8.25512 28.3811 8.25805L28.3823 8.25976C28.3848 8.26318 28.3867 8.26562 28.3892 8.26904L28.3904 8.27075C28.3928 8.27416 28.3948 8.27709 28.3972 8.28051L28.3987 8.28247C28.4009 8.2854 28.4031 8.28857 28.4053 8.2915L28.407 8.29394C28.4092 8.29687 28.4111 8.29956 28.4131 8.30248L28.4148 8.30468C28.4165 8.30737 28.4192 8.31079 28.4209 8.31347L28.4226 8.31567C28.4248 8.31884 28.4268 8.32177 28.4289 8.3247L28.4304 8.32665C28.4324 8.32958 28.4348 8.33276 28.437 8.33569L28.4382 8.33764L28.4453 8.34765L28.4463 8.34912L28.4531 8.35839L28.4543 8.36035C28.4565 8.36328 28.4587 8.36645 28.4607 8.36938L28.4622 8.37133C28.4641 8.37402 28.4668 8.37792 28.4685 8.38037L28.47 8.38232L28.4766 8.3916L28.4778 8.3933C28.4802 8.39672 28.4822 8.39965 28.4846 8.40307L28.4853 8.40405C28.4878 8.40747 28.4905 8.41113 28.4927 8.41455L28.4934 8.41552C28.4958 8.41918 28.498 8.42236 28.5005 8.42578L28.5012 8.42675C28.5034 8.42968 28.5061 8.43383 28.5083 8.43676L28.5093 8.43798C28.5115 8.4414 28.5137 8.44433 28.5159 8.44775L28.5171 8.44921L28.5239 8.45898L28.5247 8.4602C28.5271 8.46362 28.5293 8.46679 28.5317 8.47021L28.532 8.47094C28.5398 8.48193 28.5476 8.49267 28.5559 8.50317C28.5627 8.5144 28.5701 8.52563 28.5776 8.53662L28.5779 8.5371C28.5798 8.54003 28.5818 8.54296 28.584 8.54589L28.5842 8.54638C28.5864 8.54955 28.5886 8.55273 28.5906 8.55566H28.5908C29.1387 9.34863 29.5867 10.2063 29.9246 11.1089C30.0647 11.4853 30.4834 11.6767 30.8599 11.5366C31.2356 11.3967 31.427 10.9792 31.2881 10.603C30.9058 9.58105 30.3979 8.61035 29.7766 7.71337C29.7681 7.70117 29.7595 7.6892 29.7505 7.67749C29.7427 7.66503 29.7346 7.65258 29.7261 7.64038C28.3652 5.68383 26.3733 3.85962 23.9656 2.3645C23.8506 2.29297 23.718 2.25513 23.5825 2.25513V2.25488Z" fill="#0026B6"/>
<path d="M16.0007 2.90869C16.0007 3.71191 15.3496 4.36303 14.5461 4.36303C13.7429 4.36303 13.0918 3.71191 13.0918 2.90869C13.0918 2.10547 13.7429 1.4541 14.5461 1.4541C15.3496 1.4541 16.0007 2.10547 16.0007 2.90869Z" fill="#0A86E3"/>
<path d="M20.364 5.81787C20.364 6.62109 19.7129 7.27221 18.9097 7.27221C18.1064 7.27221 17.4551 6.62109 17.4551 5.81787C17.4551 5.01465 18.1064 4.36328 18.9097 4.36328C19.7129 4.36328 20.364 5.01465 20.364 5.81787Z" fill="#0A86E3"/>
<path d="M8.72827 2.90869C8.72827 3.71191 8.07715 4.36303 7.27392 4.36303C6.4707 4.36303 5.81934 3.71191 5.81934 2.90869C5.81934 2.10547 6.4707 1.4541 7.27392 1.4541C8.07715 1.4541 8.72827 2.10547 8.72827 2.90869Z" fill="#001386"/>
<path d="M7.27368 2.18115C7.27368 2.58276 6.948 2.90845 6.54639 2.90845C6.14478 2.90845 5.81934 2.58276 5.81934 2.18115C5.81934 1.77954 6.14478 1.4541 6.54639 1.4541C6.948 1.4541 7.27368 1.77954 7.27368 2.18115Z" fill="#46A4F2"/>
<path d="M3.63794 7.27172C3.23657 7.27197 2.91113 6.94677 2.91089 6.5454C2.91089 6.54516 2.91089 6.54492 2.91089 6.54467V5.94799C2.91235 5.69824 2.7832 5.46606 2.56982 5.33593C0.0742187 3.84863 0.00195312 2.34741 0.00195312 2.18115C0.00195312 1.7793 0.327881 1.45386 0.729736 1.4541C1.11963 1.4541 1.44018 1.76172 1.4563 2.15137C1.46484 2.21387 1.62109 3.07739 3.31421 4.08594C3.96655 4.47973 4.36523 5.18603 4.36523 5.94799V6.54467C4.36547 6.94604 4.04028 7.27172 3.63891 7.27197C3.63867 7.27172 3.63842 7.27172 3.63794 7.27172Z" fill="#64AEF7"/>
<path d="M4.36548 6.54468C4.36548 6.94629 4.03979 7.27173 3.63818 7.27173C3.23657 7.27173 2.91113 6.94629 2.91113 6.54468C2.91113 6.14307 3.23657 5.81738 3.63818 5.81738C4.03979 5.81738 4.36548 6.14307 4.36548 6.54468Z" fill="#006CE2"/>
<path d="M1.37231 4.68457C0.970703 4.68433 0.644776 5.00977 0.644532 5.41138C0.644288 5.64111 0.752686 5.85742 0.936768 5.99463C1.10107 6.11743 1.2749 6.23828 1.45605 6.3562V6.54541C1.45654 7.53515 2.1228 8.40112 3.07959 8.65478C3.11865 8.66504 3.1582 8.67212 3.19824 8.67578C3.23633 8.68798 3.27563 8.69726 3.31543 8.70312C3.39404 8.71484 3.47339 8.72241 3.55298 8.72534C3.5625 8.72583 3.57202 8.72607 3.58154 8.72607C3.98315 8.72558 4.30859 8.3999 4.30835 7.99829C4.3081 7.60766 3.99926 7.28711 3.60913 7.27197H3.60644C3.58056 7.27075 3.55469 7.26831 3.52905 7.2644C3.51587 7.26245 3.50268 7.26098 3.48974 7.25976C3.47705 7.25561 3.46435 7.25195 3.45117 7.24853C3.20654 7.18335 3.01318 6.99585 2.94067 6.75317L2.93994 6.75097C2.93921 6.74804 2.93847 6.74536 2.9375 6.74243V6.74219L2.93701 6.74023C2.93603 6.7373 2.9353 6.73437 2.93457 6.73169V6.73144L2.93408 6.72949V6.72925L2.93335 6.72729C2.93286 6.7251 2.93237 6.7229 2.93164 6.7207L2.93066 6.71631C2.92993 6.71338 2.9292 6.71045 2.92871 6.70752L2.92847 6.70727L2.92822 6.70556L2.92798 6.70532L2.92749 6.70312C2.92724 6.70166 2.927 6.70019 2.92676 6.69873L2.92627 6.69653L2.92602 6.69629L2.92578 6.69433L2.92554 6.69409L2.92383 6.68554V6.68506L2.92358 6.68335L2.92334 6.68286L2.92309 6.68115V6.68066L2.92236 6.67651L2.92212 6.67627L2.92187 6.67431V6.67383L2.92139 6.67212V6.67163L2.92114 6.66992L2.9209 6.66943L2.92065 6.66772V6.66748L2.91992 6.66308V6.6626L2.91943 6.66089V6.6604L2.91919 6.65869V6.6582L2.91894 6.65649L2.9187 6.656L2.91821 6.65185V6.65137L2.91772 6.64966V6.64917L2.91748 6.64746V6.64697L2.91723 6.64526V6.64477C2.91699 6.64331 2.91675 6.64184 2.9165 6.64038V6.63989L2.91626 6.63818V6.63769L2.91601 6.63598V6.6355L2.91577 6.63379V6.6333L2.91553 6.63159V6.6311L2.91528 6.6289L2.91504 6.62866V6.62695L2.91479 6.62622V6.62475L2.91455 6.62402V6.62256L2.9143 6.62182V6.61963L2.91406 6.61743L2.91382 6.61548V6.61474L2.91357 6.61328V6.61255L2.91333 6.61108V6.61035L2.91308 6.60888V6.60815L2.91284 6.60596V6.604L2.9126 6.60327V6.60107L2.91235 6.59961V6.59717L2.91211 6.59668L2.91186 6.59228V6.59155L2.91162 6.59009V6.58716L2.91138 6.58569V6.58276L2.91113 6.58056V6.57763L2.91089 6.57617V6.57104L2.91064 6.56909V6.56372L2.9104 6.5625V5.94897C2.91186 5.69922 2.78247 5.4668 2.56933 5.33667L2.5625 5.33252L2.55957 5.33081L2.55566 5.32837L2.552 5.32642L2.54858 5.32422L2.54492 5.32202L2.54175 5.32007C2.54053 5.31934 2.53906 5.3186 2.53784 5.31787L2.53491 5.31592C2.53369 5.31543 2.53223 5.31445 2.531 5.31372L2.52807 5.31201C2.52661 5.31103 2.52515 5.3103 2.52392 5.30933L2.52148 5.30786C2.52002 5.30713 2.51831 5.30615 2.51709 5.30518L2.51489 5.30395L2.51001 5.30102L2.50854 5.30005L2.50317 5.29687H2.50293C2.49463 5.29175 2.48584 5.28638 2.47754 5.28125L2.47705 5.28101C2.4751 5.27978 2.47314 5.27856 2.47119 5.27734L2.47046 5.27685L2.4646 5.27344L2.46362 5.27295L2.45801 5.26929L2.45727 5.2688C2.45532 5.26758 2.45337 5.2666 2.45141 5.26538L2.45068 5.26489L2.44482 5.26123L2.44433 5.26099C2.42505 5.24927 2.406 5.2373 2.38696 5.22534C2.31518 5.18042 2.24536 5.13525 2.17749 5.09033H2.17725L2.17163 5.08643L2.17139 5.08618L2.16577 5.08252L2.16504 5.08203C2.16333 5.08081 2.16138 5.07959 2.15967 5.07837H2.15942C2.146 5.06934 2.13257 5.0603 2.11914 5.05127L2.11792 5.05029L2.11328 5.04712L2.11182 5.04639L2.10742 5.04321L2.10571 5.04224L2.10156 5.03931L2.09961 5.03809L2.09546 5.03516L2.0935 5.03394L2.08935 5.03101L2.08765 5.02978L2.0835 5.0271L2.08179 5.02588L2.06787 5.01636L2.06567 5.01489L2.0625 5.0127L2.05957 5.01074L2.05664 5.00854L2.05078 5.00464L2.04736 5.0022L2.04492 5.00049L2.0415 4.99805L2.03882 4.99634L2.0354 4.9939L2.03271 4.99219L2.0293 4.98975L2.02661 4.98804L2.02295 4.98535L2.021 4.98389C2.01929 4.98267 2.01782 4.98169 2.01611 4.98071L2.01489 4.97974C2.00879 4.97559 2.00268 4.97119 1.99658 4.96704L1.99634 4.9668L1.99048 4.96265L1.98999 4.96216L1.98462 4.9585L1.98389 4.95801C1.98193 4.95654 1.98022 4.95532 1.97851 4.9541L1.97754 4.95361L1.97241 4.94995L1.97168 4.94922L1.96631 4.94556L1.96558 4.94507C1.91089 4.90625 1.85791 4.86768 1.8064 4.82935C1.6814 4.73511 1.52881 4.68457 1.37231 4.68457Z" fill="#C9E5FC"/>
<path d="M13.0916 14.5449C12.2883 14.5446 11.6375 13.8933 11.6377 13.09C11.6379 12.4645 12.0381 11.9094 12.6313 11.7111C12.762 11.6657 16.0005 10.5068 16.0005 7.27241C16.0005 5.06391 14.9978 3.96577 14.9551 3.92036C14.4116 3.33906 14.4304 2.43037 14.9978 1.87227C15.5632 1.31929 16.468 1.32295 17.0288 1.88081C17.2219 2.07246 18.9094 3.85932 18.9094 7.27241C18.9094 12.623 13.7705 14.3972 13.5518 14.4694C13.4033 14.5192 13.248 14.5446 13.0916 14.5449Z" fill="#64AEF7"/>
<path d="M13.0916 14.5449C12.2883 14.5446 11.6375 13.8933 11.6377 13.09C11.6379 12.4645 12.0381 11.9094 12.6313 11.7111C12.762 11.6657 16.0005 10.5068 16.0005 7.27241C16.0005 5.06391 14.9978 3.96577 14.9551 3.92036C14.4116 3.33906 14.4304 2.43037 14.9978 1.87227C15.5632 1.31929 16.468 1.32295 17.0288 1.88081C17.2219 2.07246 18.9094 3.85932 18.9094 7.27241C18.9094 12.623 13.7705 14.3972 13.5518 14.4694C13.4033 14.5192 13.248 14.5446 13.0916 14.5449Z" fill="#64AEF7"/>
<path d="M17.3243 7.27241C16.6226 7.27167 16.0215 6.76972 15.8953 6.07929C15.6355 4.66035 14.9834 3.95014 14.9551 3.92036C14.4117 3.33906 14.4305 2.43037 14.9976 1.87227C15.5633 1.31929 16.4681 1.32295 17.0288 1.88081C17.1609 2.01289 18.3313 3.23872 18.7559 5.55659C18.9007 6.34614 18.3782 7.10322 17.5889 7.24799C17.5882 7.24824 17.5877 7.24824 17.587 7.24848C17.5005 7.26484 17.4124 7.27289 17.3243 7.27241Z" fill="#006CE2"/>
<path d="M26.1824 10.1809C26.1824 10.9844 25.5312 11.6355 24.728 11.6355C23.9246 11.6355 23.2734 10.9844 23.2734 10.1809C23.2734 9.37768 23.9246 8.72656 24.728 8.72656C25.5312 8.72656 26.1824 9.37768 26.1824 10.1809Z" fill="#0A86E3"/>
<path d="M21.8191 20.3628C21.8191 21.166 21.168 21.8171 20.3645 21.8171C19.5613 21.8171 18.9102 21.166 18.9102 20.3628C18.9102 19.5593 19.5613 18.9082 20.3645 18.9082C21.168 18.9082 21.8191 19.5593 21.8191 20.3628Z" fill="#64AEF7"/>
<path d="M14.5461 25.4529C14.5461 25.8545 14.2207 26.1802 13.8191 26.1802C13.4175 26.1802 13.0918 25.8545 13.0918 25.4529C13.0918 25.0513 13.4175 24.7256 13.8191 24.7256C14.2207 24.7256 14.5461 25.0513 14.5461 25.4529Z" fill="#C9E5FC"/>
<path d="M17.4553 22.5437C17.4553 22.9453 17.1299 23.271 16.7283 23.271C16.3264 23.271 16.001 22.9453 16.001 22.5437C16.001 22.1421 16.3264 21.8164 16.7283 21.8164C17.1299 21.8164 17.4553 22.1421 17.4553 22.5437Z" fill="#C9E5FC"/>
<path d="M23.2732 11.6353C23.2732 12.4385 22.6221 13.0896 21.8188 13.0896C21.0156 13.0896 20.3643 12.4385 20.3643 11.6353C20.3643 10.832 21.0156 10.1807 21.8188 10.1807C22.6221 10.1807 23.2732 10.832 23.2732 11.6353Z" fill="#E1EBFC"/>
<path d="M10.1831 6.54468C10.1831 6.94629 9.85742 7.27173 9.45581 7.27173C9.0542 7.27173 8.72852 6.94629 8.72852 6.54468C8.72852 6.14307 9.0542 5.81738 9.45581 5.81738C9.85742 5.81738 10.1831 6.14307 10.1831 6.54468Z" fill="#64AEF7"/>
<path d="M29.0911 16.7263C29.0911 17.1279 28.7654 17.4536 28.3638 17.4536C27.9622 17.4536 27.6367 17.1279 27.6367 16.7263C27.6367 16.3247 27.9622 15.999 28.3638 15.999C28.7654 15.999 29.0911 16.3247 29.0911 16.7263Z" fill="#006CE2"/>
<path d="M26.1819 22.5437C26.1819 22.9453 25.8564 23.271 25.4546 23.271C25.053 23.271 24.7275 22.9453 24.7275 22.5437C24.7275 22.1421 25.053 21.8164 25.4546 21.8164C25.8564 21.8164 26.1819 22.1421 26.1819 22.5437Z" fill="#006CE2"/>
<path d="M29.0911 19.6355C29.0911 20.0371 28.7654 20.3628 28.3638 20.3628C27.9622 20.3628 27.6367 20.0371 27.6367 19.6355C27.6367 19.2339 27.9622 18.9082 28.3638 18.9082C28.7654 18.9082 29.0911 19.2339 29.0911 19.6355Z" fill="#006CE2"/>
<path d="M21.8188 23.9985C21.8188 24.4001 21.4932 24.7258 21.0916 24.7258C20.6899 24.7258 20.3643 24.4001 20.3643 23.9985C20.3643 23.5969 20.6899 23.2715 21.0916 23.2715C21.4932 23.2715 21.8188 23.5969 21.8188 23.9985Z" fill="#64AEF7"/>
<path d="M8.72876 25.4529C8.72876 25.8545 8.40332 26.1802 8.00171 26.1802C7.6001 26.1802 7.27441 25.8545 7.27441 25.4529C7.27441 25.0513 7.6001 24.7256 8.00171 24.7256C8.40332 24.7256 8.72876 25.0513 8.72876 25.4529Z" fill="#64AEF7"/>
<path d="M26.1819 9.45386C26.1819 9.85547 25.8564 10.1809 25.4546 10.1809C25.053 10.1809 24.7275 9.85547 24.7275 9.45386C24.7275 9.05225 25.053 8.72656 25.4546 8.72656C25.8564 8.72656 26.1819 9.05225 26.1819 9.45386Z" fill="#006CE2"/>
<path d="M7.27412 23.277C7.27412 21.4465 5.46552 19.2179 4.18452 18.1122C3.41035 17.4487 2.31318 17.3154 1.40278 17.7746C0.443556 18.2636 -0.108933 19.2987 0.0180196 20.3681C0.343459 23.3014 2.91084 24.7314 2.91084 24.7314C2.07295 25.5693 0.167434 27.7907 0.0167989 29.1691C-0.124803 30.5837 0.907179 31.8451 2.32173 31.9867C3.09932 32.0644 3.87007 31.7848 4.41694 31.2267C6.26045 29.3544 7.27412 26.186 7.27412 26.186C5.81977 26.186 5.81977 24.7314 5.81977 24.7314C5.81977 24.7314 5.81977 23.277 7.27412 23.277Z" fill="#0A86E3"/>
<path d="M2.5444 17.5039H2.53805L2.53487 17.5042H2.51437C2.49777 17.5044 2.48092 17.5049 2.46432 17.5054H2.46407C2.45333 17.5056 2.44259 17.5061 2.43185 17.5066C2.04489 17.5291 1.74655 17.8562 1.76022 18.2437C1.77389 18.6418 2.10006 18.9578 2.4985 18.9592C2.5024 18.9592 2.50631 18.959 2.51022 18.959L2.5444 18.9585C2.79733 18.9578 3.0422 19.0481 3.23409 19.2131C4.04952 19.9167 5.08761 21.1333 5.56905 22.2656C5.72628 22.6353 6.15328 22.8074 6.52291 22.6501C6.89156 22.4934 7.06417 22.0681 6.90865 21.6987C6.84053 21.5386 6.76461 21.3787 6.68184 21.2195V21.2192C6.67598 21.2083 6.67012 21.1973 6.66427 21.186L6.66402 21.1853C6.66109 21.1799 6.65841 21.1746 6.65548 21.1692L6.65523 21.1687C6.6523 21.1633 6.64962 21.158 6.64669 21.1528L6.6462 21.1516L6.64351 21.1467L6.64302 21.1455L6.6379 21.1362L6.63717 21.1348L6.63472 21.1304L6.6335 21.1279L6.62911 21.1196L6.62838 21.1182L6.62227 21.1072L6.62203 21.1067L6.61715 21.0974L6.61544 21.0947L6.61324 21.0906L6.61177 21.0879C6.61055 21.0857 6.60933 21.0835 6.60811 21.0813L6.60665 21.0784C6.60567 21.0769 6.60518 21.0757 6.60445 21.0742L6.60274 21.071C6.60152 21.0691 6.60054 21.0671 6.59932 21.0652L6.59542 21.0579C6.59469 21.0566 6.5942 21.0557 6.59371 21.0547C6.59273 21.053 6.59176 21.051 6.59053 21.0493L6.58834 21.0452L6.58443 21.0378L6.58248 21.0347C6.58126 21.0325 6.58028 21.0305 6.57906 21.0286L6.57735 21.0254L6.57515 21.0215L6.57344 21.0183C6.57247 21.0166 6.57174 21.0149 6.57076 21.0134L6.56832 21.009L6.56612 21.0051C6.56539 21.0039 6.5649 21.0029 6.56417 21.002L6.56148 20.9968L6.56002 20.9941C6.5588 20.9922 6.55782 20.9905 6.55684 20.9885L6.55513 20.9856L6.55269 20.9812L6.55123 20.9785C6.55001 20.9763 6.54854 20.9741 6.54732 20.9719L6.5461 20.9695C6.54512 20.9678 6.54415 20.9661 6.54317 20.9646L6.54195 20.9624L6.53804 20.9553L6.53707 20.9539C6.53609 20.9519 6.53487 20.9499 6.53389 20.948L6.53267 20.946C6.53145 20.9436 6.53023 20.9414 6.52877 20.9392L6.52779 20.9377L6.52462 20.9319L6.5234 20.9297C6.52218 20.9275 6.52095 20.9255 6.51973 20.9236L6.519 20.9219L6.51534 20.9158L6.51412 20.9133C6.5129 20.9114 6.51168 20.9092 6.51046 20.9072L6.50997 20.9065C6.50875 20.9041 6.50728 20.9016 6.50582 20.8992L6.50484 20.8975C6.50362 20.8955 6.5024 20.8933 6.50118 20.8914L6.50069 20.8901C6.49923 20.8877 6.49776 20.8853 6.4963 20.8828L6.49556 20.8816C6.49434 20.8794 6.49312 20.8772 6.4919 20.875L6.49117 20.874L6.48238 20.8589L6.48165 20.8579C6.47872 20.8528 6.47579 20.8477 6.47286 20.8428L6.47237 20.842C6.4692 20.8367 6.46627 20.8315 6.46309 20.8264V20.8262C6.45821 20.8181 6.45357 20.8103 6.44869 20.8022C6.44552 20.7971 6.44234 20.7917 6.43941 20.7864L6.43917 20.7861C5.84102 19.8115 5.10348 18.9299 4.24996 18.1692V18.1689C4.2463 18.1658 4.24264 18.1626 4.23922 18.1594L4.23897 18.1592C4.23531 18.1563 4.23189 18.1531 4.22848 18.1501L4.2275 18.1494L4.22286 18.1453L4.22262 18.145C4.22091 18.1436 4.2192 18.1421 4.21749 18.1406L4.21651 18.1399L4.21212 18.1357L4.21163 18.1353L4.2065 18.1311L4.20553 18.1301L4.20138 18.1267L4.2004 18.1257C4.19869 18.1243 4.19723 18.123 4.19552 18.1216L4.19454 18.1206L4.19063 18.1172L4.18917 18.116C4.18771 18.1147 4.186 18.1133 4.18453 18.1118C3.72848 17.7188 3.14645 17.5032 2.5444 17.5039Z" fill="#46A4F2"/>
<path d="M24.7273 5.81787C24.7273 6.62109 24.0759 7.27221 23.2727 7.27221C22.4695 7.27221 21.8184 6.62109 21.8184 5.81787C21.8184 5.01465 22.4695 4.36328 23.2727 4.36328C24.0759 4.36328 24.7273 5.01465 24.7273 5.81787Z" fill="#006CE2"/>
<path d="M9.45562 11.6353C9.32501 11.6353 6.22711 11.6168 4.57819 9.96783C4.29425 9.6839 4.29425 9.22345 4.57819 8.93951C4.86212 8.65558 5.32257 8.65558 5.60651 8.93951C6.82647 10.1595 9.42999 10.1807 9.45709 10.1807C9.8587 10.1817 10.1834 10.5081 10.1824 10.9097C10.1817 11.3106 9.8565 11.6351 9.45562 11.6353Z" fill="#E1EBFC"/>
<path d="M5.18266 24.6123C4.78057 24.6125 4.45488 24.9387 4.45513 25.3406C4.45513 25.4053 4.46367 25.4695 4.48076 25.5317C4.62822 26.102 4.94878 26.6128 5.398 26.9939C5.01201 27.8713 4.40874 29.0425 3.62603 29.9397C3.6187 29.948 3.61162 29.9565 3.60503 29.9648C3.59746 29.9727 3.58989 29.9807 3.58281 29.9888C3.51665 30.063 3.44927 30.1352 3.38018 30.2053C3.11577 30.4748 2.73418 30.594 2.36358 30.5232C1.96929 30.4473 1.58794 30.7056 1.51226 31.1001C1.43657 31.4932 1.69317 31.8735 2.08599 31.9509C2.12505 31.9585 2.16436 31.9651 2.20391 31.9707L2.20415 31.9709L2.20806 31.9714H2.20879L2.21294 31.9722C2.21611 31.9726 2.21904 31.9729 2.22197 31.9734H2.22271L2.22612 31.9739L2.23052 31.9746H2.23174L2.23516 31.9751L2.23613 31.9753L2.24053 31.9758H2.24102L2.24443 31.9763L2.24639 31.9766L2.24859 31.977L2.25298 31.9775L2.25493 31.9778L2.25933 31.9783L2.26567 31.979L2.26714 31.9792L2.26958 31.9795L2.27129 31.9797L2.27398 31.98L2.2752 31.9802L2.27813 31.9805H2.27886C2.28228 31.9809 2.28594 31.9814 2.28936 31.9817H2.28984L2.29302 31.9822H2.294L2.29692 31.9827H2.2979L2.30108 31.9829L2.30132 31.9831C2.30498 31.9834 2.30864 31.9839 2.31231 31.9841H2.31255L2.31597 31.9846H2.3167L2.31987 31.9849L2.32036 31.9851C2.32525 31.9856 2.33013 31.9861 2.33501 31.9863L2.3355 31.9866L2.33867 31.9868H2.33941L2.34282 31.9871L2.34331 31.9873C2.34819 31.9875 2.35308 31.988 2.35796 31.9885H2.3582L2.36162 31.9888H2.36235L2.36553 31.989H2.36602C2.3709 31.9895 2.37578 31.99 2.38067 31.9902H2.38115L2.38433 31.9905L2.3853 31.9907H2.38848L2.38897 31.991C2.39385 31.9912 2.39849 31.9914 2.40337 31.9919H2.4041L2.40703 31.9922H2.40825L2.41118 31.9924H2.41191C2.41533 31.9927 2.41875 31.9929 2.42217 31.9932H2.42608L2.42705 31.9934H2.4312L2.43389 31.9936H2.43511C2.43853 31.9939 2.4417 31.9941 2.44487 31.9941H2.44585L2.44854 31.9944H2.45L2.45244 31.9946H2.4544L2.45659 31.9949H2.4583C2.46123 31.9951 2.46416 31.9951 2.46709 31.9951L2.4688 31.9954H2.47295L2.47539 31.9956H2.47954L2.48174 31.9958H2.4876L2.4898 31.9961H2.49614L2.4981 31.9963H2.50469L2.50664 31.9966H2.5147L2.51665 31.9968H2.5252L2.52837 31.9971H2.53936L2.54204 31.9973H2.5606L2.56231 31.9976H2.575C3.26763 31.9976 3.9312 31.7195 4.4168 31.2258L4.42632 31.2163L4.42803 31.2143L4.43022 31.2124L4.43071 31.2117C4.4334 31.209 4.43559 31.2065 4.43828 31.2039L4.43877 31.2034C4.45757 31.1843 4.47588 31.165 4.49443 31.1457L4.49492 31.1453C4.49639 31.1438 4.49809 31.1418 4.49956 31.1404L4.502 31.1379L4.50395 31.1357L4.50542 31.1343C4.5064 31.133 4.50737 31.1321 4.50835 31.1311L4.50981 31.1296L4.51201 31.1272L4.51323 31.126L4.51641 31.1226L4.5208 31.1182V31.1179C4.57109 31.0647 4.62065 31.0107 4.66948 30.9556C4.67851 30.9456 4.68706 30.9355 4.69536 30.925C4.70464 30.9155 4.71367 30.9058 4.72246 30.8957C5.18681 30.3513 5.59697 29.7632 5.94707 29.1394C5.95512 29.125 5.96318 29.1108 5.97148 29.0967L5.97441 29.0915L5.97539 29.0896L5.97636 29.0879L5.97685 29.0869L5.97807 29.085L5.97856 29.084L5.98174 29.0786L5.98198 29.0779C5.9854 29.072 5.98857 29.0662 5.99199 29.0603L5.99223 29.0598L5.99541 29.0544L5.99565 29.0535L5.99883 29.0483L5.99931 29.0471L6.00053 29.0449L6.00078 29.0447L6.00298 29.041L6.00395 29.0388L6.00444 29.0383L6.00566 29.0359L6.00639 29.0349C6.01128 29.0261 6.01616 29.0173 6.02104 29.0085L6.02129 29.0081L6.02324 29.0046L6.02446 29.0027L6.02495 29.0015L6.02715 28.9978L6.02763 28.9971L6.03081 28.991L6.03105 28.9905L6.03447 28.9844L6.03471 28.9841C6.03764 28.9788 6.04082 28.9731 6.04375 28.9678L6.04497 28.9656L6.04619 28.9631L6.04692 28.9622L6.0479 28.96L6.04863 28.959L6.04936 28.9573L6.05058 28.9551L6.05107 28.9543L6.05229 28.9521L6.05278 28.9512L6.05449 28.9485V28.948C6.05644 28.9448 6.05815 28.9416 6.05986 28.9385V28.9382L6.06181 28.9351V28.9348C6.06352 28.9316 6.06523 28.9285 6.06694 28.9253L6.06718 28.925L6.06889 28.9221V28.9219C6.06938 28.9209 6.07011 28.9199 6.0706 28.9189L6.07109 28.9182L6.07378 28.9128L6.07475 28.9116C6.07915 28.9033 6.08379 28.8948 6.08842 28.8865L6.08916 28.885L6.09038 28.8828L6.09209 28.8796C6.09453 28.8752 6.09673 28.8711 6.09917 28.8667L6.09941 28.8665L6.10063 28.864L6.10136 28.8628L6.1021 28.8613L6.10307 28.8596C6.10698 28.8523 6.11113 28.8447 6.11504 28.8374L6.11528 28.8372L6.11674 28.8345L6.11748 28.833L6.11845 28.8313L6.12016 28.8279L6.12065 28.8271L6.12383 28.8213L6.12407 28.821C6.12505 28.8188 6.12602 28.8171 6.127 28.8152L6.12749 28.8142L6.13017 28.8096L6.13188 28.8064C6.13628 28.7983 6.14043 28.7905 6.14458 28.7825L6.14507 28.7817C6.59184 27.9485 6.96928 27.0801 7.27397 26.1851H7.26836C6.36015 26.1826 6.02129 25.6116 5.89482 25.186V25.1858L5.89409 25.1833L5.89262 25.1782L5.89238 25.178L5.89189 25.1758L5.89165 25.1753L5.89116 25.1731H5.89092L5.89043 25.1707L5.89018 25.1702L5.88969 25.1682L5.88872 25.1653L5.88823 25.1631L5.88799 25.1624L5.8875 25.1606L5.88725 25.1597L5.88677 25.1584L5.88652 25.1575L5.88628 25.1562L5.88554 25.1538L5.8853 25.1531L5.88506 25.1516L5.88408 25.1487L5.88384 25.1477C5.79717 24.832 5.5103 24.6128 5.18266 24.6123Z" fill="#004ED6"/>
<path d="M5.09253 21.8164H6.54687C6.94848 21.8164 7.27417 22.1421 7.27417 22.5437C7.27417 22.9453 6.94848 23.271 6.54687 23.271H5.09253C4.69092 23.271 4.36523 22.9453 4.36523 22.5437C4.36523 22.1421 4.69092 21.8164 5.09253 21.8164Z" fill="#46A4F2"/>
<path d="M3.63818 24.7256H5.09277C5.49438 24.7256 5.82007 25.0513 5.82007 25.4529C5.82007 25.8545 5.49438 26.1799 5.09277 26.1799H3.63818C3.23657 26.1799 2.91113 25.8545 2.91113 25.4529C2.91113 25.0513 3.23657 24.7256 3.63818 24.7256Z" fill="#004ED6"/>
<path d="M2.18335 27.6348H5.09228C5.49389 27.6348 5.81933 27.9604 5.81933 28.3621C5.81933 28.7637 5.49389 29.0891 5.09228 29.0891H2.18335C1.78174 29.0891 1.45605 28.7637 1.45605 28.3621C1.45605 27.9604 1.78174 27.6348 2.18335 27.6348Z" fill="#004ED6"/>
<path d="M0.729003 18.9082H3.63794C4.03955 18.9082 4.36523 19.2339 4.36523 19.6355C4.36523 20.0371 4.03955 20.3628 3.63794 20.3628H0.729003C0.327392 20.3628 0.00195312 20.0371 0.00195312 19.6355C0.00195312 19.2339 0.327392 18.9082 0.729003 18.9082Z" fill="#46A4F2"/>
<path d="M2.91064 21.0894C2.91064 21.4912 2.58496 21.8166 2.18335 21.8166C1.78174 21.8166 1.45605 21.4912 1.45605 21.0894C1.45605 20.6877 1.78174 20.3623 2.18335 20.3623C2.58496 20.3623 2.91064 20.6877 2.91064 21.0894Z" fill="#46A4F2"/>
<path d="M2.91064 26.9077C2.91064 27.3093 2.58496 27.635 2.18335 27.635C1.78174 27.635 1.45605 27.3093 1.45605 26.9077C1.45605 26.5061 1.78174 26.1807 2.18335 26.1807C2.58496 26.1807 2.91064 26.5061 2.91064 26.9077Z" fill="#004ED6"/>
</g>
<defs>
<clipPath id="clip0_2884_7096">
<rect width="32" height="32" fill="white"/>
</clipPath>
</defs>
</svg>
