<svg width="32" height="32" viewBox="0 0 32 32" fill="none" xmlns="http://www.w3.org/2000/svg">
<path fill-rule="evenodd" clip-rule="evenodd" d="M19.4866 2.12648C19.6818 2.23514 19.835 2.40605 19.9218 2.61195C20.0086 2.81785 20.0239 3.04687 19.9653 3.26248L17.3093 12.9998H26.9999C27.1948 12.9998 27.3855 13.0568 27.5484 13.1637C27.7113 13.2706 27.8395 13.4228 27.9171 13.6015C27.9947 13.7803 28.0184 13.9778 27.9853 14.1699C27.9522 14.3619 27.8636 14.5401 27.7306 14.6825L13.7306 29.6825C13.5781 29.8462 13.3751 29.9541 13.1541 29.9888C12.9331 30.0236 12.7068 29.9832 12.5114 29.8741C12.3161 29.7651 12.1629 29.5937 12.0765 29.3873C11.99 29.1809 11.9753 28.9515 12.0346 28.7358L14.6906 18.9998H4.99994C4.80506 18.9998 4.61442 18.9428 4.45148 18.8359C4.28853 18.729 4.16037 18.5769 4.08275 18.3981C4.00512 18.2194 3.98143 18.0218 4.01456 17.8298C4.0477 17.6377 4.13623 17.4595 4.26927 17.3171L18.2693 2.31714C18.4218 2.15401 18.6245 2.0466 18.8451 2.01205C19.0657 1.97749 19.2915 2.01778 19.4866 2.12648Z" fill="#BEBEBE"/>
</svg>
