<svg width="32" height="32" viewBox="0 0 32 32" fill="none" xmlns="http://www.w3.org/2000/svg">
<path d="M19.7245 3.86214H12.2762L11.758 1.78902C11.6709 1.44083 11.9343 1.10352 12.2932 1.10352H19.7076C20.0665 1.10352 20.3298 1.44083 20.2428 1.78902L19.7245 3.86214Z" fill="#00D7D7"/>
<path d="M14.8972 1.10352H12.2932C11.9343 1.10352 11.6709 1.44083 11.7579 1.78902L12.2762 3.86214H14.8802L14.3619 1.78902C14.2749 1.44083 14.5383 1.10352 14.8972 1.10352Z" fill="#00BEBE"/>
<path d="M3.8623 3.8623L5.51749 22.0692H26.483L28.1382 3.8623H3.8623Z" fill="#E4EAF6"/>
<path d="M3.8623 3.8623L5.51749 22.0692H11.7996L10.483 3.8623H3.8623Z" fill="#D5DCEC"/>
<path d="M0.886437 23.1724C0.396812 23.1724 0 23.5692 0 24.0588C0 24.4999 0.324375 24.8739 0.761063 24.9363L3.86212 25.3792V23.1724H0.886437V23.1724Z" fill="#00BEBE"/>
<path d="M31.1133 23.1724H28.1377V25.3792L31.2388 24.9362C31.6754 24.8738 31.9998 24.4998 31.9998 24.0587C31.9998 23.5692 31.6029 23.1724 31.1133 23.1724Z" fill="#00D7D7"/>
<path d="M27.3668 30.8965H4.63397C3.63841 30.8965 2.86809 30.0239 2.99153 29.036L3.80203 22.5522C3.83653 22.2761 4.07128 22.0688 4.34947 22.0688H27.6512C27.9295 22.0688 28.1642 22.276 28.1987 22.5522L29.0092 29.036C29.1327 30.0239 28.3624 30.8965 27.3668 30.8965Z" fill="#AFB9D2"/>
<path d="M12.6895 22.0688V26.4827C12.6895 28.3109 14.1715 29.793 15.9998 29.793C17.8281 29.793 19.3102 28.311 19.3102 26.4827V22.0688H12.6895Z" fill="#00D7D7"/>
<path d="M28.1382 10.4829H3.8623C3.55761 10.4829 3.31055 10.2358 3.31055 9.93114C3.31055 9.62646 3.55761 9.37939 3.8623 9.37939H28.1382C28.4429 9.37939 28.6899 9.62646 28.6899 9.93114C28.6899 10.2359 28.4429 10.4829 28.1382 10.4829Z" fill="#C7CFE2"/>
<path d="M28.6898 4.41405H3.31054C3.00585 4.41405 2.75879 4.16698 2.75879 3.8623C2.75879 3.55761 3.00585 3.31055 3.31054 3.31055H28.6899C28.9945 3.31055 29.2416 3.55761 29.2416 3.8623C29.2416 4.16698 28.9945 4.41405 28.6898 4.41405Z" fill="#C7CFE2"/>
<path d="M27.5864 16.5517H4.41405C4.10937 16.5517 3.8623 16.3047 3.8623 16C3.8623 15.6953 4.10937 15.4482 4.41405 15.4482H27.5865C27.8912 15.4482 28.1382 15.6953 28.1382 16C28.1382 16.3047 27.8911 16.5517 27.5864 16.5517Z" fill="#C7CFE2"/>
<path d="M9.93156 27.5863C10.541 27.5863 11.035 27.0922 11.035 26.4828C11.035 25.8734 10.541 25.3794 9.93156 25.3794C9.32215 25.3794 8.82812 25.8734 8.82812 26.4828C8.82812 27.0922 9.32215 27.5863 9.93156 27.5863Z" fill="#E4EAF6"/>
<path d="M6.62102 27.5863C7.23043 27.5863 7.72445 27.0922 7.72445 26.4828C7.72445 25.8734 7.23043 25.3794 6.62102 25.3794C6.0116 25.3794 5.51758 25.8734 5.51758 26.4828C5.51758 27.0922 6.0116 27.5863 6.62102 27.5863Z" fill="#E4EAF6"/>
<path d="M27.6367 9.37932L27.737 8.27588H4.26367L4.36398 9.37932H27.6367Z" fill="#959CB3"/>
<path d="M27.085 15.4482L27.1853 14.3447H4.81543L4.91574 15.4482H27.085Z" fill="#959CB3"/>
<path d="M5.41699 20.9653L5.51737 22.0688H26.4829L26.5832 20.9653H5.41699Z" fill="#959CB3"/>
<path d="M15.9998 28.6896C17.2187 28.6896 18.2067 27.7016 18.2067 26.4828C18.2067 25.2639 17.2187 24.2759 15.9998 24.2759C14.781 24.2759 13.793 25.2639 13.793 26.4828C13.793 27.7016 14.781 28.6896 15.9998 28.6896Z" fill="#00BEBE"/>
<path d="M16 27.0345C15.6953 27.0345 15.4482 26.7874 15.4482 26.4827V24.2759C15.4482 23.9712 15.6953 23.7241 16 23.7241C16.3047 23.7241 16.5517 23.9712 16.5517 24.2759V26.4827C16.5517 26.7874 16.3047 27.0345 16 27.0345Z" fill="#E4EAF6"/>
<path d="M24.8271 27.5863C25.4365 27.5863 25.9305 27.0922 25.9305 26.4828C25.9305 25.8734 25.4365 25.3794 24.8271 25.3794C24.2177 25.3794 23.7236 25.8734 23.7236 26.4828C23.7236 27.0922 24.2177 27.5863 24.8271 27.5863Z" fill="#E4EAF6"/>
<path d="M21.5175 27.5863C22.1269 27.5863 22.6209 27.0922 22.6209 26.4828C22.6209 25.8734 22.1269 25.3794 21.5175 25.3794C20.9081 25.3794 20.4141 25.8734 20.4141 26.4828C20.4141 27.0922 20.9081 27.5863 21.5175 27.5863Z" fill="#E4EAF6"/>
<path d="M9.93123 3.8623C9.93123 3.55761 10.1783 3.31055 10.483 3.31055H3.31054C3.00585 3.31055 2.75879 3.55761 2.75879 3.8623C2.75879 4.16698 3.00585 4.41405 3.31054 4.41405H10.483C10.1782 4.41405 9.93123 4.16698 9.93123 3.8623Z" fill="#AFB9D2"/>
<path d="M10.483 9.93114C10.483 9.62646 10.73 9.37939 11.0347 9.37939H3.8623C3.55761 9.37939 3.31055 9.62646 3.31055 9.93114C3.31055 10.2358 3.55761 10.4829 3.8623 10.4829H11.0347C10.73 10.4828 10.483 10.2358 10.483 9.93114Z" fill="#AFB9D2"/>
<path d="M11.0347 16C11.0347 15.6953 11.2818 15.4482 11.5865 15.4482H4.41405C4.10937 15.4482 3.8623 15.6953 3.8623 16C3.8623 16.3047 4.10937 16.5517 4.41405 16.5517H11.5865C11.2817 16.5517 11.0347 16.3047 11.0347 16Z" fill="#AFB9D2"/>
<path d="M10.8023 8.27588H4.26367L4.36398 9.37932H10.8821L10.8023 8.27588Z" fill="#81869B"/>
<path d="M11.2412 14.3447H4.81543L4.91574 15.4482H11.321L11.2412 14.3447Z" fill="#81869B"/>
<path d="M5.41699 20.9653L5.51737 22.0688H11.7995L11.7197 20.9653H5.41699Z" fill="#81869B"/>
</svg>
