<svg width="32" height="32" viewBox="0 0 32 32" fill="none" xmlns="http://www.w3.org/2000/svg">
<g clip-path="url(#clip0_2884_5107)">
<path d="M23.3 16.5104C23.3 16.5104 23.245 18.1354 22.22 18.9954C21.265 19.7954 19.8 19.6504 19.605 19.6304C19.5985 19.6278 19.5918 19.6261 19.585 19.6254C19.6179 19.0971 19.7449 18.579 19.96 18.0954C19.96 18.0904 19.96 18.0904 19.965 18.0904C20.1239 17.7251 20.3632 17.4004 20.665 17.1404C21.69 16.2804 23.3 16.5104 23.3 16.5104Z" fill="#EFA21B"/>
<path d="M25.2454 10.6203C25.2454 10.6203 25.0504 12.2353 23.9554 13.0053C23.4537 13.3293 22.8676 13.4981 22.2704 13.4903C21.9637 13.4951 21.6572 13.47 21.3554 13.4153C21.3054 13.4053 21.2754 13.4003 21.2754 13.4003C21.3001 13.2263 21.3369 13.0542 21.3854 12.8853C21.44 12.6802 21.5102 12.4796 21.5954 12.2853C21.7245 11.9798 21.898 11.695 22.1104 11.4403C22.2423 11.2803 22.3954 11.139 22.5654 11.0203C22.8181 10.8479 23.099 10.721 23.3954 10.6453C24.0032 10.5048 24.634 10.4963 25.2454 10.6203Z" fill="#EFA21B"/>
<path d="M28.4848 4.93011C28.4848 4.93011 28.0098 6.48511 26.7998 7.05511C25.9886 7.3583 25.0949 7.35652 24.2848 7.05011H24.2798C24.2587 7.04186 24.237 7.03518 24.2148 7.03011C24.1348 7.00011 24.0898 6.98011 24.0898 6.98011C24.1005 6.94253 24.1139 6.90577 24.1298 6.87011C24.1648 6.77011 24.2298 6.61011 24.3198 6.42011C24.4813 6.09616 24.6829 5.79378 24.9198 5.52011C25.1411 5.26014 25.4112 5.0461 25.7148 4.89011C25.7337 4.8766 25.7538 4.86489 25.7748 4.85511C26.9898 4.29011 28.4848 4.93011 28.4848 4.93011Z" fill="#EFA21B"/>
<path d="M22.6905 19.5397C22.6905 19.5397 22.6405 21.1646 21.6155 22.0246C20.6855 22.8046 19.2705 22.6896 19.0205 22.6596C19.0073 22.6568 18.9939 22.6551 18.9805 22.6547C19.0075 22.2241 19.0968 21.7997 19.2455 21.3947C19.4087 20.9237 19.6892 20.5021 20.0605 20.1696C21.0855 19.3096 22.6905 19.5397 22.6905 19.5397Z" fill="#F4CD0B"/>
<path d="M23.9054 13.4845C23.9054 13.4845 23.8504 15.1095 22.8254 15.9695C22.1662 16.449 21.3584 16.6793 20.5454 16.6195C20.4704 16.6195 20.4004 16.6145 20.3504 16.6095C20.2968 16.6077 20.2434 16.6027 20.1904 16.5945C20.2044 16.3605 20.2378 16.128 20.2904 15.8995C20.3447 15.6513 20.4217 15.4086 20.5204 15.1745C20.6438 14.868 20.8198 14.5855 21.0404 14.3395C21.1107 14.2568 21.1876 14.1798 21.2704 14.1095C21.5436 13.8853 21.8602 13.7202 22.2004 13.6245C22.7538 13.4651 23.3334 13.4175 23.9054 13.4845Z" fill="#F4CD0B"/>
<path d="M26.4554 7.59518C26.4554 7.59518 26.2604 9.21018 25.1654 9.97518C24.6539 10.3067 24.0548 10.4774 23.4454 10.4652C23.1487 10.4676 22.8524 10.4425 22.5604 10.3902L22.4854 10.3752C22.4854 10.3752 22.6754 8.80518 23.7304 8.02518C23.7441 8.01199 23.7592 8.00026 23.7754 7.99018C23.868 7.92691 23.9649 7.87011 24.0654 7.82018C24.8203 7.50267 25.6544 7.42414 26.4554 7.59518Z" fill="#F4CD0B"/>
<path d="M24.9903 4.85988C24.9929 5.08186 24.9694 5.30337 24.9203 5.51988C24.8023 6.03804 24.5923 6.53084 24.3003 6.97488C24.3003 6.97488 24.2753 6.95988 24.2303 6.93488C24.2053 6.91988 24.1703 6.89488 24.1303 6.86988C24.0453 6.81488 23.9403 6.73988 23.8203 6.64988C23.2206 6.21748 22.7811 5.59857 22.5703 4.88988C22.2703 3.58988 23.2003 2.25488 23.2003 2.25488C23.9259 2.66952 24.5017 3.30309 24.8453 4.06488C24.8812 4.15406 24.9096 4.24604 24.9303 4.33988C24.9722 4.50999 24.9924 4.68471 24.9903 4.85988Z" fill="#F4CD0B"/>
<path d="M19.3072 11.3221C19.7242 12.5936 21.2127 13.2471 21.2127 13.2471C21.2127 13.2471 22.0262 11.8391 21.6097 10.5676C21.1932 9.29608 19.7042 8.64258 19.7042 8.64258C19.7042 8.64258 18.8907 10.0501 19.3072 11.3221Z" fill="#F4CD0B"/>
<path d="M17.0003 18.0503C17.6313 19.2303 19.2113 19.6153 19.2113 19.6153C19.2113 19.6153 19.7678 18.0878 19.1368 16.9078C18.5058 15.7278 16.9258 15.3428 16.9258 15.3428C16.9258 15.3428 16.3673 16.8683 17.0003 18.0503Z" fill="#F4CD0B"/>
<path d="M22.7563 7.60548C22.4518 6.30248 21.0258 5.52148 21.0258 5.52148C21.0258 5.52148 20.0928 6.85298 20.3968 8.15598C20.7008 9.45898 22.1273 10.24 22.1273 10.24C22.1273 10.24 23.0603 8.90848 22.7563 7.60548Z" fill="#EFA21B"/>
<path d="M20.4905 13.6311C20.0735 12.3596 18.585 11.7061 18.585 11.7061C18.585 11.7061 17.7715 13.1141 18.188 14.3856C18.6045 15.6571 20.0935 16.3106 20.0935 16.3106C20.0935 16.3106 20.907 14.9026 20.4905 13.6311Z" fill="#EFA21B"/>
<path d="M18.6652 22.8052C18.5753 22.7818 18.4868 22.7535 18.4002 22.7202C18.1151 22.6226 17.8404 22.497 17.5802 22.3452C17.1115 22.0862 16.7225 21.7041 16.4552 21.2402C15.8252 20.0602 16.3802 18.5352 16.3802 18.5352C16.3802 18.5352 17.9602 18.9202 18.5902 20.1002C18.6105 20.1375 18.6289 20.1759 18.6452 20.2152C18.7058 20.3397 18.7527 20.4705 18.7852 20.6052C18.9447 21.3359 18.9032 22.0961 18.6652 22.8052Z" fill="#EFA21B"/>
<path d="M28.3099 1.93512C27.8149 2.40512 27.3399 2.90012 26.8949 3.41512C26.4799 3.89012 26.0849 4.38012 25.7149 4.89012C25.201 5.58475 24.7236 6.30573 24.2849 7.05012H24.2799C24.2449 7.11512 24.2099 7.17512 24.1749 7.23512C24.0199 7.49512 23.8749 7.76012 23.7299 8.02512C23.3099 8.79512 22.9199 9.58345 22.5599 10.3901C22.4049 10.7351 22.2549 11.0851 22.1099 11.4401C21.8399 12.0901 21.5899 12.7551 21.3549 13.4151C21.2449 13.7251 21.1399 14.0301 21.0399 14.3401C20.7899 15.0951 20.5599 15.8551 20.3499 16.6101C20.2799 16.8551 20.2149 17.1001 20.1499 17.3451C20.0849 17.5901 20.0249 17.8401 19.9649 18.0901C19.9599 18.0901 19.9599 18.0901 19.9599 18.0951C19.8349 18.6101 19.7149 19.1251 19.6049 19.6301C19.4699 20.2301 19.3499 20.8151 19.2449 21.3951C19.1649 21.8251 19.0899 22.2451 19.0199 22.6601C18.488 25.7469 18.1838 28.8687 18.1099 32.0001H17.5049C17.5783 28.8892 17.8775 25.7877 18.3999 22.7201C18.5149 22.0351 18.6399 21.3301 18.7849 20.6051C18.8549 20.2551 18.9299 19.9051 19.0049 19.5501C19.0141 19.5279 19.0192 19.5042 19.0199 19.4801C19.0249 19.4801 19.0249 19.4751 19.0249 19.4701C19.1449 18.9251 19.2699 18.3801 19.4099 17.8251C19.5449 17.2851 19.6899 16.7351 19.8499 16.1851C20.0649 15.4251 20.2999 14.6601 20.5549 13.8951C20.6499 13.6151 20.7449 13.3301 20.8499 13.0501C21.1099 12.3251 21.3849 11.6051 21.6899 10.8901C21.7899 10.6501 21.8949 10.4101 22.0049 10.1701C22.2499 9.61512 22.5099 9.06512 22.7899 8.52512C23.1099 7.89012 23.4549 7.26012 23.8199 6.65012C24.0349 6.29512 24.2549 5.94512 24.4799 5.60512C24.6449 5.35012 24.8149 5.10512 24.9899 4.86012C25.4349 4.23512 25.9049 3.63012 26.3999 3.06012C26.8711 2.51319 27.3701 1.99083 27.8949 1.49512L28.3099 1.93512Z" fill="#BF760C"/>
<path d="M28.9602 2.57002C28.3872 3.07694 27.6593 3.37479 26.8952 3.41502C26.7274 3.43004 26.5587 3.43505 26.3902 3.43002C26.3848 3.30661 26.3881 3.18296 26.4002 3.06002C26.415 2.24934 26.7161 1.47001 27.2502 0.860023C28.1952 -0.0849772 29.8152 2.27832e-05 29.8152 2.27832e-05C29.8152 2.27832e-05 29.9052 1.62502 28.9602 2.57002Z" fill="#F4CD0B"/>
<path d="M31.1254 14.4404C28.2987 17.5056 25.7582 20.8227 23.5354 24.3504C22.0014 26.7158 20.8222 29.2932 20.0354 32.0004H18.8154C19.8754 28.8554 23.3454 20.2804 31.1254 14.4404Z" fill="#EFA21B"/>
<path d="M31.1255 16.2549C30.8405 16.5599 23.3455 24.5449 20.6105 31.9999H19.4805C20.5591 29.3143 21.9183 26.7501 23.5355 24.3499C25.5979 21.2484 28.163 18.5125 31.1255 16.2549Z" fill="#F4CD0B"/>
<path d="M12.1403 23.9103C12.1291 23.9149 12.1173 23.9183 12.1053 23.9203C11.8703 23.9903 10.4953 24.3553 9.44031 23.7453C8.28031 23.0753 7.94531 21.4853 7.94531 21.4853C7.94531 21.4853 9.49031 20.9803 10.6503 21.6503C11.2352 22.0294 11.6823 22.587 11.9253 23.2403C12.0154 23.4573 12.0873 23.6814 12.1403 23.9103Z" fill="#EFA21B"/>
<path d="M9.98469 17.6496C9.97054 17.6581 9.95543 17.6648 9.93969 17.6696C9.69469 17.7946 8.41969 18.3746 7.28969 17.9596C6.03469 17.4996 5.42969 15.9946 5.42969 15.9946C5.42969 15.9946 6.86469 15.2246 8.11969 15.6846C8.75241 15.9495 9.28344 16.4104 9.63469 16.9996C9.63969 17.0046 9.63969 17.0096 9.64469 17.0146C9.77815 17.2149 9.89201 17.4275 9.98469 17.6496Z" fill="#EFA21B"/>
<path d="M6.54539 11.4748L6.53039 11.4898C6.38039 11.5998 5.18539 12.4598 3.95039 12.2448C2.63539 12.0148 1.77539 10.6298 1.77539 10.6298C1.77539 10.6298 3.05539 9.62483 4.37039 9.85983C5.13914 10.0458 5.81847 10.4951 6.29039 11.1298C6.29657 11.1355 6.30165 11.1423 6.30539 11.1498C6.39132 11.2537 6.47144 11.3622 6.54539 11.4748Z" fill="#EFA21B"/>
<path d="M12.8948 27.0505C12.8948 27.0505 12.8548 27.0605 12.7848 27.0755C11.9056 27.253 10.9918 27.1037 10.2148 26.6555C9.1198 25.8855 8.9248 24.2705 8.9248 24.2705C8.9248 24.2705 10.5098 23.9005 11.6048 24.6705C12.0309 24.9895 12.3627 25.418 12.5648 25.9105C12.725 26.2742 12.8359 26.6575 12.8948 27.0505Z" fill="#F4CD0B"/>
<path d="M11.2751 20.9454L11.2201 20.9604C11.1939 20.9702 11.1672 20.9785 11.1401 20.9854C10.2868 21.2296 9.3739 21.1568 8.57008 20.7804C7.41008 20.1154 7.08008 18.5204 7.08008 18.5204C7.08008 18.5204 8.62508 18.0154 9.78008 18.6854C10.127 18.8938 10.4226 19.1774 10.6451 19.5154C10.6919 19.5797 10.7353 19.6465 10.7751 19.7154C10.777 19.7174 10.7784 19.7198 10.7793 19.7224C10.7801 19.7249 10.7804 19.7277 10.7801 19.7304C11.0054 20.1082 11.1723 20.5178 11.2751 20.9454Z" fill="#F4CD0B"/>
<path d="M8.50996 14.7405H8.50496C8.40496 14.7955 7.03496 15.4905 5.81996 15.0505C4.56496 14.5905 3.95996 13.0805 3.95996 13.0805C3.95996 13.0805 5.38996 12.3155 6.64996 12.7705C7.22292 13.0071 7.71093 13.4115 8.04996 13.9305C8.23314 14.1824 8.38744 14.4541 8.50996 14.7405Z" fill="#F4CD0B"/>
<path d="M11.1503 13.1503C10.9066 13.6163 10.5422 14.0082 10.0953 14.2853C9.81198 14.471 9.50833 14.6237 9.19028 14.7403V14.7453C9.07528 14.7853 9.00528 14.8053 9.00528 14.8053C8.90599 14.5465 8.83231 14.2785 8.78528 14.0053V14.0003C8.64933 13.3631 8.71395 12.6994 8.97028 12.1003C9.19788 11.6602 9.53548 11.2864 9.95028 11.0153C10.3064 10.7686 10.6974 10.5765 11.1103 10.4453C11.1103 10.4453 11.7303 11.9453 11.1503 13.1503Z" fill="#EFA21B"/>
<path d="M13.6293 19.0004C13.0013 20.1819 11.4223 20.5709 11.4223 20.5709C11.4223 20.5709 10.8623 19.0444 11.4903 17.8629C12.1183 16.6814 13.6998 16.2939 13.6998 16.2939C13.6998 16.2939 14.2578 17.8204 13.6293 19.0004Z" fill="#EFA21B"/>
<path d="M15.2299 25.5302C14.9129 26.1259 14.4184 26.6083 13.8149 26.9102C13.6808 26.9839 13.5422 27.049 13.3999 27.1052C13.2249 27.1802 13.1099 27.2152 13.1099 27.2152C12.8357 26.5321 12.7477 25.7884 12.8549 25.0602C12.8749 24.9602 12.8999 24.8652 12.9299 24.7652C12.9599 24.6802 12.9949 24.5902 13.0349 24.5052C13.5999 23.2952 15.1549 22.8252 15.1549 22.8252C15.1549 22.8252 15.7949 24.3202 15.2299 25.5302Z" fill="#EFA21B"/>
<path d="M9.1104 9.72516C8.73934 10.5246 8.09092 11.1624 7.2854 11.5202H7.2804C7.1904 11.5652 7.1404 11.5852 7.1404 11.5852C7.03089 11.3685 6.94055 11.1426 6.8704 10.9102C6.64236 10.26 6.62834 9.55388 6.8304 8.89516C7.2904 7.64016 8.8004 7.03516 8.8004 7.03516C8.8004 7.03516 9.5654 8.46516 9.1104 9.72516Z" fill="#F4CD0B"/>
<path d="M10.5612 14.6221C11.3477 13.5396 12.9652 13.3721 12.9652 13.3721C12.9652 13.3721 13.3077 14.9616 12.5212 16.0441C11.7347 17.1266 10.1172 17.2941 10.1172 17.2941C10.1172 17.2941 9.77469 15.7041 10.5612 14.6221Z" fill="#F4CD0B"/>
<path d="M12.5087 20.9621C13.1372 19.7806 14.7157 19.3916 14.7157 19.3916C14.7157 19.3916 15.2762 20.9181 14.6482 22.0996C14.0202 23.2811 12.4412 23.6701 12.4412 23.6701C12.4412 23.6701 11.8807 22.1436 12.5087 20.9621Z" fill="#F4CD0B"/>
<path d="M13.8696 32.0049L13.2646 31.9899C13.2472 30.3408 13.0866 28.6963 12.7846 27.0749C12.7196 26.7049 12.6496 26.3149 12.5646 25.9099C12.4346 25.2799 12.2846 24.6149 12.1046 23.9199C12.0496 23.6949 11.9846 23.4699 11.9246 23.2399C11.8446 22.9599 11.7646 22.6749 11.6796 22.3849C11.5396 21.9199 11.3846 21.4449 11.2196 20.9599C11.0846 20.5549 10.9396 20.1499 10.7796 19.7299C10.7799 19.7272 10.7797 19.7245 10.7788 19.7219C10.7779 19.7193 10.7765 19.7169 10.7746 19.7149C10.6796 19.4599 10.5746 19.1999 10.4696 18.9349C10.4696 18.9249 10.4646 18.9199 10.4646 18.9149C10.2996 18.5049 10.1246 18.0899 9.93961 17.6699C9.84461 17.4549 9.74461 17.2349 9.64461 17.0149C9.63961 17.0099 9.63961 17.0049 9.63461 16.9999C9.29461 16.2549 8.91461 15.4999 8.50461 14.7399C8.35961 14.4699 8.20961 14.1999 8.04961 13.9299C7.58961 13.1199 7.08294 12.3066 6.52961 11.4899C6.45961 11.3749 6.37961 11.2599 6.30461 11.1499C6.30087 11.1424 6.29579 11.1356 6.28961 11.1299C5.96961 10.6599 5.62961 10.1949 5.27461 9.72992C5.13961 9.53992 4.99461 9.35492 4.84961 9.16992L5.32461 8.79492C5.51461 9.03992 5.70461 9.28492 5.88461 9.52992C6.22961 9.98992 6.55961 10.4499 6.86961 10.9099C7.00961 11.1149 7.14961 11.3149 7.27961 11.5199H7.28461C7.82461 12.3499 8.32461 13.1799 8.78461 13.9999V14.0049C8.92461 14.2499 9.05961 14.4949 9.18961 14.7399V14.7449C9.45961 15.2549 9.71461 15.7649 9.95461 16.2649C9.98461 16.3249 10.0146 16.3849 10.0396 16.4399C10.1696 16.7099 10.2896 16.9799 10.4096 17.2449C10.6896 17.8799 10.9496 18.5049 11.1896 19.1149C11.3696 19.5799 11.5346 20.0349 11.6946 20.4849C11.8846 21.0349 12.0596 21.5699 12.2146 22.0949C12.3696 22.6199 12.5146 23.1149 12.6446 23.6049C12.7496 23.9999 12.8446 24.3899 12.9296 24.7649C12.9946 25.0499 13.0596 25.3249 13.1146 25.5949C13.2246 26.1249 13.3196 26.6299 13.3996 27.1049C13.6959 28.7218 13.8531 30.3612 13.8696 32.0049Z" fill="#BF760C"/>
<path d="M5.88513 9.53004C5.83513 9.75504 5.79013 9.89504 5.79013 9.89504C5.61545 9.84993 5.4435 9.79483 5.27513 9.73004C4.56488 9.48117 3.95787 9.0026 3.55013 8.37004C2.89513 7.20504 3.42513 5.66504 3.42513 5.66504C3.42513 5.66504 5.01013 6.02004 5.66513 7.19004C6.01083 7.92004 6.0887 8.74839 5.88513 9.53004Z" fill="#EFA21B"/>
<path d="M11.74 32.0002H10.635C9.68929 29.9817 8.58062 28.0436 7.32 26.2052C5.3774 23.3383 3.22306 20.6207 0.875 18.0752C6.525 22.3152 9.905 28.0002 11.74 32.0002Z" fill="#EFA21B"/>
<path d="M11.1355 32.0001H10.0055C6.67547 26.0251 1.71547 20.7451 1.48047 20.4951C3.65935 22.1455 5.62149 24.0639 7.32047 26.2051C8.76199 28.0195 10.0387 29.9588 11.1355 32.0001Z" fill="#F4CD0B"/>
<path opacity="0.2" d="M6.29039 11.13C5.97039 10.66 5.63039 10.195 5.27539 9.73004C4.56514 9.48117 3.95814 9.0026 3.55039 8.37004C2.89539 7.20504 3.42539 5.66504 3.42539 5.66504C3.42539 5.66504 5.01039 6.02004 5.66539 7.19004C6.01109 7.92004 6.08897 8.74839 5.88539 9.53004C6.23039 9.99004 6.56039 10.45 6.87039 10.91C6.64235 10.2599 6.62833 9.55376 6.83039 8.89504C7.29039 7.64004 8.80039 7.03504 8.80039 7.03504C8.80039 7.03504 9.56539 8.46504 9.11039 9.72504C8.73933 10.5245 8.09091 11.1623 7.28539 11.52C7.82539 12.35 8.32539 13.18 8.78539 14C8.64944 13.3628 8.71407 12.6991 8.97039 12.1C9.19799 11.6599 9.53559 11.2861 9.95039 11.015C10.0541 12.1019 10.1025 13.1933 10.0954 14.285C10.099 14.692 10.0672 15.0986 10.0004 15.5C9.95569 15.7524 9.94059 16.0092 9.95539 16.265C10.0265 17.1646 10.1975 18.0534 10.4654 18.915C10.3004 18.505 10.1254 18.09 9.94039 17.67C9.69539 17.795 8.42039 18.375 7.29039 17.96C6.03539 17.5 5.43039 15.995 5.43039 15.995C5.43039 15.995 6.86539 15.225 8.12039 15.685C8.75312 15.9499 9.28415 16.4109 9.63539 17C9.29539 16.255 8.91539 15.5 8.50539 14.74C8.40539 14.795 7.03539 15.49 5.82039 15.05C4.56539 14.59 3.96039 13.08 3.96039 13.08C3.96039 13.08 5.39039 12.315 6.65039 12.77C7.22335 13.0067 7.71136 13.4111 8.05039 13.93C7.59039 13.12 7.08372 12.3067 6.53039 11.49C6.38039 11.6 5.18539 12.46 3.95039 12.245C2.63539 12.015 1.77539 10.63 1.77539 10.63C1.77539 10.63 3.05539 9.62504 4.37039 9.86004C5.13914 10.046 5.81847 10.4953 6.29039 11.13Z" fill="white"/>
<path opacity="0.2" d="M10.6451 19.5154C10.7951 19.9954 10.9601 20.4854 11.1401 20.9854C10.2868 21.2296 9.3739 21.1568 8.57008 20.7804C7.41008 20.1154 7.08008 18.5204 7.08008 18.5204C7.08008 18.5204 8.62508 18.0154 9.78008 18.6854C10.127 18.8938 10.4226 19.1774 10.6451 19.5154Z" fill="white"/>
<path opacity="0.2" d="M11.74 32.0002H10.005C6.675 26.0252 1.715 20.7452 1.48 20.4952C3.65888 22.1456 5.62102 24.064 7.32 26.2052C5.3774 23.3383 3.22306 20.6207 0.875 18.0752C6.525 22.3152 9.905 28.0002 11.74 32.0002Z" fill="white"/>
<path opacity="0.2" d="M13.8703 32.0053L13.2653 31.9903C13.2479 30.3411 13.0873 28.6966 12.7853 27.0753C11.9061 27.2528 10.9923 27.1035 10.2153 26.6553C9.12031 25.8853 8.92531 24.2703 8.92531 24.2703C8.92531 24.2703 10.5103 23.9003 11.6053 24.6703C12.0314 24.9893 12.3632 25.4178 12.5653 25.9103C12.4353 25.2803 12.2853 24.6153 12.1053 23.9203C11.8703 23.9903 10.4953 24.3553 9.44031 23.7453C8.28031 23.0753 7.94531 21.4853 7.94531 21.4853C7.94531 21.4853 9.49031 20.9803 10.6503 21.6503C11.2352 22.0294 11.6823 22.587 11.9253 23.2403C11.8453 22.9603 11.7653 22.6753 11.6803 22.3853C12.0553 23.3203 12.4603 24.2353 12.8553 25.0603C12.9403 25.2453 13.0303 25.4203 13.1153 25.5953C13.3553 26.0803 13.5903 26.5253 13.8153 26.9103C13.6812 26.9839 13.5426 27.0491 13.4003 27.1053C13.6966 28.7222 13.8538 30.3615 13.8703 32.0053Z" fill="white"/>
<path opacity="0.1" d="M19.0199 22.6604C18.488 25.7472 18.1838 28.8689 18.1099 32.0004H17.5049C17.5783 28.8894 17.8775 25.788 18.3999 22.7204C18.1148 22.6228 17.8401 22.4972 17.5799 22.3454C18.0049 21.4904 18.3499 20.8054 18.6449 20.2154C18.7699 19.9804 18.8799 19.7554 18.9849 19.5454C18.9995 19.5254 19.0113 19.5035 19.0199 19.4804C19.0249 19.4804 19.0249 19.4754 19.0249 19.4704L19.3999 18.7504C19.6449 18.2854 19.8799 17.8404 20.1499 17.3454C20.0849 17.5954 20.0249 17.8404 19.9649 18.0904C20.1238 17.7251 20.3631 17.4004 20.6649 17.1404C21.6899 16.2804 23.2999 16.5104 23.2999 16.5104C23.2999 16.5104 23.2449 18.1354 22.2199 18.9954C21.2649 19.7954 19.7999 19.6504 19.6049 19.6304C19.4699 20.2304 19.3499 20.8154 19.2449 21.3954C19.4081 20.9244 19.6886 20.5029 20.0599 20.1704C21.0849 19.3104 22.6899 19.5404 22.6899 19.5404C22.6899 19.5404 22.6399 21.1654 21.6149 22.0254C20.6849 22.8054 19.2699 22.6904 19.0199 22.6604Z" fill="black"/>
<path opacity="0.1" d="M20.5449 16.6195C20.9299 15.9245 21.3899 15.0945 21.9999 13.9995C22.0699 13.8745 22.1349 13.7495 22.1999 13.6245C22.7533 13.4651 23.3329 13.4175 23.9049 13.4845C23.9049 13.4845 23.8499 15.1095 22.8249 15.9695C22.1657 16.449 21.3579 16.6793 20.5449 16.6195Z" fill="black"/>
<path opacity="0.1" d="M24.2798 7.05002C24.2448 7.11502 24.2098 7.17502 24.1748 7.23502C24.1848 7.16502 24.1998 7.09502 24.2148 7.03002C24.2198 6.99502 24.2248 6.96502 24.2298 6.93502C24.2598 6.76002 24.2948 6.59002 24.3198 6.42002C24.3748 6.14002 24.4248 5.87002 24.4798 5.60502C24.5898 5.06002 24.7048 4.54002 24.8448 4.06502C24.8806 4.1542 24.9091 4.24618 24.9298 4.34002C24.9716 4.51013 24.9918 4.68485 24.9898 4.86002C25.4348 4.23502 25.9048 3.63002 26.3998 3.06002C26.4145 2.24934 26.7156 1.47001 27.2498 0.860023C28.1948 -0.0849772 29.8148 2.27832e-05 29.8148 2.27832e-05C29.8148 2.27832e-05 29.9048 1.62502 28.9598 2.57002C28.3867 3.07694 27.6588 3.37479 26.8948 3.41502C26.4798 3.89002 26.0848 4.38002 25.7148 4.89002C25.7337 4.87652 25.7538 4.8648 25.7748 4.85502C26.9898 4.29002 28.4848 4.93002 28.4848 4.93002C28.4848 4.93002 28.0098 6.48502 26.7998 7.05502C25.9886 7.35821 25.0948 7.35643 24.2848 7.05002H24.2798Z" fill="black"/>
<path opacity="0.1" d="M23.9545 13.0053C23.4529 13.3293 22.8667 13.4981 22.2695 13.4903C22.7274 12.5769 23.1038 11.6248 23.3945 10.6453C24.0023 10.5048 24.6332 10.4963 25.2445 10.6203C25.2445 10.6203 25.0495 12.2353 23.9545 13.0053Z" fill="black"/>
<path opacity="0.1" d="M25.1653 9.97518C24.6538 10.3067 24.0547 10.4774 23.4453 10.4652C23.7103 9.55518 23.9003 8.66518 24.0653 7.82018C24.8203 7.50267 25.6544 7.42414 26.4553 7.59518C26.4553 7.59518 26.2603 9.21018 25.1653 9.97518Z" fill="black"/>
<path opacity="0.1" d="M31.1254 16.2554C30.8404 16.5604 23.3454 24.5454 20.6104 32.0004H18.8154C19.8754 28.8554 23.3454 20.2804 31.1254 14.4404C28.2987 17.5056 25.7582 20.8227 23.5354 24.3504C25.5978 21.2489 28.163 18.5131 31.1254 16.2554Z" fill="black"/>
</g>
<defs>
<clipPath id="clip0_2884_5107">
<rect width="32" height="32" fill="white"/>
</clipPath>
</defs>
</svg>
