<svg width="32" height="32" viewBox="0 0 32 32" fill="none" xmlns="http://www.w3.org/2000/svg">
<g clip-path="url(#clip0_2147_2300)">
<path d="M12.9987 2.66406C14.3172 2.66406 15.6062 3.05506 16.7025 3.7876C17.7988 4.52014 18.6533 5.56133 19.1579 6.77951C19.6625 7.99768 19.7945 9.33812 19.5373 10.6313C19.28 11.9245 18.6451 13.1124 17.7127 14.0448C16.7804 14.9771 15.5925 15.6121 14.2993 15.8693C13.0061 16.1265 11.6656 15.9945 10.4475 15.4899C9.2293 14.9853 8.18811 14.1309 7.45557 13.0345C6.72302 11.9382 6.33203 10.6493 6.33203 9.33073L6.3387 9.0414C6.41326 7.32506 7.14751 5.70377 8.38833 4.51561C9.62915 3.32745 11.2807 2.66416 12.9987 2.66406Z" fill="#8280FF"/>
<path d="M15.668 18.6641C17.4361 18.6641 19.1318 19.3664 20.382 20.6167C21.6323 21.8669 22.3346 23.5626 22.3346 25.3307V26.6641C22.3346 27.3713 22.0537 28.0496 21.5536 28.5497C21.0535 29.0498 20.3752 29.3307 19.668 29.3307H6.33464C5.62739 29.3307 4.94911 29.0498 4.44902 28.5497C3.94892 28.0496 3.66797 27.3713 3.66797 26.6641V25.3307C3.66797 23.5626 4.37035 21.8669 5.62059 20.6167C6.87083 19.3664 8.56652 18.6641 10.3346 18.6641H15.668Z" fill="#8280FF"/>
<path d="M22 4C23.1472 4.29373 24.164 4.96093 24.8902 5.89641C25.6163 6.83189 26.0105 7.98244 26.0105 9.16667C26.0105 10.3509 25.6163 11.5014 24.8902 12.4369C24.164 13.3724 23.1472 14.0396 22 14.3333" stroke="#8280FF" stroke-width="2" stroke-linecap="round" stroke-linejoin="round"/>
<path d="M28 28V24.5812C27.9898 23.0721 27.3958 21.6082 26.3105 20.4178C25.2252 19.2274 23.7097 18.3773 22 18" stroke="#8280FF" stroke-width="2" stroke-linecap="round" stroke-linejoin="round"/>
</g>
<defs>
<clipPath id="clip0_2147_2300">
<rect width="32" height="32" fill="white"/>
</clipPath>
</defs>
</svg>
