<svg width="24" height="24" viewBox="0 0 24 24" fill="none" xmlns="http://www.w3.org/2000/svg">
<g clip-path="url(#clip0_2884_4642)">
<path d="M20.4844 12.75C18.9333 12.75 17.6719 11.4879 17.6719 9.9375C17.6719 8.38715 18.9333 7.125 20.4844 7.125C22.0355 7.125 23.2969 8.38715 23.2969 9.9375C23.2969 11.4879 22.0355 12.75 20.4844 12.75Z" fill="#FAAAAA"/>
<path d="M20.4842 12.75H19.0779C16.3643 12.75 14.0623 10.5417 14.0623 7.82812L11.4609 12.8778C12.7471 14.8114 14.7294 16.1887 16.9644 16.7216L16.9686 23.2969C16.9686 23.6854 17.2837 24 17.6717 24H23.2967C23.6852 24 23.9998 23.6854 23.9998 23.2969V16.2656C23.9998 14.3265 22.4225 12.75 20.4842 12.75Z" fill="#FF637B"/>
<path d="M12.7031 0.703125V2.10938C12.7031 2.50305 12.3939 2.8125 12 2.8125C11.6061 2.8125 11.2969 2.50305 11.2969 2.10938V0.703125C11.2969 0.309265 11.6061 0 12 0C12.3939 0 12.7031 0.309265 12.7031 0.703125Z" fill="#EFE2DD"/>
<path d="M14.8125 4.26562C14.6325 4.26562 14.4527 4.19696 14.3154 4.05963C14.0407 3.78497 14.0407 3.34003 14.3154 3.06537L15.7216 1.65912C15.9963 1.38446 16.4412 1.38446 16.7159 1.65912C16.9905 1.93378 16.9905 2.37872 16.7159 2.65338L15.3096 4.05963C15.1723 4.19696 14.9925 4.26562 14.8125 4.26562Z" fill="#CDBFBA"/>
<path d="M9.1875 4.26562C9.00751 4.26562 8.8277 4.19696 8.69037 4.05963L7.28412 2.65338C7.00946 2.37872 7.00946 1.93378 7.28412 1.65912C7.55878 1.38446 8.00372 1.38446 8.27838 1.65912L9.68463 3.06537C9.95929 3.34003 9.95929 3.78497 9.68463 4.05963C9.5473 4.19696 9.36749 4.26562 9.1875 4.26562Z" fill="#EFE2DD"/>
<path d="M3.51562 12.75C1.96454 12.75 0.703125 11.4879 0.703125 9.9375C0.703125 8.38715 1.96454 7.125 3.51562 7.125C5.06671 7.125 6.32812 8.38715 6.32812 9.9375C6.32812 11.4879 5.06671 12.75 3.51562 12.75Z" fill="#895D3C"/>
<path d="M12 5.67188C10.8327 5.67188 9.89062 6.61395 9.89062 7.78125C9.89062 10.4952 7.63586 12.75 4.92188 12.75H3.51562C1.57507 12.75 0 14.3251 0 16.2656V23.2969C0 23.6906 0.309265 24 0.703125 24H6.32812C6.72198 24 7.03125 23.6906 7.03125 23.2969V16.7296C9.0141 16.2515 10.7626 15.1218 12 13.6313C13.3218 12.0421 14.1094 9.98914 14.1094 7.78125C14.1094 6.61395 13.1673 5.67188 12 5.67188Z" fill="#7ED8F6"/>
<path d="M14.1094 7.78125C14.1094 9.98914 13.3218 12.0421 12 13.6313V5.67188C13.1673 5.67188 14.1094 6.61395 14.1094 7.78125Z" fill="#6AA9FF"/>
<path d="M12 2.8125V0C12.3939 0 12.7031 0.309265 12.7031 0.703125V2.10938C12.7031 2.50305 12.3939 2.8125 12 2.8125Z" fill="#CDBFBA"/>
</g>
<defs>
<clipPath id="clip0_2884_4642">
<rect width="24" height="24" fill="white"/>
</clipPath>
</defs>
</svg>
