<svg width="32" height="32" viewBox="0 0 32 32" fill="none" xmlns="http://www.w3.org/2000/svg">
<g clip-path="url(#clip0_2147_6356)">
<path d="M11.0991 22.2661C11.0991 22.6176 10.9673 22.9646 10.6993 23.2325L9.6932 24.2386V24.243L9.0562 24.8756L8.38839 25.5434V25.5478L8.28295 25.6489C7.75139 26.1805 6.88145 26.1805 6.34989 25.6489C5.81827 25.1173 5.81827 24.2474 6.34989 23.7159L6.45533 23.6104L7.12314 22.9426L7.76014 22.3056L8.7662 21.2996C9.29777 20.768 10.1676 20.768 10.6993 21.2996C10.9673 21.5676 11.0991 21.9146 11.0991 22.2661Z" fill="#CCCCCC"/>
<path d="M31.3526 3.93713C31.3526 3.93713 31.3526 3.93713 31.3482 3.93276C31.1417 3.47144 30.8474 3.04088 30.4651 2.65869L29.9028 2.09638L29.3361 1.53401C28.9582 1.15613 28.5277 0.861818 28.0664 0.650943C26.6561 0.00513065 24.9647 0.150068 23.6774 1.08588C23.4929 1.21769 23.3172 1.36701 23.1503 1.53401L22.9701 1.70969C22.1618 2.51807 21.7356 3.57244 21.6961 4.63563C21.6478 5.81307 22.0739 7.00363 22.9701 7.89988L23.5369 8.46226L24.0992 9.02457C24.9954 9.92082 26.1816 10.3469 27.3591 10.303C28.4223 10.2634 29.4766 9.83732 30.285 9.02457L30.4651 8.84882C30.6321 8.68194 30.7814 8.50613 30.9133 8.32163V8.31726C31.0538 8.12838 31.1769 7.92626 31.2779 7.71976C31.3263 7.61869 31.3746 7.51326 31.4185 7.40782C31.4668 7.28926 31.5108 7.16619 31.5459 7.04757C31.6118 6.84551 31.6601 6.63463 31.6909 6.42369C31.7041 6.34026 31.7128 6.25682 31.7216 6.17332C31.726 6.13382 31.7304 6.09419 31.7304 6.05032C31.7392 5.94926 31.7436 5.85257 31.7436 5.75157C31.7436 5.13213 31.6162 4.51269 31.3526 3.93713ZM29.2438 7.62751L29.0681 7.80769C28.3608 8.51057 27.3591 8.73463 26.4628 8.47544C26.0411 8.36126 25.6457 8.13719 25.3162 7.80769L24.1915 6.68301C23.862 6.35351 23.6336 5.95369 23.5149 5.53638C23.2601 4.64013 23.4842 3.63407 24.1915 2.93113L24.3673 2.75107C24.7099 2.41276 25.1273 2.17988 25.5623 2.07007C26.4453 1.83282 27.4294 2.06126 28.1192 2.75107L28.6859 3.31776L29.2439 3.88013C29.424 4.06026 29.5734 4.25794 29.6876 4.47319C29.7843 4.64013 29.859 4.82026 29.9117 5.00038C30.0523 5.46607 30.0566 5.96257 29.9293 6.43263C29.8193 6.87188 29.5864 7.28488 29.2438 7.62751Z" fill="#3D4544"/>
<path d="M30.7333 19.4149C30.5444 19.819 30.3379 20.2145 30.1094 20.6011C29.7667 21.1854 29.3757 21.7478 28.9364 22.2838C28.642 22.6396 28.3301 22.9867 27.9962 23.3206C27.8293 23.4919 27.658 23.6544 27.4866 23.8038C26.6211 24.5858 25.6854 25.2361 24.6925 25.7588C22.3464 26.9934 19.7104 27.4986 17.1315 27.2701C16.991 27.2569 16.8548 27.2438 16.7142 27.2218C16.6614 27.2218 16.6087 27.213 16.5604 27.2043C16.433 27.1911 16.31 27.1735 16.187 27.1515C16.0904 27.1384 15.998 27.1208 15.9059 27.1032C15.7872 27.0856 15.6686 27.0637 15.5544 27.0329C15.4929 27.0286 15.4314 27.0154 15.3742 26.9934C15.2292 26.967 15.0843 26.9319 14.9437 26.8923C14.0825 26.6771 13.2435 26.3739 12.435 25.9829C12.3032 25.9214 12.167 25.8555 12.0353 25.7852C11.9957 25.7676 11.9562 25.7457 11.921 25.7237C11.7629 25.6402 11.6091 25.5523 11.451 25.4645C11.407 25.4381 11.3675 25.4162 11.328 25.3854C11.1962 25.3107 11.0644 25.2316 10.937 25.1438C10.8799 25.113 10.8227 25.0735 10.7656 25.0296C10.5942 24.9198 10.4273 24.8011 10.2604 24.6781C10.0759 24.5463 9.89135 24.4057 9.71117 24.2563C9.70679 24.2519 9.69798 24.2475 9.6936 24.2431V24.2388C9.34654 23.9576 9.00385 23.6501 8.67873 23.3206H8.67435C8.34923 22.9954 8.04173 22.6572 7.76054 22.3058H7.75617C3.36292 16.9414 3.66604 9.0115 8.67441 3.99875C12.7339 -0.0563111 18.7044 -1.02725 23.6776 1.08594C24.3278 1.35394 24.956 1.68344 25.5624 2.07006C26.4279 2.60163 27.245 3.24744 27.9962 3.99875V4.00306C28.1676 4.17006 28.3257 4.33694 28.4795 4.50838C28.6114 4.64894 28.7344 4.79388 28.8574 4.94331C28.9189 5.01794 28.9804 5.09269 29.0419 5.17175C29.2835 5.47488 29.5075 5.78675 29.7184 6.10306C29.7887 6.2085 29.859 6.31394 29.9249 6.42375C29.9337 6.42813 29.9337 6.42813 29.9293 6.43256C30.3159 7.03888 30.641 7.66713 30.9134 8.31731V8.32169C31.0057 8.53256 31.0892 8.739 31.1639 8.95431C31.1682 8.95869 31.1682 8.96313 31.1682 8.9675C31.2473 9.18275 31.322 9.398 31.3879 9.61769C31.4319 9.75831 31.4758 9.90325 31.5109 10.0483C31.546 10.1581 31.5724 10.2679 31.5988 10.3778C31.6471 10.5711 31.691 10.76 31.7262 10.9533C31.7745 11.1774 31.8141 11.3971 31.8449 11.6255C31.8712 11.7968 31.8932 11.9682 31.9108 12.1439C32.1919 14.6042 31.7965 17.1259 30.7333 19.4149Z" fill="#3D4544"/>
<g opacity="0.2">
<path d="M15.3564 2.31075C15.2589 2.21325 15.1885 2.08662 15.16 1.94106C15.0838 1.55175 15.3377 1.17425 15.7271 1.09819C17.6634 0.719311 19.6229 0.738436 21.5511 1.15512C21.9389 1.23894 22.1854 1.62112 22.1016 2.00894C22.0178 2.39662 21.6356 2.64319 21.2477 2.55937C19.5112 2.18425 17.7467 2.167 16.0029 2.50819C15.7591 2.55594 15.5199 2.47419 15.3564 2.31075Z" fill="white"/>
</g>
<path opacity="0.2" d="M10.4224 23.5096L9.69311 24.2388V24.2432L9.05611 24.8758C8.70467 24.5903 8.36636 24.2828 8.04123 23.9577C7.71173 23.6325 7.40861 23.2899 7.12305 22.9428L7.75567 22.3058H7.76005L8.48498 21.5765C8.49817 21.5677 8.50692 21.5545 8.52017 21.5457C9.05173 21.0449 9.89967 21.0581 10.4225 21.5765C10.954 22.1081 10.954 22.978 10.4224 23.5096Z" fill="#3D4544"/>
<path d="M18.413 23.117C23.6774 23.117 27.9451 18.8493 27.9451 13.5849C27.9451 8.32041 23.6774 4.05273 18.413 4.05273C13.1485 4.05273 8.88086 8.32041 8.88086 13.5849C8.88086 18.8493 13.1485 23.117 18.413 23.117Z" fill="#606060" stroke="#7F7F7F" stroke-width="3" stroke-miterlimit="10"/>
<path d="M8.52496 25.9655C8.51621 25.9128 8.50739 25.86 8.49421 25.8074C8.46783 25.7151 8.43271 25.6316 8.38877 25.5481V25.5437C8.33602 25.4515 8.27458 25.3681 8.19546 25.2889L7.45302 24.5464L6.70614 23.7996C6.63146 23.725 6.54796 23.6591 6.45571 23.6107C6.02077 23.3647 5.45402 23.4262 5.08058 23.7996L0.0854567 28.7992C0.0635192 28.8212 0.0458942 28.8475 0.0327692 28.8739C-0.0243558 28.9793 -0.00679331 29.1155 0.0854567 29.2034L2.79614 31.914C2.88839 32.0019 3.02021 32.0194 3.12564 31.9667C3.15202 31.9579 3.17839 31.9404 3.20033 31.914L8.19552 26.9144C8.25264 26.8572 8.30096 26.8002 8.34489 26.7343C8.47227 26.5454 8.53383 26.3213 8.53383 26.1016C8.53377 26.0577 8.52939 26.0094 8.52496 25.9655ZM2.94989 29.9634C2.69946 30.2183 2.28652 30.2183 2.03608 29.9634H2.03171C1.78127 29.713 1.78127 29.3001 2.03171 29.0496L2.64239 28.439C2.89283 28.1886 3.30577 28.1886 3.55621 28.439C3.80664 28.6938 3.80664 29.1024 3.55621 29.3572L2.94989 29.9634Z" fill="#3D4544"/>
<path d="M23.3524 13.4949C24.7045 14.8469 23.5092 17.5315 21.7848 18.3154C20.0604 19.0992 17.7873 20.4317 15.8278 17.5315C13.8683 14.6314 12.6141 11.5354 13.7899 10.0461C14.9656 8.55686 16.8468 8.98798 19.0414 8.83117C21.2361 8.67442 22.1767 7.73386 23.1173 9.92855C24.0579 12.1232 23.3524 13.4949 23.3524 13.4949Z" fill="#F4F4F5"/>
<path opacity="0.2" d="M21.7851 18.2481C20.6473 18.7641 19.2717 19.52 17.9043 19.1421C19.0065 19.139 20.0834 18.564 21.0059 18.1455C22.7299 17.3622 23.9256 14.6771 22.5734 13.325C22.5734 13.325 23.2785 11.9535 22.3377 9.75908C22.0065 8.98702 21.6764 8.60402 21.2903 8.4374C22.0522 8.38052 22.5856 8.61721 23.1179 9.86071C24.0577 12.0561 23.3526 13.4276 23.3526 13.4276C24.7049 14.7798 23.5091 17.4648 21.7851 18.2481Z" fill="#C4C4C4"/>
<path d="M18.9734 15.0494C20.148 15.0494 21.1002 14.0972 21.1002 12.9226C21.1002 11.7481 20.148 10.7959 18.9734 10.7959C17.7989 10.7959 16.8467 11.7481 16.8467 12.9226C16.8467 14.0972 17.7989 15.0494 18.9734 15.0494Z" fill="#D9CB43"/>
<path d="M19.0959 12.894C19.5432 12.894 19.9058 12.5315 19.9058 12.0842C19.9058 11.637 19.5432 11.2744 19.0959 11.2744C18.6487 11.2744 18.2861 11.637 18.2861 12.0842C18.2861 12.5315 18.6487 12.894 19.0959 12.894Z" fill="#E7DB8B"/>
<path opacity="0.1" d="M30.914 8.31624C32.1521 6.60662 32.0064 4.19899 30.4671 2.65968L29.9041 2.09668L28.685 3.3158L29.2481 3.8788C29.9371 4.5678 30.1562 5.5423 29.9269 6.42349C29.3886 5.56318 28.7492 4.74805 28.001 3.99987L3.56001 28.4407C3.81145 28.6922 3.81145 29.1036 3.56001 29.3551L2.95045 29.9646C2.69901 30.2161 2.28757 30.2161 2.03613 29.9646L1.44238 30.5584L2.79695 31.9129C2.9087 32.0246 3.09151 32.0246 3.20332 31.9129L8.20038 26.9159C8.57001 26.5462 8.62901 25.9842 8.38738 25.5472L9.05857 24.8759L9.69351 24.241C15.0604 28.6377 22.9916 28.3319 28.001 23.3224C32.0583 19.2652 33.027 13.2922 30.914 8.31624Z" fill="#040000"/>
</g>
<defs>
<clipPath id="clip0_2147_6356">
<rect width="32" height="32" fill="white"/>
</clipPath>
</defs>
</svg>
