<svg width="26" height="27" viewBox="0 0 26 27" fill="none" xmlns="http://www.w3.org/2000/svg">
<path fill-rule="evenodd" clip-rule="evenodd" d="M16.3335 0.00571822C13.4752 -0.133115 11.4773 2.27605 12.0595 5.05913L12.1026 5.26155C12.2 5.70897 12.5646 6.11788 13.1135 6.14472C15.9719 6.28355 17.9698 3.8738 17.3876 1.0913L17.3445 0.888302C17.2465 0.441468 16.8819 0.0325516 16.3335 0.00571822ZM24.4104 2.47497C24.6606 2.55338 24.8901 2.68704 25.0817 2.86606C25.2734 3.04509 25.4224 3.2649 25.5176 3.50925C25.6129 3.7536 25.652 4.01624 25.6321 4.27774C25.6122 4.53925 25.5338 4.79294 25.4026 5.02005L25.2451 5.29247C24.131 7.22213 21.7253 8.15955 19.5985 7.49397L19.2986 7.40005C19.0484 7.32157 18.819 7.18787 18.6274 7.00881C18.4359 6.82976 18.287 6.60994 18.1917 6.3656C18.0965 6.12126 18.0575 5.85864 18.0774 5.59717C18.0974 5.33569 18.1758 5.08204 18.307 4.85497L18.4639 4.58255C19.578 2.65288 21.9837 1.71547 24.1105 2.38105L24.4104 2.47497ZM16.2402 9.84655C18.2498 8.14438 21.2948 8.62738 22.7368 10.8161L22.8418 10.9765C23.0897 11.3603 23.1043 11.9186 22.6691 12.2866C20.6595 13.9888 17.6151 13.5058 16.1725 11.3171L16.0675 11.1567C15.819 10.7729 15.805 10.2146 16.2402 9.84655ZM10.9844 13.8401C13.141 11.9471 16.3843 12.3123 17.8735 14.6801L17.9809 14.8516C18.2375 15.2681 18.209 15.8286 17.7872 16.1991C15.6306 18.0926 12.3873 17.7274 10.898 15.3591L10.7907 15.1876C10.534 14.7711 10.5626 14.2105 10.9844 13.8401ZM9.6188 3.55063C9.2373 3.13238 8.67263 3.11022 8.25088 3.3278L8.05488 3.42988C5.38671 4.83397 4.7678 8.09188 6.81121 10.3342C7.19271 10.7525 7.75796 10.7746 8.17913 10.5571L8.37571 10.4544C11.0439 9.05089 11.6628 5.79238 9.6188 3.55063ZM3.24938 8.12572C5.94321 9.62605 6.39938 12.9662 4.28071 15.1817L4.12438 15.3445C3.79013 15.6881 3.24238 15.8479 2.74363 15.5696C0.0497981 14.0687 -0.406369 10.7291 1.7123 8.51363L1.86863 8.35147C2.2023 8.0073 2.75005 7.84747 3.2488 8.12572M13.9156 19.3986C12.2502 16.8256 8.89488 16.4977 6.81238 18.7716C6.4268 19.1927 6.45538 19.7626 6.71263 20.1669C6.74958 20.2252 6.79021 20.2884 6.83455 20.3565C8.50055 22.9301 11.8553 23.258 13.9384 20.9841C14.3234 20.563 14.2948 19.9925 14.0375 19.5888C14.0006 19.5305 13.96 19.4667 13.9156 19.3986ZM16.3738 8.5708C16.5033 8.48899 16.6155 8.38246 16.7039 8.2573C16.7922 8.13215 16.8551 7.99081 16.8888 7.84136C16.9226 7.69191 16.9266 7.53728 16.9005 7.38629C16.8745 7.23531 16.819 7.09092 16.7372 6.96138C16.6554 6.83185 16.5489 6.71969 16.4237 6.63132C16.2986 6.54295 16.1572 6.4801 16.0078 6.44636C15.8583 6.41261 15.7037 6.40863 15.5527 6.43464C15.4017 6.46066 15.2573 6.51615 15.1278 6.59797C11.8678 8.66097 8.9379 11.2044 6.4373 14.1422C4.10163 16.8798 2.51438 19.5042 1.5093 21.4491C1.11156 22.2151 0.746071 22.9974 0.413798 23.7941C0.288973 24.098 0.172457 24.4054 0.0643814 24.7157C-0.149119 25.3235 0.186881 25.9862 0.798798 26.1904C1.40955 26.394 2.06346 26.0609 2.27813 25.4536C2.36835 25.1958 2.46558 24.9397 2.5698 24.6854C2.78155 24.1732 3.1123 23.4289 3.58188 22.52C4.86055 20.0639 6.414 17.7609 8.21238 15.6554C10.5608 12.8959 13.3125 10.5068 16.3744 8.56905" fill="#BEBEBE"/>
</svg>
