<svg width="32" height="32" viewBox="0 0 32 32" fill="none" xmlns="http://www.w3.org/2000/svg">
<g clip-path="url(#clip0_2147_3146)">
<path d="M20.001 25.3304V26.6638C20.001 27.371 19.7201 28.0493 19.22 28.5494C18.7199 29.0495 18.0416 29.3304 17.3344 29.3304H14.6677C13.9605 29.3304 13.2822 29.0495 12.7821 28.5494C12.282 28.0493 12.001 27.371 12.001 26.6638V25.3304H20.001ZM6.66769 23.9971C5.48103 23.9971 4.88503 22.5611 5.72503 21.7211L9.53169 17.9118L7.57969 17.2624C7.37699 17.195 7.19345 17.0799 7.04454 16.9267C6.89563 16.7735 6.78571 16.5868 6.72402 16.3823C6.66234 16.1778 6.6507 15.9614 6.69009 15.7514C6.72948 15.5415 6.81874 15.344 6.95036 15.1758L7.05703 15.0544L11.0824 11.0278L10.0717 10.5224C9.89545 10.4343 9.74093 10.3082 9.61927 10.1531C9.49761 9.9981 9.41182 9.81803 9.36809 9.62588C9.32435 9.43372 9.32376 9.23427 9.36634 9.04185C9.40892 8.84944 9.49363 8.66886 9.61436 8.51311L9.72503 8.38778L15.0584 3.05444C15.3084 2.80448 15.6475 2.66406 16.001 2.66406C16.3546 2.66406 16.6937 2.80448 16.9437 3.05444L22.277 8.38778C22.4263 8.53718 22.5379 8.71989 22.6027 8.92088C22.6675 9.12186 22.6836 9.33536 22.6498 9.5438C22.6159 9.75224 22.5331 9.94966 22.408 10.1198C22.2829 10.2899 22.1192 10.4279 21.9304 10.5224L20.9184 11.0278L24.945 15.0544C25.0959 15.2055 25.2082 15.3906 25.2727 15.5942C25.3371 15.7977 25.3517 16.0138 25.3152 16.2242C25.2788 16.4345 25.1923 16.6331 25.0632 16.8031C24.934 16.9731 24.7659 17.1096 24.573 17.2011L24.4224 17.2624L22.469 17.9118L26.277 21.7211C27.081 22.5238 26.5704 23.8731 25.4864 23.9891L25.3344 23.9971H6.66769Z" fill="#34C759"/>
</g>
<defs>
<clipPath id="clip0_2147_3146">
<rect width="32" height="32" fill="white"/>
</clipPath>
</defs>
</svg>
