<svg width="32" height="32" viewBox="0 0 32 32" fill="none" xmlns="http://www.w3.org/2000/svg">
<g clip-path="url(#clip0_2147_2288)">
<path d="M25.1143 16.0303C25.1158 18.1775 24.3594 20.2564 22.9784 21.9006C21.5974 23.5449 19.6804 24.649 17.5652 25.0185C15.45 25.388 13.2723 24.9991 11.4156 23.9205C9.559 22.8418 8.14261 21.1425 7.416 19.1219L2.19702 23.297C3.81983 26.3819 6.42946 28.834 9.60921 30.262C12.789 31.6899 16.3555 32.0112 19.7392 31.1746C23.123 30.3381 26.1289 28.3918 28.277 25.6467C30.4251 22.9016 31.5914 19.5159 31.5898 16.0303" fill="#00AC47"/>
<path d="M25.1147 16.0303C25.1135 17.482 24.7654 18.9123 24.0995 20.2023C23.4336 21.4922 22.4691 22.6044 21.2864 23.4461L26.446 27.5738C28.0639 26.1171 29.3578 24.3369 30.244 22.3483C31.1301 20.3598 31.5887 18.2073 31.5901 16.0303" fill="#4285F4"/>
<path d="M6.86534 16.0299C6.8676 14.9752 7.05394 13.929 7.41599 12.9383L2.19701 8.76318C1.01034 11.0015 0.389893 13.4965 0.389893 16.0299C0.389893 18.5634 1.01034 21.0583 2.19701 23.2967L7.41599 19.1216C7.05394 18.1309 6.8676 17.0847 6.86534 16.0299Z" fill="#FFBA00"/>
<path d="M15.9898 6.90564C17.9205 6.90618 19.8006 7.52317 21.3562 8.66673L26.1363 4.20538C24.3619 2.67547 22.2648 1.56605 20.0017 0.959907C17.7386 0.35376 15.3678 0.266539 13.0662 0.704753C10.7647 1.14297 8.59179 2.0953 6.70975 3.49068C4.82771 4.88607 3.28509 6.68847 2.19702 8.76339L7.416 12.9385C8.05249 11.1741 9.2169 9.64851 10.7509 8.56911C12.2849 7.48972 14.1141 6.90891 15.9898 6.90564Z" fill="#EA4435"/>
<path d="M31.5899 14.8526V16.03L28.9408 20.1508H16.5786V13.6753H30.4125C30.7248 13.6753 31.0242 13.7993 31.245 14.0201C31.4658 14.2409 31.5899 14.5404 31.5899 14.8526Z" fill="#4285F4"/>
</g>
<defs>
<clipPath id="clip0_2147_2288">
<rect width="32" height="32" fill="white"/>
</clipPath>
</defs>
</svg>
