<svg width="32" height="32" viewBox="0 0 32 32" fill="none" xmlns="http://www.w3.org/2000/svg">
<g clip-path="url(#clip0_2147_8967)">
<path d="M3.64453 4.56543C3.70347 11.3494 9.22023 16.8308 16.0181 16.8308C22.816 16.8308 28.3327 11.3494 28.3916 4.56543H3.64453Z" fill="#FEA921"/>
<path d="M26.6091 4.56543C26.5527 11.0502 21.5092 16.3443 15.127 16.7986C15.4215 16.8196 15.7186 16.8308 16.0184 16.8308C22.8163 16.8308 28.333 11.3494 28.392 4.56543H26.6091Z" fill="#E58200"/>
<path d="M29.4472 2.7041H2.58902C2.07489 2.7041 1.6582 3.12085 1.6582 3.63492C1.6582 4.14904 2.07495 4.56573 2.58902 4.56573H29.4472C29.9613 4.56573 30.378 4.14898 30.378 3.63492C30.3781 3.12079 29.9613 2.7041 29.4472 2.7041Z" fill="#FEA921"/>
<path d="M6.93387 0.553711C5.75099 0.553711 4.79199 1.51265 4.79199 2.69559H9.07575C9.07575 1.51259 8.11675 0.553711 6.93387 0.553711Z" fill="#FB0125"/>
<path d="M13.0882 0.553711C11.9053 0.553711 10.9463 1.51265 10.9463 2.69559H15.23C15.23 1.51259 14.271 0.553711 13.0882 0.553711Z" fill="#FB0125"/>
<path d="M19.2434 0.553711C18.0606 0.553711 17.1016 1.51265 17.1016 2.69559H21.3853C21.3853 1.51259 20.4264 0.553711 19.2434 0.553711Z" fill="#FB0125"/>
<path d="M25.3977 0.553711C24.2149 0.553711 23.2559 1.51265 23.2559 2.69559H27.5396C27.5396 1.51259 26.5806 0.553711 25.3977 0.553711Z" fill="#FB0125"/>
<path d="M25.3983 0.553711C25.08 0.553711 24.7783 0.623649 24.5068 0.748086C25.2446 1.08634 25.7572 1.83084 25.7572 2.69559H27.54C27.5402 1.51259 26.5812 0.553711 25.3983 0.553711Z" fill="#CC111E"/>
<path d="M19.244 0.553711C18.9257 0.553711 18.624 0.623649 18.3525 0.748086C19.0903 1.08634 19.6029 1.83084 19.6029 2.69559H21.3857C21.3859 1.51259 20.4269 0.553711 19.244 0.553711Z" fill="#CC111E"/>
<path d="M13.0887 0.553711C12.7705 0.553711 12.4688 0.623649 12.1973 0.748086C12.935 1.08634 13.4476 1.83084 13.4476 2.69559H15.2305C15.2306 1.51259 14.2716 0.553711 13.0887 0.553711Z" fill="#CC111E"/>
<path d="M6.93441 0.553711C6.61616 0.553711 6.31447 0.623649 6.04297 0.748086C6.78072 1.08634 7.29335 1.83084 7.29335 2.69559H9.07616C9.07629 1.51259 8.11729 0.553711 6.93441 0.553711Z" fill="#CC111E"/>
<path d="M28.6108 4.56586H29.4471C29.9376 4.56586 30.3384 4.18635 30.3744 3.70517L30.3738 3.55304C30.3323 3.07741 29.9336 2.7041 29.4471 2.7041H28.5986L28.6108 4.56586Z" fill="#E58200"/>
<path d="M3.78459 6.32136H27.381V4.56592H3.64453C3.64972 5.16217 3.69797 5.74811 3.78459 6.32136Z" fill="#E58200"/>
<path d="M10.8317 9.65312C10.3228 9.14831 9.87604 8.59712 9.49542 8.00912C9.25098 7.63149 8.82641 7.40918 8.37648 7.40918H8.25898C7.25172 7.40918 6.61691 8.48631 7.09697 9.37187C7.54929 10.2063 8.12666 10.9789 8.81904 11.6657C9.83223 12.6708 11.0272 13.4276 12.329 13.9059C13.193 14.2233 14.1092 13.5813 14.1092 12.6608C14.1092 12.1553 13.8202 11.6967 13.3675 11.4716C12.4421 11.0115 11.5863 10.4016 10.8317 9.65312Z" fill="#FCB349"/>
<path d="M31.2326 6.24095H28.8238C28.8747 5.87064 28.9097 5.49664 28.9287 5.11964H29.4473C30.266 5.11964 30.9321 4.45351 30.9321 3.63482C30.9321 2.81613 30.266 2.15 29.4473 2.15H28.0383C27.7852 0.924314 26.6976 0 25.3981 0C24.0986 0 23.0109 0.924314 22.7579 2.15H21.8835C21.6304 0.924314 20.5427 0 19.2432 0C17.9437 0 16.8561 0.924314 16.603 2.15H15.7287C15.4757 0.924314 14.388 0 13.0885 0C11.789 0 10.7013 0.924314 10.4483 2.15H9.57391C9.32085 0.924314 8.23322 0 6.93372 0C5.63421 0 4.54659 0.924314 4.29352 2.15H2.58902C1.77033 2.15 1.1042 2.81613 1.1042 3.63482C1.1042 4.45351 1.77033 5.11964 2.58902 5.11964H3.10765C3.12665 5.4967 3.16165 5.8707 3.21252 6.24095H0.766829C0.460891 6.24095 0.212891 6.48895 0.212891 6.79489C0.212891 7.10083 0.460891 7.34883 0.766829 7.34883H3.41396C3.95246 9.71539 5.1504 11.8861 6.91415 13.6357C7.55097 14.2673 8.24247 14.8241 8.97728 15.3032L7.1144 21.7067C7.10503 21.7269 7.0964 21.7476 7.08928 21.7692C7.07828 21.8029 7.07103 21.8368 7.06665 21.8707L4.48715 30.7373C4.40171 31.0311 4.57052 31.3385 4.86427 31.4239C4.91596 31.4389 4.96803 31.4461 5.01928 31.4461C5.25934 31.4461 5.48053 31.2888 5.5509 31.0467L7.99447 22.6472L15.4641 25.0851V31.4459C15.4641 31.7519 15.7121 31.9999 16.018 31.9999C16.324 31.9999 16.572 31.7519 16.572 31.4459V25.1056L24.0544 22.6478L26.4979 31.0468C26.5683 31.2889 26.7894 31.4462 27.0295 31.4462C27.0807 31.4462 27.1328 31.439 27.1845 31.4241C27.4783 31.3386 27.6471 31.0312 27.5616 30.7374L24.9822 21.8708C24.9778 21.8367 24.9705 21.8026 24.9594 21.7688C24.9524 21.7472 24.9438 21.7267 24.9345 21.7067L23.0696 15.2962C23.8004 14.8187 24.4884 14.2643 25.1221 13.6356C26.8858 11.8861 28.0838 9.71521 28.6223 7.34876H31.2325C31.5385 7.34876 31.7865 7.10076 31.7865 6.79483C31.7865 6.48889 31.5385 6.24095 31.2326 6.24095ZM25.3981 1.10788C26.0789 1.10788 26.6611 1.53863 26.8863 2.14188H23.9098C24.135 1.53863 24.7173 1.10788 25.3981 1.10788ZM19.2432 1.10788C19.9241 1.10788 20.5063 1.53863 20.7315 2.14188H17.7551C17.9802 1.53863 18.5624 1.10788 19.2432 1.10788ZM13.0885 1.10788C13.7693 1.10788 14.3515 1.53863 14.5767 2.14188H11.6002C11.8255 1.53863 12.4077 1.10788 13.0885 1.10788ZM6.93372 1.10788C7.61453 1.10788 8.19678 1.53863 8.42197 2.14188H5.4454C5.67065 1.53863 6.2529 1.10788 6.93372 1.10788ZM23.7449 21.5835L16.5721 23.9285V21.4289C16.5721 21.123 16.3241 20.875 16.0182 20.875C15.7122 20.875 15.4642 21.123 15.4642 21.4289V23.9199L8.30422 21.5831L9.96185 15.8852C11.6463 16.7805 13.5175 17.2911 15.4642 17.3727V19.379C15.4642 19.685 15.7122 19.933 16.0182 19.933C16.3241 19.933 16.5721 19.685 16.5721 19.379V17.3727C18.5231 17.2909 20.3981 16.7782 22.0854 15.8792L23.7449 21.5835ZM16.5721 16.2638V13.9878C16.5721 13.6818 16.3241 13.4338 16.0182 13.4338C15.7122 13.4338 15.4642 13.6818 15.4642 13.9878V16.2638C9.44191 15.9823 4.55327 11.138 4.2169 5.11957H22.6007C22.9067 5.11957 23.1547 4.87157 23.1547 4.56563C23.1547 4.2597 22.9067 4.0117 22.6007 4.0117H2.58902C2.38121 4.0117 2.21208 3.84257 2.21208 3.63476C2.21208 3.42694 2.38121 3.25782 2.58902 3.25782H29.4472C29.655 3.25782 29.8241 3.42694 29.8241 3.63476C29.8241 3.84257 29.655 4.0117 29.4472 4.0117H24.681C24.3751 4.0117 24.1271 4.2597 24.1271 4.56563C24.1271 4.87157 24.3751 5.11957 24.681 5.11957H27.8193C27.79 5.64332 27.7264 6.15807 27.6304 6.66176C27.6266 6.67695 27.6235 6.69251 27.6211 6.7082C26.5966 11.9703 22.0542 16.0076 16.5721 16.2638Z" fill="#1A1A1A"/>
</g>
<defs>
<clipPath id="clip0_2147_8967">
<rect width="32" height="32" fill="white"/>
</clipPath>
</defs>
</svg>
