<svg width="32" height="32" viewBox="0 0 32 32" fill="none" xmlns="http://www.w3.org/2000/svg">
<g clip-path="url(#clip0_2147_3160)">
<path d="M32 0H0V32H32V0Z" fill="#CB30E0"/>
<path d="M28.0309 15.3405C27.1086 19.7223 23.2207 23.0117 18.5646 23.0117C13.2296 23.0117 8.89062 18.6727 8.89062 13.3377C8.89062 8.68156 12.18 4.79373 16.5618 3.87137C16.7497 3.83182 16.8533 4.08288 16.692 4.187C14.492 5.60657 13.0355 8.07937 13.0355 10.8923C13.0355 15.2982 16.6041 18.8668 21.01 18.8668C23.8229 18.8668 26.2957 17.4103 27.7153 15.2103C27.8194 15.049 28.0705 15.1526 28.0309 15.3405Z" fill="white"/>
<path d="M21.6964 8.22123C19.7835 8.44762 19.6 8.63114 19.3736 10.544C19.1472 8.63114 18.9637 8.44762 17.0508 8.22123C18.9637 7.99484 19.1472 7.81132 19.3736 5.89844C19.6 7.81132 19.7835 7.99484 21.6964 8.22123Z" fill="white"/>
<path d="M7.29402 16.0103C5.38114 16.2367 5.19762 16.4202 4.97123 18.3331C4.74484 16.4202 4.56132 16.2367 2.64844 16.0103C4.56132 15.7839 4.74484 15.6004 4.97123 13.6875C5.19762 15.6004 5.38114 15.7839 7.29402 16.0103Z" fill="white"/>
<path d="M29.3487 23.0494C27.4358 23.2757 27.2523 23.4593 27.0259 25.3721C26.7995 23.4593 26.616 23.2757 24.7031 23.0494C26.616 22.823 26.7995 22.6394 27.0259 20.7266C27.2523 22.6394 27.4358 22.823 29.3487 23.0494Z" fill="white"/>
<path d="M13.6964 25.8072C11.7835 26.0336 11.6 26.2171 11.3736 28.13C11.1472 26.2171 10.9637 26.0336 9.05078 25.8072C10.9637 25.5808 11.1472 25.3973 11.3736 23.4844C11.6 25.3973 11.7835 25.5808 13.6964 25.8072Z" fill="white"/>
<path d="M26.6036 6.92291C25.9208 7.00373 25.8553 7.06924 25.7745 7.75208C25.6937 7.06924 25.6281 7.00373 24.9453 6.92291C25.6281 6.8421 25.6937 6.77659 25.7745 6.09375C25.8553 6.7766 25.9208 6.84211 26.6036 6.92291Z" fill="white"/>
<path d="M20.9943 25.3448C20.3114 25.4256 20.2459 25.4911 20.1651 26.174C20.0843 25.4911 20.0188 25.4256 19.3359 25.3448C20.0188 25.264 20.0843 25.1985 20.1651 24.5156C20.2459 25.1985 20.3114 25.264 20.9943 25.3448Z" fill="white"/>
<path d="M20.109 13.7518C18.8594 13.8997 18.7395 14.0196 18.5916 15.2692C18.4437 14.0196 18.3238 13.8997 17.0742 13.7518C18.3238 13.6039 18.4437 13.484 18.5916 12.2344C18.7395 13.484 18.8594 13.6039 20.109 13.7518Z" fill="white"/>
<path d="M25.5153 12.1346C24.2656 12.2825 24.1457 12.4024 23.9979 13.652C23.85 12.4024 23.7301 12.2825 22.4805 12.1346C23.7301 11.9867 23.85 11.8668 23.9979 10.6172C24.1458 11.8668 24.2656 11.9867 25.5153 12.1346Z" fill="white"/>
<path d="M8.65648 8.90637C7.71705 9.01755 7.62693 9.10768 7.51574 10.0471C7.40456 9.10768 7.31443 9.01755 6.375 8.90637C7.31443 8.7952 7.40456 8.70506 7.51574 7.76562C7.62691 8.70506 7.71705 8.79518 8.65648 8.90637Z" fill="white"/>
<path d="M9.88695 21.2501C8.94752 21.3613 8.8574 21.4514 8.74621 22.3909C8.63503 21.4514 8.5449 21.3613 7.60547 21.2501C8.5449 21.1389 8.63503 21.0488 8.74621 20.1094C8.85738 21.0488 8.94752 21.1389 9.88695 21.2501Z" fill="white"/>
</g>
<defs>
<clipPath id="clip0_2147_3160">
<rect width="32" height="32" rx="8" fill="white"/>
</clipPath>
</defs>
</svg>
