<svg width="32" height="32" viewBox="0 0 32 32" fill="none" xmlns="http://www.w3.org/2000/svg">
<path d="M29.6664 17.8528C29.3781 17.2291 29.1935 16.5626 29.1197 15.8794C29.187 15.2355 29.3534 14.6058 29.6131 14.0128C30.263 12.7826 30.4066 11.3472 30.0131 10.0128C29.33 8.81901 28.2122 7.93528 26.8931 7.5461C26.2864 7.34231 25.7152 7.04543 25.1997 6.6661C24.7608 6.13908 24.4097 5.54481 24.1597 4.9061C23.7471 3.63385 22.8714 2.5631 21.7064 1.9061C20.4106 1.56808 19.035 1.72991 17.8531 2.35944C17.2294 2.64771 16.5629 2.83236 15.8797 2.9061C15.2361 2.8372 14.6067 2.67086 14.0131 2.41277C12.7829 1.76281 11.3475 1.61927 10.0131 2.01277C8.83977 2.69723 7.97185 3.80359 7.5864 5.1061C7.37027 5.71523 7.05982 6.28663 6.6664 6.79944C6.13938 7.23836 5.5451 7.58952 4.9064 7.83944C3.62423 8.24626 2.54313 9.12256 1.87973 10.2928C1.54171 11.5886 1.70354 12.9641 2.33307 14.1461C2.62135 14.7698 2.80599 15.4363 2.87973 16.1194C2.8125 16.7634 2.64608 17.393 2.3864 17.9861C1.73644 19.2162 1.5929 20.6516 1.9864 21.9861C2.66945 23.1799 3.78725 24.0636 5.1064 24.4528C5.71305 24.6566 6.28432 24.9534 6.79974 25.3328C7.23866 25.8598 7.58982 26.4541 7.83974 27.0928C8.25241 28.365 9.12805 29.4358 10.2931 30.0928C10.6677 30.2356 11.0655 30.3079 11.4664 30.3061C12.3878 30.2441 13.2908 30.0183 14.1331 29.6394C14.7568 29.3512 15.4233 29.1665 16.1064 29.0928C16.75 29.1617 17.3794 29.328 17.9731 29.5861C19.2032 30.2361 20.6386 30.3796 21.9731 29.9861C23.1668 29.3031 24.0506 28.1852 24.4397 26.8661C24.6502 26.268 24.9515 25.7058 25.3331 25.1994C25.8601 24.7605 26.4544 24.4094 27.0931 24.1594C28.3653 23.7468 29.4361 22.8711 30.0931 21.7061C30.4393 20.4136 30.287 19.0382 29.6664 17.8528Z" fill="#29B6F6"/>
<path d="M22.7726 17.4269C22.5493 17.1844 22.2586 17.0143 21.9379 16.9382C21.6171 16.8622 21.281 16.8838 20.9726 17.0002C20.2463 17.2571 19.4687 17.3348 18.7059 17.2269C17.7223 17.0785 16.8113 16.6214 16.1043 15.9217C15.3974 15.2219 14.931 14.3156 14.7726 13.3335C14.6657 12.5707 14.7434 11.7934 14.9993 11.0669C15.1326 10.756 15.1674 10.4118 15.099 10.0805C15.0305 9.74927 14.8622 9.44698 14.6165 9.21444C14.3709 8.98189 14.0599 8.83028 13.7254 8.78005C13.3909 8.72982 13.049 8.78339 12.7459 8.93354C11.2246 9.62739 9.96703 10.7925 9.15928 12.2566C8.35153 13.7206 8.03651 15.4058 8.26083 17.0628C8.48515 18.7198 9.23689 20.2605 10.4048 21.4571C11.5728 22.6537 13.0949 23.4425 14.7459 23.7069C15.1606 23.7708 15.5797 23.802 15.9993 23.8002C17.4905 23.8058 18.9513 23.3794 20.2054 22.5726C21.4595 21.7657 22.453 20.6129 23.0659 19.2535C23.2047 18.9545 23.251 18.6208 23.1987 18.2953C23.1464 17.9698 22.998 17.6674 22.7726 17.4269Z" fill="#1565C0"/>
<path d="M21.332 13.666C21.0679 13.6626 20.8155 13.5561 20.6287 13.3693C20.442 13.1825 20.3355 12.9302 20.332 12.666V8.66602C20.332 8.4008 20.4374 8.14645 20.6249 7.95891C20.8125 7.77137 21.0668 7.66602 21.332 7.66602C21.5972 7.66602 21.8516 7.77137 22.0391 7.95891C22.2267 8.14645 22.332 8.4008 22.332 8.66602V12.666C22.3286 12.9302 22.2221 13.1825 22.0353 13.3693C21.8485 13.5561 21.5962 13.6626 21.332 13.666Z" fill="#1565C0"/>
<path d="M23.332 11.666H19.332C19.0668 11.666 18.8125 11.5607 18.6249 11.3731C18.4374 11.1856 18.332 10.9312 18.332 10.666C18.332 10.4008 18.4374 10.1464 18.6249 9.95891C18.8125 9.77137 19.0668 9.66602 19.332 9.66602H23.332C23.5972 9.66602 23.8516 9.77137 24.0391 9.95891C24.2267 10.1464 24.332 10.4008 24.332 10.666C24.332 10.9312 24.2267 11.1856 24.0391 11.3731C23.8516 11.5607 23.5972 11.666 23.332 11.666Z" fill="#1565C0"/>
</svg>
