<svg width="32" height="32" viewBox="0 0 32 32" fill="none" xmlns="http://www.w3.org/2000/svg">
<g clip-path="url(#clip0_2147_8989)">
<path d="M31.6861 24.394C30.6274 24.0182 30.2119 25.1164 29.9368 25.843C29.7472 26.3437 29.5324 26.9112 29.2352 27.0119C29.2302 27.0136 29.2251 27.0154 29.2201 27.0172C28.868 27.1501 28.4163 27.1737 27.7328 26.3412C27.6389 26.2277 27.5439 26.0962 27.4431 25.957C27.3465 25.8235 27.2459 25.6847 27.1374 25.5493C27.1262 25.4737 27.0978 25.3998 27.0491 25.3351L25.7496 23.6095C26.3013 23.0578 26.4874 22.8717 26.4874 22.8717C28.7497 20.6094 28.7498 16.9416 26.4874 14.6792L17.4761 5.66783C15.2138 3.40559 11.546 3.40567 9.28366 5.66792C5.72834 9.22324 5.39054 11.6127 6.90805 13.7632C6.79672 14.2261 6.92008 14.7339 7.28135 15.0952L7.52756 15.3414L6.9832 15.8858C6.63252 15.6679 6.20365 15.5542 5.72004 15.5542C4.49737 15.5542 3.06348 16.2581 1.88436 17.4373C1.01101 18.3106 0.387859 19.3376 0.129702 20.329C-0.146926 21.3914 0.0221855 22.298 0.605942 22.8818C1.00161 23.2774 1.55791 23.4866 2.2147 23.4866C3.43729 23.4866 4.87126 22.7826 6.05046 21.6034C6.92381 20.73 7.54688 19.7031 7.80504 18.7118C8.03201 17.8402 7.9583 17.0739 7.60237 16.5043L8.14631 15.9603L8.39252 16.2065C8.79124 16.6054 9.36847 16.7146 9.86674 16.5376C12.7982 18.691 17.0279 21.0179 21.1272 24.4905C22.1898 25.3907 23.2117 25.7905 24.463 24.8372L26.2222 26.1621C26.303 26.2228 26.3976 26.2532 26.4925 26.2559C26.5555 26.3391 26.6177 26.4247 26.6792 26.5098C26.7842 26.6551 26.8929 26.8054 27.0052 26.941C27.5995 27.6649 28.2262 28.0287 28.8757 28.0287C29.0965 28.0287 29.3201 27.9865 29.5458 27.9022C30.2588 27.6555 30.5562 26.8701 30.8186 26.1769C30.9387 25.8595 31.0629 25.5314 31.1968 25.3559C31.2779 25.2496 31.2957 25.2559 31.3707 25.2826C31.6159 25.3696 31.8855 25.2415 31.9726 24.996C32.0598 24.7506 31.9314 24.4811 31.6861 24.394ZM0.764632 21.4694C0.739129 21.187 0.770732 20.8671 0.861303 20.5195C1.08608 19.6563 1.63933 18.7515 2.41906 17.9718C3.44398 16.9468 4.70884 16.3101 5.72012 16.3101C5.78714 16.3101 5.85136 16.3136 5.91423 16.3191C5.03393 16.8122 3.92717 17.7683 3.07127 18.6241C2.2275 19.468 1.49886 20.3312 1.01974 21.0548C0.921966 21.2024 0.837919 21.3398 0.764632 21.4694ZM3.6058 19.1587C5.05935 17.7052 6.22229 16.9357 6.71572 16.7733C6.56008 17.2298 5.83035 18.3807 4.32902 19.8818C2.872 21.3389 1.70694 22.1087 1.21859 22.2686C1.37355 21.813 2.10329 20.6613 3.6058 19.1587ZM7.07352 18.5212C6.84874 19.3844 6.29557 20.2891 5.51593 21.0687C4.49084 22.0938 3.2259 22.7306 2.2147 22.7306C2.14768 22.7306 2.08346 22.727 2.02051 22.7216C2.90089 22.2285 4.00774 21.2723 4.86355 20.4164C5.70733 19.5727 6.43588 18.7095 6.915 17.9858C7.01269 17.8383 7.09673 17.701 7.17002 17.5714C7.19561 17.8538 7.16401 18.1737 7.07352 18.5212ZM11.2877 7.44155C11.1239 7.59304 10.9692 7.76461 10.8279 7.9516C10.7352 8.0742 10.5942 8.13867 10.4514 8.13867C10.3524 8.13867 10.2525 8.10758 10.1674 8.04327C9.95977 7.88619 9.91867 7.5905 10.0758 7.38284C10.2505 7.15171 10.4429 6.93863 10.6474 6.74935C10.8385 6.57253 11.1368 6.58414 11.3137 6.77527C11.4904 6.96641 11.4788 7.26473 11.2877 7.44155ZM15.9725 7.31167C15.8805 7.40368 15.7598 7.44977 15.6391 7.44977C15.5185 7.44977 15.3978 7.40377 15.3058 7.31175C14.6515 6.65759 13.6373 6.41307 12.6593 6.67344C12.4072 6.74045 12.1494 6.59083 12.0824 6.33919C12.0154 6.08756 12.165 5.82923 12.4166 5.7623C13.7186 5.41535 15.0813 5.75374 15.9725 6.64488C16.1566 6.82899 16.1566 7.12748 15.9725 7.31167ZM22.4032 17.2544C20.2322 15.0835 22.4915 13.7424 22.4915 13.7424L24.7029 15.9537C25.8564 17.1072 26.0792 18.8441 25.3724 20.2238C25.3724 20.2238 24.5738 19.4252 22.4032 17.2544Z" fill="#860000"/>
</g>
<defs>
<clipPath id="clip0_2147_8989">
<rect width="32" height="32" fill="white"/>
</clipPath>
</defs>
</svg>
