<svg width="24" height="24" viewBox="0 0 24 24" fill="none" xmlns="http://www.w3.org/2000/svg">
<path d="M15.535 13.2374H19.3738L12.7351 20.4397C12.6415 20.5413 12.5278 20.6224 12.4012 20.6778C12.2747 20.7333 12.138 20.7619 11.9998 20.7619C11.8616 20.7619 11.725 20.7333 11.5984 20.6778C11.4718 20.6224 11.3582 20.5413 11.2645 20.4397L4.62581 13.2374H6.99981C7.16443 13.2374 7.3265 13.1967 7.47164 13.119C7.61678 13.0413 7.74049 12.929 7.83181 12.7921L8.99981 11.0402L12.1678 15.7921C12.2591 15.929 12.3829 16.0413 12.528 16.119C12.6731 16.1966 12.8352 16.2373 12.9998 16.2373C13.1644 16.2373 13.3265 16.1966 13.4716 16.119C13.6168 16.0413 13.7405 15.929 13.8318 15.7921L15.535 13.2374ZM20.4922 4.74496C19.5269 3.77968 18.2177 3.2374 16.8526 3.2374C15.4875 3.2374 14.1783 3.77968 13.213 4.74496L11.9998 5.95816L10.7866 4.74496C9.88369 3.84187 8.67725 3.30676 7.40178 3.24361C6.1263 3.18046 4.87291 3.59379 3.8852 4.40327C2.89749 5.21274 2.24602 6.36054 2.05742 7.62358C1.86882 8.88661 2.15656 10.1747 2.86471 11.2374H6.46471L8.16781 8.68276C8.2644 8.55318 8.38991 8.44795 8.53436 8.37546C8.67881 8.30297 8.83819 8.26522 8.99981 8.26522C9.16143 8.26522 9.32081 8.30297 9.46526 8.37546C9.6097 8.44795 9.73522 8.55318 9.83181 8.68276L12.9998 13.4347L14.1678 11.6828C14.2591 11.5458 14.3828 11.4334 14.528 11.3557C14.6731 11.278 14.8352 11.2374 14.9998 11.2374H21.1349C21.7945 10.2476 22.0909 9.05993 21.9737 7.87631C21.8566 6.69269 21.333 5.58619 20.4922 4.74496Z" fill="#BEBEBE"/>
</svg>
