<svg width="34" height="25" viewBox="0 0 34 25" fill="none" xmlns="http://www.w3.org/2000/svg">
<path d="M33.7402 11.8856C33.4842 5.27906 27.9942 0 21.3834 0C19.0838 0.000359894 16.8296 0.640772 14.8733 1.84955C12.9169 3.05832 11.3356 4.78774 10.3064 6.84422C9.45098 8.54911 9.00374 10.4296 9 12.337C9.00441 12.6269 8.89923 12.9077 8.70551 13.1233C8.51179 13.3389 8.2438 13.4735 7.95516 13.5C7.80082 13.511 7.64586 13.4901 7.49998 13.4385C7.3541 13.3869 7.22043 13.3058 7.10732 13.2002C6.99421 13.0946 6.9041 12.9669 6.84262 12.8249C6.78114 12.6829 6.74961 12.5297 6.75 12.375C6.74881 10.8015 7.00241 9.23811 7.50094 7.74563C7.53378 7.64993 7.54021 7.54714 7.51954 7.4481C7.49887 7.34905 7.45187 7.25742 7.38349 7.18285C7.3151 7.10828 7.22788 7.05353 7.13099 7.02437C7.0341 6.99522 6.93115 6.99274 6.83297 7.01719C4.88366 7.50304 3.15255 8.62625 1.91458 10.2084C0.676608 11.7906 0.00274144 13.7411 0 15.75C0 20.6986 4.18359 24.75 9.14062 24.75H21.375C23.0408 24.7482 24.6891 24.4105 26.2213 23.757C27.7536 23.1035 29.1383 22.1477 30.2926 20.9467C31.447 19.7458 32.3473 18.3244 32.9396 16.7675C33.532 15.2106 33.8043 13.5502 33.7402 11.8856ZM26.6709 15.4209L22.1709 19.9209C22.0665 20.0255 21.9424 20.1085 21.8058 20.1651C21.6692 20.2217 21.5228 20.2509 21.375 20.2509C21.2272 20.2509 21.0808 20.2217 20.9442 20.1651C20.8076 20.1085 20.6835 20.0255 20.5791 19.9209L16.0791 15.4209C15.868 15.2098 15.7494 14.9235 15.7494 14.625C15.7494 14.3265 15.868 14.0402 16.0791 13.8291C16.2902 13.618 16.5765 13.4994 16.875 13.4994C17.1735 13.4994 17.4598 13.618 17.6709 13.8291L20.25 16.4095V7.875C20.25 7.57663 20.3685 7.29048 20.5795 7.0795C20.7905 6.86853 21.0766 6.75 21.375 6.75C21.6734 6.75 21.9595 6.86853 22.1705 7.0795C22.3815 7.29048 22.5 7.57663 22.5 7.875V16.4095L25.0791 13.8291C25.2902 13.618 25.5765 13.4994 25.875 13.4994C26.1735 13.4994 26.4598 13.618 26.6709 13.8291C26.882 14.0402 27.0006 14.3265 27.0006 14.625C27.0006 14.9235 26.882 15.2098 26.6709 15.4209Z" fill="#C83A2D"/>
</svg>
