<svg width="28" height="28" viewBox="0 0 28 28" fill="none" xmlns="http://www.w3.org/2000/svg">
<g clip-path="url(#clip0_2147_2265)">
<path d="M7.10007 27.901C5.4349 27.8252 4.53033 27.5481 3.92867 27.3135C3.13145 27.0031 2.56308 26.6336 1.96475 26.0361C1.36642 25.4386 0.996107 24.8702 0.687372 24.073C0.4527 23.4713 0.175588 22.5668 0.0998603 20.9016C0.0166434 19.1016 0 18.5615 0 14.0012C0 9.44096 0.0183077 8.90172 0.0990281 7.10007C0.174756 5.4349 0.453532 4.53199 0.68654 3.92867C0.996939 3.13145 1.36725 2.56308 1.96392 1.96392C2.56142 1.36642 3.12979 0.995274 3.92784 0.68654C4.5295 0.451868 5.43407 0.174756 7.09924 0.0990281C8.90005 0.0166434 9.44096 0 13.9996 0C18.5599 0 19.0991 0.0183077 20.9008 0.0990281C22.5659 0.174756 23.4688 0.453532 24.0722 0.68654C24.8694 0.995274 25.4378 1.36642 26.0361 1.96392C26.6344 2.56142 27.0031 3.13062 27.3135 3.92784C27.5481 4.5295 27.8252 5.43407 27.901 7.09924C27.9834 8.90088 28 9.44013 28 14.0004C28 18.559 27.9834 19.0999 27.901 20.9016C27.8252 22.5668 27.5465 23.4713 27.3135 24.073C27.0031 24.8702 26.6336 25.4386 26.0361 26.0361C25.4386 26.6336 24.8694 27.0031 24.0722 27.3135C23.4705 27.5481 22.5659 27.8252 20.9008 27.901C19.1008 27.9834 18.5599 28 13.9996 28C9.44096 28 8.90005 27.9842 7.10007 27.901Z" fill="url(#paint0_radial_2147_2265)"/>
<path d="M7.10007 27.901C5.4349 27.8252 4.53033 27.5481 3.92867 27.3135C3.13145 27.0031 2.56308 26.6336 1.96475 26.0361C1.36642 25.4386 0.996107 24.8702 0.687372 24.073C0.4527 23.4713 0.175588 22.5668 0.0998603 20.9016C0.0166434 19.1016 0 18.5615 0 14.0012C0 9.44096 0.0183077 8.90172 0.0990281 7.10007C0.174756 5.4349 0.453532 4.53199 0.68654 3.92867C0.996939 3.13145 1.36725 2.56308 1.96392 1.96392C2.56142 1.36642 3.12979 0.995274 3.92784 0.68654C4.5295 0.451868 5.43407 0.174756 7.09924 0.0990281C8.90005 0.0166434 9.44096 0 13.9996 0C18.5599 0 19.0991 0.0183077 20.9008 0.0990281C22.5659 0.174756 23.4688 0.453532 24.0722 0.68654C24.8694 0.995274 25.4378 1.36642 26.0361 1.96392C26.6344 2.56142 27.0031 3.13062 27.3135 3.92784C27.5481 4.5295 27.8252 5.43407 27.901 7.09924C27.9834 8.90088 28 9.44013 28 14.0004C28 18.559 27.9834 19.0999 27.901 20.9016C27.8252 22.5668 27.5465 23.4713 27.3135 24.073C27.0031 24.8702 26.6336 25.4386 26.0361 26.0361C25.4386 26.6336 24.8694 27.0031 24.0722 27.3135C23.4705 27.5481 22.5659 27.8252 20.9008 27.901C19.1008 27.9834 18.5599 28 13.9996 28C9.44096 28 8.90005 27.9842 7.10007 27.901Z" fill="url(#paint1_radial_2147_2265)"/>
<path d="M10.5623 14.0598C10.5623 12.1449 12.1142 10.5922 14.0291 10.5922C15.944 10.5922 17.4967 12.1449 17.4967 14.0598C17.4967 15.9747 15.944 17.5275 14.0291 17.5275C12.1142 17.5275 10.5623 15.9747 10.5623 14.0598ZM8.68771 14.0598C8.68771 17.0099 11.079 19.4012 14.0291 19.4012C16.9791 19.4012 19.3704 17.0099 19.3704 14.0598C19.3704 11.1098 16.9791 8.71847 14.0291 8.71847C11.079 8.71847 8.68779 11.1096 8.68779 14.0598M18.3337 8.50668C18.3336 8.75356 18.4067 8.99493 18.5438 9.20026C18.6809 9.40559 18.8758 9.56566 19.1038 9.66023C19.3319 9.7548 19.5828 9.77961 19.825 9.73155C20.0672 9.68348 20.2896 9.56468 20.4643 9.39018C20.6389 9.21568 20.7579 8.99331 20.8061 8.75119C20.8544 8.50908 20.8298 8.25808 20.7354 8.02996C20.641 7.80183 20.4811 7.60682 20.2759 7.46957C20.0707 7.33233 19.8293 7.25903 19.5825 7.25893H19.582C19.251 7.25908 18.9337 7.39057 18.6997 7.62453C18.4656 7.85848 18.334 8.17576 18.3337 8.50668ZM9.82661 22.527C8.81245 22.4808 8.26122 22.3119 7.8949 22.1692C7.40925 21.9801 7.06273 21.7549 6.69841 21.3911C6.33408 21.0273 6.10857 20.6811 5.92033 20.1954C5.77753 19.8293 5.6086 19.2779 5.5625 18.2637C5.51207 17.1672 5.502 16.8379 5.502 14.06C5.502 11.2821 5.5129 10.9537 5.5625 9.85629C5.60868 8.84213 5.77886 8.29182 5.92033 7.92458C6.1094 7.43893 6.33458 7.09241 6.69841 6.72809C7.06223 6.36376 7.40841 6.13825 7.8949 5.95001C8.26105 5.80721 8.81245 5.63828 9.82661 5.59218C10.9231 5.54175 11.2525 5.53168 14.0291 5.53168C16.8057 5.53168 17.1354 5.54241 18.2328 5.59234C19.2469 5.63853 19.7973 5.80871 20.1645 5.95018C20.6501 6.13841 20.9967 6.36443 21.361 6.72825C21.7253 7.09208 21.95 7.43909 22.1391 7.92475C22.2819 8.2909 22.4508 8.8423 22.4969 9.85646C22.5473 10.9538 22.5574 11.2823 22.5574 14.0602C22.5574 16.838 22.5473 17.1665 22.4969 18.2639C22.4507 19.278 22.2809 19.8293 22.1391 20.1956C21.95 20.6812 21.7248 21.0278 21.361 21.3912C20.9972 21.7547 20.6501 21.9803 20.1645 22.1693C19.7983 22.3121 19.2469 22.4811 18.2328 22.5272C17.1363 22.5776 16.8069 22.5877 14.0291 22.5877C11.2512 22.5877 10.9227 22.5776 9.82661 22.5272M9.74049 3.72071C8.63312 3.77114 7.87643 3.94673 7.2156 4.20387C6.53164 4.46941 5.95187 4.82566 5.37293 5.40369C4.79399 5.98171 4.43865 6.56157 4.17311 7.24636C3.91597 7.9076 3.74038 8.66388 3.68995 9.77125C3.63869 10.8804 3.62695 11.2349 3.62695 14.0598C3.62695 16.8847 3.63869 17.2393 3.68995 18.3484C3.74038 19.4559 3.91597 20.2121 4.17311 20.8733C4.43865 21.5573 4.79407 22.1382 5.37293 22.716C5.95178 23.2937 6.53081 23.6495 7.2156 23.9158C7.87767 24.1729 8.63312 24.3485 9.74049 24.399C10.8502 24.4494 11.2042 24.4619 14.0291 24.4619C16.854 24.4619 17.2085 24.4502 18.3177 24.399C19.4251 24.3485 20.1813 24.1729 20.8425 23.9158C21.5265 23.6495 22.1063 23.294 22.6852 22.716C23.2642 22.1379 23.6187 21.5573 23.885 20.8733C24.1422 20.2121 24.3186 19.4558 24.3682 18.3484C24.4186 17.2385 24.4304 16.8847 24.4304 14.0598C24.4304 11.2349 24.4186 10.8804 24.3682 9.77125C24.3178 8.6638 24.1422 7.90719 23.885 7.24636C23.6187 6.5624 23.2632 5.98263 22.6852 5.40369C22.1072 4.82475 21.5265 4.46941 20.8434 4.20387C20.1813 3.94673 19.425 3.77031 18.3185 3.72071C17.2092 3.67003 16.8548 3.65771 14.0303 3.65771C11.2059 3.65771 10.8506 3.66945 9.7409 3.72071" fill="white"/>
</g>
<defs>
<radialGradient id="paint0_radial_2147_2265" cx="0" cy="0" r="1" gradientUnits="userSpaceOnUse" gradientTransform="translate(1.81213 27.3866) scale(35.5496)">
<stop offset="0.09" stop-color="#FA8F21"/>
<stop offset="0.78" stop-color="#D82D7E"/>
</radialGradient>
<radialGradient id="paint1_radial_2147_2265" cx="0" cy="0" r="1" gradientUnits="userSpaceOnUse" gradientTransform="translate(19.3946 26.4875) scale(31.284)">
<stop offset="0.64" stop-color="#8C3AAA" stop-opacity="0"/>
<stop offset="1" stop-color="#8C3AAA"/>
</radialGradient>
<clipPath id="clip0_2147_2265">
<rect width="28" height="28" fill="white"/>
</clipPath>
</defs>
</svg>
