<svg width="32" height="32" viewBox="0 0 32 32" fill="none" xmlns="http://www.w3.org/2000/svg">
<g clip-path="url(#clip0_2147_3186)">
<path d="M23.7333 18.72C24.0128 17.6293 24.6383 16.6585 25.516 15.9533C27.1093 14.64 27.9373 12.9067 28 10.7507C27.9373 8.844 27.28 7.24933 26.0307 5.96933C24.7507 4.71867 23.156 4.06267 21.2507 4C19.0933 4.06267 17.36 4.89067 16.0467 6.484C15.2973 7.39067 14.3747 7.984 13.2813 8.26533C12.0307 8.516 10.844 8.90533 9.71867 9.43867C8.59333 9.96933 7.64 10.6093 6.86 11.3587C4.95333 13.36 4 15.6573 4 18.2507C4 20.8453 4.95333 23.1413 6.86 25.1413C8.86 27.0467 11.156 28 13.7507 28C16.344 28 18.64 27.0467 20.64 25.14C21.3907 24.36 22.0467 23.4067 22.6093 22.2813C23.14 21.156 23.516 19.984 23.7347 18.7653V18.7187L23.7333 18.72Z" fill="#319F2D" stroke="#319F2D" stroke-width="2" stroke-linecap="round" stroke-linejoin="round"/>
<path d="M14.4917 13.3837C13.2357 13.533 12.0997 14.101 11.0837 15.0877C10.0971 16.1037 9.52908 17.2397 9.37975 18.4957C9.19975 19.7223 9.52908 20.7677 10.3664 21.6343C11.2331 22.4717 12.2797 22.801 13.5051 22.621C14.7611 22.4717 15.8971 21.9037 16.9131 20.917C17.8997 19.901 18.4677 18.765 18.6171 17.509C18.7971 16.2823 18.4677 15.237 17.6304 14.3703C16.7637 13.533 15.7171 13.2037 14.4917 13.3837Z" fill="#3F3F3F" stroke="#E9E9E9" stroke-width="2" stroke-linecap="round" stroke-linejoin="round"/>
</g>
<defs>
<clipPath id="clip0_2147_3186">
<rect width="32" height="32" fill="white"/>
</clipPath>
</defs>
</svg>
