<svg width="32" height="32" viewBox="0 0 32 32" fill="none" xmlns="http://www.w3.org/2000/svg">
<g clip-path="url(#clip0_2147_8849)">
<path d="M27.3037 20.6473C27.0699 20.6473 26.8573 20.4891 26.7979 20.2521C26.728 19.9725 26.898 19.6892 27.1775 19.6193L31.3514 18.5753C31.6309 18.5053 31.9141 18.6754 31.9841 18.9548C32.0541 19.2344 31.8841 19.5177 31.6046 19.5876L27.4307 20.6316C27.3882 20.6421 27.3456 20.6473 27.3037 20.6473Z" fill="#414D53"/>
<path d="M4.69589 20.6474C4.6412 20.6474 4.58558 20.6387 4.53083 20.6204L0.356892 19.2291C0.083517 19.138 -0.0641705 18.8425 0.026892 18.5692C0.118017 18.2959 0.413517 18.1483 0.68683 18.2392L4.8607 19.6306C5.13408 19.7217 5.28177 20.0172 5.1907 20.2905C5.11783 20.5091 4.91433 20.6474 4.69589 20.6474Z" fill="#414D53"/>
<path d="M14.6093 8.47363C14.4245 8.47363 14.2455 8.37525 14.1508 8.20163C13.8764 7.69857 13.5654 7.12825 13.5654 6.03875C13.5654 4.94919 13.8764 4.37894 14.1509 3.87575C14.3966 3.42507 14.6089 3.03594 14.6089 2.21238C14.6089 1.38894 14.3966 0.999879 14.1509 0.549316L15.0667 0.0493164L14.6087 0.299191L15.0669 0.0495664C15.3413 0.552629 15.6524 1.12288 15.6524 2.21238C15.6524 3.30194 15.3414 3.87219 15.0669 4.37538C14.8212 4.82607 14.6089 5.21519 14.6089 6.03875C14.6089 6.86225 14.8212 7.2515 15.0669 7.70207C15.2049 7.95507 15.1117 8.27194 14.8587 8.40988C14.7793 8.45307 14.6937 8.47363 14.6093 8.47363Z" fill="#FFE2C4"/>
<path d="M17.3915 8.47363C17.2067 8.47363 17.0277 8.37525 16.933 8.20163C16.6587 7.69857 16.3477 7.12825 16.3477 6.03875C16.3477 4.94919 16.6587 4.37894 16.9331 3.87575C17.1788 3.42507 17.3911 3.03594 17.3911 2.21238C17.3911 1.38894 17.1788 0.999879 16.9331 0.549316L17.849 0.0493164L17.391 0.299191L17.8491 0.0495664C18.1235 0.552629 18.4346 1.12288 18.4346 2.21238C18.4346 3.30194 18.1236 3.87219 17.8492 4.37538C17.6034 4.82607 17.3912 5.21519 17.3912 6.03875C17.3912 6.86225 17.6034 7.2515 17.8492 7.70207C17.9871 7.95507 17.8939 8.27194 17.6409 8.40988C17.5615 8.45307 17.4759 8.47363 17.3915 8.47363Z" fill="#FFE2C4"/>
<path d="M16.522 11.0825H15.4785V14.5608H16.522V11.0825Z" fill="#414D53"/>
<path d="M17.0433 11.604H14.9563C14.6682 11.604 14.4346 11.3705 14.4346 11.0823C14.4346 10.7941 14.6682 10.5605 14.9563 10.5605H17.0433C17.3314 10.5605 17.565 10.794 17.565 11.0823C17.565 11.3705 17.3314 11.604 17.0433 11.604Z" fill="#57676E"/>
<path d="M25.5655 13.1689H23.4785L25.5655 16.6472H27.6524V15.2559C27.6524 14.1081 26.7133 13.1689 25.5655 13.1689Z" fill="#74C8EE"/>
<path d="M23.478 13.1689H6.43459C5.28678 13.1689 4.34766 14.1081 4.34766 15.2559V16.6472H25.5648V15.2559C25.5649 14.1081 24.6258 13.1689 23.478 13.1689Z" fill="#AEE6FF"/>
<path d="M4.34766 16.6475V18.7344L25.5648 31.9511C26.7127 31.9511 27.6518 31.012 27.6518 29.8642V16.6475H4.34766Z" fill="#3AAADC"/>
<path d="M4.34766 18.7344V29.8642C4.34766 31.012 5.28678 31.9511 6.43459 31.9511H25.5648V18.7344H4.34766Z" fill="#74C8EE"/>
<path d="M23.4778 21.3433C23.766 21.3433 23.9996 21.1097 23.9996 20.8216C23.9996 20.5334 23.766 20.2998 23.4778 20.2998C23.1896 20.2998 22.9561 20.5334 22.9561 20.8216C22.9561 21.1097 23.1896 21.3433 23.4778 21.3433Z" fill="#3AAADC"/>
<path d="M28.0001 17.169H4.00027C3.71214 17.169 3.47852 16.9355 3.47852 16.6472C3.47852 16.3591 3.71214 16.1255 4.00027 16.1255H28.0001C28.2882 16.1255 28.5218 16.359 28.5218 16.6472C28.5218 16.9354 28.2882 17.169 28.0001 17.169Z" fill="#008CCB"/>
<path d="M7.51296 28.2642C7.80112 28.2642 8.03471 28.0306 8.03471 27.7425C8.03471 27.4543 7.80112 27.2207 7.51296 27.2207C7.22481 27.2207 6.99121 27.4543 6.99121 27.7425C6.99121 28.0306 7.22481 28.2642 7.51296 28.2642Z" fill="#3AAADC"/>
<path d="M9.59987 29.3077C9.88803 29.3077 10.1216 29.0741 10.1216 28.7859C10.1216 28.4978 9.88803 28.2642 9.59987 28.2642C9.31172 28.2642 9.07812 28.4978 9.07812 28.7859C9.07812 29.0741 9.31172 29.3077 9.59987 29.3077Z" fill="#3AAADC"/>
</g>
<defs>
<clipPath id="clip0_2147_8849">
<rect width="32" height="32" fill="white"/>
</clipPath>
</defs>
</svg>
