<svg width="24" height="24" viewBox="0 0 24 24" fill="none" xmlns="http://www.w3.org/2000/svg">
<g clip-path="url(#clip0_2884_15034)">
<path d="M20 10C20.5304 10 21.0391 10.2107 21.4142 10.5858C21.7893 10.9609 22 11.4696 22 12V12.5C22 14.194 19.753 17.99 18.017 19.483L18 19.496V20C18.0002 20.5046 17.8096 20.9906 17.4665 21.3605C17.1234 21.7305 16.6532 21.9572 16.15 21.995L16 22H8C7.46957 22 6.96086 21.7893 6.58579 21.4142C6.21071 21.0391 6 20.5304 6 20V19.504L5.935 19.451C4.175 17.955 2.141 14.486 2.007 12.681L2 12.5V12C2 11.4696 2.21071 10.9609 2.58579 10.5858C2.96086 10.2107 3.46957 10 4 10H20Z" fill="#BEBEBE"/>
<path d="M11.417 3.18755C11.5234 3.10662 11.6449 3.04784 11.7744 3.01468C11.9038 2.98151 12.0386 2.97464 12.1708 2.99446C12.303 3.01428 12.4298 3.0604 12.5439 3.13008C12.6579 3.19977 12.7569 3.29161 12.8348 3.40017C12.9128 3.50874 12.9682 3.63183 12.9977 3.76218C13.0273 3.89252 13.0304 4.02746 13.007 4.15904C12.9835 4.29061 12.9339 4.41615 12.861 4.52822C12.7882 4.6403 12.6937 4.73664 12.583 4.81155C12.208 5.08155 11.99 5.51755 12 6.02055C11.9952 6.24778 12.0457 6.47278 12.1473 6.6761C12.2488 6.87943 12.3984 7.05497 12.583 7.18755C12.6937 7.26246 12.7882 7.3588 12.861 7.47088C12.9339 7.58295 12.9835 7.70849 13.007 7.84006C13.0304 7.97164 13.0273 8.10658 12.9977 8.23693C12.9682 8.36727 12.9128 8.49036 12.8348 8.59893C12.7569 8.70749 12.6579 8.79934 12.5439 8.86902C12.4298 8.93871 12.303 8.98482 12.1708 9.00464C12.0386 9.02447 11.9038 9.01759 11.7744 8.98443C11.6449 8.95126 11.5234 8.89248 11.417 8.81155C10.9733 8.49505 10.6127 8.07595 10.366 7.58996C10.1192 7.10398 9.99367 6.56554 10 6.02055C9.98854 5.46879 10.1116 4.92253 10.3584 4.42895C10.6053 3.93537 10.9686 3.50931 11.417 3.18755Z" fill="#BEBEBE"/>
<path d="M15.417 3.18755C15.5234 3.10662 15.6449 3.04784 15.7744 3.01468C15.9038 2.98151 16.0386 2.97464 16.1708 2.99446C16.303 3.01428 16.4298 3.0604 16.5439 3.13008C16.6579 3.19977 16.7569 3.29161 16.8348 3.40017C16.9128 3.50874 16.9682 3.63183 16.9977 3.76218C17.0273 3.89252 17.0304 4.02746 17.007 4.15904C16.9835 4.29061 16.9339 4.41615 16.861 4.52822C16.7882 4.6403 16.6937 4.73664 16.583 4.81155C16.208 5.08155 15.99 5.51755 16 6.02055C15.9952 6.24778 16.0457 6.47278 16.1473 6.6761C16.2488 6.87943 16.3984 7.05497 16.583 7.18755C16.6937 7.26246 16.7882 7.3588 16.861 7.47088C16.9339 7.58295 16.9835 7.70849 17.007 7.84006C17.0304 7.97164 17.0273 8.10658 16.9977 8.23693C16.9682 8.36727 16.9128 8.49036 16.8348 8.59893C16.7569 8.70749 16.6579 8.79934 16.5439 8.86902C16.4298 8.93871 16.303 8.98482 16.1708 9.00464C16.0386 9.02447 15.9038 9.01759 15.7744 8.98443C15.6449 8.95126 15.5234 8.89248 15.417 8.81155C14.9733 8.49505 14.6127 8.07595 14.366 7.58996C14.1192 7.10398 13.9937 6.56554 14 6.02055C13.9885 5.46879 14.1116 4.92253 14.3584 4.42895C14.6053 3.93537 14.9686 3.50931 15.417 3.18755Z" fill="#BEBEBE"/>
<path d="M7.417 3.18755C7.52337 3.10662 7.64488 3.04784 7.77435 3.01468C7.90382 2.98151 8.03863 2.97464 8.17081 2.99446C8.30298 3.01428 8.42984 3.0604 8.54389 3.13008C8.65794 3.19977 8.75686 3.29161 8.83481 3.40017C8.91276 3.50874 8.96815 3.63183 8.99772 3.76218C9.02729 3.89252 9.03043 4.02746 9.00695 4.15904C8.98348 4.29061 8.93387 4.41615 8.86105 4.52822C8.78823 4.6403 8.69369 4.73664 8.583 4.81155C8.208 5.08155 7.99 5.51755 8 6.02055C7.99515 6.24778 8.0457 6.47278 8.14727 6.6761C8.24884 6.87943 8.3984 7.05497 8.583 7.18755C8.69369 7.26246 8.78823 7.3588 8.86105 7.47088C8.93387 7.58295 8.98348 7.70849 9.00695 7.84006C9.03043 7.97164 9.02729 8.10658 8.99772 8.23693C8.96815 8.36727 8.91276 8.49036 8.83481 8.59893C8.75686 8.70749 8.65794 8.79934 8.54389 8.86902C8.42984 8.93871 8.30298 8.98482 8.17081 9.00464C8.03863 9.02447 7.90382 9.01759 7.77435 8.98443C7.64488 8.95126 7.52337 8.89248 7.417 8.81155C6.97329 8.49505 6.61269 8.07595 6.36595 7.58996C6.11922 7.10398 5.99367 6.56554 6 6.02055C5.98854 5.46879 6.11155 4.92253 6.35843 4.42895C6.60531 3.93537 6.96862 3.50931 7.417 3.18755Z" fill="#BEBEBE"/>
</g>
<defs>
<clipPath id="clip0_2884_15034">
<rect width="24" height="24" fill="white"/>
</clipPath>
</defs>
</svg>
