<svg width="32" height="32" viewBox="0 0 32 32" fill="none" xmlns="http://www.w3.org/2000/svg">
<g clip-path="url(#clip0_2147_3153)">
<path d="M11.2424 8.00085H3.99836L3.84636 8.00885C3.62482 8.03437 3.41322 8.11505 3.23093 8.24351C3.04864 8.37196 2.90148 8.54409 2.80292 8.74413C2.70436 8.94417 2.65754 9.16573 2.66676 9.38855C2.67598 9.61136 2.74094 9.8283 2.85569 10.0195L6.44236 16.0008L2.85569 21.9822L2.78369 22.1155C2.69129 22.3187 2.65137 22.5418 2.66759 22.7644C2.68381 22.987 2.75566 23.202 2.87655 23.3896C2.99743 23.5773 3.16349 23.7316 3.35949 23.8383C3.55549 23.9451 3.77516 24.001 3.99836 24.0008H11.2437L14.8557 30.0195L14.9544 30.1635C15.0885 30.3321 15.2614 30.4656 15.4584 30.5528C15.6553 30.6399 15.8705 30.678 16.0854 30.6639C16.3003 30.6497 16.5086 30.5837 16.6924 30.4715C16.8763 30.3593 17.0302 30.2042 17.141 30.0195L20.7517 24.0008H27.9984L28.1504 23.9928C28.3719 23.9673 28.5835 23.8866 28.7658 23.7582C28.9481 23.6297 29.0952 23.4576 29.1938 23.2576C29.2924 23.0575 29.3392 22.836 29.33 22.6131C29.3207 22.3903 29.2558 22.1734 29.141 21.9822L25.553 16.0008L29.141 10.0195L29.213 9.88618C29.3054 9.68301 29.3454 9.45988 29.3291 9.23727C29.3129 9.01466 29.2411 8.79968 29.1202 8.61205C28.9993 8.42442 28.8332 8.27013 28.6372 8.16335C28.4412 8.05656 28.2216 8.00069 27.9984 8.00085H20.753L17.141 1.98218C17.0225 1.78505 16.855 1.62193 16.6547 1.50869C16.4545 1.39545 16.2284 1.33594 15.9984 1.33594C15.7683 1.33594 15.5422 1.39545 15.342 1.50869C15.1418 1.62193 14.9742 1.78505 14.8557 1.98218L11.2424 8.00085Z" fill="#3749A6"/>
</g>
<defs>
<clipPath id="clip0_2147_3153">
<rect width="32" height="32" fill="white"/>
</clipPath>
</defs>
</svg>
