<svg width="32" height="32" viewBox="0 0 32 32" fill="none" xmlns="http://www.w3.org/2000/svg">
<g clip-path="url(#clip0_2147_9202)">
<path d="M10.7801 17.8245C8.05547 13.5484 8.55944 7.80921 12.2928 4.07581C16.6103 -0.240766 23.6093 -0.240766 27.9259 4.07581C32.2425 8.39239 32.2425 15.3915 27.9259 19.7089C24.1925 23.4423 18.4534 23.9462 14.1772 21.2216C13.5089 20.7969 12.876 20.2921 12.2928 19.7089C11.7096 19.1257 11.2048 18.4928 10.7801 17.8245ZM25.2004 16.9834C28.0127 14.1712 28.0127 9.6127 25.2004 6.80128C22.389 3.98901 17.8306 3.98901 15.0183 6.80128C12.2069 9.6127 12.2069 14.1712 15.0183 16.9834C17.8306 19.7948 22.389 19.7948 25.2004 16.9834Z" fill="#F2D59F"/>
<path d="M25.1999 6.80109C28.0122 9.61252 28.0122 14.171 25.1999 16.9832C22.3885 19.7947 17.83 19.7947 15.0177 16.9832C12.2063 14.171 12.2063 9.61252 15.0177 6.80109C17.83 3.98883 22.3885 3.98883 25.1999 6.80109Z" fill="#8ECAC1"/>
<path d="M14.177 21.2218L11.1902 24.2077L7.79395 20.8114L10.7798 17.8247C11.2046 18.493 11.7094 19.1259 12.2926 19.7091C12.8757 20.2923 13.5087 20.7971 14.177 21.2218Z" fill="#E6B263"/>
<path d="M11.1901 24.2073L4.94277 30.4547C4.00478 31.3926 2.48446 31.3926 1.54647 30.4547C1.0779 29.9861 0.842773 29.3709 0.842773 28.7565C0.842773 28.1421 1.0779 27.5269 1.54647 27.0584L7.7938 20.811L11.1901 24.2073Z" fill="#FF7124"/>
<path d="M20.1202 23.788C17.8614 23.788 15.6283 23.1457 13.7238 21.9322C12.9961 21.4697 12.3136 20.9219 11.6963 20.3046C11.0795 19.6878 10.5319 19.0056 10.0687 18.2771C8.63678 16.0296 8 13.3244 8.27583 10.6595C8.55562 7.95538 9.77045 5.40547 11.6963 3.47961C16.3354 -1.15857 23.883 -1.15857 28.5212 3.47961C33.1594 8.11778 33.1594 15.6654 28.5212 20.3045C26.5953 22.2304 24.0453 23.4452 21.3411 23.7251C20.9347 23.7672 20.5269 23.788 20.1202 23.788ZM20.1091 1.68572C17.4939 1.68572 14.8793 2.68085 12.8881 4.6716C11.2352 6.32457 10.1925 8.51287 9.9524 10.8331C9.71559 13.1214 10.2618 15.4433 11.4903 17.3714C11.4904 17.3717 11.4906 17.372 11.4908 17.3722C11.888 17.9971 12.3581 18.5828 12.8882 19.1128C13.4185 19.643 14.0041 20.1132 14.6288 20.5102C16.5576 21.7391 18.8795 22.2855 21.1678 22.0485C23.4882 21.8084 25.6765 20.7657 27.3295 19.1128C31.3105 15.1309 31.3105 8.65259 27.3295 4.6716C25.3391 2.68127 22.7237 1.68572 20.1091 1.68572Z" fill="#5E2A41"/>
<path d="M20.1091 19.9306C18.0495 19.9306 15.99 19.1468 14.4219 17.5793C11.2865 14.4428 11.2865 9.3405 14.4218 6.20512C15.9412 4.68581 17.961 3.84912 20.1092 3.84912C22.2574 3.84912 24.277 4.68589 25.796 6.2052C27.3151 7.72393 28.1519 9.74359 28.1519 11.8918C28.1519 14.04 27.3152 16.0599 25.7959 17.5792C24.2281 19.1468 22.1686 19.9306 20.1091 19.9306ZM20.1091 5.53463C18.4111 5.53463 16.8146 6.19602 15.6137 7.39703C13.1354 9.87523 13.1355 13.9084 15.6137 16.3874C18.0926 18.8656 22.1257 18.8656 24.604 16.3873C25.805 15.1864 26.4663 13.5899 26.4663 11.8918C26.4663 10.194 25.8049 8.59761 24.6041 7.39711C23.4033 6.19602 21.807 5.53463 20.1091 5.53463Z" fill="#5E2A41"/>
<path d="M3.2446 31.9993C2.41373 31.9993 1.58311 31.6831 0.950541 31.0506C0.337607 30.4377 0 29.6229 0 28.7565C0 27.8902 0.337607 27.0754 0.950541 26.4625L10.1946 17.2175C10.5237 16.8885 11.0573 16.8885 11.3865 17.2175C11.7156 17.5466 11.7156 18.0802 11.3865 18.4094L2.14236 27.6544C1.84774 27.9489 1.68551 28.3403 1.68551 28.7565C1.68551 29.1728 1.84774 29.5642 2.14236 29.8588C2.75016 30.4665 3.73913 30.4665 4.34683 29.8588L13.5776 20.6289C13.8935 20.309 14.4085 20.2922 14.7441 20.5975C15.0886 20.9106 15.1144 21.4431 14.8013 21.7875L14.8004 21.7884C14.7914 21.7983 14.7821 21.808 14.7726 21.8175L5.53866 31.0506C4.90625 31.683 4.0753 31.9993 3.2446 31.9993Z" fill="#5E2A41"/>
<path d="M17.1035 9.7296C16.8878 9.7296 16.6722 9.64735 16.5077 9.48293C16.1785 9.15392 16.1784 8.62028 16.5075 8.29102C17.468 7.33003 18.747 6.80078 20.1088 6.80078C21.4706 6.80078 22.7496 7.32995 23.7101 8.29102C24.0391 8.6202 24.039 9.15383 23.7098 9.48293C23.3805 9.81194 22.847 9.81177 22.518 9.48259C21.8758 8.84016 21.0202 8.48637 20.1088 8.48637C19.1974 8.48637 18.3417 8.84016 17.6996 9.48259C17.535 9.64726 17.3192 9.7296 17.1035 9.7296Z" fill="#5E2A41"/>
<path d="M11.1902 25.05C10.9745 25.05 10.7589 24.9676 10.5943 24.8031L7.19799 21.4068C6.8689 21.0777 6.8689 20.5441 7.19799 20.215C7.52709 19.886 8.06072 19.886 8.38981 20.215L11.7861 23.6113C12.1152 23.9404 12.1153 24.474 11.7862 24.8031C11.6216 24.9677 11.4059 25.05 11.1902 25.05Z" fill="#5E2A41"/>
</g>
<defs>
<clipPath id="clip0_2147_9202">
<rect width="32" height="32" fill="white"/>
</clipPath>
</defs>
</svg>
