<svg width="32" height="32" viewBox="0 0 32 32" fill="none" xmlns="http://www.w3.org/2000/svg">
<path d="M28.3406 5.59717H3.62397C1.79768 5.59717 0.314453 7.08028 0.314453 8.90657V21.3525C0.314453 23.1765 1.79768 24.6596 3.62397 24.6596H4.68229C4.3799 24.8108 4.16879 25.1156 4.16879 25.4756C4.16879 25.9844 4.58154 26.3972 5.09037 26.3972H9.00703C9.51574 26.3972 9.9286 25.9844 9.9286 25.4756C9.9286 25.1156 9.71492 24.8108 9.41499 24.6596H22.7296C22.4272 24.8108 22.2161 25.1156 22.2161 25.4756C22.2161 25.9844 22.6289 26.3972 23.1377 26.3972H27.0544C27.5631 26.3972 27.976 25.9844 27.976 25.4756C27.976 25.1156 27.7623 24.8108 27.4623 24.6596H28.3407C30.1623 24.6596 31.6477 23.1765 31.6477 21.3525V8.90657C31.6477 7.08028 30.1622 5.59717 28.3406 5.59717Z" fill="#27323A"/>
<path d="M2.15723 21.3521V8.90623C2.15723 8.09748 2.81484 7.43994 3.62363 7.43994H21.9086V22.8161H3.62363C2.81488 22.8161 2.15723 22.1598 2.15723 21.3521Z" fill="#F4CE73"/>
<path d="M29.8045 21.3521C29.8045 22.1598 29.147 22.8161 28.3406 22.8161H23.1377V7.43994H28.3406C29.147 7.43994 29.8045 8.09744 29.8045 8.90623V21.3521Z" fill="#79CCBF"/>
<path d="M3.86133 15.0933C3.86133 18.242 7.58359 20.7091 12.3353 20.7091C14.548 20.7091 16.6384 20.1547 18.2199 19.148C19.8878 18.0872 20.8071 16.6472 20.8071 15.0933C20.8071 13.5382 19.8879 12.0983 18.2199 11.0375C16.6384 10.0295 14.5481 9.4751 12.3353 9.4751C7.58359 9.47514 3.86133 11.9422 3.86133 15.0933Z" fill="#27323A"/>
<path d="M5.09082 15.0931C5.09082 12.7124 8.40747 10.7036 12.3361 10.7036C14.3184 10.7036 16.1736 11.1885 17.5607 12.0716C18.8615 12.902 19.5791 13.9723 19.5791 15.0931C19.5791 16.2114 18.8615 17.283 17.5607 18.1109C16.1736 18.9941 14.3184 19.4801 12.3361 19.4801C8.40747 19.4801 5.09082 17.4714 5.09082 15.0931Z" fill="white"/>
<path d="M5.88445 14.7669C5.75728 16.466 7.25968 17.93 9.45558 18.2503C9.7915 18.2983 10.1035 18.0667 10.1515 17.7308C10.1996 17.3947 9.96676 17.0827 9.63315 17.0336C8.11882 16.8128 7.03411 15.8781 7.11089 14.8604C7.13732 14.522 6.88285 14.2269 6.54457 14.2005C6.20614 14.1765 5.91085 14.4309 5.88445 14.7669ZM24.9446 10.1783C24.2822 10.8431 24.1671 11.8391 24.5821 12.6262L27.3925 9.8183C26.6053 9.40308 25.6094 9.51587 24.9446 10.1783ZM27.9012 13.1349C28.5637 12.4702 28.6765 11.4743 28.2613 10.6871L25.4533 13.495C26.2406 13.9126 27.2365 13.7973 27.9012 13.1349ZM24.9446 17.0192C24.2822 17.6828 24.1671 18.6788 24.5821 19.4672L27.3925 16.658C26.6053 16.2428 25.6094 16.3556 24.9446 17.0192ZM27.9012 19.9747C28.5637 19.3111 28.6765 18.3152 28.2613 17.5269L25.4533 20.3359C26.2406 20.7523 27.2365 20.6383 27.9012 19.9747Z" fill="#27323A"/>
</svg>
