<svg width="32" height="32" viewBox="0 0 32 32" fill="none" xmlns="http://www.w3.org/2000/svg">
<g clip-path="url(#clip0_2884_5075)">
<path d="M24.8579 3.28418H7.14223L4.37598 8.05612V31.2866C4.37598 31.6807 4.69554 32.0003 5.08973 32.0003H26.9103C27.3045 32.0003 27.624 31.6807 27.624 31.2866V8.05612L24.8579 3.28418Z" fill="#FFF9F0"/>
<path d="M22.0916 19.2474C21.5029 19.0575 20.7992 18.9326 19.8746 18.9326C15.9999 18.9326 15.9999 21.1225 12.1251 21.1225C8.25054 21.1225 8.25054 18.9326 4.37598 18.9326V31.2859C4.37598 31.6801 4.69554 31.9996 5.08973 31.9996H22.0916V19.2474Z" fill="#5BDCFD"/>
<path d="M22.0918 8.05566V31.9999H26.9105C27.3047 31.9999 27.6242 31.6803 27.6242 31.286V8.05566H22.0918Z" fill="#E5D8C6"/>
<path d="M24.5309 0H7.46989C7.28914 0 7.14258 0.146563 7.14258 0.327312V5.66988H24.8582V0.327312C24.8582 0.146563 24.7117 0 24.5309 0Z" fill="#5BDCFD"/>
<path d="M24.5308 0H21.4629V5.66981H24.8581V0.327312C24.8581 0.146563 24.7116 0 24.5308 0Z" fill="#48C7E5"/>
<path d="M24.8579 3.28418H7.14223L4.37598 8.05612H27.6241L24.8579 3.28418Z" fill="#B0EFFE"/>
<path d="M27.6243 8.05612L24.858 3.28418L22.0918 8.05612H27.6243Z" fill="#F3E8D6"/>
<path d="M22.092 8.05566H18.7051V32H22.092V8.05566Z" fill="#F3E8D6"/>
<path d="M18.7051 31.9996H22.0918V19.2474C21.5031 19.0575 20.7994 18.9326 19.8748 18.9326C19.4395 18.9326 19.0535 18.9604 18.7051 19.0095V31.9996Z" fill="#48C7E5"/>
<path d="M21.4713 3.28418L18.7051 8.05612H22.0918L24.858 3.28418H21.4713Z" fill="#5BDCFD"/>
<path d="M9.79487 14.8269C9.73168 14.9419 9.63393 14.9764 9.54187 14.9764C9.4498 14.9764 9.3578 14.9419 9.29462 14.8269L8.6333 13.5848V16.1034C8.6333 16.2587 8.44355 16.3392 8.25955 16.3392C8.0698 16.3392 7.88574 16.2587 7.88574 16.1034V12.5095C7.88574 12.2335 8.0698 12.1357 8.25955 12.1357C8.5298 12.1357 8.65055 12.1932 8.8403 12.5325L9.54762 13.8205L10.2549 12.5325C10.4447 12.1932 10.5712 12.1357 10.8414 12.1357C11.0312 12.1357 11.2152 12.2335 11.2152 12.5095V16.1034C11.2152 16.2587 11.0255 16.3392 10.8414 16.3392C10.6517 16.3392 10.4677 16.2587 10.4677 16.1034V13.6307L9.79487 14.8269Z" fill="#F9662B"/>
<path d="M11.9053 12.3657C11.9053 12.2047 12.0893 12.1357 12.2791 12.1357C12.4631 12.1357 12.6528 12.2047 12.6528 12.3657V16.1034C12.6528 16.2587 12.4631 16.3392 12.2791 16.3392C12.0893 16.3392 11.9053 16.2587 11.9053 16.1034V12.3657Z" fill="#F9662B"/>
<path d="M13.6705 16.3392C13.5038 16.3392 13.3428 16.2587 13.3428 16.1034V12.3657C13.3428 12.2047 13.5268 12.1357 13.7166 12.1357C13.9006 12.1357 14.0903 12.2047 14.0903 12.3657V15.6836H15.4934C15.6429 15.6836 15.7177 15.8446 15.7177 16.0114C15.7177 16.1724 15.6429 16.3391 15.4934 16.3391H13.6705V16.3392Z" fill="#F9662B"/>
<path d="M16.126 12.3657C16.126 12.2047 16.31 12.1357 16.4998 12.1357C16.6838 12.1357 16.8735 12.2047 16.8735 12.3657V13.9356L18.1156 12.245C18.1732 12.1645 18.2422 12.1357 18.3226 12.1357C18.5124 12.1357 18.7539 12.3312 18.7539 12.521C18.7539 12.5612 18.7482 12.613 18.7079 12.6647L17.6786 13.9528L18.9322 15.8619C18.9609 15.9021 18.9724 15.9481 18.9724 15.9941C18.9724 16.1781 18.7424 16.3679 18.5239 16.3679C18.4262 16.3679 18.3284 16.3276 18.2652 16.2241L17.1841 14.5852L16.8736 14.9763V16.1034C16.8736 16.2586 16.6839 16.3391 16.4999 16.3391C16.3101 16.3391 16.126 16.2586 16.126 16.1034L16.126 12.3657Z" fill="#F9662B"/>
</g>
<defs>
<clipPath id="clip0_2884_5075">
<rect width="32" height="32" fill="white"/>
</clipPath>
</defs>
</svg>
