<svg width="32" height="32" viewBox="0 0 32 32" fill="none" xmlns="http://www.w3.org/2000/svg">
<g clip-path="url(#clip0_2884_8341)">
<path d="M25.3733 9.85301L27.2667 7.95967C26.6667 7.27967 26.0667 6.66634 25.3867 6.07967L23.4933 7.99967C21.4267 6.31967 18.8267 5.33301 16 5.33301C12.8174 5.33301 9.76516 6.59729 7.51472 8.84773C5.26428 11.0982 4 14.1504 4 17.333C4 20.5156 5.26428 23.5679 7.51472 25.8183C9.76516 28.0687 12.8174 29.333 16 29.333C22.6667 29.333 28 23.9597 28 17.333C28 14.5063 27.0133 11.9063 25.3733 9.85301ZM17.3333 18.6663H14.6667V9.33301H17.3333V18.6663ZM20 1.33301H12V3.99967H20V1.33301Z" fill="#BEBEBE"/>
</g>
<defs>
<clipPath id="clip0_2884_8341">
<rect width="32" height="32" fill="white"/>
</clipPath>
</defs>
</svg>
