<svg width="60" height="60" viewBox="0 0 60 60" fill="none" xmlns="http://www.w3.org/2000/svg">
<path d="M29.9551 14.9771V29.9546H41.1882M52.4214 29.9546C52.4214 32.9049 51.8403 35.8263 50.7112 38.5521C49.5822 41.2778 47.9273 43.7545 45.8412 45.8407C43.755 47.9269 41.2783 49.5817 38.5526 50.7108C35.8268 51.8398 32.9054 52.4209 29.9551 52.4209C27.0048 52.4209 24.0833 51.8398 21.3576 50.7108C18.6319 49.5817 16.1552 47.9269 14.069 45.8407C11.9828 43.7545 10.328 41.2778 9.19892 38.5521C8.06988 35.8263 7.48877 32.9049 7.48877 29.9546C7.48877 23.9962 9.85575 18.2818 14.069 14.0685C18.2822 9.85526 23.9966 7.48828 29.9551 7.48828C35.9135 7.48828 41.6279 9.85526 45.8412 14.0685C50.0544 18.2818 52.4214 23.9962 52.4214 29.9546Z" stroke="#9CA3AF" stroke-width="3.74438" stroke-linecap="round" stroke-linejoin="round"/>
</svg>
