<svg width="24" height="24" viewBox="0 0 24 24" fill="none" xmlns="http://www.w3.org/2000/svg">
<g clip-path="url(#clip0_2908_18416)">
<path d="M8.78431 14.6302C8.67831 14.512 8.65256 14.3422 8.71826 14.1977C9.57808 12.3076 8.64546 11.2498 8.73836 6.97914C8.74276 6.77639 8.90071 6.58303 9.15382 6.58783C9.37202 6.59198 9.54298 6.77749 9.53823 6.99564C9.53408 7.1855 9.53223 7.3761 9.53248 7.56716C9.53277 7.78856 9.71353 7.96932 9.93493 7.96632C10.5856 7.95742 11.8512 7.74316 12.341 6.27378L12.5846 5.54301C13.0354 4.19058 12.2652 2.73045 10.8801 2.34919L8.3889 1.66352C7.39643 1.39036 6.32175 1.76462 5.71429 2.59474C2.80092 6.57568 0.866677 11.1539 0.0452582 16.0034C-0.180497 17.336 0.452818 18.6805 1.62129 19.349C8.18204 23.1028 15.9614 23.4665 23.0099 20.1825C23.6114 19.9023 24.0001 19.2918 24.0001 18.6272V11.479C24.0001 10.9089 23.7193 10.3783 23.249 10.0596C20.7203 8.34577 17.5003 8.55103 15.3434 10.8266C15.1511 11.0294 15.224 11.3619 15.4818 11.4697C16.4562 11.8772 17.3775 12.4691 18.1463 13.1682C18.3135 13.3202 18.3252 13.5835 18.1592 13.749C18.0086 13.8993 17.767 13.9049 17.6091 13.7623C15.5944 11.9429 12.8707 11.1152 10.161 11.9809C9.99479 12.034 9.88343 12.1913 9.88618 12.3658C9.89753 13.0914 9.77638 13.794 9.44522 14.5301C9.32712 14.7924 8.97636 14.8443 8.78431 14.6302Z" fill="#C83A2D"/>
</g>
<defs>
<clipPath id="clip0_2908_18416">
<rect width="24" height="24" fill="white"/>
</clipPath>
</defs>
</svg>
