<svg width="32" height="32" viewBox="0 0 32 32" fill="none" xmlns="http://www.w3.org/2000/svg">
<g clip-path="url(#clip0_2147_3367)">
<path d="M14.572 2.40771C11.4956 3.25571 8.43513 4.97302 5.83336 7.53122C0.39428 12.8805 -1.3506 20.1996 1.06094 25.5142C1.0645 25.5248 1.06272 25.5328 1.06717 25.5435C2.0085 27.9675 0.760501 29.9781 1.39516 30.6012C2.02894 31.2243 4.56493 29.9781 6.47425 30.8955C6.4947 30.9061 6.50892 30.9026 6.52936 30.9106C11.9364 33.3088 19.3995 31.5994 24.8511 26.2377C27.4519 23.6769 29.1977 20.6662 30.059 17.6414L14.572 2.40771Z" fill="#E65100"/>
<path d="M17.5195 14.7482L17.5124 14.7402C12.6253 9.93493 10.1658 6.35274 10.1996 4.09765C10.2129 3.28077 10.5516 2.88077 10.6973 2.74566C14.4973 -0.992082 19.692 -0.194756 24.9293 4.95631C25.3469 5.36577 25.7473 5.79251 26.1293 6.23541C26.4022 6.4354 27.1746 7.02029 28.0741 7.90472C32.6448 12.4007 33.2537 17.3251 29.7479 21.4148C29.6084 21.5722 29.2235 21.9099 28.4279 21.9375C26.1924 22.0166 22.5239 19.598 17.5213 14.7482H17.5195Z" fill="#FFA726"/>
<path d="M27.1409 23.5766C27.5311 23.0397 27.8813 22.4886 28.2084 21.9312C25.9569 21.8566 22.3676 19.4468 17.5214 14.75L17.5196 14.7482L17.5125 14.7402C12.7178 10.0247 10.2672 6.49227 10.2067 4.23096C9.64142 4.55273 9.08142 4.89673 8.53564 5.27984C9.0992 7.95981 11.5872 11.4078 16.2441 15.9891C21.9747 21.5428 25.1711 23.1677 27.1409 23.5766Z" fill="#AA3304"/>
<path d="M5.19953 26.8605C3.56665 25.2543 1.82977 24.073 0.361328 23.4712C0.533772 24.177 0.764882 24.8614 1.06088 25.5138C1.06444 25.5245 1.06266 25.5325 1.0671 25.5432C2.00843 27.9672 0.760437 29.9778 1.3951 30.6009C2.02888 31.224 4.56486 29.9778 6.47419 30.8951C6.49463 30.9058 6.50885 30.9022 6.5293 30.9102C7.20574 31.2098 7.91329 31.4462 8.64485 31.6178C8.03151 30.176 6.83152 28.4667 5.19953 26.8605Z" fill="#FB8C00"/>
<path d="M28.9716 0.360464C28.7171 0.112441 28.3758 -0.0263672 28.0205 -0.0263672C27.6651 -0.0263672 27.3238 0.112441 27.0693 0.360464C26.9449 0.482306 26.8459 0.627781 26.7784 0.788355C26.7109 0.94893 26.6761 1.12137 26.6761 1.29557C26.6761 1.46976 26.7109 1.6422 26.7784 1.80278C26.8459 1.96335 26.9449 2.10883 27.0693 2.23067C27.5493 2.70355 27.3147 4.07954 26.8747 4.71331C26.0702 5.69642 24.9414 6.47241 24.4142 6.76129C24.2937 6.82645 24.1902 6.91899 24.1119 7.03145C24.0337 7.14392 23.9829 7.27318 23.9637 7.40884C23.9445 7.54449 23.9574 7.68276 24.0014 7.81252C24.0454 7.94228 24.1192 8.05991 24.2169 8.15595C24.4925 8.42706 24.928 8.49817 25.2854 8.30173C25.392 8.24395 27.3156 7.1764 28.5467 5.47508H28.5476C30.2293 3.66355 29.4969 0.876904 28.9716 0.360464Z" fill="#BF360C"/>
</g>
<defs>
<clipPath id="clip0_2147_3367">
<rect width="32" height="32" fill="white"/>
</clipPath>
</defs>
</svg>
