<svg width="28" height="28" viewBox="0 0 28 28" fill="none" xmlns="http://www.w3.org/2000/svg">
<g clip-path="url(#clip0_3164_7460)">
<path d="M24.2259 2.76194L23.8572 3.86794C23.4372 5.1256 22.7255 6.3436 22.0839 7.25827C23.3287 8.6851 24.3624 10.6113 24.8174 12.6144C25.3634 15.0259 25.1009 17.7478 23.0744 19.7743L20.5999 22.2488L19.7529 21.4018C17.5385 23.3898 14.9754 24.8598 12.4449 25.4711C9.56555 26.1676 6.61388 25.7628 4.42522 23.5741C2.23655 21.3854 1.83288 18.4338 2.52822 15.5544C3.13955 13.0239 4.60955 10.4608 6.59755 8.2476L5.75055 7.39944L8.22505 4.9261C10.2399 2.91127 12.9617 2.64994 15.3534 3.1761C17.22 3.58677 19.0202 4.4956 20.3864 5.6051C20.8682 4.87827 21.3547 3.9951 21.6429 3.1306L22.0127 2.02344L24.2259 2.76194ZM18.1009 19.7486L16.9576 18.6076V15.9908H14.3419L8.25072 9.8996C6.51238 11.8608 5.29205 14.0529 4.79738 16.1028C4.23272 18.4361 4.61888 20.4684 6.07488 21.9244C7.53088 23.3804 9.56322 23.7678 11.8965 23.2031C13.9464 22.7073 16.1385 21.4881 18.0997 19.7498" fill="#C83A2D"/>
</g>
<defs>
<clipPath id="clip0_3164_7460">
<rect width="28" height="28" fill="white"/>
</clipPath>
</defs>
</svg>
