<svg width="24" height="24" viewBox="0 0 24 24" fill="none" xmlns="http://www.w3.org/2000/svg">
<path d="M8.25 10.875C8.25 10.5303 8.3179 10.1889 8.44982 9.87046C8.58173 9.55198 8.77509 9.2626 9.01884 9.01884C9.2626 8.77509 9.55198 8.58173 9.87046 8.44982C10.1889 8.3179 10.5303 8.25 10.875 8.25C11.2197 8.25 11.5611 8.3179 11.8795 8.44982C12.198 8.58173 12.4874 8.77509 12.7312 9.01884C12.9749 9.2626 13.1683 9.55198 13.3002 9.87046C13.4321 10.1889 13.5 10.5303 13.5 10.875C13.5 11.5712 13.2234 12.2389 12.7312 12.7312C12.2389 13.2234 11.5712 13.5 10.875 13.5C10.1788 13.5 9.51113 13.2234 9.01884 12.7312C8.52656 12.2389 8.25 11.5712 8.25 10.875Z" fill="#C83A2D"/>
<path fill-rule="evenodd" clip-rule="evenodd" d="M12 2.25C6.615 2.25 2.25 6.615 2.25 12C2.25 17.385 6.615 21.75 12 21.75C17.385 21.75 21.75 17.385 21.75 12C21.75 6.615 17.385 2.25 12 2.25ZM10.875 6.75C10.2286 6.75013 9.59126 6.90217 9.0144 7.19386C8.43755 7.48556 7.93732 7.90874 7.55406 8.42927C7.1708 8.94981 6.91524 9.55313 6.80799 10.1906C6.70074 10.828 6.7448 11.4818 6.93662 12.0991C7.12843 12.7164 7.46264 13.2799 7.91228 13.7443C8.36192 14.2087 8.91441 14.561 9.52519 14.7726C10.136 14.9843 10.7879 15.0494 11.4285 14.9628C12.0691 14.8762 12.6804 14.6402 13.213 14.274L15.22 16.28C15.2887 16.3537 15.3715 16.4128 15.4635 16.4538C15.5555 16.4948 15.6548 16.5168 15.7555 16.5186C15.8562 16.5204 15.9562 16.5018 16.0496 16.4641C16.143 16.4264 16.2278 16.3703 16.299 16.299C16.3703 16.2278 16.4264 16.143 16.4641 16.0496C16.5018 15.9562 16.5204 15.8562 16.5186 15.7555C16.5168 15.6548 16.4948 15.5555 16.4538 15.4635C16.4128 15.3715 16.3537 15.2887 16.28 15.22L14.274 13.213C14.7001 12.5936 14.9488 11.8696 14.9933 11.1191C15.0378 10.3687 14.8764 9.62031 14.5265 8.95494C14.1765 8.28956 13.6514 7.73247 13.0079 7.34386C12.3643 6.95525 11.6268 6.7499 10.875 6.75Z" fill="#C83A2D"/>
</svg>
