<svg width="32" height="32" viewBox="0 0 32 32" fill="none" xmlns="http://www.w3.org/2000/svg">
<g clip-path="url(#clip0_500_6737)">
<path d="M8 20.6667C8 21.1971 8.21071 21.7058 8.58579 22.0809C8.96086 22.456 9.46957 22.6667 10 22.6667C10.5304 22.6667 11.0391 22.456 11.4142 22.0809C11.7893 21.7058 12 21.1971 12 20.6667C12 20.1362 11.7893 19.6275 11.4142 19.2525C11.0391 18.8774 10.5304 18.6667 10 18.6667C9.46957 18.6667 8.96086 18.8774 8.58579 19.2525C8.21071 19.6275 8 20.1362 8 20.6667Z" stroke="black" stroke-width="4" stroke-linecap="round" stroke-linejoin="round"/>
<path d="M21.333 20.6667C21.333 21.1971 21.5437 21.7058 21.9188 22.0809C22.2939 22.456 22.8026 22.6667 23.333 22.6667C23.8634 22.6667 24.3721 22.456 24.7472 22.0809C25.1223 21.7058 25.333 21.1971 25.333 20.6667C25.333 20.1362 25.1223 19.6275 24.7472 19.2525C24.3721 18.8774 23.8634 18.6667 23.333 18.6667C22.8026 18.6667 22.2939 18.8774 21.9188 19.2525C21.5437 19.6275 21.333 20.1362 21.333 20.6667Z" stroke="black" stroke-width="4" stroke-linecap="round" stroke-linejoin="round"/>
<path d="M14.667 11.3333C14.667 11.8638 14.8777 12.3725 15.2528 12.7475C15.6279 13.1226 16.1366 13.3333 16.667 13.3333C17.1974 13.3333 17.7061 13.1226 18.0812 12.7475C18.4563 12.3725 18.667 11.8638 18.667 11.3333C18.667 10.8029 18.4563 10.2942 18.0812 9.91912C17.7061 9.54404 17.1974 9.33333 16.667 9.33333C16.1366 9.33333 15.6279 9.54404 15.2528 9.91912C14.8777 10.2942 14.667 10.8029 14.667 11.3333Z" stroke="black" stroke-width="4" stroke-linecap="round" stroke-linejoin="round"/>
</g>
<defs>
<clipPath id="clip0_500_6737">
<rect width="32" height="32" fill="white"/>
</clipPath>
</defs>
</svg>
