<svg width="32" height="32" viewBox="0 0 32 32" fill="none" xmlns="http://www.w3.org/2000/svg">
<g clip-path="url(#clip0_2147_8897)">
<path d="M24.5409 12.519H7.06584C6.75657 12.519 6.50586 12.7698 6.50586 13.079V26.3308C6.50586 26.6401 6.75657 26.8908 7.06584 26.8908H24.5409C24.8502 26.8908 25.1009 26.6401 25.1009 26.3308V13.079C25.1009 12.7698 24.8502 12.519 24.5409 12.519Z" fill="#FFE197"/>
<path d="M27.341 0.859863H4.90521C4.31188 0.861612 3.74334 1.09809 3.32379 1.51764C2.90424 1.93719 2.66776 2.50572 2.66602 3.09906V8.51112H29.5813V3.09906C29.5795 2.50553 29.3429 1.93683 28.9231 1.51725C28.5033 1.09767 27.9345 0.86132 27.341 0.859863Z" fill="#FFE197"/>
<path d="M27.0706 0.746094H4.63372C3.39705 0.746094 2.39453 1.74861 2.39453 2.98529V29.0151C2.39453 30.2518 3.39705 31.2543 4.63372 31.2543H27.0706C28.3073 31.2543 29.3098 30.2518 29.3098 29.0151V2.98529C29.3098 1.74861 28.3073 0.746094 27.0706 0.746094Z" stroke="#592413" stroke-width="2" stroke-linecap="round" stroke-linejoin="round"/>
<path d="M24.5897 12.4072H7.11467C6.8054 12.4072 6.55469 12.6579 6.55469 12.9672V26.219C6.55469 26.5283 6.8054 26.779 7.11467 26.779H24.5897C24.899 26.779 25.1497 26.5283 25.1497 26.219V12.9672C25.1497 12.6579 24.899 12.4072 24.5897 12.4072Z" stroke="#592413" stroke-width="2" stroke-linecap="round" stroke-linejoin="round"/>
<path d="M2.64941 8.396H28.92" stroke="#592413" stroke-width="2" stroke-linecap="round" stroke-linejoin="round"/>
<path d="M5.44727 4.35498H5.83605" stroke="#592413" stroke-width="2" stroke-linecap="round" stroke-linejoin="round"/>
<path d="M9.99414 4.35498H10.3829" stroke="#592413" stroke-width="2" stroke-linecap="round" stroke-linejoin="round"/>
<path d="M14.541 4.35498H14.9298" stroke="#592413" stroke-width="2" stroke-linecap="round" stroke-linejoin="round"/>
<path d="M19.0879 4.35498H19.4767" stroke="#592413" stroke-width="2" stroke-linecap="round" stroke-linejoin="round"/>
<path d="M26.1221 4.35498H26.5109" stroke="#592413" stroke-width="2" stroke-linecap="round" stroke-linejoin="round"/>
<path d="M14.2304 15.5859C13.8892 15.8154 13.6062 16.1212 13.4038 16.479C13.2014 16.8369 13.0852 17.2371 13.0645 17.6477C13.0645 18.969 14.5412 19.3188 14.5412 21.1821C14.5739 21.6771 14.4485 22.1697 14.1831 22.5889C13.9177 23.008 13.526 23.332 13.0645 23.5141" stroke="#592413" stroke-width="2" stroke-linecap="round" stroke-linejoin="round"/>
<path d="M18.6217 15.5859C18.2806 15.8154 17.9976 16.1212 17.7953 16.4791C17.5929 16.837 17.4768 17.2371 17.4561 17.6477C17.4561 18.969 18.9328 19.3188 18.9328 21.1821C18.9655 21.6771 18.8401 22.1697 18.5747 22.5889C18.3093 23.008 17.9176 23.332 17.4561 23.5141" stroke="#592413" stroke-width="2" stroke-linecap="round" stroke-linejoin="round"/>
</g>
<defs>
<clipPath id="clip0_2147_8897">
<rect width="32" height="32" fill="white"/>
</clipPath>
</defs>
</svg>
