<svg width="32" height="32" viewBox="0 0 32 32" fill="none" xmlns="http://www.w3.org/2000/svg">
<g clip-path="url(#clip0_2147_3179)">
<path d="M19.9995 2.66406C21.189 2.66395 22.3445 3.06151 23.2821 3.79353C24.2197 4.52556 24.8857 5.55003 25.1742 6.70406L25.1955 6.80006L25.3022 6.8254C26.1791 7.04616 26.9855 7.48626 27.6455 8.10434C28.3056 8.72243 28.7977 9.49819 29.0755 10.3587L29.1515 10.6161C29.4243 11.6329 29.3901 12.7078 29.0531 13.7052C28.716 14.7027 28.0914 15.5781 27.2577 16.2211C26.4241 16.8641 25.4187 17.246 24.3684 17.3187C23.3181 17.3913 22.2698 17.1515 21.3555 16.6294L21.2928 16.5907L16.5928 21.2907L16.6488 21.3841C17.0695 22.1323 17.3033 22.971 17.3305 23.829C17.3576 24.6869 17.1773 25.5387 16.8048 26.3121L16.6688 26.5747C16.1104 27.5871 15.238 28.3905 14.1833 28.864C13.1285 29.3375 11.9485 29.4555 10.8208 29.2001C9.86595 28.9831 8.98947 28.5068 8.28793 27.8236C7.5864 27.1404 7.08703 26.2769 6.84484 25.3281L6.81418 25.2014L6.63018 25.1574C5.73517 24.9187 4.91778 24.4509 4.25848 23.8003C3.59918 23.1496 3.12071 22.3385 2.87018 21.4467L2.80351 21.1814C2.57557 20.1746 2.64473 19.1232 3.0026 18.1549C3.36046 17.1866 3.99165 16.343 4.81958 15.7264C5.64751 15.1098 6.63659 14.7467 7.66683 14.6812C8.69706 14.6157 9.72416 14.8506 10.6235 15.3574L10.7142 15.4107L15.4128 10.7121L15.3648 10.6307C14.9902 9.96866 14.7615 9.23409 14.6941 8.47634C14.6267 7.71859 14.7222 6.95519 14.9742 6.2374L15.0795 5.96406C15.483 4.98945 16.1664 4.15636 17.0433 3.57016C17.9203 2.98395 18.9513 2.67095 20.0062 2.67073L19.8208 2.67606L19.8475 2.67206L19.9995 2.66406Z" fill="#A9A9A9"/>
</g>
<defs>
<clipPath id="clip0_2147_3179">
<rect width="32" height="32" fill="white"/>
</clipPath>
</defs>
</svg>
