<svg width="32" height="32" viewBox="0 0 32 32" fill="none" xmlns="http://www.w3.org/2000/svg">
<g clip-path="url(#clip0_2147_8917)">
<path d="M31.0224 0.976707C29.7207 -0.325569 28.5527 -0.325569 27.25 0.976707L19.5488 8.67786L23.3213 12.4502L31.0224 4.74916C32.3252 3.44694 32.3252 2.27892 31.0224 0.976707ZM28.6651 3.33513C28.4053 3.07487 28.4053 2.65249 28.6651 2.39223C28.9258 2.13154 29.3476 2.13154 29.6084 2.39223C29.8692 2.65249 29.8692 3.07487 29.6084 3.33513C29.3476 3.59538 28.9258 3.59538 28.6651 3.33513Z" fill="#ED5564"/>
<path d="M19.5488 8.67773L15.3047 10.0928L21.9082 16.6952L23.3213 12.4502L19.5488 8.67773Z" fill="#E6E9ED"/>
<path d="M21.8736 12.8879C21.6138 13.1482 21.1909 13.1482 20.9302 12.8879C20.6704 12.6277 20.6704 12.2053 20.9302 11.9451C21.1909 11.6843 21.6138 11.6843 21.8736 11.9451C22.1343 12.2053 22.1343 12.6277 21.8736 12.8879Z" fill="#AAB2BC"/>
<path d="M20.0217 11.036C19.761 11.2963 19.3391 11.2963 19.0783 11.036C18.8176 10.7753 18.8176 10.3534 19.0783 10.0927C19.3391 9.8324 19.761 9.8324 20.0217 10.0927C20.2815 10.3534 20.2815 10.7753 20.0217 11.036Z" fill="#AAB2BC"/>
<path d="M20.4919 28.4841C15.8044 33.1716 8.20388 33.1716 3.51635 28.4841C-1.17212 23.7967 -1.17212 16.1956 3.51635 11.5077C8.20382 6.81971 15.8043 6.81971 20.4919 11.5077C25.1803 16.1956 25.1803 23.7967 20.4919 28.4841Z" fill="#434A54"/>
<g opacity="0.1">
<path d="M20.4921 11.5078C20.2685 11.2832 20.037 11.0698 19.7997 10.8667C23.8358 15.583 23.622 22.6874 19.1591 27.1503C14.6953 31.6141 7.59178 31.827 2.875 27.7909C3.07813 28.0282 3.29201 28.2597 3.51664 28.4843C8.2041 33.1718 15.8046 33.1718 20.4922 28.4843C25.1806 23.7968 25.1806 16.1958 20.4921 11.5078Z" fill="white"/>
</g>
<path d="M12.0048 27.3319C10.0449 27.3319 8.20308 26.5692 6.81736 25.1835C5.43165 23.7978 4.66895 21.956 4.66895 19.9961C4.66895 18.0371 5.43165 16.1944 6.81736 14.8086C8.20308 13.4234 10.0449 12.6602 12.0048 12.6602C13.9638 12.6602 15.8066 13.4234 17.1914 14.8086C18.5771 16.1943 19.3397 18.0371 19.3397 19.9961C19.3397 21.956 18.5771 23.7978 17.1914 25.1835C15.8065 26.5692 13.9638 27.3319 12.0048 27.3319Z" fill="#656D78"/>
<path d="M17.663 14.3369C16.1513 12.8257 14.1425 11.9932 12.0049 11.9932C9.86719 11.9932 7.8574 12.8257 6.34569 14.3369C4.83397 15.8486 4.00195 17.8583 4.00195 19.996C4.00195 22.1337 4.83397 24.1435 6.34569 25.6552C7.8574 27.1669 9.86719 27.9989 12.0049 27.9989C14.1425 27.9989 16.1513 27.1659 17.663 25.6552C19.1748 24.1435 20.0068 22.1337 20.0068 19.996C20.0068 17.8583 19.1748 15.8486 17.663 14.3369ZM16.7198 24.7119C15.4609 25.9716 13.7861 26.6649 12.0049 26.6649C10.2227 26.6649 8.54892 25.9716 7.28914 24.7119C6.02937 23.4521 5.33598 21.7772 5.33598 19.996C5.33598 18.2148 6.02937 16.5395 7.28914 15.2802C8.54792 14.021 10.2237 13.3271 12.0049 13.3271C13.7861 13.3271 15.4609 14.0205 16.7198 15.2802C17.9795 16.5395 18.6739 18.2148 18.6739 19.996C18.6739 21.7772 17.9795 23.452 16.7198 24.7119Z" fill="#AAB2BC"/>
</g>
<defs>
<clipPath id="clip0_2147_8917">
<rect width="32" height="32" fill="white"/>
</clipPath>
</defs>
</svg>
