<svg width="28" height="28" viewBox="0 0 28 28" fill="none" xmlns="http://www.w3.org/2000/svg">
<g clip-path="url(#clip0_3164_7396)">
<path fill-rule="evenodd" clip-rule="evenodd" d="M18.4872 1.45898C14.3338 1.45898 10.9155 4.61248 10.4803 8.63982C5.64333 8.61882 1.4585 12.6263 1.4585 17.5905C1.4585 19.9647 2.40163 22.2416 4.08043 23.9204C5.75922 25.5992 8.03616 26.5423 10.4103 26.5423C15.3745 26.5423 19.382 22.3575 19.361 17.5205C23.3883 17.0842 26.5418 13.667 26.5418 9.51365C26.5418 7.37742 25.6932 5.32868 24.1827 3.81814C22.6721 2.3076 20.6234 1.45898 18.4872 1.45898ZM11.6668 23.334V21.0007H9.3335V23.334H11.6668ZM11.6668 15.1673V17.5007H9.3335V15.1673H11.6668ZM19.8335 12.834V10.5007H17.5002V12.834H19.8335ZM16.3335 17.5007V19.834H14.0002V17.5007H16.3335Z" fill="#BEBEBE"/>
</g>
<defs>
<clipPath id="clip0_3164_7396">
<rect width="28" height="28" fill="white"/>
</clipPath>
</defs>
</svg>
