<svg width="32" height="32" viewBox="0 0 32 32" fill="none" xmlns="http://www.w3.org/2000/svg">
<g clip-path="url(#clip0_2147_3377)">
<path d="M30.0682 4.3081C27.5535 1.44923 24.2165 0.667167 20.418 2.04729L21.0173 3.69704L20.4178 2.04729H20.4173C20.0758 2.17192 19.7261 2.3146 19.377 2.47398C16.1375 3.9486 14.6724 6.78854 13.6026 8.86179C13.2844 9.47929 12.8516 10.3188 12.6154 10.5412C11.949 10.8511 11.3147 11.0975 10.6441 11.3579C8.90565 12.0315 7.10834 12.7288 4.78634 14.5287C1.5904 17.0057 0.0250228 20.126 0.000147849 24.0676C-0.0132897 26.2107 0.889648 28.0444 2.54315 29.2327C4.19027 30.4164 7.26284 31.4463 12.5456 29.6316C12.6255 29.6038 12.7043 29.576 12.7826 29.5477C17.3905 27.8739 19.4226 24.4182 20.5143 22.5615C20.7353 22.1862 20.9855 21.7604 21.1046 21.6252C21.4728 21.2077 22.4013 20.7125 23.5757 20.0852C24.7154 19.4769 26.1335 18.7199 27.8398 17.6265C30.0886 16.1862 31.5316 13.936 31.9046 11.2907C32.2707 8.68754 31.567 6.01154 30.0682 4.3081ZM26.8929 16.1482C23.1792 18.5272 20.8278 19.2851 19.7884 20.4637C18.7625 21.6266 17.361 26.0171 12.1831 27.8976C12.1146 27.9231 12.0455 27.9472 11.9753 27.9708C5.2144 30.2942 1.73284 27.6892 1.75552 24.0787C1.77571 20.8816 2.94709 18.176 5.8619 15.9166C8.87159 13.5835 10.9089 13.2824 13.4161 12.1047C15.1039 11.3125 15.7539 6.05235 20.1046 4.07179C20.4173 3.9291 20.7212 3.80448 21.0166 3.69742C24.8331 2.31079 27.2357 3.7456 28.7497 5.46767C30.7956 7.79292 31.2223 13.375 26.8929 16.1482Z" fill="#CCAA26"/>
<path d="M25.4301 8.09141C25.281 8.35785 25.3755 8.69416 25.6409 8.84335C25.9068 8.99248 26.2426 8.89798 26.3923 8.6321C26.5521 8.3481 26.6763 8.09885 26.7703 7.89591C26.864 7.69348 26.9293 7.53591 26.9663 7.44466C27.0831 7.16298 26.9483 6.84054 26.6666 6.72473C26.3849 6.60798 26.0625 6.74235 25.9466 7.02448C25.9091 7.11435 25.853 7.2506 25.7692 7.43123C25.6858 7.61198 25.5746 7.83529 25.4301 8.09141Z" fill="#CCAA26"/>
<path d="M12.6673 20.4979C12.8675 20.7277 13.2158 20.7513 13.4458 20.5507C14.117 19.9661 14.7833 19.3693 15.4343 18.781C15.6604 18.5767 15.678 18.2278 15.4737 18.0018C15.2692 17.7752 14.9205 17.7581 14.6942 17.9624C14.0458 18.548 13.384 19.14 12.7202 19.7197C12.4906 19.9197 12.467 20.2686 12.6673 20.4979Z" fill="#CCAA26"/>
<path d="M19.0552 14.058C18.4352 14.5839 17.7621 15.1829 17.0521 15.8232C16.8259 16.027 16.8081 16.3763 17.0124 16.6024C17.2166 16.8285 17.5654 16.8465 17.7914 16.6422C18.4977 16.0048 19.1632 15.4136 19.7689 14.8999C20.0013 14.7025 20.03 14.3546 19.8331 14.122C19.636 13.8899 19.2878 13.8611 19.0552 14.058Z" fill="#CCAA26"/>
<path d="M10.2993 21.7461C9.58098 22.3165 8.87585 22.8427 8.20179 23.2981C7.9491 23.4691 7.88241 23.8115 8.05304 24.0639C8.22354 24.3169 8.5666 24.3831 8.81935 24.2127C9.52473 23.7364 10.2505 23.1939 10.9852 22.6102C11.224 22.4217 11.2639 22.0742 11.0742 21.8351C10.8847 21.5965 10.5374 21.5567 10.2993 21.7461Z" fill="#CCAA26"/>
<path d="M23.6045 10.5035C23.0722 11.0456 22.4301 11.6001 21.6554 12.1296C21.4039 12.3015 21.3393 12.6452 21.5116 12.8964C21.6833 13.1479 22.027 13.2124 22.2781 13.0409C23.1139 12.4688 23.8125 11.8669 24.3916 11.2763C24.6056 11.0595 24.6024 10.7102 24.3846 10.4962C24.1678 10.283 23.8181 10.2862 23.6045 10.5035Z" fill="#CCAA26"/>
<path d="M5.54318 24.7485L5.5098 24.7605C5.12461 24.9009 4.77224 24.9866 4.4658 25.0163C4.16255 25.0455 3.94068 25.3151 3.96986 25.6185C3.99924 25.922 4.26911 26.1439 4.57236 26.1147C4.99836 26.0726 5.43568 25.9618 5.88674 25.7983L5.92499 25.784C6.2108 25.6788 6.35724 25.3614 6.2518 25.0756C6.14636 24.7893 5.82899 24.6433 5.54318 24.7485Z" fill="#CCAA26"/>
<path d="M13.573 24.3279C13.4296 24.4438 13.2825 24.5545 13.1315 24.6601C12.7418 24.9335 12.3527 25.1725 11.9693 25.3819C11.738 25.5079 11.6529 25.7975 11.7791 26.0287C11.9052 26.2593 12.1947 26.3442 12.4259 26.2186C12.8391 25.9925 13.2586 25.7353 13.6784 25.4407C13.8477 25.3221 14.0115 25.1985 14.1706 25.0701C14.3756 24.9056 14.408 24.6059 14.2429 24.4006C14.0781 24.1954 13.778 24.163 13.573 24.3279Z" fill="#CCAA26"/>
<path d="M9.74923 26.3276C9.03342 26.5541 8.38948 26.6895 7.86648 26.7738C7.60679 26.8164 7.43004 27.061 7.47198 27.3205C7.51435 27.5808 7.75873 27.7569 8.01891 27.7152C8.57835 27.6244 9.26879 27.4794 10.0372 27.2357C10.2881 27.156 10.427 26.8887 10.3474 26.6376C10.2679 26.387 10.0001 26.248 9.74923 26.3276Z" fill="#CCAA26"/>
<path d="M17.0257 20.8624C16.8026 20.7225 16.5087 20.7902 16.369 21.013C16.0377 21.5416 15.6665 22.0873 15.2485 22.6132C15.0848 22.8185 15.119 23.1187 15.3251 23.2827C15.5311 23.4462 15.831 23.4123 15.9946 23.2058C16.441 22.6443 16.8318 22.0693 17.1765 21.5194C17.3161 21.2965 17.2485 21.0023 17.0257 20.8624Z" fill="#CCAA26"/>
<path d="M19.0783 17.2178C18.6656 17.5008 18.3195 17.7885 18.074 18.136C17.9297 18.3417 17.7832 18.5844 17.6239 18.8592C17.4918 19.0867 17.5697 19.3781 17.7972 19.5096C18.0251 19.6416 18.3165 19.5643 18.4485 19.3368C18.6014 19.0723 18.7383 18.8476 18.8544 18.6831C18.9878 18.4895 19.2512 18.2523 19.6153 18.0058C19.8326 17.8571 19.889 17.561 19.7409 17.3438C19.5926 17.126 19.2963 17.0699 19.0783 17.2178Z" fill="#CCAA26"/>
<path d="M26.4644 12.4512V12.4507C26.1304 12.9275 25.7097 13.3736 25.1769 13.747L25.1741 13.7493C24.9592 13.9003 24.9063 14.1973 25.0574 14.4127C25.2089 14.6281 25.5058 14.6805 25.7217 14.5299L25.7245 14.5271C26.3574 14.0838 26.8559 13.5533 27.245 12.9973C27.3956 12.7819 27.3437 12.485 27.1277 12.3335C26.9124 12.1829 26.6149 12.2353 26.4644 12.4512Z" fill="#CCAA26"/>
<path d="M28.193 7.99464C27.9294 7.99607 27.7176 8.21051 27.719 8.4732C27.7195 8.49682 27.7153 9.30707 27.435 10.3287C27.3655 10.5821 27.5151 10.8443 27.769 10.9138C28.0224 10.9833 28.2841 10.8336 28.3541 10.5802C28.6761 9.40257 28.6714 8.49682 28.6719 8.46814C28.6706 8.20501 28.4561 7.99326 28.193 7.99464Z" fill="#CCAA26"/>
<path d="M23.0806 15.0322C22.4784 15.3631 21.8797 15.6697 21.315 15.9602C21.081 16.0811 20.9891 16.3684 21.1097 16.6027C21.2302 16.8362 21.5179 16.9285 21.7519 16.8076C22.3152 16.5176 22.9212 16.2072 23.5392 15.8676C23.7699 15.7407 23.8543 15.4511 23.7274 15.2204C23.6009 14.9896 23.3113 14.9053 23.0806 15.0322Z" fill="#CCAA26"/>
<path d="M21.1368 6.45105C20.9205 6.23699 20.5707 6.2393 20.3567 6.45611C19.7224 7.0978 19.1948 7.80386 18.7391 8.51686C18.5751 8.77399 18.6504 9.11543 18.9071 9.27893C19.1639 9.44293 19.5052 9.36786 19.6694 9.11124C20.0944 8.44549 20.5769 7.80343 21.1415 7.23168C21.3557 7.01486 21.3534 6.66555 21.1368 6.45105Z" fill="#CCAA26"/>
<path d="M23.4188 5.62122C23.5884 5.54435 23.7639 5.47204 23.9446 5.40629C24.3949 5.24316 24.8814 5.11579 25.4114 5.03291C25.7121 4.9861 25.9182 4.70347 25.8709 4.40241C25.8237 4.10129 25.5411 3.89554 25.24 3.94279C24.6419 4.03685 24.0859 4.18185 23.5684 4.36947C23.3604 4.44497 23.1584 4.52791 22.9629 4.61641C22.6854 4.74291 22.5627 5.06998 22.6887 5.34754C22.8147 5.62441 23.1417 5.74679 23.4188 5.62122Z" fill="#CCAA26"/>
<path d="M16.9883 13.9756C17.4358 13.3645 17.8196 12.5741 18.2549 11.7017C18.3906 11.4289 18.2794 11.0981 18.0066 10.9624C17.7337 10.8262 17.4027 10.9378 17.2664 11.2107C16.8339 12.0836 16.4548 12.8424 16.0994 13.3219C15.919 13.5669 15.9716 13.9121 16.2169 14.0932C16.4624 14.2734 16.8076 14.2215 16.9883 13.9756Z" fill="#CCAA26"/>
<path d="M5.33497 21.7027C5.53859 21.4757 5.52009 21.1269 5.29353 20.9235C5.06703 20.7196 4.71791 20.7378 4.51428 20.9643C3.84834 21.7074 3.32622 22.4598 3.04403 23.2353C2.94078 23.5216 3.08941 23.838 3.37597 23.9418C3.66234 24.0446 3.97872 23.8968 4.08228 23.61C4.28659 23.0379 4.72597 22.3778 5.33497 21.7027Z" fill="#CCAA26"/>
<path d="M12.009 16.7225C12.807 16.2712 13.5587 15.8825 14.1995 15.5814C14.4751 15.4522 14.5937 15.1237 14.4642 14.8475C14.3345 14.5719 14.006 14.4533 13.7301 14.5826C13.0593 14.8981 12.2863 15.2979 11.4656 15.7626C11.2004 15.9127 11.107 16.249 11.2574 16.5145C11.4075 16.7795 11.744 16.873 12.009 16.7225Z" fill="#CCAA26"/>
<path d="M9.47901 18.2813C9.7322 18.1118 9.80007 17.769 9.63026 17.5156C9.46095 17.2626 9.11807 17.195 8.86469 17.3641C8.15632 17.8395 7.45657 18.343 6.79769 18.8647C6.55863 19.0542 6.51838 19.4012 6.70782 19.6402C6.89682 19.8783 7.24407 19.9191 7.48295 19.7297C8.11438 19.2297 8.79151 18.7418 9.47901 18.2813Z" fill="#CCAA26"/>
</g>
<defs>
<clipPath id="clip0_2147_3377">
<rect width="32" height="32" fill="white"/>
</clipPath>
</defs>
</svg>
