<svg width="32" height="32" viewBox="0 0 32 32" fill="none" xmlns="http://www.w3.org/2000/svg">
<g clip-path="url(#clip0_2884_6999)">
<path d="M25.6404 28.5837C29.1005 25.7762 31.3125 21.4905 31.3125 16.6875C31.3125 8.23063 24.4569 1.375 16 1.375C7.54313 1.375 0.6875 8.23063 0.6875 16.6875C0.6875 24.5142 6.55981 30.9686 14.1387 31.8871L25.6404 28.5837Z" fill="#FFDD40"/>
<path d="M16 30.75C22.9036 30.75 28.5 25.1536 28.5 18.25C28.5 11.3464 22.9036 5.75 16 5.75C9.09644 5.75 3.5 11.3464 3.5 18.25C3.5 25.1536 9.09644 30.75 16 30.75Z" fill="#FFC839"/>
<path d="M26.5913 21.1824C27.5932 20.0743 28.3444 18.6616 28.7635 17.0971C29.3178 15.0286 29.232 12.9151 28.5219 11.146C27.74 9.19793 26.2314 7.79661 24.3829 7.3013C22.5345 6.80599 20.5273 7.2653 18.8761 8.56142C17.3766 9.73842 16.2456 11.5259 15.6913 13.5944C15.2721 15.1589 15.2163 16.7579 15.5299 18.2185C15.5995 18.5429 15.5911 18.8832 15.5055 19.2029C15.4199 19.5224 15.257 19.8215 15.0345 20.0676C14.0326 21.1756 13.2814 22.5883 12.8622 24.1528C12.308 26.2214 12.3938 28.3348 13.1039 30.1039C13.3697 30.7663 13.7198 31.3652 14.1385 31.8871C14.7487 31.9611 15.3697 31.9999 15.9999 31.9999C19.6537 31.9999 23.008 30.7194 25.6403 28.5836C25.7513 28.2815 25.8497 27.9718 25.9345 27.6554C26.3537 26.0909 26.4095 24.4919 26.0959 23.0314C26.0263 22.707 26.0347 22.3666 26.1204 22.0471C26.206 21.7275 26.3689 21.4284 26.5913 21.1824Z" fill="#A05838"/>
<path d="M18.8761 8.5614C17.3766 9.7384 16.2456 11.5258 15.6913 13.5944C15.2721 15.1589 15.2163 16.7579 15.5299 18.2185C15.5995 18.5428 15.5911 18.8832 15.5055 19.2028C15.4199 19.5224 15.257 19.8215 15.0345 20.0675C14.0326 21.1756 13.2814 22.5883 12.8622 24.1528C12.308 26.2213 12.3938 28.3348 13.1039 30.1038C13.3697 30.7663 13.7198 31.3652 14.1385 31.8871C14.7487 31.961 15.3697 31.9999 15.9999 31.9999C16.3872 31.9999 16.7712 31.9852 17.1514 31.957C16.9925 31.6773 16.8499 31.383 16.726 31.0744C16.016 29.3053 15.9302 27.1919 16.4844 25.1233C16.9036 23.5588 17.6548 22.1462 18.6567 21.0381C18.8792 20.792 19.042 20.493 19.1277 20.1734C19.2133 19.8538 19.2217 19.5134 19.1521 19.189C18.8385 17.7285 18.8943 16.1295 19.3135 14.565C19.8677 12.4964 20.9988 10.709 22.4982 9.53203C23.596 8.67034 24.851 8.17902 26.1122 8.09171C25.5836 7.73565 25.0025 7.46734 24.3829 7.30134C22.5345 6.80596 20.5274 7.26527 18.8761 8.5614Z" fill="#934A2E"/>
<path d="M20.6518 21.6979C20.6116 21.6979 20.5708 21.6927 20.5302 21.6817C20.2801 21.6148 20.1317 21.3577 20.1987 21.1076L20.5222 19.9002C20.5892 19.6501 20.8466 19.5019 21.0963 19.5688C21.3464 19.6357 21.4947 19.8929 21.4278 20.1429L21.1043 21.3503C21.0482 21.5597 20.8587 21.6979 20.6518 21.6979Z" fill="#823821"/>
<path d="M23.6704 22.5065C23.6302 22.5065 23.5894 22.5014 23.5487 22.4904C23.2987 22.4235 23.1503 22.1664 23.2172 21.9163L23.5407 20.7089C23.6078 20.4587 23.8649 20.3104 24.1149 20.3774C24.3649 20.4444 24.5133 20.7015 24.4464 20.9515L24.1229 22.159C24.0667 22.3684 23.8773 22.5065 23.6704 22.5065Z" fill="#823821"/>
<path d="M22.27 15.6609C22.2298 15.6609 22.189 15.6557 22.1483 15.6447C21.8983 15.5778 21.7499 15.3207 21.8168 15.0706L22.1403 13.8632C22.2073 13.6132 22.4646 13.4645 22.7145 13.5318C22.9645 13.5987 23.1129 13.8559 23.046 14.1059L22.7225 15.3133C22.6663 15.5227 22.4769 15.6609 22.27 15.6609Z" fill="#823821"/>
<path d="M25.2885 16.4694C25.2483 16.4694 25.2075 16.4642 25.1669 16.4532C24.9168 16.3863 24.7685 16.1292 24.8354 15.8791L25.1589 14.6717C25.2259 14.4216 25.4833 14.2733 25.733 14.3403C25.9831 14.4072 26.1315 14.6644 26.0645 14.9144L25.741 16.1218C25.6849 16.3312 25.4955 16.4694 25.2885 16.4694Z" fill="#823821"/>
<path d="M19.2514 14.8513C19.2112 14.8513 19.1704 14.8461 19.1298 14.8352C18.8797 14.7682 18.7314 14.5111 18.7983 14.261L19.1218 13.0537C19.1888 12.8036 19.4461 12.655 19.6959 12.7222C19.946 12.7892 20.0944 13.0463 20.0274 13.2964L19.7039 14.5037C19.6478 14.7132 19.4584 14.8513 19.2514 14.8513Z" fill="#823821"/>
<path d="M19.0346 27.735C18.9944 27.735 18.9536 27.7298 18.913 27.7189C18.6629 27.6519 18.5146 27.3948 18.5815 27.1447L18.905 25.9374C18.972 25.6872 19.2293 25.5389 19.4791 25.6059C19.7292 25.6729 19.8776 25.93 19.8106 26.1801L19.4871 27.3874C19.431 27.5969 19.2416 27.735 19.0346 27.735Z" fill="#823821"/>
<path d="M22.0531 28.5436C22.0129 28.5436 21.9721 28.5384 21.9315 28.5275C21.6814 28.4605 21.5331 28.2034 21.6001 27.9534L21.9236 26.746C21.9906 26.4959 22.2479 26.3475 22.4978 26.4145C22.7478 26.4815 22.8962 26.7386 22.8292 26.9887L22.5056 28.196C22.4495 28.4055 22.2601 28.5436 22.0531 28.5436Z" fill="#823821"/>
<path d="M22.9702 19.0837C22.93 19.0837 22.8892 19.0785 22.8485 19.0675C22.5985 19.0006 22.4501 18.7435 22.517 18.4934L22.8405 17.286C22.9076 17.036 23.1649 16.8875 23.4147 16.9546C23.6647 17.0215 23.8131 17.2787 23.7462 17.5287L23.4227 18.7361C23.3665 18.9455 23.1771 19.0837 22.9702 19.0837Z" fill="#823821"/>
<path d="M24.5873 13.0466C24.5471 13.0466 24.5063 13.0414 24.4657 13.0305C24.2156 12.9635 24.0673 12.7064 24.1343 12.4564L24.4578 11.2489C24.5249 10.9989 24.7821 10.8504 25.0319 10.9175C25.282 10.9845 25.4304 11.2415 25.3634 11.4916L25.0398 12.699C24.9837 12.9085 24.7943 13.0466 24.5873 13.0466Z" fill="#823821"/>
<path d="M21.353 25.1208C21.3128 25.1208 21.272 25.1156 21.2314 25.1047C20.9813 25.0377 20.8329 24.7806 20.8999 24.5306L21.2234 23.3232C21.2904 23.0731 21.5478 22.9246 21.7975 22.9917C22.0475 23.0587 22.1959 23.3158 22.129 23.5659L21.8055 24.7732C21.7494 24.9827 21.5599 25.1208 21.353 25.1208Z" fill="#823821"/>
<path d="M16.7163 30.3484C16.6761 30.3484 16.6353 30.3432 16.5946 30.3323C16.3446 30.2653 16.1962 30.0082 16.2631 29.7582L16.5866 28.5507C16.6537 28.3007 16.9108 28.1521 17.1608 28.2193C17.4108 28.2862 17.5592 28.5433 17.4923 28.7934L17.1688 30.0008C17.1126 30.2103 16.9232 30.3484 16.7163 30.3484Z" fill="#823821"/>
<path d="M16.3085 6.48792C16.7277 8.05242 16.7835 9.65142 16.4699 11.112C16.4003 11.4363 16.4087 11.7767 16.4943 12.0963C16.5799 12.4159 16.7428 12.7149 16.9653 12.961C17.9672 14.069 18.7184 15.4817 19.1376 17.0462C19.6918 19.1148 19.606 21.2282 18.8959 22.9973C18.114 24.9454 16.6054 26.3467 14.7569 26.842C12.9085 27.3374 10.9013 26.878 9.25013 25.5819C7.75063 24.4049 6.61963 22.6175 6.06531 20.549C5.64613 18.9845 5.59031 17.3855 5.90394 15.9249C5.97356 15.6006 5.96513 15.2602 5.8795 14.9406C5.79388 14.621 5.631 14.322 5.4085 14.0759C4.40663 12.9679 3.65544 11.5552 3.23625 9.99067C2.682 7.9221 2.76781 5.80867 3.47788 4.03961C4.25981 2.09148 5.76844 0.690167 7.61688 0.194855C9.46531 -0.300458 11.4725 0.158855 13.1237 1.45498C14.6232 2.63198 15.7543 4.41935 16.3085 6.48792Z" fill="#B76C4E"/>
<path d="M7.61688 0.195312C5.76844 0.690625 4.25981 2.09194 3.47788 4.04006C2.76781 5.80912 2.682 7.92256 3.23625 9.99113C3.65544 11.5556 4.40663 12.9683 5.4085 14.0764C5.631 14.3224 5.79388 14.6215 5.8795 14.9411C5.96513 15.2606 5.97356 15.6011 5.90394 15.9254C5.59031 17.3859 5.64613 18.9849 6.06531 20.5494C6.61956 22.618 7.75063 24.4054 9.25013 25.5824C10.9014 26.8785 12.9085 27.3378 14.7569 26.8425C14.2016 26.9913 13.6308 26.6617 13.4819 26.1064C13.3331 25.551 13.6627 24.9802 14.2181 24.8314L8.15569 2.20637C7.60031 2.35519 7.0295 2.02562 6.88069 1.47025C6.73194 0.914937 7.0615 0.344063 7.61688 0.195312Z" fill="#A05838"/>
<path d="M5.2471 9.45173C5.59204 10.7392 6.19642 11.8432 6.9526 12.6795C7.8551 13.6776 8.22185 15.0463 7.93929 16.362C7.7026 17.4644 7.73117 18.7227 8.07617 20.0101C8.98267 23.3933 11.6804 25.5109 14.2178 24.831C16.7552 24.1511 18.0327 20.9684 17.1262 17.5852C16.7812 16.2977 16.1769 15.1937 15.4207 14.3574C14.5182 13.3593 14.1514 11.9906 14.434 10.6749C14.6707 9.57255 14.6421 8.31423 14.2971 7.0268C13.3906 3.64361 10.6929 1.52605 8.15548 2.20592C5.6181 2.8858 4.3406 6.06861 5.2471 9.45173Z" fill="#F3D6AC"/>
<path d="M12.3499 18.8648C12.0049 17.5774 11.9763 16.3191 12.213 15.2167C12.4955 13.901 12.1287 12.5324 11.2263 11.5342C10.4701 10.6978 9.86573 9.59383 9.52079 8.30645C8.89217 5.96033 9.31404 3.71089 10.4779 2.32539C9.72616 2.0522 8.93335 1.99739 8.1556 2.20577C5.6181 2.8857 4.3406 6.06845 5.2471 9.45158C5.59204 10.739 6.19642 11.843 6.9526 12.6793C7.8551 13.6775 8.22185 15.0461 7.93929 16.3618C7.7026 17.4642 7.73117 18.7225 8.07617 20.01C8.98267 23.3931 11.6804 25.5107 14.2178 24.8308C14.9956 24.6224 15.6547 24.1785 16.1691 23.5661C14.4686 22.9481 12.9785 21.211 12.3499 18.8648Z" fill="#EABE8D"/>
<path d="M13.8195 23.3229C15.4857 22.8761 16.2931 20.4879 15.6231 17.9887C14.953 15.4894 13.059 13.8255 11.3929 14.2722C9.72668 14.7189 8.9192 17.1071 9.58929 19.6064C10.2594 22.1057 12.1533 23.7696 13.8195 23.3229Z" fill="#F8E6CC"/>
<path d="M11.5961 19.0669C11.0682 17.0967 11.4586 15.196 12.4638 14.2608C12.1046 14.1783 11.7418 14.178 11.3892 14.2725C9.72314 14.7189 8.91539 17.1067 9.58502 19.6058C10.2546 22.1048 12.1481 23.7689 13.8141 23.3224C14.1668 23.228 14.4808 23.0463 14.7506 22.7952C13.4125 22.4879 12.124 21.0371 11.5961 19.0669Z" fill="#F3D6AC"/>
<path d="M10.9875 12.7643C12.6536 12.3176 13.4611 9.92934 12.791 7.43006C12.1209 4.93078 10.227 3.26686 8.56082 3.71359C6.89465 4.16032 6.08717 6.54853 6.75726 9.04781C7.42736 11.5471 9.32128 13.211 10.9875 12.7643Z" fill="#F8E6CC"/>
<path d="M8.76698 8.50829C8.2391 6.53811 8.62954 4.63742 9.63473 3.70223C9.27548 3.61973 8.91273 3.61936 8.5601 3.71386C6.89404 4.16029 6.08629 6.54811 6.75591 9.04717C7.42554 11.5462 9.31898 13.2103 10.985 12.7639C11.3377 12.6694 11.6517 12.4877 11.9215 12.2366C10.5834 11.9293 9.29491 10.4784 8.76698 8.50829Z" fill="#F3D6AC"/>
</g>
<defs>
<clipPath id="clip0_2884_6999">
<rect width="32" height="32" fill="white"/>
</clipPath>
</defs>
</svg>
