<svg width="42" height="32" viewBox="0 0 42 32" fill="none" xmlns="http://www.w3.org/2000/svg">
<path d="M9.96216 17.759C11.4719 17.759 12.6958 17.1622 12.6958 16.4261C12.6958 15.69 11.4719 15.0933 9.96216 15.0933C8.45241 15.0933 7.22852 15.69 7.22852 16.4261C7.22852 17.1622 8.45241 17.759 9.96216 17.759Z" fill="#F5E3CB"/>
<path d="M10.9322 30.4497C11.0704 30.4868 11.1585 30.5073 11.3097 30.5242C11.7583 30.5746 12.1817 30.526 12.4874 30.395L12.5156 30.29L12.5907 30.4087C12.7239 30.5223 12.8894 30.6199 13.0808 30.7323C13.2963 30.8591 13.5408 31.0033 13.8127 31.2116C13.9841 31.3433 14.0297 31.5164 13.9347 31.6741C13.8317 31.8451 13.5945 31.955 13.3579 31.9414C13.3207 31.9393 13.2841 31.9342 13.2485 31.9262C13.009 31.9233 12.7078 31.9022 12.4195 31.8795C12.2634 31.8676 12.1076 31.8553 11.9528 31.8465L11.9082 31.8442C11.576 31.8253 11.108 31.7647 10.88 31.4604C10.7545 31.2935 10.7402 31.1092 10.751 30.9436L10.8291 30.422L10.9322 30.4497Z" fill="#421E44"/>
<path d="M10.4346 15.2204C10.4346 20.0544 10.4346 24.8883 10.4346 29.7223C10.4346 31.2707 12.8358 31.2707 12.8358 29.7223C12.8358 24.8884 12.8358 20.0544 12.8358 15.2204C12.8358 13.672 10.4346 13.672 10.4346 15.2204Z" fill="#F5E3CB"/>
<path d="M7.73097 30.4497C7.86914 30.4868 7.95719 30.5073 8.10846 30.5242C8.55698 30.5746 8.98039 30.526 9.28614 30.395L9.31435 30.29L9.38939 30.4087C9.52266 30.5223 9.68814 30.6199 9.87953 30.7323C10.095 30.8591 10.3396 31.0033 10.6115 31.2116C10.783 31.3433 10.8285 31.5164 10.7336 31.6741C10.6305 31.8451 10.3933 31.955 10.1568 31.9414C10.1195 31.9393 10.0829 31.9342 10.0473 31.9262C9.8078 31.9233 9.50665 31.9022 9.21831 31.8795C9.06223 31.8676 8.90645 31.8553 8.75168 31.8465L8.70706 31.8442C8.37479 31.8253 7.90686 31.7647 7.67885 31.4604C7.55329 31.2935 7.53898 31.1092 7.54979 30.9436L7.62792 30.422L7.73097 30.4497Z" fill="#421E44"/>
<path d="M7.22754 15.2204C7.22754 20.0544 7.22754 24.8883 7.22754 29.7223C7.22754 31.2707 9.62872 31.2707 9.62872 29.7223C9.62872 24.8884 9.62872 20.0544 9.62872 15.2204C9.62862 13.672 7.22754 13.672 7.22754 15.2204Z" fill="#F5E3CB"/>
<path d="M2.04331 3.98349L3.06782 3.56968L2.78558 3.07274C2.99508 2.86724 3.06912 2.5884 2.95126 2.3837C3.08392 2.23263 3.22239 2.08685 3.37287 1.95339C3.48102 1.85714 3.45751 1.66985 3.35946 1.5785C3.2462 1.47305 3.09263 1.49596 2.98478 1.59201C2.87102 1.69286 2.76457 1.80101 2.66192 1.91267L2.54806 1.72808C2.52525 1.69116 2.49704 1.65924 2.46452 1.63163C2.4246 1.40692 2.4184 1.17801 2.41059 0.949595C2.39929 0.607227 1.86883 0.620333 1.88023 0.962201C1.88674 1.154 1.89464 1.34639 1.91665 1.53688C1.90925 1.53878 1.90134 1.54139 1.89414 1.54329C1.76007 1.33558 1.6221 1.13028 1.47623 0.929885C1.27603 0.65545 0.823212 0.931586 1.02471 1.20822C1.16388 1.39912 1.29584 1.59471 1.42411 1.79271L1.33636 1.84674C1.18109 1.66875 1.02571 1.49076 0.870335 1.31277C0.645925 1.05545 0.286048 1.44564 0.509058 1.70116C0.641223 1.85284 0.773688 2.00451 0.906053 2.15619C0.899349 2.16369 0.892846 2.1712 0.886443 2.179C0.713758 2.11357 0.540773 2.04984 0.381195 1.95519C0.0867501 1.7808 -0.162272 2.24943 0.131772 2.42332C0.321566 2.53568 0.530568 2.60471 0.734469 2.68465C0.744474 2.72997 0.760881 2.77379 0.785794 2.81411L1.18319 3.45903C1.30185 3.65152 1.56148 3.71816 1.82591 3.64692L2.04331 3.98349Z" fill="#FF8A64"/>
<path d="M12.0068 4.75658C12.0068 5.67173 11.2648 6.41359 10.3498 6.41359H9.52127C8.60622 6.41359 7.86426 5.67173 7.86426 4.75658V3.18241C7.86426 2.26716 8.60622 1.52539 9.52127 1.52539H10.3498C11.2648 1.52539 12.0068 2.26716 12.0068 3.18241V4.75658Z" fill="#FF8A64"/>
<path d="M10.6826 5.48145H9.19141V8.13265H10.6826V5.48145Z" fill="#FF8A64"/>
<path d="M9.12128 4.02385C9.24945 3.84946 9.50747 3.90929 9.59402 4.08958C9.62193 4.14771 9.70817 4.09698 9.68036 4.03906C9.5578 3.78373 9.20353 3.74391 9.03494 3.97332C8.99662 4.02545 9.08347 4.07527 9.12128 4.02385Z" fill="#632812"/>
<path d="M11.6703 3.97332C11.5017 3.74391 11.1474 3.78373 11.025 4.03906C10.9972 4.09698 11.0835 4.14771 11.1113 4.08958C11.1978 3.90939 11.4557 3.84956 11.5839 4.02385C11.6218 4.07527 11.7086 4.02545 11.6703 3.97332Z" fill="#632812"/>
<path d="M8.22734 3.83321C8.25486 3.77818 8.27627 3.73276 8.28897 3.70975C8.47807 3.36718 8.60513 2.56119 8.48497 2.1787C8.37672 1.83543 7.61875 1.3594 7.61434 2.05024C7.61014 2.70186 7.55902 3.35738 7.7225 3.99269C7.85796 4.51875 8.10408 4.07973 8.22734 3.83321Z" fill="#1A1636"/>
<path d="M13.1511 9.15157C13.0212 7.33297 10.3303 6.88555 9.8877 6.82412L9.8875 6.81592C9.8875 6.81592 9.8759 6.81732 9.85609 6.81982C9.83628 6.81732 9.82467 6.81592 9.82467 6.81592L9.82447 6.82412C9.38185 6.88545 6.69093 7.33297 6.56097 9.15157C6.4194 11.1334 6.56097 16.4063 6.56097 16.4063H9.57695H10.1353H13.1513C13.1511 16.4064 13.2928 11.1334 13.1511 9.15157Z" fill="#FF8A64"/>
<path d="M7.88689 7.9141C8.102 7.79204 8.27968 7.93021 7.8997 7.80715C7.99224 7.85207 7.96483 7.83906 7.81746 7.76833C7.69109 7.7081 7.56883 7.63867 7.44627 7.57123C6.97764 7.31371 6.61617 7.01176 6.23888 6.62997C5.40767 5.78886 4.79407 4.75975 4.13675 3.78317C3.73365 3.18438 2.97518 2.92395 2.32095 3.30704C1.72686 3.65511 1.44032 4.52183 1.84492 5.12273C2.72195 6.42547 3.56627 7.78054 4.72404 8.85817C5.84198 9.89848 7.7109 11.0658 9.22655 10.2058C10.7147 9.36151 9.37762 7.06819 7.88689 7.9141Z" fill="#002B4D"/>
<path d="M9.56445 5.13965H11.0508C11.0508 5.13965 10.2545 6.04209 9.56445 5.13965Z" fill="white"/>
<path d="M11.8648 1.03477C11.8434 0.710409 11.6666 0.410761 11.263 0.203059C11.0049 0.0701938 10.6884 -0.0214512 10.3959 0.00436145C10.1724 0.0240711 9.98972 0.086002 9.81593 0.228772C9.07307 0.148633 8.24716 0.364439 7.72311 0.801754C7.04057 1.37123 6.98314 2.46207 7.81575 2.89879C8.16672 3.08298 8.54151 3.04506 8.88097 2.86157C8.98453 2.80554 9.17682 2.58483 9.3452 2.44106C9.52649 2.77362 9.87066 2.95351 10.3505 2.85766C11.0947 2.70879 11.9156 1.80285 11.8648 1.03477Z" fill="#1A1636"/>
<path d="M8.32459 4.2088C8.31768 4.18379 8.30808 4.15948 8.29727 4.13577C8.3451 4.02531 8.3567 3.90075 8.32459 3.78409C8.28457 3.63852 8.19612 3.55438 8.08067 3.46684C7.84755 3.29025 7.5482 3.26334 7.28898 3.3957C7.05476 3.51526 6.9407 3.8025 6.94341 4.05253C6.94591 4.28684 7.03625 4.49764 7.18933 4.67193C7.37012 4.87783 7.69908 4.95127 7.9539 4.86182C8.22664 4.76607 8.40533 4.50235 8.32459 4.2088Z" fill="#FF8A64"/>
<mask id="mask0_2147_7671" style="mask-type:luminance" maskUnits="userSpaceOnUse" x="6" y="7" width="8" height="10">
<path d="M13.1453 9.15617C13.0639 8.01601 11.9759 7.41481 11.0662 7.10986C10.8851 7.58319 10.4471 7.91756 9.93477 7.91756C9.40511 7.91756 8.95549 7.56008 8.7864 7.06104C7.85074 7.34878 6.64115 7.95137 6.55511 9.15607C6.41354 11.1379 6.55511 16.4108 6.55511 16.4108H9.57109H10.1295H13.1454C13.1453 16.411 13.287 11.138 13.1453 9.15617Z" fill="white"/>
</mask>
<g mask="url(#mask0_2147_7671)">
<path d="M13.1473 9.15665C13.0659 8.01649 11.9778 7.4153 11.0682 7.11035C10.8871 7.58368 10.4491 7.91805 9.93672 7.91805C9.40706 7.91805 8.95744 7.56057 8.78836 7.06152C7.8527 7.34926 6.6431 7.95186 6.55706 9.15655C6.41549 11.1384 6.55706 16.4113 6.55706 16.4113H9.57304H10.1314H13.1474C13.1473 16.4115 13.289 11.1385 13.1473 9.15665Z" fill="#002B4D"/>
</g>
<mask id="mask1_2147_7671" style="mask-type:luminance" maskUnits="userSpaceOnUse" x="6" y="7" width="8" height="10">
<path d="M13.1453 9.15617C13.0639 8.01601 11.9759 7.41481 11.0662 7.10986C10.8851 7.58319 10.4471 7.91756 9.93477 7.91756C9.40511 7.91756 8.95549 7.56008 8.7864 7.06104C7.85074 7.34878 6.64115 7.95137 6.55511 9.15607C6.41354 11.1379 6.55511 16.4108 6.55511 16.4108H9.57109H10.1295H13.1454C13.1453 16.411 13.287 11.138 13.1453 9.15617Z" fill="white"/>
</mask>
<g mask="url(#mask1_2147_7671)">
<path d="M7.81016 6.52545C7.80856 8.63549 7.7015 10.7428 7.57544 12.8486C7.46019 14.7733 7.2824 16.6989 7.2793 18.6285C7.2792 18.693 7.37925 18.693 7.37935 18.6285C7.38235 16.7315 7.55543 14.8384 7.66959 12.9462C7.79855 10.808 7.90851 8.6681 7.91021 6.52545C7.91021 6.46092 7.81016 6.46092 7.81016 6.52545Z" fill="white"/>
</g>
<mask id="mask2_2147_7671" style="mask-type:luminance" maskUnits="userSpaceOnUse" x="6" y="7" width="8" height="10">
<path d="M13.1453 9.15617C13.0639 8.01601 11.9759 7.41481 11.0662 7.10986C10.8851 7.58319 10.4471 7.91756 9.93477 7.91756C9.40511 7.91756 8.95549 7.56008 8.7864 7.06104C7.85074 7.34878 6.64115 7.95137 6.55511 9.15607C6.41354 11.1379 6.55511 16.4108 6.55511 16.4108H9.57109H10.1295H13.1454C13.1453 16.411 13.287 11.138 13.1453 9.15617Z" fill="white"/>
</mask>
<g mask="url(#mask2_2147_7671)">
<path d="M9.45528 7.16654C9.45408 9.15662 9.37964 11.1455 9.35573 13.1354C9.34362 14.1414 9.37324 15.1463 9.37254 16.1521C9.37224 16.6666 9.34543 17.1738 9.27649 17.6838C9.21476 18.1404 9.14182 18.5955 9.13672 19.0573C9.13602 19.1218 9.23607 19.1218 9.23677 19.0573C9.24207 18.5731 9.32091 18.0957 9.38554 17.617C9.44697 17.1623 9.46789 16.709 9.47209 16.2505C9.48139 15.2451 9.44427 14.24 9.45458 13.2344C9.47529 11.2116 9.55393 9.18973 9.55523 7.16674C9.55533 7.10201 9.45528 7.10201 9.45528 7.16654Z" fill="white"/>
</g>
<mask id="mask3_2147_7671" style="mask-type:luminance" maskUnits="userSpaceOnUse" x="6" y="7" width="8" height="10">
<path d="M13.1453 9.15617C13.0639 8.01601 11.9759 7.41481 11.0662 7.10986C10.8851 7.58319 10.4471 7.91756 9.93477 7.91756C9.40511 7.91756 8.95549 7.56008 8.7864 7.06104C7.85074 7.34878 6.64115 7.95137 6.55511 9.15607C6.41354 11.1379 6.55511 16.4108 6.55511 16.4108H9.57109H10.1295H13.1454C13.1453 16.411 13.287 11.138 13.1453 9.15617Z" fill="white"/>
</mask>
<g mask="url(#mask3_2147_7671)">
<path d="M11.4246 6.73507C11.2968 7.58759 11.3388 8.44911 11.3322 9.30794C11.3248 10.2698 11.2423 11.2317 11.2195 12.1936C11.177 13.9894 11.2844 15.8618 10.8406 17.6172C10.8248 17.6798 10.9213 17.7064 10.9371 17.6438C11.3589 15.9756 11.2909 14.1909 11.3141 12.4828C11.3274 11.5109 11.3955 10.5418 11.4273 9.57087C11.458 8.6334 11.3815 7.69364 11.521 6.76178C11.5306 6.69855 11.4341 6.67134 11.4246 6.73507Z" fill="white"/>
</g>
<mask id="mask4_2147_7671" style="mask-type:luminance" maskUnits="userSpaceOnUse" x="6" y="7" width="8" height="10">
<path d="M13.1453 9.15617C13.0639 8.01601 11.9759 7.41481 11.0662 7.10986C10.8851 7.58319 10.4471 7.91756 9.93477 7.91756C9.40511 7.91756 8.95549 7.56008 8.7864 7.06104C7.85074 7.34878 6.64115 7.95137 6.55511 9.15607C6.41354 11.1379 6.55511 16.4108 6.55511 16.4108H9.57109H10.1295H13.1454C13.1453 16.411 13.287 11.138 13.1453 9.15617Z" fill="white"/>
</mask>
<g mask="url(#mask4_2147_7671)">
<path d="M12.644 7.47906C12.644 9.36099 12.644 11.2428 12.644 13.1247C12.644 14.0382 12.6817 14.9608 12.6354 15.8732C12.602 16.5279 12.4354 17.2694 12.6988 17.8968C12.7234 17.9553 12.8203 17.9297 12.7952 17.8702C12.5284 17.2348 12.7052 16.4672 12.7389 15.8028C12.784 14.9144 12.7439 14.0143 12.7439 13.1247C12.7439 11.2428 12.7439 9.36099 12.7439 7.47906C12.744 7.41453 12.644 7.41453 12.644 7.47906Z" fill="white"/>
</g>
<path d="M11.2127 3.22914C11.3694 3.18302 11.5141 3.22024 11.6329 3.33209C11.7736 3.46476 11.9862 3.25296 11.8451 3.11989C11.6502 2.9361 11.3924 2.86326 11.1328 2.9397C10.9476 2.99423 11.0266 3.28397 11.2127 3.22914Z" fill="#1A1636"/>
<path d="M9.51664 3.27056C9.36306 3.22534 9.22179 3.26146 9.10543 3.37121C8.95616 3.51198 8.73055 3.28717 8.88032 3.146C9.07752 2.96001 9.33875 2.88607 9.60138 2.96351C9.79787 3.02134 9.71413 3.32879 9.51664 3.27056Z" fill="#1A1636"/>
<path d="M10.5896 3.25606C10.4657 3.49188 10.4271 3.70498 10.5017 3.96361C10.5454 4.11488 10.9164 4.72978 10.5001 4.69107C10.4359 4.68506 10.4365 4.78521 10.5001 4.79112C10.7122 4.81082 10.8061 4.68526 10.7939 4.48156C10.7869 4.36471 10.7388 4.25785 10.6882 4.1546C10.543 3.85826 10.5183 3.60653 10.676 3.30659C10.706 3.24946 10.6197 3.19893 10.5896 3.25606Z" fill="#632812"/>
<path d="M20.8697 6.24655C21.1658 5.98422 21.4049 5.66816 21.4513 5.26597C21.5497 4.41795 20.8827 3.9105 20.1319 3.77273C19.9951 3.74772 19.851 3.72781 19.7248 3.66618C19.6542 3.63166 19.8805 3.26238 19.9144 3.18884C20.1081 2.76914 20.1095 2.25549 19.8863 1.84308C19.2827 0.728735 17.3945 0.380364 16.3836 1.17646C16.2764 1.10762 16.1413 1.07591 15.9847 1.10872C15.285 1.25499 14.784 1.75404 14.5256 2.40856C14.4128 2.6945 14.4007 3.07069 14.2033 3.3124C13.9456 3.62806 13.6092 3.84417 13.3746 4.18433C12.9659 4.77683 13.4405 5.44535 13.9374 5.76971C14.0088 5.81634 13.6633 6.27166 13.6052 6.41753C13.4652 6.76871 13.5486 7.08176 13.7003 7.41232C13.9316 7.91577 14.5007 8.01622 14.991 8.02382C15.0263 8.02432 15.052 8.02883 15.0713 8.03363C15.0885 8.13178 15.0543 8.28755 15.0507 8.36269C15.0367 8.66004 15.0758 8.97969 15.2039 9.25043C15.4905 9.85612 16.1224 9.92636 16.7033 9.73817C17.2125 9.57329 17.5899 9.07854 17.7458 8.55238C17.7601 8.54058 17.7737 8.52787 17.7868 8.51416C17.8487 8.54418 17.9086 8.57759 17.9664 8.61461C18.1027 8.69635 18.2074 8.90926 18.2972 9.03542C18.5057 9.32856 18.7506 9.61621 19.1016 9.73757C19.9888 10.0443 20.832 9.38139 21.1431 8.5847C21.2809 8.23172 21.1628 7.80532 20.9416 7.51827C20.766 7.29066 20.4876 7.13669 20.3334 6.89907C20.2359 6.74889 20.7768 6.32879 20.8697 6.24655Z" fill="#C1362B"/>
<path d="M18.786 9.65255C18.5339 10.9639 19.2383 12.1909 19.8219 13.3147C20.5325 14.6827 21.3127 16.015 22.1566 17.3047C22.8688 18.3926 24.5492 17.2763 23.8355 16.1859C22.7135 14.4713 21.7601 12.8117 21.1206 10.8739C20.8781 10.139 19.1411 7.80684 18.786 9.65255Z" fill="#9E0008"/>
<path d="M14.9375 24.1675C14.9375 26.2378 14.9375 28.3081 14.9375 30.3784C14.9375 31.2977 16.3632 31.2977 16.3632 30.3784C16.3632 28.3082 16.3632 26.2379 16.3632 24.1675C16.3632 23.2482 14.9375 23.2482 14.9375 24.1675Z" fill="#FF8A64"/>
<path d="M16.5276 30.9992L16.4525 30.4776L16.3533 30.5052C16.2204 30.5425 16.1357 30.5628 15.9903 30.5798C15.7605 30.6068 15.527 30.6075 15.2979 30.573C15.1523 30.5509 14.8809 30.4018 14.746 30.4752C14.6998 30.5005 14.6565 30.5478 14.6129 30.579C14.508 30.6544 14.3971 30.7209 14.287 30.7879C14.0798 30.9148 13.8447 31.0587 13.5832 31.2672C13.4183 31.3989 13.3745 31.5721 13.4658 31.7298C13.565 31.9007 13.7931 32.0106 14.0205 31.9971C14.0562 31.9951 14.0915 31.9899 14.1257 31.9821C14.3561 31.979 14.6457 31.9581 14.923 31.9352C15.0731 31.9233 15.2229 31.911 15.3717 31.9021L15.4147 31.8996C15.7342 31.8808 16.1842 31.8203 16.4034 31.5161C16.5242 31.3493 16.538 31.165 16.5276 30.9992Z" fill="#D42D00"/>
<path d="M17.7666 24.1675C17.7666 26.2378 17.7666 28.3081 17.7666 30.3784C17.7666 31.2977 19.1923 31.2977 19.1923 30.3784C19.1923 28.3082 19.1923 26.2379 19.1923 24.1675C19.1923 23.2482 17.7666 23.2482 17.7666 24.1675Z" fill="#FF8A64"/>
<path d="M17.5663 30.9992L17.6414 30.4776L17.7405 30.5052C17.8734 30.5425 17.9581 30.5628 18.1036 30.5798C18.3333 30.6068 18.5669 30.6075 18.796 30.573C18.9415 30.5509 19.213 30.4018 19.3479 30.4752C19.3941 30.5005 19.4374 30.5478 19.481 30.579C19.5859 30.6544 19.6968 30.7209 19.8068 30.7879C20.0141 30.9148 20.2492 31.0587 20.5107 31.2672C20.6756 31.3989 20.7193 31.5721 20.6281 31.7298C20.5289 31.9007 20.3008 32.0106 20.0733 31.9971C20.0376 31.9951 20.0024 31.9899 19.9681 31.9821C19.7377 31.979 19.4481 31.9581 19.1708 31.9352C19.0207 31.9233 18.8709 31.911 18.7221 31.9021L18.6792 31.8996C18.3597 31.8808 17.9097 31.8203 17.6903 31.5161C17.5696 31.3493 17.5559 31.165 17.5663 30.9992Z" fill="#D42D00"/>
<path d="M19.0673 5.4558C19.0673 6.37105 18.3255 7.11281 17.4103 7.11281H16.5818C15.6668 7.11281 14.9248 6.37095 14.9248 5.4558V3.88162C14.9248 2.96637 15.6668 2.22461 16.5818 2.22461H17.4103C18.3254 2.22461 19.0673 2.96637 19.0673 3.88162V5.4558Z" fill="#FF8A64"/>
<path d="M17.7393 6.18066H16.248V8.83187H17.7393V6.18066Z" fill="#FF8A64"/>
<path d="M19.8941 9.85089C19.7766 8.03229 17.3408 7.58487 16.9402 7.52344L16.94 7.51514C16.94 7.51514 16.9295 7.51654 16.9115 7.51904C16.8936 7.51654 16.8831 7.51514 16.8831 7.51514L16.8829 7.52344C16.4823 7.58477 14.0466 8.03219 13.929 9.85089C13.8009 11.8328 13.929 16.1502 13.929 16.1502H16.659H17.1643H19.8942C19.8942 16.1502 20.0223 11.8328 19.8941 9.85089Z" fill="#FF8A64"/>
<path d="M15.5238 4.91622C15.5169 4.89121 15.5073 4.867 15.4964 4.84329C15.5442 4.73283 15.5558 4.60827 15.5238 4.49161C15.4838 4.34604 15.3953 4.2619 15.2799 4.17436C15.0468 3.99777 14.7474 3.97086 14.4882 4.10322C14.254 4.22278 14.1398 4.51002 14.1426 4.76004C14.1451 4.99436 14.2355 5.20516 14.3885 5.37945C14.5693 5.58535 14.8984 5.65879 15.1531 5.56934C15.4258 5.4736 15.6045 5.20987 15.5238 4.91622Z" fill="#FF8A64"/>
<path d="M17.3172 3.96014C17.1933 4.19595 17.1547 4.40906 17.2293 4.66769C17.273 4.81896 17.644 5.43386 17.2277 5.39524C17.1634 5.38924 17.1639 5.48939 17.2277 5.49529C17.4398 5.515 17.5337 5.38944 17.5215 5.18574C17.5145 5.06888 17.4664 4.96203 17.4158 4.85878C17.2706 4.56243 17.2459 4.31071 17.4036 4.01076C17.4336 3.95364 17.3472 3.90301 17.3172 3.96014Z" fill="#632812"/>
<path d="M15.9502 4.73395C15.9502 4.90013 16.0294 5.0348 16.1272 5.0348C16.2249 5.0348 16.3041 4.90013 16.3041 4.73395C16.3041 4.56777 16.2249 4.43311 16.1272 4.43311C16.0294 4.43311 15.9502 4.56777 15.9502 4.73395Z" fill="#632812"/>
<path d="M18.0273 4.73395C18.0273 4.90013 18.1066 5.0348 18.2043 5.0348C18.3021 5.0348 18.3813 4.90013 18.3813 4.73395C18.3813 4.56777 18.3021 4.43311 18.2043 4.43311C18.1066 4.43311 18.0273 4.56777 18.0273 4.73395Z" fill="#632812"/>
<path d="M16.4781 5.77892C16.6229 6.15291 17.1207 6.26827 17.4376 6.03605C17.5149 5.97952 17.4401 5.84916 17.3619 5.90649C17.1318 6.07497 16.7354 6.02965 16.6227 5.739C16.5882 5.64976 16.443 5.68858 16.4781 5.77892Z" fill="#632812"/>
<path d="M19.3444 3.01613C19.0487 2.22274 18.3763 1.9322 17.6671 1.58413C17.4952 1.49969 17.329 1.51129 17.1925 1.57823C16.9436 1.39754 16.6554 1.25447 16.3194 1.15902C15.9156 1.04436 15.6547 1.38333 15.6631 1.70649C15.6446 1.7281 15.6276 1.75061 15.6136 1.77452C15.456 2.04366 15.5712 2.3302 15.8041 2.50078C16.0278 2.66466 15.9942 3.06025 15.8791 3.26085C15.5376 3.85555 16.455 4.39011 16.7958 3.79662C16.9524 3.52388 17.0257 3.22474 17.0238 2.92979C17.1739 3.17531 17.2797 3.46215 17.365 3.77601C17.5445 4.43593 18.5688 4.15549 18.3887 3.49387C18.3773 3.45205 18.3647 3.41133 18.3525 3.37021C18.4689 3.60002 18.7032 3.74339 18.9735 3.66905C19.234 3.59752 19.4455 3.28757 19.3444 3.01613Z" fill="#C1362B"/>
<path d="M19.624 8.98142C18.9132 9.12249 18.0376 9.20593 17.0897 9.20593C15.9977 9.20593 15.0016 9.09518 14.2432 8.91309C14.0695 9.17471 13.9525 9.48247 13.929 9.84564C13.8009 11.8275 13.929 16.1449 13.929 16.1449H16.659H17.1643H19.8942C19.8942 16.1449 20.0223 11.8275 19.8942 9.84564C19.8728 9.51378 19.7735 9.22794 19.624 8.98142Z" fill="#B40001"/>
<path d="M19.9607 15.2524C17.9354 15.2524 15.9101 15.2524 13.8848 15.2524L13.7719 16.3026C13.1751 17.6946 12.7734 20.0878 12.6495 21.5741C12.6192 21.9386 12.6249 22.304 12.6068 22.6689C12.593 22.9466 12.5948 23.2856 12.7623 23.534C13.1275 24.0763 13.903 24.0153 14.5425 24.051C15.871 24.1252 17.2071 24.144 18.5375 24.0947C18.995 24.0778 19.4752 24.0804 19.9272 24.0154C20.2174 23.9737 20.5762 24.0311 20.8366 23.882C21.4444 23.5338 21.3753 22.9294 21.362 22.373C21.3485 20.5979 20.9064 17.9158 20.1912 16.2596L19.9607 15.2524Z" fill="black"/>
<path d="M17.4524 10.2727C17.4524 10.4485 17.3099 10.5912 17.1339 10.5912C16.958 10.5912 16.8154 10.4486 16.8154 10.2727C16.8154 10.0968 16.958 9.9541 17.1339 9.9541C17.3098 9.9542 17.4524 10.0969 17.4524 10.2727Z" fill="white"/>
<path d="M17.4524 12.0837C17.4524 12.2596 17.3099 12.4022 17.1339 12.4022C16.958 12.4022 16.8154 12.2597 16.8154 12.0837C16.8154 11.9078 16.958 11.7651 17.1339 11.7651C17.3098 11.7651 17.4524 11.9078 17.4524 12.0837Z" fill="white"/>
<path d="M17.4524 14.197C17.4524 14.3729 17.3099 14.5154 17.1339 14.5154C16.958 14.5154 16.8154 14.3729 16.8154 14.197C16.8154 14.0211 16.958 13.8784 17.1339 13.8784C17.3098 13.8784 17.4524 14.0211 17.4524 14.197Z" fill="white"/>
<mask id="mask5_2147_7671" style="mask-type:luminance" maskUnits="userSpaceOnUse" x="12" y="15" width="10" height="10">
<path d="M19.9646 15.2593C17.9393 15.2593 15.914 15.2593 13.8887 15.2593L13.7758 16.3094C13.179 17.7015 12.7773 20.0947 12.6534 21.581C12.6231 21.9455 12.6288 22.3108 12.6107 22.6757C12.5969 22.9535 12.5987 23.2924 12.7662 23.5408C13.1314 24.0831 13.907 24.0221 14.5464 24.0578C15.8749 24.132 17.211 24.1508 18.5414 24.1015C18.9989 24.0846 19.4791 24.0872 19.9311 24.0223C20.2213 23.9806 20.5801 24.0379 20.8405 23.8888C21.4483 23.5407 21.3792 22.9363 21.3659 22.3799C21.3524 20.6047 20.9103 17.9226 20.1951 16.2665L19.9646 15.2593Z" fill="white"/>
</mask>
<g mask="url(#mask5_2147_7671)">
<path opacity="0.5" d="M12.6056 17.9653L15.0121 17.8945C15.0121 17.8945 15.2953 20.3718 13.7382 20.3718C12.1809 20.3718 12.6056 17.9653 12.6056 17.9653Z" fill="#A38F90"/>
</g>
<mask id="mask6_2147_7671" style="mask-type:luminance" maskUnits="userSpaceOnUse" x="12" y="15" width="10" height="10">
<path d="M19.9646 15.2593C17.9393 15.2593 15.914 15.2593 13.8887 15.2593L13.7758 16.3094C13.179 17.7015 12.7773 20.0947 12.6534 21.581C12.6231 21.9455 12.6288 22.3108 12.6107 22.6757C12.5969 22.9535 12.5987 23.2924 12.7662 23.5408C13.1314 24.0831 13.907 24.0221 14.5464 24.0578C15.8749 24.132 17.211 24.1508 18.5414 24.1015C18.9989 24.0846 19.4791 24.0872 19.9311 24.0223C20.2213 23.9806 20.5801 24.0379 20.8405 23.8888C21.4483 23.5407 21.3792 22.9363 21.3659 22.3799C21.3524 20.6047 20.9103 17.9226 20.1951 16.2665L19.9646 15.2593Z" fill="white"/>
</mask>
<g mask="url(#mask6_2147_7671)">
<path opacity="0.5" d="M19.1545 17.9653L21.5609 17.8945C21.5609 17.8945 21.8441 20.3718 20.2869 20.3718C18.7298 20.3718 19.1545 17.9653 19.1545 17.9653Z" fill="#A38F90"/>
</g>
<path d="M22.2715 24.1852C22.2715 26.2554 22.2715 28.3257 22.2715 30.3959C22.2715 31.3153 23.6972 31.3153 23.6972 30.3959C23.6972 28.3257 23.6972 26.2554 23.6972 24.1852C23.6972 23.2657 22.2715 23.2657 22.2715 24.1852Z" fill="#C78259"/>
<path d="M26.9199 24.5349C27.3052 26.569 27.6906 28.603 28.0761 30.6371C28.2471 31.5396 29.621 31.1563 29.4508 30.258C29.0654 28.224 28.68 26.1899 28.2945 24.1559C28.1235 23.2532 26.7496 23.6365 26.9199 24.5349Z" fill="#C78259"/>
<path d="M24.2647 29.3659C24.2647 25.0189 24.2647 20.672 24.2647 16.3251C24.2647 14.682 21.8135 14.682 21.8135 16.3251C21.8135 20.672 21.8135 25.0189 21.8135 29.3659H24.2647Z" fill="#00233A"/>
<path d="M29.7521 29.2883C29.3767 27.1605 28.9458 25.0441 28.5201 22.9266C28.2928 21.7953 28.0383 20.6634 27.8633 19.5218C27.6918 18.4038 27.5682 17.279 27.2515 16.1919C26.9467 15.1459 25.7934 15.096 25.1949 15.6462C25.0155 15.6227 24.8301 15.6103 24.6399 15.6103C23.8525 15.6103 23.1429 15.8225 22.6405 16.1621C22.5053 15.842 22.3007 15.4946 22.0171 15.8525C21.5999 16.3791 21.8033 17.6989 22.1728 18.1874C22.6912 18.8728 23.8186 19.1492 24.64 19.1492C24.8794 19.1492 25.1119 19.1296 25.3334 19.0928C25.3883 19.4613 25.4406 19.8305 25.4999 20.1991C25.6834 21.34 25.9291 22.4719 26.1567 23.6039C26.5375 25.4966 26.922 27.3883 27.2674 29.2882H29.7521V29.2883Z" fill="#002B4D"/>
<path d="M23.8656 30.9048L23.7903 30.3832L23.6912 30.4107C23.5583 30.448 23.4737 30.4684 23.3281 30.4854C23.0984 30.5124 22.8649 30.5133 22.6358 30.4786C22.4902 30.4566 22.2188 30.3076 22.0839 30.381C22.0377 30.4062 21.9943 30.4533 21.9506 30.4848C21.8459 30.56 21.7349 30.6264 21.6248 30.6935C21.4177 30.8203 21.1826 30.9645 20.921 31.1728C20.7561 31.3045 20.7123 31.4776 20.8038 31.6353C20.9028 31.8063 21.1309 31.9162 21.3583 31.9027C21.394 31.9007 21.4293 31.8955 21.4635 31.8876C21.6939 31.8845 21.9835 31.8636 22.2609 31.8407C22.411 31.829 22.5606 31.8165 22.7095 31.8077L22.7525 31.8054C23.072 31.7865 23.5222 31.7259 23.7414 31.4216C23.8621 31.2547 23.876 31.0704 23.8656 30.9048Z" fill="#233D53"/>
<path d="M27.909 30.9048L27.9844 30.3832L28.0834 30.4107C28.2164 30.448 28.301 30.4684 28.4465 30.4854C28.6763 30.5124 28.9098 30.5133 29.1389 30.4786C29.2845 30.4566 29.556 30.3076 29.6907 30.381C29.7369 30.4062 29.7804 30.4533 29.8241 30.4848C29.9288 30.56 30.0397 30.6264 30.1498 30.6935C30.3569 30.8203 30.5922 30.9645 30.8536 31.1728C31.0184 31.3045 31.0624 31.4776 30.971 31.6353C30.8719 31.8063 30.6437 31.9162 30.4163 31.9027C30.3807 31.9007 30.3453 31.8955 30.3111 31.8876C30.0807 31.8845 29.7911 31.8636 29.5138 31.8407C29.3637 31.829 29.214 31.8165 29.0651 31.8077L29.0222 31.8054C28.7026 31.7865 28.2525 31.7259 28.0333 31.4216C27.9125 31.2547 27.8986 31.0704 27.909 30.9048Z" fill="#233D53"/>
<mask id="mask7_2147_7671" style="mask-type:luminance" maskUnits="userSpaceOnUse" x="21" y="15" width="9" height="15">
<path d="M29.755 29.2976C29.3796 27.1698 28.9487 25.0534 28.523 22.9359C28.2957 21.8046 28.0413 20.6727 27.8662 19.5311C27.6947 18.413 27.5711 17.2883 27.2545 16.2012C26.9496 15.1551 25.7964 15.1053 25.1979 15.6555C25.0185 15.632 24.833 15.6196 24.6428 15.6196C23.8554 15.6196 23.1459 15.8318 22.6434 16.1713C22.5082 15.8513 22.3036 15.5039 22.02 15.8618C21.6028 16.3884 21.8062 17.7082 22.1757 18.1966C22.6941 18.8821 23.8215 19.1585 24.6429 19.1585C24.8823 19.1585 25.1148 19.1389 25.3363 19.1021C25.3913 19.4706 25.4435 19.8397 25.5028 20.2084C25.6863 21.3493 25.932 22.4811 26.1596 23.6132C26.5404 25.5058 26.9249 27.3976 27.2703 29.2975H29.755V29.2976Z" fill="white"/>
</mask>
<g mask="url(#mask7_2147_7671)">
<g opacity="0.4">
<path d="M26.3351 16.0815C27.7337 21.0592 28.5939 26.1676 29.9448 31.1572C29.9617 31.2194 30.0583 31.1929 30.0413 31.1306C28.6904 26.1409 27.8303 21.0326 26.4317 16.0549C26.4142 15.9929 26.3176 16.0193 26.3351 16.0815Z" fill="#FCD4B3"/>
</g>
</g>
<path d="M29.7286 6.81517C29.5143 5.84209 28.7268 5.43799 27.9669 4.92574C27.3902 4.53705 27.227 4.0312 27.2084 3.34516C27.1914 2.71085 26.9752 2.06333 26.4758 1.71426C26.2862 1.394 25.9463 1.17529 25.5428 1.17529C24.8962 1.17529 24.5145 1.67704 24.4482 2.26973C24.2303 4.22499 24.0948 6.41667 24.879 8.27048C25.181 8.98463 25.7054 9.61114 26.453 9.87507C27.3473 10.1909 28.3191 9.79793 28.9757 9.17553C29.5903 8.59314 29.9114 7.64477 29.7286 6.81517Z" fill="#211918"/>
<path d="M27.3409 6.81517C27.1266 5.84209 26.3392 5.43799 25.5793 4.92574C25.0025 4.53705 24.8393 4.0312 24.8207 3.34516C24.8037 2.71085 24.5875 2.06333 24.0881 1.71426C23.8986 1.394 23.5586 1.17529 23.1551 1.17529C22.5085 1.17529 22.1268 1.67704 22.0605 2.26973C21.8426 4.22499 21.7071 6.41667 22.4913 8.27048C22.7934 8.98463 23.3177 9.61114 24.0653 9.87507C24.9597 10.1909 25.9315 9.79793 26.5881 9.17553C27.2026 8.59314 27.5237 7.64477 27.3409 6.81517Z" fill="#211918"/>
<path d="M22.3848 4.75609C22.3848 5.67124 23.1267 6.41311 24.0417 6.41311H24.8701C25.7852 6.41311 26.527 5.67124 26.527 4.75609V3.18192C26.527 2.26667 25.7851 1.5249 24.8701 1.5249H24.0417C23.1267 1.5249 22.3848 2.26667 22.3848 3.18192V4.75609Z" fill="#C78259"/>
<path d="M25.202 5.48096H23.7109V8.13216H25.202V5.48096Z" fill="#C78259"/>
<path d="M23.2338 3.01073C23 2.94189 22.7704 3.00583 22.5945 3.17161C22.524 3.23814 22.6302 3.34399 22.7006 3.27776C22.8385 3.1479 23.0114 3.10177 23.194 3.1555C23.2869 3.18281 23.3265 3.03804 23.2338 3.01073Z" fill="#211918"/>
<path d="M24.826 3.1555C25.0085 3.10177 25.1815 3.1478 25.3194 3.27776C25.3897 3.34409 25.4961 3.23814 25.4255 3.17161C25.2496 3.00583 25.02 2.94189 24.7862 3.01073C24.6936 3.03804 24.733 3.18281 24.826 3.1555Z" fill="#211918"/>
<path d="M23.7265 3.30603C23.8873 3.61178 23.8534 3.8522 23.7143 4.15405C23.6658 4.2594 23.6157 4.36245 23.6085 4.48101C23.5963 4.68481 23.6902 4.81027 23.9024 4.79056C23.9661 4.78466 23.9668 4.68451 23.9024 4.69051C23.495 4.72833 23.8463 4.11423 23.9007 3.96305C23.9901 3.71523 23.931 3.48032 23.8129 3.25551C23.783 3.19848 23.6966 3.249 23.7265 3.30603Z" fill="#632812"/>
<path d="M26.829 2.23281C26.7233 1.36589 26.0839 0.80011 25.2737 0.582402C24.4384 0.357892 23.1319 0.337582 23.0305 1.46314C23.0205 1.57419 23.0462 1.66543 23.0933 1.73857C23.2585 2.12546 23.5511 2.4065 23.9283 2.59389C24.4482 2.85202 25.0152 2.63531 25.5267 2.93346C25.86 3.12765 26.2153 3.30244 26.571 3.05762C26.8396 2.87233 26.865 2.52796 26.829 2.23281Z" fill="#211918"/>
<path d="M24.1602 5.30853C24.3528 5.42909 24.6592 5.31993 24.7612 5.12014C24.787 5.06961 24.7359 5.02159 24.6863 5.0453C24.5319 5.11893 24.4022 5.31423 24.2059 5.23029C24.1535 5.20778 24.1093 5.27661 24.1602 5.30853Z" fill="white"/>
<path d="M23.633 3.91006C23.633 4.43782 23.2646 4.86553 22.8101 4.86553C22.3558 4.86553 21.9873 4.43782 21.9873 3.91006C21.9873 3.3824 22.3558 2.95459 22.8101 2.95459C23.2646 2.95459 23.633 3.3824 23.633 3.91006Z" stroke="#F9BE4A" stroke-miterlimit="10"/>
<path d="M24.9869 4.86553C25.4413 4.86553 25.8097 4.43775 25.8097 3.91006C25.8097 3.38237 25.4413 2.95459 24.9869 2.95459C24.5324 2.95459 24.1641 3.38237 24.1641 3.91006C24.1641 4.43775 24.5324 4.86553 24.9869 4.86553Z" stroke="#F9BE4A" stroke-miterlimit="10"/>
<path d="M23.6475 4.01663C23.7605 3.97691 23.8847 3.966 24.0012 3.99892" stroke="#F9BE4A" stroke-miterlimit="10"/>
<path d="M22.8135 4.04987C22.8135 4.21605 22.8927 4.35072 22.9907 4.35072C23.0883 4.35072 23.1676 4.21605 23.1676 4.04987C23.1676 3.88369 23.0883 3.74902 22.9907 3.74902C22.8927 3.74902 22.8135 3.88369 22.8135 4.04987Z" fill="#211918"/>
<path d="M24.8076 4.04987C24.8076 4.21605 24.8868 4.35072 24.9845 4.35072C25.0825 4.35072 25.1616 4.21605 25.1616 4.04987C25.1616 3.88369 25.0825 3.74902 24.9845 3.74902C24.8868 3.74902 24.8076 3.88369 24.8076 4.04987Z" fill="#211918"/>
<path d="M21.7103 9.1545C21.8218 7.3359 24.13 6.88848 24.5094 6.82705L24.5096 6.81885C24.5096 6.81885 24.5199 6.82025 24.5367 6.82275C24.5539 6.82025 24.5639 6.81885 24.5639 6.81885V6.82705C24.9436 6.88838 27.2516 7.3359 27.363 9.1545C27.4844 11.1364 27.363 16.4093 27.363 16.4093H24.7762H24.2974H21.7105C21.7103 16.4094 21.5887 11.1364 21.7103 9.1545Z" fill="#C78259"/>
<path d="M27.3629 9.14915C27.3165 8.39378 26.891 7.87552 26.3824 7.52265C26.0488 7.77207 25.3706 7.94325 24.5863 7.94325C23.7645 7.94325 23.0586 7.75536 22.7444 7.48633C22.2123 7.8396 21.7582 8.36746 21.7103 9.14925C21.5887 11.1311 21.7103 16.404 21.7103 16.404H24.2973H24.776H27.3628C27.3628 16.404 27.4843 11.131 27.3629 9.14915Z" fill="#F9BE4A"/>
<path d="M27.4013 8.54411C28.4811 9.9487 30.1288 11.7481 31.9353 11.9743C32.6531 12.0641 33.2625 12.5101 33.2625 13.3013C33.2625 13.9566 32.655 14.7185 31.9353 14.6285C28.9293 14.2522 26.8752 12.1807 25.1096 9.88377C24.6672 9.30869 25.0205 8.39894 25.5856 8.06808C26.2693 7.66758 26.9613 7.97183 27.4013 8.54411Z" fill="#F9BE4A"/>
<path d="M30.0898 4.75853C30.0898 5.67368 30.8318 6.41555 31.7468 6.41555H32.5754C33.4904 6.41555 34.2323 5.67368 34.2323 4.75853V3.18436C34.2323 2.26911 33.4904 1.52734 32.5754 1.52734H31.7468C30.8318 1.52734 30.0898 2.26911 30.0898 3.18436V4.75853Z" fill="#FF8A64"/>
<path d="M32.9073 5.4834H31.416V8.1346H32.9073V5.4834Z" fill="#FF8A64"/>
<path d="M33.0659 3.99189C32.8973 3.76228 32.5431 3.8025 32.4205 4.05763C32.3927 4.11545 32.4789 4.16628 32.5068 4.10815C32.5934 3.92806 32.8514 3.86793 32.9796 4.04242C33.0172 4.09384 33.1041 4.04402 33.0659 3.99189Z" fill="#632812"/>
<path d="M30.509 4.0424C30.637 3.86802 30.8951 3.92785 30.9815 4.10813C31.0093 4.16626 31.0957 4.11554 31.0678 4.05761C30.9454 3.80228 30.5911 3.76246 30.4226 3.99188C30.3843 4.044 30.4713 4.09383 30.509 4.0424Z" fill="#632812"/>
<path d="M33.7675 4.21906C33.7744 4.19404 33.7841 4.16973 33.7949 4.14602C33.7471 4.03557 33.7355 3.911 33.7675 3.79435C33.8075 3.64878 33.896 3.56463 34.0115 3.47709C34.2447 3.3005 34.5439 3.27359 34.8032 3.40596C35.0376 3.52551 35.1517 3.81276 35.1488 4.06278C35.1462 4.29709 35.056 4.5079 34.9029 4.68218C34.7221 4.88808 34.393 4.96152 34.1383 4.87208C33.8656 4.77633 33.6869 4.5126 33.7675 4.21906Z" fill="#FF8A64"/>
<path d="M31.4208 3.32507C31.5813 3.63072 31.5476 3.87124 31.4086 4.17309C31.3601 4.27844 31.31 4.38149 31.3028 4.50005C31.2906 4.70385 31.3844 4.82931 31.5966 4.8096C31.6603 4.8037 31.6609 4.70355 31.5966 4.70956C31.1893 4.74737 31.5405 4.13327 31.595 3.9821C31.6842 3.73428 31.6252 3.49936 31.507 3.27455C31.4772 3.21752 31.3908 3.26805 31.4208 3.32507Z" fill="#632812"/>
<path d="M33.5539 0.590439C32.4691 0.184739 31.5397 -0.115909 30.4599 0.446067C29.8993 0.738011 29.6192 1.24886 29.7322 1.71229C29.302 1.9367 28.9246 2.27847 28.9258 2.7558C28.9285 3.69006 29.9049 4.08666 30.6388 3.62433C30.8462 3.49367 31.1345 3.08266 31.4083 3.20162C31.7327 3.34259 32.0093 3.50677 32.3772 3.47656C33.3436 3.39722 33.5593 2.47447 33.8184 1.72119C33.8567 1.60994 33.8576 1.50999 33.8329 1.42335C33.988 1.15652 33.9337 0.732508 33.5539 0.590439Z" fill="#FDB777"/>
<path d="M33.621 1.33741C33.5279 1.38594 33.4619 1.44877 33.4187 1.5189C33.2732 1.58314 33.1545 1.7112 33.1115 1.86758C33.0061 2.24956 33.4598 2.39804 33.5527 2.67177C33.655 2.97372 33.5787 3.19523 33.5822 3.50628C33.5897 4.18792 33.978 4.75579 34.5597 3.92148C34.9023 3.42984 35.1899 2.82735 35.1832 2.21725C35.1741 1.38394 34.3298 0.967533 33.621 1.33741Z" fill="#FDB777"/>
<path d="M31.291 5.20557C31.5419 5.80316 32.2964 5.84918 32.5126 5.29061L31.291 5.20557Z" fill="#CE4333"/>
<mask id="mask8_2147_7671" style="mask-type:luminance" maskUnits="userSpaceOnUse" x="31" y="5" width="2" height="1">
<path d="M31.2949 5.20557C31.5458 5.80316 32.3003 5.84918 32.5165 5.29061L31.2949 5.20557Z" fill="white"/>
</mask>
<g mask="url(#mask8_2147_7671)">
<path d="M31.3066 4.99561C31.5576 5.5931 32.312 5.63922 32.5281 5.08065L31.3066 4.99561Z" fill="white"/>
</g>
<path d="M39.1673 16.4751L38.1429 16.8889L38.4252 17.3858C38.2157 17.5914 38.1415 17.8702 38.2594 18.075C38.1268 18.2261 37.9884 18.3717 37.8378 18.5053C37.7297 18.6014 37.7531 18.7888 37.8513 18.8802C37.9645 18.9855 38.1181 18.9627 38.226 18.8667C38.3397 18.7658 38.4462 18.6576 38.5488 18.546L38.6627 18.7305C38.6855 18.7675 38.7137 18.7994 38.7462 18.827C38.7861 19.0517 38.7924 19.2806 38.8001 19.5091C38.8114 19.8515 39.3418 19.8383 39.3305 19.4966C39.324 19.3048 39.3162 19.1124 39.2942 18.9219C39.3016 18.9201 39.3095 18.9175 39.3166 18.9155C39.4508 19.1232 39.5886 19.3285 39.7346 19.5289C39.9347 19.8033 40.3876 19.5272 40.1861 19.2506C40.047 19.0597 39.915 18.8641 39.7867 18.666L39.8745 18.612C40.0299 18.79 40.1851 18.968 40.3406 19.1459C40.5649 19.4032 40.9247 19.0131 40.7018 18.7575C40.5695 18.6058 40.4373 18.4543 40.3047 18.3025C40.3114 18.295 40.318 18.2875 40.3243 18.2798C40.4969 18.3452 40.6699 18.4089 40.8296 18.5036C41.1239 18.6779 41.373 18.2094 41.0789 18.0354C40.8892 17.923 40.6802 17.8541 40.4762 17.774C40.4662 17.7287 40.4498 17.6849 40.425 17.6445L40.0275 16.9997C39.9088 16.8072 39.6492 16.7405 39.3847 16.8118L39.1673 16.4751Z" fill="#FF8A64"/>
<path d="M33.2239 9.85078C34.5317 10.438 35.1962 11.2639 35.8685 12.5506C36.4752 13.7119 36.8754 15.0202 37.4332 16.3422C37.7143 17.0081 38.2991 17.4799 39.0657 17.269C39.6945 17.096 40.2744 16.3044 39.9926 15.6365C38.7217 12.6247 37.834 9.02728 34.5635 7.55895C33.9035 7.26271 33.1422 7.36196 32.7479 8.03509C32.4119 8.60837 32.5639 9.55444 33.2239 9.85078Z" fill="#A6472B"/>
<path d="M31.2553 30.4515C31.1169 30.4887 31.029 30.5092 30.8777 30.526C30.5287 30.5649 30.1963 30.5363 29.8567 30.4542C29.5214 30.3731 29.3842 30.5711 29.1066 30.7341C28.8912 30.8609 28.6467 31.0051 28.3749 31.2134C28.2034 31.3451 28.1579 31.5183 28.2528 31.6759C28.3559 31.8469 28.593 31.9568 28.8296 31.9433C28.8668 31.9412 28.9035 31.9361 28.9389 31.9281C29.1786 31.9252 29.4796 31.9041 29.768 31.8813C29.924 31.8694 30.0798 31.8571 30.2347 31.8483L30.2792 31.846C30.6115 31.8271 31.0795 31.7665 31.3073 31.4622C31.4329 31.2954 31.4473 31.1111 31.4366 30.9454L31.3583 30.4238L31.2553 30.4515Z" fill="#421E44"/>
<path d="M34.854 30.4515C34.7156 30.4887 34.6277 30.5092 34.4764 30.526C34.1275 30.5649 33.795 30.5363 33.4554 30.4542C33.1203 30.3731 32.9829 30.5711 32.7055 30.7341C32.49 30.8609 32.2454 31.0051 31.9735 31.2134C31.802 31.3451 31.7565 31.5183 31.8514 31.6759C31.9545 31.8469 32.1917 31.9568 32.4282 31.9433C32.4654 31.9412 32.5022 31.9361 32.5377 31.9281C32.7773 31.9252 33.0782 31.9041 33.3667 31.8813C33.5229 31.8694 33.6785 31.8571 33.8333 31.8483L33.8778 31.846C34.2101 31.8271 34.6781 31.7665 34.906 31.4622C35.0316 31.2954 35.0459 31.1111 35.0352 30.9454L34.9571 30.4238L34.854 30.4515Z" fill="#421E44"/>
<path d="M35.3479 30.3208C35.3479 28.1619 35.3479 17.3682 35.3479 15.2094C35.3479 13.5663 32.7998 13.5663 32.7998 15.2094C32.7998 17.3682 32.7998 28.1618 32.7998 30.3208H35.3479Z" fill="#ED8E5E"/>
<path d="M35.5912 30.2921C35.5912 30.5413 35.3892 30.7434 35.14 30.7434H32.8575C32.6083 30.7434 32.4062 30.5413 32.4062 30.2921C32.4062 30.043 32.6082 29.8408 32.8575 29.8408H35.14C35.3892 29.8408 35.5912 30.043 35.5912 30.2921Z" fill="#FCD4B3"/>
<path d="M35.2761 17.1739C35.2761 17.9655 33.957 18.6072 32.3299 18.6072C30.7028 18.6072 29.3838 17.9655 29.3838 17.1739C29.3838 16.3824 30.7028 15.7407 32.3299 15.7407C33.957 15.7407 35.2761 16.3824 35.2761 17.1739Z" fill="#ED8E5E"/>
<path d="M31.7375 30.3208C31.7375 28.1619 31.7375 17.3682 31.7375 15.2094C31.7375 13.5663 29.1895 13.5663 29.1895 15.2094C29.1895 17.3682 29.1895 28.1618 29.1895 30.3208H31.7375Z" fill="#ED8E5E"/>
<path d="M31.9848 30.2921C31.9848 30.5413 31.7828 30.7434 31.5335 30.7434H29.251C29.0018 30.7434 28.7998 30.5413 28.7998 30.2921C28.7998 30.043 29.0017 29.8408 29.251 29.8408H31.5335C31.7828 29.8408 31.9848 30.043 31.9848 30.2921Z" fill="#FCD4B3"/>
<path d="M28.9458 9.15694C29.0755 7.33834 31.7665 6.89092 32.2091 6.82949L32.2094 6.82129C32.2094 6.82129 32.2209 6.82269 32.2408 6.82519C32.2605 6.82269 32.2723 6.82129 32.2723 6.82129L32.2725 6.82949C32.7151 6.89082 35.406 7.33834 35.536 9.15694C35.6775 11.1388 35.536 16.4117 35.536 16.4117H32.5199H31.9617H28.9457C28.9457 16.4117 28.8041 11.1388 28.9458 9.15694Z" fill="#FF8A64"/>
<path d="M28.9458 9.15694C29.0755 7.33834 31.7665 6.89092 32.2091 6.82949L32.2094 6.82129C32.2094 6.82129 32.2209 6.82269 32.2408 6.82519C32.2605 6.82269 32.2723 6.82129 32.2723 6.82129L32.2725 6.82949C32.7151 6.89082 35.406 7.33834 35.536 9.15694C35.6775 11.1388 35.536 16.4117 35.536 16.4117H32.5199H31.9617H28.9457C28.9457 16.4117 28.8041 11.1388 28.9458 9.15694Z" fill="#A6472B"/>
<mask id="mask9_2147_7671" style="mask-type:luminance" maskUnits="userSpaceOnUse" x="28" y="6" width="8" height="11">
<path d="M28.9487 9.16719C29.0785 7.3486 31.7694 6.90118 32.212 6.83975L32.2123 6.83154C32.2123 6.83154 32.2238 6.83294 32.2437 6.83545C32.2634 6.83294 32.2752 6.83154 32.2752 6.83154L32.2754 6.83975C32.7181 6.90108 35.4089 7.3486 35.539 9.16719C35.6804 11.1491 35.539 16.422 35.539 16.422H32.5229H31.9646H28.9486C28.9487 16.4221 28.807 11.1491 28.9487 9.16719Z" fill="white"/>
</mask>
<g mask="url(#mask9_2147_7671)">
<path d="M34.5802 4.94314L32.6492 1.60249C32.4098 1.18789 32.0212 1.18779 31.7815 1.60249L29.8506 4.94314C29.6109 5.35784 29.611 6.02997 29.8506 6.44458L31.7815 9.78522C32.0212 10.1998 32.4096 10.1999 32.6492 9.78522L34.5802 6.44458C34.8198 6.02997 34.8198 5.35774 34.5802 4.94314Z" fill="#FFD7B3"/>
</g>
<path d="M33.249 6.8291H31.0195V7.73155H33.249V6.8291Z" fill="#FFD7B3"/>
</svg>
