<svg width="35" height="32" viewBox="0 0 35 32" fill="none" xmlns="http://www.w3.org/2000/svg">
<path d="M12.4624 26.4703C12.4624 26.4703 12.1485 26.8821 11.6264 27.4955C11.6102 27.515 11.594 27.5336 11.5772 27.5531C11.3542 27.8135 11.0964 28.1086 10.8097 28.4231C10.3279 28.9521 9.76656 29.5354 9.16343 30.1004C7.9821 29.495 6.88001 28.7592 5.875 27.9106C6.70005 26.834 7.58204 25.7966 8.2328 25.0542C8.36453 24.9037 8.48714 24.7654 8.598 24.6414C8.60165 24.6372 8.60529 24.6331 8.60955 24.6289C8.98468 24.2077 9.22058 23.9546 9.22058 23.9546C9.22058 23.9546 11.7336 25.8039 12.4624 26.4703Z" fill="#FDA66F"/>
<path d="M11.6282 27.4948C11.612 27.5143 11.5958 27.5329 11.5789 27.5524C11.356 27.8128 11.0982 28.1079 10.8115 28.4224L8.23438 25.0533C8.36611 24.9027 8.48872 24.7645 8.59958 24.6405C8.60322 24.6362 8.60687 24.6322 8.61113 24.6279L11.6282 27.4948Z" fill="#291C2A"/>
<path d="M19.3902 16.8769C17.6078 18.0785 16.1768 16.4391 16.1768 16.4391C16.4147 15.4825 16.3774 13.6022 16.3059 12.7644C16.27 12.3408 16.2256 12.063 16.2256 12.063L20.3385 13.6582L20.4641 15.2055L20.4947 15.5837C20.4947 15.5837 20.4832 16.14 19.3902 16.8769Z" fill="#FDA66F"/>
<path d="M20.467 15.2055C18.3737 15.0322 16.8633 13.4389 16.2879 12.5421C16.252 12.1185 16.2285 12.063 16.2285 12.063L20.3414 13.6582L20.467 15.2055Z" fill="#291C2A"/>
<path d="M22.2107 7.53613C22.2107 7.53613 22.4875 6.49646 23.5047 6.65515C24.5219 6.81384 24.6864 10.9816 22.1904 10.7816L22.2107 7.53613Z" fill="#FC804D"/>
<path d="M23.1839 10.4436C23.2334 10.6112 23.3941 10.7284 23.5755 10.7158C23.785 10.7012 23.9437 10.519 23.9293 10.3095C23.9178 10.141 23.7978 10.0059 23.6424 9.96655C23.6059 9.88122 23.6018 9.80725 23.6535 9.75537C23.9133 9.80219 24.119 10.0198 24.1381 10.2949C24.1606 10.6195 23.9147 10.902 23.5899 10.9245C23.2891 10.9454 23.0249 10.7357 22.9697 10.4465C23.0425 10.4531 23.1134 10.4495 23.1839 10.4436Z" fill="white"/>
<path d="M15.6724 11.5879C16.4606 12.8641 17.6525 13.9702 19.4422 14.1924C21.5712 14.456 22.8474 13.0197 23.2304 11.0227C23.2661 10.8417 23.2959 10.6591 23.3218 10.4781C23.3518 10.2674 23.3765 10.0576 23.397 9.85008C23.4136 9.68004 23.426 9.51285 23.4369 9.34869C23.4641 8.92147 23.4732 8.51533 23.4706 8.15236C23.4704 8.15175 23.4704 8.15094 23.4708 8.15033C23.4661 7.62037 23.4379 7.1814 23.4067 6.90233C23.2324 5.32965 22.9467 3.30261 19.7622 2.67678C16.5781 2.05176 13.8924 3.69902 14.1827 7.07358C14.1827 7.07317 14.4131 9.54851 15.6724 11.5879Z" fill="#FDA66F"/>
<path d="M23.3854 9.81609C23.2829 9.82967 23.1712 9.83818 23.0535 9.84082C22.5517 9.84994 22.1423 9.73584 22.1397 9.58526C22.137 9.43529 22.5411 9.30599 23.0429 9.29646C23.1795 9.29383 23.3092 9.30052 23.4256 9.3149C23.415 9.47927 23.4023 9.64646 23.3854 9.81609Z" fill="#FC804D"/>
<path d="M15.2588 8.60644C15.2588 8.60644 14.3997 12.6897 18.6459 14.204C22.8921 15.7183 23.8923 11.01 23.462 8.13281C23.462 8.13281 23.1505 10.0281 22.1946 10.7837C22.1946 10.7837 20.3199 9.98982 18.5675 11.0031C18.5675 11.0031 17.9571 11.3152 17.1987 10.5567C16.4401 9.7981 16.2342 8.86099 16.2342 8.86099L15.2588 8.60644Z" fill="#291C2A"/>
<path d="M23.3401 6.39308C23.3401 6.39308 24.1872 5.71233 23.9742 4.78251C23.8392 4.19316 23.2473 4.48378 23.2473 4.48378C23.2473 4.48378 24.8451 2.51551 24.4407 1.80861C23.8111 0.707944 22.3322 2.18557 22.3322 2.18557C22.3322 2.18557 23.1822 0.147171 22.0714 0.11515C20.9604 0.0831294 20.4703 1.64729 20.4703 1.64729C20.4703 1.64729 20.2618 -0.225934 18.9208 0.0227352C17.5795 0.271607 17.1923 1.84955 17.1923 1.84955C17.1923 1.84955 16.2304 0.247491 14.8237 0.941818C13.4168 1.63615 14.2976 3.01163 14.2976 3.01163C14.2976 3.01163 13.4328 2.29683 12.7464 3.1385C12.06 3.98016 13.2506 4.86357 13.2506 4.86357C13.2506 4.86357 12.7434 5.47278 13.2253 5.98127C13.707 6.48975 14.1655 6.20886 14.1655 6.20886C14.1213 6.67904 14.134 7.11193 14.2342 7.48848L17.3522 6.02119C17.3522 6.02119 17.6742 5.26809 17.4117 4.92478C17.4117 4.92478 21.2267 4.11149 22.4854 5.24154C22.4854 5.24154 22.6729 6.04956 22.7118 6.27412L23.3401 6.39308Z" fill="#291C2A"/>
<path d="M18.1572 7.76739C18.114 7.75685 18.0735 7.73415 18.041 7.6995C17.9523 7.60465 17.9571 7.45569 18.052 7.36693C18.0842 7.33673 18.3791 7.07104 18.7923 7.04266C19.2246 7.01287 19.4984 7.13771 19.5282 7.1521C19.6453 7.20844 19.6946 7.34909 19.6382 7.46623C19.5823 7.58276 19.4429 7.63242 19.3261 7.57729C19.3186 7.57385 19.1275 7.49136 18.8243 7.51224C18.5734 7.52946 18.3754 7.70882 18.3734 7.71064C18.3134 7.76678 18.2316 7.78543 18.1572 7.76739Z" fill="#291C2A"/>
<path d="M21.4673 7.53977C21.4288 7.51788 21.396 7.48484 21.3745 7.44249C21.3153 7.32677 21.3611 7.1849 21.4768 7.12593C21.5162 7.10586 21.8728 6.93198 22.2778 7.01872C22.7013 7.10951 22.9301 7.30508 22.9549 7.32697C23.0519 7.41351 23.0605 7.56226 22.9739 7.65914C22.888 7.7556 22.7405 7.76493 22.6434 7.67981C22.6371 7.67454 22.4762 7.5424 22.1791 7.47876C21.9332 7.42607 21.6933 7.54362 21.6911 7.54483C21.6177 7.58233 21.5338 7.57766 21.4673 7.53977Z" fill="#291C2A"/>
<path d="M16.2388 7.66359C16.2388 7.66359 16.242 8.66617 16.2341 8.84492C15.8071 8.93591 15.5456 8.93896 15.2587 8.59037C15.1944 8.33258 15.1681 8.13195 15.1681 8.13195C14.8234 7.63684 14.2334 7.47754 14.2334 7.47754C15.0584 6.3562 17.3514 6.01025 17.3514 6.01025C17.143 6.95163 16.436 7.35128 16.2388 7.66359Z" fill="#291C2A"/>
<path d="M22.7168 6.28662C22.7168 6.28662 22.7539 6.79409 23.0921 7.2357C23.267 7.4639 23.3866 7.72959 23.4231 8.01454L23.4677 8.36211C23.4677 8.36211 23.6655 6.92988 23.3455 6.40538L22.7168 6.28662Z" fill="#291C2A"/>
<path d="M19.1289 11.262C19.1289 11.262 20.7778 11.3356 21.6952 11.1465C21.6952 11.1465 21.7929 12.2692 20.3739 12.2332C19.2 12.2036 19.1289 11.262 19.1289 11.262Z" fill="white"/>
<path d="M18.7732 9.53175C18.776 9.68192 18.3715 9.81142 17.8697 9.82054C17.3679 9.82986 16.9589 9.71556 16.9561 9.56539C16.9532 9.41521 17.3578 9.28571 17.8595 9.27639C18.3613 9.26727 18.7703 9.38157 18.7732 9.53175Z" fill="#FC804D"/>
<path d="M18.9077 8.43423C18.9128 8.70337 18.7977 8.92387 18.651 8.9267C18.5042 8.92934 18.381 8.7133 18.3761 8.44416C18.3711 8.17482 18.486 7.95452 18.6329 7.95168C18.7796 7.94905 18.9029 8.16509 18.9077 8.43423Z" fill="#291C2A"/>
<path d="M22.2056 8.48941C22.2106 8.75854 22.0957 8.97904 21.9488 8.98188C21.8021 8.98452 21.6789 8.76848 21.674 8.49934C21.6689 8.2302 21.784 8.0097 21.9308 8.00686C22.0777 8.00403 22.2007 8.22027 22.2056 8.48941Z" fill="#291C2A"/>
<path d="M20.3343 10.3567C20.2656 10.3437 20.2121 10.2852 20.2082 10.2124C20.2038 10.1269 20.2694 10.0539 20.3552 10.0495C20.4964 10.0422 20.6109 10.0282 20.691 10.0158C20.6269 9.49984 20.4277 8.79721 20.4255 8.78951C20.402 8.70722 20.4498 8.62129 20.5321 8.59778C20.6146 8.57427 20.7003 8.6221 20.7238 8.70439C20.7339 8.73985 20.9725 9.58091 21.0142 10.1301C21.0199 10.2055 20.9704 10.274 20.8971 10.2925C20.889 10.2945 20.693 10.3427 20.371 10.3593C20.3586 10.3597 20.3462 10.3589 20.3343 10.3567Z" fill="#FC804D"/>
<path d="M15.1591 8.13421C15.1591 8.13421 14.6303 7.1973 13.6853 7.60627C12.7405 8.01525 13.1381 11.6904 15.504 10.8704L15.1591 8.13421Z" fill="#FDA66F"/>
<path d="M14.8193 11.0012C14.7816 11.1718 14.6292 11.2999 14.4476 11.2999C14.2374 11.2999 14.0666 11.129 14.0666 10.9189C14.0666 10.7503 14.1768 10.607 14.3292 10.5569C14.3598 10.4692 14.3586 10.3952 14.3035 10.3472C14.0475 10.4118 13.8574 10.6433 13.8574 10.9189C13.8574 11.2444 14.1223 11.509 14.4478 11.509C14.7493 11.509 14.9984 11.2817 15.0335 10.9892C14.9609 11.001 14.89 11.0024 14.8193 11.0012Z" fill="white"/>
<path d="M14.9315 10.2022C14.8597 10.1886 14.8054 10.1258 14.8052 10.05C14.8036 8.93232 13.9307 8.4518 13.9218 8.44714C13.8464 8.40661 13.8178 8.31257 13.8581 8.23718C13.8987 8.16159 13.9927 8.13322 14.0681 8.17375C14.1109 8.19665 15.1132 8.7485 15.1153 10.0496C15.1153 10.1353 15.046 10.2048 14.9604 10.2048C14.9505 10.2051 14.9408 10.204 14.9315 10.2022Z" fill="#FC804D"/>
<path d="M14.0512 9.47041C14.0001 9.46068 13.9551 9.42582 13.9352 9.37374C13.9044 9.29369 13.9442 9.2039 14.0242 9.1731C14.0775 9.15263 14.5544 8.97793 14.892 9.16925C14.9666 9.2114 14.9927 9.30625 14.9504 9.38063C14.908 9.45521 14.8138 9.48135 14.739 9.439C14.56 9.33726 14.2354 9.424 14.1357 9.4625C14.1077 9.47345 14.0785 9.47547 14.0512 9.47041Z" fill="#FC804D"/>
<path d="M29.7996 26.4363C29.1555 27.129 28.4557 27.7682 27.707 28.3478C27.4669 28.4514 27.2577 28.5351 27.1039 28.5943C27.0794 28.6036 27.0557 28.6131 27.0344 28.621C27.0291 28.6231 27.0239 28.6253 27.0188 28.6267C27.0032 28.633 26.988 28.6387 26.9744 28.6439C26.9556 28.6506 26.9387 28.6565 26.9237 28.6622C26.9092 28.6674 26.8956 28.6721 26.884 28.6764C26.8516 28.6889 26.8348 28.6946 26.8348 28.6946L26.8804 28.9504C25.2649 30.0563 23.4533 30.8963 21.5077 31.4075C21.3695 31.4435 21.2309 31.4786 21.0913 31.511C20.3793 31.6794 19.6495 31.8041 18.9061 31.8815C18.8595 31.8862 18.8129 31.8908 18.7665 31.8951C18.3835 31.9328 17.9964 31.9573 17.6063 31.9682C17.5408 31.9703 17.4755 31.9719 17.4095 31.9729C17.3 31.9755 17.1908 31.9765 17.0816 31.9765C15.4126 31.9765 13.7994 31.7411 12.2717 31.3017C12.2912 30.4888 12.3137 29.7934 12.3376 29.2594C12.3408 29.1757 12.3429 29.1334 12.3475 29.0596C12.3637 28.7976 12.3763 28.6715 12.4035 28.5558C12.4223 28.4701 12.4485 28.39 12.4892 28.2639C12.4714 28.2504 12.4541 28.2362 12.4363 28.2226C12.1329 27.9857 11.8514 27.7544 11.5877 27.5295C10.3077 26.4371 9.44963 25.484 8.60837 24.6176C8.1846 24.1809 8.38767 24.3298 7.91992 23.9308C9.42126 21.9921 10.1632 20.5378 11.7284 19.0289C13.3884 17.4291 16.3487 15.55 16.3487 15.55L16.3518 15.552C16.3524 15.552 16.3524 15.5526 16.3528 15.5526C19.2928 17.4427 20.3072 15.8309 20.4971 15.5391C20.4991 15.5354 20.5013 15.5318 20.5033 15.5285C20.5054 15.5249 20.5076 15.5216 20.5096 15.5186C20.5112 15.5155 20.5129 15.5129 20.5143 15.5107C20.52 15.5014 20.5226 15.4961 20.5226 15.4961C22.33 16.6851 25.3146 17.4459 25.9329 18.1887C27.1742 19.6844 29.0185 24.3728 29.7183 26.2215C29.7479 26.2983 29.7746 26.37 29.7996 26.4363Z" fill="#9A5BFD"/>
<path d="M29.7921 26.4581C29.148 27.1508 28.4482 27.79 27.6996 28.3696C27.4594 28.4732 27.2503 28.5569 27.0964 28.616C27.0719 28.6254 27.0482 28.6349 27.0269 28.6428C27.0217 28.6448 27.0164 28.647 27.0113 28.6485L26.877 27.8798C28.0169 27.4461 29.1703 26.6228 29.7114 26.2437C29.7404 26.3201 29.7671 26.3918 29.7921 26.4581Z" fill="#7E36D0"/>
<path d="M8.39392 23.0547L12.9583 27.5733C12.751 27.9476 12.535 28.2204 12.3118 28.4119L7.71094 24.0471C7.85888 23.6619 8.07756 23.3248 8.39392 23.0547Z" fill="#7E36D0"/>
<path d="M26.5902 26.7232L13.4111 27.3822L13.8418 26.8367L26.5148 26.2031L26.5902 26.7232Z" fill="white"/>
<path d="M26.8476 28.4844L26.8784 28.6951H26.8778C26.8453 28.7077 26.8285 28.7134 26.8285 28.7134L26.8741 28.9691C26.8547 28.9827 26.8348 28.9959 26.8149 29.0095L12.3125 29.7346C12.3188 29.5719 12.3251 29.4191 12.3313 29.2784C12.3324 29.2523 12.3334 29.2302 12.334 29.2099L26.8476 28.4844Z" fill="white"/>
<path d="M26.7207 27.6271L12.6514 28.3307C12.6544 28.3275 12.657 28.3238 12.6597 28.3208L12.8244 28.1121L26.6903 27.4189L26.7207 27.6271Z" fill="#FFAE0B"/>
<path d="M26.3991 25.4425L14.4658 26.039L14.6379 25.8213L26.3687 25.2344L26.3991 25.4425Z" fill="#FFAE0B"/>
<path d="M14.9878 25.3806L12.6614 28.3275C12.5839 28.426 12.4942 28.5101 12.3965 28.5796C12.4153 28.4941 12.4417 28.4139 12.482 28.2878C12.4646 28.2744 12.4469 28.2602 12.4295 28.2467C12.4478 28.2272 12.4652 28.2069 12.482 28.1852L14.8076 25.2383C14.8467 25.1891 14.918 25.1803 14.9679 25.2188L14.9685 25.2195C15.0181 25.2592 15.0263 25.3307 14.9878 25.3806Z" fill="#7E36D0"/>
<path d="M27.0869 28.6015C26.988 28.6398 26.9126 28.6679 26.867 28.684L26.05 23.0766C26.0409 23.0136 26.0839 22.9557 26.1463 22.9465C26.2108 22.9374 26.2673 22.9804 26.2764 23.0428L27.0869 28.6015Z" fill="#7E36D0"/>
<path d="M17.0731 18.5733C17.0084 18.5766 16.9517 18.5291 16.9442 18.4639C16.9365 18.3962 16.9851 18.335 17.0528 18.3273C19.7857 18.0156 20.4543 16.3894 20.4608 16.373C20.4857 16.3096 20.5573 16.2782 20.6207 16.3029C20.6841 16.3276 20.7157 16.3987 20.6912 16.4624C20.6633 16.5349 19.9716 18.2432 17.081 18.5727C17.0783 18.5731 17.0757 18.5733 17.0731 18.5733Z" fill="#7E36D0"/>
<path d="M18.2175 19.2486C18.1541 19.2518 18.0975 19.2058 18.089 19.1416C18.0799 19.0739 18.1275 19.0119 18.195 19.0028C19.7006 18.8017 20.0739 18.0717 20.0776 18.0644C20.1075 18.0032 20.1813 17.9777 20.2427 18.0077C20.3039 18.0377 20.3293 18.1117 20.2995 18.1729C20.2824 18.2077 19.8629 19.0293 18.2276 19.2476C18.2244 19.2482 18.2209 19.2486 18.2175 19.2486Z" fill="#7E36D0"/>
<path d="M22.4036 29.6017C22.3639 29.6461 21.4075 30.6931 19.6451 31.5437C19.3772 31.6734 19.0807 31.8016 18.7589 31.9214C18.3759 31.9591 17.9888 31.9836 17.5986 31.9946C18.3404 31.8067 18.9828 31.5546 19.5138 31.2988C21.2308 30.4728 22.1886 29.4264 22.1981 29.4161C22.2494 29.3591 22.3373 29.3555 22.3943 29.4062C22.4502 29.4574 22.4549 29.5452 22.4036 29.6017Z" fill="#7E36D0"/>
<path d="M3.6248 24.3579C3.78025 24.521 4.1495 24.9779 4.00986 25.4863C3.97784 25.6035 3.88908 25.6663 3.74356 25.7861C3.74356 25.7861 3.15503 25.049 2.86056 24.6384C2.82448 24.5877 2.79266 24.5421 2.76692 24.5034C2.7649 24.4998 2.76226 24.4965 2.76003 24.4929C2.76003 24.4929 1.50615 24.957 1.29315 24.6597C0.95774 24.1909 2.42523 23.5108 2.74281 23.4088C2.43354 23.5051 1.06819 24.0916 0.680496 23.9068C0.148908 23.654 1.54101 22.78 2.03551 22.5759C1.38739 22.7962 0.213355 23.1561 0.240106 22.6255C0.25105 22.4069 1.41657 21.6311 1.45285 21.6069C0.334345 21.9914 -0.449763 21.8287 0.28834 21.2198C0.639963 20.93 1.29112 20.5198 1.72908 20.4828C2.29046 20.4351 2.0351 21.1457 2.0351 21.1457C2.0351 21.1457 2.40395 20.9726 2.73774 21.142C3.06626 21.3084 2.75193 22.0716 2.742 22.0962C2.76348 22.08 3.24055 21.7243 3.57738 22.0204C3.91421 22.3165 3.53077 22.7946 3.51354 22.8156C3.52773 22.8114 4.04148 22.6466 4.28103 23.0773C4.45532 23.3902 4.01007 23.8798 3.74377 24.1319C3.63858 24.2312 3.56117 24.2941 3.56117 24.2941C3.56117 24.2941 3.58609 24.3166 3.6248 24.3579Z" fill="#FDA66F"/>
<path d="M3.62155 24.3495C3.3747 24.4551 3.09057 24.554 2.8573 24.63C2.82123 24.5793 2.78941 24.5337 2.76367 24.495C3.06179 24.3994 3.4578 24.2618 3.74031 24.1235C3.63513 24.2228 3.55771 24.2857 3.55771 24.2857C3.55771 24.2857 3.58284 24.3082 3.62155 24.3495Z" fill="#FC804D"/>
<path d="M30.571 24.2663C30.4154 24.4293 30.0451 24.8853 30.1837 25.394C30.2153 25.5111 30.325 25.5624 30.4703 25.6824C30.4788 25.6854 31.0519 24.9627 31.3348 24.5482C31.3699 24.4968 31.4031 24.4522 31.4287 24.4135C31.4307 24.4098 31.4333 24.4066 31.4356 24.4031C31.4356 24.4031 32.6886 24.8697 32.902 24.573C33.2383 24.105 31.7722 23.4218 31.455 23.3193C31.7641 23.4162 33.1282 24.0053 33.5163 23.8215C34.0483 23.57 32.658 22.6929 32.1641 22.488C32.8119 22.7095 33.9851 23.0718 33.9593 22.5413C33.9488 22.3226 32.7847 21.5444 32.7488 21.5202C33.8665 21.9069 34.651 21.7458 33.9141 21.1354C33.5631 20.8448 32.9128 20.4334 32.4748 20.3955C31.9137 20.3468 32.1674 21.0578 32.1674 21.0578C32.1674 21.0578 31.7989 20.8839 31.4647 21.0527C31.1358 21.2185 31.4487 21.9823 31.4587 22.0068C31.4372 21.9906 30.9609 21.6339 30.6233 21.9292C30.2859 22.2247 30.6683 22.7036 30.6855 22.7245C30.6713 22.7202 30.158 22.5544 29.9176 22.9845C29.7427 23.297 30.187 23.7876 30.4528 24.0402C30.5578 24.1399 30.635 24.2027 30.635 24.2027C30.635 24.2027 30.6097 24.2252 30.571 24.2663Z" fill="#FDA66F"/>
<path d="M30.5656 24.2716C30.8123 24.3778 31.0962 24.4773 31.3295 24.5535C31.3657 24.5028 31.3978 24.4574 31.4233 24.4187C31.1254 24.3225 30.7296 24.184 30.4473 24.0454C30.5522 24.1451 30.6295 24.2079 30.6295 24.2079C30.6295 24.2079 30.6043 24.2304 30.5656 24.2716Z" fill="#FC804D"/>
</svg>
