<svg width="21" height="20" viewBox="0 0 21 20" fill="none" xmlns="http://www.w3.org/2000/svg">
<path d="M3 4.125C3 3.03098 3.4346 1.98177 4.20818 1.20818C4.98177 0.434597 6.03098 0 7.125 0C8.21902 0 9.26823 0.434597 10.0418 1.20818C10.8154 1.98177 11.25 3.03098 11.25 4.125C11.25 5.21902 10.8154 6.26823 10.0418 7.04182C9.26823 7.8154 8.21902 8.25 7.125 8.25C6.03098 8.25 4.98177 7.8154 4.20818 7.04182C3.4346 6.26823 3 5.21902 3 4.125ZM12.75 6.375C12.75 5.93179 12.8373 5.49292 13.0069 5.08344C13.1765 4.67397 13.4251 4.30191 13.7385 3.98851C14.0519 3.67512 14.424 3.42652 14.8334 3.25691C15.2429 3.0873 15.6818 3 16.125 3C16.5682 3 17.0071 3.0873 17.4166 3.25691C17.826 3.42652 18.1981 3.67512 18.5115 3.98851C18.8249 4.30191 19.0735 4.67397 19.2431 5.08344C19.4127 5.49292 19.5 5.93179 19.5 6.375C19.5 7.27011 19.1444 8.12855 18.5115 8.76149C17.8786 9.39442 17.0201 9.75 16.125 9.75C15.2299 9.75 14.3715 9.39442 13.7385 8.76149C13.1056 8.12855 12.75 7.27011 12.75 6.375ZM0 16.875C2.81582e-08 14.9853 0.750668 13.1731 2.08686 11.8369C3.42306 10.5007 5.23533 9.75 7.125 9.75C9.01467 9.75 10.8269 10.5007 12.1631 11.8369C13.4993 13.1731 14.25 14.9853 14.25 16.875V16.878L14.249 16.997C14.2469 17.1242 14.2125 17.2487 14.1489 17.3589C14.0854 17.4691 13.995 17.5614 13.886 17.627C11.8452 18.856 9.50727 19.5036 7.125 19.5C4.653 19.5 2.339 18.816 0.365 17.627C0.255851 17.5615 0.165167 17.4693 0.101487 17.3591C0.0378062 17.2489 0.00322534 17.1243 0.00100005 16.997L0 16.875ZM15.75 16.878L15.749 17.022C15.7434 17.3553 15.6638 17.6832 15.516 17.982C17.2617 18.0897 19.0054 17.7416 20.576 16.972C20.6975 16.9126 20.8006 16.8215 20.8745 16.7083C20.9485 16.5951 20.9904 16.4641 20.996 16.329C21.0313 15.4902 20.8494 14.6566 20.4679 13.9088C20.0864 13.1609 19.5183 12.5243 18.8185 12.0605C18.1188 11.5967 17.3111 11.3215 16.4738 11.2615C15.6364 11.2015 14.7977 11.3587 14.039 11.718C15.1522 13.2066 15.7522 15.0162 15.749 16.875L15.75 16.878Z" fill="#C83A2D"/>
</svg>
