<svg width="32" height="32" viewBox="0 0 32 32" fill="none" xmlns="http://www.w3.org/2000/svg">
<path d="M28.8854 23.2289L25.7334 22.7856C25.7334 22.7856 26.0019 29.1689 26.1906 32H30.1486C29.8167 29.615 28.8854 23.2289 28.8854 23.2289Z" fill="#D0695A"/>
<path d="M0.578166 23.5097C0.33823 23.7097 0.0829167 24.5736 0.00958623 24.8854C-0.0637443 25.1973 0.303043 26.3161 0.449771 26.4445C0.596499 26.5729 0.779959 26.5362 0.779959 26.5362C0.779959 26.5362 0.908355 26.683 1.09175 26.628C1.27514 26.573 1.29354 26.3345 1.25681 26.2244C1.22014 26.1144 1.00002 25.4174 1.07335 25.0872C1.14675 24.757 1.31181 25.1973 1.42187 25.399C1.53193 25.6008 1.69699 25.5641 1.77039 25.3807C1.84379 25.1972 1.75206 24.4819 1.73373 24.2985C1.71539 24.1151 1.80712 23.9683 1.80712 23.6199C1.80712 23.2713 0.798292 23.3263 0.578166 23.5097Z" fill="#DA8D73"/>
<path d="M31.1669 22.5101C31.3523 22.6244 31.614 23.1956 31.6954 23.4036C31.7769 23.6116 31.6343 24.4204 31.5457 24.5235C31.4571 24.6267 31.3268 24.6195 31.3268 24.6195C31.3268 24.6195 31.2527 24.7335 31.1206 24.7136C30.9885 24.6937 30.9523 24.531 30.9668 24.4513C30.9812 24.3717 31.0643 23.8688 30.9809 23.6481C30.8977 23.4274 30.8272 23.7476 30.7711 23.8978C30.7151 24.048 30.5975 24.039 30.5287 23.9197C30.46 23.8003 30.4525 23.2974 30.4471 23.1689C30.4416 23.0404 30.3638 22.9482 30.3294 22.7076C30.2949 22.467 30.9968 22.4052 31.1669 22.5101Z" fill="#ECC7B8"/>
<path d="M25.5863 2.5789C25.5863 2.5789 23.4683 1.70585 22.032 3.14714C20.5957 4.58837 20.5907 7.09329 20.729 7.93827C20.8673 8.78325 20.2292 9.54093 20.4535 9.85124C20.6778 10.1616 23.3136 11.6932 25.1761 11.3798C27.0386 11.0664 28.6425 9.78657 28.7709 9.48996C28.8993 9.19335 28.1447 8.33534 28.1397 6.99558C28.1348 5.65582 28.5055 2.54841 25.5863 2.5789Z" fill="#CC6D3D"/>
<path d="M6.37994 9.59394C5.72507 10.07 3.51247 10.7495 2.70543 11.4587C1.89839 12.168 0.489396 22.7966 0.210915 23.3933C0.0397429 23.7602 1.80055 24.127 2.02067 24.0047C2.2408 23.8824 3.69505 16.3526 3.97226 15.7675C3.97226 15.7675 2.75438 24.396 2.99895 24.9585C3.24352 25.521 14.8358 23.7602 14.7379 23.809C14.6401 23.8579 12.5613 10.7494 12.5613 10.7494C12.5613 10.7494 9.74509 9.34527 8.96437 9.19136C8.18366 9.03745 7.47439 9.25757 7.47439 9.25757L6.45878 9.60522" fill="#5F7393"/>
<path d="M6.51725 7.92501C6.51725 7.92501 6.35689 9.27719 6.38026 9.59422C6.38026 9.59422 7.83229 10.1333 8.96462 9.19171L8.36837 7.4209L6.51725 7.92501Z" fill="#DA8D73"/>
<path d="M5.28411 6.76023C5.28411 6.76023 4.46633 6.45589 4.32538 5.95352C4.18442 5.45122 3.6793 5.27636 3.73806 4.77057C3.79682 4.26477 3.81334 3.81908 3.62612 3.29328C3.43883 2.76747 3.88727 2.3197 4.23861 2.18943C4.58996 2.05915 4.27662 1.26561 5.1265 1.24278C5.97639 1.21995 6.73058 0.502355 7.48819 0.764585C8.24587 1.02682 8.53913 0.506183 8.93922 1.16327L9.63989 2.03108C9.63989 2.03108 10.3796 2.19104 10.3682 2.93623C10.3567 3.68142 10.5738 4.67642 10.325 5.1207C10.0762 5.56498 10.467 6.61907 9.9457 7.2219C9.4244 7.82479 8.48708 8.10012 8.48708 8.10012L5.28411 6.76023Z" fill="#6B393B"/>
<path d="M23.6152 10.2104C23.6152 10.2104 21.3497 11.0313 20.8243 11.5238C20.299 12.0163 18.0006 17.1384 17.8693 17.8278C17.7379 18.5173 17.0485 23.114 17.2126 23.2453C17.3768 23.3767 18.3946 23.5737 18.6573 23.5409C18.92 23.508 20.1347 18.3532 20.5945 17.6965C21.0541 17.0399 22.1705 15.2997 22.1705 15.2997C22.1705 15.2997 20.9967 23.3441 21.0542 23.8036C21.1117 24.263 23.9107 24.8871 25.9135 24.6572C27.9164 24.4274 29.3282 24.0334 29.5909 23.902C29.8535 23.7707 27.3582 15.5623 27.4239 14.8072C28.1353 17.0403 28.9528 19.2369 29.6216 21.4834C29.7607 21.95 29.8653 22.5003 30.1069 22.9281C30.13 22.9689 30.1498 23.0309 30.1934 23.0559C30.4233 23.1873 31.2048 22.7582 31.3689 22.6268C31.4744 22.5422 31.3186 22.037 31.2986 21.9367C31.2036 21.4584 31.0858 20.9845 30.9648 20.5122C30.5917 19.0556 30.0649 17.645 29.659 16.198C29.3334 15.0376 29.0387 13.8689 28.7229 12.7059C28.6062 12.2761 28.5358 11.6314 28.2666 11.2612C28.0039 10.9 26.2419 10.4403 26.2419 10.4403L23.6152 10.2104Z" fill="#476665"/>
<path d="M24.1734 8.40471C24.1734 8.40471 24.0092 9.68524 23.6152 10.2106C23.6152 10.2106 24.4689 11.5568 25.1584 11.8522C25.1584 11.8522 25.9136 10.9329 26.2419 10.4404C26.2419 10.4404 25.5195 9.32403 25.5852 8.40471C25.6509 7.48532 24.1734 8.40471 24.1734 8.40471Z" fill="#ECC7B8"/>
<path d="M20.4825 32C20.3698 30.0102 19.8721 24.2632 19.8721 24.2632L12.3532 25.1825L11.9453 32H20.4825Z" fill="#252D44"/>
<path d="M15.0895 7.94459C15.0895 7.94459 13.6996 8.21817 13.404 8.7654C13.2453 9.05939 13.3165 9.15938 13.0757 9.46587C12.8349 9.77228 9.96749 11.1513 9.6829 12.005C9.39838 12.8586 7.69103 24.4817 7.66913 25.1822C7.64724 25.8826 9.52973 25.8826 9.77047 25.817C10.0112 25.7513 11.4778 16.0326 11.8499 15.1132C11.8499 15.1132 11.1057 25.0946 11.1932 25.5324C11.2808 25.9701 14.1483 26.4079 16.3591 26.3423C18.5699 26.2766 21.5468 25.0946 21.5468 25.0946L20.1815 14.8948C20.1815 14.8948 22.488 24.0001 22.7288 24.219C22.9696 24.4379 24.655 24.416 25.0053 23.8907C25.3555 23.3653 21.5288 10.6306 21.1528 10.21C20.7768 9.78954 18.0227 9.00614 17.8257 8.94046C17.6287 8.87479 17.2891 8.11227 17.1033 8.04304C16.4575 7.8023 15.0895 7.94459 15.0895 7.94459Z" fill="#D0695A"/>
<path d="M14.1488 6.92714C14.1488 6.92714 14.0393 8.48125 13.8643 8.98469C13.8643 8.98469 14.5866 9.86022 15.5497 9.83833C16.5128 9.81644 17.0819 8.94091 17.0819 8.94091C17.0819 8.94091 16.3815 7.18977 16.3596 6.66444C16.3377 6.13917 14.1488 6.92714 14.1488 6.92714Z" fill="#DF9E8C"/>
<path d="M13.3137 6.75567C13.3137 6.75567 12.4334 6.51003 11.8602 5.28168C11.287 4.05339 11.6351 1.92432 12.4744 1.74005C12.4744 1.74005 13.7027 0 14.5215 0C15.3404 0 15.4233 0.457442 16.1184 0.450392C16.8134 0.443273 16.8963 0.286607 17.6332 0.85982C18.3702 1.43303 18.2065 1.82198 18.5749 2.35423C18.9434 2.88648 18.9434 5.58876 17.3262 6.2848C15.7089 6.98083 13.3137 6.75567 13.3137 6.75567Z" fill="#9D644A"/>
<path d="M23.8226 13.695C20.8015 13.3628 19.3979 15.3939 19.36 17.5125C19.322 19.631 19.6444 22.3678 18.3115 25.3346L27.2875 25.4467C27.2875 25.4467 26.2594 21.7267 26.8629 19.3591C27.4664 16.9914 26.6472 14.0057 23.8226 13.695Z" fill="#9D644A"/>
<path d="M23.1477 23.0871C23.0594 23.1006 21.0676 22.6372 21.0676 22.6372C19.3131 22.838 18.3894 24.9227 18.0738 26.8467C17.8797 28.0296 17.3677 30.3713 17.002 32H28.862C28.5829 29.7837 27.978 25.1449 27.7302 24.5325C27.4031 23.7239 26.982 23.6301 26.1722 23.2118C25.3625 22.7933 23.236 23.0736 23.1477 23.0871Z" fill="#5F7393"/>
<path d="M23.0321 20.7096C23.0321 20.7096 22.741 21.6128 22.4044 22.0712C22.0678 22.5294 21.0674 22.6374 21.0674 22.6374C21.0674 22.6374 22.1326 24.2821 23.7835 24.1425C25.4343 24.0028 26.172 23.2119 26.172 23.2119C26.172 23.2119 25.011 22.4179 24.7886 22.2938C24.5662 22.1697 24.3076 20.6274 24.3076 20.6274L23.0321 20.7096Z" fill="#DF9E8C"/>
<path d="M8.2983 20.208L6.91925 20.5199C5.22835 20.8811 4.09556 21.401 3.55384 21.877C3.09411 22.2811 1.50361 29.3244 1.02246 31.9998H14.9978C14.5752 29.2477 13.403 22.3874 12.7691 21.5541C12.3241 20.969 9.80862 20.6512 9.80862 20.6512L8.2983 20.208Z" fill="#476665"/>
<path d="M7.4288 18.4187C7.4288 18.4187 7.31391 19.8142 6.91992 20.5201C6.91992 20.5201 8.10194 21.8006 9.80929 20.6514C9.80929 20.6514 9.33318 19.2888 9.3168 18.5008C9.30034 17.7128 7.4288 18.4187 7.4288 18.4187Z" fill="#ECC7B8"/>
<path d="M6.09769 18.2319C6.09769 18.2319 5.11699 17.7065 4.45151 16.288C3.78603 14.8695 3.73352 14.2741 4.10125 13.381C4.46904 12.4879 5.53723 12.0676 5.79994 12.1727C5.79994 12.1727 8.25167 9.9311 10.5808 11.6998C12.9099 13.4686 12.0168 17.9342 9.98535 18.5647C7.95398 19.1951 6.09769 18.2319 6.09769 18.2319Z" fill="#242B45"/>
<path d="M10.4458 16.0258C10.4458 16.0258 11.0877 15.954 11.1345 16.6635C11.1815 17.3731 10.5806 17.555 10.5806 17.555C10.5806 17.555 9.9544 19.9359 7.85561 19.7981C5.75683 19.6602 5.54638 16.3791 5.51367 15.8647C5.51367 15.8647 6.29633 15.1388 6.59154 14.3603C6.59154 14.3603 8.50417 14.9185 9.39508 14.1689C9.39508 14.1689 9.76436 15.8115 10.4458 16.0258Z" fill="#ECC7B8"/>
<path d="M21.4437 17.7117C21.4437 17.7117 20.5914 17.7167 20.7227 18.5747C20.8541 19.4327 21.4292 19.42 21.4292 19.42C21.4292 19.42 22.1171 22.2752 24.2293 21.6508C26.3415 21.0264 26.1254 17.6474 26.1254 17.6474C26.1254 17.6474 24.3631 16.7882 23.9716 15.8696C23.9716 15.8696 22.5035 17.424 21.4437 17.7117Z" fill="#DF9E8C"/>
<path d="M12.7207 4.3399C12.7207 4.3399 12.1679 4.36038 12.2294 4.9336C12.2908 5.50681 12.8026 5.71149 12.8026 5.71149C12.8026 5.71149 13.4781 8.27047 15.4229 7.98386C17.3677 7.69726 17.5725 5.62963 17.5725 5.62963C17.5725 5.62963 18.0024 5.46585 18.0229 4.9336C18.0434 4.40135 17.4906 4.27853 17.4906 4.27853C17.4906 4.27853 16.4466 3.78717 16.119 3.54153C15.7915 3.29588 14.3175 3.41871 13.8058 3.00928C13.8058 3.00928 13.5192 3.62345 13.2735 3.76676C13.0278 3.90999 12.8844 4.29894 12.7207 4.3399Z" fill="#DF9E8C"/>
<path d="M22.5124 6.20928C22.5124 6.20928 21.8553 6.22211 21.9414 6.90821C22.0275 7.59437 22.5866 7.62868 22.5866 7.62868C22.5866 7.62868 23.7198 9.75151 25.4862 9.46013C27.2526 9.16869 27.1851 6.14542 27.1851 6.14542C27.1851 6.14542 25.9938 5.49344 25.6856 4.6958C25.6856 4.6958 24.6201 5.875 24.078 5.69913C23.5358 5.52332 23.1613 6.40664 22.5124 6.20928Z" fill="#ECC7B8"/>
<path d="M9.20014 5.76702C9.20014 5.76702 9.87449 5.58531 9.85831 6.36293C9.84205 7.14063 9.13836 7.18522 9.13836 7.18522C9.13836 7.18522 8.73834 8.86839 7.17744 8.9845C5.61655 9.10061 4.7846 6.10527 4.8492 5.00283C4.8492 5.00283 5.34774 4.33016 5.69358 4.34849C6.03941 4.36683 6.48128 3.8517 6.87338 3.89347C7.26548 3.93524 7.73259 3.4737 8.12161 3.64783C8.51062 3.82195 8.78669 3.86305 8.85196 4.20472C8.91723 4.54639 8.98082 5.56832 9.20014 5.76702Z" fill="#DA8D73"/>
<path d="M17.1063 8.83462C17.0548 8.88014 17.0233 8.9428 16.983 8.9982C16.9454 9.04991 16.9045 9.09913 16.8615 9.14634C16.773 9.24344 16.6747 9.33222 16.568 9.40904C16.3563 9.56154 16.1164 9.67228 15.8622 9.73144C15.3461 9.85137 14.8036 9.72942 14.3714 9.42818C14.252 9.34504 14.1422 9.24834 14.0443 9.14083C13.9958 9.08758 13.9484 9.03245 13.9046 8.97523C13.8813 8.94475 13.8586 8.91406 13.8347 8.88404C13.8248 8.87162 13.8167 8.85503 13.8051 8.84449C13.7906 8.83146 13.7749 8.83206 13.7573 8.82709C13.7472 8.82421 13.7362 8.83059 13.7334 8.84066C13.73 8.85322 13.7225 8.86544 13.7227 8.87867C13.7229 8.89552 13.7332 8.91103 13.7403 8.92581C13.7558 8.95838 13.7713 8.98967 13.7906 9.02023C13.8283 9.07959 13.8688 9.13741 13.9143 9.19113C14.0038 9.29689 14.1047 9.39259 14.2141 9.47753C14.4335 9.6481 14.6875 9.77509 14.9563 9.84633C15.5033 9.99132 16.0908 9.88428 16.5625 9.5749C16.6942 9.48848 16.8171 9.38735 16.9259 9.27339C16.9794 9.21739 17.0291 9.15796 17.0759 9.09624C17.1239 9.03305 17.1799 8.96583 17.1967 8.8872C17.2081 8.83354 17.1473 8.79842 17.1063 8.83462Z" fill="#B43629"/>
<path d="M20.1575 14.4889C20.1335 14.4139 20.1099 14.3388 20.0867 14.2636C19.993 13.9601 19.907 13.6545 19.8238 13.3479C19.7769 13.1751 19.7314 13.0019 19.6834 12.8293C19.6601 12.7457 19.6381 12.6617 19.6155 12.5779C19.6035 12.5334 19.5891 12.4896 19.5771 12.4451C19.5653 12.4013 19.5489 12.3677 19.5266 12.3287C19.5191 12.3157 19.5015 12.3226 19.5002 12.3359C19.4966 12.3732 19.4935 12.4037 19.4993 12.4413C19.5054 12.4817 19.5113 12.5223 19.5182 12.5626C19.532 12.6431 19.5481 12.7231 19.5646 12.803C19.5964 12.9574 19.6289 13.1114 19.6673 13.2644C19.7444 13.5725 19.8306 13.8782 19.9226 14.1821C19.9455 14.2575 19.9686 14.3327 19.9923 14.4078C20.0036 14.444 20.0151 14.4802 20.0267 14.5164C20.0384 14.5527 20.0469 14.5998 20.083 14.6205C20.1105 14.6362 20.142 14.6298 20.1607 14.605C20.1871 14.5698 20.1694 14.526 20.1575 14.4889Z" fill="#B43629"/>
<path d="M17.7945 9.11163C17.7809 9.0835 17.7333 9.09015 17.7269 9.1205C17.7077 9.21189 17.7078 9.30356 17.6946 9.39569C17.6809 9.49098 17.6537 9.58546 17.6162 9.6741C17.5417 9.85038 17.4266 10.0066 17.2877 10.1373C16.994 10.4137 16.6072 10.5772 16.2254 10.6911C16.0116 10.7549 15.7927 10.8013 15.5717 10.8321C15.348 10.8632 15.1191 10.8774 14.8942 10.851C14.5516 10.8106 14.2269 10.6598 13.9577 10.4469C13.8048 10.326 13.6664 10.1859 13.5463 10.0324C13.4227 9.87428 13.3285 9.69962 13.2189 9.53241C13.2024 9.50716 13.1606 9.52261 13.1691 9.55343C13.2177 9.73071 13.3192 9.89792 13.4265 10.0458C13.5341 10.1941 13.656 10.3326 13.7935 10.4539C14.065 10.6935 14.3925 10.8732 14.7487 10.9472C14.9778 10.9948 15.2132 10.9965 15.4456 10.9759C15.6794 10.9551 15.911 10.9141 16.138 10.8538C16.5486 10.7448 16.9618 10.5815 17.2931 10.3096C17.4711 10.1635 17.6218 9.98099 17.7184 9.77107C17.7663 9.66705 17.803 9.55779 17.8213 9.44458C17.8401 9.32941 17.8466 9.21881 17.7945 9.11163Z" fill="#B43629"/>
<path d="M13.5948 9.01655C13.5885 9.00419 13.5741 9.0009 13.5616 9.00305C13.553 9.00453 13.5485 9.00916 13.5434 9.01581C13.543 9.01628 13.5431 9.01682 13.5428 9.01729C13.5153 9.04549 13.499 9.08189 13.4829 9.11761C13.4617 9.16415 13.4421 9.21116 13.4226 9.25837C13.4034 9.3047 13.3845 9.3511 13.3664 9.39791C13.3514 9.43686 13.3336 9.47963 13.3328 9.52207C13.3267 9.55222 13.3242 9.58278 13.3322 9.61293C13.3351 9.62401 13.3492 9.63039 13.3592 9.62388C13.4038 9.59493 13.4337 9.54531 13.4551 9.49776C13.4794 9.44398 13.4999 9.38837 13.5199 9.33284C13.5393 9.27858 13.5594 9.22459 13.577 9.16966C13.5922 9.12231 13.6194 9.06477 13.5948 9.01655Z" fill="#D98A79"/>
<path d="M13.747 9.35658C13.7412 9.33986 13.7201 9.33227 13.7067 9.3459C13.6742 9.37888 13.6631 9.43354 13.6484 9.47611C13.6326 9.52157 13.6171 9.56704 13.6026 9.61297C13.588 9.65877 13.574 9.70456 13.5608 9.75083C13.5544 9.77333 13.5493 9.79744 13.5492 9.82094C13.5491 9.84411 13.5459 9.86808 13.5497 9.89105C13.5522 9.90582 13.5706 9.90663 13.58 9.89904C13.5981 9.88433 13.6123 9.86204 13.6268 9.84377C13.6422 9.82443 13.6519 9.8012 13.661 9.77843C13.6789 9.73357 13.694 9.68825 13.7071 9.64178C13.7202 9.59524 13.7304 9.54864 13.7387 9.50103C13.7464 9.45637 13.7623 9.40077 13.747 9.35658Z" fill="#D98A79"/>
<path d="M14.0916 9.58724C14.0862 9.57697 14.0704 9.56972 14.0592 9.57401C14.0069 9.59409 13.9885 9.65413 13.967 9.70147C13.9442 9.7515 13.9226 9.80213 13.902 9.8531C13.8808 9.90555 13.8595 9.95846 13.8444 10.0131C13.8366 10.0413 13.8326 10.0699 13.8321 10.0991C13.8317 10.119 13.8343 10.1445 13.8556 10.1531C13.8767 10.1618 13.8959 10.146 13.909 10.1309C13.9279 10.1092 13.944 10.0863 13.9568 10.0605C13.9819 10.0096 14.0022 9.95591 14.0214 9.90246C14.0399 9.85082 14.0577 9.79898 14.0739 9.74653C14.0893 9.69737 14.1173 9.63667 14.0916 9.58724Z" fill="#D98A79"/>
<path d="M14.4115 9.92718C14.4078 9.91812 14.398 9.91201 14.3884 9.91778C14.3639 9.93256 14.3548 9.94706 14.3436 9.97291C14.3337 9.99588 14.3221 10.0176 14.3122 10.0407C14.2919 10.0883 14.2743 10.137 14.2561 10.1854C14.2379 10.2335 14.2225 10.283 14.2086 10.3324C14.2017 10.3569 14.1984 10.3811 14.1955 10.4062C14.1928 10.4297 14.1905 10.4589 14.2027 10.4799C14.2091 10.4911 14.2222 10.4929 14.2332 10.4879C14.2533 10.4788 14.2675 10.4539 14.2792 10.4358C14.294 10.4128 14.3049 10.3872 14.3143 10.3616C14.3314 10.3149 14.3473 10.2676 14.3608 10.2198C14.3744 10.1721 14.388 10.1241 14.399 10.0757C14.4045 10.0513 14.4084 10.0268 14.4134 10.0024C14.416 9.9897 14.4222 9.97486 14.4217 9.96183C14.4213 9.95022 14.416 9.93773 14.4115 9.92718Z" fill="#D98A79"/>
<path d="M14.8729 10.0485C14.8606 10.0059 14.8113 10.0122 14.7952 10.0415C14.795 10.0404 14.7947 10.0394 14.7944 10.0383C14.7716 10.0849 14.7658 10.1347 14.7572 10.1853C14.7489 10.2338 14.7411 10.2823 14.7331 10.3308C14.7247 10.3814 14.7147 10.4323 14.7096 10.4833C14.7072 10.5074 14.7053 10.5344 14.7063 10.5586C14.7073 10.5829 14.7176 10.6054 14.725 10.6283C14.7295 10.6422 14.748 10.6488 14.7588 10.6372C14.7741 10.6208 14.7928 10.6051 14.8032 10.5849C14.8149 10.5625 14.8235 10.5348 14.8313 10.5108C14.8469 10.4626 14.8535 10.4105 14.8606 10.3604C14.8682 10.3078 14.8747 10.2549 14.8785 10.2017C14.8821 10.1504 14.8872 10.0985 14.8729 10.0485Z" fill="#D98A79"/>
<path d="M15.3985 10.3629C15.3964 10.3252 15.3924 10.2871 15.3865 10.2498C15.3807 10.2131 15.375 10.1751 15.3556 10.1428C15.3359 10.1104 15.2889 10.1223 15.2805 10.1531C15.2804 10.153 15.2804 10.1528 15.2803 10.1526C15.2801 10.1533 15.2801 10.154 15.2799 10.1546C15.2795 10.1564 15.279 10.1581 15.2789 10.1601C15.2711 10.1942 15.2737 10.2302 15.2744 10.265C15.2752 10.2989 15.276 10.3329 15.2768 10.3668C15.2771 10.3838 15.2783 10.4007 15.2791 10.4177C15.28 10.4363 15.2789 10.4579 15.2839 10.4761C15.289 10.4948 15.2905 10.5138 15.2962 10.5324C15.3008 10.5475 15.3045 10.562 15.3126 10.5761C15.3231 10.5946 15.3467 10.5913 15.3578 10.5761C15.3791 10.5472 15.3866 10.5103 15.394 10.4761C15.4017 10.4403 15.4006 10.3992 15.3985 10.3629Z" fill="#D98A79"/>
<path d="M15.8387 10.3454C15.8319 10.2996 15.8218 10.2555 15.81 10.2108C15.7979 10.1652 15.7844 10.1148 15.7386 10.0939C15.7366 10.0929 15.7342 10.0929 15.7326 10.0947C15.6988 10.1301 15.7034 10.179 15.7057 10.225C15.7081 10.2708 15.7101 10.3166 15.7133 10.3624C15.7166 10.4085 15.7194 10.4548 15.7253 10.5006C15.7312 10.5458 15.7412 10.5969 15.7705 10.633C15.7853 10.6511 15.8116 10.6419 15.8228 10.6263C15.8486 10.5905 15.8531 10.5336 15.853 10.4907C15.8529 10.4421 15.8459 10.3932 15.8387 10.3454Z" fill="#D98A79"/>
<path d="M16.2955 10.1663C16.272 10.0994 16.2391 10.0094 16.1686 9.97959C16.1629 9.97717 16.1559 9.97871 16.154 9.98556C16.1371 10.0475 16.1627 10.1176 16.1785 10.1778C16.1956 10.2434 16.2019 10.3125 16.2238 10.3766C16.2337 10.4055 16.2464 10.4464 16.282 10.4512C16.3217 10.4566 16.3311 10.4004 16.3338 10.3734C16.3407 10.3034 16.3185 10.2317 16.2955 10.1663Z" fill="#D98A79"/>
<path d="M16.7619 10.127C16.7484 10.0841 16.7273 10.0424 16.7075 10.0021C16.6888 9.96407 16.6673 9.927 16.6453 9.89088C16.6341 9.87254 16.6212 9.85582 16.6084 9.83863C16.6026 9.83091 16.5946 9.82023 16.5863 9.81533C16.5813 9.81251 16.5761 9.8111 16.5704 9.81103C16.5755 9.81197 16.5748 9.8109 16.5682 9.80767C16.561 9.80277 16.548 9.80727 16.5466 9.81647C16.5443 9.82319 16.5449 9.82446 16.5483 9.82023C16.5444 9.82413 16.5417 9.82876 16.5403 9.83407C16.5376 9.84367 16.54 9.85703 16.5417 9.86677C16.5452 9.88779 16.5492 9.90847 16.555 9.92895C16.5663 9.96958 16.5792 10.0104 16.5944 10.0498C16.6106 10.0917 16.6265 10.1355 16.6489 10.1747C16.6596 10.1935 16.6766 10.2207 16.6956 10.2319C16.7016 10.236 16.7079 10.2379 16.7148 10.2374C16.7187 10.2399 16.7228 10.2419 16.7271 10.2434C16.7328 10.2449 16.7398 10.245 16.7454 10.2426C16.7507 10.2403 16.7553 10.2357 16.7582 10.2307C16.7603 10.2268 16.7617 10.2225 16.7625 10.2181C16.7667 10.2132 16.7696 10.2076 16.7711 10.2011C16.7772 10.1792 16.7687 10.1483 16.7619 10.127Z" fill="#D98A79"/>
<path d="M17.0969 9.87856C17.0937 9.86318 17.0872 9.84525 17.0802 9.83115C17.0673 9.80516 17.0491 9.77998 17.032 9.75661C17.0134 9.73123 16.9942 9.70551 16.9741 9.68127C16.9645 9.66985 16.9547 9.66005 16.9431 9.65085C16.937 9.64594 16.9316 9.63963 16.9249 9.63553C16.9213 9.63399 16.9177 9.63245 16.9141 9.63097C16.9105 9.63057 16.9069 9.63003 16.9033 9.62936C16.8947 9.62244 16.8809 9.62862 16.884 9.64057C16.8854 9.64588 16.8806 9.65427 16.8809 9.66085C16.8812 9.66898 16.8846 9.6761 16.8865 9.68388C16.8904 9.6992 16.8962 9.71424 16.9032 9.72915C16.9158 9.75581 16.9303 9.78199 16.9447 9.80765C16.9592 9.8333 16.9751 9.85888 16.9927 9.88245C17.0032 9.89649 17.0181 9.91227 17.0328 9.92214C17.0438 9.9296 17.0558 9.93866 17.069 9.94155C17.0816 9.94424 17.0966 9.93792 17.0997 9.92416C17.1028 9.90898 17.0998 9.89286 17.0969 9.87856Z" fill="#D98A79"/>
<path d="M17.3825 9.64615C17.3753 9.62574 17.3625 9.60499 17.3506 9.58706C17.3275 9.55234 17.3037 9.5183 17.2802 9.48378C17.2575 9.45034 17.2341 9.4173 17.2124 9.38325C17.1914 9.35035 17.1653 9.30818 17.1314 9.28743C17.1114 9.27514 17.0905 9.29159 17.0884 9.31214C17.0843 9.35236 17.1064 9.40017 17.123 9.4355C17.1409 9.47337 17.1588 9.51071 17.1794 9.5471C17.1995 9.58236 17.2206 9.61627 17.2447 9.64897C17.2593 9.66878 17.2752 9.68967 17.2945 9.70511C17.3091 9.71687 17.3274 9.73184 17.3469 9.73392C17.3757 9.74447 17.3955 9.72936 17.3931 9.69914C17.3962 9.68141 17.3882 9.66254 17.3825 9.64615Z" fill="#D98A79"/>
<path d="M17.5979 9.20853C17.5966 9.20222 17.5969 9.19543 17.5938 9.1859C17.5906 9.17609 17.5853 9.16656 17.581 9.15716C17.5672 9.12721 17.5504 9.09894 17.5323 9.07134C17.5236 9.05797 17.5144 9.04474 17.5051 9.03178C17.5031 9.02903 17.5011 9.02628 17.4989 9.02366C17.4945 9.01755 17.4932 9.01594 17.4952 9.01896C17.4969 9.02111 17.4911 9.01365 17.4903 9.01271C17.4855 9.00627 17.4807 8.99989 17.4758 8.99344C17.4648 8.97894 17.4514 8.96342 17.4373 8.9516C17.4298 8.94529 17.4223 8.93938 17.4126 8.9365C17.4077 8.93502 17.4026 8.93462 17.3974 8.93428C17.3969 8.93421 17.3971 8.93435 17.3968 8.93435C17.3964 8.93381 17.3956 8.93287 17.3934 8.93126C17.3801 8.92139 17.3655 8.93764 17.368 8.9508C17.3718 8.94563 17.3718 8.9467 17.3679 8.95416C17.3649 8.95953 17.3634 8.9653 17.3634 8.97155C17.3628 8.98102 17.3645 8.98988 17.3669 8.99868C17.3713 9.015 17.3799 9.03367 17.3872 9.04864C17.4013 9.07725 17.4162 9.10559 17.4328 9.13285C17.451 9.16253 17.4702 9.19127 17.4923 9.21813C17.5041 9.23237 17.5156 9.24284 17.5307 9.25366C17.5412 9.26118 17.5519 9.27051 17.5646 9.27138C17.5729 9.274 17.5818 9.2738 17.5893 9.26803C17.5961 9.26279 17.5986 9.25601 17.5992 9.24875C17.6039 9.23626 17.6007 9.22169 17.5979 9.20853Z" fill="#D98A79"/>
<path d="M18.1198 26.0027C18.0545 25.9795 17.9937 26.0063 17.9292 26.0228C17.8651 26.0392 17.8007 26.0549 17.7363 26.0699C17.6048 26.1006 17.4725 26.1286 17.3399 26.1538C17.0804 26.2031 16.819 26.242 16.5563 26.27C16.027 26.3262 15.4932 26.3399 14.9617 26.3104C14.811 26.3021 14.6604 26.2907 14.5103 26.2757C14.4365 26.2684 14.3628 26.2602 14.2893 26.2512C14.2133 26.2419 14.137 26.2405 14.061 26.2332C14.0024 26.2275 13.9892 26.3245 14.047 26.3362C14.1805 26.363 14.3115 26.3863 14.4471 26.4012C14.5813 26.4161 14.7159 26.4284 14.8506 26.4374C15.1201 26.4555 15.3904 26.4623 15.6605 26.4582C16.1987 26.4499 16.7362 26.3976 17.2661 26.303C17.4147 26.2765 17.5627 26.2465 17.7099 26.2131C17.7848 26.1962 17.8596 26.1783 17.934 26.1596C18.0057 26.1416 18.0895 26.1345 18.1392 26.0755C18.1608 26.0496 18.1522 26.0142 18.1198 26.0027Z" fill="#B43629"/>
<path d="M18.2963 25.0377C18.1552 25.0608 18.0158 25.0992 17.8758 25.1284C17.7354 25.1576 17.5947 25.1848 17.4536 25.21C17.1691 25.2607 16.883 25.3032 16.5959 25.3371C16.0238 25.4046 15.4477 25.4393 14.8717 25.4408C14.5471 25.4417 14.2232 25.4263 13.8988 25.4198C13.8316 25.4185 13.8349 25.5152 13.8988 25.5221C14.1863 25.5533 14.4772 25.5604 14.7663 25.5627C15.0556 25.5649 15.3451 25.559 15.634 25.5443C16.215 25.5146 16.7942 25.4511 17.3678 25.3544C17.5279 25.3275 17.6874 25.2979 17.8465 25.2657C18.0071 25.2332 18.1726 25.2055 18.329 25.1565C18.4061 25.1323 18.3734 25.025 18.2963 25.0377Z" fill="#B43629"/>
<path d="M16.4388 7.62404C16.3667 7.65123 16.305 7.69871 16.241 7.74068C16.1785 7.78178 16.1134 7.81905 16.0463 7.85229C15.9076 7.92112 15.76 7.97169 15.6086 8.00365C15.2974 8.06919 14.9719 8.04764 14.6698 7.95C14.5846 7.92246 14.5018 7.88835 14.4209 7.84987C14.3408 7.81173 14.2653 7.77009 14.1798 7.74579C14.1727 7.74377 14.1645 7.75264 14.1695 7.75928C14.1913 7.7887 14.2111 7.81462 14.2406 7.83684C14.2762 7.86364 14.3135 7.88862 14.3521 7.91064C14.4221 7.95047 14.4959 7.98317 14.5709 8.01211C14.7271 8.07235 14.8905 8.11116 15.057 8.12835C15.3854 8.16227 15.718 8.10539 16.0195 7.97269C16.1052 7.93502 16.188 7.89097 16.2671 7.84101C16.3422 7.7936 16.4221 7.74028 16.4681 7.66225C16.4789 7.64398 16.4608 7.61578 16.4388 7.62404Z" fill="#D47A5F"/>
<path d="M12.5317 4.78957C12.5461 4.76499 12.5627 4.74149 12.5748 4.7157C12.5801 4.70442 12.586 4.69112 12.5855 4.6783C12.5851 4.66661 12.5723 4.65184 12.5791 4.64163C12.5799 4.64042 12.578 4.63895 12.577 4.64002C12.5685 4.64902 12.5589 4.64096 12.5484 4.64116C12.5374 4.64136 12.527 4.64687 12.518 4.65265C12.4957 4.66708 12.4785 4.68985 12.4628 4.71087C12.4327 4.75116 12.408 4.79487 12.3899 4.84188C12.3549 4.93281 12.3593 5.03286 12.3991 5.1215C12.4172 5.16173 12.4477 5.20618 12.489 5.22499C12.5375 5.24708 12.5691 5.21189 12.5493 5.16488C12.5327 5.1254 12.5057 5.09128 12.4918 5.05025C12.4784 5.01084 12.4734 4.9692 12.4786 4.92777C12.485 4.87821 12.5066 4.83214 12.5317 4.78957Z" fill="#D47A5F"/>
<path d="M12.7323 5.17702C12.7286 5.14882 12.7227 5.12377 12.7115 5.09765C12.7095 5.09275 12.7072 5.08791 12.7049 5.08308C12.7029 5.07891 12.7008 5.07529 12.6979 5.07159C12.6945 5.06683 12.6937 5.06575 12.6952 5.0685C12.6962 5.07025 12.696 5.07012 12.6947 5.06803C12.6868 5.05769 12.6792 5.04715 12.6706 5.03728C12.6489 5.01216 12.6095 5.03916 12.6172 5.06844C12.6198 5.07851 12.6225 5.08899 12.6236 5.09939C12.624 5.10322 12.6248 5.11242 12.6252 5.1145C12.6261 5.1192 12.6269 5.12397 12.6277 5.12867C12.626 5.11786 12.6281 5.13465 12.6283 5.13653C12.6289 5.14217 12.6297 5.14774 12.6305 5.15332C12.6297 5.14721 12.6297 5.14701 12.6303 5.15258C12.6311 5.16211 12.6319 5.17152 12.632 5.18105C12.6322 5.2014 12.6326 5.22195 12.6318 5.24236C12.6315 5.25176 12.6316 5.26117 12.6312 5.27057C12.6307 5.28245 12.6338 5.29172 12.6385 5.30078C12.6391 5.30468 12.6393 5.30864 12.6408 5.31247C12.6465 5.32751 12.6623 5.33577 12.6774 5.32738C12.6837 5.32382 12.6889 5.31945 12.6937 5.31408C12.6888 5.31697 12.6839 5.31986 12.679 5.32268C12.6981 5.3165 12.709 5.30448 12.7164 5.28615C12.7174 5.28366 12.7186 5.28104 12.7194 5.27849C12.7162 5.2885 12.7217 5.27272 12.7217 5.27272C12.7244 5.26627 12.7263 5.26016 12.7278 5.25338C12.7335 5.22799 12.7356 5.20281 12.7323 5.17702Z" fill="#D47A5F"/>
<path d="M17.8299 4.87496C17.8187 4.76188 17.767 4.61884 17.654 4.57144C17.6347 4.56338 17.6124 4.58722 17.6195 4.60595C17.6353 4.64806 17.6593 4.6868 17.6748 4.72918C17.69 4.77088 17.7008 4.81607 17.7034 4.85912C17.7061 4.90297 17.7038 4.94843 17.6968 4.98771C17.6926 5.01102 17.6869 5.03391 17.682 5.05701C17.677 5.08018 17.6703 5.10006 17.6717 5.12269C17.6694 5.13471 17.6667 5.1474 17.6678 5.15902C17.6692 5.17399 17.6815 5.18568 17.6973 5.18152C17.7097 5.17829 17.7218 5.1707 17.7314 5.16231C17.7326 5.16144 17.7322 5.16157 17.7329 5.1611C17.7361 5.15976 17.7393 5.15855 17.7423 5.15687C17.7517 5.15157 17.7569 5.14525 17.7633 5.13726C17.7833 5.11255 17.7975 5.08522 17.8086 5.05527C17.8298 4.99852 17.8359 4.9352 17.8299 4.87496Z" fill="#D47A5F"/>
<path d="M17.6183 5.30648C17.6185 5.30151 17.6179 5.29674 17.617 5.29184C17.6161 5.2862 17.6152 5.28056 17.6142 5.27499C17.6138 5.27217 17.6132 5.26934 17.6125 5.26652C17.6151 5.27734 17.6115 5.26021 17.6112 5.258C17.6095 5.24665 17.6063 5.23543 17.6039 5.22422C17.6028 5.21891 17.602 5.21354 17.601 5.20817C17.601 5.2079 17.601 5.2081 17.6009 5.20777C17.6006 5.20421 17.6003 5.20065 17.6 5.19702C17.5982 5.17412 17.5962 5.15122 17.596 5.12826C17.5958 5.10422 17.6031 5.07749 17.5929 5.05499C17.5941 5.05943 17.5954 5.06393 17.5966 5.06836C17.5966 5.06574 17.5968 5.06305 17.5972 5.06043C17.5992 5.04002 17.5699 5.02934 17.5569 5.04371C17.5551 5.04573 17.5532 5.04767 17.5514 5.04962C17.5553 5.04734 17.5592 5.04512 17.5631 5.04284C17.5346 5.05405 17.5218 5.08797 17.5122 5.11483C17.5025 5.14142 17.4973 5.1709 17.4995 5.19924C17.5018 5.22899 17.5068 5.25813 17.5185 5.28566C17.5248 5.30084 17.5348 5.31414 17.5453 5.32676C17.5525 5.33549 17.5605 5.33824 17.5696 5.34362C17.5662 5.3416 17.568 5.34348 17.5702 5.34496C17.5719 5.34603 17.5741 5.3457 17.5761 5.34637C17.5778 5.34724 17.5794 5.34811 17.5811 5.34892C17.5964 5.35637 17.6158 5.34751 17.6158 5.32898C17.6158 5.32797 17.6158 5.32703 17.6157 5.32602C17.6166 5.32219 17.6172 5.3183 17.6175 5.31414C17.6168 5.32213 17.6182 5.30708 17.6183 5.30648Z" fill="#D47A5F"/>
<path d="M17.7999 4.25578C17.7638 4.24497 17.7424 4.2169 17.7069 4.20414C17.6745 4.19246 17.6419 4.18118 17.6087 4.17178C17.5425 4.15297 17.4772 4.13115 17.4128 4.10698C17.2844 4.05863 17.16 4.00014 17.0377 3.93795C16.7903 3.81204 16.5515 3.66974 16.3022 3.54719C16.0547 3.42551 15.7945 3.32122 15.52 3.28134C15.1859 3.23272 14.8485 3.28583 14.5139 3.24904C14.3658 3.23272 14.2165 3.19833 14.0832 3.12997C14.0196 3.09734 13.9601 3.05718 13.9074 3.0089C13.8779 2.9819 13.846 2.93483 13.8075 2.91139C13.8084 2.89957 13.8096 2.88775 13.8113 2.87587C13.8165 2.83994 13.7687 2.81187 13.7481 2.84921C13.7321 2.87815 13.7108 2.90213 13.6939 2.93013C13.6741 2.96276 13.6606 2.99963 13.6459 3.03468C13.6188 3.09902 13.589 3.16221 13.5572 3.22439C13.493 3.3503 13.4187 3.47104 13.3359 3.58554C13.2524 3.70104 13.1572 3.80512 13.0571 3.90626C13.0062 3.95763 12.9574 4.01054 12.9161 4.07004C12.8776 4.12551 12.8458 4.18662 12.7997 4.23638C12.7528 4.28708 12.6928 4.32032 12.6255 4.33536C12.5564 4.35087 12.4953 4.33214 12.4268 4.32925C12.3987 4.32804 12.3818 4.36699 12.4032 4.38606C12.4982 4.47087 12.6693 4.44529 12.7736 4.39318C12.9088 4.32542 12.962 4.17896 13.0567 4.07071C13.1573 3.95561 13.2709 3.85374 13.3683 3.73535C13.466 3.61669 13.5539 3.49052 13.6301 3.35708C13.6721 3.28342 13.7104 3.20774 13.7448 3.13018C13.7587 3.09902 13.772 3.06752 13.7836 3.03542C13.8015 3.05846 13.8205 3.08075 13.8412 3.1013C13.8884 3.14817 13.9433 3.1884 14.0005 3.22217C14.1177 3.29134 14.2496 3.33559 14.3829 3.36158C14.7094 3.42531 15.0438 3.3726 15.3732 3.39778C15.9387 3.44096 16.4228 3.76866 16.9119 4.02357C17.0517 4.09643 17.1941 4.16459 17.341 4.22214C17.4111 4.24961 17.4822 4.27439 17.5545 4.29554C17.5922 4.30655 17.6295 4.31374 17.6684 4.31911C17.7134 4.32529 17.7481 4.30776 17.7924 4.31058C17.8246 4.31239 17.8292 4.26451 17.7999 4.25578Z" fill="#845540"/>
<path d="M14.5117 4.35242C14.4945 4.27143 14.4147 4.2161 14.3375 4.19857C14.2658 4.18226 14.1918 4.18346 14.1203 4.20059C14.0419 4.21939 13.9748 4.25915 13.9119 4.3081C13.8581 4.34994 13.7554 4.44227 13.8168 4.51446L13.8967 4.53225L13.915 4.52453C13.9212 4.52185 13.9273 4.51889 13.9335 4.51621C13.9391 4.51372 13.9446 4.5113 13.9503 4.50889C13.955 4.50687 13.9724 4.49948 13.971 4.50016C13.9968 4.4878 14.0204 4.47047 14.0459 4.45725C14.0519 4.45416 14.058 4.45113 14.0641 4.44818C14.065 4.44771 14.071 4.44489 14.0745 4.44328C14.0779 4.44193 14.0844 4.43918 14.0854 4.43878C14.0912 4.4365 14.097 4.43408 14.1027 4.43159C14.1165 4.42562 14.1196 4.42434 14.112 4.42777C14.1023 4.43132 14.121 4.42468 14.1228 4.42407C14.1292 4.42186 14.1356 4.41977 14.142 4.41783C14.1552 4.41387 14.1685 4.41091 14.1819 4.40796C14.1835 4.40762 14.184 4.40749 14.185 4.40728C14.1887 4.40688 14.1924 4.40648 14.1961 4.40628C14.2077 4.40547 14.2193 4.4052 14.2309 4.40547C14.2367 4.40561 14.2425 4.40608 14.2483 4.40634C14.256 4.40668 14.2562 4.40614 14.2545 4.40561C14.2631 4.40728 14.2745 4.41131 14.2785 4.41232C14.3016 4.41843 14.3237 4.4281 14.3469 4.43361C14.3473 4.43368 14.3473 4.43367 14.3476 4.43374C14.3544 4.43723 14.3615 4.44039 14.3684 4.44334C14.3824 4.44925 14.3956 4.4508 14.4103 4.45389C14.4736 4.46678 14.5251 4.41581 14.5117 4.35242Z" fill="#9D644A"/>
<path d="M16.2928 4.09147C16.2328 4.06669 16.1682 4.05245 16.1032 4.05225C16.0395 4.05198 15.9732 4.06199 15.9132 4.08388C15.8804 4.0959 15.8465 4.10967 15.8168 4.12854C15.7784 4.15298 15.7586 4.18897 15.749 4.23209C15.7391 4.27607 15.7687 4.31435 15.8135 4.31677C15.8463 4.31858 15.8742 4.31959 15.9058 4.30629C15.9122 4.30354 15.9186 4.30065 15.925 4.29776C15.9249 4.29783 15.9282 4.29655 15.9341 4.29447C15.9454 4.29044 15.9568 4.28688 15.9683 4.28379C15.9813 4.28037 15.9944 4.27802 16.0075 4.2752C16.008 4.27506 16.0082 4.27506 16.0086 4.27493C16.0147 4.27446 16.0209 4.27372 16.027 4.27332C16.0523 4.27164 16.0779 4.27204 16.1032 4.27446C16.1067 4.27479 16.1248 4.27775 16.1084 4.27486C16.0904 4.27171 16.1135 4.27573 16.1173 4.27634C16.1306 4.27835 16.1437 4.2805 16.1569 4.28346C16.1687 4.28608 16.1803 4.28917 16.1918 4.29272C16.1982 4.29467 16.2046 4.29675 16.2108 4.29897C16.2114 4.29917 16.213 4.29971 16.2145 4.30025C16.2152 4.30078 16.2273 4.30562 16.2284 4.30615C16.2333 4.30844 16.238 4.31086 16.2427 4.31334C16.2545 4.31959 16.2656 4.32691 16.2771 4.33362C16.3189 4.35786 16.358 4.37042 16.4064 4.35894C16.4457 4.34954 16.465 4.31361 16.4689 4.27681C16.4794 4.17695 16.3697 4.1233 16.2928 4.09147Z" fill="#9D644A"/>
<path d="M14.4734 4.97734C14.4763 4.95464 14.4748 4.93141 14.4728 4.90817C14.4728 4.90179 14.4728 4.89535 14.4727 4.88897C14.4726 4.86473 14.4681 4.84001 14.4632 4.81624C14.4626 4.81638 14.4621 4.81651 14.4616 4.81671C14.4531 4.78589 14.4383 4.75708 14.4151 4.73391C14.3982 4.71572 14.3782 4.70289 14.3551 4.69537C14.3329 4.68368 14.3089 4.67831 14.2833 4.67932C14.235 4.68147 14.1849 4.69732 14.1514 4.73398C14.1416 4.74654 14.1319 4.75916 14.1222 4.77172C14.1054 4.8008 14.0968 4.83222 14.0968 4.86587C14.0945 4.88373 14.0964 4.90119 14.0976 4.91912C14.0987 4.93685 14.0999 4.95458 14.1011 4.97237C14.1043 5.02092 14.1023 5.07626 14.1195 5.12145C14.1196 5.12132 14.1197 5.12118 14.1198 5.12105C14.1279 5.15046 14.1432 5.17786 14.1652 5.19988C14.21 5.24468 14.2769 5.2624 14.3381 5.24562C14.399 5.22883 14.4443 5.18122 14.4622 5.12145C14.4763 5.07478 14.4739 5.02616 14.4734 4.97801C14.4734 4.97774 14.4734 4.97754 14.4734 4.97734Z" fill="#845540"/>
<path d="M16.2752 4.88506C16.2781 4.86236 16.2766 4.83912 16.2746 4.81589C16.2746 4.80951 16.2746 4.80306 16.2745 4.79668C16.2744 4.77244 16.2699 4.74773 16.2649 4.72396C16.2644 4.72409 16.2639 4.72423 16.2633 4.72443C16.2549 4.6936 16.2401 4.6648 16.2169 4.64163C16.2 4.62343 16.18 4.6106 16.1569 4.60308C16.1347 4.5914 16.1107 4.58603 16.085 4.58703C16.0368 4.58918 15.9867 4.60503 15.9532 4.6417C15.9434 4.65425 15.9337 4.66688 15.924 4.67944C15.9072 4.70851 15.8986 4.73994 15.8986 4.77358C15.8962 4.79145 15.8982 4.80891 15.8994 4.82683C15.9005 4.84456 15.9017 4.86236 15.9029 4.88009C15.9061 4.92864 15.9041 4.98397 15.9213 5.02917C15.9214 5.02903 15.9215 5.0289 15.9216 5.02876C15.9297 5.05818 15.945 5.08557 15.967 5.1076C16.0118 5.15239 16.0787 5.17012 16.1399 5.15333C16.2008 5.13661 16.2461 5.08893 16.264 5.02917C16.278 4.98249 16.2757 4.93388 16.2752 4.88573C16.2752 4.88553 16.2752 4.88526 16.2752 4.88506Z" fill="#845540"/>
<path d="M15.3532 5.60092C15.3477 5.60112 15.3422 5.60099 15.3366 5.60126C15.322 5.60213 15.311 5.60663 15.2976 5.6118C15.3018 5.61019 15.3152 5.60515 15.3031 5.60912C15.292 5.61281 15.2812 5.61744 15.2706 5.62255C15.2692 5.62328 15.2676 5.62402 15.2661 5.62476C15.2548 5.62872 15.2436 5.63255 15.2319 5.63497C15.2301 5.6353 15.2284 5.63564 15.2266 5.63591C15.2209 5.63638 15.2152 5.63692 15.2094 5.63698C15.2032 5.63712 15.197 5.63705 15.1908 5.63665C15.189 5.63651 15.1872 5.63638 15.1854 5.63624C15.1735 5.63396 15.1618 5.63154 15.1502 5.62765C15.1486 5.62711 15.1469 5.62644 15.1453 5.62584C15.1404 5.62308 15.1351 5.62087 15.1302 5.61805C15.1264 5.61583 15.1197 5.60992 15.115 5.60797C15.1127 5.60596 15.1105 5.60401 15.1083 5.602C15.0817 5.57715 15.0359 5.57366 15.01 5.602C14.9834 5.63094 14.9839 5.67143 15.01 5.70031C15.0605 5.75625 15.1332 5.78465 15.2072 5.79009C15.2412 5.79258 15.2772 5.78835 15.3099 5.77888C15.3358 5.77136 15.3581 5.76048 15.3791 5.74355C15.3984 5.72798 15.41 5.70776 15.4163 5.68372C15.4269 5.64403 15.3965 5.59931 15.3532 5.60092Z" fill="#D47A5F"/>
<path d="M15.7051 6.37417C15.6962 6.33193 15.6517 6.28217 15.6071 6.27613C15.5663 6.27062 15.5304 6.26954 15.4921 6.28566C15.4882 6.28734 15.4862 6.28821 15.4833 6.28942C15.4734 6.29318 15.4287 6.3095 15.4458 6.3046C15.4324 6.31031 15.4189 6.31595 15.4055 6.32159C15.3984 6.32548 15.3918 6.33072 15.385 6.33509C15.3693 6.34502 15.3533 6.35429 15.3368 6.36262C15.3316 6.36517 15.3265 6.36759 15.3214 6.37C15.3202 6.37041 15.3198 6.37047 15.3184 6.37094C15.3027 6.37618 15.2875 6.38236 15.2718 6.3876C15.2543 6.39344 15.2364 6.39841 15.2184 6.40237C15.2119 6.40378 15.2054 6.40486 15.199 6.40613C15.182 6.40701 15.1652 6.40808 15.1483 6.40781C15.1377 6.40768 15.1272 6.40707 15.1167 6.40627C15.1162 6.40627 15.1154 6.40613 15.1147 6.40607C15.1099 6.40533 15.1021 6.40425 15.0997 6.40385C15.0892 6.40217 15.0786 6.40089 15.0681 6.39908C15.0515 6.39619 15.035 6.39257 15.0187 6.38814C15.0007 6.38323 14.9832 6.37598 14.9651 6.37168C14.962 6.37094 14.932 6.36645 14.924 6.36544C14.9184 6.36436 14.9123 6.36329 14.9107 6.36295C14.8681 6.35476 14.8328 6.35503 14.7903 6.36362C14.769 6.36792 14.7457 6.38995 14.7422 6.41171C14.7235 6.52546 14.7967 6.61954 14.8905 6.67635C14.984 6.73303 15.0899 6.75962 15.199 6.76103C15.3063 6.76244 15.4104 6.73693 15.5052 6.68723C15.6184 6.62794 15.735 6.51398 15.7051 6.37417Z" fill="white"/>
<path d="M12.0779 12.5907C12.0762 12.572 12.076 12.5557 12.0653 12.5429C12.0644 12.5383 12.0636 12.5337 12.0628 12.5291C12.059 12.5086 12.0306 12.5124 12.0248 12.5291C12.0236 12.5326 12.0224 12.5361 12.0213 12.5396C12.0083 12.5507 12.0057 12.5684 12.0014 12.5855C11.9955 12.6088 11.9892 12.6305 11.9859 12.6545C11.9792 12.7033 11.9732 12.752 11.9681 12.801C11.9632 12.8488 11.9581 12.8965 11.9565 12.9445C11.9557 12.9695 11.9533 12.9954 11.9574 13.02C11.961 13.0415 11.9634 13.0659 11.9814 13.0803C11.9931 13.0895 12.0072 13.093 12.0209 13.0854C12.0615 13.0625 12.0632 12.9953 12.0681 12.9548C12.0742 12.9053 12.0767 12.8558 12.0791 12.8061C12.0815 12.7582 12.083 12.7105 12.0836 12.6626C12.0838 12.6381 12.0801 12.615 12.0779 12.5907Z" fill="#B43629"/>
<path d="M10.8844 16.5523C10.8644 16.4826 10.8268 16.4182 10.7787 16.3642C10.7306 16.3101 10.6591 16.2497 10.582 16.2618C10.552 16.2665 10.5411 16.306 10.5545 16.3293C10.5806 16.3744 10.6352 16.4019 10.671 16.4394C10.7053 16.4752 10.7331 16.5188 10.7491 16.5659C10.7667 16.6177 10.7735 16.6722 10.7666 16.7267C10.7634 16.752 10.756 16.7766 10.7497 16.8013C10.7433 16.8258 10.7336 16.8516 10.7321 16.8771C10.7263 16.8971 10.7217 16.9158 10.7272 16.9366C10.7304 16.9485 10.7434 16.9599 10.7563 16.9588C10.793 16.9557 10.8272 16.925 10.8454 16.8946C10.8656 16.861 10.882 16.8277 10.8903 16.7886C10.9069 16.7108 10.9064 16.6289 10.8844 16.5523Z" fill="#E1A796"/>
<path d="M10.7538 17.1634C10.7504 17.1533 10.7507 17.1421 10.745 17.1303C10.7446 17.1293 10.743 17.1268 10.7422 17.1258C10.7421 17.1247 10.742 17.1245 10.7419 17.1229C10.7419 17.1197 10.7413 17.1167 10.7403 17.1138C10.7383 17.1071 10.7349 17.1008 10.7318 17.0945C10.7287 17.0882 10.7314 17.0912 10.7322 17.0953C10.7293 17.0786 10.718 17.0635 10.7108 17.0484C10.708 17.0426 10.7056 17.0366 10.7028 17.0307C10.7015 17.0279 10.6999 17.025 10.6986 17.0221C10.6979 17.0206 10.6972 17.0192 10.6966 17.0177C10.6946 17.0133 10.6951 17.0148 10.6984 17.0222C10.6945 17.0234 10.6779 16.9522 10.6764 16.9457C10.6749 16.9387 10.6737 16.9317 10.6724 16.9246C10.675 16.938 10.6723 16.9218 10.6719 16.9167C10.6706 16.9007 10.6685 16.8871 10.663 16.8741C10.662 16.8686 10.6611 16.863 10.6603 16.8574C10.6592 16.8497 10.6538 16.8422 10.6471 16.8365C10.6421 16.8279 10.6345 16.8205 10.6256 16.822C10.6203 16.8228 10.6167 16.8246 10.6128 16.8261C10.6 16.8273 10.5868 16.8364 10.5811 16.847C10.5782 16.8523 10.5755 16.8576 10.5729 16.863L10.5739 16.862C10.5626 16.8766 10.5579 16.8933 10.5553 16.9144C10.5534 16.9295 10.5525 16.9448 10.5528 16.9601C10.5535 16.9946 10.5617 17.0294 10.5743 17.0614C10.5893 17.0992 10.6093 17.1373 10.6434 17.1612C10.6477 17.1642 10.6509 17.1662 10.6448 17.1618C10.6506 17.1659 10.6555 17.1711 10.6617 17.1744C10.663 17.1752 10.6708 17.1779 10.6741 17.1791C10.6788 17.1809 10.6833 17.183 10.688 17.1849C10.703 17.1911 10.717 17.1904 10.7328 17.1914C10.7464 17.1921 10.7583 17.1764 10.7538 17.1634Z" fill="#E1A796"/>
<path d="M9.19999 19.4615C9.14036 19.4441 9.08536 19.496 9.04017 19.5276C8.99081 19.562 8.93971 19.5938 8.88673 19.6224C8.78009 19.6799 8.66707 19.7237 8.54996 19.7548C8.31479 19.8172 8.06391 19.8267 7.82518 19.7785C7.75796 19.7649 7.69222 19.7464 7.62715 19.7248C7.56443 19.704 7.49271 19.673 7.4263 19.6709C7.41286 19.6705 7.39876 19.6787 7.39232 19.6904C7.39104 19.6926 7.39003 19.695 7.38929 19.6975C7.36901 19.7496 7.47411 19.7971 7.50876 19.815C7.56906 19.8461 7.63393 19.8669 7.69927 19.8845C7.83102 19.9202 7.96808 19.9394 8.10453 19.942C8.37429 19.9469 8.64424 19.888 8.88733 19.7711C8.95462 19.7388 9.01962 19.7016 9.08154 19.6599C9.13412 19.6244 9.2331 19.5679 9.2237 19.4926C9.22182 19.478 9.21483 19.4658 9.19999 19.4615Z" fill="#E1A796"/>
<path d="M9.85929 20.7007C9.81 20.6807 9.76501 20.71 9.72176 20.7333C9.67119 20.7606 9.6219 20.7898 9.5706 20.8157C9.47746 20.8628 9.3817 20.9038 9.28312 20.9382C9.08092 21.0087 8.86959 21.0531 8.65592 21.0673C8.23487 21.0952 7.81436 21.0053 7.43643 20.819C7.332 20.7675 7.23154 20.7082 7.13444 20.6441C7.11221 20.6293 6.90209 20.4734 6.88947 20.5275C6.87893 20.5726 6.91754 20.6071 6.94756 20.6366C6.98751 20.676 7.03103 20.7107 7.07582 20.7443C7.16164 20.8086 7.25283 20.8653 7.34725 20.9162C7.53689 21.0183 7.74009 21.0942 7.95001 21.1424C8.38341 21.2419 8.84099 21.2214 9.26418 21.0851C9.38338 21.0467 9.50022 20.9995 9.61244 20.9439C9.66582 20.9174 9.71921 20.8896 9.76991 20.8581C9.81913 20.8276 9.88031 20.7921 9.88031 20.7281C9.88031 20.7144 9.87117 20.7054 9.85929 20.7007Z" fill="#344B4A"/>
<path d="M4.78449 23.5374C4.73553 23.6677 4.70303 23.8013 4.66972 23.9363C4.63722 24.068 4.60512 24.1998 4.5745 24.3319C4.51259 24.599 4.45181 24.8663 4.39245 25.1339C4.27494 25.6638 4.15984 26.1943 4.04722 26.7253C3.82206 27.7873 3.60791 28.8517 3.40323 29.9178C3.34581 30.2169 3.28914 30.5163 3.23327 30.8157C3.17746 31.1147 3.11206 31.4143 3.07277 31.7159C3.06371 31.7856 3.17914 31.7997 3.19486 31.7324C3.25717 31.4661 3.2976 31.1935 3.34769 30.9245C3.39792 30.655 3.44876 30.3856 3.50026 30.1163C3.6022 29.5832 3.70669 29.0504 3.8136 28.5183C4.02748 27.454 4.25096 26.3915 4.48405 25.3312C4.54945 25.0337 4.6154 24.7362 4.68094 24.4386C4.71311 24.2925 4.74467 24.1462 4.77556 23.9998C4.80725 23.8492 4.84049 23.7002 4.85513 23.5468C4.85916 23.5039 4.79765 23.5022 4.78449 23.5374Z" fill="#344B4A"/>
<path d="M12.9154 30.1872C12.8309 29.6268 12.7288 29.0691 12.62 28.513C12.5111 27.9559 12.3953 27.4002 12.2833 26.8438C12.1713 26.2877 12.0631 25.7309 11.9695 25.1715C11.8761 24.6129 11.7941 24.0512 11.7264 23.489C11.7182 23.4213 11.6947 23.3552 11.6778 23.2892C11.673 23.2702 11.6469 23.2758 11.6454 23.2935C11.6395 23.3637 11.6281 23.4349 11.633 23.5052C11.638 23.5757 11.642 23.6462 11.6477 23.7166C11.6592 23.8575 11.672 23.998 11.6878 24.1385C11.7195 24.42 11.761 24.701 11.8055 24.9808C11.8942 25.5381 11.9987 26.0929 12.1084 26.6464C12.2188 27.2032 12.3345 27.759 12.4452 28.3157C12.5552 28.8691 12.6601 29.4236 12.7492 29.9807C12.8384 30.5392 12.9114 31.1004 12.9574 31.6642C12.9632 31.7348 12.9685 31.8055 12.9734 31.8761C12.9793 31.9612 13.1126 31.9619 13.1066 31.8761C13.0672 31.3106 13 30.7475 12.9154 30.1872Z" fill="#344B4A"/>
<path d="M26.2238 23.155C26.2072 23.1267 26.1612 23.109 26.1322 23.131C25.5236 23.5943 24.8226 23.9782 24.0524 24.0697C23.662 24.1161 23.2624 24.0899 22.8878 23.9663C22.5167 23.8439 22.1824 23.6315 21.8622 23.4118C21.7021 23.3021 21.5455 23.1864 21.4063 23.0507C21.3376 22.9838 21.273 22.9122 21.2176 22.8339C21.1622 22.7555 21.1115 22.675 21.0524 22.5997C21.0343 22.5767 20.9888 22.5952 20.9924 22.6245C20.9977 22.668 21.0045 22.7073 21.0208 22.7484C21.0372 22.7894 21.0591 22.8298 21.0825 22.8673C21.1294 22.9425 21.1876 23.0125 21.2475 23.0777C21.3713 23.2124 21.5147 23.3273 21.6625 23.4345C21.9826 23.6666 22.3214 23.8857 22.6887 24.0351C23.4548 24.3466 24.3166 24.2457 25.0624 23.9268C25.4701 23.7525 25.8475 23.5146 26.1997 23.2465C26.2285 23.2247 26.2436 23.1889 26.2238 23.155Z" fill="#455368"/>
<path d="M20.2264 25.502C20.1463 25.6948 20.1114 25.9093 20.0656 26.1123C20.0203 26.3125 19.9767 26.5128 19.9349 26.7137C19.8501 27.121 19.7692 27.5291 19.689 27.9373C19.5279 28.7565 19.3728 29.5768 19.2239 30.3983C19.1826 30.6261 19.1411 30.8538 19.1057 31.0826C19.0699 31.3135 19.0351 31.5471 19.0245 31.7806C19.0207 31.8656 19.1462 31.8623 19.1546 31.7806C19.1761 31.5728 19.1971 31.3656 19.2284 31.159C19.2589 30.9575 19.2945 30.7569 19.3306 30.5564C19.4044 30.147 19.4798 29.7379 19.5567 29.3291C19.7105 28.5114 19.8726 27.6953 20.0362 26.8794C20.0814 26.6535 20.1264 26.4276 20.1695 26.2013C20.1912 26.0866 20.2128 25.972 20.2339 25.8572C20.2551 25.7421 20.2778 25.6266 20.2805 25.5092C20.2813 25.4757 20.2375 25.4752 20.2264 25.502Z" fill="#455368"/>
<path d="M27.1998 30.6167C27.1197 30.2016 27.0047 29.7936 26.9121 29.3812C26.7287 28.5645 26.582 27.7395 26.4717 26.9098C26.4407 26.6771 26.413 26.444 26.3858 26.2109C26.3586 25.9777 26.3463 25.738 26.2789 25.5124C26.2713 25.487 26.2386 25.4946 26.2356 25.5182C26.222 25.625 26.221 25.7287 26.2275 25.8362C26.2337 25.9395 26.2433 26.0428 26.2529 26.1457C26.2723 26.3549 26.2954 26.5634 26.3215 26.7718C26.3733 27.1865 26.4344 27.5999 26.5051 28.0118C26.5757 28.4232 26.6554 28.8331 26.7442 29.2409C26.8341 29.6536 26.9431 30.0616 27.0338 30.474C27.1353 30.9351 27.1789 31.4043 27.2197 31.8739C27.2271 31.959 27.3609 31.9598 27.3535 31.8739C27.317 31.4534 27.28 31.0317 27.1998 30.6167Z" fill="#455368"/>
<path d="M23.8657 24.4762C23.8816 24.4357 23.827 24.3971 23.7925 24.4199C23.7464 24.4502 23.7149 24.4956 23.6805 24.5381C23.6594 24.5641 23.6384 24.59 23.6173 24.616C23.6081 24.6003 23.5989 24.5844 23.5891 24.5691C23.5343 24.4845 23.462 24.3701 23.3638 24.3339C23.3383 24.3244 23.3103 24.3535 23.319 24.3787C23.3442 24.4519 23.4074 24.5132 23.4505 24.5771C23.4811 24.6226 23.5082 24.6706 23.5336 24.7194C23.4783 24.7876 23.4236 24.8568 23.3792 24.9326C23.2866 25.0904 23.2259 25.3199 23.3381 25.4845C23.388 25.5577 23.4727 25.6166 23.5648 25.6008C23.6612 25.5843 23.721 25.4906 23.7547 25.4064C23.8244 25.2324 23.79 25.0326 23.7302 24.8611C23.7147 24.8169 23.6969 24.7734 23.6772 24.7308C23.71 24.6903 23.7427 24.6498 23.7755 24.6093C23.8095 24.567 23.8456 24.5271 23.8657 24.4762ZM23.664 25.2437C23.6584 25.3148 23.6355 25.3909 23.5889 25.4463C23.5423 25.5018 23.482 25.4733 23.444 25.4225C23.3443 25.289 23.4203 25.0915 23.4977 24.9679C23.5258 24.9231 23.5574 24.8807 23.5899 24.8391C23.6417 24.9667 23.675 25.1067 23.664 25.2437Z" fill="#455368"/>
<path d="M23.7619 26.1958C23.7524 26.162 23.7353 26.1326 23.7106 26.1078C23.6972 26.0974 23.6837 26.087 23.6703 26.0766C23.6392 26.0586 23.6056 26.0495 23.5696 26.0494C23.5421 26.0484 23.5166 26.0541 23.4928 26.0666C23.4681 26.0747 23.4467 26.0884 23.4287 26.1079C23.4092 26.1259 23.3955 26.1473 23.3874 26.172C23.3749 26.1958 23.3692 26.2213 23.3702 26.2488C23.3726 26.2665 23.375 26.2841 23.3773 26.3018C23.3868 26.3356 23.4039 26.3648 23.4286 26.3898C23.442 26.4002 23.4555 26.4105 23.4689 26.4209C23.5 26.4389 23.5335 26.448 23.5695 26.4481C23.597 26.4491 23.6226 26.4434 23.6464 26.4309C23.6711 26.4229 23.6925 26.4092 23.7106 26.3897C23.73 26.3716 23.7437 26.3503 23.7518 26.3256C23.7643 26.3018 23.77 26.2762 23.769 26.2487C23.7666 26.2311 23.7642 26.2134 23.7619 26.1958Z" fill="#455368"/>
<path d="M23.7619 27.4892C23.7524 27.4554 23.7353 27.4262 23.7106 27.4012C23.6972 27.3908 23.6837 27.3804 23.6703 27.3701C23.6392 27.3521 23.6056 27.343 23.5696 27.3429C23.5421 27.3419 23.5166 27.3476 23.4928 27.3601C23.4681 27.3681 23.4467 27.3818 23.4287 27.4013C23.4092 27.4194 23.3955 27.4407 23.3874 27.4654C23.3749 27.4892 23.3692 27.5148 23.3702 27.5423C23.3726 27.5599 23.375 27.5776 23.3773 27.5952C23.3868 27.629 23.4039 27.6583 23.4286 27.6832C23.442 27.6936 23.4555 27.704 23.4689 27.7144C23.5 27.7324 23.5335 27.7415 23.5695 27.7416C23.597 27.7426 23.6226 27.7369 23.6464 27.7244C23.6711 27.7163 23.6925 27.7026 23.7106 27.6831C23.73 27.6651 23.7437 27.6437 23.7518 27.6189C23.7643 27.5952 23.77 27.5696 23.769 27.5421C23.7666 27.5245 23.7642 27.5069 23.7619 27.4892Z" fill="#455368"/>
<path d="M10.7326 15.8572C10.5836 15.7683 10.429 15.6966 10.2966 15.5814C10.1598 15.4624 10.0462 15.3221 9.9514 15.1679C9.83851 14.9844 9.74027 14.7799 9.66016 14.5799C9.61987 14.4793 9.58374 14.3755 9.55164 14.2721C9.52814 14.1963 9.51658 14.1034 9.47683 14.0318C9.48825 14.0192 9.5004 14.0075 9.51101 13.9941C9.55285 13.9411 9.51598 13.857 9.44211 13.8757C9.20124 13.9368 8.99065 14.0723 8.75581 14.1536C8.52112 14.2348 8.27621 14.2888 8.02869 14.31C7.7813 14.3312 7.52894 14.3259 7.28356 14.2864C7.15994 14.2665 7.03832 14.2383 6.91792 14.2042C6.80262 14.1715 6.68356 14.1225 6.56241 14.1344C6.55711 14.1349 6.55234 14.1362 6.54777 14.1377C6.54495 14.1201 6.5422 14.1025 6.53716 14.0854C6.52676 14.0496 6.47847 14.034 6.45168 14.0628C6.33201 14.1916 6.30106 14.3823 6.24908 14.5455C6.19274 14.7224 6.12565 14.8956 6.03782 15.0594C5.95287 15.2177 5.84932 15.3652 5.72522 15.4953C5.65559 15.5683 5.57964 15.6351 5.50046 15.6976C5.41827 15.7624 5.32674 15.8195 5.25717 15.8986C5.23763 15.9207 5.2248 15.9523 5.23508 15.982C5.23917 15.9938 5.243 16.0073 5.25267 16.0159C5.25415 16.0173 5.25563 16.0186 5.2571 16.0199C5.2792 16.0396 5.31089 16.0522 5.34057 16.042C5.54022 15.9734 5.72798 15.8145 5.87894 15.6705C6.02056 15.5355 6.13519 15.3737 6.22799 15.2018C6.32113 15.0293 6.394 14.8454 6.45416 14.6591C6.49392 14.536 6.54401 14.3949 6.55268 14.258C6.6338 14.3385 6.75333 14.3783 6.86044 14.4123C6.98782 14.4528 7.11904 14.483 7.25079 14.5053C7.51215 14.5495 7.7776 14.5638 8.04198 14.5431C8.3063 14.5225 8.56879 14.4722 8.82048 14.3884C9.00025 14.3286 9.19002 14.2604 9.34535 14.1488C9.34347 14.2731 9.39537 14.421 9.41827 14.5121C9.46622 14.7026 9.50685 14.8951 9.58293 15.0767C9.73255 15.4339 9.95348 15.7371 10.2732 15.9599C10.4209 16.0628 10.6071 16.1746 10.7932 16.1516C10.8529 16.1442 10.9229 16.1226 10.923 16.0503C10.9231 15.9583 10.7982 15.8963 10.7326 15.8572Z" fill="#2B3455"/>
<path d="M7.01926 15.8044C7.01852 15.7998 7.01778 15.7949 7.01658 15.7878C7.00845 15.7627 6.99274 15.743 6.97487 15.724C6.95298 15.7007 6.92814 15.6809 6.90107 15.6638C6.85158 15.6326 6.79672 15.6126 6.7393 15.6021C6.68336 15.5918 6.62608 15.5859 6.56921 15.5904C6.53711 15.5929 6.5036 15.5954 6.47318 15.6064C6.45485 15.613 6.43389 15.6193 6.41744 15.6295C6.402 15.639 6.38749 15.6525 6.37386 15.6647C6.34344 15.6918 6.33766 15.7408 6.35271 15.7764C6.3699 15.8172 6.40421 15.8339 6.44618 15.8393C6.44141 15.8387 6.42443 15.8357 6.43833 15.8385C6.45176 15.8411 6.46539 15.8437 6.47909 15.8436C6.48903 15.8436 6.4989 15.8428 6.50884 15.8427C6.53026 15.8426 6.55148 15.8399 6.5729 15.8396C6.59365 15.8393 6.61413 15.8409 6.63475 15.8426C6.6381 15.8432 6.64153 15.8437 6.64489 15.8444C6.6561 15.8465 6.66718 15.849 6.67819 15.8519C6.69908 15.8573 6.71963 15.864 6.73964 15.8719C6.74911 15.8757 6.75844 15.8792 6.76804 15.8824C6.77281 15.8841 6.77751 15.8857 6.78228 15.8874C6.78356 15.8879 6.78886 15.89 6.79262 15.8915C6.80404 15.8965 6.81552 15.9016 6.82707 15.9062C6.83278 15.9084 6.83842 15.9106 6.8442 15.9127C6.84487 15.9129 6.84473 15.9129 6.84527 15.9131C6.86454 15.9229 6.88617 15.93 6.90745 15.9309C6.91276 15.9304 6.91585 15.93 6.91974 15.9296C6.93183 15.9304 6.94385 15.9297 6.95574 15.9264C6.99831 15.9145 7.01966 15.8782 7.02383 15.837C7.0251 15.8255 7.02275 15.8149 7.01926 15.8044Z" fill="#242B45"/>
<path d="M9.19268 15.5104C9.19127 15.5088 9.18979 15.5073 9.18831 15.5058C9.17979 15.4885 9.16575 15.4746 9.14923 15.4631C9.09927 15.4071 8.99834 15.4046 8.92964 15.4006C8.85423 15.3961 8.77251 15.4149 8.69985 15.4347C8.62759 15.4543 8.55782 15.4822 8.49215 15.5182C8.41727 15.5592 8.34951 15.6045 8.32138 15.6891C8.30284 15.7449 8.3518 15.7999 8.40653 15.8009C8.45031 15.8017 8.49073 15.7915 8.53022 15.7727C8.54177 15.7672 8.55299 15.761 8.56447 15.7555C8.56783 15.7539 8.59576 15.7418 8.59684 15.7411C8.65271 15.7189 8.71066 15.6997 8.76901 15.6855C8.79823 15.6784 8.82791 15.6726 8.85766 15.6684C8.86424 15.6677 8.87787 15.6661 8.87874 15.666C8.90319 15.6637 8.92743 15.6607 8.95167 15.6567C8.95543 15.6561 8.99062 15.6512 8.98612 15.6514C8.99706 15.6504 9.00801 15.6494 9.01896 15.6482C9.05623 15.6441 9.099 15.6398 9.13063 15.6177C9.14675 15.6114 9.16098 15.6029 9.17267 15.5915C9.17603 15.5898 9.17945 15.588 9.18288 15.5864C9.21195 15.5724 9.21276 15.5315 9.19268 15.5104Z" fill="#242B45"/>
<path d="M6.93945 16.3831C6.93556 16.3701 6.92992 16.3574 6.9275 16.3439C6.92642 16.3381 6.92609 16.3321 6.92495 16.3263C6.92179 16.3104 6.90984 16.2897 6.90138 16.2736C6.89339 16.2632 6.8854 16.2529 6.8774 16.2425C6.86706 16.2345 6.85672 16.2265 6.84638 16.2185C6.81656 16.201 6.78238 16.1957 6.74854 16.2003C6.68857 16.2083 6.63767 16.2511 6.62095 16.3102C6.6147 16.3323 6.61269 16.3545 6.61202 16.3771C6.60987 16.3885 6.60765 16.3999 6.6057 16.4113C6.60141 16.4367 6.59671 16.4624 6.59677 16.4882C6.59677 16.4991 6.59671 16.5101 6.59644 16.5211C6.59543 16.5657 6.58784 16.6107 6.58898 16.6551C6.58912 16.6986 6.60819 16.7504 6.64089 16.7804L6.67675 16.8082C6.6971 16.8211 6.71906 16.8281 6.74263 16.8292C6.78044 16.8343 6.82261 16.8294 6.85558 16.8082C6.89453 16.783 6.92428 16.7477 6.93704 16.7023C6.94818 16.6626 6.9506 16.6191 6.95335 16.5778C6.9551 16.552 6.95604 16.5261 6.95617 16.5002C6.95631 16.4609 6.9506 16.421 6.93945 16.3831Z" fill="#242B45"/>
<path d="M8.97245 16.325C8.97252 16.3009 8.97252 16.2768 8.97259 16.2527C8.97265 16.2279 8.97306 16.2032 8.96634 16.1787C8.95788 16.1479 8.93653 16.1122 8.91343 16.0902C8.8869 16.0648 8.84674 16.0453 8.80921 16.047C8.76885 16.0488 8.73527 16.0631 8.70498 16.0902C8.69726 16.097 8.69061 16.1074 8.68464 16.1151C8.67349 16.1296 8.66543 16.1415 8.65892 16.1566C8.65334 16.1644 8.64851 16.1726 8.64461 16.1817C8.63139 16.2129 8.62373 16.2296 8.62252 16.2651C8.62172 16.2892 8.62212 16.3134 8.62272 16.3375C8.62427 16.3978 8.63239 16.4573 8.64273 16.5167C8.64791 16.5385 8.65791 16.5575 8.67275 16.5737C8.68457 16.592 8.70022 16.6064 8.71976 16.6169C8.73312 16.6225 8.74642 16.6282 8.75978 16.6338C8.78208 16.6407 8.8043 16.6417 8.8266 16.6368C8.86179 16.6321 8.89812 16.6176 8.92283 16.5907C8.93156 16.5794 8.94029 16.5681 8.94902 16.5568C8.96419 16.5307 8.97178 16.5025 8.97192 16.4723C8.97507 16.4236 8.97232 16.3737 8.97245 16.325Z" fill="#242B45"/>
<path d="M7.92509 17.265C7.90743 17.2647 7.89004 17.2661 7.87177 17.2706C7.858 17.2739 7.84417 17.2763 7.83034 17.2792C7.80146 17.2851 7.77453 17.297 7.74485 17.3013C7.75479 17.3 7.76473 17.2986 7.77467 17.2973C7.74908 17.3006 7.72397 17.3047 7.69872 17.3094C7.69456 17.3097 7.69039 17.3101 7.68623 17.3104C7.67595 17.311 7.66575 17.3107 7.65547 17.3109C7.64547 17.311 7.62546 17.311 7.61404 17.316C7.60988 17.3163 7.60578 17.3165 7.60162 17.3168C7.58745 17.3178 7.57811 17.3198 7.56468 17.3254C7.57066 17.3229 7.57429 17.3216 7.56603 17.3248C7.55401 17.3294 7.54266 17.3339 7.53587 17.3456C7.52137 17.3706 7.53782 17.4069 7.55367 17.4264C7.56945 17.4457 7.58798 17.4665 7.61001 17.4787C7.65729 17.5047 7.72048 17.5251 7.77474 17.5217C7.80368 17.5199 7.83302 17.516 7.86136 17.5094C7.90065 17.5004 7.9304 17.4812 7.96149 17.4565C7.97257 17.4477 7.9811 17.4394 7.98982 17.4281C7.99439 17.4222 7.9997 17.4161 8.00386 17.4097C8.0097 17.4006 8.0234 17.3708 8.01165 17.3903C8.04972 17.3272 7.99164 17.2557 7.92509 17.265Z" fill="#E1A796"/>
<path d="M8.426 18.2397C8.38269 18.1792 8.29096 18.1502 8.22179 18.1338C8.14181 18.115 8.05599 18.115 7.97474 18.1242C7.89416 18.1333 7.81559 18.1509 7.74031 18.1815C7.66765 18.2109 7.57176 18.2499 7.53106 18.3215C7.5091 18.3601 7.54516 18.4024 7.5864 18.3935C7.65247 18.3792 7.71157 18.3309 7.77483 18.3068C7.8407 18.2816 7.91081 18.263 7.98112 18.2559C8.05143 18.2488 8.1218 18.2517 8.19204 18.259C8.22481 18.2624 8.25718 18.2669 8.28968 18.2722C8.32339 18.2777 8.36651 18.2883 8.40042 18.2843C8.42023 18.2819 8.44064 18.26 8.426 18.2397Z" fill="#E1A796"/>
<path d="M24.3578 21.5454C24.2903 21.5185 24.2168 21.5485 24.1502 21.5668C24.0836 21.5851 24.0161 21.6 23.9481 21.6117C23.8154 21.6346 23.6807 21.6442 23.546 21.6414C23.4107 21.6385 23.2769 21.6228 23.1439 21.5981C23.0758 21.5855 23.009 21.568 22.9411 21.5549C22.9226 21.5513 22.8202 21.5267 22.8213 21.5638C22.8227 21.61 22.9154 21.6459 22.9507 21.659C23.0172 21.6837 23.0866 21.7058 23.1556 21.7223C23.2899 21.7546 23.4302 21.7698 23.5682 21.7725C23.7072 21.7752 23.8466 21.7644 23.9836 21.7409C24.0517 21.7292 24.1191 21.714 24.1856 21.6956C24.2554 21.6763 24.3385 21.654 24.3739 21.5853C24.3827 21.5682 24.3745 21.552 24.3578 21.5454Z" fill="#D47970"/>
<path d="M21.2349 18.0952C21.0789 18.1311 20.9623 18.2859 20.9244 18.4364C20.9032 18.5205 20.9048 18.6102 20.9252 18.6944C20.946 18.7807 20.9852 18.8573 21.075 18.8809C21.0874 18.8841 21.1009 18.8747 21.1006 18.8614C21.0997 18.8293 21.1005 18.7993 21.0906 18.7677C21.0796 18.733 21.0641 18.7001 21.0548 18.6646C21.0378 18.5995 21.0366 18.5311 21.0523 18.4657C21.0836 18.3355 21.1764 18.2481 21.2768 18.1673C21.3126 18.1384 21.2731 18.0864 21.2349 18.0952Z" fill="#D47970"/>
<path d="M21.3722 18.7494C21.3598 18.7069 21.3391 18.6668 21.3118 18.6321C21.3001 18.6174 21.2335 18.5652 21.2141 18.596C21.2051 18.6103 21.2101 18.6234 21.2128 18.6379C21.2144 18.6465 21.2165 18.6554 21.2187 18.6644C21.2196 18.668 21.2201 18.6716 21.2212 18.6752C21.2265 18.6876 21.2281 18.6914 21.2259 18.6865C21.2251 18.6847 21.2253 18.6853 21.2265 18.6882C21.2325 18.7033 21.2384 18.7184 21.242 18.7342C21.244 18.7427 21.2457 18.7512 21.2475 18.7597C21.2484 18.7639 21.252 18.7867 21.2502 18.7747C21.2511 18.7811 21.2521 18.7876 21.2529 18.7941C21.253 18.7947 21.2531 18.7955 21.2532 18.7976C21.2539 18.8063 21.2545 18.8149 21.2547 18.8237C21.2551 18.8401 21.2549 18.8566 21.2536 18.873C21.2535 18.8738 21.2531 18.8781 21.2529 18.8811C21.2524 18.8843 21.2511 18.8951 21.2508 18.8979C21.2507 18.8984 21.2508 18.8981 21.2506 18.8992C21.25 18.9033 21.2488 18.9119 21.2482 18.9157C21.2451 18.9342 21.2396 18.953 21.2418 18.9715C21.2413 18.9793 21.242 18.9875 21.2437 18.995C21.2433 18.9992 21.2436 19.0035 21.2441 19.0076C21.2437 19.0092 21.2433 19.0107 21.2429 19.0122C21.238 19.0304 21.2605 19.0524 21.2779 19.0391C21.2803 19.0372 21.2827 19.0353 21.2851 19.0335C21.2891 19.0322 21.293 19.0308 21.2965 19.0284C21.3109 19.0245 21.3214 19.0159 21.3305 19.0047C21.3478 18.9899 21.357 18.9665 21.3655 18.9458C21.3745 18.9241 21.3782 18.9019 21.3812 18.8787C21.3867 18.8363 21.3841 18.7906 21.3722 18.7494Z" fill="#D47970"/>
<path d="M26.3585 17.5777C26.2661 17.5233 26.1633 17.4946 26.0658 17.4512C25.9662 17.4069 25.8705 17.3547 25.7755 17.3017C25.613 17.2111 25.4523 17.1173 25.2957 17.0171C24.9825 16.8167 24.6835 16.5882 24.4389 16.3063C24.3718 16.229 24.3099 16.1474 24.2524 16.0627C24.2232 16.0197 24.195 15.9759 24.1672 15.9319C24.1416 15.8916 24.1164 15.8342 24.0793 15.804C24.0767 15.8019 24.0739 15.8005 24.0711 15.799C24.0521 15.7678 24.0092 15.7518 23.973 15.7851C23.8776 15.8728 23.7904 15.9704 23.6992 16.0625C23.6078 16.1549 23.5153 16.2464 23.4212 16.3359C23.2358 16.5123 23.0438 16.6826 22.8395 16.8367C22.4313 17.1447 21.9735 17.3897 21.4705 17.4973C21.3339 17.5265 21.1955 17.5447 21.0558 17.5499C20.9857 17.5525 20.9154 17.5523 20.8454 17.5502C20.7736 17.548 20.6994 17.5412 20.6282 17.5499C20.594 17.5539 20.5682 17.605 20.6081 17.6237C20.7227 17.6772 20.8655 17.6833 20.9905 17.6828C21.12 17.6823 21.2492 17.6703 21.377 17.65C21.6366 17.6088 21.888 17.527 22.1277 17.4202C22.6119 17.2046 23.0361 16.8759 23.4229 16.5177C23.533 16.4158 23.6403 16.3111 23.7462 16.2049C23.8401 16.1108 23.9371 16.0176 24.0263 15.9186C24.0342 15.9365 24.0427 15.954 24.0503 15.9701C24.0706 16.0133 24.0936 16.0552 24.1187 16.0957C24.1696 16.1777 24.2264 16.2554 24.287 16.3304C24.4073 16.4793 24.5439 16.6146 24.6897 16.7384C24.9879 16.9919 25.3215 17.1999 25.662 17.3912C25.7699 17.4519 25.8784 17.5124 25.9914 17.5632C26.106 17.6147 26.2218 17.6625 26.3497 17.6439C26.382 17.6392 26.3831 17.5922 26.3585 17.5777Z" fill="#7E513C"/>
<path d="M23.38 17.9236C23.3787 17.9183 23.3769 17.9133 23.375 17.9084C23.3696 17.874 23.3464 17.8512 23.3211 17.827C23.3019 17.8086 23.2841 17.7891 23.256 17.7754C23.2375 17.7664 23.2188 17.7579 23.1999 17.7498C23.1209 17.7157 23.0418 17.6882 22.9575 17.6708C22.8787 17.6545 22.7935 17.6385 22.7127 17.6428C22.643 17.6464 22.5269 17.6453 22.4894 17.7183C22.4835 17.7295 22.4819 17.7442 22.4894 17.7553C22.5294 17.8153 22.6172 17.8162 22.6806 17.8302C22.754 17.8464 22.8278 17.8575 22.9002 17.8789C22.9641 17.8978 23.0367 17.9237 23.0915 17.9486C23.1082 17.9561 23.1246 17.964 23.141 17.9722C23.1679 17.9857 23.1978 17.995 23.2211 17.9999C23.2305 18.0018 23.2547 18.0108 23.2702 18.0125C23.289 18.0145 23.3048 18.0114 23.3197 18.0048C23.3248 18.0041 23.33 18.0039 23.335 18.0026C23.3698 17.9947 23.3876 17.9563 23.38 17.9236Z" fill="#9D644A"/>
<path d="M25.5346 17.7099C25.4945 17.6213 25.3811 17.6103 25.2946 17.6104C25.2001 17.6105 25.1055 17.6275 25.0144 17.6525C24.9281 17.6762 24.8364 17.7067 24.7588 17.7516C24.7195 17.7744 24.6819 17.8011 24.6527 17.8361C24.6228 17.872 24.5932 17.938 24.6471 17.97C24.7148 18.0101 24.815 17.9574 24.8799 17.9311C24.9516 17.902 25.026 17.8795 25.1018 17.8639C25.1772 17.8484 25.241 17.8418 25.3157 17.8359C25.3582 17.8326 25.3984 17.8253 25.4399 17.8171C25.4833 17.8085 25.5088 17.786 25.5346 17.7522C25.5441 17.7398 25.5404 17.7225 25.5346 17.7099Z" fill="#9D644A"/>
<path d="M23.2932 18.5147C23.2888 18.4836 23.2824 18.4531 23.2734 18.423C23.2464 18.3326 23.1597 18.2753 23.0663 18.2878C22.973 18.3004 22.9049 18.3784 22.9027 18.4732C22.9016 18.5237 22.9032 18.5745 22.9036 18.6251C22.9038 18.6492 22.9039 18.6733 22.9041 18.6974C22.9042 18.7108 22.904 18.7239 22.9055 18.7372C22.9086 18.7634 22.909 18.792 22.9171 18.8166C22.9321 18.8619 22.9585 18.8964 22.9982 18.9221C23.0452 18.9524 23.1055 18.952 23.1553 18.931C23.2082 18.9087 23.2422 18.8653 23.2555 18.8158C23.2562 18.8161 23.2568 18.8163 23.2574 18.8166C23.2614 18.8056 23.2623 18.7937 23.264 18.7821C23.2643 18.7803 23.2645 18.7785 23.2648 18.7766C23.2752 18.7609 23.2835 18.7441 23.2881 18.7247C23.2944 18.6978 23.2972 18.6689 23.3007 18.6419C23.3062 18.5987 23.2994 18.5579 23.2932 18.5147Z" fill="#7E513C"/>
<path d="M25.0589 18.5147C25.0544 18.4836 25.048 18.4531 25.039 18.423C25.012 18.3326 24.9253 18.2753 24.832 18.2878C24.7386 18.3004 24.6705 18.3784 24.6684 18.4732C24.6672 18.5237 24.6688 18.5745 24.6692 18.6251C24.6694 18.6492 24.6695 18.6733 24.6697 18.6974C24.6698 18.7108 24.6696 18.7239 24.6711 18.7372C24.6742 18.7634 24.6746 18.792 24.6827 18.8166C24.6977 18.8619 24.7241 18.8964 24.7639 18.9221C24.8109 18.9524 24.8712 18.952 24.9209 18.931C24.9738 18.9087 25.0078 18.8653 25.0211 18.8158C25.0218 18.8161 25.0225 18.8163 25.0231 18.8166C25.027 18.8056 25.028 18.7937 25.0297 18.7821C25.0299 18.7803 25.0301 18.7785 25.0304 18.7766C25.0408 18.7609 25.0491 18.7441 25.0537 18.7247C25.06 18.6978 25.0628 18.6689 25.0663 18.6419C25.0718 18.5987 25.065 18.5579 25.0589 18.5147Z" fill="#7E513C"/>
<path d="M24.0744 19.3927C24.059 19.3876 24.0449 19.3903 24.0294 19.3909C24.016 19.3913 24.0027 19.3936 23.9895 19.3959C23.9864 19.3962 23.9833 19.3966 23.9803 19.3968C23.9752 19.3973 23.9701 19.3975 23.965 19.3978C23.9527 19.3986 23.9407 19.4005 23.9287 19.4024C23.9148 19.4039 23.901 19.405 23.8871 19.4048C23.8651 19.4045 23.8445 19.4058 23.8226 19.4102C23.8222 19.4103 23.8224 19.4103 23.8221 19.4103C23.8214 19.4104 23.8206 19.4105 23.8199 19.4106C23.802 19.4127 23.788 19.4173 23.7725 19.4255C23.7679 19.428 23.763 19.4301 23.7584 19.4326C23.7536 19.4351 23.7503 19.4388 23.7468 19.4422C23.7422 19.4426 23.7376 19.443 23.7331 19.443C23.7249 19.4433 23.7202 19.4518 23.724 19.4588C23.7258 19.4621 23.7276 19.4654 23.7295 19.4687C23.7302 19.4699 23.7309 19.4711 23.7317 19.4724C23.7315 19.4737 23.7313 19.4749 23.7311 19.4762C23.7311 19.485 23.7342 19.493 23.7378 19.5008C23.7448 19.516 23.7535 19.5308 23.765 19.5432C23.7773 19.5567 23.7985 19.5663 23.8151 19.574C23.8421 19.5866 23.8707 19.5894 23.9002 19.5894C23.9193 19.5894 23.9379 19.5874 23.9568 19.5849C23.968 19.5835 23.9788 19.5825 23.9895 19.5788C24.0025 19.5745 24.0152 19.5684 24.0277 19.5626C24.0463 19.5539 24.0646 19.5438 24.0796 19.5296C24.0958 19.5143 24.1146 19.4936 24.1193 19.472C24.127 19.4365 24.1089 19.4042 24.0744 19.3927Z" fill="#D47970"/>
<path d="M24.3586 20.2552C24.3271 20.1979 24.2536 20.1754 24.1949 20.1553C24.1278 20.1322 24.0601 20.1166 23.9892 20.1115C23.9238 20.1069 23.8579 20.1083 23.7927 20.1158C23.7304 20.1231 23.6421 20.1404 23.6204 20.2087C23.6169 20.2197 23.6208 20.2326 23.6289 20.2406C23.6732 20.2845 23.7481 20.2722 23.8046 20.2669C23.864 20.2614 23.9238 20.2608 23.9833 20.2653C24.0399 20.2696 24.0974 20.2737 24.1534 20.2835C24.2129 20.294 24.2784 20.3212 24.3382 20.3053C24.3599 20.2995 24.3691 20.2743 24.3586 20.2552Z" fill="#D47970"/>
<path d="M25.5096 9.38629C25.4561 9.36715 25.402 9.38642 25.348 9.39992C25.2933 9.41362 25.2381 9.42349 25.1819 9.42826C25.0664 9.43806 24.9495 9.43155 24.8355 9.4108C24.7191 9.38958 24.605 9.3562 24.494 9.31551C24.436 9.29422 24.3788 9.27078 24.3216 9.24728C24.2752 9.22821 24.2091 9.18523 24.1583 9.20047C24.1423 9.20531 24.1276 9.22478 24.1346 9.24211C24.1569 9.29677 24.2305 9.32014 24.2807 9.34418C24.3362 9.37071 24.3928 9.39468 24.45 9.41704C24.572 9.46465 24.6975 9.5036 24.8266 9.52583C24.9486 9.54685 25.0731 9.55517 25.1966 9.54362C25.258 9.53792 25.3196 9.52858 25.3792 9.51307C25.4364 9.49816 25.4979 9.47714 25.5241 9.42161C25.5311 9.40697 25.5252 9.39186 25.5096 9.38629Z" fill="#E4B09E"/>
<path d="M27.3667 6.14259C27.3475 6.13312 27.3329 6.11599 27.3141 6.10458C27.2954 6.09323 27.2785 6.08148 27.2586 6.07221C27.2137 6.05146 27.1659 6.03722 27.12 6.01882C27.037 5.98558 26.9574 5.93905 26.873 5.9099C26.8382 5.87438 26.7884 5.85242 26.747 5.82616C26.7027 5.79803 26.6595 5.76794 26.6173 5.73665C26.5289 5.67118 26.4452 5.59952 26.3668 5.52237C26.2028 5.3608 26.0724 5.17418 25.9569 4.97581C25.9203 4.91282 25.8826 4.85024 25.8437 4.78873C25.8158 4.74461 25.7893 4.69713 25.748 4.66778C25.7656 4.64421 25.7793 4.61903 25.792 4.59002C25.804 4.56249 25.7779 4.53375 25.7494 4.54342C25.713 4.55571 25.6773 4.56833 25.647 4.59251C25.6159 4.61742 25.5864 4.64448 25.5566 4.67094C25.4969 4.72413 25.4366 4.77677 25.3761 4.82888C25.2548 4.93317 25.1318 5.03531 25.007 5.13537C24.8848 5.23334 24.7618 5.33125 24.6346 5.42271C24.5161 5.50786 24.3896 5.58663 24.2468 5.62309C24.0968 5.66144 23.946 5.62155 23.7944 5.62585C23.6587 5.62968 23.5363 5.68313 23.4281 5.7627C23.3257 5.83805 23.237 5.93005 23.1372 6.00855C23.0464 6.08 22.9445 6.13399 22.8308 6.1585C22.7039 6.1859 22.5702 6.17811 22.4459 6.14212C22.3851 6.12446 22.3292 6.09994 22.2723 6.07255C22.2129 6.04394 22.1609 6.00425 22.1007 5.97699C22.0886 5.97148 22.074 5.98364 22.0792 5.99666C22.1226 6.10585 22.2374 6.17757 22.3408 6.22384C22.4525 6.27387 22.5757 6.29529 22.6977 6.29482C22.8194 6.29435 22.9452 6.26883 23.0548 6.21518C23.1733 6.15716 23.2708 6.07093 23.3689 5.98424C23.4628 5.90124 23.5613 5.81434 23.6834 5.77674C23.8332 5.73061 23.9937 5.78211 24.1466 5.77284C24.4638 5.75364 24.7265 5.52586 24.965 5.33891C25.1119 5.22381 25.2564 5.10575 25.3986 4.98488C25.4696 4.92444 25.5401 4.86326 25.6099 4.80142C25.637 4.77738 25.6636 4.75287 25.6901 4.72822C25.7065 4.78483 25.7441 4.83835 25.7703 4.88898C25.8123 4.97031 25.8534 5.0519 25.899 5.13134C25.9754 5.26457 26.0653 5.389 26.1675 5.5037C26.2675 5.61584 26.3766 5.71932 26.4955 5.81126C26.5563 5.85833 26.6195 5.90198 26.6843 5.94334C26.715 5.96289 26.746 5.98384 26.7783 6.00036C26.7884 6.00546 26.7939 6.00949 26.8061 6.01211C26.8072 6.01238 26.8163 6.01473 26.8176 6.01439C26.8351 6.02326 26.8529 6.03877 26.8699 6.04824C26.9413 6.08779 27.0174 6.12056 27.0933 6.15038C27.1345 6.16656 27.1762 6.18328 27.2196 6.19268C27.2396 6.19698 27.2588 6.19785 27.2791 6.19866C27.3027 6.1996 27.3275 6.19188 27.3503 6.19355C27.3793 6.1957 27.3959 6.15702 27.3667 6.14259Z" fill="#A8532B"/>
<path d="M22.3012 6.45489C22.267 6.46772 22.2431 6.4796 22.217 6.5064C22.1932 6.53091 22.1736 6.55958 22.1565 6.58906C22.1236 6.64621 22.1027 6.71202 22.0949 6.77736C22.0868 6.84612 22.0907 6.91502 22.1079 6.98211C22.1232 7.04174 22.1594 7.12212 22.2229 7.14179C22.2438 7.14824 22.2588 7.12655 22.2591 7.10903C22.2595 7.08163 22.2441 7.05248 22.2352 7.02703C22.2258 6.99983 22.2163 6.97271 22.2092 6.9447C22.1964 6.89407 22.1929 6.84021 22.199 6.7883C22.2056 6.73344 22.2203 6.68052 22.2446 6.6309C22.2561 6.60726 22.2694 6.5847 22.2845 6.56321C22.302 6.5383 22.3147 6.51231 22.3305 6.48679C22.3415 6.46879 22.319 6.44824 22.3012 6.45489Z" fill="#E4B09E"/>
<path d="M22.5114 7.01173C22.5105 7.0083 22.5097 7.00481 22.5085 7.00152C22.5079 6.99837 22.5066 6.99548 22.5048 6.99279C22.5021 6.98735 22.5017 6.98655 22.5033 6.99037C22.4983 6.98138 22.4947 6.97291 22.4868 6.96593C22.4738 6.95431 22.4607 6.9476 22.4432 6.94679C22.4351 6.94639 22.4249 6.95391 22.4222 6.96137C22.4196 6.96835 22.4144 6.97285 22.4133 6.9807C22.4124 6.98742 22.4138 6.9934 22.4177 6.9989C22.4209 7.00347 22.426 7.0036 22.4298 7.00139C22.4298 7.00192 22.4298 7.00246 22.4298 7.003C22.4298 7.00575 22.4292 7.00817 22.4294 7.00414C22.429 7.01018 22.4289 7.01556 22.4292 7.02147C22.4293 7.02805 22.4291 7.03456 22.4289 7.04108C22.4289 7.04396 22.4289 7.04692 22.4288 7.0498C22.4288 7.05121 22.4288 7.05148 22.4288 7.05202C22.4287 7.05222 22.4287 7.05209 22.4287 7.05283C22.4279 7.05927 22.4275 7.06565 22.4266 7.0721C22.4247 7.08499 22.4219 7.09762 22.4198 7.11051C22.4178 7.1226 22.415 7.13462 22.4116 7.14644C22.4098 7.15262 22.4084 7.15886 22.4069 7.16511C22.406 7.16853 22.4051 7.17196 22.4042 7.17538C22.404 7.17585 22.4032 7.1788 22.4029 7.17974C22.4024 7.18102 22.4005 7.18673 22.4002 7.1874C22.3986 7.19197 22.3966 7.19647 22.3955 7.20123C22.3944 7.206 22.3942 7.21117 22.393 7.215C22.3891 7.22823 22.3826 7.24032 22.3802 7.25402C22.3776 7.26886 22.3917 7.2792 22.4053 7.27517C22.4206 7.2706 22.4325 7.26053 22.4446 7.25052C22.4572 7.24005 22.468 7.23051 22.4772 7.21681C22.4975 7.187 22.5128 7.15382 22.5181 7.1177C22.5234 7.08291 22.5202 7.04544 22.5114 7.01173Z" fill="#E4B09E"/>
<path d="M26.3273 10.4567C26.3218 10.4291 26.2904 10.4231 26.2688 10.4328C26.24 10.4457 26.2213 10.456 26.2051 10.4843C26.1886 10.5132 26.1736 10.543 26.1573 10.5721C26.1283 10.624 26.0983 10.6754 26.0674 10.7262C26.003 10.8318 25.9345 10.935 25.862 11.0352C25.7204 11.2312 25.5629 11.4157 25.3926 11.5872C25.3088 11.6715 25.2212 11.7518 25.1314 11.8296C24.6917 11.4279 24.2854 10.9919 23.908 10.5315C23.8534 10.465 23.7997 10.3979 23.7458 10.3309C23.6941 10.2665 23.6428 10.188 23.566 10.1531C23.5552 10.1482 23.5375 10.1537 23.5392 10.1685C23.5473 10.2412 23.5904 10.3023 23.6321 10.3611C23.6775 10.425 23.7238 10.4882 23.7714 10.5506C23.8653 10.6737 23.9623 10.7944 24.0619 10.9129C24.2626 11.1518 24.4746 11.3806 24.6961 11.6003C24.8221 11.7253 24.9512 11.8472 25.0829 11.9662C25.1112 11.9918 25.1481 11.9903 25.1768 11.9662C25.5594 11.6434 25.8909 11.2605 26.1559 10.8357C26.1937 10.7752 26.2301 10.7138 26.2651 10.6516C26.2814 10.6226 26.2975 10.5934 26.3132 10.564C26.3339 10.5249 26.3358 10.499 26.3273 10.4567Z" fill="#344B4A"/>
<path d="M27.427 14.5034C27.4102 14.4325 27.3924 14.3618 27.3765 14.2906C27.3457 14.1535 27.3166 14.0162 27.2917 13.8779C27.2669 13.7399 27.2442 13.6015 27.223 13.4629C27.2125 13.3938 27.2015 13.3249 27.1903 13.256C27.1786 13.1837 27.1713 13.1059 27.1491 13.036C27.1433 13.018 27.1122 13.0141 27.1086 13.036C27.0978 13.1033 27.1021 13.1754 27.1043 13.2433C27.1066 13.3159 27.1113 13.3884 27.1183 13.4607C27.1317 13.5998 27.151 13.7388 27.1753 13.8765C27.1998 14.0147 27.2271 14.1526 27.2594 14.2892C27.2756 14.3575 27.2931 14.4255 27.3111 14.4934C27.3295 14.5621 27.3459 14.6361 27.373 14.7017C27.3864 14.734 27.4272 14.7352 27.4403 14.7017C27.4649 14.6386 27.4419 14.5663 27.427 14.5034Z" fill="#344B4A"/>
<path d="M31.337 22.6087C31.21 22.7735 31.0106 22.8609 30.8178 22.9237C30.7106 22.9585 30.6016 22.9811 30.4906 22.9994C30.4355 23.0085 30.3806 23.0161 30.3252 23.0222C30.2786 23.0273 30.2111 23.0221 30.1781 23.0614C30.1719 23.0688 30.1676 23.0819 30.1743 23.0908C30.2085 23.1357 30.2739 23.1322 30.3252 23.1339C30.3859 23.1358 30.4475 23.1334 30.508 23.1272C30.6323 23.1142 30.7567 23.0848 30.8752 23.0455C31.0804 22.9775 31.338 22.8738 31.4399 22.6689C31.4747 22.5984 31.3829 22.549 31.337 22.6087Z" fill="#344B4A"/>
<path d="M29.5804 23.8162C29.5546 23.8302 29.5325 23.8521 29.5094 23.87C29.4837 23.8898 29.4559 23.9071 29.4279 23.9233C29.3116 23.9901 29.1829 24.0363 29.0558 24.0777C28.9242 24.1206 28.79 24.1553 28.6546 24.1841C28.501 24.2169 28.346 24.2428 28.1905 24.2649C28.1115 24.2761 28.0325 24.2868 27.9539 24.3007C27.8891 24.3121 27.7932 24.3162 27.7433 24.3634C27.7304 24.3757 27.7339 24.3977 27.7488 24.4064C27.8008 24.437 27.8815 24.424 27.9392 24.4207C28.0085 24.4167 28.0778 24.4108 28.1466 24.4019C28.2879 24.3837 28.4291 24.3636 28.5692 24.3373C28.843 24.2859 29.1141 24.2131 29.3698 24.1011C29.4275 24.0758 29.4841 24.0477 29.537 24.0132C29.5845 23.9823 29.6571 23.9383 29.6725 23.8795C29.6888 23.8172 29.6313 23.7886 29.5804 23.8162Z" fill="#344B4A"/>
<path d="M19.4523 9.91303C19.4278 9.93223 19.4007 9.95003 19.379 9.97232C19.3573 9.99475 19.3369 10.0189 19.3162 10.0424C19.2747 10.0895 19.233 10.1366 19.1902 10.1827C19.1046 10.2749 19.0147 10.3632 18.9213 10.4475C18.7351 10.6154 18.5347 10.7667 18.322 10.8996C17.872 11.1809 17.3767 11.3684 16.8569 11.4724C16.5638 11.5311 16.2666 11.566 15.969 11.5921C15.6642 11.6189 15.3582 11.6419 15.0521 11.6476C14.7561 11.6531 14.459 11.6399 14.167 11.5886C13.9178 11.5449 13.6738 11.475 13.4384 11.3827C12.9659 11.1975 12.5436 10.9121 12.1679 10.5737C12.1221 10.5325 12.0775 10.4942 12.0284 10.4571C12.0123 10.4449 11.9919 10.4682 12.0015 10.484C12.068 10.5921 12.1572 10.6829 12.248 10.7712C12.3419 10.8624 12.4438 10.9456 12.5481 11.0244C12.7538 11.1795 12.976 11.3119 13.2095 11.4206C13.712 11.6548 14.2509 11.7688 14.8041 11.7807C15.1209 11.7875 15.4375 11.767 15.7531 11.7429C16.0577 11.7196 16.3621 11.6906 16.6639 11.6419C17.2127 11.5534 17.742 11.3854 18.227 11.111C18.673 10.8585 19.0942 10.5238 19.4148 10.1219C19.456 10.0702 19.4869 10.0207 19.5134 9.9601C19.5312 9.91894 19.4877 9.88516 19.4523 9.91303Z" fill="#D98A79"/>
<path d="M21.04 10.5703C20.9095 10.6845 20.7896 10.8098 20.6602 10.9255C20.532 11.0403 20.3985 11.1496 20.2605 11.2525C19.9839 11.4591 19.6893 11.6412 19.3832 11.8008C18.7624 12.1243 18.0962 12.3543 17.4169 12.5192C16.6691 12.7007 15.8992 12.8139 15.1303 12.8467C14.3292 12.881 13.52 12.8112 12.7536 12.5656C12.0796 12.3496 11.4525 12.0003 10.9333 11.5172C10.8697 11.458 10.8057 11.4002 10.7403 11.3431C10.715 11.321 10.668 11.3506 10.6905 11.3816C10.8976 11.6671 11.1931 11.8935 11.485 12.087C11.7853 12.2861 12.1094 12.4477 12.4455 12.577C13.1912 12.8642 13.9947 12.9774 14.791 12.9799C15.5933 12.9824 16.3997 12.8797 17.1833 12.7097C17.8815 12.5582 18.5679 12.3411 19.2137 12.0335C19.8512 11.7299 20.4511 11.3335 20.9474 10.8284C21.0092 10.7655 21.0637 10.6998 21.1154 10.6284C21.149 10.582 21.0787 10.5365 21.04 10.5703Z" fill="#D98A79"/>
<path d="M19.6852 14.0194C19.5696 14.0661 19.4641 14.1311 19.3521 14.1859C19.2408 14.2405 19.1268 14.2888 19.0108 14.3321C18.7807 14.4182 18.5442 14.4857 18.306 14.5452C17.7893 14.6742 17.2648 14.7785 16.7369 14.8495C15.7125 14.9875 14.6602 14.9932 13.6491 14.7594C13.3817 14.6976 13.1179 14.6194 12.8606 14.5234C12.7297 14.4745 12.6001 14.4222 12.4729 14.3642C12.3468 14.3069 12.2242 14.2447 12.0932 14.1996C12.067 14.1906 12.0432 14.2293 12.0654 14.2475C12.2552 14.4024 12.4933 14.4983 12.7185 14.5909C12.9516 14.6866 13.1918 14.7653 13.4351 14.8307C13.9213 14.9614 14.4225 15.0358 14.9249 15.0641C15.4678 15.0947 16.0122 15.0697 16.5519 15.006C17.0952 14.942 17.6336 14.8409 18.1661 14.716C18.6538 14.6016 19.1461 14.4627 19.5846 14.2142C19.6403 14.1827 19.6876 14.1475 19.7344 14.104C19.7695 14.0713 19.7331 14 19.6852 14.0194Z" fill="#D98A79"/>
<path d="M21.7396 12.6563C21.7159 12.6768 21.6861 12.6897 21.6619 12.7105C21.6363 12.7325 21.6119 12.7558 21.5868 12.7782C21.5399 12.8203 21.4928 12.8616 21.4431 12.9003C21.3309 12.9879 21.2145 13.0703 21.0999 13.1547C20.8673 13.326 20.635 13.4978 20.4034 13.6704C20.3457 13.7134 20.2862 13.754 20.2246 13.7912C20.1658 13.8268 20.0973 13.8519 20.053 13.9054C20.049 13.9102 20.0506 13.9164 20.0565 13.9186C20.1151 13.9406 20.175 13.921 20.2312 13.8979C20.2908 13.8734 20.3467 13.8434 20.4013 13.8094C20.5246 13.7325 20.6401 13.643 20.7576 13.5575C21.0003 13.3811 21.2446 13.2059 21.4836 13.0244C21.5435 12.9789 21.6038 12.9326 21.6584 12.8806C21.6864 12.854 21.7121 12.825 21.7351 12.7939C21.76 12.7605 21.7671 12.727 21.7832 12.69C21.7956 12.6615 21.7645 12.6347 21.7396 12.6563Z" fill="#D98A79"/>
<path d="M19.113 16.2821C19.0614 16.2984 19.0068 16.3097 18.9571 16.331C18.9024 16.3545 18.8484 16.3794 18.7937 16.4029C18.6944 16.4454 18.5935 16.4844 18.4918 16.5207C18.2866 16.5938 18.0772 16.655 17.8654 16.7053C17.4353 16.8072 16.9956 16.8635 16.5542 16.8833C15.6205 16.9252 14.6887 16.8028 13.7756 16.6157C13.5095 16.5612 13.2451 16.4995 12.9798 16.4413C12.847 16.4122 12.7146 16.3818 12.5817 16.3533C12.5177 16.3396 12.4533 16.3292 12.3893 16.316C12.3573 16.3094 12.3255 16.3024 12.2934 16.2964C12.2573 16.2895 12.2252 16.2909 12.1885 16.2915C12.1711 16.2919 12.1639 16.3159 12.1795 16.3248C12.2054 16.3396 12.2292 16.356 12.2574 16.3655C12.2831 16.3742 12.309 16.3824 12.335 16.3901C12.3977 16.4083 12.4589 16.4299 12.5218 16.4479C12.6367 16.4807 12.752 16.5117 12.8676 16.5419C13.1039 16.6036 13.3421 16.6589 13.581 16.7099C14.0586 16.8118 14.5399 16.8974 15.0251 16.9539C15.928 17.0592 16.8487 17.0571 17.7411 16.8697C17.9834 16.8188 18.2228 16.754 18.4572 16.674C18.5742 16.634 18.69 16.5902 18.8042 16.5425C18.8643 16.5174 18.9245 16.4919 18.9833 16.4639C19.042 16.4359 19.0927 16.3967 19.1454 16.3588C19.1814 16.3328 19.1616 16.2667 19.113 16.2821Z" fill="#D98A79"/>
<path d="M19.2384 18.7022C19.2019 18.6783 19.1648 18.7159 19.1701 18.7518C19.1687 18.7527 19.1673 18.7538 19.1651 18.7551C19.1547 18.7613 19.1484 18.7687 19.1375 18.7738C19.1143 18.7846 19.0875 18.7906 19.0632 18.7985C19.0018 18.8184 18.9403 18.8377 18.8786 18.8564C18.76 18.8923 18.6407 18.9261 18.5209 18.9578C18.2813 19.0211 18.0393 19.0758 17.7959 19.122C17.3097 19.2143 16.8172 19.2716 16.3229 19.2951C15.3329 19.3419 14.3376 19.2521 13.3721 19.0283C13.1017 18.9656 12.8338 18.8924 12.568 18.8124C12.4352 18.7724 12.3033 18.7294 12.1717 18.6857C12.0406 18.642 11.911 18.5905 11.7752 18.5645C11.7502 18.5597 11.736 18.5911 11.7578 18.6057C11.8643 18.6766 11.9839 18.7225 12.1022 18.7704C12.2219 18.819 12.3433 18.8629 12.4654 18.905C12.7092 18.989 12.9567 19.0616 13.2069 19.1239C13.7084 19.2487 14.2188 19.3359 14.733 19.3871C15.2461 19.4383 15.763 19.4528 16.2783 19.4305C16.7943 19.4082 17.3091 19.3489 17.8167 19.2533C18.07 19.2056 18.3216 19.1486 18.5707 19.0823C18.6953 19.0492 18.8193 19.0138 18.9425 18.976C19.0042 18.9572 19.0656 18.9377 19.1269 18.9176C19.1802 18.9002 19.2398 18.8819 19.2672 18.8285C19.2909 18.7824 19.2825 18.7313 19.2384 18.7022Z" fill="#D98A79"/>
<path d="M19.1715 20.6541C19.0535 20.689 18.9408 20.737 18.825 20.7782C18.7115 20.8186 18.5966 20.8548 18.4806 20.8873C18.2456 20.9532 18.0064 21.0037 17.7656 21.0429C17.2831 21.1214 16.7931 21.1556 16.3047 21.1697C15.3062 21.1983 14.3043 21.1221 13.3212 20.9457C13.0437 20.8959 12.7677 20.8376 12.4932 20.7741C12.3585 20.743 12.2239 20.7109 12.0898 20.6768C11.9538 20.6423 11.8181 20.6048 11.6784 20.5895C11.6587 20.5873 11.652 20.6174 11.6685 20.6261C11.7793 20.685 11.898 20.722 12.0174 20.7598C12.139 20.7982 12.2621 20.8326 12.3854 20.8653C12.6322 20.9306 12.8807 20.9875 13.1311 21.0372C13.6268 21.1357 14.1283 21.2085 14.6317 21.253C15.6268 21.3408 16.6426 21.3367 17.6329 21.1967C17.9028 21.1585 18.171 21.1073 18.4344 21.0376C18.5682 21.0022 18.7007 20.9621 18.8314 20.9166C18.9626 20.8708 19.0936 20.8238 19.2124 20.751C19.2625 20.7202 19.2304 20.6366 19.1715 20.6541Z" fill="#D98A79"/>
<path d="M19.0159 22.7125C19.0079 22.6733 18.9545 22.6722 18.9354 22.7019C18.9058 22.7479 18.841 22.7693 18.7911 22.7821C18.7073 22.8037 18.6229 22.8231 18.5385 22.8426C18.3645 22.8827 18.1898 22.9197 18.0144 22.9535C17.6644 23.0212 17.3119 23.0766 16.9578 23.1189C16.2459 23.2041 15.5279 23.2384 14.8111 23.2228C14.6111 23.2184 14.4103 23.2114 14.2112 23.1897C14.1124 23.179 14.0138 23.1639 13.9164 23.1439C13.8694 23.1342 13.8226 23.1234 13.7755 23.1138C13.7251 23.1035 13.6865 23.1011 13.6371 23.115C13.629 23.1173 13.628 23.1262 13.6326 23.1321C13.6599 23.167 13.6858 23.1867 13.7275 23.2037C13.7688 23.2205 13.8124 23.2333 13.8554 23.2451C13.9459 23.2696 14.0378 23.289 14.1305 23.3033C14.3157 23.332 14.5021 23.3451 14.6894 23.3515C15.0599 23.364 15.4308 23.362 15.8011 23.3463C16.5423 23.3149 17.2814 23.229 18.0101 23.0903C18.2148 23.0513 18.4186 23.0081 18.6215 22.9607C18.7109 22.9398 18.8061 22.9248 18.8916 22.8906C18.9709 22.8589 19.0345 22.8051 19.0159 22.7125Z" fill="#D98A79"/>
<path d="M18.4117 24.3467C18.3966 24.3307 18.3636 24.3372 18.3595 24.3605C18.3519 24.4035 18.3026 24.4304 18.2662 24.4466C18.2052 24.4738 18.1362 24.4869 18.0719 24.5043C17.9264 24.5436 17.78 24.5797 17.6329 24.6127C17.3385 24.6786 17.0416 24.7309 16.7428 24.7723C16.141 24.8557 15.5311 24.8841 14.9241 24.8612C14.755 24.8548 14.5861 24.8441 14.4174 24.8314C14.2527 24.819 14.0798 24.7878 13.9158 24.8168C13.9004 24.8196 13.8973 24.8442 13.9113 24.8509C14.0497 24.9173 14.2112 24.9284 14.3621 24.9446C14.5227 24.9618 14.6836 24.974 14.8449 24.982C15.1619 24.9977 15.4796 24.9991 15.7967 24.9861C16.4343 24.9599 17.0692 24.8768 17.6915 24.7357C17.8669 24.696 18.0412 24.6516 18.2143 24.6028C18.2816 24.5838 18.3497 24.5632 18.4003 24.512C18.4465 24.465 18.4592 24.3969 18.4117 24.3467Z" fill="#D98A79"/>
<path d="M10.5377 20.3204C10.5276 20.3056 10.525 20.2951 10.5105 20.2833C10.4986 20.2734 10.4848 20.2656 10.4711 20.2582C10.4402 20.2413 10.4075 20.2269 10.3753 20.2124C10.3148 20.1854 10.2544 20.1583 10.1937 20.1315C10.133 20.1047 10.0723 20.0778 10.0109 20.0529C9.98044 20.0405 9.94995 20.027 9.91826 20.0181C9.88408 20.0085 9.84902 20.0081 9.81377 20.0073C9.79691 20.007 9.78885 20.0283 9.8002 20.04C9.82303 20.0635 9.8458 20.0882 9.87373 20.1056C9.90368 20.1243 9.93672 20.1382 9.96862 20.153C10.0288 20.1808 10.09 20.2066 10.1511 20.2325C10.2122 20.2583 10.2732 20.2841 10.3343 20.3097C10.3646 20.3225 10.3952 20.3355 10.4264 20.3462C10.4438 20.3522 10.4625 20.3587 10.4809 20.3604C10.4976 20.362 10.5079 20.3565 10.524 20.354C10.5383 20.352 10.5455 20.3316 10.5377 20.3204Z" fill="#D98A79"/>
<path d="M11.0048 18.4434C11.0064 18.4484 11.0056 18.4466 11.0022 18.4378C10.9998 18.434 10.9971 18.4304 10.9942 18.427C10.9911 18.4235 10.9876 18.42 10.9841 18.4169C10.9743 18.4083 10.9622 18.4006 10.9513 18.3935C10.9332 18.3817 10.9142 18.3711 10.8952 18.3607C10.8762 18.3503 10.857 18.3403 10.8373 18.3312C10.8249 18.3254 10.812 18.3202 10.7991 18.3152C10.7871 18.3105 10.7762 18.3108 10.7652 18.3134C10.7551 18.3114 10.7451 18.3095 10.7347 18.3091C10.721 18.3085 10.709 18.3265 10.7179 18.3383C10.7243 18.3469 10.7314 18.3544 10.7388 18.3618C10.7477 18.3855 10.7746 18.4002 10.7955 18.4124C10.8142 18.4235 10.8333 18.4335 10.8527 18.4434C10.8738 18.4542 10.8954 18.4647 10.9175 18.4735C10.9373 18.4814 10.9578 18.4897 10.9781 18.4863C10.9786 18.4864 10.9792 18.4864 10.9798 18.4864C11.0038 18.4914 11.0243 18.4621 11.0048 18.4434Z" fill="#D98A79"/>
<path d="M24.504 6.34809C24.439 6.31565 24.3682 6.29665 24.2957 6.29228C24.2214 6.28778 24.1484 6.2951 24.077 6.31706C24.0172 6.33546 23.9359 6.37971 23.9326 6.44975C23.9322 6.45956 23.9416 6.46614 23.9497 6.46862C23.9792 6.47776 24.0038 6.47003 24.0326 6.46224C24.0609 6.45459 24.0896 6.44808 24.118 6.44069C24.1703 6.42712 24.2277 6.42444 24.279 6.43062C24.3359 6.43747 24.3883 6.4515 24.4387 6.47521C24.4664 6.4883 24.4883 6.50522 24.5146 6.51885C24.5401 6.53208 24.5706 6.55142 24.5993 6.55458C24.6282 6.55774 24.6539 6.53746 24.6518 6.5069C24.6469 6.43176 24.5641 6.3781 24.504 6.34809Z" fill="#D68043"/>
<path d="M26.3362 6.25023C26.3102 6.22942 26.2684 6.22331 26.2359 6.22055C26.1968 6.21713 26.1616 6.22062 26.1233 6.22841C26.0488 6.24352 25.9757 6.26541 25.9072 6.29865C25.8724 6.31551 25.8377 6.33787 25.8086 6.36318C25.7864 6.38252 25.7557 6.42154 25.7743 6.45142C25.7932 6.48191 25.8552 6.46062 25.8789 6.45042C25.9017 6.44061 25.9252 6.43296 25.9482 6.42389C25.9917 6.40683 26.0346 6.39018 26.08 6.37856C26.1209 6.36809 26.1627 6.36406 26.2043 6.35801C26.2235 6.35519 26.2431 6.35177 26.2625 6.35278C26.2784 6.35358 26.2943 6.3562 26.3111 6.35479C26.3385 6.35869 26.3705 6.36547 26.3797 6.33015C26.387 6.30208 26.3566 6.26655 26.3362 6.25023Z" fill="#D68043"/>
<path d="M24.5667 6.71928C24.5492 6.66898 24.5049 6.63453 24.4518 6.63198C24.4001 6.62949 24.3484 6.65951 24.3288 6.70873C24.3206 6.72935 24.3139 6.74997 24.3122 6.77199L24.307 6.84149C24.3034 6.88958 24.2995 6.93772 24.2961 6.98587C24.2893 7.02543 24.2989 7.06316 24.3203 7.09641C24.3447 7.13441 24.3886 7.15449 24.4322 7.15657C24.4727 7.15852 24.507 7.14623 24.5369 7.11883C24.5719 7.08667 24.5853 7.04718 24.5843 7.00004C24.5833 6.95169 24.5819 6.90334 24.5806 6.85499L24.5788 6.78515C24.5784 6.76252 24.5743 6.74077 24.5667 6.71928Z" fill="#764B26"/>
<path d="M26.0842 6.75932C26.0667 6.70909 26.0223 6.67457 25.9692 6.67202C25.9175 6.66953 25.8658 6.69948 25.8463 6.74877C25.8381 6.76939 25.8314 6.79001 25.8297 6.81203L25.8245 6.88153C25.8209 6.92968 25.8171 6.97776 25.8137 7.02591C25.8068 7.06547 25.8165 7.10327 25.8379 7.13644C25.8623 7.17445 25.9062 7.19453 25.9497 7.19661C25.9902 7.19856 26.0246 7.18627 26.0545 7.15887C26.0895 7.12671 26.1029 7.08722 26.1019 7.04008C26.1008 6.99173 26.0994 6.94338 26.0982 6.89503L26.0964 6.82519C26.0958 6.80256 26.0916 6.78087 26.0842 6.75932Z" fill="#764B26"/>
<path d="M25.3275 7.60459C25.3202 7.60157 25.3127 7.59761 25.3049 7.5962C25.2953 7.59445 25.285 7.5962 25.2753 7.5962C25.2726 7.5962 25.2697 7.596 25.267 7.59613C25.263 7.59573 25.2592 7.59627 25.2554 7.59775C25.2535 7.59815 25.2533 7.59822 25.2521 7.59848C25.2499 7.59882 25.247 7.59929 25.2462 7.59942C25.2427 7.60003 25.2393 7.6005 25.2358 7.60097C25.2225 7.60265 25.2093 7.60312 25.1959 7.60298C25.1958 7.60298 25.196 7.60298 25.1958 7.60292C25.1923 7.60245 25.1888 7.60231 25.1853 7.60191C25.1783 7.6011 25.1713 7.60003 25.1644 7.59869C25.1513 7.59613 25.1381 7.59385 25.1251 7.5911C25.1183 7.58969 25.1117 7.5876 25.1049 7.58606C25.1043 7.58593 25.1047 7.58606 25.1043 7.58599C25.1037 7.58573 25.1039 7.58579 25.1028 7.58539C25.1001 7.58445 25.0975 7.58344 25.0949 7.58244C25.0799 7.57659 25.065 7.57444 25.0495 7.57055C25.0371 7.56739 25.0243 7.56934 25.0124 7.56531C25.0084 7.56397 25.0019 7.56632 25.0031 7.57182C25.006 7.58526 25.0044 7.59875 25.0109 7.61118C25.0193 7.62729 25.0283 7.64455 25.0425 7.6563C25.0704 7.67927 25.1049 7.69834 25.1401 7.70646C25.2026 7.7209 25.3166 7.72648 25.3449 7.65355C25.3518 7.63575 25.3469 7.61259 25.3275 7.60459Z" fill="#E4B09E"/>
<path d="M25.5154 8.36639C25.5098 8.34866 25.4988 8.33933 25.4847 8.32765C25.4701 8.31563 25.4582 8.30031 25.4418 8.29078C25.4113 8.27305 25.3763 8.26137 25.343 8.25042C25.2696 8.22631 25.1954 8.21825 25.1181 8.22061C25.0491 8.22269 24.9713 8.23142 24.907 8.25767C24.8758 8.27043 24.8347 8.28729 24.8124 8.31307C24.8037 8.32315 24.7808 8.35719 24.7963 8.37062C24.8137 8.38567 24.8388 8.38855 24.8608 8.38614C24.892 8.38271 24.9255 8.37425 24.9562 8.36753C25.0164 8.35444 25.0783 8.34766 25.14 8.35028C25.1977 8.35269 25.2573 8.3631 25.3135 8.37579C25.3444 8.38278 25.3747 8.39722 25.4055 8.40286C25.4195 8.40541 25.4327 8.40427 25.4468 8.40803C25.4652 8.41293 25.4767 8.41454 25.4953 8.41018C25.5137 8.40588 25.5204 8.38211 25.5154 8.36639Z" fill="#E4B09E"/>
<path d="M9.17748 4.82842C9.13007 4.78753 9.07984 4.75476 9.04109 4.70412C8.99798 4.64772 8.97663 4.57821 8.95997 4.51019C8.92485 4.36662 8.89376 4.226 8.83312 4.09028C8.77806 3.96699 8.70419 3.81603 8.59742 3.72927C8.54168 3.68394 8.47144 3.6687 8.40214 3.65829C8.38347 3.65547 8.36191 3.65091 8.33948 3.64667C8.32961 3.63291 8.31551 3.62216 8.29684 3.61928C8.13903 3.59483 7.9825 3.52828 7.821 3.53869C7.69254 3.54702 7.57381 3.59893 7.45952 3.65467C7.33905 3.71336 7.22818 3.77326 7.09354 3.7926C6.93371 3.8155 6.78128 3.7329 6.62052 3.75398C6.38931 3.78434 6.24157 3.98788 6.08215 4.13507C5.98693 4.22304 5.88862 4.28301 5.75841 4.30114C5.61578 4.32095 5.46872 4.31531 5.34059 4.39146C5.19648 4.47708 5.1075 4.62206 4.98824 4.73522C4.86468 4.85253 4.71755 4.93808 4.58244 5.03989C4.57968 5.04197 4.58136 5.0466 4.58465 5.0468C4.88523 5.06514 5.09589 4.84232 5.28082 4.6406C5.33025 4.58668 5.38437 4.53436 5.45159 4.50354C5.52224 4.47111 5.60268 4.46526 5.67904 4.45781C5.81133 4.44492 5.93274 4.42229 6.04529 4.34835C6.2309 4.22647 6.35916 3.99775 6.57163 3.91952C6.71721 3.86586 6.86267 3.94396 7.00919 3.94947C7.06977 3.95175 7.13108 3.94497 7.1897 3.92999C7.25893 3.91226 7.31554 3.87613 7.38169 3.85277C7.51727 3.80495 7.63693 3.72289 7.78044 3.69516C7.94107 3.66413 8.09035 3.74324 8.24802 3.74767C8.28993 3.76023 8.33767 3.76379 8.37501 3.77151C8.45398 3.7879 8.51086 3.81268 8.56102 3.87781C8.64986 3.99332 8.71634 4.13205 8.76228 4.26985C8.80868 4.40906 8.81848 4.56028 8.87919 4.69472C8.92559 4.7976 9.03324 4.93184 9.16264 4.89699C9.19581 4.88805 9.20266 4.85018 9.17748 4.82842Z" fill="#512C2B"/>
<path d="M8.27554 8.42976C8.21765 8.4585 8.17937 8.51471 8.13324 8.55849C8.07992 8.60913 8.02163 8.65385 7.95945 8.69313C7.84153 8.76761 7.71152 8.8218 7.57742 8.8594C7.41901 8.90379 7.25475 8.92085 7.09056 8.9191C7.00575 8.91816 6.92201 8.91024 6.83767 8.90245C6.76588 8.8958 6.68255 8.87606 6.61412 8.90339C6.60263 8.90795 6.59666 8.92212 6.6066 8.93186C6.66133 8.98585 6.7501 8.99673 6.82336 9.00848C6.91133 9.02258 7.00165 9.02943 7.09063 9.03212C7.26912 9.03756 7.45023 9.02124 7.62295 8.97491C7.76766 8.93609 7.90667 8.87317 8.03083 8.7893C8.13546 8.71872 8.30549 8.60409 8.32946 8.47126C8.3353 8.43916 8.30535 8.41492 8.27554 8.42976Z" fill="#CF644E"/>
<path d="M9.66013 6.36009C9.66127 6.27239 9.63165 6.18435 9.56987 6.12082C9.53717 6.08718 9.49876 6.06066 9.45551 6.04239C9.43194 6.03238 9.40931 6.02553 9.38353 6.02943C9.37318 6.03097 9.36009 6.03245 9.35055 6.03708C9.34209 6.04118 9.33108 6.05367 9.3333 6.06388C9.33793 6.08503 9.35546 6.09403 9.37191 6.10598C9.38702 6.117 9.40797 6.12344 9.4218 6.1313C9.45538 6.1503 9.47835 6.17092 9.50077 6.20174C9.50803 6.21175 9.50588 6.20852 9.51165 6.21913C9.51588 6.22692 9.51971 6.23485 9.5232 6.24297C9.52918 6.25714 9.53402 6.2736 9.53724 6.29475C9.53784 6.29871 9.53838 6.30261 9.53878 6.30657C9.53872 6.30576 9.53925 6.31322 9.53959 6.31657C9.53959 6.32007 9.53972 6.32712 9.53972 6.32631C9.53966 6.33027 9.53952 6.33423 9.53932 6.3382C9.53878 6.34813 9.53778 6.35801 9.53623 6.36781C9.5363 6.36727 9.53469 6.37553 9.53422 6.37835C9.53402 6.37923 9.53395 6.37929 9.53368 6.38057C9.53106 6.38789 9.52978 6.39534 9.52978 6.40293C9.5279 6.42455 9.523 6.44913 9.53321 6.46914C9.54671 6.49574 9.57505 6.50447 9.60197 6.49177C9.62494 6.48096 9.63985 6.45195 9.64945 6.42932C9.65825 6.40857 9.65986 6.38245 9.66013 6.36009Z" fill="#CF644E"/>
<path d="M9.43064 6.61077C9.43064 6.61118 9.43071 6.61151 9.43071 6.61191C9.43064 6.61111 9.43071 6.61037 9.43071 6.60956C9.43064 6.60889 9.43091 6.60829 9.43084 6.60755C9.43078 6.60721 9.43078 6.60688 9.43078 6.60654C9.43078 6.60594 9.43078 6.60533 9.43078 6.60473C9.43145 6.59318 9.43017 6.58203 9.42527 6.57142C9.42326 6.56706 9.42138 6.56269 9.41956 6.55833C9.41889 6.55564 9.41802 6.55302 9.41755 6.55027C9.4158 6.54013 9.41244 6.53066 9.40915 6.52092C9.41077 6.52576 9.41231 6.53066 9.41392 6.5355C9.41144 6.52771 9.40956 6.51978 9.40868 6.51166C9.40741 6.50024 9.40271 6.49057 9.39901 6.47989L9.40264 6.49104C9.40036 6.48406 9.39875 6.47694 9.39532 6.47042C9.39378 6.46754 9.3925 6.46458 9.39149 6.46149C9.38813 6.45135 9.37524 6.44719 9.36584 6.44847C9.34905 6.45075 9.33468 6.45847 9.323 6.47063C9.31467 6.47929 9.30755 6.48641 9.30406 6.49843C9.30191 6.50581 9.30043 6.51347 9.29902 6.52106C9.29761 6.52844 9.29688 6.53597 9.29688 6.54349C9.29694 6.559 9.29815 6.56733 9.30346 6.58176C9.30467 6.58499 9.30594 6.58821 9.30735 6.5913C9.31219 6.60171 9.31863 6.61144 9.32515 6.62078C9.3273 6.62387 9.32958 6.62682 9.33206 6.62964C9.33582 6.63387 9.34059 6.63831 9.34516 6.64166C9.35369 6.64791 9.36322 6.64992 9.37329 6.6516C9.37894 6.65254 9.38464 6.65281 9.39035 6.65254C9.40284 6.65201 9.41265 6.64959 9.42138 6.64005C9.42896 6.63172 9.43138 6.62172 9.43064 6.61077Z" fill="#CF644E"/>
<path d="M6.00657 5.38356C5.92921 5.28035 5.76301 5.27941 5.64663 5.28693C5.53348 5.29425 5.36352 5.30909 5.31765 5.43285C5.3145 5.44145 5.31738 5.45394 5.32578 5.45877C5.37816 5.48919 5.4445 5.49148 5.50346 5.48181C5.55698 5.47308 5.60574 5.46764 5.65603 5.46764C5.71137 5.46764 5.76697 5.46992 5.8221 5.47435C5.87918 5.47899 5.9372 5.47852 5.99092 5.45669C6.02074 5.44454 6.02376 5.40639 6.00657 5.38356Z" fill="#6B393B"/>
<path d="M7.62108 4.82474C7.55835 4.81863 7.49886 4.83186 7.43976 4.85181C7.38571 4.87001 7.33608 4.89196 7.28793 4.92272C7.23817 4.95455 7.19049 4.98887 7.14611 5.02788C7.122 5.0491 7.09903 5.07059 7.0807 5.09711C7.0717 5.11014 7.06042 5.12404 7.05491 5.13902C7.0484 5.15681 7.05129 5.17615 7.05229 5.19455C7.05323 5.21235 7.07566 5.23263 7.09366 5.23176C7.10622 5.23115 7.11958 5.23229 7.13187 5.22974C7.15148 5.22571 7.16686 5.21195 7.18304 5.201C7.2054 5.18576 7.22521 5.16917 7.2461 5.15205C7.26671 5.13512 7.288 5.11901 7.30982 5.10376C7.31526 5.09994 7.32077 5.09617 7.32634 5.09248C7.32742 5.09174 7.33212 5.08872 7.33454 5.08718C7.34501 5.0806 7.35562 5.07415 7.3663 5.0679C7.41109 5.04192 7.45628 5.01546 7.50255 4.99216C7.55265 4.96697 7.60207 4.9424 7.64881 4.91124C7.68608 4.88639 7.65989 4.8285 7.62108 4.82474Z" fill="#6B393B"/>
<path d="M6.07173 6.02978C6.07267 6.01534 6.07227 5.99748 6.06985 5.98331C6.0675 5.96968 6.06112 5.95457 6.05642 5.94161C6.05165 5.92851 6.04662 5.91549 6.04178 5.90239C6.03225 5.87694 6.02305 5.85136 6.01311 5.82611C6.00478 5.80704 5.99249 5.79125 5.97638 5.77876C5.96234 5.76365 5.94535 5.75284 5.92534 5.74633C5.91157 5.74331 5.89788 5.74029 5.88411 5.73726C5.86262 5.73465 5.84207 5.73753 5.8226 5.74579C5.80903 5.74841 5.79688 5.75419 5.78634 5.76312C5.76834 5.77279 5.7537 5.78635 5.74228 5.80381C5.72039 5.83806 5.70575 5.88265 5.7165 5.92334C5.7263 5.96061 5.73617 5.99788 5.74598 6.03515C5.75088 6.05382 5.75578 6.07242 5.76075 6.09109C5.76189 6.09539 5.76297 6.09969 5.76417 6.10398C5.7672 6.12393 5.77479 6.14172 5.78687 6.1573C5.7911 6.16382 5.79527 6.17033 5.79956 6.17684C5.81514 6.19833 5.83576 6.21337 5.85893 6.22351C5.86645 6.22855 5.87424 6.23278 5.8823 6.23533C5.91211 6.24474 5.94629 6.24608 5.9747 6.2309C5.99041 6.22251 6.0029 6.21143 6.01358 6.1986C6.0262 6.18752 6.03628 6.17463 6.04272 6.15925C6.05306 6.14293 6.05871 6.12487 6.05958 6.10506C6.06018 6.1023 6.06072 6.09948 6.06132 6.09673C6.06314 6.08713 6.0632 6.07739 6.0626 6.06772C6.06723 6.05543 6.07093 6.04287 6.07173 6.02978Z" fill="#6B393B"/>
<path d="M7.50044 5.74616C7.50138 5.73179 7.50098 5.71386 7.49856 5.69969C7.49621 5.68605 7.48983 5.67095 7.48513 5.65798C7.48037 5.64489 7.47533 5.63186 7.47049 5.61877C7.46096 5.59332 7.45176 5.56773 7.44182 5.54248C7.43349 5.52341 7.4212 5.50763 7.40509 5.49514C7.39105 5.48003 7.37406 5.46922 7.35405 5.46264C7.34029 5.45962 7.32659 5.45659 7.31282 5.45357C7.29126 5.45095 7.27078 5.45384 7.25131 5.4621C7.23774 5.46472 7.22566 5.4705 7.21505 5.47943C7.19705 5.4891 7.18241 5.50266 7.17099 5.52012C7.1491 5.55437 7.13446 5.59896 7.14521 5.63965C7.15501 5.67692 7.16488 5.71419 7.17469 5.75146C7.17959 5.77013 7.18449 5.78873 7.18946 5.8074C7.1906 5.8117 7.19168 5.816 7.19289 5.82029C7.19591 5.84024 7.2035 5.85803 7.21558 5.87368C7.21981 5.88019 7.22398 5.88671 7.22828 5.89315C7.24385 5.91464 7.26447 5.92975 7.28764 5.93982C7.29516 5.94486 7.30295 5.94909 7.31107 5.95171C7.34082 5.96111 7.37507 5.96245 7.40348 5.94728C7.41926 5.93888 7.43168 5.9278 7.44236 5.91498C7.45498 5.9039 7.46505 5.891 7.4715 5.87563C7.48184 5.85931 7.48748 5.84124 7.48836 5.82143C7.48896 5.81868 7.4895 5.81586 7.4901 5.81311C7.49192 5.8035 7.49198 5.79377 7.49138 5.7841C7.49594 5.77181 7.49964 5.75918 7.50044 5.74616Z" fill="#6B393B"/>
<path d="M6.89313 6.63932C6.87741 6.64255 6.86002 6.64194 6.84518 6.64819C6.83907 6.65081 6.83309 6.6539 6.82692 6.65638C6.82349 6.65779 6.81993 6.65907 6.81644 6.66041C6.81584 6.66068 6.8157 6.66075 6.81523 6.66088C6.81402 6.66128 6.81275 6.66169 6.81067 6.66236C6.80254 6.66504 6.79495 6.66847 6.78709 6.67169C6.78307 6.67337 6.77904 6.67485 6.77494 6.67639C6.76064 6.68022 6.7466 6.68391 6.73196 6.68606C6.72531 6.68707 6.7186 6.68747 6.71188 6.68828C6.71168 6.68828 6.71188 6.68828 6.71168 6.68835C6.71128 6.68835 6.71148 6.68835 6.71101 6.68835C6.70725 6.68835 6.70349 6.68835 6.69973 6.68835C6.68234 6.68855 6.66602 6.69291 6.6489 6.69486C6.64547 6.69526 6.64205 6.6956 6.63855 6.6958C6.63708 6.6958 6.6356 6.69587 6.63412 6.69587C6.62687 6.6958 6.61955 6.69533 6.61223 6.69526C6.60041 6.6952 6.57832 6.70117 6.57577 6.71521C6.56925 6.75087 6.62015 6.77188 6.6456 6.78377C6.66286 6.79183 6.68026 6.79807 6.69959 6.79854C6.71873 6.79901 6.73814 6.79801 6.75714 6.79566C6.79106 6.79149 6.83048 6.78283 6.85928 6.76409C6.87359 6.75483 6.88802 6.74509 6.90031 6.7332C6.91489 6.71917 6.92153 6.69835 6.92697 6.67921C6.93308 6.65806 6.91703 6.63442 6.89313 6.63932Z" fill="#CF644E"/>
<path d="M7.14085 7.26532C7.09035 7.24618 7.02796 7.25236 6.97465 7.25524C6.92079 7.25813 6.86626 7.26498 6.81442 7.28016C6.76842 7.29365 6.72658 7.31279 6.68858 7.34214C6.65399 7.36887 6.61605 7.39868 6.62834 7.44696C6.62975 7.4524 6.63459 7.45516 6.63969 7.45563C6.65936 7.45751 6.67568 7.45576 6.69287 7.44535C6.71067 7.43454 6.72766 7.42326 6.74686 7.41487C6.78118 7.39989 6.81751 7.3874 6.85404 7.37941C6.89675 7.37007 6.94053 7.36759 6.98418 7.36766C7.03629 7.36772 7.09001 7.37827 7.14092 7.36497C7.19363 7.35107 7.18584 7.28237 7.14085 7.26532Z" fill="#CF644E"/>
<path d="M8.91135 9.22044C8.82815 9.27349 8.75603 9.34077 8.67041 9.39134C8.5815 9.44385 8.48674 9.48441 8.3887 9.51665C8.18557 9.5834 7.97142 9.61791 7.75955 9.64309C7.52452 9.67103 7.28686 9.676 7.05049 9.66452C6.93821 9.65908 6.8268 9.64538 6.71533 9.63221C6.60097 9.61878 6.47372 9.57366 6.35909 9.58313C6.32759 9.58575 6.30409 9.62563 6.33128 9.65028C6.4167 9.72777 6.55463 9.75987 6.66335 9.79009C6.77993 9.82252 6.8996 9.83931 7.01987 9.85147C7.28008 9.87772 7.54104 9.85838 7.79917 9.82044C8.02527 9.7872 8.24997 9.73355 8.46123 9.64531C8.64274 9.5695 8.87025 9.45708 8.97051 9.2796C8.99113 9.24313 8.94882 9.19646 8.91135 9.22044Z" fill="#455368"/>
<path d="M1.97836 23.8474C1.90779 23.8171 1.83613 23.8235 1.76119 23.8347C1.67007 23.8484 1.58089 23.8627 1.48855 23.8666C1.30677 23.8743 1.12492 23.8577 0.948042 23.8148C0.790033 23.7764 0.63538 23.7212 0.497382 23.6342C0.428349 23.5907 0.373956 23.5406 0.324397 23.4761C0.303311 23.4486 0.258521 23.3915 0.218632 23.4299C0.216618 23.4318 0.214603 23.4338 0.212589 23.4357C0.198016 23.4497 0.193249 23.4712 0.198151 23.4904C0.232398 23.6251 0.371337 23.7368 0.486168 23.8031C0.637194 23.8903 0.808432 23.9486 0.977925 23.9867C1.1546 24.0264 1.33739 24.0443 1.51837 24.0375C1.66899 24.0318 1.89382 24.0336 1.99206 23.8993C2.00307 23.8842 1.99589 23.8549 1.97836 23.8474Z" fill="#455368"/>
</svg>
