<svg width="36" height="36" viewBox="0 0 36 36" fill="none" xmlns="http://www.w3.org/2000/svg">
<g clip-path="url(#clip0_2147_7292)">
<rect width="36" height="36" rx="18" fill="white"/>
<path d="M16.1791 27.9209C16.1791 27.9209 19.8015 26.6387 17.3716 23.7594C14.9418 20.8802 9.34069 22.2143 8.469 22.9646C6.55009 24.6165 7.57947 25.8831 7.57947 25.8831C7.57947 25.8831 10.5134 28.8941 16.1791 27.9209Z" fill="#FFAE0B"/>
<path d="M16.2557 25.1629C16.2991 25.1625 16.341 25.1388 16.3625 25.0974C16.3935 25.038 16.3702 24.9647 16.3108 24.9339C16.2123 24.8826 13.8723 23.6826 11.426 23.9183C11.3593 23.9248 11.3105 23.984 11.317 24.0507C11.3235 24.1174 11.3826 24.1662 11.4493 24.1597C13.8236 23.9313 16.1755 25.1367 16.199 25.1491C16.2172 25.1586 16.2367 25.1631 16.2557 25.1629Z" fill="#F28900"/>
<path d="M12.876 24.1814C12.9115 24.1812 12.9465 24.1654 12.9702 24.1354C13.3539 23.6508 14.562 23.4329 14.5742 23.4307C14.6401 23.4192 14.6842 23.3561 14.6727 23.2903C14.6609 23.2244 14.5979 23.1802 14.5322 23.1918C14.4789 23.2011 13.2211 23.4279 12.7801 23.9846C12.7386 24.0371 12.7473 24.1135 12.8 24.155C12.8225 24.1731 12.8494 24.1816 12.876 24.1814Z" fill="#F28900"/>
<path d="M3.52462 27.0141C4.21938 25.0675 9.27688 24.0552 9.27688 24.0552L12.619 24.1253C12.619 24.1253 14.4045 25.1419 16.8467 27.1857C16.8467 27.1857 17.6017 28.6271 17.2652 30.5025C16.9393 32.3184 16.3299 33.9887 15.9349 35.3573L2.00781 35.3571L3.52462 27.0141Z" fill="#FFAE0B"/>
<path d="M15.7107 35.3655H15.4606L14.4227 32.4558C14.4012 32.394 14.4332 32.3271 14.4944 32.3053C14.5557 32.2834 14.6225 32.3152 14.6446 32.3764L15.7107 35.3655Z" fill="#F28900"/>
<path d="M15.0357 33.923C15.0163 33.923 14.9964 33.9182 14.978 33.9078L13.9964 33.355C13.9399 33.3232 13.9198 33.2512 13.9516 33.1947C13.9837 33.1381 14.0552 33.1181 14.112 33.1499L15.0937 33.7027C15.1502 33.7348 15.1703 33.8065 15.1385 33.8631C15.1168 33.9016 15.0769 33.923 15.0357 33.923Z" fill="#F28900"/>
<path d="M11.2866 28.4367C9.32741 28.3437 7.57348 27.0768 7.48694 27.0136C7.43627 26.9765 7.42532 26.9054 7.46241 26.8547C7.4995 26.804 7.57064 26.7929 7.62131 26.8302C7.64543 26.8478 10.0639 28.5933 12.3053 28.1374C12.3671 28.125 12.4269 28.1647 12.4392 28.2261C12.4518 28.2875 12.4121 28.3477 12.3505 28.3601C11.9952 28.4322 11.6375 28.4533 11.2866 28.4367Z" fill="#F28900"/>
<path d="M10.6534 35.3682C11.3182 31.1057 12.1834 27.684 12.1978 27.6274C12.2144 27.5626 12.1751 27.4965 12.1103 27.4799C12.0454 27.4633 11.9793 27.5026 11.9627 27.5674C11.9481 27.6244 11.0758 31.0747 10.4082 35.3682H10.6534Z" fill="white"/>
<path d="M6.43058 35.3573C7.10163 30.9321 8.01467 27.3213 8.02946 27.2631C8.04608 27.1982 8.00676 27.1322 7.94191 27.1156C7.87705 27.0991 7.81098 27.1383 7.79436 27.2031C7.77936 27.2617 6.85923 30.9013 6.18555 35.3573H6.43058Z" fill="white"/>
<path d="M10.5188 27.2124C10.7839 27.2104 11.0612 27.1862 11.3506 27.1396C12.5709 26.9432 13.5563 26.4269 13.5976 26.405C13.6568 26.3736 13.6795 26.3002 13.6481 26.241C13.6167 26.1818 13.5433 26.1591 13.4841 26.1906C13.4744 26.1958 12.4882 26.712 11.3064 26.9009C9.74868 27.15 8.60418 26.7416 7.90516 25.6871C7.86807 25.6312 7.79288 25.616 7.73694 25.6531C7.68101 25.6902 7.66581 25.7654 7.7029 25.8213C8.3176 26.7489 9.28192 27.2217 10.5188 27.2124Z" fill="#F28900"/>
<path d="M9.82154 26.6248C11.3424 26.8745 12.8428 25.6773 12.8428 25.6773C12.6203 24.7396 12.6075 23.6296 12.6863 22.8113C12.7258 22.3976 12.7721 22.1265 12.7721 22.1265L8.73461 23.6428L8.59537 25.1541L8.56153 25.5235C8.56153 25.5235 8.54977 26.416 9.82154 26.6248Z" fill="#FDA66F"/>
<path d="M8.59082 25.1538C10.6392 25.0063 12.1325 23.4647 12.7043 22.594C12.7438 22.1804 12.7673 22.1265 12.7673 22.1265L8.72985 23.6428L8.59082 25.1538Z" fill="#291C2A"/>
<path d="M7.07465 17.6404C7.07465 17.6404 6.81502 16.621 5.81888 16.7655C4.82275 16.91 4.61825 20.9825 7.06046 20.8133L7.07465 17.6404Z" fill="#FC804D"/>
<path d="M5.95136 21.0502C6.30482 23.0063 7.53728 24.4235 9.62116 24.1882C14.1734 23.6733 14.838 17.2839 14.838 17.2839C15.1574 13.9886 12.5488 12.3501 9.42923 12.9276C6.30989 13.5058 6.00892 15.4843 5.82206 17.02C5.76612 17.4797 5.71241 18.3833 5.76672 19.4113C5.77564 19.5722 5.78618 19.7357 5.80077 19.9017C5.81841 20.1048 5.84009 20.3103 5.86745 20.5166C5.89117 20.6941 5.91853 20.8727 5.95136 21.0502Z" fill="#FDA66F"/>
<path d="M8.45857 22.3067C8.82347 22.3067 9.11928 22.0109 9.11928 21.646C9.11928 21.2812 8.82347 20.9854 8.45857 20.9854C8.09367 20.9854 7.79785 21.2812 7.79785 21.646C7.79785 22.0109 8.09367 22.3067 8.45857 22.3067Z" fill="white"/>
<path d="M8.83402 22.6627C8.87678 22.6757 8.90961 22.7136 8.91326 22.761C8.91833 22.8226 8.87232 22.8765 8.8107 22.8814C8.3405 22.9191 8.08838 22.8255 8.07784 22.8214C8.02008 22.7993 7.9913 22.7347 8.01319 22.6771C8.03508 22.6196 8.09973 22.5904 8.15708 22.6123C8.16154 22.6139 8.38124 22.6915 8.79287 22.6587C8.80706 22.6572 8.82104 22.6589 8.83402 22.6627Z" fill="#FC804D"/>
<path d="M7.74039 17.5218C7.77464 17.4952 7.80179 17.4588 7.81699 17.4148C7.85834 17.2946 7.7945 17.1637 7.67432 17.1223C7.63338 17.1084 7.2641 16.989 6.8843 17.1286C6.48665 17.2748 6.29209 17.4955 6.27121 17.5202C6.18913 17.6173 6.20129 17.7624 6.29837 17.8444C6.39484 17.9259 6.53894 17.9146 6.62123 17.8189C6.6267 17.8128 6.76411 17.6631 7.04299 17.5605C7.27383 17.4756 7.52211 17.5565 7.52454 17.5573C7.60054 17.5838 7.681 17.5678 7.74039 17.5218Z" fill="#291C2A"/>
<path d="M9.89283 17.0601C9.86 17.0319 9.83446 16.9942 9.82169 16.9494C9.78622 16.8274 9.85655 16.6997 9.97856 16.6645C10.0201 16.6523 10.3946 16.5514 10.7674 16.7096C11.1573 16.875 11.3407 17.1052 11.3604 17.1308C11.4376 17.2317 11.4183 17.376 11.3174 17.4532C11.2171 17.5298 11.0736 17.5116 10.9962 17.4119C10.9911 17.4056 10.861 17.2491 10.5876 17.133C10.3614 17.0369 10.1093 17.1057 10.1069 17.1063C10.0294 17.1288 9.94978 17.1087 9.89283 17.0601Z" fill="#291C2A"/>
<path d="M14.7558 17.7161C14.7558 17.7161 14.1773 17.8657 13.835 18.346C13.835 18.346 13.5991 20.0034 12.8853 19.867C12.1715 19.7306 12.6925 18.5422 12.3908 18.0523C12.2015 17.7451 11.693 17.1807 11.723 16.249C11.723 16.249 13.9609 16.6112 14.7558 17.7161Z" fill="#291C2A"/>
<path d="M11.7318 16.2456C11.7318 16.2456 11.3759 15.1484 11.7306 14.7167C12.0852 14.2849 15.2356 16.0572 15.2356 16.0572C15.2356 16.0572 15.614 17.1864 14.7648 17.7127L11.7318 16.2456Z" fill="#291C2A"/>
<path d="M6.49208 16.437C6.49208 16.437 6.45054 16.9327 6.11532 17.3608C5.94203 17.5821 5.82225 17.8405 5.78354 18.1187L5.73631 18.4582C5.73631 18.4582 5.55796 17.0559 5.87636 16.5465L6.49208 16.437Z" fill="#291C2A"/>
<path d="M6.8445 14.9726L6.49348 16.4283L5.7373 16.9716C5.7373 16.9716 5.86843 15.281 6.23567 14.8301L6.8445 14.9726Z" fill="#291C2A"/>
<path d="M10.3116 19.6245C10.3073 19.7715 10.7013 19.9022 11.1918 19.9164C11.6822 19.9308 12.0833 19.8234 12.0876 19.6764C12.0918 19.5295 11.6978 19.399 11.2074 19.3846C10.7169 19.3702 10.3158 19.4776 10.3116 19.6245Z" fill="#FC804D"/>
<path d="M5.78816 19.8861C5.88828 19.9003 5.99752 19.9101 6.11244 19.9137C6.60291 19.9277 7.0044 19.8205 7.00845 19.6735C7.01271 19.527 6.61892 19.3963 6.12825 19.3817C5.99468 19.3777 5.86781 19.3829 5.75391 19.3957C5.76282 19.5566 5.77336 19.7202 5.78816 19.8861Z" fill="#FC804D"/>
<path d="M10.2514 18.6002C10.2437 18.8632 10.3537 19.0801 10.4972 19.0841C10.6407 19.0884 10.7633 18.8784 10.771 18.6154C10.7787 18.3523 10.6687 18.1355 10.5252 18.1314C10.3817 18.127 10.2591 18.3369 10.2514 18.6002Z" fill="#291C2A"/>
<path d="M7.03554 18.6469C7.02784 18.9099 7.13789 19.1268 7.28138 19.131C7.42487 19.1353 7.54749 18.9253 7.5552 18.6623C7.5629 18.3992 7.45284 18.1823 7.30935 18.1783C7.16586 18.1738 7.04324 18.3838 7.03554 18.6469Z" fill="#291C2A"/>
<path d="M8.78614 20.609C8.85343 20.597 8.90633 20.5403 8.91079 20.4691C8.91606 20.3854 8.85262 20.3135 8.76891 20.3082C8.63089 20.2995 8.51922 20.2847 8.44099 20.2717C8.50889 19.7679 8.71115 19.0831 8.71338 19.0756C8.7371 18.9953 8.69149 18.9108 8.61103 18.8871C8.53057 18.8634 8.44626 18.909 8.42255 18.9893C8.41221 19.0239 8.17022 19.8435 8.1236 20.3799C8.11732 20.4537 8.16475 20.5212 8.23629 20.5398C8.24419 20.5419 8.43511 20.5911 8.74986 20.6108C8.76223 20.6118 8.77439 20.611 8.78614 20.609Z" fill="#FC804D"/>
<path d="M13.8464 18.3517C13.8464 18.3517 14.3732 17.4413 15.2927 17.8511C16.212 18.2609 15.3022 22.2355 12.998 21.4093L13.8464 18.3517Z" fill="#FDA66F"/>
<path d="M14.0545 20.3616C14.1249 20.349 14.1786 20.288 14.1794 20.214C14.1928 19.1215 15.0511 18.6608 15.0598 18.6564C15.134 18.6176 15.1628 18.526 15.124 18.4517C15.0853 18.3775 14.9937 18.3485 14.9194 18.3874C14.8774 18.4093 13.8916 18.9385 13.876 20.2104C13.875 20.2941 13.9421 20.3628 14.0258 20.3638C14.0357 20.364 14.0452 20.3632 14.0545 20.3616Z" fill="#FC804D"/>
<path d="M14.9255 19.6876C14.9755 19.6787 15.0197 19.6449 15.04 19.5944C15.071 19.5166 15.0331 19.4284 14.9551 19.3974C14.9032 19.3768 14.4389 19.201 14.1067 19.3847C14.0333 19.4252 14.0068 19.5174 14.0473 19.5908C14.0878 19.6641 14.1798 19.6907 14.2534 19.6501C14.4293 19.5527 14.7459 19.6408 14.8428 19.6793C14.8701 19.6899 14.8987 19.6923 14.9255 19.6876Z" fill="#FC804D"/>
<path d="M6.23575 14.8407C6.23575 14.8407 4.72969 14.2042 4.27955 13.0318C3.63911 11.3638 5.23475 10.1083 5.23475 10.1083C5.23475 10.1083 5.23475 11.7039 6.29088 11.9133C6.29088 11.9133 5.11335 10.8146 6.49355 9.50684C6.49355 9.50684 7.12549 11.0232 8.03062 11.4948C8.03062 11.4948 7.4147 10.0561 8.76633 9.50684C8.76633 9.50684 8.69437 11.1547 9.94669 11.4948C11.199 11.8348 14.2057 11.7564 14.7689 12.9335C14.7689 12.9335 15.3194 12.4104 15.6483 12.6544C15.9772 12.8986 15.3238 13.4217 15.3238 13.4217C15.3238 13.4217 16.1692 13.2762 16.3611 13.7151C16.553 14.1541 15.5241 14.2064 15.5241 14.2064C15.5241 14.2064 15.536 15.9221 15.2859 16.9825C15.2859 16.9825 10.7473 15.0085 8.9163 15.4445C7.08475 15.8804 6.23575 14.8407 6.23575 14.8407Z" fill="#291C2A"/>
<path d="M6.05773 20.1896C5.32872 19.7948 5.05693 18.8804 5.45174 18.1514C5.84655 17.4225 6.76101 17.1507 7.49002 17.5455C8.21904 17.9405 8.49082 18.8547 8.09601 19.5837C7.70121 20.3129 6.78675 20.5846 6.05773 20.1896ZM7.41523 17.6835C6.76222 17.3298 5.94343 17.5732 5.58976 18.2262C5.2361 18.8792 5.47951 19.6982 6.13252 20.0518C6.78553 20.4055 7.60433 20.1621 7.9582 19.5091C8.31166 18.8561 8.06825 18.0371 7.41523 17.6835Z" fill="white"/>
<path d="M9.50402 20.1213C8.77501 19.7263 8.50322 18.8121 8.89803 18.0831C9.29304 17.3541 10.2073 17.0823 10.9363 17.4771C11.6653 17.8721 11.9371 18.7863 11.5423 19.5155C11.1475 20.2443 10.233 20.5163 9.50402 20.1213ZM10.8617 17.6151C10.2087 17.2615 9.38992 17.5049 9.03605 18.1579C8.68239 18.8109 8.9258 19.6296 9.57881 19.9835C10.2318 20.3371 11.0508 20.0937 11.4045 19.4407C11.7582 18.7878 11.5145 17.9688 10.8617 17.6151Z" fill="white"/>
<path d="M11.46 18.0693L11.5487 18.246C11.5591 18.2391 13.101 17.3664 14.2469 17.9359C14.2469 17.9359 14.4018 17.8439 14.4709 17.8158C14.4709 17.8158 13.938 17.5272 13.118 17.592C12.1936 17.6652 11.46 18.0693 11.46 18.0693Z" fill="white"/>
<path d="M8.24056 18.7687L8.13477 18.6528C8.25718 18.5406 8.56342 18.3829 8.84554 18.591L8.75231 18.7173C8.50464 18.5347 8.2511 18.759 8.24056 18.7687Z" fill="white"/>
<path d="M15.6597 35.3589H20.516C18.9542 28.9258 16.8502 27.1879 16.8502 27.1879C15.1664 26.3284 13.741 28.8177 14.6794 31.8936C14.9506 32.7822 15.3 34.0319 15.6597 35.3589Z" fill="#FFAE0B"/>
<path d="M2.78501 31.4177C2.78501 31.4177 2.78197 31.4151 2.77609 31.4094C2.7536 31.3869 2.68509 31.319 2.57788 31.2116C1.64133 30.2747 -2.25729 26.3217 -4.61296 23.1154C-7.30466 19.4519 -3.40867 17.1506 -1.22244 20.5181C-1.01794 20.833 -0.801286 21.137 -0.575914 21.4294C-0.527272 21.4923 -0.478632 21.5551 -0.429383 21.6167C1.74064 24.3448 4.58982 26.0293 4.58982 26.0293C4.63805 27.7161 2.78501 31.4177 2.78501 31.4177Z" fill="#FFAE0B"/>
<path d="M3.34003 28.7757L2.78024 31.4018C2.75775 31.3794 2.68925 31.3115 2.58203 31.2041L3.10979 28.7265C3.12337 28.6633 3.18559 28.6223 3.24943 28.6359C3.31287 28.6497 3.35361 28.7119 3.34003 28.7757Z" fill="#F28900"/>
<path d="M-5.41779 21.2456C-5.71998 20.3527 -5.24126 19.4928 -4.51123 18.8966C-2.73277 17.4441 2.97085 14.6718 5.25436 14.5427C6.49553 14.4726 6.39095 15.7727 3.48442 17.9221C1.11375 19.6752 -0.234835 21.8481 -2.50173 22.3739C-4.37342 22.8078 -5.1 22.1846 -5.41779 21.2456Z" fill="#FFAE0B"/>
<path d="M5.99512 15.6894C5.99512 15.6894 6.8054 15.8071 7.47402 15.4277C8.14264 15.0486 9.18681 15.3493 9.15742 14.9699C9.14324 14.7877 8.68094 14.7063 8.20425 14.6706C7.50706 14.6185 6.82222 14.8583 6.34777 15.3155C6.22819 15.431 6.1074 15.5566 5.99512 15.6894Z" fill="#FC804D"/>
<path d="M6.64062 14.0927C6.64062 14.0927 7.01192 13.7919 7.88057 13.9156C8.50501 14.0045 9.98311 14.1318 10.4685 14.2234C10.9539 14.315 10.5863 14.6368 9.58566 14.7335C8.58527 14.8302 6.64062 14.0927 6.64062 14.0927Z" fill="#FC804D"/>
<path d="M3.56373 14.898C3.56373 14.898 3.95854 14.0585 5.92609 13.9396C7.89364 13.8206 7.35432 14.0472 9.06914 14.2622C10.7838 14.477 10.1413 14.8039 9.02962 14.827C7.91796 14.8501 8.28419 14.7397 7.48282 14.9837C6.68145 15.2279 6.38271 16.681 4.72647 16.2428C4.05319 16.0647 3.45449 15.5013 3.56373 14.898Z" fill="#FDA66F"/>
<path d="M26.1426 35.8852C26.0285 36.7599 25.5325 36.6292 25.2857 35.567C25.2841 35.6073 25.2334 36.4956 25.068 36.6111C24.6667 36.8916 24.3733 35.7983 24.2277 35.184C24.3104 35.67 24.3088 37.1855 23.8516 36.8941C23.5277 36.6886 23.32 35.4116 23.2379 35.0693C23.3173 35.426 23.4774 36.8154 22.9633 36.7842C22.6268 36.7633 22.3753 35.5565 22.3753 35.5565L22.369 35.5313L22.3283 35.3676H20.9043C20.9424 35.2273 21.0115 35.0877 21.0711 35.0235C21.3473 34.7221 21.7119 34.7509 21.9422 34.7922C21.9856 34.8001 22.0249 34.8078 22.0573 34.8147C22.1086 34.8253 22.1384 34.8336 22.1384 34.8336C22.1384 34.8336 22.142 34.8032 22.1503 34.7519C22.1566 34.7148 22.1649 34.6666 22.1759 34.6117C22.2423 34.2801 22.4071 33.6926 22.7367 33.6751C23.1902 33.6516 23.3133 34.1334 23.3169 34.1465C23.3248 34.123 23.5105 33.5894 23.9065 33.7076C24.3031 33.8257 24.2585 34.3725 24.2565 34.397C24.2711 34.3772 24.7133 33.7582 25.0042 33.9329C25.3003 34.1109 25.3453 34.4838 25.3453 34.4838C25.3453 34.4838 25.7753 33.9366 26.0129 34.3985C26.1985 34.7588 26.1969 35.4687 26.1426 35.8852Z" fill="#FDA66F"/>
<path d="M22.3271 35.3642H22.1514L21.9463 34.7889C21.9897 34.7968 22.029 34.8045 22.0614 34.8114C22.1127 34.8219 22.1425 34.8302 22.1425 34.8302C22.1425 34.8302 22.1461 34.7998 22.1544 34.7485L22.3271 35.3642Z" fill="#FC804D"/>
<path d="M17.6502 31.4068C17.6502 31.4068 17.3362 31.8186 16.8142 32.432C16.7979 32.4515 16.7817 32.4701 16.7649 32.4896C16.542 32.75 16.2842 33.0451 15.9974 33.3596C15.5156 33.8886 14.9542 34.4719 14.3511 35.0369C13.1697 34.4315 12.0676 33.6957 11.0625 32.8471C11.8876 31.7706 12.7696 30.7331 13.4204 29.9908C13.5521 29.8402 13.6748 29.702 13.7856 29.5779C13.7893 29.5737 13.7929 29.5696 13.7972 29.5654C14.1723 29.1442 14.4082 28.8911 14.4082 28.8911C14.4082 28.8911 16.9214 30.7404 17.6502 31.4068Z" fill="#FDA66F"/>
<path d="M16.811 32.4421C16.7947 32.4615 16.7785 32.4802 16.7617 32.4996C16.5388 32.7601 16.281 33.0551 15.9942 33.3697L13.417 30.0006C13.5487 29.85 13.6713 29.7118 13.7822 29.5878C13.7859 29.5835 13.7895 29.5795 13.7938 29.5752L16.811 32.4421Z" fill="#291C2A"/>
<path d="M24.5866 21.81C22.8041 23.0115 21.373 21.3722 21.373 21.3722C21.611 20.4156 21.5737 18.5353 21.5021 17.6975C21.4663 17.2739 21.4219 16.9961 21.4219 16.9961L25.5349 18.5913L25.6606 20.1386L25.6912 20.5168C25.6912 20.5168 25.6796 21.0731 24.5866 21.81Z" fill="#FDA66F"/>
<path d="M25.6684 20.1386C23.575 19.9653 22.0645 18.372 21.4891 17.4752C21.4532 17.0516 21.4297 16.9961 21.4297 16.9961L25.5427 18.5913L25.6684 20.1386Z" fill="#291C2A"/>
<path d="M27.3953 12.4673C27.3953 12.4673 27.6721 11.4276 28.6893 11.5863C29.7066 11.745 29.8711 15.9128 27.375 15.7127L27.3953 12.4673Z" fill="#FC804D"/>
<path d="M28.3724 15.388C28.4219 15.5556 28.5826 15.6727 28.764 15.6601C28.9736 15.6455 29.1322 15.4633 29.1179 15.2538C29.1063 15.0854 28.9863 14.9502 28.8309 14.9109C28.7944 14.8256 28.7903 14.7516 28.842 14.6997C29.1019 14.7465 29.3076 14.9642 29.3266 15.2392C29.3491 15.5639 29.1033 15.8464 28.7784 15.8689C28.4776 15.8897 28.2133 15.68 28.1582 15.3908C28.231 15.3975 28.3019 15.3938 28.3724 15.388Z" fill="white"/>
<path d="M20.8532 16.4936C21.6414 17.7698 22.8333 18.876 24.6231 19.0981C26.7522 19.3617 28.0284 17.9255 28.4115 15.9284C28.4471 15.7474 28.4769 15.5648 28.5029 15.3839C28.5329 15.1731 28.5576 14.9633 28.578 14.7558C28.5947 14.5858 28.607 14.4186 28.618 14.2544C28.6451 13.8272 28.6543 13.4211 28.6516 13.0581C28.6514 13.0575 28.6514 13.0567 28.6518 13.0561C28.6472 12.5261 28.619 12.0871 28.5878 11.8081C28.4135 10.2354 28.1277 8.20837 24.9431 7.58254C21.7589 6.95753 19.0731 8.60477 19.3633 11.9793C19.3633 11.9789 19.5938 14.4542 20.8532 16.4936Z" fill="#FDA66F"/>
<path d="M28.5818 14.7702C28.4792 14.7838 28.3676 14.7923 28.2498 14.7949C27.748 14.804 27.3386 14.6899 27.336 14.5394C27.3333 14.3894 27.7374 14.2601 28.2393 14.2506C28.3759 14.2479 28.5056 14.2546 28.6219 14.269C28.6114 14.4334 28.5986 14.6006 28.5818 14.7702Z" fill="#FC804D"/>
<path d="M20.4453 13.5503C20.4453 13.5503 19.5862 17.6335 23.8326 19.1478C28.079 20.6621 29.0792 15.9539 28.6489 13.0767C28.6489 13.0767 28.3374 14.972 27.3814 15.7275C27.3814 15.7275 25.5067 14.9337 23.7542 15.947C23.7542 15.947 23.1437 16.2591 22.3853 15.5005C21.6267 14.7419 21.4208 13.8048 21.4208 13.8048L20.4453 13.5503Z" fill="#291C2A"/>
<path d="M28.529 11.3384C28.529 11.3384 29.3762 10.6576 29.1632 9.7278C29.0282 9.13845 28.4362 9.42907 28.4362 9.42907C28.4362 9.42907 30.0341 7.46081 29.6297 6.75392C29 5.65325 27.5211 7.13087 27.5211 7.13087C27.5211 7.13087 28.3711 5.09248 27.2603 5.06046C26.1492 5.02844 25.6592 6.5926 25.6592 6.5926C25.6592 6.5926 25.4506 4.71938 24.1095 4.96805C22.7682 5.21692 22.3809 6.79486 22.3809 6.79486C22.3809 6.79486 21.419 5.1928 20.0123 5.88713C18.6053 6.58145 19.4862 7.95693 19.4862 7.95693C19.4862 7.95693 18.6213 7.24213 17.9349 8.08379C17.2484 8.92546 18.4391 9.80887 18.4391 9.80887C18.4391 9.80887 17.9319 10.4181 18.4138 10.9266C18.8956 11.435 19.354 11.1541 19.354 11.1541C19.3098 11.6243 19.3226 12.0572 19.4227 12.4338L22.5408 10.9665C22.5408 10.9665 22.8629 10.2134 22.6004 9.87007C22.6004 9.87007 26.4155 9.05678 27.6743 10.1868C27.6743 10.1868 27.8618 10.9949 27.9007 11.2194L28.529 11.3384Z" fill="#291C2A"/>
<path d="M23.333 12.7259C23.2898 12.7153 23.2493 12.6926 23.2168 12.658C23.1281 12.5631 23.1329 12.4142 23.2278 12.3254C23.26 12.2952 23.5549 12.0295 23.9681 12.0012C24.4004 11.9714 24.6743 12.0962 24.704 12.1106C24.8212 12.1669 24.8704 12.3076 24.8141 12.4247C24.7582 12.5413 24.6187 12.5909 24.502 12.5358C24.4945 12.5323 24.3034 12.4499 24.0002 12.4707C23.7493 12.488 23.5512 12.6673 23.5492 12.6691C23.4892 12.7253 23.4073 12.7439 23.333 12.7259Z" fill="#291C2A"/>
<path d="M26.647 12.4275C26.6085 12.4056 26.5757 12.3725 26.5542 12.3302C26.495 12.2145 26.5408 12.0726 26.6565 12.0136C26.6959 11.9936 27.0526 11.8197 27.4575 11.9064C27.8811 11.9972 28.1099 12.1928 28.1346 12.2147C28.2317 12.3012 28.2402 12.45 28.1537 12.5468C28.0677 12.6433 27.9202 12.6526 27.8231 12.5675C27.8168 12.5622 27.6559 12.4301 27.3588 12.3665C27.113 12.3138 26.873 12.4313 26.8708 12.4325C26.7974 12.47 26.7135 12.4654 26.647 12.4275Z" fill="#291C2A"/>
<path d="M21.4361 12.6455C21.4361 12.6455 21.4394 13.6481 21.4315 13.8268C21.0044 13.9178 20.743 13.9209 20.456 13.5723C20.3917 13.3145 20.3654 13.1139 20.3654 13.1139C20.0206 12.6188 19.4307 12.4595 19.4307 12.4595C20.2557 11.3381 22.5488 10.9922 22.5488 10.9922C22.3404 11.9336 21.6333 12.3332 21.4361 12.6455Z" fill="#291C2A"/>
<path d="M27.9004 11.2417C27.9004 11.2417 27.9375 11.7492 28.2757 12.1908C28.4506 12.419 28.5702 12.6847 28.6067 12.9696L28.6513 13.3172C28.6513 13.3172 28.8491 11.885 28.5291 11.3605L27.9004 11.2417Z" fill="#291C2A"/>
<path d="M24.3135 16.1805C24.3135 16.1805 25.9624 16.254 26.8799 16.0649C26.8799 16.0649 26.9776 17.1877 25.5585 17.1516C24.3846 17.122 24.3135 16.1805 24.3135 16.1805Z" fill="white"/>
<path d="M23.9676 14.4492C23.9704 14.5994 23.5659 14.7289 23.0641 14.738C22.5622 14.7473 22.1532 14.633 22.1504 14.4829C22.1476 14.3327 22.5521 14.2032 23.0539 14.1939C23.5557 14.1847 23.9647 14.2991 23.9676 14.4492Z" fill="#FC804D"/>
<path d="M24.0943 13.3644C24.0993 13.6335 23.9842 13.854 23.8375 13.8569C23.6908 13.8595 23.5675 13.6435 23.5627 13.3743C23.5576 13.105 23.6725 12.8847 23.8194 12.8819C23.9662 12.8792 24.0894 13.0953 24.0943 13.3644Z" fill="#291C2A"/>
<path d="M27.398 13.4293C27.4031 13.6985 27.2881 13.919 27.1412 13.9218C26.9945 13.9245 26.8712 13.7084 26.8664 13.4393C26.8613 13.1701 26.9764 12.9496 27.1232 12.9468C27.2701 12.944 27.3931 13.1602 27.398 13.4293Z" fill="#291C2A"/>
<path d="M25.5228 15.2713C25.4541 15.2583 25.4005 15.1997 25.3967 15.127C25.3922 15.0414 25.4579 14.9685 25.5436 14.964C25.6849 14.9567 25.7994 14.9427 25.8795 14.9304C25.8154 14.4144 25.6162 13.7118 25.614 13.7041C25.5905 13.6218 25.6383 13.5358 25.7206 13.5123C25.8031 13.4888 25.8888 13.5367 25.9123 13.6189C25.9224 13.6544 26.161 14.4955 26.2027 15.0447C26.2084 15.1201 26.159 15.1886 26.0856 15.207C26.0775 15.209 25.8815 15.2573 25.5594 15.2739C25.5471 15.2743 25.5347 15.2735 25.5228 15.2713Z" fill="#FC804D"/>
<path d="M20.3525 13.0761C20.3525 13.0761 19.8237 12.1392 18.8787 12.5482C17.9338 12.9571 18.3314 16.6322 20.6975 15.8123L20.3525 13.0761Z" fill="#FDA66F"/>
<path d="M20.0127 15.946C19.975 16.1166 19.8226 16.2447 19.641 16.2447C19.4308 16.2447 19.2599 16.0739 19.2599 15.8637C19.2599 15.6951 19.3702 15.5518 19.5226 15.5017C19.5532 15.414 19.552 15.34 19.4969 15.292C19.2409 15.3566 19.0508 15.5881 19.0508 15.8637C19.0508 16.1892 19.3157 16.4539 19.6412 16.4539C19.9427 16.4539 20.1918 16.2265 20.2269 15.934C20.1543 15.9458 20.0834 15.9472 20.0127 15.946Z" fill="white"/>
<path d="M20.118 15.1607C20.0463 15.1471 19.992 15.0843 19.9918 15.0085C19.9901 13.8908 19.1172 13.4103 19.1083 13.4056C19.0329 13.3651 19.0043 13.2711 19.0447 13.1957C19.0852 13.1201 19.1792 13.0917 19.2546 13.1322C19.2974 13.1551 20.2998 13.707 20.3018 15.0081C20.3018 15.0938 20.2325 15.1633 20.147 15.1633C20.1371 15.1635 20.1273 15.1625 20.118 15.1607Z" fill="#FC804D"/>
<path d="M19.2435 14.3937C19.1925 14.384 19.1475 14.3492 19.1276 14.2971C19.0968 14.217 19.1365 14.1272 19.2166 14.0964C19.2699 14.076 19.7468 13.9013 20.0844 14.0926C20.159 14.1347 20.1852 14.2296 20.1428 14.304C20.1004 14.3785 20.0062 14.4047 19.9314 14.3623C19.7525 14.2606 19.4278 14.3473 19.3281 14.3858C19.3001 14.3968 19.2709 14.3988 19.2435 14.3937Z" fill="#FC804D"/>
<path d="M34.9753 31.3821C34.3312 32.0748 33.6314 32.714 32.8827 33.2936C32.6425 33.3972 32.4334 33.4809 32.2795 33.54C32.255 33.5494 32.2313 33.5589 32.21 33.5668C32.2048 33.5688 32.1995 33.571 32.1944 33.5725C32.1788 33.5787 32.1636 33.5844 32.15 33.5897C32.1312 33.5964 32.1144 33.6022 32.0994 33.6079C32.0848 33.6132 32.0712 33.6179 32.0597 33.6221C32.0272 33.6347 32.0104 33.6403 32.0104 33.6403L32.056 33.8961C30.4405 35.002 28.6288 35.8421 26.6831 36.3532C26.5449 36.3893 26.4063 36.4243 26.2666 36.4568C25.5547 36.6252 24.8248 36.7498 24.0814 36.8272C24.0348 36.8319 23.9882 36.8365 23.9418 36.8408C23.5587 36.8785 23.1716 36.903 22.7815 36.914C22.716 36.916 22.6508 36.9176 22.5847 36.9186C22.4752 36.9213 22.366 36.9223 22.2568 36.9223C20.5878 36.9223 18.9745 36.6868 17.4467 36.2474C17.4662 35.4345 17.4887 34.7392 17.5126 34.2052C17.5158 34.1215 17.5179 34.0791 17.5225 34.0053C17.5387 33.7433 17.5513 33.6172 17.5785 33.5015C17.5973 33.4158 17.6235 33.3357 17.6642 33.2097C17.6464 33.1961 17.6291 33.1819 17.6113 33.1683C17.3079 32.9314 17.0264 32.7002 16.7627 32.4752C15.4826 31.3829 14.6245 30.4298 13.7832 29.5634C13.3594 29.1266 13.5625 29.2756 13.0947 28.8765C14.5961 26.9379 15.3381 25.4835 16.9034 23.9747C18.5635 22.3749 21.5239 20.4958 21.5239 20.4958L21.5269 20.4978C21.5275 20.4978 21.5275 20.4984 21.5279 20.4984C24.4681 22.3885 25.4825 20.7767 25.6724 20.4849C25.6744 20.4812 25.6767 20.4776 25.6787 20.4743C25.6807 20.4707 25.6829 20.4674 25.685 20.4644C25.6866 20.4613 25.6882 20.4587 25.6896 20.4565C25.6953 20.4472 25.6979 20.4419 25.6979 20.4419C27.5054 21.6309 30.4901 22.3917 31.1085 23.1345C32.3499 24.6301 34.1942 29.3186 34.894 31.1672C34.9236 31.2441 34.9504 31.3158 34.9753 31.3821Z" fill="#9A5BFD"/>
<path d="M34.9758 31.4039C34.3317 32.0966 33.6319 32.7358 32.8832 33.3154C32.643 33.419 32.4339 33.5027 32.28 33.5618C32.2555 33.5712 32.2318 33.5807 32.2105 33.5886C32.2053 33.5906 32.2 33.5928 32.1949 33.5943L32.0605 32.8256C33.2006 32.3919 34.354 31.5686 34.8951 31.1895C34.9241 31.2659 34.9509 31.3376 34.9758 31.4039Z" fill="#7E36D0"/>
<path d="M13.5775 28.002L18.1421 32.5205C17.9348 32.8949 17.7188 33.1676 17.4956 33.3592L12.8945 28.9944C13.0425 28.6091 13.2612 28.2721 13.5775 28.002Z" fill="#7E36D0"/>
<path d="M31.7714 31.6568L18.5918 32.3158L19.0225 31.7702L31.696 31.1367L31.7714 31.6568Z" fill="white"/>
<path d="M32.0308 33.4307L32.0616 33.6414H32.061C32.0286 33.654 32.0118 33.6597 32.0118 33.6597L32.0574 33.9154C32.0379 33.929 32.0181 33.9422 31.9982 33.9558L17.4951 34.6809C17.5014 34.5182 17.5077 34.3653 17.514 34.2247C17.515 34.1986 17.516 34.1765 17.5166 34.1562L32.0308 33.4307Z" fill="white"/>
<path d="M31.9059 32.5768L17.8359 33.2804C17.839 33.2772 17.8416 33.2735 17.8442 33.2705L18.009 33.0618L31.8755 32.3687L31.9059 32.5768Z" fill="#FFAE0B"/>
<path d="M31.5881 30.3834L19.6543 30.9799L19.8264 30.7622L31.5577 30.1753L31.5881 30.3834Z" fill="#FFAE0B"/>
<path d="M20.1802 30.3078L17.8538 33.2547C17.7763 33.3532 17.6866 33.4373 17.5889 33.5069C17.6077 33.4213 17.6341 33.3411 17.6744 33.215C17.657 33.2017 17.6393 33.1875 17.6219 33.1739C17.6401 33.1544 17.6576 33.1342 17.6744 33.1125L20.0001 30.1656C20.0392 30.1163 20.1105 30.1076 20.1604 30.1461L20.161 30.1467C20.2106 30.1864 20.2188 30.258 20.1802 30.3078Z" fill="#7E36D0"/>
<path d="M32.2813 33.5892C32.1824 33.6275 32.107 33.6557 32.0614 33.6717L31.2444 28.0644C31.2353 28.0014 31.2782 27.9434 31.3407 27.9343C31.4051 27.9252 31.4617 27.9682 31.4708 28.0306L32.2813 33.5892Z" fill="#7E36D0"/>
<path d="M22.2518 23.5279C22.1871 23.5311 22.1304 23.4837 22.1229 23.4185C22.1152 23.3508 22.1638 23.2896 22.2315 23.2819C24.9646 22.9702 25.6332 21.344 25.6397 21.3276C25.6646 21.2642 25.7361 21.2327 25.7996 21.2575C25.863 21.2822 25.8946 21.3533 25.8701 21.417C25.8421 21.4895 25.1504 23.1978 22.2597 23.5273C22.257 23.5277 22.2544 23.5279 22.2518 23.5279Z" fill="#7E36D0"/>
<path d="M23.405 24.1915C23.3416 24.1947 23.285 24.1487 23.2765 24.0845C23.2674 24.0168 23.315 23.9548 23.3825 23.9456C24.8882 23.7446 25.2615 23.0146 25.2651 23.0073C25.2951 22.9461 25.3689 22.9206 25.4303 22.9506C25.4915 22.9806 25.5169 23.0545 25.4871 23.1157C25.47 23.1506 25.0505 23.9722 23.4151 24.1905C23.4119 24.1911 23.4085 24.1915 23.405 24.1915Z" fill="#7E36D0"/>
<path d="M27.5845 34.5339C27.5447 34.5782 26.5883 35.6252 24.8259 36.4758C24.558 36.6055 24.2614 36.7338 23.9396 36.8535C23.5565 36.8912 23.1694 36.9158 22.7793 36.9267C23.5211 36.7388 24.1636 36.4867 24.6946 36.231C26.4116 35.4049 27.3694 34.3586 27.379 34.3482C27.4302 34.2913 27.5182 34.2876 27.5751 34.3383C27.6311 34.3896 27.6357 34.4773 27.5845 34.5339Z" fill="#7E36D0"/>
<path d="M8.81246 29.3027C8.96791 29.4659 9.33718 29.9227 9.19754 30.4311C9.16551 30.5483 9.07674 30.6111 8.93122 30.7309C8.93122 30.7309 8.34266 29.9938 8.04818 29.5832C8.0121 29.5325 7.98028 29.4869 7.95454 29.4482C7.95252 29.4446 7.94988 29.4413 7.94765 29.4377C7.94765 29.4377 6.69371 29.9018 6.48071 29.6045C6.14528 29.1357 7.61284 28.4556 7.93043 28.3536C7.62115 28.4499 6.25574 29.0364 5.86803 28.8516C5.33641 28.5989 6.72857 27.7248 7.2231 27.5207C6.57495 27.741 5.40086 28.1009 5.42762 27.5703C5.43856 27.3517 6.60413 26.5759 6.64041 26.5518C5.52186 26.9362 4.73772 26.7735 5.47585 26.1647C5.82749 25.8749 6.47868 25.4647 6.91666 25.4276C7.47806 25.38 7.22269 26.0905 7.22269 26.0905C7.22269 26.0905 7.59156 25.9174 7.92536 26.0868C8.25389 26.2532 7.93955 27.0165 7.92962 27.041C7.9511 27.0248 8.42819 26.6691 8.76503 26.9652C9.10188 27.2613 8.71842 27.7394 8.70119 27.7604C8.71538 27.7562 9.22915 27.5914 9.46871 28.0221C9.64301 28.335 9.19774 28.8246 8.93143 29.0767C8.82624 29.176 8.74882 29.2389 8.74882 29.2389C8.74882 29.2389 8.77375 29.2614 8.81246 29.3027Z" fill="#FDA66F"/>
<path d="M8.80811 29.289C8.56125 29.3945 8.27711 29.4934 8.04383 29.5694C8.00775 29.5188 7.97593 29.4732 7.9502 29.4345C8.24833 29.3388 8.64435 29.2012 8.92688 29.063C8.82169 29.1623 8.74427 29.2251 8.74427 29.2251C8.74427 29.2251 8.7694 29.2476 8.80811 29.289Z" fill="#FC804D"/>
<path d="M35.7488 29.238C35.5931 29.4009 35.2228 29.8569 35.3615 30.3656C35.3931 30.4828 35.5027 30.534 35.648 30.654C35.6565 30.6571 36.2297 29.9344 36.5126 29.5199C36.5477 29.4684 36.5809 29.4238 36.6065 29.3851C36.6085 29.3815 36.6111 29.3782 36.6134 29.3748C36.6134 29.3748 37.8665 29.8413 38.0799 29.5446C38.4161 29.0767 36.95 28.3935 36.6328 28.291C36.9419 28.3878 38.3061 28.977 38.6942 28.7932C39.2262 28.5417 37.8359 27.6645 37.342 27.4596C37.9897 27.6811 39.163 28.0435 39.1373 27.5129C39.1267 27.2943 37.9626 26.516 37.9267 26.4919C39.0444 26.8786 39.829 26.7175 39.0921 26.1071C38.741 25.8164 38.0907 25.405 37.6527 25.3671C37.0915 25.3185 37.3452 26.0294 37.3452 26.0294C37.3452 26.0294 36.9768 25.8556 36.6426 26.0244C36.3136 26.1901 36.6265 26.954 36.6365 26.9785C36.615 26.9623 36.1387 26.6056 35.8011 26.9009C35.4636 27.1964 35.846 27.6753 35.8633 27.6961C35.8491 27.6919 35.3357 27.5261 35.0953 27.9562C34.9204 28.2687 35.3647 28.7593 35.6306 29.0118C35.7356 29.1115 35.8128 29.1744 35.8128 29.1744C35.8128 29.1744 35.7875 29.1969 35.7488 29.238Z" fill="#FDA66F"/>
<path d="M35.7551 29.232C36.0017 29.3382 36.2857 29.4377 36.519 29.5139C36.5552 29.4633 36.5873 29.4179 36.6128 29.3792C36.3149 29.2829 35.919 29.1445 35.6367 29.0059C35.7417 29.1056 35.8189 29.1684 35.8189 29.1684C35.8189 29.1684 35.7938 29.1909 35.7551 29.232Z" fill="#FC804D"/>
</g>
<defs>
<clipPath id="clip0_2147_7292">
<rect width="36" height="36" rx="18" fill="white"/>
</clipPath>
</defs>
</svg>
