<svg width="33" height="33" viewBox="0 0 33 33" fill="none" xmlns="http://www.w3.org/2000/svg">
<path d="M27.0057 19.125C27.0086 19.5837 26.8692 20.032 26.6068 20.4082C26.3444 20.7845 25.9718 21.0701 25.5404 21.2259L18.287 23.9062L15.6151 31.1653C15.4569 31.5952 15.1706 31.9661 14.7949 32.2282C14.4192 32.4902 13.9722 32.6307 13.5142 32.6307C13.0561 32.6307 12.6091 32.4902 12.2334 32.2282C11.8577 31.9661 11.5714 31.5952 11.4132 31.1653L8.72447 23.9062L1.4654 21.2344C1.03555 21.0761 0.664582 20.7899 0.402541 20.4142C0.140499 20.0385 0 19.5915 0 19.1334C0 18.6754 0.140499 18.2284 0.402541 17.8527C0.664582 17.477 1.03555 17.1907 1.4654 17.0325L8.72447 14.3437L11.3963 7.08469C11.5546 6.65484 11.8408 6.28386 12.2165 6.02182C12.5922 5.75978 13.0392 5.61928 13.4973 5.61928C13.9553 5.61928 14.4023 5.75978 14.778 6.02182C15.1537 6.28386 15.44 6.65484 15.5982 7.08469L18.287 14.3437L25.546 17.0156C25.9778 17.1728 26.3501 17.4602 26.6115 17.838C26.873 18.2159 27.0107 18.6655 27.0057 19.125ZM19.1307 5.625H21.3807V7.875C21.3807 8.17337 21.4992 8.45952 21.7102 8.67049C21.9212 8.88147 22.2073 9 22.5057 9C22.8041 9 23.0902 8.88147 23.3012 8.67049C23.5122 8.45952 23.6307 8.17337 23.6307 7.875V5.625H25.8807C26.1791 5.625 26.4652 5.50647 26.6762 5.29549C26.8872 5.08452 27.0057 4.79837 27.0057 4.5C27.0057 4.20163 26.8872 3.91548 26.6762 3.7045C26.4652 3.49353 26.1791 3.375 25.8807 3.375H23.6307V1.125C23.6307 0.826631 23.5122 0.540483 23.3012 0.329505C23.0902 0.118526 22.8041 0 22.5057 0C22.2073 0 21.9212 0.118526 21.7102 0.329505C21.4992 0.540483 21.3807 0.826631 21.3807 1.125V3.375H19.1307C18.8323 3.375 18.5462 3.49353 18.3352 3.7045C18.1242 3.91548 18.0057 4.20163 18.0057 4.5C18.0057 4.79837 18.1242 5.08452 18.3352 5.29549C18.5462 5.50647 18.8323 5.625 19.1307 5.625ZM31.5057 10.125H30.3807V9C30.3807 8.70163 30.2622 8.41548 30.0512 8.2045C29.8402 7.99353 29.5541 7.875 29.2557 7.875C28.9573 7.875 28.6712 7.99353 28.4602 8.2045C28.2492 8.41548 28.1307 8.70163 28.1307 9V10.125H27.0057C26.7073 10.125 26.4212 10.2435 26.2102 10.4545C25.9992 10.6655 25.8807 10.9516 25.8807 11.25C25.8807 11.5484 25.9992 11.8345 26.2102 12.0455C26.4212 12.2565 26.7073 12.375 27.0057 12.375H28.1307V13.5C28.1307 13.7984 28.2492 14.0845 28.4602 14.2955C28.6712 14.5065 28.9573 14.625 29.2557 14.625C29.5541 14.625 29.8402 14.5065 30.0512 14.2955C30.2622 14.0845 30.3807 13.7984 30.3807 13.5V12.375H31.5057C31.8041 12.375 32.0902 12.2565 32.3012 12.0455C32.5122 11.8345 32.6307 11.5484 32.6307 11.25C32.6307 10.9516 32.5122 10.6655 32.3012 10.4545C32.0902 10.2435 31.8041 10.125 31.5057 10.125Z" fill="#C83A2D"/>
</svg>
