<svg width="32" height="32" viewBox="0 0 32 32" fill="none" xmlns="http://www.w3.org/2000/svg">
<g clip-path="url(#clip0_2884_8355)">
<path d="M16.0011 16.0003C15.2695 17.4206 14.2886 18.6978 13.1051 19.771C12.3593 20.517 11.409 21.0251 10.3744 21.2311C9.3398 21.437 8.26736 21.3315 7.29273 20.9278C6.31809 20.5242 5.48505 19.8406 4.89894 18.9635C4.31284 18.0864 4 17.0552 4 16.0003C4 14.9454 4.31284 13.9142 4.89894 13.0371C5.48505 12.16 6.31809 11.4764 7.29273 11.0728C8.26736 10.6692 9.3398 10.5637 10.3744 10.7696C11.409 10.9755 12.3593 11.4836 13.1051 12.2297C14.2886 13.3029 15.2695 14.5801 16.0011 16.0003ZM16.0011 16.0003C16.7328 14.5801 17.7137 13.3029 18.8971 12.2297C19.643 11.4836 20.5933 10.9755 21.6279 10.7696C22.6625 10.5637 23.7349 10.6692 24.7096 11.0728C25.6842 11.4764 26.5172 12.16 27.1033 13.0371C27.6894 13.9142 28.0023 14.9454 28.0023 16.0003C28.0023 17.0552 27.6894 18.0864 27.1033 18.9635C26.5172 19.8406 25.6842 20.5242 24.7096 20.9278C23.7349 21.3315 22.6625 21.437 21.6279 21.2311C20.5933 21.0251 19.643 20.517 18.8971 19.771C17.7137 18.6978 16.7328 17.4206 16.0011 16.0003Z" stroke="#BEBEBE" stroke-width="2.66667" stroke-linecap="round" stroke-linejoin="round"/>
</g>
<defs>
<clipPath id="clip0_2884_8355">
<rect width="32" height="32" fill="white"/>
</clipPath>
</defs>
</svg>
