<svg width="32" height="32" viewBox="0 0 32 32" fill="none" xmlns="http://www.w3.org/2000/svg">
<g clip-path="url(#clip0_2147_6669)">
<path d="M0 15.989C0 20.2298 1.68466 24.297 4.68336 27.2957C7.68207 30.2944 11.7492 31.979 15.99 31.979C20.2308 31.979 24.2979 30.2944 27.2966 27.2957C30.2954 24.297 31.98 20.2298 31.98 15.989C31.98 11.7482 30.2954 7.6811 27.2966 4.68239C24.2979 1.68368 20.2308 -0.000976562 15.99 -0.000976562C11.7492 -0.000976562 7.68207 1.68368 4.68336 4.68239C1.68466 7.6811 0 11.7482 0 15.989Z" fill="#EDD87E"/>
<path d="M15.99 -0.000976562C7.15853 -0.000976562 0 7.15755 0 15.989C0 24.8205 7.15853 31.979 15.99 31.979C24.8215 31.979 31.98 24.8205 31.98 15.989C31.98 7.15755 24.8215 -0.000976562 15.99 -0.000976562ZM15.99 29.9803C8.26284 29.9803 1.99875 23.7162 1.99875 15.989C1.99875 8.26186 8.26284 1.99777 15.99 1.99777C23.7172 1.99777 29.9813 8.26186 29.9813 15.989C29.9813 23.7162 23.7172 29.9803 15.99 29.9803Z" fill="black"/>
<path d="M7.99512 7.99387C7.99512 8.52397 8.2057 9.03236 8.58054 9.4072C8.95538 9.78204 9.46377 9.99262 9.99387 9.99262C10.524 9.99262 11.0324 9.78204 11.4072 9.4072C11.782 9.03236 11.9926 8.52397 11.9926 7.99387C11.9926 7.46377 11.782 6.95538 11.4072 6.58054C11.0324 6.2057 10.524 5.99512 9.99387 5.99512C9.46377 5.99512 8.95538 6.2057 8.58054 6.58054C8.2057 6.95538 7.99512 7.46377 7.99512 7.99387Z" fill="#EF4D4D"/>
<path d="M11.9922 15.989C11.9922 16.5191 12.2028 17.0275 12.5776 17.4023C12.9524 17.7772 13.4608 17.9877 13.9909 17.9877C14.521 17.9877 15.0294 17.7772 15.4043 17.4023C15.7791 17.0275 15.9897 16.5191 15.9897 15.989C15.9897 15.4589 15.7791 14.9505 15.4043 14.5757C15.0294 14.2008 14.521 13.9902 13.9909 13.9902C13.4608 13.9902 12.9524 14.2008 12.5776 14.5757C12.2028 14.9505 11.9922 15.4589 11.9922 15.989Z" fill="#EF4D4D"/>
<path d="M4.99707 19.9865C4.99707 20.5166 5.20765 21.025 5.58249 21.3999C5.95733 21.7747 6.46572 21.9853 6.99582 21.9853C7.52592 21.9853 8.03431 21.7747 8.40915 21.3999C8.78399 21.025 8.99457 20.5166 8.99457 19.9865C8.99457 19.4564 8.78399 18.9481 8.40915 18.5732C8.03431 18.1984 7.52592 17.9878 6.99582 17.9878C6.46572 17.9878 5.95733 18.1984 5.58249 18.5732C5.20765 18.9481 4.99707 19.4564 4.99707 19.9865Z" fill="#EF4D4D"/>
<path d="M14.9902 24.9836C14.9902 25.2461 15.0419 25.506 15.1424 25.7485C15.2428 25.991 15.3901 26.2113 15.5757 26.3969C15.7613 26.5825 15.9816 26.7298 16.2241 26.8302C16.4666 26.9307 16.7265 26.9824 16.989 26.9824C17.2515 26.9824 17.5114 26.9307 17.7539 26.8302C17.9964 26.7298 18.2167 26.5825 18.4023 26.3969C18.5879 26.2113 18.7351 25.991 18.8356 25.7485C18.936 25.506 18.9877 25.2461 18.9877 24.9836C18.9877 24.4535 18.7772 23.9451 18.4023 23.5703C18.0275 23.1954 17.5191 22.9849 16.989 22.9849C16.4589 22.9849 15.9505 23.1954 15.5757 23.5703C15.2008 23.9451 14.9902 24.4535 14.9902 24.9836Z" fill="#EF4D4D"/>
<path d="M22.9854 18.987C22.9854 19.5171 23.1959 20.0255 23.5708 20.4004C23.9456 20.7752 24.454 20.9858 24.9841 20.9858C25.5142 20.9858 26.0226 20.7752 26.3974 20.4004C26.7723 20.0255 26.9829 19.5171 26.9829 18.987C26.9829 18.4569 26.7723 17.9485 26.3974 17.5737C26.0226 17.1989 25.5142 16.9883 24.9841 16.9883C24.454 16.9883 23.9456 17.1989 23.5708 17.5737C23.1959 17.9485 22.9854 18.4569 22.9854 18.987Z" fill="#EF4D4D"/>
<path d="M18.9883 8.99338C18.9883 9.52348 19.1989 10.0319 19.5737 10.4067C19.9485 10.7815 20.4569 10.9921 20.987 10.9921C21.5171 10.9921 22.0255 10.7815 22.4004 10.4067C22.7752 10.0319 22.9858 9.52348 22.9858 8.99338C22.9858 8.7309 22.9341 8.47099 22.8336 8.22849C22.7332 7.98599 22.586 7.76565 22.4004 7.58005C22.2148 7.39445 21.9944 7.24722 21.7519 7.14677C21.5094 7.04633 21.2495 6.99463 20.987 6.99463C20.7246 6.99463 20.4646 7.04633 20.2221 7.14677C19.9796 7.24722 19.7593 7.39445 19.5737 7.58005C19.3881 7.76565 19.2409 7.98599 19.1404 8.22849C19.04 8.47099 18.9883 8.7309 18.9883 8.99338Z" fill="#EF4D4D"/>
<path d="M17.9883 13.4907V15.4895C17.9883 15.622 18.041 15.7491 18.1347 15.8428C18.2284 15.9365 18.3555 15.9892 18.488 15.9892C18.6205 15.9892 18.7476 15.9365 18.8413 15.8428C18.9351 15.7491 18.9877 15.622 18.9877 15.4895V13.4907C18.9877 13.3582 18.9351 13.2311 18.8413 13.1374C18.7476 13.0437 18.6205 12.991 18.488 12.991C18.3555 12.991 18.2284 13.0437 18.1347 13.1374C18.041 13.2311 17.9883 13.3582 17.9883 13.4907ZM10.493 21.9854C10.3605 21.9854 10.2334 22.038 10.1397 22.1318C10.046 22.2255 9.99332 22.3526 9.99332 22.4851V24.4838C9.99332 24.6164 10.046 24.7435 10.1397 24.8372C10.2334 24.9309 10.3605 24.9835 10.493 24.9835C10.6255 24.9835 10.7526 24.9309 10.8463 24.8372C10.9401 24.7435 10.9927 24.6164 10.9927 24.4838V22.4851C10.9927 22.3526 10.9401 22.2255 10.8463 22.1318C10.7526 22.038 10.6255 21.9854 10.493 21.9854ZM27.5314 14.8439L26.1182 13.4308C26.024 13.3397 25.8978 13.2894 25.7668 13.2905C25.6357 13.2916 25.5104 13.3442 25.4178 13.4368C25.3251 13.5295 25.2726 13.6548 25.2714 13.7858C25.2703 13.9168 25.3207 14.0431 25.4117 14.1373L26.8248 15.5504C26.919 15.6414 27.0453 15.6918 27.1763 15.6907C27.3073 15.6895 27.4326 15.637 27.5253 15.5443C27.6179 15.4517 27.6705 15.3264 27.6716 15.1953C27.6728 15.0643 27.6224 14.9381 27.5314 14.8439ZM14.1337 9.41326C14.0395 9.32224 13.9133 9.27187 13.7823 9.27301C13.6512 9.27415 13.5259 9.3267 13.4333 9.41935C13.3406 9.51199 13.2881 9.63732 13.2869 9.76834C13.2858 9.89936 13.3362 10.0256 13.4272 10.1198L14.8403 11.5329C14.9345 11.624 15.0608 11.6743 15.1918 11.6732C15.3228 11.672 15.4481 11.6195 15.5408 11.5268C15.6334 11.4342 15.686 11.3089 15.6871 11.1779C15.6882 11.0468 15.6379 10.9206 15.5469 10.8264L14.1337 9.41326ZM21.1484 21.3828C21.0541 21.2918 20.9279 21.2414 20.7969 21.2425C20.6659 21.2437 20.5405 21.2962 20.4479 21.3889C20.3552 21.4815 20.3027 21.6068 20.3015 21.7379C20.3004 21.8689 20.3508 21.9951 20.4418 22.0893L21.8549 23.5025C21.9492 23.5935 22.0754 23.6438 22.2064 23.6427C22.3374 23.6416 22.4627 23.589 22.5554 23.4964C22.648 23.4037 22.7006 23.2784 22.7017 23.1474C22.7029 23.0164 22.6525 22.8901 22.5615 22.7959L21.1484 21.3828ZM6.49551 11.9917H4.49676C4.36423 11.9917 4.23713 12.0443 4.14343 12.138C4.04972 12.2317 3.99707 12.3588 3.99707 12.4913C3.99707 12.6239 4.04972 12.751 4.14343 12.8447C4.23713 12.9384 4.36423 12.991 4.49676 12.991H6.49551C6.62803 12.991 6.75513 12.9384 6.84884 12.8447C6.94255 12.751 6.9952 12.6239 6.9952 12.4913C6.9952 12.3588 6.94255 12.2317 6.84884 12.138C6.75513 12.0443 6.62803 11.9917 6.49551 11.9917ZM18.521 5.46173C18.4273 5.36805 18.3002 5.31543 18.1677 5.31543C18.0352 5.31543 17.9081 5.36805 17.8144 5.46173L16.4013 6.87485C16.3103 6.96909 16.2599 7.09531 16.2611 7.22633C16.2622 7.35735 16.3148 7.48267 16.4074 7.57532C16.5001 7.66797 16.6254 7.72052 16.7564 7.72166C16.8874 7.72279 17.0136 7.67243 17.1079 7.58141L18.521 6.16829C18.5675 6.12196 18.6044 6.0669 18.6296 6.00628C18.6547 5.94565 18.6677 5.88065 18.6677 5.81501C18.6677 5.74937 18.6547 5.68437 18.6296 5.62374C18.6044 5.56312 18.5675 5.50806 18.521 5.46173ZM18.8038 18.4646L17.3907 19.8777C17.2997 19.972 17.2493 20.0982 17.2505 20.2292C17.2516 20.3602 17.3041 20.4855 17.3968 20.5782C17.4894 20.6708 17.6148 20.7234 17.7458 20.7245C17.8768 20.7257 18.003 20.6753 18.0973 20.5843L19.5104 19.1712C19.6014 19.0769 19.6518 18.9507 19.6506 18.8197C19.6495 18.6887 19.5969 18.5633 19.5043 18.4707C19.4116 18.378 19.2863 18.3255 19.1553 18.3244C19.0243 18.3232 18.8981 18.3736 18.8038 18.4646ZM12.8116 25.4542L11.3984 26.8674C11.3074 26.9616 11.2571 27.0878 11.2582 27.2188C11.2593 27.3498 11.3119 27.4752 11.4045 27.5678C11.4972 27.6605 11.6225 27.713 11.7535 27.7142C11.8845 27.7153 12.0108 27.6649 12.105 27.5739L13.5181 26.1608C13.6091 26.0666 13.6595 25.9403 13.6584 25.8093C13.6572 25.6783 13.6047 25.553 13.512 25.4603C13.4194 25.3677 13.2941 25.3151 13.163 25.314C13.032 25.3128 12.9058 25.3632 12.8116 25.4542Z" fill="#3AAD73"/>
<path d="M20.9873 14.9896C20.9873 15.2547 21.0926 15.5089 21.28 15.6963C21.4674 15.8837 21.7216 15.989 21.9867 15.989C22.2517 15.989 22.5059 15.8837 22.6933 15.6963C22.8808 15.5089 22.9861 15.2547 22.9861 14.9896C22.9861 14.7246 22.8808 14.4704 22.6933 14.2829C22.5059 14.0955 22.2517 13.9902 21.9867 13.9902C21.7216 13.9902 21.4674 14.0955 21.28 14.2829C21.0926 14.4704 20.9873 14.7246 20.9873 14.9896Z" fill="#4F3923"/>
<path d="M21.9863 25.9828C21.9863 26.2478 22.0916 26.502 22.279 26.6894C22.4665 26.8769 22.7207 26.9821 22.9857 26.9821C23.2508 26.9821 23.5049 26.8769 23.6924 26.6894C23.8798 26.502 23.9851 26.2478 23.9851 25.9828C23.9851 25.7177 23.8798 25.4635 23.6924 25.2761C23.5049 25.0887 23.2508 24.9834 22.9857 24.9834C22.7207 24.9834 22.4665 25.0887 22.279 25.2761C22.0916 25.4635 21.9863 25.7177 21.9863 25.9828Z" fill="#4F3923"/>
<path d="M12.9922 20.9857C12.9922 21.2508 13.0975 21.5049 13.2849 21.6924C13.4723 21.8798 13.7265 21.9851 13.9916 21.9851C14.2566 21.9851 14.5108 21.8798 14.6982 21.6924C14.8856 21.5049 14.9909 21.2508 14.9909 20.9857C14.9909 20.7207 14.8856 20.4665 14.6982 20.279C14.5108 20.0916 14.2566 19.9863 13.9916 19.9863C13.7265 19.9863 13.4723 20.0916 13.2849 20.279C13.0975 20.4665 12.9922 20.7207 12.9922 20.9857Z" fill="#4F3923"/>
<path d="M4.99707 15.9891C4.99707 16.2542 5.10236 16.5084 5.28978 16.6958C5.4772 16.8832 5.7314 16.9885 5.99645 16.9885C6.2615 16.9885 6.51569 16.8832 6.70311 16.6958C6.89053 16.5084 6.99582 16.2542 6.99582 15.9891C6.99582 15.7241 6.89053 15.4699 6.70311 15.2825C6.51569 15.095 6.2615 14.9897 5.99645 14.9897C5.7314 14.9897 5.4772 15.095 5.28978 15.2825C5.10236 15.4699 4.99707 15.7241 4.99707 15.9891Z" fill="#4F3923"/>
<path d="M8.99414 12.9911C8.99414 13.2561 9.09943 13.5103 9.28685 13.6977C9.47427 13.8852 9.72847 13.9904 9.99352 13.9904C10.2586 13.9904 10.5128 13.8852 10.7002 13.6977C10.8876 13.5103 10.9929 13.2561 10.9929 12.9911C10.9929 12.726 10.8876 12.4718 10.7002 12.2844C10.5128 12.097 10.2586 11.9917 9.99352 11.9917C9.72847 11.9917 9.47427 12.097 9.28685 12.2844C9.09943 12.4718 8.99414 12.726 8.99414 12.9911Z" fill="#4F3923"/>
<path d="M12.9922 4.99596C12.9922 5.26101 13.0975 5.5152 13.2849 5.70262C13.4723 5.89004 13.7265 5.99533 13.9916 5.99533C14.2566 5.99533 14.5108 5.89004 14.6982 5.70262C14.8856 5.5152 14.9909 5.26101 14.9909 4.99596C14.9909 4.73091 14.8856 4.47671 14.6982 4.28929C14.5108 4.10187 14.2566 3.99658 13.9916 3.99658C13.7265 3.99658 13.4723 4.10187 13.2849 4.28929C13.0975 4.47671 12.9922 4.73091 12.9922 4.99596Z" fill="#4F3923"/>
<path d="M24.9844 9.99254C24.9844 10.2576 25.0897 10.5118 25.2771 10.6992C25.4645 10.8866 25.7187 10.9919 25.9838 10.9919C26.2488 10.9919 26.503 10.8866 26.6904 10.6992C26.8778 10.5118 26.9831 10.2576 26.9831 9.99254C26.9831 9.72749 26.8778 9.47329 26.6904 9.28587C26.503 9.09845 26.2488 8.99316 25.9838 8.99316C25.7187 8.99316 25.4645 9.09845 25.2771 9.28587C25.0897 9.47329 24.9844 9.72749 24.9844 9.99254Z" fill="#4F3923"/>
</g>
<defs>
<clipPath id="clip0_2147_6669">
<rect width="32" height="32" fill="white"/>
</clipPath>
</defs>
</svg>
