<svg width="32" height="32" viewBox="0 0 32 32" fill="none" xmlns="http://www.w3.org/2000/svg">
<g clip-path="url(#clip0_2884_5096)">
<path d="M20.3729 15.9158C19.5384 10.5578 17.2976 7.22595 15.1375 5.194C12.4017 2.62049 8.13274 2.62018 5.3966 5.19337C3.23622 7.22507 0.995023 10.5567 0.159833 15.9145C0.159833 15.9145 -1.41249 23.4265 5.30585 27.3545C8.37261 29.1476 12.1585 29.1478 15.2255 27.3552C21.9443 23.4279 20.3729 15.9158 20.3729 15.9158Z" fill="#E59770"/>
<path d="M15.2259 27.3547C13.4256 28.4071 11.3768 28.8418 9.37207 28.6579C10.8036 28.5364 12.2148 28.1002 13.4996 27.3491C20.2184 23.4214 18.6475 15.9096 18.6475 15.9096C17.8126 10.5512 15.5717 7.21942 13.4118 5.1876C12.2748 4.11841 10.8729 3.49309 9.42682 3.31228C11.4471 3.07296 13.5507 3.69997 15.1382 5.19328C17.298 7.2251 19.5389 10.5569 20.3732 15.9153C20.3732 15.9153 21.9447 23.427 15.2259 27.3547Z" fill="#DB7E56"/>
<path d="M31.8406 15.9529C31.0061 10.5949 28.7653 7.26305 26.6052 5.23111C23.8694 2.6576 19.6005 2.65729 16.8643 5.23048C14.704 7.26212 12.4628 10.5938 11.6276 15.9517C11.6276 15.9517 10.0553 23.4636 16.7736 27.3916C19.8404 29.1847 23.6263 29.185 26.6933 27.3923C33.412 23.465 31.8406 15.9529 31.8406 15.9529Z" fill="#F9E8D4"/>
<path d="M26.6927 27.3928C24.8924 28.4451 22.8436 28.8799 20.8389 28.696C22.2704 28.5745 23.6816 28.1383 24.9664 27.3871C31.6852 23.4594 30.1143 15.9477 30.1143 15.9477C29.2794 10.5893 27.0385 7.2575 24.8786 5.22568C23.7416 4.15649 22.3397 3.53118 20.8936 3.35036C22.9139 3.11105 25.0175 3.73805 26.605 5.23137C28.7648 7.26319 31.0057 10.595 31.84 15.9534C31.84 15.9533 33.4115 23.4651 26.6927 27.3928Z" fill="#E8D0BA"/>
<path d="M21.7353 25.0302C24.6186 25.0302 26.9559 22.6928 26.9559 19.8095C26.9559 16.9262 24.6186 14.5889 21.7353 14.5889C18.852 14.5889 16.5146 16.9262 16.5146 19.8095C16.5146 22.6928 18.852 25.0302 21.7353 25.0302Z" fill="#FEC007"/>
<path d="M26.9557 19.8109C26.9553 22.6939 24.618 25.0314 21.7344 25.031C20.4088 25.0312 19.1986 24.5372 18.2783 23.7225C18.8653 23.9516 19.5044 24.0767 20.1724 24.0769C23.0554 24.0767 25.3927 21.7399 25.3931 18.8568C25.393 17.2994 24.7115 15.901 23.6298 14.9453C25.5763 15.7039 26.9552 17.5966 26.9557 19.8109Z" fill="#EFAD0A"/>
</g>
<defs>
<clipPath id="clip0_2884_5096">
<rect width="32" height="32" fill="white"/>
</clipPath>
</defs>
</svg>
