<svg width="32" height="32" viewBox="0 0 32 32" fill="none" xmlns="http://www.w3.org/2000/svg">
<path d="M20.4997 23.25V20.455C20.4938 19.7392 20.6388 19.0301 20.9252 18.3741C21.2117 17.718 21.6331 17.1297 22.1622 16.6475C23.5589 15.4002 24.5441 13.7584 24.9877 11.9392C25.4313 10.1199 25.3123 8.2089 24.6464 6.45874C23.9805 4.70859 22.7991 3.20175 21.2585 2.13744C19.7178 1.07313 17.8904 0.501474 16.0178 0.498062C14.1453 0.49465 12.3158 1.05964 10.7713 2.11833C9.22673 3.17702 8.03987 4.67954 7.36762 6.42726C6.69537 8.17497 6.56938 10.0856 7.00632 11.9064C7.44325 13.7273 8.42253 15.3726 9.81468 16.625C10.348 17.1098 10.7736 17.7013 11.0639 18.361C11.3542 19.0208 11.5026 19.7342 11.4997 20.455V23.1475" fill="#FFE082"/>
<path d="M20.4998 23.7502C20.3672 23.7502 20.24 23.6975 20.1463 23.6038C20.0525 23.51 19.9998 23.3828 19.9998 23.2502V20.4552C19.9937 19.6692 20.1533 18.8907 20.4682 18.1705C20.7831 17.4503 21.2462 16.8045 21.8273 16.2752C23.1489 15.0958 24.0814 13.543 24.5016 11.8223C24.9217 10.1015 24.8097 8.29371 24.1804 6.63795C23.551 4.9822 22.4339 3.55644 20.9769 2.5492C19.5198 1.54195 17.7913 1.00064 16.02 0.996853C14.2487 0.993062 12.5179 1.52696 11.0565 2.52796C9.59517 3.52896 8.47202 4.94992 7.83558 6.60297C7.19914 8.25601 7.0794 10.0633 7.49217 11.7859C7.90495 13.5084 8.8308 15.0651 10.1473 16.2502C10.7333 16.7823 11.201 17.4316 11.5201 18.156C11.8393 18.8803 12.0027 19.6637 11.9998 20.4552V23.1452C11.9998 23.2778 11.9472 23.405 11.8534 23.4988C11.7596 23.5925 11.6324 23.6452 11.4998 23.6452C11.3672 23.6452 11.24 23.5925 11.1463 23.4988C11.0525 23.405 10.9998 23.2778 10.9998 23.1452V20.4552C11.0021 19.805 10.868 19.1616 10.6062 18.5665C10.3443 17.9714 9.96065 17.4378 9.47983 17.0002C8.01273 15.6803 6.98071 13.9462 6.52018 12.0272C6.05964 10.1082 6.19228 8.09467 6.90056 6.25268C7.60884 4.41069 8.85941 2.82699 10.487 1.71091C12.1145 0.594838 14.0425 -0.00106681 16.016 0.00196463C17.9894 0.00499608 19.9155 0.606821 21.5397 1.72789C23.1638 2.84896 24.4095 4.43649 25.1121 6.28065C25.8147 8.12481 25.9412 10.1388 25.4747 12.0563C25.0083 13.9739 23.971 15.7048 22.4998 17.0202C22.0224 17.4552 21.6421 17.9859 21.3837 18.5778C21.1252 19.1697 20.9944 19.8094 20.9998 20.4552V23.2502C20.9998 23.3828 20.9472 23.51 20.8534 23.6038C20.7596 23.6975 20.6324 23.7502 20.4998 23.7502Z" fill="#404040"/>
<path d="M20.5 23V27C20.4967 28.1925 20.0215 29.3351 19.1783 30.1783C18.3351 31.0215 17.1925 31.4967 16 31.5C14.8075 31.4967 13.6649 31.0215 12.8217 30.1783C11.9785 29.3351 11.5033 28.1925 11.5 27V23H20.5Z" fill="#9E9E9E"/>
<path d="M16 32C14.6739 32 13.4021 31.4732 12.4645 30.5355C11.5268 29.5979 11 28.3261 11 27V23C11 22.8674 11.0527 22.7402 11.1464 22.6464C11.2402 22.5527 11.3674 22.5 11.5 22.5H20.5C20.6326 22.5 20.7598 22.5527 20.8536 22.6464C20.9473 22.7402 21 22.8674 21 23V27C21 28.3261 20.4732 29.5979 19.5355 30.5355C18.5979 31.4732 17.3261 32 16 32ZM12 23.5V27C12 28.0609 12.4214 29.0783 13.1716 29.8284C13.9217 30.5786 14.9391 31 16 31C17.0609 31 18.0783 30.5786 18.8284 29.8284C19.5786 29.0783 20 28.0609 20 27V23.5H12Z" fill="#404040"/>
<path d="M13.5001 26.0002C13.4344 26.0048 13.3685 25.9964 13.3061 25.9755C13.2437 25.9546 13.186 25.9217 13.1363 25.8785C13.036 25.7913 12.9744 25.6678 12.9651 25.5352C12.9558 25.4026 12.9996 25.2717 13.0868 25.1714C13.174 25.071 13.2975 25.0095 13.4301 25.0002L20.4301 24.0002C20.5627 23.9813 20.6974 24.0158 20.8045 24.0962C20.9116 24.1766 20.9824 24.2963 21.0013 24.4289C21.0202 24.5615 20.9857 24.6962 20.9053 24.8033C20.8249 24.9105 20.7052 24.9813 20.5726 25.0002L13.5726 26.0002H13.5001Z" fill="#404040"/>
<path d="M13.5001 28.0002C13.3675 28.0095 13.2366 27.9657 13.1363 27.8785C13.036 27.7913 12.9744 27.6678 12.9651 27.5352C12.9558 27.4026 12.9996 27.2717 13.0868 27.1714C13.174 27.071 13.2975 27.0095 13.4301 27.0002L20.4301 26.0002C20.5627 25.9813 20.6974 26.0158 20.8045 26.0962C20.9116 26.1766 20.9824 26.2963 21.0013 26.4289C21.0202 26.5615 20.9857 26.6962 20.9053 26.8033C20.8249 26.9105 20.7052 26.9813 20.5726 27.0002L13.5726 28.0002H13.5001Z" fill="#404040"/>
</svg>
