<svg width="28" height="28" viewBox="0 0 28 28" fill="none" xmlns="http://www.w3.org/2000/svg">
<path d="M12.9902 6.89409L13.116 7.11229L12.1631 8.76298L10.1625 12.2279L6.69727 10.2273L8.69784 6.7624L10.6984 3.29713L10.7878 3.14209L12.7814 6.53195L12.9902 6.89409Z" fill="#94A580"/>
<path d="M20.8776 6.30927L20.8736 6.34094L20.291 13.1232L14.0954 10.2256L15.2489 9.56362L13.5405 6.60262L13.3304 6.23785L12.2681 4.43032L10.4209 1.29492H16.442L16.6482 1.6517L17.2824 2.74972L19.7241 6.9752L20.8539 6.32109L20.8776 6.30927Z" fill="#7FA661"/>
<path d="M21.8665 19.5857L21.6146 19.5857L20.6616 17.935L18.6611 14.47L22.1263 12.4692L24.1268 15.9343L26.1275 19.3995L26.2171 19.5544L22.2846 19.5859L21.8665 19.5857Z" fill="#94A580"/>
<path d="M18.4275 25.3773L24.5772 25.3771L24.9895 25.3773L28.0004 20.1622L22.2654 20.2083L21.8443 20.208L18.4272 20.2079L18.4274 18.877L12.8223 22.7926L18.4278 26.7085L18.4275 25.3773Z" fill="#7FA661"/>
<path d="M6.57787 21.2665L6.70387 21.0484L8.60989 21.0483L12.6109 21.0484L12.611 25.0497L8.60995 25.0497L4.60868 25.0497L4.42969 25.0499L6.36863 21.6284L6.57787 21.2665Z" fill="#94A580"/>
<path d="M8.91084 18.641L7.75731 17.975L6.04887 20.936L5.83882 21.3007L3.25434 25.8671L3.01257 26.2913L2.10087 24.7136L1.32792 23.3779L0 21.0748L0.206117 20.718L3.28212 15.3906L2.1286 14.7287L7.87226 12.0411L8.32415 11.8311L8.91084 18.641Z" fill="#7FA661"/>
</svg>
