<svg width="24" height="24" viewBox="0 0 24 24" fill="none" xmlns="http://www.w3.org/2000/svg">
<path fill-rule="evenodd" clip-rule="evenodd" d="M5.25605 1.90444C5.2524 1.15564 5.83392 0.505915 7.13559 0.480091C8.43725 0.454267 9.3061 1.26964 9.15053 1.90089C8.94764 2.72457 7.53341 2.95588 7.5564 3.82483C7.55991 3.95697 6.69884 3.94483 6.69884 3.81283C6.67901 2.94729 8.39664 2.52907 8.42261 1.88471C8.44532 1.3198 7.98389 1.01356 7.14264 1.01356C6.5582 1.01356 6.06692 1.31467 6.02386 1.89753C6.01652 2.02075 5.25668 2.02766 5.25586 1.9043L5.25605 1.90444Z" fill="#E1B100"/>
<path fill-rule="evenodd" clip-rule="evenodd" d="M7.12256 4.23633C7.45059 4.23633 7.71694 4.41268 7.71694 4.62993C7.71694 4.84718 7.45059 5.02353 7.12256 5.02353C6.79453 5.02353 6.52832 4.84718 6.52832 4.62993C6.52832 4.41268 6.79462 4.23633 7.12256 4.23633Z" fill="#E1B100"/>
<path d="M17.1462 5.28681C17.1781 6.21801 16.2435 7.59561 15.8458 8.19806L15.8441 8.19974C15.7518 8.05209 15.574 7.93127 15.2954 7.87756C15.4817 7.47988 15.8257 6.31204 15.9314 5.82878C14.8525 4.7146 12.0133 4.27329 11.8086 4.59546C11.7667 4.65921 11.7281 4.72468 11.6895 4.7901C10.426 4.1877 10.478 1.88222 11.0535 1.5549C11.3086 1.40894 11.6257 1.47772 11.9244 1.77806C11.9378 1.56498 12.1526 1.17234 12.4949 1.14378C12.8809 1.11018 13.2013 1.40894 13.4213 1.89738C13.376 1.51818 13.7167 1.01313 14.2637 1.15406C14.6177 1.24468 15.0523 2.233 15.5439 2.81188C16.0371 3.3957 17.116 4.4579 17.1462 5.28681Z" fill="#29263B"/>
<path d="M13.4053 4.08521C13.3878 4.08519 13.3707 4.07969 13.3564 4.06948C13.3422 4.05926 13.3315 4.04483 13.3259 4.02823C13.1949 3.64274 13.2172 3.04529 13.313 2.71303C13.316 2.70244 13.3211 2.69256 13.328 2.68394C13.3349 2.67532 13.3434 2.66815 13.353 2.66281C13.3626 2.65748 13.3732 2.65411 13.3842 2.65287C13.3951 2.65164 13.4062 2.65257 13.4168 2.65562C13.4274 2.65867 13.4373 2.66378 13.4459 2.67065C13.4545 2.67752 13.4617 2.68602 13.467 2.69567C13.4724 2.70532 13.4758 2.71592 13.477 2.72687C13.4782 2.73782 13.4773 2.74891 13.4742 2.7595C13.3851 3.0689 13.3681 3.63094 13.4847 3.97447C13.489 3.9871 13.4902 4.00056 13.4883 4.01375C13.4863 4.02694 13.4812 4.03947 13.4735 4.05031C13.4657 4.06115 13.4555 4.06998 13.4436 4.07608C13.4318 4.08219 13.4186 4.08538 13.4053 4.0854V4.08521Z" fill="#686674"/>
<path d="M12.5838 4.07839C12.5673 4.07838 12.5512 4.07354 12.5375 4.06446C12.5237 4.05538 12.513 4.04246 12.5065 4.02732C12.3155 3.58507 12.2474 3.09947 12.3093 2.62173C12.3125 2.5997 12.3243 2.57984 12.3421 2.56651C12.36 2.55318 12.3824 2.54748 12.4044 2.55067C12.4264 2.55385 12.4463 2.56565 12.4596 2.58348C12.4729 2.60131 12.4786 2.6237 12.4755 2.64573C12.4178 3.09312 12.4818 3.54778 12.6609 3.9618C12.6664 3.97456 12.6685 3.98846 12.6673 4.00226C12.666 4.01607 12.6614 4.02935 12.6537 4.04092C12.6461 4.05248 12.6357 4.06198 12.6235 4.06855C12.6113 4.07512 12.5976 4.07857 12.5838 4.07858V4.07839Z" fill="#686674"/>
<path d="M11.8996 4.10879C11.8863 4.10881 11.8731 4.10564 11.8612 4.09954C11.8493 4.09345 11.8391 4.08461 11.8313 4.07375C11.5608 3.69642 11.4313 3.23322 11.4465 2.69692C11.4466 2.68583 11.449 2.67489 11.4535 2.66473C11.4579 2.65458 11.4644 2.64542 11.4724 2.63781C11.4805 2.6302 11.49 2.62429 11.5004 2.62042C11.5108 2.61656 11.5218 2.61482 11.5329 2.61532C11.5439 2.6156 11.5548 2.61807 11.5649 2.62257C11.575 2.62707 11.5841 2.63352 11.5917 2.64155C11.5993 2.64958 11.6052 2.65903 11.6091 2.66936C11.613 2.67968 11.6149 2.69068 11.6145 2.70172C11.6001 3.20754 11.7158 3.62442 11.968 3.97607C11.977 3.9886 11.9823 4.00337 11.9834 4.01874C11.9846 4.03411 11.9815 4.0495 11.9744 4.06322C11.9674 4.07694 11.9567 4.08846 11.9436 4.09651C11.9304 4.10457 11.9153 4.10885 11.8999 4.10889L11.8996 4.10879Z" fill="#686674"/>
<path d="M11.6894 4.78956C10.9125 6.11014 10.6977 7.63875 10.8118 8.30489C10.9645 9.19927 11.7899 9.75881 12.5837 9.75881C12.5988 10.1263 12.5703 10.7329 12.5703 10.7329C12.5703 10.7329 12.1491 10.8185 11.6306 10.9662C11.4645 14.0318 14.9799 14.2432 16.1343 11.2398C15.6902 11.0369 15.2299 10.8713 14.7583 10.7448C14.7583 10.7448 14.7231 9.5467 14.8557 8.95102C15.641 9.34366 16.1393 8.65236 15.844 8.19929C15.7517 8.05164 15.5739 7.93083 15.2953 7.87711C15.4815 7.47943 15.8255 6.31159 15.9313 5.82833C14.8523 4.71415 12.0132 4.27284 11.8085 4.59502C11.7665 4.65867 11.7279 4.72414 11.6894 4.78956Z" fill="#FFA775"/>
<path d="M15.1357 8.71702C15.1278 8.71702 15.1201 8.71481 15.1134 8.71064C15.1068 8.70647 15.1014 8.70052 15.098 8.69345C15.0945 8.68638 15.0932 8.67848 15.094 8.67067C15.0948 8.66285 15.0978 8.65543 15.1027 8.64924C15.2538 8.45575 15.4323 8.35932 15.6482 8.35457C15.6538 8.35422 15.6593 8.35503 15.6646 8.35695C15.6698 8.35886 15.6746 8.36183 15.6786 8.36569C15.6826 8.36954 15.6858 8.37418 15.688 8.37932C15.6901 8.38446 15.6912 8.38999 15.6911 8.39556C15.6912 8.40107 15.6902 8.40655 15.6883 8.41168C15.6863 8.41682 15.6833 8.42151 15.6795 8.42549C15.6757 8.42947 15.6711 8.43267 15.6661 8.43489C15.661 8.4371 15.6556 8.43831 15.6501 8.43843C15.4581 8.4427 15.3053 8.52607 15.1688 8.70089C15.1649 8.70593 15.1598 8.71 15.1541 8.71279C15.1484 8.71559 15.1421 8.71703 15.1357 8.71702Z" fill="#29263B"/>
<path d="M11.7716 5.66875C11.6741 5.66778 11.5781 5.64401 11.4914 5.59934C11.4788 5.5939 11.4675 5.58596 11.4581 5.57601C11.4487 5.56606 11.4415 5.55431 11.4368 5.54146C11.4321 5.52862 11.4301 5.51496 11.4308 5.5013C11.4316 5.48765 11.4351 5.47429 11.4412 5.46204C11.4473 5.4498 11.4558 5.43891 11.4662 5.43006C11.4766 5.4212 11.4887 5.41456 11.5018 5.41053C11.5149 5.40651 11.5286 5.40518 11.5422 5.40664C11.5558 5.40809 11.569 5.4123 11.5809 5.419C11.7747 5.515 11.9618 5.467 12.1694 5.26713C12.1788 5.25717 12.19 5.24922 12.2026 5.24375C12.2151 5.23829 12.2286 5.23543 12.2423 5.23535C12.2559 5.23527 12.2695 5.23797 12.2821 5.24329C12.2947 5.2486 12.306 5.25642 12.3155 5.26627C12.325 5.27612 12.3324 5.28779 12.3372 5.30058C12.342 5.31337 12.3442 5.327 12.3436 5.34065C12.343 5.3543 12.3396 5.36769 12.3336 5.37999C12.3277 5.3923 12.3193 5.40327 12.309 5.41223C12.1315 5.58307 11.9517 5.66875 11.7716 5.66875Z" fill="#29263B"/>
<path d="M14.6001 6.11192C14.5759 6.11187 14.5525 6.10311 14.5342 6.08725C14.516 6.07138 14.504 6.04947 14.5006 6.02552C14.492 5.94681 14.4651 5.8712 14.4221 5.80474C14.3791 5.73828 14.3211 5.68281 14.2528 5.64277C14.1937 5.61205 14.1279 5.59627 14.0612 5.59679C13.9946 5.59732 13.9291 5.61414 13.8704 5.64579C13.8465 5.65615 13.8196 5.65687 13.7952 5.6478C13.7708 5.63872 13.7508 5.62056 13.7395 5.59711C13.7282 5.57366 13.7264 5.54674 13.7345 5.52199C13.7426 5.49725 13.7599 5.47659 13.7829 5.46435C13.8702 5.41898 13.9671 5.39536 14.0654 5.39551C14.1638 5.39566 14.2606 5.41957 14.3477 5.46522C14.444 5.52018 14.526 5.59697 14.5872 5.6894C14.6483 5.78182 14.687 5.88732 14.6999 5.99739C14.7037 6.02384 14.6967 6.05067 14.6807 6.07201C14.6646 6.09335 14.6407 6.10744 14.6143 6.1112C14.6096 6.11175 14.6049 6.11199 14.6001 6.11192Z" fill="#29263B"/>
<path d="M12.6015 8.67828C12.5915 8.67827 12.5819 8.67472 12.5743 8.66825C12.5667 8.66179 12.5617 8.65284 12.5601 8.643C12.5475 8.58188 12.5571 8.51824 12.5872 8.46359C12.6174 8.40894 12.6661 8.36686 12.7246 8.34497C12.8898 8.27854 13.147 8.34175 13.319 8.59068C13.3253 8.59984 13.3277 8.61114 13.3257 8.62208C13.3237 8.63303 13.3174 8.64273 13.3083 8.64905C13.2991 8.65537 13.2878 8.65779 13.2769 8.65579C13.2659 8.65378 13.2562 8.64751 13.2499 8.63835C13.1031 8.42556 12.8899 8.36897 12.7558 8.42283C12.7149 8.43746 12.6808 8.46662 12.66 8.50476C12.6392 8.5429 12.6331 8.58735 12.643 8.62966C12.6447 8.64063 12.642 8.65184 12.6355 8.66083C12.629 8.66983 12.6192 8.67588 12.6082 8.67766C12.606 8.67803 12.6037 8.67824 12.6015 8.67828Z" fill="#29263B"/>
<path d="M12.2531 7.72946C12.2485 7.72946 12.2439 7.7287 12.2395 7.7272C12.1909 7.71055 11.7635 7.55892 11.7301 7.35708C11.6958 7.14928 12.2271 6.08815 12.3787 5.88232C12.3853 5.87336 12.3952 5.86739 12.4062 5.86571C12.4172 5.86404 12.4284 5.8668 12.4374 5.8734C12.4463 5.87999 12.4523 5.88987 12.454 5.90088C12.4557 5.91188 12.4529 5.92309 12.4463 5.93205C12.2745 6.16533 11.7868 7.18552 11.8127 7.34325C11.8319 7.45845 12.1011 7.59103 12.2665 7.64767C12.2759 7.65091 12.2838 7.65736 12.2889 7.66588C12.2939 7.67439 12.2958 7.68443 12.2942 7.69421C12.2925 7.70398 12.2875 7.71286 12.28 7.71928C12.2724 7.7257 12.2628 7.72924 12.2529 7.72927L12.2531 7.72946Z" fill="#29263B"/>
<path d="M18.4562 22.9999C16.5752 23.5519 11.7377 23.7952 9.82646 23.0619L9.75446 16.1893L7.61035 15.3266C7.61035 15.3266 8.78794 12.4676 10.0464 11.6102C10.4357 11.3434 11.0868 11.1202 11.6304 10.9658C11.4643 14.0315 14.9796 14.2429 16.1341 11.2394C16.7767 11.5314 17.5234 11.9626 18.0839 12.5566C19.3069 13.8519 18.4562 22.9999 18.4562 22.9999Z" fill="#29263B"/>
<path fill-rule="evenodd" clip-rule="evenodd" d="M13.9742 6.28031C14.0758 6.30614 14.1155 6.49439 14.063 6.70031C14.0105 6.90623 13.8854 7.05215 13.7839 7.02633C13.6825 7.00051 13.6425 6.8122 13.695 6.60633C13.7476 6.40046 13.8726 6.25444 13.9742 6.28031Z" fill="#29263B"/>
<path fill-rule="evenodd" clip-rule="evenodd" d="M11.8276 5.79511C11.9293 5.82112 11.9691 6.00919 11.9166 6.21511C11.864 6.42103 11.739 6.56714 11.6373 6.54112C11.5357 6.51511 11.4961 6.327 11.5486 6.12132C11.6011 5.91564 11.7262 5.76924 11.8276 5.79492V5.79511Z" fill="#29263B"/>
<path fill-rule="evenodd" clip-rule="evenodd" d="M17.7631 15.2578C17.7631 15.2578 17.3843 14.2018 16.7864 14.083C16.1711 13.9606 15.329 14.4807 14.6744 14.9965C14.1352 13.8231 13.5399 12.2757 13.5332 11.711C13.8822 10.8882 13.5267 10.2012 14.3948 9.41121C14.7969 9.0454 14.2167 8.5029 13.6737 9.11975C13.2612 9.58837 12.5793 9.57849 12.2055 9.50164C11.4606 9.34895 11.0487 8.80881 10.8933 8.59473C10.3953 8.64973 10.5015 9.19372 10.6201 9.43017C10.3822 9.49948 10.2735 9.92365 10.4302 10.1853C10.2397 10.3267 10.1545 10.5334 10.3833 10.9346C10.1994 11.1149 10.2696 11.4746 10.4713 11.6516C10.4713 11.6516 11.0628 12.0592 11.4649 12.2332C11.6429 13.5632 11.9172 14.8784 12.2857 16.1686C11.1241 16.3712 9.76326 16.5233 9.76326 16.5233L9.75789 16.1959L7.75725 15.3861C7.23885 16.6107 6.97259 18.9553 8.13774 19.4459C9.16408 19.8779 11.0513 19.607 13.111 18.3755C13.6193 19.4025 14.2498 20.1371 15.0112 20.1379C16.2517 20.1394 17.0649 18.9501 17.0649 18.9501C17.2911 18.2741 17.1849 17.6061 16.7448 17.1075C16.7437 17.1029 16.7433 17.0979 16.7418 17.0938C16.9947 17.1832 17.3649 16.9353 17.2627 16.6694C17.4835 16.7312 17.6721 16.4397 17.6471 16.007C17.8109 15.8429 17.8495 15.5932 17.7631 15.2578Z" fill="#FFA775"/>
<path d="M16.7543 17.1194C16.7436 17.1194 16.7333 17.1153 16.7255 17.1079C16.7177 17.1005 16.713 17.0904 16.7124 17.0797C16.6937 16.7329 16.554 16.4042 16.2728 16.0453C16.2664 16.0366 16.2636 16.0256 16.265 16.0148C16.2665 16.004 16.2721 15.9942 16.2807 15.9875C16.2893 15.9807 16.3002 15.9776 16.311 15.9787C16.3219 15.9799 16.3318 15.9852 16.3388 15.9936C16.6312 16.3667 16.7765 16.7104 16.7963 17.0752C16.7968 17.0863 16.793 17.0972 16.7856 17.1055C16.7781 17.1137 16.7677 17.1187 16.7566 17.1193L16.7543 17.1194Z" fill="#29263B"/>
<path d="M17.2732 16.6774C17.2634 16.6774 17.2538 16.6739 17.2463 16.6675C17.2387 16.6611 17.2336 16.6523 17.232 16.6426C17.155 16.1709 16.9214 15.7389 16.5688 15.4162C16.5607 15.4086 16.556 15.3981 16.5557 15.3869C16.5554 15.3758 16.5595 15.365 16.5671 15.3569C16.5747 15.3488 16.5853 15.3441 16.5964 15.3438C16.6075 15.3434 16.6183 15.3476 16.6264 15.3552C16.9905 15.6916 17.2326 16.1394 17.3147 16.6283C17.3166 16.6393 17.314 16.6506 17.3076 16.6597C17.3012 16.6688 17.2914 16.6749 17.2805 16.6768C17.2781 16.6772 17.2757 16.6774 17.2732 16.6774Z" fill="#29263B"/>
<path d="M17.6571 16.0498C17.6477 16.0498 17.6385 16.0466 17.6311 16.0408C17.6237 16.0349 17.6185 16.0267 17.6163 16.0175C17.4946 15.5044 17.2513 15.0831 16.893 14.7657C16.8889 14.7621 16.8856 14.7576 16.8831 14.7527C16.8807 14.7477 16.8793 14.7424 16.879 14.7369C16.8783 14.7258 16.8821 14.7148 16.8894 14.7065C16.8968 14.6982 16.9072 14.6931 16.9183 14.6925C16.9294 14.6918 16.9403 14.6955 16.9486 14.7029C17.3201 15.0321 17.5722 15.4678 17.698 15.9982C17.7005 16.0091 17.6986 16.0205 17.6928 16.0299C17.687 16.0394 17.6776 16.0462 17.6668 16.0487C17.6636 16.0495 17.6604 16.0498 17.6571 16.0498Z" fill="#29263B"/>
<path d="M15.7371 16.9919C15.7296 16.9919 15.7223 16.9899 15.7158 16.9861C15.7094 16.9823 15.7041 16.9769 15.7004 16.9704L15.3872 16.4099C14.9426 15.8904 13.5015 12.5726 13.4912 11.7107C13.4912 11.7049 13.4923 11.6991 13.4945 11.6938C13.6187 11.401 13.6525 11.1226 13.6851 10.8529C13.7449 10.3596 13.8014 9.89362 14.3667 9.37934C14.4639 9.29088 14.505 9.18317 14.4795 9.08371C14.4653 9.03548 14.4382 8.99203 14.4012 8.95803C14.3642 8.92402 14.3186 8.90075 14.2693 8.8907C14.0917 8.84827 13.8859 8.94139 13.7053 9.14659C13.3177 9.5869 12.6721 9.63955 12.1971 9.54187C11.6763 9.43517 11.2263 9.12427 10.8594 8.6185C10.856 8.61405 10.8534 8.60896 10.852 8.60352C10.8506 8.59809 10.8502 8.59241 10.851 8.58684C10.8518 8.58127 10.8537 8.57591 10.8566 8.57109C10.8595 8.56627 10.8633 8.56208 10.8679 8.55878C10.8725 8.55547 10.8776 8.55312 10.8831 8.55185C10.8886 8.55059 10.8943 8.55044 10.8998 8.55142C10.9054 8.55239 10.9107 8.55448 10.9154 8.55754C10.9201 8.5606 10.9241 8.56458 10.9273 8.56925C11.0593 8.75131 11.4611 9.30538 12.2139 9.4597C12.3701 9.49181 13.1727 9.62472 13.6422 9.0912C13.8441 8.86181 14.0799 8.75899 14.2888 8.80915C14.3529 8.82269 14.4122 8.85347 14.4601 8.89817C14.508 8.94288 14.5428 8.99981 14.5607 9.06283C14.5943 9.19339 14.5441 9.33134 14.4232 9.44136C13.8811 9.93466 13.8264 10.3856 13.7686 10.863C13.7355 11.1359 13.7014 11.4178 13.5754 11.7183C13.5949 12.5849 15.0185 15.8567 15.4536 16.358C15.4554 16.3601 15.457 16.3625 15.4584 16.365L15.7736 16.9292C15.7772 16.9356 15.779 16.9428 15.7789 16.9501C15.7789 16.9574 15.7769 16.9646 15.7732 16.9709C15.7695 16.9772 15.7642 16.9824 15.7579 16.986C15.7516 16.9897 15.7444 16.9916 15.7371 16.9916V16.9919Z" fill="#29263B"/>
</svg>
