<svg width="32" height="32" viewBox="0 0 32 32" fill="none" xmlns="http://www.w3.org/2000/svg">
<g clip-path="url(#clip0_2147_8870)">
<path d="M28.6312 3.51306C25.71 1.3318 20.9937 0.0292969 16.0124 0.0292969C11.0312 0.0292969 6.31363 1.3318 3.39241 3.51423C1.38614 5.01297 0.326172 6.81549 0.326172 8.7255V13.3906C0.326172 13.8243 0.616211 14.1906 1.01124 14.3105V25.7205C1.01124 25.7754 1.01625 25.833 1.02622 25.888C1.13872 27.0756 2.09375 28.7705 4.43372 29.9405C4.79623 31.1643 5.91364 32.0293 7.23371 32.0293H7.9399C8.69869 32.0293 9.40625 31.743 9.94617 31.228L21.9787 31.2443C22.5174 31.7481 23.2199 32.0293 23.9674 32.0293H24.6725C25.9462 32.0293 27.0312 31.233 27.4325 30.0705C29.9212 28.9269 30.9625 27.2105 31.1162 25.9255C31.1312 25.858 31.1388 25.7893 31.1388 25.7206V14.2617C31.4675 14.1093 31.6962 13.7768 31.6962 13.3906L31.6988 8.7255C31.6987 6.81545 30.6374 5.01181 28.6312 3.51306Z" fill="#27323A"/>
<path d="M4.54123 5.05218C7.14244 3.10965 11.4299 1.94971 16.0125 1.94971C20.5937 1.94971 24.8812 3.10965 27.4811 5.05218C28.53 5.83463 29.7788 7.1085 29.7762 8.72592V8.91214H2.24618V8.72592C2.24618 7.10721 3.49496 5.83463 4.54123 5.05218ZM29.2188 13.391V25.626C29.2162 25.6459 29.2149 25.6659 29.2137 25.6835C29.1899 26.1422 28.6112 27.5385 26.2575 28.4859C26.1012 28.5486 25.9642 28.6514 25.8604 28.784C25.7565 28.9165 25.6896 29.0742 25.6662 29.241C25.5936 29.7446 25.1762 30.1097 24.6724 30.1097H23.9674C23.6537 30.1097 23.3612 29.961 23.165 29.7034C22.9825 29.466 22.7012 29.3259 22.4012 29.3259L9.51861 29.3084C9.36896 29.3086 9.22142 29.3437 9.08775 29.411C8.95408 29.4782 8.83797 29.5758 8.74868 29.6959C8.55361 29.9584 8.25868 30.1097 7.93984 30.1097H7.23365C6.7136 30.1097 6.28364 29.7134 6.23613 29.1885C6.20361 28.841 5.98487 28.5359 5.66357 28.3959C3.49729 27.4509 2.95984 26.1171 2.93729 25.7359C2.93729 25.7008 2.93613 25.6646 2.93116 25.6284V13.391C2.93116 12.9559 2.64237 12.5884 2.24609 12.4709V10.1921H29.7761V12.5184C29.4475 12.671 29.2188 13.0034 29.2188 13.391Z" fill="#F4CE73"/>
<path d="M23.5513 11.9458H8.42514C8.07136 11.9458 7.78516 12.232 7.78516 12.5858V17.0932C7.78516 21.4682 10.8514 24.0794 15.9888 24.0794C21.1239 24.0794 24.1913 21.4682 24.1913 17.0932V12.5858C24.1913 12.232 23.9051 11.9458 23.5513 11.9458Z" fill="#27323A"/>
<path d="M12.4834 13.2261H19.6858V15.941H12.4834V13.2261Z" fill="white"/>
<path d="M22.9106 17.0935C22.9106 20.7735 20.4519 22.7997 15.9881 22.7997C11.5232 22.7997 9.06445 20.7735 9.06445 17.0935V13.2261H11.2032V16.581C11.2032 16.9335 11.4882 17.221 11.8432 17.221H20.3256C20.6794 17.221 20.9656 16.9335 20.9656 16.581V13.2261H22.9106V17.0935H22.9106Z" fill="#79CCBF"/>
<path d="M22.4277 6.4658H9.02776C8.90266 6.46579 8.78031 6.42908 8.67587 6.3602C8.57144 6.29133 8.48952 6.19332 8.44025 6.07833C8.33902 5.8446 8.38648 5.5721 8.56148 5.387C9.86899 3.99947 12.669 2.50586 15.729 2.50586C18.7865 2.50586 21.5865 3.99951 22.894 5.387C23.069 5.5721 23.1165 5.8446 23.0152 6.07833C22.914 6.31335 22.6827 6.4658 22.4277 6.4658Z" fill="#27323A"/>
<path d="M10.8809 5.18482H20.5746C19.3635 4.44857 17.6408 3.78613 15.7284 3.78613C13.8159 3.78613 12.0934 4.44857 10.8809 5.18482Z" fill="white"/>
<path d="M17.2264 20.4406C17.2264 21.1255 16.6715 21.6781 15.9889 21.6781C15.304 21.6781 14.7514 21.1256 14.7514 20.4406C14.7514 19.7568 15.304 19.2031 15.9889 19.2031C16.6715 19.2031 17.2264 19.7568 17.2264 20.4406ZM21.0565 19.4006C21.0565 20.0855 20.5027 20.6381 19.819 20.6381C19.1352 20.6381 18.5815 20.0855 18.5815 19.4006C18.5815 18.7181 19.1352 18.1631 19.819 18.1631C20.5027 18.1631 21.0565 18.7181 21.0565 19.4006ZM13.309 19.4006C13.309 20.0855 12.7553 20.6381 12.0715 20.6381C11.3877 20.6381 10.834 20.0855 10.834 19.4006C10.834 18.7181 11.3877 18.1631 12.0715 18.1631C12.7553 18.1631 13.309 18.7181 13.309 19.4006Z" fill="#27323A"/>
</g>
<defs>
<clipPath id="clip0_2147_8870">
<rect width="32" height="32" fill="white"/>
</clipPath>
</defs>
</svg>
