<svg width="28" height="28" viewBox="0 0 28 28" fill="none" xmlns="http://www.w3.org/2000/svg">
<g clip-path="url(#clip0_2147_9858)">
<path d="M17.3423 1.97415C16.5476 1.00003 15.3001 3.53021 13.5321 3.30292C11.7642 3.07476 12.1547 0.413 7.96593 3.17899C4.80607 5.26652 7.81641 6.82849 7.13538 7.06605C6.45516 7.30275 3.18761 7.09766 3.10049 9.56801C3.0125 12.0384 9.53397 16.3326 9.53397 16.3326L15.6837 13.8413C15.6837 13.8413 18.137 2.94744 17.3423 1.97415Z" fill="#8CC153"/>
<path d="M27.9731 7.44738C27.4869 5.25989 24.0843 6.46556 23.3306 6.46556C22.5778 6.46556 25.4942 4.1234 21.8378 3.24072C16.992 2.06918 17.8277 4.33444 16.0042 5.09155C14.1816 5.84861 12.4666 3.96961 11.7856 5.09155C11.1054 6.21349 15.4215 15.2159 15.4215 15.2159L22.2856 15.5261C22.2856 15.5261 28.4593 9.63576 27.9731 7.44738Z" fill="#A0D468"/>
<path d="M10.5 12.2495C10.5 10.3167 12.0672 8.74951 14 8.74951C15.9329 8.74951 17.5 10.3167 17.5 12.2495C17.5 14.1832 15.9329 15.7499 14 15.7499C12.0672 15.7499 10.5 14.1832 10.5 12.2495Z" fill="#FFCE54"/>
<path d="M22.4475 8.3274C22.2782 8.60167 21.9185 8.68627 21.6442 8.51624C21.3707 8.34709 21.2861 7.98735 21.4553 7.71303C21.6254 7.43959 21.9843 7.35498 22.2586 7.52419C22.5321 7.69427 22.6175 8.05314 22.4475 8.3274Z" fill="#434A54"/>
<path d="M22.8973 12.0349C22.0496 13.4046 20.2527 13.8284 18.8821 12.9808C17.5123 12.1332 17.0893 10.3353 17.937 8.96552C18.7847 7.59579 20.5825 7.17282 21.9522 8.02045C23.322 8.86812 23.745 10.6651 22.8973 12.0349Z" fill="#FC6E51"/>
<path d="M4.0914 13.215C6.88304 14.8223 10.4497 13.8619 12.057 11.0694L1.9458 5.24951C0.338493 8.04198 1.29894 11.6086 4.0914 13.215Z" fill="#ED5564"/>
<path d="M5.54632 10.6874C6.94176 11.4915 8.72505 11.0104 9.52914 9.61502L4.47311 6.70459C3.66984 8.10085 4.15011 9.8842 5.54632 10.6874Z" fill="#DA4453"/>
<path d="M0 11.083V13.4166C0 18.6038 2.82068 23.1308 7.01198 25.55C7.00427 25.5876 7 25.6269 7 25.6671C7 25.9893 7.26147 26.2498 7.58364 26.2498H8.3962H19.6046H20.4172C20.7394 26.2498 20.9999 25.9892 20.9999 25.6671C20.9999 25.6269 20.9956 25.5876 20.9888 25.55C25.1793 23.1309 27.9999 18.6038 27.9999 13.4166V11.083H0Z" fill="#AC92EB"/>
<path d="M0 12.2496V13.4168H1.74999C1.74999 13.739 2.01145 13.9996 2.33363 13.9996C2.6558 13.9996 2.91726 13.7389 2.91726 13.4168H4.08361C4.08361 13.739 4.34508 13.9996 4.66725 13.9996C4.98942 13.9996 5.25001 13.7389 5.25001 13.4168H6.41724C6.41724 13.739 6.67788 13.9996 7 13.9996C7.32212 13.9996 7.58364 13.7389 7.58364 13.4168H8.74999C8.74999 13.739 9.01145 13.9996 9.33362 13.9996C9.6558 13.9996 9.91726 13.7389 9.91726 13.4168H11.0836C11.0836 13.739 11.3451 13.9996 11.6673 13.9996C11.9894 13.9996 12.25 13.7389 12.25 13.4167H13.4172C13.4172 13.7389 13.6779 13.9995 14 13.9995C14.3221 13.9995 14.5836 13.7389 14.5836 13.4167H15.75C15.75 13.7389 16.0115 13.9995 16.3336 13.9995C16.6557 13.9995 16.9172 13.7389 16.9172 13.4167H18.0836C18.0836 13.7389 18.3451 13.9995 18.6672 13.9995C18.9894 13.9995 19.25 13.7389 19.25 13.4167H20.4172C20.4172 13.7389 20.6779 13.9995 20.9999 13.9995C21.3221 13.9995 21.5836 13.7389 21.5836 13.4167H22.75C22.75 13.7389 23.0115 13.9995 23.3336 13.9995C23.6558 13.9995 23.9173 13.7389 23.9173 13.4167H25.0836C25.0836 13.7389 25.3451 13.9995 25.6672 13.9995C25.9894 13.9995 26.25 13.7389 26.25 13.4167H28V12.2495L0 12.2496Z" fill="#967ADC"/>
</g>
<defs>
<clipPath id="clip0_2147_9858">
<rect width="28" height="28" fill="white"/>
</clipPath>
</defs>
</svg>
