<svg width="27" height="27" viewBox="0 0 27 27" fill="none" xmlns="http://www.w3.org/2000/svg">
<path d="M27 1.125V6.75C27 7.04837 26.8815 7.33452 26.6705 7.5455C26.4595 7.75647 26.1734 7.875 25.875 7.875C25.5766 7.875 25.2905 7.75647 25.0795 7.5455C24.8685 7.33452 24.75 7.04837 24.75 6.75V2.25H20.25C19.9516 2.25 19.6655 2.13147 19.4545 1.92049C19.2435 1.70952 19.125 1.42337 19.125 1.125C19.125 0.826631 19.2435 0.540484 19.4545 0.329505C19.6655 0.118527 19.9516 0 20.25 0H25.875C26.1734 0 26.4595 0.118527 26.6705 0.329505C26.8815 0.540484 27 0.826631 27 1.125ZM6.75 24.75H2.25V20.25C2.25 19.9516 2.13147 19.6655 1.92049 19.4545C1.70952 19.2435 1.42337 19.125 1.125 19.125C0.826631 19.125 0.540484 19.2435 0.329505 19.4545C0.118527 19.6655 0 19.9516 0 20.25V25.875C0 26.1734 0.118527 26.4595 0.329505 26.6705C0.540484 26.8815 0.826631 27 1.125 27H6.75C7.04837 27 7.33452 26.8815 7.5455 26.6705C7.75647 26.4595 7.875 26.1734 7.875 25.875C7.875 25.5766 7.75647 25.2905 7.5455 25.0795C7.33452 24.8685 7.04837 24.75 6.75 24.75ZM25.875 19.125C25.5766 19.125 25.2905 19.2435 25.0795 19.4545C24.8685 19.6655 24.75 19.9516 24.75 20.25V24.75H20.25C19.9516 24.75 19.6655 24.8685 19.4545 25.0795C19.2435 25.2905 19.125 25.5766 19.125 25.875C19.125 26.1734 19.2435 26.4595 19.4545 26.6705C19.6655 26.8815 19.9516 27 20.25 27H25.875C26.1734 27 26.4595 26.8815 26.6705 26.6705C26.8815 26.4595 27 26.1734 27 25.875V20.25C27 19.9516 26.8815 19.6655 26.6705 19.4545C26.4595 19.2435 26.1734 19.125 25.875 19.125ZM1.125 7.875C1.42337 7.875 1.70952 7.75647 1.92049 7.5455C2.13147 7.33452 2.25 7.04837 2.25 6.75V2.25H6.75C7.04837 2.25 7.33452 2.13147 7.5455 1.92049C7.75647 1.70952 7.875 1.42337 7.875 1.125C7.875 0.826631 7.75647 0.540484 7.5455 0.329505C7.33452 0.118527 7.04837 0 6.75 0H1.125C0.826631 0 0.540484 0.118527 0.329505 0.329505C0.118527 0.540484 0 0.826631 0 1.125V6.75C0 7.04837 0.118527 7.33452 0.329505 7.5455C0.540484 7.75647 0.826631 7.875 1.125 7.875ZM5.625 6.75V20.25C5.625 20.5484 5.74353 20.8345 5.9545 21.0455C6.16548 21.2565 6.45163 21.375 6.75 21.375H20.25C20.5484 21.375 20.8345 21.2565 21.0455 21.0455C21.2565 20.8345 21.375 20.5484 21.375 20.25V6.75C21.375 6.45163 21.2565 6.16548 21.0455 5.9545C20.8345 5.74353 20.5484 5.625 20.25 5.625H6.75C6.45163 5.625 6.16548 5.74353 5.9545 5.9545C5.74353 6.16548 5.625 6.45163 5.625 6.75Z" fill="#C83A2D"/>
</svg>
