<svg width="32" height="32" viewBox="0 0 32 32" fill="none" xmlns="http://www.w3.org/2000/svg">
<circle cx="16" cy="16" r="3" stroke="white" stroke-width="1.5" stroke-linecap="round" stroke-linejoin="round"/>
<path fill-rule="evenodd" clip-rule="evenodd" d="M10.9993 10.6667H9.33268C7.85992 10.6667 6.66602 11.8606 6.66602 13.3333V20C6.66602 21.4728 7.85992 22.6667 9.33268 22.6667H22.666C24.1388 22.6667 25.3327 21.4728 25.3327 20V13.3333C25.3327 11.8606 24.1388 10.6667 22.666 10.6667H20.9993C20.7895 10.6667 20.5919 10.5679 20.466 10.4L19.466 9.06667C18.9624 8.39518 18.172 8 17.3327 8H14.666C13.8267 8 13.0363 8.39518 12.5327 9.06667L11.5327 10.4C11.4068 10.5679 11.2092 10.6667 10.9993 10.6667Z" stroke="white" stroke-width="1.5" stroke-linecap="round" stroke-linejoin="round"/>
<path d="M6.66602 28H5.33268C3.85992 28 2.66602 26.8061 2.66602 25.3333V24" stroke="white" stroke-width="1.5" stroke-linecap="round" stroke-linejoin="round"/>
<path d="M25.334 4H26.6673C28.1401 4 29.334 5.19391 29.334 6.66667V8" stroke="white" stroke-width="1.5" stroke-linecap="round" stroke-linejoin="round"/>
<path d="M25.334 28H26.6673C28.1401 28 29.334 26.8061 29.334 25.3333V24" stroke="white" stroke-width="1.5" stroke-linecap="round" stroke-linejoin="round"/>
<path d="M6.66602 4H5.33268C3.85992 4 2.66602 5.19391 2.66602 6.66667V8" stroke="white" stroke-width="1.5" stroke-linecap="round" stroke-linejoin="round"/>
</svg>
