<svg width="28" height="20" viewBox="0 0 28 20" fill="none" xmlns="http://www.w3.org/2000/svg">
<g clip-path="url(#clip0_3164_7439)">
<path d="M27.9998 10.018C27.9444 10.2751 27.8955 10.4597 27.7566 10.6916C27.5161 11.0934 27.1026 11.4203 26.6441 11.5286C26.1204 11.6523 25.6119 11.5249 25.1608 11.247C24.3456 10.7447 23.6797 9.97057 23.4764 9.01766C23.4071 8.69251 23.4006 8.35048 23.3415 8.02277C23.3142 7.87136 23.2388 7.71719 23.201 7.57101C23.1731 7.46347 23.1862 7.32838 23.2478 7.23509C23.3169 7.13092 23.3936 7.07433 23.5165 7.05005C23.7186 7.01017 23.9124 7.09079 24.1272 7.1025C24.3534 7.11482 24.5691 7.10203 24.791 7.11107C25.4678 7.14026 26.1081 7.26578 26.6781 7.64996C27.4165 8.1476 27.8211 8.72981 27.9998 9.59229V10.018Z" fill="#BEBEBE"/>
<path d="M21.2089 19.2558C20.9389 19.1922 20.7642 19.1499 20.5252 19.0013C19.655 18.4594 19.4536 17.4396 19.9584 16.5677C20.3036 15.9716 20.6878 15.5451 21.271 15.1761C21.8664 14.7995 22.4159 14.7798 23.0835 14.6585C23.3033 14.6186 23.4906 14.4476 23.7403 14.5094C23.8487 14.5373 23.9419 14.6067 23.9999 14.7025C24.1411 14.9374 24.0003 15.1228 24.0068 15.3691C24.0221 15.9566 24.0516 16.5413 23.8949 17.1168C23.6294 18.0923 22.8151 18.9895 21.8115 19.2169C21.7539 19.2301 21.6968 19.2414 21.6396 19.2558H21.2089Z" fill="#BEBEBE"/>
<path d="M13.8807 0H14.1051C14.4572 0.155421 14.4689 0.358386 14.4006 0.704661C14.3542 0.940895 14.3919 1.21331 14.3929 1.45283C14.3946 1.90618 14.354 2.36733 14.2099 2.79965C13.8238 3.95022 12.5177 5.09638 11.2406 4.66775C10.8079 4.52251 10.415 4.16192 10.2178 3.75128C10.0257 3.3618 10.0068 2.83523 10.1704 2.42292C10.56 1.44105 11.4593 0.565482 12.5026 0.320825C12.8341 0.243094 13.1586 0.23346 13.487 0.151256C13.6337 0.114548 13.7471 0.063895 13.8807 0Z" fill="#BEBEBE"/>
<path d="M0 7.47229C0.140127 7.16248 0.277443 7.13336 0.602431 7.13492C0.872155 7.13621 1.17669 7.04742 1.4451 7.00013C2.28462 6.8522 3.01612 6.88518 3.79412 7.25522C4.74901 7.7094 5.63546 8.74236 5.09112 9.84511C4.88838 10.2608 4.52781 10.5781 4.08978 10.7263C2.86437 11.1379 1.07503 10.0672 0.591481 8.92694C0.49161 8.69144 0.413284 8.44331 0.311263 8.20819C0.222476 8.00471 0.0675724 7.84755 0 7.67717V7.47229Z" fill="#BEBEBE"/>
<path d="M15.8439 11.7935C16.4763 11.724 17.1861 12.1008 17.6764 12.4607C18.26 12.889 18.7371 13.5139 18.9546 14.2066C19.0354 14.4899 19.1148 14.7676 19.1967 15.0511C19.2852 15.3571 19.6224 15.6644 19.3899 15.9765C19.1808 16.257 18.9075 16.1236 18.6196 16.1638C18.3626 16.1998 18.1124 16.2623 17.8545 16.2969L17.7662 16.307C16.8032 16.4134 16.0322 16.2456 15.2591 15.6358C14.7343 15.2114 14.2979 14.586 14.2266 13.9019C14.121 12.8904 14.8028 11.9008 15.8439 11.7935Z" fill="#BEBEBE"/>
<path d="M14.517 4.54348C14.7727 4.5319 14.9642 4.72087 15.2028 4.77418C16.2848 5.01606 17.2425 5.37788 17.8764 6.34171C18.5474 7.36216 18.6561 8.69035 17.5285 9.4338C16.8922 9.82867 16.0885 9.85281 15.4754 9.41192C14.5766 8.76558 13.922 7.55609 14.0028 6.43457C14.0121 6.10264 14.1216 5.75392 14.1367 5.42558C14.1545 5.03655 13.9726 4.6479 14.517 4.54348Z" fill="#BEBEBE"/>
<path d="M11.3157 14.5016C11.8746 14.4715 12.3073 14.6371 12.7869 14.9153C13.5686 15.3684 14.2214 16.0634 14.4593 16.9517C14.528 17.2088 14.5721 17.4767 14.6429 17.7342C14.7251 18.0333 15.0349 18.3413 14.7725 18.6381C14.5517 18.8916 14.2613 18.7473 13.9754 18.7614C13.7323 18.7733 13.4938 18.8031 13.2512 18.8168C12.203 18.8661 11.4142 18.7052 10.5742 18.0329C9.54433 17.2086 9.18803 15.7704 10.3392 14.8675C10.6241 14.6441 10.955 14.5337 11.3157 14.5016Z" fill="#BEBEBE"/>
<path d="M7.94776 4.76582C8.17102 4.73558 8.48531 4.75973 8.70715 4.79111C9.8729 4.95595 11.1254 5.82078 10.9187 7.14646C10.8142 7.81676 10.3834 8.35192 9.73032 8.55851C9.2632 8.70815 8.81814 8.6595 8.34185 8.58342C7.74279 8.46699 7.23389 8.25872 6.7465 7.88981C6.2911 7.55963 6.0639 7.11307 5.71311 6.68841C5.5012 6.43189 5.03906 6.24109 5.337 5.79972C5.46814 5.61718 5.75214 5.61961 5.92166 5.52664C6.58658 5.16199 7.17909 4.84103 7.94776 4.76582Z" fill="#BEBEBE"/>
<path d="M18.0811 2.27226C18.2796 2.25358 18.4147 2.33684 18.6024 2.33938C19.3508 2.34528 20.0466 2.33874 20.7476 2.63847C22.1946 3.25715 23.3212 5.19621 21.8384 6.43911C21.2564 6.88855 20.5169 6.93111 19.8734 6.58802C18.9716 6.10727 18.2047 5.24227 18.0014 4.22267C17.9179 3.77038 17.9353 3.33284 17.7611 2.89908C17.6363 2.58858 17.7819 2.36598 18.0811 2.27226Z" fill="#BEBEBE"/>
<path d="M5.17644 11.4667C6.01179 11.3813 6.75239 12.0186 7.22015 12.6384C7.62218 13.1712 7.88038 13.8259 7.86125 14.5008C7.85392 14.7589 7.82178 15.0124 7.81688 15.2705C7.8118 15.4612 7.89062 15.7146 7.86568 15.8772C7.85053 15.9826 7.79296 16.0773 7.70631 16.1394C7.4449 16.3288 7.1986 16.1526 6.92761 16.0845C6.76909 16.0447 6.64439 16.0241 6.48185 15.9999C5.23729 15.8286 4.12288 15.1994 3.64695 13.9851C3.40448 13.3665 3.43661 12.6544 3.88068 12.129C4.20761 11.745 4.67376 11.5067 5.17644 11.4667Z" fill="#BEBEBE"/>
<path d="M20.5021 8.86879C20.5628 8.8613 20.6681 8.86721 20.7307 8.87224C21.4126 8.92696 21.952 9.38266 22.3759 9.88386C22.8435 10.4366 23.1515 11.1384 23.1539 11.8687C23.147 12.1341 23.1254 12.3953 23.1182 12.6612C23.1101 12.9564 23.316 13.3024 23.0375 13.5291C22.7819 13.7372 22.5237 13.5637 22.2559 13.4953C22.1046 13.4567 21.9572 13.4368 21.8034 13.4171C21.0881 13.3093 20.3916 13.0956 19.8352 12.6161C19.2929 12.1501 18.8803 11.5017 18.8155 10.7779C18.7232 9.74544 19.5051 8.9477 20.5021 8.86879Z" fill="#BEBEBE"/>
<path d="M11.2851 9.30585C11.7664 9.29403 12.2011 9.37147 12.6362 9.58465C12.8542 9.69146 13.0643 9.81886 13.2873 9.91692C13.4471 9.98699 13.62 9.99503 13.778 10.071C13.9903 10.1731 14.0667 10.4619 13.9478 10.6609C13.8636 10.8016 13.7204 10.9091 13.6354 11.0526C13.5162 11.2537 13.4011 11.4594 13.2747 11.6562C12.7851 12.4033 12.2763 12.8628 11.4123 13.1068C11.2312 13.1554 11.0456 13.185 10.8585 13.1952C10.3011 13.2254 9.76113 13.0941 9.34046 12.7162C8.62338 12.0719 8.53045 10.8512 9.20312 10.1415C9.71492 9.60161 10.5618 9.33815 11.2851 9.30585Z" fill="#BEBEBE"/>
</g>
<defs>
<clipPath id="clip0_3164_7439">
<rect width="28" height="19.2561" fill="white"/>
</clipPath>
</defs>
</svg>
