<svg width="32" height="32" viewBox="0 0 32 32" fill="none" xmlns="http://www.w3.org/2000/svg">
<path d="M14.7366 19.6411C13.552 21.0256 12.4052 21.8446 12.4052 21.8446C12.4052 21.8446 5.61269 20.3288 4.32159 15.1056C4.29743 15.0109 4.27587 14.9143 4.25628 14.817C3.14934 9.36 4.68077 3.98138 7.97351 0.000976562C12.5567 2.38334 16.0636 6.73992 17.1706 12.1969C17.7884 15.2415 16.2328 17.8929 14.7366 19.6411Z" fill="#5B5B68"/>
<path d="M7.98226 14.0601C9.08065 19.4742 12.3537 21.8073 12.4045 21.8433C12.2959 21.819 5.35467 20.2301 4.25629 14.816C3.14922 9.35922 4.68117 3.98093 7.9739 0C6.95317 3.52 6.87519 8.6033 7.98226 14.0601Z" fill="#40404C"/>
<path d="M11.2455 16.6218C11.0173 16.6218 10.8131 16.4615 10.766 16.2293L8.44153 4.77186C8.38771 4.50672 8.55901 4.24824 8.82415 4.19449C9.08917 4.14055 9.34778 4.31198 9.40152 4.57712L11.726 16.0345C11.7798 16.2996 11.6085 16.5581 11.3433 16.6119C11.3106 16.6186 11.2778 16.6218 11.2455 16.6218Z" fill="#40404C"/>
<path d="M14.7363 19.641C13.5517 21.0255 12.4049 21.8444 12.4049 21.8444C12.4049 21.8444 5.61239 20.3287 4.32129 15.1055C8.13517 15.2616 11.8779 16.7989 14.7363 19.641Z" fill="#40404C"/>
<path d="M15.1087 13.3515C11.2409 17.3568 13.9387 24.0482 13.9387 24.0482C13.9387 24.0482 20.7203 26.5105 24.588 22.5051C28.4557 18.4998 30.0567 13.1413 29.4212 8.01487C24.2756 7.55883 18.9764 9.34613 15.1087 13.3515Z" fill="#5B5B68"/>
<path d="M17.8435 15.9922C14.006 19.9662 13.9395 23.9851 13.9385 24.0473C13.897 23.9441 11.2711 17.3253 15.1085 13.3512C18.9762 9.34583 24.2753 7.55899 29.4214 8.01483C25.943 9.16937 21.7112 11.9868 17.8435 15.9922Z" fill="#40404C"/>
<path d="M17.5014 20.8482C17.3782 20.8482 17.2549 20.8019 17.1596 20.7091C16.9659 20.5203 16.962 20.2102 17.1508 20.0166L22.3293 14.7037L24.0822 12.8885L25.7507 11.1106C25.9358 10.9134 26.2458 10.9036 26.443 11.0887C26.6403 11.2738 26.6501 11.5838 26.465 11.781L24.7941 13.5614C24.7926 13.5631 24.7909 13.5648 24.7893 13.5665L23.0324 15.3859L17.8522 20.7003C17.7563 20.7987 17.6289 20.8482 17.5014 20.8482Z" fill="#40404C"/>
<path d="M6.01877 29.5107C9.15458 33.3213 15.3192 31.6224 15.3192 31.6224C15.3192 31.6224 18.1729 25.9 15.0371 22.0894C11.9014 18.2789 7.34488 16.3275 2.76672 16.3688C1.84499 20.8534 2.88303 25.7002 6.01877 29.5107Z" fill="#FFCA5E"/>
<path d="M8.62039 27.3693C11.7316 31.1501 15.2637 31.6149 15.3184 31.6221C15.2233 31.6482 9.12971 33.2913 6.01846 29.5105C2.88272 25.7 1.84508 20.8533 2.76674 16.3682C3.43162 19.5477 5.48465 23.5588 8.62039 27.3693Z" fill="#E8A328"/>
</svg>
