<svg width="24" height="32" viewBox="0 0 24 32" fill="none" xmlns="http://www.w3.org/2000/svg">
<path d="M22.9473 1.38684C22.9473 1.38684 20.7557 4.35239 20.4338 5.67423C20.4338 5.67423 21.3036 8.28355 20.112 10.6036C18.9185 12.9254 14.5696 16.9524 13.7631 18.2742C12.9566 19.5961 11.6041 22.2054 10.4124 23.2687C9.54264 24.0426 6.41432 27.1293 3.44153 29.5018C2.33307 30.386 1.24449 31.1726 0.304199 31.7006C0.343986 31.612 1.64051 28.773 2.02205 25.5995C2.40903 22.3772 3.8267 16.9162 6.66207 12.4064C8.90795 8.83689 10.2298 7.73024 11.3871 7.19861C11.9983 6.91833 12.5335 6.49521 12.9169 5.94368C13.8065 4.66343 15.2839 2.32895 15.7938 2.12823C16.3255 1.91848 17.2169 2.2096 17.9222 2.52244C18.3073 2.69242 18.6364 2.86601 18.8209 2.9709C18.8299 2.97632 18.8389 2.97994 18.848 2.98536C18.8516 2.98716 18.8588 2.9926 18.8697 2.99802C18.942 3.03781 18.9836 3.06311 18.9836 3.06311C18.9836 3.06311 22.206 0.549629 22.819 0.323596C22.8407 0.31456 22.8624 0.309125 22.8822 0.305511C23.3958 0.191559 22.9473 1.38684 22.9473 1.38684Z" fill="#D52645"/>
<path d="M0.22998 31.7747L0.271145 31.6832C0.410311 31.3751 1.62106 28.63 1.9864 25.5917C2.38481 22.2737 3.84032 16.824 6.63116 12.3849C8.9981 8.62309 10.3078 7.65282 11.3704 7.16466C11.9965 6.87754 12.5209 6.44746 12.8869 5.9209C13.0714 5.65544 13.2807 5.34511 13.5025 5.01659C14.3756 3.7228 15.3652 2.25639 15.7789 2.09358C16.3318 1.87534 17.2554 2.18784 17.9327 2.48829C18.3898 2.69004 18.7384 2.88369 18.8344 2.93825C18.8387 2.94088 18.8426 2.94276 18.8464 2.94463C18.8516 2.94726 18.8568 2.9499 18.8621 2.95302L18.8681 2.9567C18.8714 2.95874 18.8758 2.96164 18.8816 2.96447C18.9261 2.98894 18.9589 3.00793 18.9782 3.01924C19.2632 2.79725 22.2108 0.507614 22.8046 0.288621C22.8245 0.280355 22.8474 0.273808 22.8735 0.269031C22.9671 0.248291 23.0406 0.266465 23.0903 0.323643C23.285 0.547843 23.0077 1.30855 22.9755 1.39458L22.9711 1.40261C22.9492 1.43213 20.7897 4.36434 20.4653 5.66913C20.5203 5.843 21.2874 8.37815 20.1385 10.6148C19.4175 12.0174 17.5259 14.0648 16.0059 15.71C14.9872 16.8126 14.1075 17.7648 13.7884 18.2876C13.6169 18.5687 13.4175 18.9137 13.2062 19.2791C12.4328 20.6169 11.3734 22.4491 10.4316 23.2895C10.2181 23.4794 9.86472 23.8123 9.41737 24.2338C8.02796 25.5428 5.70249 27.7336 3.45929 29.5237C2.22972 30.5046 1.17263 31.2454 0.317479 31.7255L0.22998 31.7747ZM16.2208 2.0861C16.0668 2.0861 15.9251 2.10699 15.8031 2.15512C15.4085 2.31043 14.3821 3.83143 13.5573 5.05362C13.3355 5.38233 13.126 5.69282 12.9412 5.95868C12.5685 6.49493 12.0348 6.93275 11.398 7.22478C10.3447 7.70867 9.04488 8.673 6.68719 12.4201C3.90215 16.8499 2.44967 22.2884 2.05206 25.5996C1.70881 28.4542 0.621796 31.0506 0.372406 31.6184C1.20874 31.1391 2.2328 30.4175 3.41807 29.472C5.65911 27.6836 7.98335 25.4939 9.37202 24.1856C9.81975 23.7638 10.1734 23.4306 10.3876 23.2401C11.3215 22.4068 12.3777 20.5799 13.149 19.2459C13.3604 18.8803 13.5601 18.5349 13.732 18.2532C14.0544 17.7247 14.9362 16.7703 15.9573 15.6651C17.4746 14.0229 19.3628 11.9791 20.0796 10.5845C21.251 8.3041 20.4083 5.70675 20.3996 5.6808L20.3966 5.67176L20.3988 5.66251C20.7133 4.3708 22.8254 1.48892 22.9151 1.36707C22.9997 1.14009 23.1826 0.530731 23.0404 0.367007C23.0074 0.329091 22.9571 0.318285 22.8865 0.333868C22.8639 0.338039 22.8454 0.343309 22.8287 0.350223C22.2263 0.572426 19.0332 3.0602 19.0011 3.08528L18.9831 3.09934L18.9636 3.08746C18.9632 3.08725 18.9221 3.06229 18.8509 3.02307C18.8438 3.01958 18.8372 3.01547 18.8325 3.01249C18.8244 3.00759 18.8206 3.0057 18.8167 3.00382C18.8116 3.00119 18.8063 2.99854 18.8011 2.99543C18.7064 2.94161 18.3603 2.74931 17.9059 2.54881C17.3929 2.32122 16.7377 2.0861 16.2208 2.0861Z" fill="#FEFEFF"/>
<path d="M3.22388 24.2233C3.81744 22.807 4.51764 21.4369 5.31372 20.1239C5.58521 19.6894 5.86789 19.2606 6.18407 18.8556C6.23048 18.7968 6.32823 18.8559 6.28985 18.926C5.62732 20.1148 4.72843 21.7437 4.07843 22.9392C3.83358 23.3861 3.58849 23.8337 3.33658 24.2775C3.29963 24.3431 3.19445 24.2969 3.22388 24.2233Z" fill="#D52645"/>
<path d="M7.91324 14.8116C8.60647 13.1193 9.95834 10.8043 11.4285 9.70386C11.4438 9.69273 11.4651 9.69602 11.4763 9.71122C11.4864 9.72509 11.4845 9.74411 11.4726 9.75576C10.5784 10.68 9.86023 11.767 9.17003 12.8465C8.88514 13.29 8.23179 14.3661 7.94758 14.8285C7.93704 14.8477 7.90397 14.8331 7.91324 14.8116Z" fill="white"/>
<path d="M7.97378 18.416C8.52922 17.0038 9.56508 15.2336 10.7752 14.3011C10.8067 14.2778 10.8495 14.321 10.8207 14.3518C10.1359 15.1237 9.56193 15.9878 9.00717 16.8547C8.67044 17.379 8.34716 17.9076 8.0081 18.4329C8.00249 18.4419 7.99063 18.4446 7.98162 18.439C7.97381 18.4342 7.97081 18.4243 7.97378 18.416Z" fill="#D52645"/>
<path d="M12.0328 15.7775C12.5376 14.5254 13.4552 13.0316 14.4966 12.1644C14.5266 12.1392 14.5711 12.1818 14.5448 12.2125C13.8715 13.0707 13.2774 13.9779 12.6782 14.8873C12.4783 15.191 12.2768 15.4947 12.0667 15.7951C12.0551 15.813 12.0241 15.7986 12.0328 15.7775Z" fill="#D52645"/>
<path d="M16.1824 13.1743C16.6114 12.1193 17.3526 10.9082 18.2292 10.1729C18.2542 10.1519 18.291 10.1873 18.2692 10.2128C17.7121 10.9224 17.2148 11.6821 16.7186 12.4348C16.5525 12.6871 16.3852 12.9394 16.2106 13.189C16.2011 13.2039 16.1751 13.1919 16.1824 13.1743Z" fill="#D52645"/>
<path d="M15.6571 10.5338C15.9397 9.91402 16.336 9.35661 16.7873 8.84954C16.9412 8.68325 17.1018 8.52117 17.2862 8.38336C17.3015 8.37191 17.3232 8.37504 17.3346 8.39036C17.3434 8.40209 17.3434 8.41788 17.3362 8.4296C17.0961 8.81155 16.838 9.17268 16.567 9.53134C16.2925 9.88858 16.0133 10.2388 15.6886 10.5555C15.6744 10.5701 15.6481 10.5526 15.6571 10.5338Z" fill="white"/>
<path d="M14.4148 8.42955C15.0878 7.20889 15.837 6.03009 16.6698 4.91196C16.9536 4.54315 17.2454 4.18001 17.5619 3.83842C17.6031 3.79308 17.6778 3.8524 17.638 3.90294C16.7975 5.00667 16.0161 6.15357 15.2554 7.31387L14.5005 8.47972C14.4687 8.53023 14.3841 8.48798 14.4148 8.42955Z" fill="#D52645"/>
<path d="M5.61091 25.2967C6.19548 24.3604 6.82259 23.4481 7.38321 22.5007C7.52759 22.2601 7.68048 22.0252 7.8415 21.7972C8.30844 21.1176 8.89839 20.5209 9.28682 19.7929C9.31619 19.7314 9.4153 19.7669 9.39265 19.8357C9.20751 20.37 8.86443 20.8263 8.54459 21.2814C8.22313 21.7312 7.90189 22.1749 7.62084 22.6423C7.32852 23.117 7.01362 23.5746 6.68005 24.02C6.34779 24.4644 6.00279 24.8987 5.63411 25.3142C5.62347 25.3271 5.60087 25.3113 5.61091 25.2967Z" fill="#D52645"/>
<g opacity="0.25">
<path d="M19.0465 12.1916C19.0465 12.1934 19.0447 12.1934 19.0447 12.1953C17.2925 14.452 14.401 17.2222 13.7591 18.2747C12.9526 19.5965 11.6 22.2058 10.4084 23.2691C9.5386 24.043 6.41029 27.1297 3.4375 29.5022C6.50432 26.5131 9.93281 21.4247 10.5259 19.573C11.3414 17.0233 12.2022 16.7069 16.1948 11.9801C18.8114 8.8825 18.7391 5.78314 18.3774 4.01465C19.2779 4.82294 21.2435 7.28942 19.0465 12.1916Z" fill="#D52645"/>
</g>
<g opacity="0.25">
<path d="M22.9417 1.38441C22.9417 1.38441 21.0846 3.89789 20.5385 5.32824C20.3468 4.80203 19.6199 3.13662 17.9563 2.61222C17.931 2.55073 17.9165 2.51999 17.9165 2.51999L18.8152 2.96846L18.8405 2.98111C18.8405 2.98111 18.8405 2.98111 18.8423 2.98292C18.8459 2.98472 18.8532 2.99016 18.864 2.99558C19.0159 3.09865 19.8658 3.6339 20.5096 3.39882C21.1352 3.17279 22.5547 0.841936 22.8766 0.303068C23.3901 0.189129 22.9417 1.38441 22.9417 1.38441Z" fill="#D52645"/>
</g>
<g opacity="0.35">
<path d="M2.7867 26.012C3.17368 22.7896 4.59135 17.3287 7.42672 12.8188C9.6726 9.24932 10.9944 8.14266 12.1517 7.61103C12.7629 7.33076 13.2982 6.90762 13.6815 6.3561C14.5712 5.07585 16.0485 2.74137 16.5585 2.54066C17.0901 2.3309 17.9816 2.62204 18.6868 2.93486C19.072 3.10484 19.4011 3.27843 19.5855 3.38332C19.5946 3.38875 19.6036 3.39236 19.6126 3.39778C19.6163 3.39959 19.6235 3.40502 19.6343 3.41045C19.7067 3.45023 19.7483 3.47554 19.7483 3.47554C19.7483 3.47554 21.9303 1.77367 23.0445 1.04513C23.1354 0.701214 23.2051 0.229495 22.8735 0.303078C22.8536 0.306693 22.8319 0.312128 22.8102 0.321165C22.1972 0.547197 18.9748 3.06068 18.9748 3.06068C18.9748 3.06068 18.9333 3.03538 18.8609 2.99559C18.8501 2.99017 18.8428 2.98475 18.8392 2.98293C18.8302 2.9775 18.8211 2.97389 18.8121 2.96847C18.6276 2.86359 18.2985 2.68998 17.9134 2.52C17.2082 2.20718 16.3167 1.91604 15.785 2.1258C15.2751 2.32652 13.7978 4.661 12.9081 5.94124C12.5247 6.49278 11.9895 6.9159 11.3783 7.19618C10.221 7.72781 8.89916 8.83447 6.65328 12.404C3.81791 16.9138 2.40024 22.3748 2.01327 25.5971C1.63172 28.7706 0.335197 31.6096 0.29541 31.6982C0.693015 31.4749 0.240205 31.5734 0.681123 31.2698C1.10196 30.1315 2.55372 27.9497 2.7867 26.012Z" fill="white"/>
</g>
<path d="M19.1415 2.85657C19.4691 3.19214 19.6853 3.63727 19.7548 4.09839C19.4915 3.77334 19.1795 3.48915 18.8211 3.27771C18.4462 3.06445 18.8297 2.5542 19.1415 2.85657Z" fill="#D52645"/>
<path d="M20.1788 5.75333C20.1223 5.36346 20.0617 4.96411 19.9557 4.5851C19.9447 4.55086 19.9642 4.51399 19.9988 4.504C20.0257 4.49621 20.0536 4.50692 20.0689 4.52851C20.2471 4.78278 20.3933 5.05072 20.5406 5.32155C20.5893 5.41258 20.6371 5.50245 20.6846 5.59647C20.8489 5.97949 20.2605 6.16247 20.1788 5.75333Z" fill="#D52645"/>
<path d="M0.297801 32C0.22461 32 0.152101 31.973 0.0956944 31.9209C0.000840038 31.8333 -0.0266873 31.6945 0.0274954 31.5773C0.0406397 31.5489 1.34457 28.7009 1.7209 25.5652C2.12241 22.2193 3.59006 16.7239 6.4051 12.2481C8.80894 8.42612 10.1582 7.43287 11.2582 6.92884C11.8398 6.6623 12.327 6.26307 12.667 5.7743C12.8525 5.50764 13.0639 5.19445 13.2878 4.86283C14.437 3.16027 15.2242 2.03091 15.6789 1.85201C16.6277 1.47877 18.3669 2.37574 18.9537 2.7056C19.6605 2.15762 22.1326 0.25785 22.7103 0.045025C23.0098 -0.0653499 23.1874 0.0520908 23.2667 0.131854C23.5454 0.412158 23.3957 1.02638 23.2209 1.49232C23.2112 1.51818 23.198 1.54256 23.1816 1.56474C23.1605 1.59334 21.1069 4.38133 20.7382 5.66748C20.884 6.15915 21.4968 8.55009 20.371 10.7407C19.6344 12.1741 17.7293 14.236 16.1986 15.8927C15.1889 16.9855 14.3169 17.9292 14.0118 18.4295C13.8427 18.7068 13.645 19.0489 13.4356 19.4111C12.6085 20.8417 11.5794 22.6221 10.6042 23.4918C10.397 23.6766 10.0524 24.0013 9.61619 24.4124C7.57399 26.3372 3.32448 30.3423 0.44354 31.9618C0.397901 31.9874 0.347674 32 0.297801 32ZM16.216 2.35505C16.0941 2.35505 15.9861 2.37091 15.8969 2.40602C15.5724 2.54232 14.4511 4.20344 13.7812 5.19594C13.5562 5.52931 13.3436 5.84421 13.1558 6.11429C12.7549 6.6904 12.1845 7.15924 11.5062 7.47007C10.4901 7.9357 9.22983 8.87521 6.90906 12.5651C4.1466 16.9573 2.70615 22.3515 2.31199 25.6362C2.04675 27.8467 1.35427 29.8737 0.925421 30.9724C3.69374 29.1763 7.36103 25.7199 9.20792 23.9792C9.64745 23.5649 9.99464 23.2377 10.2079 23.0475C11.1118 22.2414 12.1569 20.4334 12.9201 19.1131C13.1313 18.7478 13.3308 18.4028 13.5035 18.1196C13.8394 17.5687 14.73 16.6048 15.7613 15.4886C17.2675 13.8585 19.142 11.8298 19.8415 10.4686C20.9602 8.29171 20.1543 5.79276 20.146 5.76776C20.1285 5.71478 20.1261 5.65764 20.1393 5.60339C20.4565 4.30301 22.4168 1.60081 22.6772 1.24565C22.7536 1.03224 22.8097 0.796315 22.8239 0.646166C22.2518 0.943962 20.3193 2.3952 19.1614 3.29831C19.0645 3.37391 18.9311 3.38214 18.8255 3.31905C18.1368 2.90731 16.9349 2.35505 16.216 2.35505Z" fill="#D52645"/>
</svg>
