<svg width="32" height="32" viewBox="0 0 32 32" fill="none" xmlns="http://www.w3.org/2000/svg">
<path d="M21.99 20.7101C21.7754 20.7101 21.5802 20.563 21.5271 20.3453C21.5061 20.259 21.0351 18.2068 23.1085 16.1335C23.2942 15.9477 23.5954 15.9477 23.7811 16.1335C23.9669 16.3192 23.9669 16.6203 23.7811 16.8061C22.1037 18.4835 22.4371 20.0574 22.4521 20.1236C22.5144 20.3788 22.3575 20.6343 22.1023 20.6965C22.0647 20.7057 22.0271 20.7101 21.99 20.7101Z" fill="#F1562E"/>
<path d="M22.8952 21.0672C22.8716 21.0672 22.8479 21.0654 22.8239 21.0618C22.5642 21.0228 22.3852 20.7805 22.4243 20.5208C22.4375 20.4329 22.7789 18.3553 25.4832 17.2217C25.7253 17.1202 26.0041 17.2342 26.1057 17.4764C26.2072 17.7187 26.0932 17.9973 25.8509 18.0989C23.6345 19.0279 23.3674 20.6459 23.3649 20.6621C23.3295 20.898 23.1266 21.0672 22.8952 21.0672Z" fill="#F1562E"/>
<path d="M20.2296 20.784C20.0425 20.784 19.8644 20.6724 19.7883 20.489C19.7543 20.4069 18.9745 18.4512 20.7056 16.0845C20.8607 15.8724 21.1583 15.8264 21.3703 15.9815C21.5823 16.1365 21.6285 16.4342 21.4733 16.6461C20.0728 18.5608 20.6434 20.065 20.6684 20.1281C20.769 20.3707 20.6532 20.6472 20.4106 20.7479C20.3513 20.7724 20.29 20.784 20.2296 20.784Z" fill="#F1562E"/>
<path d="M18.4773 10.8154H24.3427C28.5716 10.8154 31.9998 14.2436 31.9998 18.4725C31.9998 22.1611 29.37 25.3255 25.7436 26.0003L22.7603 26.5555L21.4963 23.2737L25.0396 21.1089C25.5713 20.784 25.8956 20.2059 25.8956 19.5827C25.8956 18.5951 25.0949 17.7943 24.1071 17.7943H18.4053L18.4773 10.8154Z" fill="#FD7E42"/>
<path d="M4.83757 17.6422C2.73926 17.6422 1.17607 16.9916 0.44576 15.7492C-0.408865 14.2953 -0.0264273 12.2674 1.52264 10.0393C2.99801 7.91713 5.37751 5.82738 8.22276 4.155C12.7249 1.50869 17.4351 0.462565 20.2224 1.48981C20.4689 1.58063 20.5951 1.85406 20.5042 2.1005C20.4134 2.347 20.1399 2.47325 19.8935 2.38231C17.4018 1.464 12.9054 2.506 8.70476 4.97506C3.2707 8.16913 -0.135927 12.8823 1.26582 15.2672C2.09139 16.6717 4.58432 17.0715 7.77201 16.3103C8.02732 16.2494 8.28407 16.4069 8.34507 16.6625C8.40607 16.918 8.24839 17.1746 7.99289 17.2356C6.85001 17.5084 5.78864 17.6422 4.83757 17.6422Z" fill="#FD7E42"/>
<path d="M7.43245 17.2139C7.40958 17.2139 7.38652 17.2123 7.3632 17.2089C3.6352 16.6652 1.21989 15.1046 0.902391 13.0344C0.646704 11.3673 1.75264 9.62507 4.01639 8.12869C6.17252 6.70344 9.15652 5.64294 12.4188 5.14263C17.5806 4.35075 22.3435 5.12257 24.5526 7.10857C24.748 7.28419 24.7639 7.58494 24.5883 7.78025C24.4126 7.97563 24.1119 7.99157 23.9166 7.81594C21.9418 6.04057 17.3793 5.34407 12.563 6.08282C9.43377 6.56282 6.58483 7.57113 4.54095 8.92225C2.63283 10.1836 1.64933 11.6299 1.84264 12.8902C2.08964 14.5005 4.25764 15.7946 7.50052 16.2676C7.76045 16.3055 7.94039 16.5469 7.90252 16.8069C7.86802 17.0435 7.66477 17.2139 7.43245 17.2139Z" fill="#FD7E42"/>
<path d="M27.9316 11.707C29.5195 13.11 30.5211 15.1612 30.5211 17.4467C30.5211 21.1353 27.8913 24.2997 24.265 24.9745L22.293 25.3415L22.7603 26.5551L25.7436 25.9999C29.37 25.325 31.9998 22.1607 31.9998 18.4721C31.9998 15.5402 30.3517 12.9935 27.9316 11.707Z" fill="#FC5327"/>
<path d="M25.0372 14.337C25.7122 14.5702 26.7675 13.3131 27.4718 11.482C26.6518 11.1144 25.7554 10.8872 24.813 10.8301C24.3139 12.6027 24.3913 14.1138 25.0372 14.337Z" fill="#FC5327"/>
<path d="M30.5181 13.9453C28.8903 15.0665 27.9062 16.3999 28.2946 17.0037C28.6614 17.5742 30.1286 17.3001 31.7191 16.4118C31.4681 15.5118 31.0569 14.6789 30.5181 13.9453Z" fill="#FC5327"/>
<path d="M31.6767 20.6724C29.992 20.182 28.5691 20.2379 28.3371 20.8568C28.1181 21.4409 29.0282 22.3443 30.4694 23.0646C31.0047 22.3506 31.4159 21.5421 31.6767 20.6724Z" fill="#FC5327"/>
<path d="M30.5067 16.9809C30.8904 16.8364 31.3002 16.6456 31.7189 16.4117C31.468 15.5118 31.0567 14.6789 30.5179 13.9453C30.2975 14.0971 30.0895 14.2528 29.8945 14.41C30.2389 15.2061 30.452 16.0721 30.5067 16.9809Z" fill="#ED4322"/>
<path d="M29.9485 20.3525C29.6943 20.9719 29.3613 21.5526 28.96 22.0805C29.3351 22.4159 29.8533 22.7569 30.4688 23.0645C31.0041 22.3505 31.4153 21.542 31.6762 20.6722C31.0477 20.4894 30.4558 20.3826 29.9485 20.3525Z" fill="#ED4322"/>
<path d="M20.6144 22.3567L14.0652 23.7062C13.6697 23.7877 13.4394 24.2022 13.5792 24.5812C13.6775 24.8476 13.9352 25.0214 14.219 25.0125L17.422 24.9126C17.565 24.9082 17.6199 25.0972 17.4967 25.1699L14.5472 26.911C13.9471 27.2652 14.2872 28.1873 14.9736 28.0671L18.3472 27.4758C18.4881 27.4511 18.5692 27.6304 18.4575 27.7199L15.9569 29.7239C15.7353 29.9015 15.6521 30.2009 15.7504 30.4674C15.8902 30.8463 16.3345 31.012 16.6882 30.8171L22.545 27.5905C23.532 27.0467 23.9734 25.8632 23.5834 24.8059L23.2122 23.7999C22.8222 22.7427 21.7181 22.1293 20.6144 22.3567Z" fill="#FD7E42"/>
<path d="M23.5831 24.8064L23.212 23.8004C22.888 22.9221 22.0711 22.3507 21.1711 22.3125L21.2191 22.4424C21.6091 23.4997 21.1677 24.6832 20.1807 25.227L15.0488 28.0542L18.3469 27.4762C18.4878 27.4515 18.5688 27.6308 18.4572 27.7202L15.9566 29.7242C15.735 29.9019 15.6518 30.2013 15.7501 30.4678C15.8898 30.8467 16.3341 31.0124 16.6879 30.8174L22.5446 27.5909C23.5317 27.0472 23.9731 25.8637 23.5831 24.8064Z" fill="#FC5327"/>
<path d="M20.5665 14.3714C20.5665 17.2279 20.273 19.5436 17.4165 19.5436C14.5599 19.5436 4.4082 17.2279 4.4082 14.3714C4.4082 11.5149 14.56 9.19922 17.4165 9.19922C20.273 9.19922 20.5665 11.5149 20.5665 14.3714Z" fill="#FD7E42"/>
<path d="M17.4505 9.2002C17.7046 10.0666 17.7541 11.145 17.7541 12.3144C17.7541 15.1709 17.4607 17.4866 14.6041 17.4866C12.7505 17.4866 7.82577 16.5113 4.5957 15.0461C5.98802 17.5839 14.7892 19.5437 17.4171 19.5437C20.2736 19.5437 20.5671 17.228 20.5671 14.3715C20.567 11.5264 20.2751 9.2187 17.4505 9.2002Z" fill="#FC5327"/>
<path d="M9.94552 15.1362C10.6408 15.1362 11.2045 14.5725 11.2045 13.8772C11.2045 13.1818 10.6408 12.6182 9.94552 12.6182C9.2502 12.6182 8.68652 13.1818 8.68652 13.8772C8.68652 14.5725 9.2502 15.1362 9.94552 15.1362Z" fill="#554E57"/>
<path d="M10.3029 12.6709C10.3365 12.7845 10.3553 12.9045 10.3553 13.0289C10.3553 13.7242 9.79159 14.2879 9.09628 14.2879C8.97178 14.2879 8.85184 14.2691 8.73828 14.2355C8.89259 14.7563 9.37403 15.1365 9.94491 15.1365C10.6402 15.1365 11.2039 14.5728 11.2039 13.8775C11.2039 13.3066 10.8237 12.8252 10.3029 12.6709Z" fill="#453E43"/>
</svg>
