<svg width="28" height="28" viewBox="0 0 28 28" fill="none" xmlns="http://www.w3.org/2000/svg">
<g clip-path="url(#clip0_3164_7402)">
<path d="M12.8335 14.0007C17.3018 14.0007 20.9418 10.384 21.0002 5.92732C19.5822 5.1048 17.9727 4.67023 16.3335 4.66732H5.8335C5.19183 4.66732 4.66683 4.14232 4.66683 3.50065V2.33398H2.3335V3.50065C2.3335 5.42565 3.9085 7.00065 5.8335 7.00065C5.8335 10.8623 8.97183 14.0007 12.8335 14.0007ZM11.6668 7.00065C12.3085 7.00065 12.8335 7.52565 12.8335 8.16732C12.8335 8.80898 12.3085 9.33398 11.6668 9.33398C11.0252 9.33398 10.5002 8.80898 10.5002 8.16732C10.5002 7.52565 11.0252 7.00065 11.6668 7.00065Z" fill="#BEBEBE"/>
<path d="M23.1698 7.6543C22.6448 10.6643 20.8248 13.231 18.3048 14.7826C18.8882 15.3193 19.2498 16.0776 19.2498 16.9176C19.2498 17.6912 18.9425 18.433 18.3956 18.98C17.8486 19.527 17.1067 19.8343 16.3332 19.8343H11.6665C11.6665 18.551 10.6165 17.501 9.33317 17.501H4.6665C4.6665 19.8343 6.99984 21.5843 6.99984 21.5843C6.99984 21.5843 4.6665 23.3343 4.6665 25.6676H9.33317C10.6165 25.6676 11.6665 24.6176 11.6665 23.3343H16.3332C21.4898 23.3343 25.6665 19.1576 25.6665 14.001C25.6665 11.551 24.7098 9.32263 23.1698 7.6543Z" fill="#BEBEBE"/>
</g>
<defs>
<clipPath id="clip0_3164_7402">
<rect width="28" height="28" fill="white"/>
</clipPath>
</defs>
</svg>
