<svg width="32" height="27" viewBox="0 0 32 27" fill="none" xmlns="http://www.w3.org/2000/svg">
<path d="M11.9444 19.7442V19.7441C11.9386 19.7127 11.9212 19.6921 11.9014 19.6836C11.9142 19.7117 11.9272 19.7399 11.94 19.768C11.9421 19.7606 11.9438 19.7529 11.9444 19.7442Z" fill="#184B9E"/>
<path d="M11.8274 19.7435C11.8327 19.6875 11.8701 19.6701 11.9016 19.6837C10.1583 15.8753 8.46524 11.9572 7.26864 7.99354C7.28422 8.18564 6.64491 8.31055 7.07034 8.00223C7.08872 8.00064 7.09548 7.9888 7.09548 7.97047C7.10684 7.95463 7.208 7.84117 7.24183 7.90685C7.21385 7.82111 7.18002 7.73722 7.14829 7.65285C6.72591 7.82821 6.38519 7.97675 6.04166 8.28782C5.95179 8.3693 5.38964 9.14158 5.21054 9.03479C4.90395 8.85276 6.85233 7.64666 7.10103 7.527C7.06897 7.44186 7.03763 7.35831 7.00673 7.27575C6.97096 7.26839 6.91173 7.19436 6.96881 7.17374C6.93523 7.07952 6.01713 4.52415 6.23914 4.47327C6.3124 4.45631 7.06303 7.15713 7.14154 7.25398C7.13994 7.25501 7.13831 7.25626 7.13672 7.25742C7.16241 7.33068 7.18841 7.40458 7.21488 7.48012C7.22577 7.47819 7.2364 7.47689 7.24708 7.47599C6.89667 6.34874 6.66389 5.21451 6.43249 4.05859C6.39065 4.2117 6.39905 4.31405 6.39905 4.31405C5.27545 4.5198 3.73972 4.97885 3.66797 6.3431C4.15397 7.58106 4.89254 8.71899 5.49235 9.90159C6.2026 11.302 6.84592 12.7366 7.55979 14.1344C8.6805 16.3292 9.89569 18.4554 11.1694 20.5598C11.4102 20.5546 11.4095 20.6677 11.3749 20.8673C11.3659 20.8689 11.357 20.8697 11.3482 20.8707C11.4268 21.0104 11.5046 21.1506 11.5835 21.2902C11.6024 21.2637 11.6214 21.2373 11.6403 21.2107C11.6395 21.1552 11.6387 21.0997 11.638 21.0443C11.6653 20.9886 11.6928 20.9329 11.7201 20.8772C11.0076 19.5183 10.2553 18.185 9.60781 16.792C9.57329 16.7788 9.53873 16.7657 9.50421 16.7526C9.47408 16.6745 9.44395 16.5966 9.41386 16.5186C9.44391 16.5966 9.47404 16.6745 9.50421 16.7524C9.53873 16.7656 9.57329 16.7788 9.60781 16.792C9.51359 16.5882 8.87415 14.9846 8.95554 14.9597C8.97547 14.9535 11.5912 20.375 11.7329 20.6584C11.7712 20.5616 11.8674 20.5237 11.9588 20.4807C11.961 20.42 11.9902 20.3704 12.0466 20.3319C12.2091 20.3267 12.3577 20.8848 12.3641 20.9571C12.3092 20.9581 12.2543 20.9591 12.1993 20.96C12.173 20.9336 12.1465 20.9073 12.1203 20.8809C12.0282 20.88 11.9359 20.8791 11.8437 20.8782C12.203 21.5716 12.6346 22.2275 13.0193 22.907C13.0324 22.9028 13.1212 22.8531 13.1255 22.8491C13.1456 22.8443 13.1534 22.8305 13.1533 22.8104C13.2039 22.7722 13.239 22.7388 13.296 22.7006C12.8461 21.7312 12.3916 20.7533 11.9403 19.768C11.9175 19.8486 11.8172 19.8497 11.8274 19.7435ZM6.26467 7.14917C6.25356 7.15674 6.60427 6.91785 6.5738 7.11925C6.50183 7.23766 6.39616 7.26482 6.25666 7.20064C6.35768 7.32809 6.38816 7.46183 6.34825 7.60193C6.11983 7.76903 6.02952 7.25027 6.02987 7.21395C6.09241 7.15373 6.1707 7.13221 6.26467 7.14917ZM5.60301 6.93795C5.67313 6.96008 5.67291 6.994 5.60241 7.03984C5.52876 7.02068 5.52889 6.98676 5.60301 6.93795ZM5.01547 7.14262C4.9287 7.06915 4.9293 7.02697 5.01732 7.01608C5.12678 7.08314 5.12609 7.12532 5.01547 7.14262ZM6.91776 8.95172C6.68059 9.04112 6.86826 8.72777 6.87235 8.74645C6.86852 8.72858 7.21531 8.83886 6.91776 8.95172ZM7.83126 12.2274C7.44146 12.0894 7.90977 11.939 7.90176 11.9799C7.90391 11.9686 8.13669 12.3353 7.83126 12.2274ZM8.64701 14.3688C8.56548 14.5471 8.39852 14.6287 8.28334 14.7284C7.75976 14.6259 8.77295 14.0946 8.64701 14.3688Z" fill="#184B9E"/>
<path d="M11.6377 21.0444C11.6958 21.0652 11.742 21.0979 11.7723 21.1468C11.7824 21.163 11.7908 21.1812 11.7972 21.2012C11.7704 21.308 11.7436 21.4147 11.7166 21.5216C12.0096 22.0204 12.282 22.5306 12.6024 23.0128C12.7126 22.9921 12.8256 22.927 12.9369 22.9378C12.5461 22.2423 12.0898 21.5844 11.7197 20.8774C11.6925 20.933 11.6651 20.9887 11.6377 21.0444Z" fill="#184B9E"/>
<path d="M12.6166 25.4069C11.9109 25.2261 11.1048 25.0176 10.5489 24.5268C10.5603 24.5586 10.5716 24.5903 10.5829 24.6219L10.5828 24.622C10.5715 24.5902 10.5602 24.5584 10.5488 24.5267C10.5001 24.4837 10.45 24.4368 10.4129 24.3831L9.93988 24.2949C9.65265 24.6164 10.1157 25.6834 10.2933 26.0545C10.9235 26.4256 11.679 26.6084 12.4078 26.6117C13.0647 26.6145 13.7429 26.2781 14.3888 26.4952C13.8403 26.0192 13.4602 25.7139 12.7749 25.4608C12.7372 25.5405 12.5376 25.4907 12.6166 25.4069ZM9.93286 24.468C9.83976 24.433 9.94302 24.3751 9.95696 24.3641H9.95705C9.92894 24.3345 10.1501 24.5487 9.93286 24.468ZM11.5815 26.4772C11.6001 26.4637 11.63 26.4531 11.6342 26.436C11.63 26.4531 11.6 26.4637 11.5815 26.4772ZM13.8867 26.2078C13.8877 26.257 13.8279 26.2778 13.7238 26.277C13.3031 26.3179 12.201 26.1559 12.0541 26.1138C12.1308 26.2035 12.0287 26.414 11.9439 26.4449C11.825 26.4879 11.8418 26.1103 11.9234 26.0692C11.939 26.0732 10.2522 25.5955 10.454 25.3038C10.4774 25.27 10.642 25.3795 10.6607 25.39C10.8034 25.4623 13.0882 26.2722 13.7238 26.277C13.8252 26.2671 13.8874 26.2457 13.8867 26.2078ZM13.4 25.9114C13.3661 26.0081 11.0238 25.6451 11.1964 25.3459C11.1816 25.3717 12.1673 25.611 12.186 25.6084L12.1888 25.6063C12.2509 25.6028 12.2917 25.6252 12.3106 25.6733C12.4468 25.7032 13.4452 25.783 13.4 25.9114Z" fill="#184B9E"/>
<path d="M13.8866 26.2075C13.8873 26.2454 13.825 26.2669 13.7236 26.2767C13.8278 26.2775 13.8876 26.2567 13.8866 26.2075Z" fill="#184B9E"/>
<path d="M12.0903 25.6174C12.1233 25.6229 12.158 25.6263 12.1901 25.6351C12.1888 25.6262 12.1875 25.6173 12.1858 25.6084C12.1545 25.6127 12.1226 25.6151 12.0903 25.6174Z" fill="#184B9E"/>
<path d="M10.688 24.0372C10.708 23.9942 12.804 24.964 13.0633 25.1129C12.3145 24.3892 11.5298 23.7026 10.7697 22.9943C10.6087 22.843 10.4408 22.6991 10.2756 22.5522C10.2387 22.9364 10.15 23.7857 10.061 24.0727C10.1369 24.0009 10.22 24.0057 10.264 24.1084C10.4673 24.0782 10.5075 24.137 10.5051 24.3223C11.4326 25.0092 12.5605 25.2121 13.5916 25.6876C13.5096 25.5919 13.4282 25.4957 13.3441 25.4016C13.0636 25.2819 10.6148 24.1947 10.688 24.0372ZM10.3625 23.2496C10.3807 23.2364 10.4036 23.2293 10.4246 23.2199C10.425 23.2192 10.4254 23.2184 10.4257 23.2176C10.4257 23.2176 10.4265 23.2182 10.4269 23.2184V23.2189C10.4262 23.2192 10.4253 23.2195 10.4245 23.2199C10.3527 23.371 10.3759 23.2399 10.3625 23.2496ZM10.5172 23.3497C10.5077 23.3428 10.5036 23.3577 10.4959 23.3433C10.4918 23.3405 10.4874 23.3386 10.4824 23.3376C10.4427 23.3462 10.4836 23.3231 10.4648 23.3231C10.4584 23.3144 10.4501 23.3232 10.4451 23.3306C10.4432 23.3289 10.4411 23.3279 10.4388 23.3267C10.4349 23.3272 10.4016 23.3455 10.3864 23.3328C10.3621 23.3247 10.4186 23.222 10.44 23.226C10.4785 23.2659 10.4713 23.2167 10.5051 23.2285C10.5218 23.2268 10.5328 23.2207 10.5607 23.2138C10.6048 23.2242 10.5769 23.3617 10.5263 23.3659C10.5027 23.3674 10.527 23.3682 10.5172 23.3497ZM10.5432 23.7004C10.5655 23.6383 10.7091 23.6791 10.753 23.6968C10.7905 23.6109 10.8364 23.5291 10.8906 23.4513C10.9835 23.4655 11.0254 23.5279 11.0412 23.6136C11.0654 23.6965 11.0538 23.7622 11.0066 23.8104C11.1938 23.8659 12.663 24.4478 12.453 24.7073C12.4602 24.6983 11.1566 23.9363 10.9247 23.8958C10.9072 23.9129 10.8895 23.93 10.8723 23.9474C10.7919 23.8857 10.7493 23.8517 10.7336 23.8176C10.6971 23.8032 10.5185 23.7689 10.5432 23.7004Z" fill="#184B9E"/>
<path d="M13.1489 0.774902C13.0244 0.874289 12.967 0.940273 12.967 0.940273C12.967 0.940273 12.879 0.949313 12.731 0.967304C12.747 1.14563 12.7651 1.32374 12.7852 1.50164C12.908 2.77972 12.9806 4.06674 13.0731 5.34757C13.1405 5.34447 13.2074 5.34951 13.2746 5.34357C13.2557 3.82153 13.0342 2.30013 13.1489 0.774902Z" fill="#184B9E"/>
<path d="M14.9858 22.9404C15.003 23.0416 15.0198 23.1428 15.0348 23.2441C15.0843 23.191 15.1022 23.1255 15.1 23.0525C15.0647 23.0067 15.0272 22.9676 14.9858 22.9404Z" fill="#184B9E"/>
<path d="M15.4664 25.8376C15.4549 25.8345 15.4088 22.5544 15.3972 22.2201C15.2335 22.1904 15.0377 22.2819 14.8843 22.3429C14.9187 22.542 14.9526 22.7411 14.9859 22.9402C15.0667 23.0309 15.1595 23.1075 15.264 23.17C15.2683 23.1411 15.2096 23.6139 15.0632 23.4553C15.0741 23.5471 15.0842 23.6389 15.0935 23.7307C15.1421 23.717 15.2544 23.74 15.2544 23.808C15.2544 23.8954 15.149 23.8628 15.1056 23.8491C15.2146 24.9151 15.3856 25.9327 15.7464 26.9422C15.7484 26.9422 15.7502 26.9422 15.7522 26.9421C15.763 26.886 15.7746 26.8302 15.7865 26.7745C15.652 26.115 15.6067 25.415 15.5777 24.7436C15.573 24.8186 15.4912 25.8446 15.4664 25.8376ZM15.3558 24.1196C15.3345 24.099 15.3368 24.0816 15.3628 24.0675C15.3681 24.077 15.3732 24.0866 15.3797 24.0981C15.372 24.105 15.364 24.1123 15.3558 24.1196Z" fill="#184B9E"/>
<path d="M15.546 23.056C15.5619 22.7719 15.5787 22.4883 15.5989 22.2046C15.5608 22.2086 15.5221 22.2129 15.4839 22.2154C15.494 22.4959 15.5231 22.7762 15.546 23.056Z" fill="#184B9E"/>
<path d="M12.3943 18.7771L12.3941 18.777C12.4259 18.683 12.4932 18.6752 12.5686 18.6996C12.5465 18.6126 12.5241 18.5257 12.5023 18.4385C12.4219 18.4415 12.3992 18.2577 12.3952 18.2189C12.4107 18.2047 12.4236 18.1895 12.4342 18.1734C12.4109 18.0822 12.3863 17.9915 12.3608 17.9008C12.2232 17.3976 12.0652 16.897 11.9689 16.3836C11.7323 16.466 11.6859 15.9896 11.8947 15.9734C11.688 14.7751 11.3752 13.5526 11.0811 12.3691C10.9359 12.43 10.6765 12.3651 10.5349 12.3539C10.5191 12.7483 11.1028 13.5588 10.3285 13.066C9.82726 12.7469 9.94317 12.3183 10.5524 12.2417C10.6812 12.1215 10.8263 12.0308 10.9878 11.9695C10.758 11.0023 10.528 10.0273 10.3229 9.05362C10.0852 9.00558 9.86191 8.63791 10.2208 8.59779C10.1825 8.45175 9.90968 7.16636 10.0511 7.14492C10.1236 7.13369 10.3272 8.37509 10.3647 8.5359C10.3878 8.51997 10.4107 8.50413 10.4338 8.48842C10.2882 7.76612 10.2158 7.03038 10.0664 6.31049C9.66253 6.38086 9.3237 6.40919 8.95762 6.61377C8.87084 6.66224 8.1655 7.3551 7.98799 7.19145C7.74441 6.96737 9.77233 6.17366 10.0347 6.16139C9.76385 4.89524 9.45747 3.63756 9.11722 2.38867C9.08545 2.45367 9.07284 2.49378 9.07284 2.49378C9.07284 2.49378 9.06243 2.49576 9.04349 2.49951C9.10766 2.85608 9.98174 6.07414 9.74164 6.11624C9.70958 6.12196 9.00582 2.90803 8.92753 2.52507C8.67857 2.58327 8.13838 2.72807 7.5387 3.00531C7.71002 3.46582 7.07074 4.03192 6.91953 3.36174C6.69239 3.54261 6.56365 3.73265 6.49121 3.89518C6.73901 4.90083 6.98061 5.90554 7.37148 6.86889C7.35289 6.80092 6.46233 4.04096 6.57936 4.0225C6.70178 4.00278 7.54387 7.1528 7.63701 7.42935C7.75026 7.4343 7.8595 7.5113 7.68815 7.56644C7.82111 7.88268 9.60421 12.3206 9.49527 12.3612C9.37836 12.4055 8.20548 9.29883 8.16545 9.19514C8.47119 10.06 8.81592 10.9122 9.0886 11.7884C9.09591 11.7858 9.10327 11.7834 9.11102 11.7816C9.24811 11.8196 9.26249 11.8912 9.15402 11.996C9.76273 13.9149 10.6645 15.7183 11.3375 17.6118C12.0411 19.5921 12.9044 21.6282 13.8208 23.5201C13.1683 21.8942 12.6209 20.226 12.0343 18.5755C11.9684 18.6062 11.9008 18.6216 11.8314 18.6215C11.8888 18.5833 11.9527 18.5573 12.023 18.5437C11.9675 18.3874 10.3555 13.5577 10.549 13.5212C10.5754 13.5161 11.4343 16.1014 12.3503 18.8036C12.365 18.7947 12.3796 18.7859 12.3941 18.7771L12.3943 18.7771ZM8.93592 5.20312C9.07013 5.31658 9.06596 5.39027 8.92366 5.42432C8.83976 5.34202 8.84385 5.26833 8.93592 5.20312ZM8.61004 2.73439L8.59989 2.79573L8.55336 2.75411L8.61004 2.73439ZM9.75447 6.92088C9.70725 7.02001 8.66471 7.46439 8.78377 7.23574C8.88225 7.0467 9.82222 6.77415 9.75447 6.92088Z" fill="#184B9E"/>
<path d="M12.3442 18.8068C12.3463 18.8058 12.3484 18.8048 12.3504 18.8037C12.3504 18.8036 12.3503 18.8034 12.3503 18.8032C12.3482 18.8044 12.3463 18.8056 12.3442 18.8068Z" fill="#184B9E"/>
<path d="M13.7848 22.6043C13.3959 21.3514 12.931 20.0889 12.5995 18.8224C12.5285 18.828 12.4608 18.8141 12.3969 18.7808C12.3813 18.7887 12.3657 18.7965 12.3501 18.8043C13.2395 21.4278 14.1825 24.1613 14.4696 24.7409C14.5212 24.6643 14.6331 24.8198 14.5313 24.8644C14.6687 25.138 14.8147 25.4062 14.9817 25.6631C14.6014 24.6811 14.1512 23.7023 13.8179 22.7055C13.7723 22.6792 13.7529 22.6491 13.7848 22.6043Z" fill="#184B9E"/>
<path d="M10.3926 8.65332C10.6421 9.75638 10.8139 10.8783 11.0797 11.9766C11.0956 11.9821 11.1111 11.9899 11.1263 12.0003C10.9669 10.8855 10.6862 9.76271 10.4673 8.65668C10.4425 8.65676 10.4175 8.65573 10.3926 8.65332Z" fill="#184B9E"/>
<path d="M11.1631 12.3096C11.1632 12.3098 11.1632 12.3102 11.1633 12.3105C11.1633 12.3102 11.1632 12.3097 11.1632 12.3097C11.1632 12.3097 11.1631 12.3095 11.1631 12.3096Z" fill="#184B9E"/>
<path d="M13.9266 18.172C13.9228 18.1698 13.9188 18.1673 13.9146 18.1646C13.9186 18.1673 13.9226 18.1698 13.9266 18.172Z" fill="#184B9E"/>
<path d="M15.0208 24.7597C14.8323 23.9619 14.6 23.1756 14.4067 22.3791C14.3921 22.3659 14.3882 22.3489 14.3948 22.3283C14.0142 20.6913 13.557 19.0723 13.166 17.4372C13.1239 17.2608 12.1858 12.8295 12.4304 12.8375C12.465 12.8386 13.3805 17.761 13.4314 17.9768C13.7699 19.4107 14.1399 20.8367 14.4706 22.2722C14.4937 22.2577 14.5099 22.2494 14.5373 22.2514C14.2037 20.9361 14.1259 19.5272 13.9461 18.1814C13.9406 18.1794 13.9338 18.176 13.9264 18.1717C13.9223 18.1694 13.9183 18.167 13.9143 18.1642C13.8221 18.1034 13.6523 17.9194 13.8412 17.9046C13.8444 17.9673 13.8474 18.03 13.8507 18.0928C13.8695 18.1242 13.891 18.148 13.9143 18.1642C13.9186 18.167 13.9225 18.1695 13.9264 18.1717C13.9328 18.1753 13.9394 18.1789 13.9461 18.1814C13.6731 16.1355 13.559 13.9896 13.4969 11.9289C13.4325 9.79443 13.2713 7.63802 13.2753 5.50103C13.2114 5.51019 13.1488 5.50344 13.0844 5.50262C13.0923 5.60028 13.1 5.69967 13.1077 5.80005C13.2421 5.78205 13.2353 5.91592 13.1195 5.95418C13.1796 6.74686 13.4699 13.8692 13.4992 13.872C13.3176 13.8549 13.054 6.64029 12.9946 5.96963C12.8102 5.96679 11.4522 6.44474 11.5096 6.16483C11.5358 6.0367 12.7941 5.8297 12.981 5.81515C12.9711 5.70604 12.9615 5.59693 12.9523 5.48781C12.5733 5.44886 10.5461 6.33873 10.4344 6.11396C10.3521 5.94962 12.6184 5.34409 12.9399 5.34215C12.8184 3.90405 12.5916 2.42518 12.6456 0.978027C12.5944 0.984441 12.5371 0.991887 12.4767 1.00002L12.4768 1.00118C12.4759 1.00084 12.4752 1.00062 12.4752 1.00062C11.3856 1.14585 9.77162 1.23788 9.15869 2.30917C9.50777 3.59607 9.88272 4.88977 10.1696 6.19182C10.181 6.20719 10.1846 6.22324 10.1801 6.23994C11.3673 11.6673 12.29 17.1535 14.118 22.4171C14.4244 22.329 14.3982 22.4287 14.1557 22.5257C14.2829 22.8894 14.4026 23.2553 14.5254 23.6205C14.58 23.5945 14.6389 23.5809 14.7013 23.5771C14.6552 23.6287 14.6012 23.6569 14.5397 23.6637C14.7477 24.279 15.0256 25.9982 15.3045 26.2734C15.3153 26.3114 15.4093 26.6404 15.4338 26.6455C15.4766 26.7393 15.5158 26.8347 15.5491 26.9331C15.5844 26.9377 15.62 26.9408 15.6561 26.9423C15.6457 26.916 15.6356 26.8896 15.6255 26.8632C15.6462 26.4262 15.1499 25.3066 15.0208 24.7597ZM13.483 17.6344C13.5157 17.5234 13.7048 17.7026 13.5436 17.7622C13.4963 17.7413 13.4683 17.6843 13.483 17.6344ZM13.3098 12.9114C13.3282 12.919 13.3466 12.9266 13.365 12.9341C13.3377 13.0023 13.2834 12.9796 13.3098 12.9114ZM13.1782 16.2715C13.2261 16.2381 13.2639 16.2562 13.2915 16.3256C13.2679 16.3628 13.2441 16.3999 13.2205 16.4368C13.131 16.3853 13.1168 16.3302 13.1782 16.2715ZM11.6593 3.66279C11.6857 3.64054 11.7119 3.60619 11.7387 3.58987C11.7909 3.56396 11.8362 3.58635 11.8745 3.65702C11.7377 3.77565 11.7793 3.76063 11.6593 3.66301L11.6594 3.66288L11.6593 3.66279ZM11.6081 4.43408C11.6633 4.36288 11.7079 4.38294 11.7417 4.49412C11.7123 4.52597 11.5705 4.6053 11.6081 4.43408ZM9.7303 3.34212C9.4426 3.41719 9.70017 3.07392 9.69798 3.05399C9.7003 3.07538 10.0738 3.25246 9.7303 3.34212ZM11.9705 7.57135C12.0302 7.67392 12.0218 7.75394 11.9453 7.81136C11.8162 7.83494 11.8123 7.54096 11.8092 7.49077C11.863 7.51759 11.9168 7.54441 11.9705 7.57135ZM11.7296 9.88865C11.7748 9.94194 11.7989 10.0019 11.8019 10.0683C11.6601 10.0174 11.658 10.0123 11.7296 9.88865ZM11.9611 9.48956C11.9038 9.60358 11.6067 9.47088 11.6774 9.40119C11.7041 9.37507 12.0357 9.34033 11.9611 9.48956ZM11.9457 8.91485C11.9941 8.81284 12.0541 8.81456 12.1261 8.92002C12.0763 9.02031 12.0161 9.01858 11.9457 8.91485ZM12.1611 12.2667C12.2948 12.2897 12.3953 12.3573 12.4622 12.4698C12.4245 12.4932 12.3876 12.5347 12.3491 12.536C12.1311 12.5435 11.8472 12.413 12.1611 12.2667ZM13.6649 20.5961C13.6591 20.5909 13.664 20.5734 13.664 20.561C13.7541 20.528 13.6884 20.6171 13.6649 20.5961ZM13.7247 19.9514C13.69 19.9596 13.6688 19.9534 13.6595 19.9347C13.6594 19.9347 13.6594 19.9347 13.6594 19.9348C13.6597 19.9357 13.6551 19.9248 13.6551 19.9248C13.656 19.9287 13.6579 19.9315 13.6595 19.9347C13.7185 19.9018 13.7403 19.9073 13.7247 19.9514Z" fill="#184B9E"/>
<path d="M13.6595 19.9348C13.6595 19.9348 13.6596 19.9347 13.6597 19.9347C13.6581 19.9315 13.6561 19.9288 13.6553 19.9248C13.6553 19.9248 13.6599 19.9357 13.6595 19.9348Z" fill="#184B9E"/>
<path d="M10.6993 22.3516C10.3076 21.9003 9.90115 21.4511 9.55013 20.9669C9.53222 20.9636 9.51432 20.9604 9.49646 20.9571C9.49349 20.9318 9.48479 20.9031 9.48595 20.8782C8.17336 19.0508 6.8376 17.2672 5.59254 15.395C5.58152 15.4057 5.57051 15.4165 5.55962 15.4272C5.5393 15.3998 5.50667 15.3286 5.57317 15.3661C4.67207 13.993 3.80919 12.5974 2.88127 11.2438C2.70569 11.3526 2.73548 11.1921 2.77392 11.0867C2.35279 10.4736 1.81019 9.84162 1.52343 9.15332C0.601323 9.5491 -0.0990719 11.0326 0.353869 11.9712C0.353869 11.9712 0.351674 11.9752 0.348145 11.9822C0.707769 12.659 1.26401 13.3245 1.76387 13.9038C1.8206 13.8807 1.84802 13.9416 1.83623 13.9873C2.80026 15.0891 3.73128 16.1979 4.78187 17.2198C4.7891 17.2168 4.79633 17.2139 4.8024 17.2105C4.84407 17.2289 4.86443 17.2568 4.86327 17.2944C5.41852 17.8049 6.04131 18.2424 6.61223 18.7371C6.61335 18.7106 6.61714 18.6769 6.62265 18.6338C6.78341 18.6234 6.78341 18.6234 6.82869 18.7753C6.78793 18.7948 6.74493 18.807 6.69952 18.8123C6.8324 18.9261 6.96364 19.0418 7.09337 19.1593C7.12212 19.1654 7.14881 19.1831 7.17369 19.211C7.32567 19.2033 7.43706 19.2679 7.50778 19.405C7.63907 19.5057 7.65396 19.529 7.56989 19.5879C7.72649 19.7259 7.87765 19.8701 8.0299 20.0129C8.09911 19.9692 8.17155 19.9318 8.24722 19.9005C8.25282 19.9062 6.24017 17.8322 6.43731 17.6819C6.43963 17.6801 10.2788 21.9166 10.6993 22.3516ZM5.23679 15.626C5.27338 15.6434 5.26055 15.67 5.22397 15.6528C5.22823 15.6438 5.23262 15.6349 5.23679 15.626ZM4.84622 14.5467C4.90226 14.5425 4.94216 14.5689 4.95129 14.6298C4.85685 14.7387 4.78303 14.5513 4.84622 14.5467ZM2.77142 11.9174C2.84304 11.8779 5.09084 15.7936 5.09084 15.7936C5.02068 15.8312 2.55836 12.0338 2.77142 11.9174ZM1.26616 12.913C0.986859 13.0314 0.842751 12.4333 1.04837 12.302C1.29173 12.1458 1.5026 12.8126 1.26616 12.913ZM1.42607 11.8218C1.12705 11.7419 1.52933 11.5564 1.51762 11.588C1.52051 11.5804 1.69483 11.8941 1.42607 11.8218ZM5.33747 17.0491C5.2689 17.0917 5.2024 17.0875 5.13788 17.0364C5.12682 16.8796 5.45782 16.9846 5.33747 17.0491ZM2.0653 11.9406C1.91091 12.2233 1.92132 13.7159 1.76112 13.7689C1.46287 13.8685 1.88443 12.0429 1.99505 11.8135C1.93122 11.696 0.872408 9.74886 1.07424 9.67311C1.10531 9.6614 2.00444 11.516 2.07447 11.6507C2.09935 11.5943 2.46384 11.1915 2.53499 11.2978C2.60054 11.3948 2.20584 11.7197 2.14842 11.7925C2.39553 12.2522 5.42838 17.1705 5.6151 17.0456C5.31845 17.246 2.33509 12.4222 2.0653 11.9406ZM5.56637 16.1298C5.54356 16.1374 5.52053 16.1437 5.49729 16.1488L5.49716 16.149C5.43742 16.0989 5.3775 16.0488 5.3178 15.9984C5.23649 16.0173 5.15514 16.0364 5.07388 16.0556C5.15514 16.0364 5.23649 16.0173 5.3178 15.9981C5.43707 15.8338 5.44801 15.8315 5.56706 15.9464C5.59366 15.9651 5.61923 15.985 5.64385 16.0061C5.61794 16.047 5.59211 16.0884 5.56637 16.1298ZM5.80479 16.091C5.83651 16.1504 5.86841 16.2099 5.90013 16.2694C5.86836 16.2099 5.83651 16.1504 5.80479 16.091Z" fill="#184B9E"/>
<path d="M8.29192 20.0566C8.29145 20.0697 8.28551 20.0825 8.28206 20.0955C8.23127 20.1145 8.18341 20.1237 8.14062 20.1158C8.36212 20.3197 8.59004 20.5169 8.81575 20.7161C8.82596 20.715 8.83629 20.7142 8.84683 20.7145C8.84795 20.7125 8.84911 20.7104 8.85027 20.7083L8.85557 20.7141C8.85256 20.7139 8.84967 20.7145 8.84683 20.7145C8.84304 20.721 8.83939 20.7275 8.83568 20.7339C9.10737 20.9741 9.38952 21.1945 9.67054 21.4229C9.20577 20.9393 8.76186 20.4362 8.29747 19.9526C8.30427 19.9845 8.29317 20.0232 8.29192 20.0566Z" fill="#184B9E"/>
<path d="M17.6016 23.9855C17.6176 23.9514 17.6331 23.9172 17.649 23.883C17.6468 23.8827 17.6448 23.8822 17.6428 23.8818C17.629 23.9165 17.6153 23.951 17.6016 23.9855Z" fill="#184B9E"/>
<path d="M17.7778 23.5434C17.7855 23.5464 17.7919 23.5509 17.7969 23.5567C17.9131 23.2963 18.0218 23.0334 18.1451 22.7761C18.1186 22.7663 18.1016 22.7636 18.083 22.7437C17.9875 23.0129 17.8844 23.2785 17.7778 23.5434Z" fill="#184B9E"/>
<path d="M18.829 22.5789C18.8034 22.6049 18.7779 22.6309 18.7523 22.657C18.7548 22.6298 18.7624 22.6077 18.7756 22.591C18.6923 22.6126 18.5969 22.63 18.5126 22.6458C18.5123 22.6803 18.5107 22.7154 18.5096 22.7504C18.4668 22.7327 18.4337 22.7078 18.4094 22.6747C18.4003 22.6674 18.3911 22.66 18.3819 22.6527C18.3848 22.6504 18.3876 22.6479 18.3905 22.6455C18.3891 22.6425 18.3881 22.6393 18.3868 22.6362C18.3759 22.6329 18.365 22.6299 18.354 22.6272C18.1876 22.961 18.0244 23.2965 17.8559 23.6291C17.9901 23.8088 17.9398 23.8774 17.7233 23.8911C17.3993 24.5313 17.0708 25.1739 16.7324 25.8068C17.0153 25.4126 17.3257 25.0371 17.5915 24.6312C17.546 24.5768 17.5629 24.5324 17.6424 24.498C17.6503 24.5009 17.6612 24.5044 17.6732 24.5086C18.1006 23.8774 18.5521 23.2457 18.935 22.5855C18.8914 22.5763 18.8751 22.5702 18.829 22.5789Z" fill="#184B9E"/>
<path d="M4.41415 9.76514C4.30792 9.81614 4.22721 9.84046 4.1416 9.93051C4.15284 9.95022 4.16394 9.97006 4.17496 9.99008C4.30684 10.0119 4.43959 10.0437 4.57151 10.0855C4.54078 10.0234 4.511 9.96339 4.48259 9.90597C4.45909 9.85764 4.43558 9.80913 4.41415 9.76514Z" fill="#184B9E"/>
<path d="M9.49325 18.5314C9.43927 18.4866 9.41164 18.4344 9.41039 18.3747C9.41882 18.3785 9.42722 18.3822 9.4357 18.3858C8.41627 16.3352 7.38302 14.3058 6.39527 12.2362C5.489 10.3375 4.43544 8.41193 3.65477 6.45898C3.5497 6.48765 2.75056 6.72697 2.10083 7.52249C2.15765 7.855 3.44033 9.97517 3.29988 10.0576C3.20932 10.111 2.07143 7.9215 2.00682 7.64422C1.843 7.86795 1.73634 8.08205 1.66833 8.27471C1.78941 8.5343 2.93956 10.4546 2.81896 10.5389C2.69073 10.6288 1.74512 8.67987 1.62396 8.41589C1.50649 8.84214 1.57398 9.13303 1.57398 9.13303C1.57398 9.13303 1.57218 9.13372 1.56951 9.13462C1.88906 9.80614 2.38349 10.4288 2.81448 11.0319C3.24143 10.5954 3.26204 10.0307 3.84799 9.69762C3.80783 9.6 3.52133 9.02323 3.60479 8.98358C3.66002 8.95698 3.96218 9.56514 4.00066 9.65501C4.03182 9.6628 4.04706 9.70851 4.03596 9.73559C4.04891 9.76322 4.06299 9.79012 4.07766 9.81694C4.15209 9.72065 4.23537 9.67576 4.34091 9.62346C4.26404 9.48043 3.63467 8.13874 3.78067 8.08566C3.83869 8.0641 4.40143 9.40455 4.48291 9.5626C4.5331 9.56122 4.54997 9.62023 4.53138 9.65867C4.61015 9.82361 4.6859 9.9898 4.76622 10.1541C4.89484 10.2057 5.62824 10.5582 5.0318 10.6806C5.27422 11.1344 7.44436 15.0353 7.51843 14.9949C7.30731 15.1111 5.08844 11.0608 4.86208 10.6406C4.7252 10.5706 4.58376 10.5166 4.43901 10.4744C4.60477 10.7945 6.81412 14.8293 6.78584 14.8421C6.68004 14.8908 4.42808 10.7633 4.24372 10.424C4.0827 10.4061 3.92478 10.3749 3.76965 10.3301C3.74064 10.378 3.42866 11.179 3.24379 11.0028C3.14626 10.9098 3.63393 10.2423 3.66755 10.2121C3.65838 10.1259 3.8012 10.0168 3.8767 9.99544C3.90089 9.97022 3.92908 9.95029 3.96037 9.93492C3.94307 9.90501 3.92658 9.87462 3.91087 9.84393C3.31886 10.2034 3.33823 10.7064 2.93229 11.1927C4.07306 12.708 5.08478 14.304 6.1844 15.8467C6.18922 15.8328 6.19521 15.8186 6.20326 15.8038C6.45196 15.6655 6.57713 15.9612 6.61221 16.2066C6.54639 16.1853 6.47684 16.1704 6.41137 16.1483C8.0637 18.2549 9.7299 20.3861 11.3247 22.5338C11.3331 22.4914 11.3171 22.4529 11.277 22.4186C11.3173 22.453 11.3334 22.4914 11.3249 22.5339C11.5386 22.8215 11.7626 23.0961 11.9995 23.3649C12.0403 23.3127 12.0879 23.2807 12.1407 23.2421C11.8577 22.853 7.94723 17.1995 8.20983 17.0847C8.24031 17.0713 11.9213 22.8019 12.2151 23.1907C12.2293 23.1811 12.243 23.1712 12.2565 23.1605C11.3527 21.6036 10.3387 20.1185 9.50452 18.519C9.50082 18.5232 9.49703 18.5273 9.49325 18.5314ZM4.12712 10.9953C4.126 10.9958 4.12484 10.9962 4.12372 10.9967C4.17046 10.8979 4.19969 10.8436 4.30984 10.9279C4.24897 10.9504 4.18803 10.9729 4.12712 10.9953ZM5.02134 13.6954C5.04338 13.6976 5.04312 13.7045 5.02332 13.7155C5.02358 13.7181 5.02388 13.7209 5.02409 13.7235L5.01553 13.7198C5.01897 13.7181 5.02065 13.7168 5.02332 13.7155C5.02263 13.7088 5.02207 13.7021 5.02134 13.6954ZM5.01828 13.7242C5.08431 13.83 5.11022 13.8705 5.16385 13.8786C5.11022 13.8705 5.08418 13.83 5.01828 13.7242ZM5.79895 14.8693C5.78165 14.8228 5.81509 14.8106 5.83287 14.8568C5.82151 14.8611 5.81027 14.8652 5.79895 14.8693ZM6.88321 16.5819C6.87158 16.6 6.80848 16.5675 6.91402 16.5202C6.90408 16.541 6.89543 16.5627 6.88321 16.5819ZM9.56991 19.7058C9.41504 19.8144 5.68695 14.8924 5.90437 14.7585C5.94242 14.7348 7.60917 17.1137 7.59359 17.0888C7.82107 17.4454 9.61794 19.6724 9.56991 19.7058Z" fill="#184B9E"/>
<path d="M16.1364 25.448C16.1074 25.4359 16.0761 25.4294 16.0424 25.429C16.077 25.3402 16.132 25.2701 16.2079 25.2186C16.5087 24.2708 16.7132 23.2647 16.8108 22.2743C16.7795 22.2793 16.2419 22.3703 16.1189 22.2598C16.0416 23.6481 15.9705 25.0367 15.8691 26.4246C15.952 26.098 16.0379 25.7701 16.1364 25.448Z" fill="#184B9E"/>
<path d="M15.2654 0.0326812C15.2317 0.17907 15.1118 0.123932 15.0163 0.0913484C14.9888 0.081922 14.9626 0.0688801 14.9365 0.0553646C14.8311 0.0632845 14.745 0.0705161 14.6857 0.0756382C14.685 0.0759825 14.6842 0.0761978 14.6842 0.0761978C14.6842 0.0761978 14.685 0.0759825 14.6857 0.0756382C14.1851 0.119542 13.6113 0.42773 13.2125 0.72619C13.1002 2.2766 13.3037 3.8088 13.4137 5.35142C13.5186 5.36726 13.5187 5.44908 13.4229 5.47887C13.4362 5.68629 13.4524 5.89354 13.4713 6.10054C13.5444 5.85343 13.738 5.78124 13.8581 6.00369C13.8257 6.11431 13.6244 6.35694 13.4845 6.23569C14.0325 11.5426 14.1313 16.8636 14.857 22.1594C15.0115 22.1216 15.2337 22.0619 15.394 22.1033C15.3157 19.2697 14.9909 16.446 14.9798 13.6083C14.9589 13.5841 14.9433 13.5123 14.9802 13.4907C14.9805 13.4637 14.9945 12.8678 15.038 12.8702C15.2163 12.8796 15.4505 21.0745 15.4801 22.0948C15.5225 22.088 15.5671 22.0787 15.6085 22.0673C15.9757 16.5472 15.8166 11.0006 15.9451 5.4737C15.8816 5.50293 15.8043 5.46569 15.7288 5.48308C15.772 7.70643 15.7514 9.93377 15.7395 12.1573C15.7829 12.1934 15.8224 12.2314 15.8682 12.2645C15.8424 12.3055 15.8166 12.3469 15.7909 12.3883C15.7721 12.3945 15.7532 12.3993 15.7343 12.4039C15.7302 12.5042 15.7238 12.9912 15.6725 12.9835C15.6026 12.9733 15.6233 12.3783 15.623 12.3248C15.5961 12.3021 15.569 12.2797 15.5422 12.257C15.4609 12.2759 15.3796 12.295 15.2982 12.3142C15.3796 12.2951 15.4609 12.2759 15.5422 12.2566C15.5758 12.2103 15.6007 12.1773 15.622 12.1558C15.6089 9.93795 15.6817 7.72313 15.6059 5.50495C15.1825 5.70002 15.0029 5.25784 15.6014 5.37324C15.5985 5.28728 15.5956 5.20188 15.5927 5.11752C15.3509 5.0765 13.791 5.5634 13.7018 5.30411C13.6426 5.13289 15.4162 4.98262 15.5887 5.00152C15.5833 4.84506 15.4224 0.222027 15.576 0.231281C15.7063 0.238599 15.7148 4.85939 15.7187 5.02394C15.7973 5.02304 15.8766 5.02098 15.9551 5.02119C15.9577 4.91354 16.009 3.63581 16.0499 3.64257C16.1212 3.65367 16.0881 4.89167 16.0885 5.01968C16.151 5.01499 16.68 5.13005 16.6456 5.22874C16.5921 5.38301 16.1881 5.1752 16.0892 5.16009C16.1161 10.7875 16.0406 16.4688 15.7175 22.0881C15.9297 22.1274 15.9304 22.3212 15.7077 22.2469C15.6318 23.48 15.6644 24.6487 15.7844 25.8784C15.8202 24.663 16.7611 12.8096 16.8947 12.8386C16.9903 12.8588 16.4512 17.5773 16.4347 17.7688C16.6488 17.7811 16.8144 17.8816 16.9171 18.0954C16.6521 18.0338 16.5854 18.207 16.4228 17.9061C16.2908 19.3142 16.2045 20.7238 16.1257 22.1339C16.2494 22.0285 16.7148 22.1913 16.8215 22.158C16.8857 21.4621 17.0748 20.8006 17.1805 20.1125C17.174 20.111 17.1673 20.1103 17.1607 20.1103C17.1686 20.1063 17.176 20.1016 17.183 20.096C17.7615 16.3158 18.0773 12.4837 18.5589 8.68613C18.499 8.64408 18.4832 8.57723 18.5117 8.48568C18.4777 8.39042 18.5041 8.35629 18.591 8.38311C18.6772 7.45058 18.7428 6.51328 18.7671 5.57683C18.7141 5.56353 18.6677 5.53486 18.6249 5.49785C18.6325 5.42394 18.6694 5.37896 18.7355 5.36317C18.3464 5.19401 17.8524 5.478 17.4612 5.41383C17.4417 5.43513 17.3542 5.40935 17.3385 5.38641C17.2732 5.38 17.1407 5.362 17.1265 5.27949C17.1166 5.2231 17.2579 5.20877 17.2958 5.20064C17.2953 5.1925 17.2948 5.18437 17.2942 5.17632C17.7708 5.27385 18.3064 5.0765 18.7763 5.25793C18.7991 4.45621 18.7459 3.65742 18.7312 2.85639C18.7198 2.8637 18.7087 2.87106 18.6962 2.87894C18.5811 2.81864 18.6066 2.70109 18.5858 2.6026C18.632 2.594 18.6782 2.58539 18.7244 2.57682C18.7066 2.26059 18.6756 1.94504 18.6597 1.62884H18.6593L18.6596 1.62828C18.6586 1.60732 18.6249 1.06929 18.6563 1.0683C18.6948 1.0667 18.7469 1.48504 18.7546 1.53798C18.7746 1.54612 18.7952 1.5781 18.827 1.63758C18.8071 1.63655 18.7873 1.63552 18.7676 1.63448C18.8048 1.93949 18.8472 2.24285 18.873 2.54923C18.9403 2.53662 19.0076 2.52422 19.0749 2.51161C19.0123 2.63906 18.9936 2.67621 18.8843 2.75425C18.9143 3.59496 18.9541 4.43568 18.9228 5.27708C18.9739 5.28143 19.027 5.28638 19.0783 5.28707C19.2364 3.82137 19.1291 2.33694 18.9306 0.883856C17.9318 -0.0546533 16.5409 -0.0464318 15.2654 0.0326812ZM15.6259 19.4449C15.4463 19.3644 15.4348 19.1996 15.4208 19.0362C15.6089 19.1092 15.6773 19.2453 15.6259 19.4449ZM15.4427 13.2307C15.4308 13.2373 15.5887 13.1919 15.5821 13.2451C15.5648 13.3902 15.2401 13.3401 15.4427 13.2307ZM15.362 14.4539C15.3902 14.4583 15.3948 14.4711 15.3758 14.4925C15.3477 14.4881 15.3431 14.4752 15.362 14.4539ZM15.2323 7.66106C15.3554 7.49818 15.4832 7.45428 15.6153 7.52935C15.7108 7.65645 15.309 7.9228 15.2624 7.96326C15.1034 7.90374 15.0934 7.80297 15.2323 7.66106ZM15.0705 10.8052C15.1266 10.801 15.1666 10.8274 15.1757 10.8884C15.0812 10.9972 15.0075 10.8098 15.0705 10.8052ZM14.823 20.0204C14.7691 19.9757 14.7415 19.9234 14.7401 19.8638C14.7941 19.8872 14.8481 19.9108 14.9019 19.9345C14.8756 19.9632 14.8492 19.9918 14.823 20.0204ZM14.5825 9.653C14.7143 9.57277 14.8113 9.58883 14.8731 9.70112C14.8854 9.88324 14.5066 9.72781 14.5825 9.653ZM14.7229 14.7477C14.6595 14.7446 14.5968 14.7306 14.5378 14.706L14.7229 14.7477ZM14.6104 18.7034C14.5402 18.7541 14.4938 18.7449 14.4711 18.6758C14.5459 18.6144 14.5922 18.6235 14.6104 18.7034ZM14.9536 3.92846C14.9313 4.10222 14.4966 4.82638 14.2591 4.49809C13.9853 4.12 14.772 3.96207 14.9536 3.92846C14.9538 3.92742 14.9541 3.92665 14.9543 3.92562C14.9543 3.92562 14.9554 3.92596 14.9561 3.92609L14.9564 3.92803C14.9554 3.92824 14.9545 3.92824 14.9536 3.92846ZM14.9503 2.32842C15.0281 2.21621 15.0794 2.09117 15.1027 1.95214C14.9351 1.96316 14.79 1.91891 14.6678 1.81965C14.813 1.8639 14.958 1.90815 15.103 1.95214C15.0795 2.09117 15.0283 2.21621 14.9503 2.32842ZM17.7931 13.1859C17.7795 13.2007 17.7658 13.2154 17.7522 13.23C17.7122 13.1641 17.7234 13.1401 17.7931 13.1858H17.793L17.7931 13.1859ZM18.102 5.71354C18.1244 5.59134 18.3867 5.71065 18.4606 5.75572C19.0811 5.90297 18.0474 6.02676 18.102 5.71354ZM18.1041 11.7813C17.7304 11.6944 17.7816 11.8018 17.5142 11.4552C17.7807 11.4371 17.9847 11.5328 18.1041 11.7813ZM17.2943 8.72435C17.6958 8.86497 17.6981 9.14763 17.2921 9.2063C17.2929 9.04562 17.2935 8.88494 17.2943 8.72435ZM17.136 10.6845C17.11 10.7255 17.0844 10.767 17.0586 10.8083C17.0358 10.8158 17.0127 10.8221 16.9894 10.8273V10.8274C16.9295 10.7772 16.8697 10.7273 16.8099 10.6768C16.7286 10.6957 16.6472 10.7149 16.5659 10.734C16.6472 10.7149 16.7286 10.6957 16.8099 10.6765C16.9293 10.5122 16.9401 10.5099 17.0592 10.6249C17.0844 10.6452 17.11 10.6651 17.136 10.6845ZM17.6653 0.522769C17.5718 0.498234 17.5579 0.459969 17.6237 0.40793C17.7182 0.434186 17.732 0.472451 17.6653 0.522769ZM17.854 5.10078C17.8543 5.12428 17.8549 5.14752 17.8555 5.17094C17.7949 5.1489 17.7874 5.12566 17.854 5.10078ZM18.5803 1.62458C18.2552 1.60749 18.0228 1.39947 17.8654 1.13049C17.8378 1.02241 17.8439 0.916396 17.8836 0.812448C17.962 0.580016 18.3667 0.841115 18.3304 1.05775C18.374 1.16927 18.463 1.21705 18.5754 1.23186C18.5771 1.36275 18.5787 1.49377 18.5804 1.62467L18.5849 1.62923L18.5803 1.62458Z" fill="#184B9E"/>
<path d="M16.1017 22.166C16.0854 22.207 16.0937 22.2372 16.1185 22.2594C16.1209 22.2176 16.1231 22.1757 16.1255 22.1338C16.1151 22.1427 16.1068 22.1532 16.1017 22.166Z" fill="#184B9E"/>
<path d="M19.6221 23.0215C18.9071 24.0833 18.0612 24.9499 17.1631 25.8513C18.1388 25.0376 19.0155 24.0852 19.8565 23.1363C19.8522 23.1335 19.8484 23.1299 19.8452 23.1259C19.7851 23.087 19.6983 23.0455 19.6221 23.0215Z" fill="#184B9E"/>
<path d="M14.896 26.5601C14.9572 26.6439 15.0232 26.7242 15.0938 26.8006C15.1618 26.829 15.2301 26.8549 15.2994 26.8767C15.2404 26.8371 15.1845 26.7952 15.1283 26.7517C15.0487 26.6904 14.9713 26.6264 14.896 26.5601Z" fill="#184B9E"/>
<path d="M21.7798 6.64269C21.8152 6.73153 22.0913 6.80798 22.1723 6.83789C22.2037 6.7265 22.2335 6.61463 22.26 6.50207C22.1308 6.43264 22.0378 6.34759 21.8973 6.2915C21.8602 6.40914 21.8174 6.5251 21.7798 6.64269Z" fill="#184B9E"/>
<path d="M0.12793 13.443C0.135936 13.4496 0.144889 13.4592 0.155004 13.4729C0.524657 13.9612 0.79445 14.5069 1.18472 14.9914C1.36352 14.6494 1.3658 14.2072 1.70201 13.9457C1.23723 13.3437 0.654043 12.7214 0.32201 12.0366C0.106063 12.509 0.149752 12.9427 0.12793 13.443Z" fill="#184B9E"/>
<path d="M8.47168 20.9829C8.60498 21.0871 8.75236 21.1729 8.88864 21.2739C8.79605 21.1816 8.7008 21.0919 8.60305 21.0052C8.57003 21.0094 8.5297 21.0008 8.47168 20.9829Z" fill="#184B9E"/>
<path d="M1.15025 15.1467C1.04806 15.038 0.938863 14.92 0.830566 14.7949C0.989008 15.0026 1.12227 15.1768 1.14547 15.204C1.14685 15.1851 1.14831 15.166 1.15025 15.1467Z" fill="#184B9E"/>
<path d="M0.415527 14.2495C0.538759 14.4416 0.683857 14.6251 0.831021 14.7952C0.692724 14.6137 0.535574 14.407 0.415527 14.2495Z" fill="#184B9E"/>
<path d="M5.5459 18.2949C5.54594 18.2967 5.54603 18.2985 5.54607 18.3003C5.57392 18.3263 5.6022 18.352 5.63026 18.3779C5.62359 18.339 5.60173 18.308 5.5459 18.2949Z" fill="#184B9E"/>
<path d="M6.15738 19.1716C6.20486 19.1189 6.87749 19.7334 6.98011 19.8136C6.9706 19.6855 6.93724 19.5628 6.88016 19.4456C6.44594 19.1044 6.03105 18.7474 5.63028 18.3781C5.63433 18.4017 5.63286 18.4281 5.62994 18.4553C5.54884 18.4317 5.54755 18.3661 5.54609 18.3006C4.16269 17.013 2.95757 15.5714 1.79455 14.0657C1.56031 14.4018 1.31854 14.7017 1.31294 15.1375C1.64751 15.5109 1.97107 15.8965 2.33805 16.2398C2.58473 16.4705 3.43573 16.9843 3.53843 17.3592C3.58935 17.4026 4.31256 17.9564 4.26831 18.0065C4.18309 18.1037 3.13224 17.1848 3.06105 17.1305C2.98873 17.1915 2.79513 17.3972 2.67848 17.3098C2.60991 17.1687 2.66333 17.0508 2.83873 16.9561C2.31231 16.5478 1.80811 16.0851 1.33515 15.6159C1.36408 15.7231 1.39993 16.0724 1.25815 16.1165C1.14172 16.1528 1.12415 15.4662 1.13263 15.4064C1.06639 15.3346 -0.00206493 14.1237 0.222662 13.9988C0.223523 13.9984 0.303196 14.1026 0.415323 14.2497C0.280254 14.0392 0.171441 13.8185 0.116131 13.5938C0.0416234 14.2293 -0.166963 14.7452 0.265016 15.3265C0.569287 15.7362 1.12428 16.0813 1.51077 16.3954C2.82629 17.4649 4.18683 18.4817 5.57906 19.4488C5.57988 19.4474 5.58065 19.446 5.58138 19.4447V19.4448L5.58147 19.4447C6.7571 20.4746 8.32955 21.2842 9.69268 22.0365C9.334 21.7323 5.98147 19.366 6.15738 19.1716ZM2.4686 15.1943C2.20384 15.0994 2.22791 15.1996 1.99375 14.8958C2.26045 14.8777 2.46425 14.9734 2.5837 15.2218C2.54526 15.2129 2.50549 15.2075 2.4686 15.1943ZM5.13744 18.1958C5.16563 18.2001 5.17024 18.213 5.15117 18.2343C5.12311 18.2298 5.1185 18.217 5.13744 18.1958ZM5.26674 18.9959C5.04459 19.261 5.22464 18.1218 5.33897 18.8771C5.32016 18.909 5.29919 18.9573 5.26674 18.9959Z" fill="#184B9E"/>
<path d="M8.38878 20.8143C8.08687 20.5472 7.80619 20.2639 7.52021 19.9801C7.47747 19.9976 7.42612 20.0251 7.35953 20.0634L7.3365 20.0647L7.35945 20.0634C7.42612 20.0251 7.47734 19.9976 7.52021 19.9801C7.45823 19.9159 7.39311 19.8549 7.32506 19.7974C7.31731 19.8645 7.30969 19.9317 7.30211 19.9988C7.26531 19.9862 7.22838 19.9791 7.19141 19.9763C7.57651 20.2986 7.98099 20.6 8.37642 20.9092C8.37272 20.8967 8.37139 20.8826 8.3732 20.8666C8.37522 20.8489 8.38086 20.8305 8.38878 20.8143Z" fill="#184B9E"/>
<path d="M14.5112 22.438C14.527 22.4986 14.5444 22.5612 14.5605 22.6218C14.6738 23.0404 14.7861 23.4594 14.9058 23.8762C14.8014 23.3965 14.7094 22.914 14.5856 22.4387C14.5607 22.437 14.5361 22.441 14.5112 22.438Z" fill="#184B9E"/>
<path d="M28.2476 6.0625C27.9453 6.8489 27.7829 7.68259 27.5039 8.47837C27.5415 8.50256 27.5735 8.53579 27.5975 8.57535C27.8845 7.88571 28.1109 7.17942 28.3821 6.48449C28.3219 6.46435 28.2873 6.45574 28.2873 6.45574C28.2873 6.45574 28.2984 6.29188 28.2476 6.0625Z" fill="#184B9E"/>
<path d="M27.4136 8.77375C27.3829 8.87735 27.3386 8.95061 27.2896 9.04539C27.3137 9.07669 27.3372 9.10832 27.3602 9.14017C27.4155 9.01195 27.4699 8.88334 27.5234 8.75425C27.4918 8.74564 27.4606 8.73544 27.4297 8.72412C27.4237 8.74142 27.4182 8.75838 27.4136 8.77375Z" fill="#184B9E"/>
<path d="M30.3798 9.13373C30.3798 9.13373 30.4039 9.02965 30.3982 8.85498C30.1143 9.47988 29.7558 10.0767 29.4328 10.6817C29.4432 10.7013 29.4536 10.7209 29.4641 10.7405C29.4434 10.7403 29.4225 10.7402 29.4017 10.74C29.3616 10.8152 29.3207 10.8899 29.2788 10.9641C29.3061 10.997 29.3282 11.0328 29.3453 11.0717C29.3703 11.0806 29.4553 11.1448 29.4821 11.1662C29.5961 10.9693 30.4695 9.55301 30.393 9.41488C30.4306 9.3396 30.4702 9.26518 30.5114 9.19183C30.4302 9.1503 30.3798 9.13373 30.3798 9.13373Z" fill="#184B9E"/>
<path d="M28.9424 11.1355C28.9399 11.1384 28.9366 11.1411 28.9336 11.1438C28.9756 11.1612 28.9786 11.2295 29.0144 11.2577C29.0539 11.1871 29.093 11.1163 29.1318 11.0452C29.0876 11.0025 29.0297 10.9995 28.9727 10.9937C28.9777 11.0436 28.9798 11.0933 28.9424 11.1355Z" fill="#184B9E"/>
<path d="M29.2476 10.8313C29.2645 10.8006 29.281 10.7697 29.2971 10.7386C29.2837 10.7385 29.2702 10.7384 29.2567 10.7383C29.25 10.7704 29.2471 10.8012 29.2476 10.8313Z" fill="#184B9E"/>
<path d="M30.0054 7.72648C29.6332 7.17734 29.0617 6.72978 28.4366 6.50342C28.1665 7.22254 27.9064 7.9454 27.6345 8.66418C27.6359 8.67528 27.6309 8.6888 27.6276 8.7123C27.6231 8.71484 27.6182 8.71815 27.6131 8.72181C27.5501 8.89019 27.49 9.05914 27.4282 9.22748C27.4653 9.28641 27.7442 9.81674 27.653 9.86133C27.774 9.97836 27.3424 10.0334 27.3484 9.88586C27.3782 9.80025 27.4452 9.77344 27.5494 9.80529C27.5086 9.75622 27.4768 9.69699 27.4452 9.64185C27.2484 9.87351 27.3069 9.53149 27.3885 9.51965C27.3759 9.49077 27.3635 9.46176 27.3516 9.43279C26.9558 10.4678 26.4511 11.5086 25.9169 12.4783C25.9169 12.4817 25.9169 12.4853 25.9169 12.4887C25.9145 12.4898 25.9119 12.4909 25.9094 12.4919C24.9302 14.2677 24.0028 16.0747 22.9346 17.7999C22.9479 17.9349 22.9877 18.0116 22.7854 18.0401C22.6375 18.2784 22.4957 18.5206 22.355 18.763C22.5477 18.8754 22.4283 19.2696 22.1616 19.0922C21.4011 20.3868 20.5726 21.5976 19.7407 22.8449C19.7958 22.9184 19.9108 22.9387 19.9515 23.0295C20.5817 22.3223 21.1322 21.5588 21.6524 20.7673C21.649 20.7673 21.6459 20.7678 21.6424 20.7676C21.6353 20.7206 21.6282 20.6738 21.6211 20.6269C21.667 20.608 21.7119 20.599 21.7545 20.6117C21.8551 20.4545 23.2229 18.1412 23.3241 18.2115C23.6328 18.4221 20.2785 22.8291 20.0372 23.0936C20.0434 23.1231 20.058 23.1351 20.0841 23.1475C22.0424 21.058 23.6078 18.5753 25.6104 16.5403C25.5919 16.5184 25.5811 16.4918 25.5748 16.4616C25.4639 16.5839 24.6872 17.4888 24.6264 17.4306C24.5618 17.3694 25.4292 16.391 25.5463 16.2511C25.5228 16.1366 25.4804 16.0283 25.407 15.9306C25.4884 15.9115 25.5696 15.8924 25.651 15.8734C25.6893 15.9058 25.7277 15.9378 25.7661 15.9701C26.9143 14.4835 27.9598 12.9519 28.9526 11.3607C28.8886 11.2681 28.8101 11.2239 28.7453 11.144C28.742 11.1444 28.7392 11.1452 28.7357 11.1456C28.7359 11.1429 28.7363 11.1402 28.7364 11.1374C28.6838 11.1141 28.6238 11.084 28.5799 11.0448C28.5988 11.0745 28.6201 11.1038 28.6466 11.1323C28.6482 11.1531 28.6499 11.174 28.6515 11.1948C28.6498 11.174 28.6482 11.153 28.6465 11.1322C28.5495 11.0281 28.3908 10.9463 28.4937 10.7741C28.4904 10.7179 28.493 10.6609 28.5013 10.6032L28.4729 10.6131L28.478 10.5825L28.5013 10.6032C28.493 10.6609 28.4904 10.718 28.4937 10.7741C28.5416 10.6943 28.7089 10.8957 28.7476 10.9389C28.7481 10.8944 28.7525 10.8508 28.7626 10.8087C28.5535 10.6031 28.4899 10.2713 28.2558 10.0536C28.1843 9.98702 27.5058 9.61702 27.6058 9.4207C27.7241 9.18883 28.755 10.4046 28.8382 10.6338C28.8379 10.6243 28.8357 10.615 28.8307 10.6059C29.003 10.4573 29.003 10.4573 29.2053 10.5852C29.2627 10.5823 29.3201 10.5796 29.3776 10.5767C29.3783 10.578 29.3789 10.5792 29.3796 10.5805C29.7171 9.93188 30.0512 9.28245 30.3763 8.62768C30.3433 8.42219 30.2674 8.16737 30.1074 7.88919C30.0056 7.95638 29.971 7.78055 30.0054 7.72648ZM27.2297 12.3985C27.1232 12.3347 27.1229 12.2752 27.2287 12.2202C27.3394 12.2985 27.3398 12.358 27.2297 12.3985ZM27.2295 11.652C27.2361 11.6359 27.2673 11.6301 27.2844 11.621C27.4561 11.6899 27.1554 11.8295 27.2295 11.652ZM27.3901 10.7565C27.2773 10.7528 27.226 10.6924 27.2362 10.5751C27.2606 10.3503 27.638 10.7091 27.3901 10.7565ZM27.5187 10.9956L27.5239 10.9646L27.5474 10.9856L27.5187 10.9956ZM28.1041 10.7997C28.0534 10.8271 27.9715 10.6151 28.062 10.5607C28.1543 10.5773 28.2031 10.7469 28.1041 10.7997ZM28.0265 9.90863C28.1013 9.95895 28.1767 10.0095 28.252 10.0601L28.2521 10.0599L28.2525 10.0598L28.2526 10.0604C28.2526 10.0604 28.2523 10.0602 28.252 10.0601C28.1343 10.3687 28.0081 10.2321 27.9778 10.0016C27.9728 9.96377 27.9778 9.92284 28.0265 9.90863ZM28.0069 9.17876C27.9247 9.08234 27.9223 8.97155 27.9714 8.85761C27.9794 8.83893 28.0139 8.8317 28.0371 8.81874C28.1325 8.84874 28.1754 8.92325 28.197 9.00968C28.593 8.82335 27.8249 9.63962 28.0069 9.17876ZM29.3068 8.65475C29.034 8.66233 28.7927 8.7531 28.5165 8.77957L28.522 8.77062C28.5132 8.59298 28.522 8.42344 28.7053 8.32349C28.8089 8.26697 29.2949 8.52876 29.3169 8.64903L29.3068 8.65475ZM29.4481 10.3774C29.4539 10.361 29.4597 10.3446 29.4655 10.3283C29.4617 10.2579 29.4618 10.187 29.4561 10.117C29.4542 10.0937 29.4517 10.0705 29.4482 10.0474C29.4604 10.1405 29.4662 10.234 29.4656 10.3281C29.4597 10.3445 29.4539 10.3609 29.4481 10.3774ZM29.4496 9.06013L29.4627 9.03318L29.4808 9.05819L29.4496 9.06013ZM29.625 7.63743C29.6258 7.61406 29.6262 7.59077 29.6267 7.56727C29.6932 7.59215 29.6857 7.61539 29.625 7.63743Z" fill="#184B9E"/>
<path d="M29.2088 11.0894C29.1997 11.1054 29.1912 11.1212 29.182 11.1373C29.15 11.1934 29.1199 11.2483 29.0863 11.3063C29.2684 11.3939 29.0533 11.6606 28.9922 11.4597C28.0215 12.9638 27.1149 14.4803 26.0176 15.9026C26.0445 15.9169 26.0716 15.9313 26.0985 15.9456C26.8487 14.8903 27.6326 13.8525 28.4304 12.8331C28.2055 12.8032 28.4463 12.3434 28.6277 12.5597C28.8909 12.1573 29.1431 11.7483 29.3851 11.333C29.3384 11.2656 29.2999 11.2088 29.2948 11.122C29.2661 11.111 29.2375 11.1002 29.2088 11.0894Z" fill="#184B9E"/>
<path d="M26.0161 7.79014C26.204 7.89457 26.3903 8.00781 26.5577 8.14327C27.0093 7.17088 27.3481 6.1564 27.6913 5.14192C27.5325 5.01047 27.3448 4.9039 27.1602 4.81445C26.9006 5.81542 26.4423 6.84914 26.0161 7.79014Z" fill="#184B9E"/>
<path d="M7.26367 7.62068C7.412 8.04246 7.55731 8.46472 7.70577 8.88593C7.58322 8.45921 7.42969 8.04294 7.29268 7.6209C7.28291 7.62056 7.27331 7.62056 7.26367 7.62068Z" fill="#184B9E"/>
<path d="M27.1704 6.92833C27.2191 6.8923 27.2643 6.85327 27.2871 6.79137C27.2777 6.76524 27.2562 6.73726 27.2513 6.71045C27.2245 6.78311 27.1976 6.85576 27.1704 6.92833Z" fill="#184B9E"/>
<path d="M27.8061 5.24683C27.7975 5.23822 27.7896 5.22927 27.7805 5.2207C27.6471 5.71712 27.4394 6.17983 27.2688 6.66294C27.3152 6.62179 27.3699 6.67142 27.3918 6.70982C27.7963 6.89357 27.3801 7.26077 27.1121 7.08188C26.965 7.46445 26.7949 7.83113 26.6265 8.2041C26.8472 8.42839 26.9985 8.66715 27.1875 8.91267C27.2305 8.83395 27.2514 8.7507 27.2829 8.66715C27.2398 8.6511 27.1693 8.63289 27.1755 8.56811C27.2159 8.4772 27.2776 8.43274 27.3609 8.43472C27.3818 8.38083 27.4029 8.32698 27.4224 8.27254C27.298 8.28489 27.2262 8.02977 27.2019 7.96306C27.2562 7.9625 27.3105 7.96202 27.3649 7.96159V7.96172C27.4188 7.96241 27.4727 7.96323 27.5267 7.96413C27.5267 7.96676 27.5267 7.96951 27.5268 7.97227C27.7655 7.27299 27.9595 6.56545 28.1918 5.86506C28.15 5.74484 28.0897 5.61622 28.005 5.48925C27.8983 5.44397 27.832 5.36318 27.8061 5.24683ZM27.4502 7.41779L27.46 7.4462L27.4294 7.44116L27.4502 7.41779ZM27.3652 7.88493C27.27 7.86578 27.2294 7.79885 27.2431 7.68401C27.3638 7.46178 27.5034 7.8236 27.5259 7.88175C27.4724 7.88278 27.4188 7.88382 27.3652 7.88493Z" fill="#184B9E"/>
<path d="M12.6787 23.1258C13.5483 24.4042 14.2058 25.7932 15.3692 26.822C14.9041 25.5113 13.7537 24.305 13.0309 23.1001C12.951 23.1176 12.7549 23.1302 12.6787 23.1258ZM13.0139 23.4519C12.9838 23.3739 12.9538 23.2959 12.9236 23.218C12.9538 23.2959 12.9838 23.3739 13.0139 23.4518C13.1112 23.4888 13.2085 23.526 13.3056 23.563C13.2084 23.526 13.1112 23.4889 13.0139 23.4519Z" fill="#184B9E"/>
<path d="M12.3154 23.3346C12.388 23.4392 12.4612 23.5432 12.5352 23.6467C12.9918 24.2848 13.4785 24.872 13.9919 25.4651C13.4505 24.7517 12.8232 24.0604 12.3442 23.3047C12.335 23.3151 12.3255 23.3251 12.3154 23.3346Z" fill="#184B9E"/>
<path d="M13.1965 22.9716C13.1782 22.9899 13.1252 23.0473 13.123 23.0839C13.6955 24.0084 14.3067 24.9269 14.9289 25.8189C14.3908 24.8322 13.8331 23.8455 13.3548 22.8271C13.349 22.8661 13.227 22.9155 13.1965 22.9716Z" fill="#184B9E"/>
<path d="M30.5388 13.254C30.5366 13.2914 30.5358 13.3261 30.5377 13.3634C30.5833 13.29 30.6299 13.2172 30.6776 13.1453C30.6752 13.1447 30.6729 13.1441 30.6706 13.1436C30.6266 13.1806 30.5828 13.2172 30.5388 13.254Z" fill="#184B9E"/>
<path d="M30.5584 9.2168C30.203 9.89063 29.9233 10.6191 29.6094 11.3136C29.9659 11.9095 30.2938 12.3565 30.4878 13.0327C30.5506 12.9867 30.5781 13.0165 30.6705 13.1434C30.6729 13.144 30.6753 13.1446 30.6777 13.1452C31.0669 12.5786 31.388 11.9337 31.7118 11.3247C31.6759 10.5122 31.2945 9.62403 30.5584 9.2168ZM29.9523 11.6367C29.6656 11.5523 30.0906 11.2248 30.1861 11.1913C30.1868 11.3518 30.1875 11.5125 30.1882 11.6732C30.1094 11.6618 30.0278 11.659 29.9523 11.6367Z" fill="#184B9E"/>
<path d="M19.2138 20.3932C19.1664 20.3655 19.1247 20.3305 19.0814 20.2969C18.7574 21.0577 18.4155 21.8013 18.1401 22.5827C18.1549 22.6038 18.1864 22.6291 18.21 22.6413C18.2233 22.614 18.2364 22.5867 18.2495 22.5593C18.1939 22.4882 18.2434 22.4684 18.3037 22.4476C18.3113 22.4319 18.3189 22.4162 18.3266 22.4006C18.3236 22.3895 18.3207 22.3784 18.3179 22.3672C18.326 22.3691 18.3322 22.3717 18.3397 22.3738C18.6437 21.7509 18.9284 21.122 19.2227 20.4947C19.2126 20.4613 19.2097 20.4274 19.2138 20.3932Z" fill="#184B9E"/>
<path d="M19.8892 17.9659C19.8889 17.9657 19.8887 17.9655 19.8887 17.9655L19.8889 17.9657C19.9087 17.9305 19.9093 17.9174 19.9005 17.916C19.8898 17.943 19.8792 17.9699 19.8687 17.9967C19.8763 17.9864 19.8832 17.9761 19.8892 17.9659Z" fill="#184B9E"/>
<path d="M24.5365 7.84615C24.5305 7.83823 24.5206 7.82863 24.5073 7.81787C24.5165 7.82786 24.5263 7.8372 24.5365 7.84615Z" fill="#184B9E"/>
<path d="M24.5406 7.85001C24.5391 7.84867 24.5377 7.84704 24.5361 7.8457C24.5376 7.84768 24.5391 7.84975 24.5402 7.85151C24.5404 7.85082 24.5406 7.85001 24.5406 7.85001Z" fill="#184B9E"/>
<path d="M23.0219 2.52393C22.8632 3.59914 22.7157 4.68193 22.5329 5.75301C22.496 5.96939 22.455 6.18512 22.4126 6.40094C22.496 6.45242 22.5362 6.58637 22.3832 6.54995C21.7561 9.6784 21.0722 12.809 20.2603 15.896C20.2995 15.9075 20.3984 15.9453 20.3688 16.0096C20.296 16.0476 20.3209 16.0539 20.2312 16.0061C20.06 16.6454 19.8863 17.2845 19.7026 17.9203C19.7543 17.9262 19.8064 17.9303 19.8582 17.936C19.8753 17.9243 19.8921 17.915 19.9004 17.9163C20.3783 16.7063 20.9685 15.2377 21.0148 15.2568C21.2107 15.3357 19.2879 19.811 19.2192 19.9725C19.2769 20.0277 19.3144 20.0967 19.3321 20.1793C19.3439 20.1867 19.354 20.1945 19.3639 20.2024C19.9639 18.9885 20.5029 17.7579 21.0723 16.531C20.9566 16.568 20.8519 16.6382 20.7606 16.751C20.7452 16.554 20.9615 16.2935 21.1757 16.3029C22.4072 13.5849 23.5516 10.8648 24.4838 8.02443C24.3267 7.96275 23.9299 7.78752 23.9091 7.61858C23.8911 7.47077 24.3711 7.70708 24.5071 7.81783C24.3549 7.65155 24.3318 7.34625 24.1339 7.17649C23.9096 6.98404 23.5534 6.89739 23.269 6.83369C23.2513 6.92963 23.2351 7.02614 23.2135 7.12126C23.2404 7.16275 23.2538 7.21316 23.2582 7.26959C23.2306 7.25904 23.2073 7.24574 23.1878 7.22982C23.1657 7.31736 23.1445 7.4053 23.1244 7.49345C23.1744 7.52143 23.2194 7.55513 23.2597 7.59443C23.2074 7.59499 23.1552 7.59559 23.1029 7.59628C23.0124 8.03597 21.5729 14.1319 21.2757 14.0036C21.2599 13.9968 22.5705 9.48905 22.6057 9.35166C22.6032 9.35717 22.5989 9.36333 22.5964 9.36884C22.5682 9.36436 22.5636 9.35153 22.5825 9.33031C22.6002 9.3301 22.6083 9.33535 22.607 9.34611C22.7965 8.61154 22.9505 7.87408 23.1216 7.13503C23.1097 7.10374 23.103 7.06914 23.1007 7.03164C23.1148 7.03715 23.1276 7.04357 23.1395 7.05054C23.1567 6.96032 23.1729 6.87002 23.1881 6.77946C23.0662 6.65016 22.935 6.47755 23.2247 6.56756C23.2347 6.50966 23.691 3.7151 23.735 3.72633C23.9086 3.76998 23.3306 6.49903 23.3079 6.62235C23.7931 6.81639 24.4558 7.07314 24.6091 7.64221C24.9784 6.52942 25.4363 5.46393 25.888 4.38355C25.686 4.33634 25.5554 4.31443 25.5554 4.31443C25.5309 3.17598 23.9044 2.72907 23.0219 2.52393ZM20.036 18.4783C19.8911 18.4359 20.001 18.2874 20.05 18.316C20.1294 18.3801 20.1247 18.4342 20.036 18.4783ZM23.608 8.65635C23.7069 8.65635 23.7431 8.71549 23.748 8.80433C23.719 8.8113 23.6902 8.81832 23.6614 8.82542C23.6373 8.81591 23.6129 8.80777 23.5881 8.80088C23.5946 8.75276 23.6012 8.70447 23.608 8.65635ZM22.6341 10.3433C22.6341 10.3433 22.6348 10.3433 22.6351 10.3433L22.6352 10.3431C22.7682 10.3444 22.9013 10.3458 23.0341 10.3471C23.0605 10.3734 23.0869 10.3998 23.1132 10.4261H23.1131C23.1133 10.5021 23.1765 11.0601 23.0683 11.1285C22.9208 11.2217 22.6776 11.2209 22.6299 10.9913C22.6572 10.8833 22.6843 10.7752 22.7115 10.6672C22.6873 10.5918 22.6341 10.5395 22.5519 10.5104C22.5793 10.4547 22.6067 10.399 22.6341 10.3433ZM22.3201 13.0423C22.3248 13.0411 22.3345 13.0594 22.3418 13.0689C22.2721 13.0999 22.2934 13.1078 22.26 13.0675C22.2799 13.0585 22.2993 13.0476 22.3201 13.0423ZM21.8272 13.0489C21.8374 13.0407 21.8583 13.0338 21.8718 13.026C21.9158 13.0739 21.9068 13.1054 21.8447 13.1207C21.8149 13.0937 21.8091 13.0699 21.8272 13.0489ZM21.7584 9.58211L21.9436 9.62395C21.8802 9.62085 21.8174 9.60686 21.7584 9.58211ZM22.299 8.47458C22.256 8.5774 22.1305 8.41005 22.2474 8.34519C22.3068 8.37269 22.3204 8.42267 22.299 8.47458ZM23.9395 3.25243C24.0117 3.26896 24.0184 3.30903 23.9596 3.37256C23.8858 3.35603 23.8792 3.31592 23.9395 3.25243ZM23.9147 3.97082C23.9561 3.82559 24.0093 3.81289 24.0741 3.93277C24.0336 4.04795 23.9804 4.06069 23.9147 3.97082ZM24.6303 6.09421C24.5823 6.17307 24.262 6.54431 24.2848 6.44712C24.3278 6.24749 25.345 3.76632 25.2395 3.65768C25.2375 3.65652 25.2358 3.65475 25.2335 3.65428C25.2358 3.65479 25.2378 3.65596 25.2395 3.65768C25.3613 3.72874 24.9745 5.04319 24.9299 5.19758C24.8487 5.47861 24.7856 5.83931 24.6303 6.09421ZM25.1565 5.23882C25.0955 5.22677 25.2765 4.58525 25.2872 4.54643C25.2785 4.48522 25.3632 4.01954 25.4551 4.0529C25.4734 4.05944 25.3999 5.28707 25.1565 5.23882Z" fill="#184B9E"/>
<path d="M25.2334 3.65381C25.2357 3.65433 25.2374 3.65605 25.2394 3.65721C25.2377 3.65544 25.2357 3.65428 25.2334 3.65381Z" fill="#184B9E"/>
<path d="M19.6481 18.1109C19.5131 18.561 19.4257 19.0236 19.2891 19.4735C19.3131 19.4146 19.5646 18.7672 19.8687 17.9966C19.8188 18.0641 19.7365 18.1288 19.6481 18.1109Z" fill="#184B9E"/>
<path d="M13.8619 25.8534C13.8681 25.8576 13.8742 25.8615 13.8804 25.8656C13.7982 25.768 13.7157 25.6707 13.6328 25.5737C13.7078 25.6682 13.7832 25.7623 13.8619 25.8534Z" fill="#184B9E"/>
<path d="M18.142 12.95C18.1806 12.6372 18.2189 12.3242 18.257 12.0112C18.1117 13.1133 17.9659 14.2151 17.8457 15.3184C17.9571 14.5286 18.0372 13.7396 18.142 12.95Z" fill="#184B9E"/>
<path d="M18.2568 12.0114C18.4266 10.7246 18.5957 9.43749 18.7235 8.14697C18.5669 9.43525 18.4136 10.7238 18.2568 12.0114Z" fill="#184B9E"/>
<path d="M18.9181 5.39941C18.8839 6.31756 18.8141 7.23305 18.7236 8.1468C18.8342 7.23752 18.9464 6.32841 19.0629 5.41982C19.0153 5.41603 18.9654 5.40699 18.9181 5.39941Z" fill="#184B9E"/>
<path d="M22.2972 1.76318C22.2885 2.5185 22.2715 3.28393 22.2095 4.03684C22.1564 4.75045 22.0563 5.46759 21.9253 6.17169C22.0651 6.22179 22.1707 6.26247 22.2961 6.33779C22.5533 5.0691 22.7832 3.79206 22.9625 2.51015C22.9103 2.4987 22.8814 2.49341 22.8814 2.49341C22.8814 2.49341 22.7597 2.10163 22.2972 1.76318Z" fill="#184B9E"/>
<path d="M22.0386 4.47082C22.1648 3.53898 22.1792 2.62332 22.1792 1.68266C21.3015 1.12978 20.0126 1.04929 19.0001 0.941895C19.0233 1.08893 19.0459 1.23416 19.0638 1.37353C19.2321 2.66654 19.2913 4.00927 19.211 5.31037C19.2668 5.32229 19.6081 5.42271 19.5686 5.51267C19.5223 5.61834 19.2718 5.51073 19.2005 5.47324C19.0951 7.06295 18.8998 8.63574 18.7658 10.2219C19.1407 9.48412 19.1457 10.8728 18.7578 10.3214C18.5277 13.3297 18.179 16.4049 17.6792 19.3827C17.7646 19.4745 17.8608 19.5532 17.9678 19.6188C17.9619 19.6592 17.9576 19.6998 17.9521 19.7401C18.0983 19.1658 18.2239 18.5856 18.3552 18.0077C18.3331 17.9653 18.3322 17.918 18.3384 17.8691C18.3365 17.8693 18.3344 17.8694 18.3324 17.8697L18.3226 17.8489L18.339 17.8635C18.3387 17.8653 18.3387 17.8671 18.3384 17.869C18.3555 17.867 18.3715 17.8667 18.387 17.8676C18.4274 17.6896 19.2457 13.6786 19.3291 13.6999C19.5055 13.7435 18.5459 17.7985 18.5053 17.9681C18.5152 18.0041 18.5065 18.0401 18.4794 18.0758C18.4602 18.1562 18.4407 18.2373 18.421 18.32C18.4507 18.3522 18.4732 18.3895 18.4882 18.4321C18.457 18.431 18.426 18.43 18.3948 18.429C18.2518 19.0252 18.1075 19.6189 17.935 20.2073C17.9738 20.251 17.9636 20.2871 17.9041 20.3156C17.7228 20.9695 17.5693 21.6317 17.3667 22.2795C17.3774 22.2804 17.3885 22.2824 17.3989 22.285C17.3868 22.2421 17.4979 22.1666 17.5211 22.2814C17.5117 22.29 17.5025 22.3018 17.493 22.311C17.6008 22.3608 17.6914 22.3818 17.7903 22.4429C18.2529 21.2519 18.6097 20.0458 19.017 18.8358C18.9588 18.8373 18.9008 18.8387 18.8427 18.8402C18.8479 18.787 18.6791 17.995 18.9107 18.0387C19.2715 18.1077 18.9511 18.4026 18.9403 18.4836C18.9892 18.5346 19.037 18.5868 19.0834 18.64C20.4033 14.8333 21.0164 10.833 22.1339 6.97187C22.0508 6.99503 21.815 6.82002 21.7292 6.78425C21.7198 6.80693 21.6298 7.01453 21.5904 7.0026C21.5488 6.99012 21.6202 6.75011 21.6264 6.71822C21.2645 6.59628 21.3038 6.27406 21.6607 6.54639C21.683 6.43556 21.7229 6.33195 21.7507 6.22297C21.5938 6.0993 20.2078 5.84406 20.3279 5.51693C20.3572 5.43692 21.6571 6.00383 21.7762 6.09849C21.8754 5.56725 21.9682 5.03885 22.0349 4.50198C22.0003 4.5006 21.9633 4.50185 21.9376 4.49075C21.876 4.51011 21.3281 4.70015 21.3003 4.50323C21.284 4.38826 21.5261 4.43948 21.571 4.38998C21.7476 4.38632 21.7916 4.42678 21.9376 4.49075C21.9697 4.47228 22.0033 4.46565 22.0386 4.47082ZM18.2365 16.3867C18.2217 16.3557 18.2307 16.353 18.2636 16.3784C18.2545 16.3812 18.2455 16.384 18.2365 16.3867ZM18.6996 13.3606C18.6848 13.3907 18.5893 13.3274 18.6876 13.3263C18.6919 13.3379 18.7034 13.3529 18.6996 13.3606ZM18.0596 20.5684C18.0382 20.5478 18.0405 20.5305 18.0665 20.5164C18.0717 20.5259 18.077 20.5354 18.0834 20.547C18.0757 20.5539 18.0676 20.5611 18.0596 20.5684ZM20.3797 1.86913C20.358 1.91863 20.3363 1.96817 20.3148 2.01767C20.2846 2.04332 20.2545 2.06902 20.2243 2.09471C20.2992 2.18743 20.3415 2.97873 20.2114 2.85072C20.1743 2.8168 20.1349 2.07922 20.1455 2.07582C20.0929 2.03032 20.0403 1.98491 19.9875 1.93942C20.1142 1.72424 20.1407 1.71955 20.3797 1.86913ZM20.2014 4.7741C20.1361 4.74018 20.1244 4.67988 20.1233 4.61445C20.1807 4.65224 20.1994 4.7091 20.2014 4.7741ZM20.028 5.22992C20.0693 5.2016 20.1105 5.17332 20.1518 5.145C20.3298 5.16897 20.1909 5.38591 20.1151 5.41824C20.0616 5.41707 20.0079 5.41604 19.9543 5.41505C19.9785 5.35311 19.9984 5.28915 20.028 5.22992ZM19.461 4.67574C19.4564 4.71461 19.4447 5.0785 19.3677 5.06485C19.3456 5.06093 19.3796 2.77755 19.353 2.52665C19.2969 2.53857 19.2406 2.53698 19.1844 2.51666C19.212 2.37234 19.2528 2.26521 19.3156 2.17353C19.3153 2.17124 19.315 2.16871 19.3147 2.16642C19.307 2.07599 19.1364 1.08777 19.308 1.06612C19.4863 1.04317 19.5075 4.15389 19.4761 4.53534C19.5204 4.54119 19.5594 4.55966 19.5847 4.61096C19.5213 4.6519 19.4847 4.67527 19.461 4.67574ZM19.2023 6.5417C19.315 6.5417 19.527 6.66101 19.4705 6.80809C19.3827 7.03626 19.0218 6.60381 19.2023 6.5417ZM19.1986 13.3217C18.988 13.356 19.2249 12.9681 19.3324 13.2098C19.3238 13.2881 19.2629 13.3112 19.1986 13.3217ZM18.9169 13.9274C18.8238 13.9107 19.4236 8.23204 19.4609 7.76954C19.3395 7.83979 19.2561 7.66607 19.2283 7.59337C19.2281 7.5935 19.228 7.59358 19.228 7.59358L19.2279 7.59315L19.2282 7.59328L19.2283 7.59337C19.3036 7.54284 19.379 7.49226 19.454 7.44194C19.4702 7.44676 19.4812 7.45468 19.489 7.4642C19.5642 6.80895 19.5378 6.14712 19.6047 5.49119C19.6126 5.41027 19.6878 4.04529 19.7511 4.05575C20.1144 4.11494 18.9864 13.9401 18.9169 13.9274ZM19.9537 5.4973C20.0076 5.4964 20.0616 5.49558 20.1155 5.49489V5.49477C20.1698 5.49532 20.2241 5.49567 20.2786 5.49627C20.1674 5.80037 19.9489 5.90453 19.9537 5.4973ZM20.1448 7.24713C20.0147 7.21343 19.9879 7.14891 20.0641 7.05391C20.1783 7.02895 20.183 7.25036 20.1448 7.24713ZM20.1959 9.15437C20.2681 9.17098 20.2749 9.2111 20.2161 9.2745C20.1424 9.25797 20.1357 9.21798 20.1959 9.15437ZM20.3307 9.83475C20.2901 9.95006 20.2369 9.96267 20.1712 9.8728C20.2127 9.72757 20.2658 9.71496 20.3307 9.83475ZM21.0947 4.79859C20.9787 4.78839 20.8908 4.7227 20.8314 4.60145C20.8098 4.6621 20.7881 4.7227 20.7666 4.78322V4.78331H20.7667C20.7354 4.90757 20.7041 5.0318 20.6727 5.15606C20.5159 5.07238 20.4604 4.94343 20.5063 4.7691C20.5602 4.77014 20.6142 4.77104 20.668 4.77207C20.6886 4.68956 20.6652 4.61251 20.6389 4.53594L20.6388 4.53581V4.53594C20.4703 4.49272 20.3263 4.41 20.2069 4.2878C20.2091 4.26968 20.2105 4.25155 20.2113 4.23369C20.4865 4.21845 20.3682 4.31483 20.6742 4.36493C20.8021 4.36308 21.4179 4.62108 21.0947 4.79859ZM21.9673 3.5611C21.8541 3.56433 21.7362 3.5178 21.6295 3.59252C21.3538 3.63217 21.2318 3.63518 21.2674 3.31653C21.3058 3.1766 21.4936 3.15723 21.6193 3.18026C21.6386 3.37808 21.7368 3.22575 21.7452 3.16558C21.7734 3.16924 21.8015 3.1729 21.8298 3.1766C21.8396 3.2471 21.8773 3.29901 21.9362 3.33694C21.9658 3.40899 21.9813 3.48294 21.9673 3.5611Z" fill="#184B9E"/>
<path d="M17.7243 19.7075C17.7851 19.6519 17.8061 19.5811 17.8037 19.5012C17.7656 19.4517 17.7247 19.4101 17.6791 19.3828C17.5921 19.9018 17.4654 20.4127 17.3774 20.9313C17.4713 20.9149 17.549 20.9409 17.6105 21.0092C17.6668 20.7696 17.7367 20.5331 17.7985 20.2949C17.7744 20.2866 17.7505 20.2775 17.7264 20.2693C17.7087 20.2781 17.6911 20.2869 17.6735 20.2958C17.69 20.2858 17.7066 20.2757 17.7232 20.2656V20.2655C17.7418 20.2034 17.7774 20.1737 17.83 20.1764C17.8571 20.0795 17.8857 19.9828 17.9129 19.8859C17.792 20.0446 17.73 19.7642 17.7243 19.7075Z" fill="#184B9E"/>
<path d="M17.3695 20.979C17.3664 20.9973 17.3633 21.0155 17.3604 21.0338C17.3656 21.0162 17.3692 20.9979 17.3695 20.979Z" fill="#184B9E"/>
<path d="M17.2982 21.3996C17.2528 21.667 17.2097 21.935 17.1548 22.2008C17.2045 22.2383 17.233 22.2295 17.2896 22.2381C17.3888 21.9191 17.4811 21.5934 17.5532 21.2671C17.5414 21.2971 17.5296 21.3271 17.5183 21.3574C17.4466 21.351 17.3657 21.415 17.2982 21.3996Z" fill="#184B9E"/>
<path d="M25.2178 19.0474C25.2339 19.0338 25.2504 19.0206 25.2671 19.0077C25.266 19.0019 25.2647 18.9962 25.264 18.9902C25.2473 19.0084 25.2327 19.0277 25.2178 19.0474Z" fill="#184B9E"/>
<path d="M28.7357 12.7613C28.7366 12.7576 28.7363 12.7527 28.7357 12.7476C28.7252 12.7663 28.7147 12.7851 28.7041 12.804C28.7163 12.7927 28.727 12.7787 28.7357 12.7613Z" fill="#184B9E"/>
<path d="M29.4283 11.4043C29.2009 11.8365 28.9717 12.2614 28.7051 12.6708C28.7222 12.7014 28.7338 12.7289 28.736 12.7479C29.0846 12.1256 29.3741 11.6041 29.4509 11.4505C29.443 11.4354 29.4354 11.4199 29.4283 11.4043Z" fill="#184B9E"/>
<path d="M29.0276 14.0015C28.8955 14.0199 28.763 14.0343 28.6309 14.0503C28.7632 14.0343 28.8957 14.0199 29.0276 14.0015Z" fill="#184B9E"/>
<path d="M30.3443 13.151C30.3547 13.1431 30.365 13.1351 30.3752 13.1269C30.205 12.51 30.0069 11.9741 29.5097 11.5239C29.4372 11.6576 29.368 11.7918 29.3009 11.9283C29.3258 11.9233 29.3522 11.9203 29.3788 11.9179C29.3857 11.9324 29.3906 11.947 29.3945 11.9616C29.7999 11.9132 30.265 13.4389 30.2159 13.7496C30.1685 14.0512 29.9901 13.1364 29.9463 13.0259C29.8201 12.7076 29.5299 12.4788 29.3854 12.1786C29.3756 12.2321 29.3671 12.2857 29.3747 12.3395C29.2676 12.3033 29.2071 12.2694 29.1766 12.2206C29.0834 12.4592 27.3912 15.7283 27.1633 15.5641C27.1534 15.5571 28.0288 14.0095 28.7041 12.8042C28.6768 12.8297 28.641 12.8406 28.5963 12.8361C27.844 13.9705 27.0229 15.0316 26.2268 16.1332C26.2288 16.137 26.2309 16.1408 26.2328 16.1444C26.2268 16.1456 26.2213 16.1473 26.2156 16.1486C26.176 16.2038 26.1363 16.2589 26.0977 16.3148C26.1925 16.462 26.0113 16.8778 25.8373 16.6953C24.6246 18.452 23.2119 20.2886 21.7715 21.8607C21.8576 21.7734 24.1613 19.1922 24.273 19.298C24.3628 19.3825 22.4182 21.3718 22.3488 21.4429C23.1492 20.7173 24.0742 20.1166 24.8553 19.3748C24.6304 19.5474 25.1976 18.9194 25.2495 18.8613C25.2297 18.724 25.186 18.5941 25.0996 18.4789C25.1808 18.4598 25.2622 18.4407 25.3435 18.4217C25.4032 18.4722 25.463 18.5223 25.5229 18.5723V18.5722C25.5389 18.5687 25.5546 18.5639 25.5704 18.5592C25.6605 18.4699 26.6765 17.2149 26.8593 17.4127C26.9061 17.4629 25.7825 18.4615 25.763 18.4787C25.7855 18.4906 25.808 18.5026 25.8303 18.5145C25.8368 18.5263 25.8429 18.5381 25.8492 18.5498C27.2315 17.4834 28.6197 16.5202 29.7604 15.1691C29.7241 15.0482 29.7594 14.9226 29.8809 15.0169C29.9382 14.9418 29.9949 14.8663 30.0511 14.7902C29.97 14.7203 29.9241 14.6402 29.886 14.5388C29.8349 14.6157 27.7893 17.2856 27.5562 16.9704C27.6328 17.0733 30.2661 13.8105 30.3897 13.5955C30.3793 13.4705 30.3879 13.3562 30.3944 13.2314C30.3777 13.2044 30.361 13.1776 30.3443 13.151ZM28.2008 16.0887C28.1829 16.1247 28.1754 16.1676 28.1781 16.2173C28.1375 16.2485 28.0934 16.27 28.0466 16.2841C28.0934 16.27 28.1375 16.2484 28.1781 16.2172C28.1754 16.1676 28.1829 16.1247 28.2008 16.0887ZM28.3683 15.7269C28.2902 15.8241 28.2166 15.8073 28.1476 15.6765C28.1758 15.6131 28.2279 15.6189 28.2791 15.6282C28.3428 15.6307 28.3726 15.6635 28.3683 15.7269ZM28.3625 14.375C28.3825 14.366 28.4019 14.3551 28.4226 14.3499C28.4274 14.3486 28.4371 14.3671 28.4444 14.3765C28.3747 14.4074 28.3959 14.4153 28.3625 14.375ZM28.4758 13.6115C28.5342 13.5905 28.5957 13.5778 28.6561 13.5621L28.6584 13.5646C28.4967 13.924 28.4921 13.6057 28.4758 13.6115ZM28.6306 14.05C28.7627 14.034 28.8952 14.0196 29.0273 14.0012C28.8954 14.0197 28.7629 14.034 28.6306 14.05ZM29.2032 12.5987C29.228 12.5022 29.2884 12.442 29.3876 12.4234C29.3923 12.4794 29.3971 12.5351 29.4018 12.5911H29.4018C29.3822 12.6227 29.1444 12.8273 29.2032 12.5987ZM29.4518 14.7057C29.3668 14.7057 29.2939 14.7429 29.2212 14.7813C29.2237 14.6774 29.2262 14.5735 29.2288 14.4697C29.2541 14.463 29.2799 14.4583 29.306 14.4552C29.3792 14.5284 29.4292 14.6117 29.4559 14.7054C29.4546 14.7053 29.4534 14.7057 29.4518 14.7057ZM29.3761 14.2478C29.4955 13.9993 29.6994 13.9036 29.9661 13.9217C29.6879 14.2825 29.736 14.1641 29.3761 14.2478Z" fill="#184B9E"/>
<path d="M25.1437 13.0737C24.6865 13.8912 24.2896 14.7378 23.8364 15.558C24.3962 14.6016 24.9846 13.6769 25.5186 12.7012C25.4557 12.7286 25.3903 12.7424 25.3227 12.7477C25.2547 12.8517 25.195 12.9603 25.1437 13.0737Z" fill="#184B9E"/>
<path d="M27.0547 9.36644C27.0105 9.34866 27.117 9.08446 27.1312 9.04138C26.9554 8.77993 26.7526 8.59859 26.5586 8.35583C26.5135 8.46529 26.471 8.57565 26.431 8.68696C26.5313 8.77016 26.7206 8.89865 26.7593 9.03264C26.8086 9.06531 26.8452 9.12535 26.8423 9.19793C26.5564 9.70187 26.17 9.22315 26.5713 9.03531C26.5272 8.94716 26.4528 8.86753 26.3823 8.79543C26.2628 9.05093 24.1845 13.2894 23.9672 13.1465C23.9234 13.118 26.1877 8.96472 26.2903 8.75648C25.5456 8.4068 26.1075 8.07326 26.3537 8.6196C26.4 8.50993 26.4406 8.39849 26.4895 8.28985C26.3231 8.16205 26.1309 8.06383 25.9423 7.97249C25.6518 8.69673 25.3564 9.42902 24.9339 10.0868C24.9165 10.1141 24.7304 10.3984 24.6802 10.3689C24.643 10.3471 24.7718 10.1255 24.7848 10.098C24.7853 10.0716 24.7929 10.0422 24.7922 10.0163C24.8002 10.0213 24.8079 10.0264 24.8157 10.0313C25.1474 9.32516 25.5218 8.64323 25.8331 7.92355C25.6945 7.86717 25.5151 7.81328 25.3706 7.77316C25.3561 7.80092 25.2505 7.99505 25.1968 7.97374C25.1583 7.95837 25.2376 7.75779 25.2445 7.73455C25.2092 7.72138 25.0909 7.66865 25.0892 7.62109C25.087 7.56539 25.2665 7.57835 25.2962 7.57697C25.7392 6.59253 25.9186 5.49485 26.1505 4.44955C26.094 4.43419 26.04 4.42033 25.9892 4.40771C25.7862 4.93951 25.6101 5.47445 25.4401 6.01761C25.4712 6.04937 25.4463 6.15767 25.397 6.15573C24.2984 9.68844 23.0713 13.1072 21.4938 16.4595C21.516 16.4783 21.5305 16.5039 21.53 16.5413C21.515 16.6181 21.4765 16.6472 21.4144 16.6285C20.4807 18.5863 19.4146 20.4906 18.4502 22.4337C18.4533 22.4368 18.4556 22.4403 18.4584 22.4435C18.6379 22.3995 18.8336 22.4079 19.0072 22.457C19.2125 22.08 22.2501 16.5232 22.2223 16.5089C22.5337 16.6679 19.2898 22.1499 19.1121 22.4624C19.2231 22.5189 19.3358 22.5546 19.4535 22.6C20.5597 21.0705 21.4513 19.4076 22.506 17.8436C22.3499 17.7388 22.2667 18.0116 22.3032 17.6738C22.3188 17.5294 22.6956 17.3079 22.8328 17.349C23.0086 17.0683 23.146 16.7689 23.3025 16.4776C23.2662 16.5322 23.0675 16.8508 22.9976 16.8075C22.9856 16.8001 23.4198 15.9866 23.9076 15.0856C23.8896 15.0824 23.8692 15.0622 23.8887 15.0459C23.8957 15.0401 23.9114 15.0448 23.9234 15.0445C23.9244 15.0474 23.925 15.0497 23.9257 15.0522C24.4587 14.0681 25.0497 12.9906 25.1911 12.7491C25.1643 12.7479 25.1372 12.746 25.1101 12.7434C25.1096 12.5548 25.1092 12.3661 25.1089 12.1774L25.1096 12.1781C25.2505 12.179 25.3915 12.1702 25.5319 12.1511C25.5613 12.1015 25.6579 11.8988 25.7118 11.933C25.757 11.9617 25.6597 12.1452 25.6438 12.1781C25.6907 12.1912 25.7377 12.204 25.7849 12.2162C26.3057 11.2479 26.8601 10.2965 27.2975 9.28685C27.2749 9.24936 27.2505 9.2129 27.2245 9.17761C27.2088 9.20679 27.1059 9.38697 27.0547 9.36644ZM19.8005 20.1648C19.8752 20.1034 19.9216 20.1126 19.9397 20.1925C19.8695 20.2431 19.8232 20.2339 19.8005 20.1648ZM20.226 21.0926C20.2873 20.9766 20.348 20.8596 20.5143 20.9291C20.4768 21.0867 20.3637 21.1114 20.226 21.0926ZM23.0288 14.904C23.0152 14.9188 23.0015 14.9334 22.9879 14.948C22.9513 14.9206 22.948 14.8954 22.978 14.8726C22.9959 14.881 23.0121 14.893 23.0288 14.9039L23.0287 14.904L23.0288 14.904Z" fill="#184B9E"/>
<path d="M23.9258 15.0518C23.9198 15.0629 23.9138 15.074 23.9077 15.0852C23.9216 15.0876 23.9338 15.0796 23.9258 15.0518Z" fill="#184B9E"/>
<path d="M26.2295 4.61783C25.9389 5.5421 25.9692 6.75599 25.4624 7.59107C25.6094 7.64621 25.773 7.67212 25.9145 7.73858C26.3794 6.78083 26.6701 5.75654 27.0671 4.77059C26.7965 4.64775 26.5127 4.55215 26.2647 4.48096C26.2539 4.52684 26.2422 4.57247 26.2295 4.61783Z" fill="#184B9E"/>
<path d="M10.9398 22.6682C11.0342 22.7696 11.1282 22.8715 11.2247 22.9706C11.1195 22.8324 11.0082 22.6992 10.8911 22.5708C10.916 22.5988 10.9322 22.6312 10.9398 22.6682Z" fill="#184B9E"/>
<path d="M15.7212 5.14014C15.7229 5.21555 15.7246 5.29191 15.7262 5.36878C15.8093 5.34347 15.8601 5.30986 15.9481 5.32453C15.9495 5.26552 15.9507 5.2075 15.952 5.15103C15.9222 5.14758 15.8909 5.14784 15.8585 5.14715C15.8128 5.14405 15.7671 5.14164 15.7212 5.14014Z" fill="#184B9E"/>
<path d="M12.2382 23.4107C12.1976 23.4444 12.1705 23.4819 12.1426 23.5264C12.9419 24.4258 13.8011 26.2052 14.9079 26.7184C14.0173 25.609 13.0785 24.5613 12.2515 23.3975C12.247 23.4019 12.2424 23.4065 12.2382 23.4107Z" fill="#184B9E"/>
<path d="M31.2761 12.9707C31.3589 13.0239 31.4063 13.1139 31.4296 13.2292C31.3271 13.2645 31.2442 13.2336 31.1657 13.1678C30.8742 13.6823 30.5785 14.2062 30.2568 14.7025C30.3103 14.7706 30.3569 14.8483 30.4042 14.9206C30.8553 14.3062 31.2705 13.459 31.8403 12.9471C31.8358 12.6412 31.762 12.3732 31.6973 12.1958C31.5472 12.4482 31.4179 12.7136 31.2761 12.9707Z" fill="#184B9E"/>
<path d="M30.1383 14.8765C30.0758 14.9647 30.0126 15.0526 29.9473 15.1389C29.9719 15.2223 30.0432 15.3053 30.0756 15.3901C30.1557 15.2847 30.236 15.1889 30.3024 15.0724C30.266 15.0313 30.2306 14.9892 30.1962 14.9464C30.1755 14.9243 30.1561 14.901 30.1383 14.8765Z" fill="#184B9E"/>
<path d="M30.7673 13.1659C30.8163 13.1774 30.8652 13.189 30.9141 13.2005C30.8652 13.189 30.8161 13.1775 30.7672 13.166C30.6865 13.282 30.6148 13.4044 30.5394 13.5238C30.5422 13.5641 30.5128 13.8801 30.4219 13.7319C30.2975 13.9744 30.1323 14.1913 29.9727 14.4108C30.058 14.4757 30.1 14.5456 30.1747 14.6183C30.51 14.1407 30.8494 13.6455 31.1294 13.1332C31.0752 13.0688 31.0803 12.9969 31.1049 12.9184C31.1522 12.9214 31.1933 12.931 31.2291 12.9459C31.3709 12.6725 31.5048 12.39 31.6723 12.1309C31.632 12.0297 31.6004 11.9711 31.6004 11.9711C31.6004 11.9711 31.6822 11.8504 31.707 11.5771C31.396 12.1041 31.1163 12.6641 30.7673 13.1659Z" fill="#184B9E"/>
<path d="M16.6539 26.4541C16.5903 26.5176 16.3793 26.7825 16.2835 26.7881C16.2694 26.8003 16.2553 26.8123 16.2412 26.8242C16.4015 26.7587 16.5574 26.6741 16.7141 26.5917C16.7087 26.5742 16.7044 26.5562 16.7026 26.5364C16.6863 26.509 16.6702 26.4815 16.6539 26.4541Z" fill="#184B9E"/>
<path d="M16.6538 26.4539C16.6701 26.4814 16.6863 26.5089 16.7025 26.5363C16.7302 26.5388 16.7553 26.5466 16.7793 26.5575C17.6394 26.1113 18.4827 25.0885 19.1176 24.3613C19.0618 24.4045 18.4424 24.9107 18.4025 24.8465C18.3948 24.8341 18.4033 24.8128 18.4237 24.7851C17.8503 25.3577 17.2618 25.9151 16.6538 26.4539Z" fill="#184B9E"/>
<path d="M19.9584 23.1797C19.5064 23.674 19.0452 24.1587 18.5742 24.6335C18.869 24.3745 19.4413 23.9712 19.5216 23.8617C19.4741 23.8919 19.4223 23.9038 19.3666 23.8976C19.3415 23.8416 19.6314 23.6844 19.6663 23.6635C19.7739 23.5169 19.8857 23.3713 20.0057 23.2343C19.9703 23.2173 19.9699 23.2099 19.9584 23.1797Z" fill="#184B9E"/>
<path d="M18.4233 24.7849C18.4737 24.7345 18.5237 24.6838 18.5739 24.6333C18.5053 24.6935 18.4522 24.7457 18.4233 24.7849Z" fill="#184B9E"/>
<path d="M25.5413 19.2554C24.5275 20.0753 23.5583 20.9083 22.6167 21.8089C22.6934 21.7605 22.7705 21.7125 22.8434 21.6584C22.7957 21.6213 25.4349 19.4437 25.613 19.298C25.5861 19.3018 25.5634 19.2791 25.5413 19.2554Z" fill="#184B9E"/>
<path d="M30.1322 15.548C30.2184 15.7885 30.2594 16.3682 30.0842 16.5693C30.01 16.6544 30.08 15.8273 29.9969 15.6479C29.933 15.6759 29.9464 15.6172 29.9645 15.5838C29.9131 15.4905 29.8671 15.4022 29.8103 15.3141C28.6462 16.7782 27.2506 17.8671 25.8025 19.0439C25.8003 19.0848 25.7946 19.1253 25.7853 19.1652C25.8713 19.0988 26.3864 18.7963 26.4393 18.8806C26.4521 18.9008 23.899 20.7677 23.5692 21.1067C23.6698 21.0299 25.4747 19.5553 25.5728 19.6873C25.6378 19.7738 23.6337 21.2285 23.5464 21.2923C26.4075 19.5627 29.2007 17.4171 30.6643 16.215C30.4967 15.9544 30.586 15.5165 30.4005 15.2119C30.3188 15.3377 30.2338 15.4367 30.1322 15.548ZM29.2315 16.3071C29.2016 16.3134 29.1715 16.3196 29.1417 16.326C29.1661 16.2943 29.1966 16.2903 29.2315 16.3071ZM26.3393 18.7531C26.3824 18.7023 26.428 18.7322 26.4466 18.7753C26.4222 18.7988 26.2802 18.8221 26.3393 18.7531ZM27.1117 18.476C27.0997 18.4501 27.1091 18.4242 27.1362 18.402C27.1548 18.387 27.312 18.3098 27.3271 18.3734C27.3541 18.4919 27.1861 18.5149 27.1117 18.476ZM29.3654 16.6375C29.414 16.6364 29.4205 16.66 29.3847 16.7084C29.3542 16.9114 29.3597 17.1084 29.1461 17.2119C29.0728 17.039 29.051 16.8604 29.062 16.6781C28.8972 16.8625 28.7124 17.0277 28.5541 17.2202C28.6038 17.3713 28.7245 17.4292 28.8739 17.4667L28.8741 17.4669C28.7194 17.6624 28.5492 17.5765 28.326 17.4935C28.331 17.4773 28.3364 17.4612 28.3415 17.4449C28.2942 17.49 27.7765 17.8051 27.8449 17.6933C27.9349 17.5374 29.4924 16.174 29.4781 16.1593C29.5647 16.2484 29.2146 16.5002 29.1706 16.5526C29.2436 16.553 29.3132 16.5649 29.3654 16.6375ZM29.7283 15.6965C29.7147 15.682 29.701 15.6673 29.6875 15.6525V15.6524C29.7573 15.6067 29.7684 15.6308 29.7283 15.6965Z" fill="#184B9E"/>
<path d="M31.8351 13.1255C31.4037 13.7755 30.9281 14.4012 30.4927 15.0544C30.6796 15.3595 30.7531 15.7654 30.7911 16.1107C31.364 15.6367 31.7026 15.3313 31.717 15.2914C31.7579 15.1784 31.8847 14.9596 31.9566 14.728C31.9505 14.7266 31.9445 14.7251 31.9385 14.7237C31.8786 14.7742 31.8188 14.8241 31.759 14.8742C31.7356 14.8689 31.7126 14.8626 31.6899 14.855C31.664 14.8137 31.6383 14.7723 31.6124 14.7312C31.7283 14.5797 31.8204 14.5608 31.9385 14.7233C31.9446 14.7247 31.9506 14.7262 31.9567 14.7276C32.1126 14.2242 31.7951 13.6501 31.8351 13.1255Z" fill="#184B9E"/>
<path d="M17.3008 22.4854C17.0442 23.2831 16.8767 24.1072 16.6089 24.9016C16.6573 24.8905 16.701 24.862 16.7413 24.8122C16.8258 24.789 16.8714 24.8192 16.8779 24.9028C17.2702 24.1518 17.4596 23.3541 17.7452 22.5629C17.6387 22.5748 17.4221 22.5049 17.3008 22.4854Z" fill="#184B9E"/>
<path d="M17.1222 22.3608C16.9473 23.2224 16.708 24.0519 16.4326 24.8864C16.4412 24.8857 16.4497 24.8863 16.4572 24.8888C16.4685 24.8925 16.4795 24.8953 16.4904 24.8979C16.7759 24.0829 16.9654 23.2389 17.2321 22.418C17.2243 22.4121 17.2172 22.4054 17.211 22.398C17.178 22.3954 17.1488 22.3812 17.1222 22.3608Z" fill="#184B9E"/>
<path d="M16.425 25.5639C16.4157 25.5643 16.4064 25.5644 16.3972 25.5642C16.3733 25.6384 15.9905 26.8786 15.9334 26.8511C15.8362 26.8045 16.251 25.6285 16.2798 25.5397C16.2596 25.5308 16.2403 25.5188 16.2219 25.5034C16.0659 25.973 15.9549 26.4545 15.8384 26.9348C15.865 26.9315 15.8913 26.9275 15.9176 26.9225C16.2355 26.3517 16.4664 25.7297 16.755 25.1416C16.6228 25.2582 16.4441 25.3657 16.425 25.5639Z" fill="#184B9E"/>
<path d="M1.31738 15.3237C1.31799 15.3508 1.31876 15.3771 1.31979 15.4024C1.79697 15.9268 2.33483 16.4639 2.9036 16.8947C2.90588 16.8935 2.90838 16.8927 2.91079 16.8919C2.89771 16.8775 2.88479 16.8632 2.8721 16.8486C2.40349 16.3066 1.81001 15.8481 1.31738 15.3237Z" fill="#184B9E"/>
<path d="M21.9001 24.1359C21.8154 24.1857 21.6087 24.1431 21.5061 24.1472C21.4623 24.0444 21.3207 24.5805 21.3312 24.6114C21.333 24.6104 21.3349 24.6098 21.3367 24.6088C21.3338 24.6135 21.3321 24.6139 21.3312 24.6114C21.225 24.6686 21.1198 24.6434 21.0152 24.5348C20.9694 24.565 20.3784 24.798 20.3406 24.7818C20.2594 24.7467 20.8156 24.3401 20.9791 24.422C20.973 24.3706 20.969 24.3193 20.9668 24.268C20.8058 24.3175 19.747 24.7785 19.7261 24.7185C19.686 24.603 20.822 24.1985 20.9644 24.1398C20.965 24.035 20.9708 23.9304 20.9788 23.8257C20.8985 23.8377 20.4436 24.1413 20.5611 23.9139C20.5964 23.8456 20.9835 23.6289 21.0588 23.6791C21.189 23.6122 21.2927 23.6344 21.3701 23.7457C21.3492 23.8428 21.3162 23.9408 21.3586 24.0205C21.4191 24.0117 21.9601 23.9214 21.9135 24.1203C21.9179 24.1163 21.9226 24.113 21.9273 24.1101C21.9075 24.0499 21.8914 23.9887 21.879 23.9263C21.8326 23.9423 21.8119 23.9156 21.7583 23.8365C21.7934 23.8412 21.8285 23.846 21.8635 23.8507C21.8264 23.6604 21.7893 23.4108 21.7573 23.1699C21.7423 23.1967 21.252 23.5081 21.2575 23.3044C21.2567 23.251 21.6901 23.0571 21.7447 23.0735C21.7216 22.8957 21.7019 22.729 21.6873 22.6011C20.2562 23.8466 18.6288 24.9759 17.3135 26.334C18.0186 26.1464 18.7883 26.6008 19.5012 26.6136C20.2477 26.6268 21.0135 26.427 21.6606 26.0544C21.6606 26.0544 21.7377 25.9479 21.7663 25.735C21.1446 25.9442 20.4583 26.1715 19.8121 26.275C19.8243 26.2731 17.761 26.3236 17.8784 25.9353C17.8434 26.0523 20.0149 26.1395 20.081 26.1276C20.6593 26.0235 21.1852 25.6846 21.7755 25.6329C21.777 25.5755 21.7782 25.5181 21.7793 25.4606C21.2344 25.6097 20.6173 25.5032 20.0538 25.6483C19.9765 25.6685 18.2785 26.1006 18.5049 25.701C18.4818 25.7416 18.916 25.6946 19.3471 25.6389C19.3442 25.6381 19.3417 25.6375 19.3388 25.6367C19.441 25.4015 19.4569 25.3942 19.7415 25.4518C19.6691 25.5086 19.6326 25.5663 19.592 25.6063C19.9023 25.5641 20.1608 25.5255 20.1721 25.5238C20.1729 25.5199 20.1736 25.5161 20.1749 25.5118C20.1781 25.5152 20.1812 25.5187 20.1844 25.5221C20.692 25.4442 21.2738 25.2702 21.7869 25.3752C21.816 25.1642 21.9037 24.9557 21.9536 24.7489C21.3041 24.8709 20.6769 24.96 20.0393 25.1487C19.8009 25.2195 18.9288 25.3149 18.8906 25.3356C19.7852 24.8371 20.995 24.8557 21.98 24.6374C21.998 24.5591 22.0082 24.5056 22.0112 24.4608C21.8803 24.5864 21.8571 24.2016 21.9001 24.1359ZM20.1534 25.1871H20.1535C20.1551 25.2624 20.1567 25.3376 20.1584 25.4129C20.0788 25.4252 19.9991 25.4377 19.9194 25.45C19.9227 25.2959 19.9956 25.2037 20.1534 25.1871Z" fill="#184B9E"/>
<path d="M19.5926 25.606C19.5132 25.6168 19.4305 25.6278 19.3477 25.6385C19.4856 25.6778 19.5424 25.6555 19.5926 25.606Z" fill="#184B9E"/>
<path d="M21.3371 24.6089C21.3352 24.6099 21.3334 24.6105 21.3315 24.6114C21.3324 24.6139 21.3341 24.6135 21.3371 24.6089Z" fill="#184B9E"/>
<path d="M20.0532 25.6484C20.0536 25.6484 20.054 25.6483 20.0543 25.6482C20.0582 25.6472 20.058 25.6472 20.0532 25.6484Z" fill="#184B9E"/>
<path d="M17.208 26.3315C17.2121 26.3274 17.2161 26.3233 17.2202 26.3193C17.2153 26.323 17.2114 26.3271 17.208 26.3315Z" fill="#184B9E"/>
<path d="M17.1977 26.3693C17.1963 26.3544 17.2 26.3417 17.2081 26.3311C17.19 26.349 17.1718 26.3671 17.1538 26.3852C17.1685 26.3797 17.183 26.3744 17.1977 26.3693Z" fill="#184B9E"/>
<path d="M19.0405 22.5866C18.6481 23.2563 18.1923 23.9006 17.7664 24.5488C17.8552 24.5973 17.8856 24.6505 17.8415 24.6843C17.7827 24.7294 17.7253 24.7233 17.6717 24.6963C17.3453 25.2135 16.9671 25.71 16.5977 26.1979C16.6209 26.2239 16.632 26.2545 16.636 26.2879C17.3706 25.4399 18.1638 24.6806 18.7691 23.7214C18.7737 23.6784 18.7957 23.6453 18.8306 23.6213C18.8971 23.512 18.9614 23.4013 19.0256 23.2907C18.9317 23.239 18.8956 23.1361 18.8946 22.9968C18.9699 23.0514 19.0383 23.101 19.1054 23.1496C19.1898 23.0013 19.2767 22.8546 19.3728 22.7141C19.3269 22.6707 19.1088 22.56 19.0405 22.5866Z" fill="#184B9E"/>
<path d="M16.5372 26.276C16.4577 26.3772 16.182 26.6272 16.1773 26.6493C16.1381 26.7145 16.0992 26.7797 16.061 26.8455C16.2308 26.6777 16.421 26.5267 16.581 26.3494C16.5655 26.3226 16.5539 26.2943 16.5462 26.2646C16.5432 26.2683 16.5401 26.2724 16.5372 26.276Z" fill="#184B9E"/>
<path d="M29.5351 11.2105C29.54 11.2147 29.5452 11.2197 29.5505 11.2251C29.5795 11.1603 29.6071 11.0951 29.6335 11.0293C29.5994 11.0888 29.5661 11.1487 29.5332 11.2089L29.5351 11.2105Z" fill="#184B9E"/>
</svg>
