<svg width="44" height="19" viewBox="0 0 44 19" fill="none" xmlns="http://www.w3.org/2000/svg">
<path d="M39.1709 5.96385C39.1709 5.96385 36.9688 3.56815 33.8469 1.91436C30.7248 0.260567 27.4376 1.38905 24.8115 0.923936C22.1852 0.458487 17.8953 1.84359 16.8533 2.64436C15.8113 3.4453 13.6761 4.47078 12.5852 4.54469C11.4942 4.61793 8.71476 6.17847 7.7293 7.25256C6.74384 8.32698 6.54625 9.32236 4.71603 10.2017C2.88631 11.0813 1.43424 12.9046 1.01509 14.5324C0.595937 16.1606 -0.253116 16.8936 0.249867 17.628C0.249867 17.628 0.132967 18.0101 0.798982 17.9901C1.41142 17.9719 2.43756 17.3622 4.79176 18.1743C7.58165 19.1362 8.95022 18.0786 9.96776 16.9142C10.985 15.7495 11.0647 15.1859 12.7269 15.3634C14.3889 15.5412 16.6372 14.3861 17.4102 13.339C17.8814 12.7012 18.4277 11.9302 19.219 11.6774C19.8566 11.4737 20.5382 11.6675 21.1726 11.7862C22.0785 11.9555 22.8555 12.0073 23.7599 11.769C24.5101 11.5711 25.2443 11.2468 25.8661 10.7789C26.4237 10.3586 26.9718 9.8723 27.6869 9.7645C28.3542 9.66413 29.0017 9.96572 29.617 10.1805C31.3254 10.7771 33.2105 10.6843 34.8644 9.91877C35.3228 9.70646 35.7849 9.43579 36.1844 9.12577C38.2071 7.55349 39.6117 6.77851 39.6117 6.77851C39.6117 6.77851 40.6085 6.92501 39.1709 5.96385Z" fill="#0E2A15"/>
<path d="M6.7894 18.6351C6.17928 18.6351 5.49888 18.5072 4.76739 18.2551C3.95587 17.9752 3.23446 17.8389 2.56183 17.8389C2.02975 17.8389 1.63358 17.9246 1.31529 17.9932C1.1215 18.035 0.954173 18.0712 0.806684 18.0757L0.7546 18.0765C0.493519 18.0765 0.313953 18.013 0.221524 17.8877C0.159023 17.8034 0.151087 17.7075 0.159023 17.6425C-0.149843 17.1574 0.0684135 16.6754 0.368517 16.014C0.549405 15.6153 0.774441 15.1193 0.932347 14.5054C1.38027 12.7666 2.92179 10.9615 4.68157 10.1156C5.94382 9.50927 6.41952 8.84276 6.92333 8.1369C7.14258 7.82985 7.36911 7.51222 7.66756 7.18698C8.67931 6.08429 11.4823 4.52409 12.584 4.45001C13.6595 4.37726 15.7715 3.36104 16.8031 2.56821C17.7409 1.84746 21.1008 0.73584 23.6433 0.73584C24.0773 0.73584 24.4771 0.767587 24.8318 0.830584C25.2999 0.913423 25.8237 0.951947 26.4805 0.951947C26.9335 0.951947 27.3914 0.934256 27.8758 0.915737C28.3691 0.896722 28.8792 0.877046 29.3927 0.877046C30.6508 0.877046 32.2992 0.985348 33.8938 1.82994C36.9032 3.4242 39.0894 5.73492 39.2343 5.89001C40.0071 6.40771 40.0732 6.60331 40.036 6.72666C40.0068 6.82306 39.9061 6.87183 39.7366 6.87183C39.6964 6.87183 39.6599 6.86902 39.6354 6.86654C39.4378 6.97848 38.0926 7.75594 36.245 9.19214C35.8599 9.49092 35.3976 9.76887 34.9075 9.99572C33.9766 10.4268 32.943 10.6545 31.9182 10.6545C31.1227 10.6545 30.3403 10.522 29.5925 10.2608C29.4967 10.2274 29.4005 10.192 29.3034 10.1563C28.8676 9.99588 28.417 9.83004 27.9633 9.83004C27.8753 9.83004 27.7885 9.83649 27.7052 9.84889C27.1038 9.93934 26.6131 10.3176 26.1379 10.6834C26.0671 10.7381 25.9965 10.7925 25.9256 10.8459C25.3348 11.2905 24.5955 11.6383 23.7881 11.8514C23.3673 11.9622 22.9543 12.0161 22.5249 12.0161C22.1221 12.0161 21.7015 11.9709 21.1611 11.8701C21.0689 11.8527 20.9758 11.834 20.8819 11.815C20.5381 11.7456 20.1826 11.6738 19.8374 11.6738C19.6214 11.6738 19.4298 11.7016 19.2514 11.7585C18.5159 11.9934 17.9962 12.698 17.5381 13.3193L17.4878 13.3875C16.7631 14.3693 14.7262 15.467 13.0846 15.467C12.9603 15.467 12.8384 15.4607 12.7224 15.4483C11.3974 15.3071 11.1312 15.6337 10.4973 16.4193C10.3657 16.5823 10.2167 16.7671 10.0406 16.9687C9.32102 17.7928 8.3716 18.6351 6.7894 18.6351ZM2.562 17.6584C3.2548 17.6584 3.99572 17.7976 4.82625 18.0843C5.53889 18.33 6.19945 18.4545 6.7894 18.4545C8.29934 18.4545 9.21139 17.6435 9.90469 16.85C10.0786 16.6511 10.2263 16.4677 10.3567 16.306C11.0069 15.5003 11.3115 15.1162 12.7415 15.2691C12.8513 15.2808 12.9667 15.2866 13.0848 15.2866C14.6739 15.2866 16.6435 14.2274 17.3426 13.2805L17.3929 13.2122C17.8674 12.5687 18.4053 11.8393 19.1965 11.5865C19.3929 11.5237 19.6026 11.4933 19.8375 11.4933C20.201 11.4933 20.5652 11.5668 20.9177 11.6381C21.0108 11.657 21.1031 11.6756 21.1945 11.6925C21.7236 11.7915 22.134 11.8355 22.5251 11.8355C22.9388 11.8355 23.3367 11.7836 23.7422 11.6768C24.5271 11.4698 25.2447 11.1325 25.8169 10.7017C25.8872 10.6488 25.9575 10.5946 26.0279 10.5404C26.521 10.1606 27.0307 9.76771 27.6784 9.67015C27.7703 9.65643 27.8664 9.64932 27.9631 9.64932C28.4488 9.64932 28.9149 9.82078 29.3656 9.98663C29.4617 10.022 29.5571 10.0571 29.6518 10.0901C30.3805 10.3448 31.1431 10.4737 31.918 10.4737C32.9167 10.4737 33.9242 10.2517 34.8314 9.8317C35.3093 9.6103 35.7597 9.33979 36.134 9.04928C38.139 7.49073 39.559 6.70202 39.5731 6.69409C39.5903 6.6845 39.6108 6.68103 39.6296 6.68384C39.6319 6.68417 39.6799 6.69095 39.7366 6.69095C39.8242 6.69095 39.86 6.67474 39.8661 6.66846C39.8636 6.66118 39.8494 6.51799 39.1253 6.03403C39.1194 6.03006 39.1141 6.02543 39.1089 6.01997C39.0871 5.99616 36.8806 3.61617 33.8091 1.98916C32.2497 1.16326 30.6298 1.05727 29.3927 1.05727C28.8826 1.05727 28.3743 1.07678 27.8828 1.09563C27.3965 1.11432 26.937 1.13218 26.4803 1.13218C25.8126 1.13218 25.2787 1.09266 24.8002 1.008C24.4558 0.946987 24.0664 0.916068 23.6431 0.916068C21.1355 0.916068 17.8315 2.00487 16.9129 2.7109C15.8619 3.51878 13.7019 4.55484 12.596 4.62974C11.5484 4.70001 8.76975 6.25212 7.80049 7.30851C7.50965 7.62565 7.28627 7.93865 7.07016 8.24123C6.55263 8.96644 6.0637 9.65147 4.75978 10.2778C3.04481 11.1022 1.54281 12.859 1.10712 14.5497C0.945079 15.179 0.716571 15.683 0.532871 16.0881C0.240043 16.7334 0.0467532 17.1598 0.328834 17.5719C0.344376 17.5945 0.348841 17.6231 0.340904 17.6494C0.340408 17.6511 0.321889 17.7212 0.367855 17.7815C0.407373 17.8335 0.506581 17.8953 0.754435 17.8953L0.801062 17.8946C0.932017 17.8908 1.09174 17.8563 1.27693 17.8163C1.60415 17.7462 2.01073 17.6584 2.562 17.6584Z" fill="#0E2A15"/>
<path d="M39.2678 5.21954C39.2678 5.21954 37.0654 2.82351 33.9435 1.16989C30.8218 -0.483905 27.5344 0.644749 24.9085 0.179299C22.2823 -0.28615 17.9919 1.09912 16.9497 1.89973C15.9084 2.70066 13.7733 3.72647 12.6822 3.79988C11.5914 3.87363 8.81207 5.434 7.82644 6.50809C6.84048 7.58201 6.64339 8.57806 4.81317 9.4572C2.98295 10.3363 1.53138 12.1598 1.1119 13.7876C0.69258 15.4158 -0.270727 17.0049 0.232256 17.7392C0.232256 17.7392 0.620489 18.0785 1.14017 17.7536C1.65985 17.4289 2.63341 17.1112 5.0134 17.8452C7.39307 18.579 9.04735 17.3338 10.0651 16.1694C11.0823 15.0051 11.2382 14.7046 12.9002 14.8822C14.5623 15.06 16.7343 13.6416 17.5075 12.594C18.2806 11.5468 19.1419 10.6827 20.9483 11.3165C22.7544 11.9506 24.8602 10.8638 25.9633 10.0338C27.0658 9.20356 27.9178 8.94463 29.6019 9.63726C31.2861 10.3297 34.2587 9.95291 36.2812 8.3808C38.3039 6.80836 39.7586 6.71031 39.7586 6.71031C39.7586 6.71031 40.7055 6.1807 39.2678 5.21954Z" fill="#73C157"/>
<path d="M6.40364 18.1596C5.94431 18.1596 5.46728 18.0844 4.98629 17.9361C4.03274 17.6419 3.22006 17.4928 2.57075 17.4928C1.8214 17.4928 1.42242 17.6881 1.18763 17.8347C1.02377 17.9372 0.85462 17.9892 0.685141 17.9892C0.37892 17.9892 0.180669 17.8189 0.172237 17.8117C0.166615 17.8066 0.161655 17.801 0.157356 17.7947C-0.207563 17.262 0.125775 16.3603 0.511692 15.3163C0.696715 14.8153 0.888351 14.2973 1.0241 13.7697C1.47235 12.0303 3.01421 10.2255 4.77365 9.38042C6.03541 8.77426 6.51095 8.10791 7.01443 7.40222C7.23384 7.09484 7.46086 6.77688 7.75964 6.45148C8.77123 5.34928 11.574 3.78874 12.6755 3.71434C13.7515 3.64191 15.8631 2.6257 16.8945 1.8327C17.8329 1.11195 21.1932 0 23.7357 0C24.1694 0 24.5691 0.0319115 24.9239 0.094743C25.3922 0.177747 25.9161 0.216438 26.5736 0.216438C27.0264 0.216272 27.4841 0.198745 27.9684 0.180227C28.4615 0.161377 28.9714 0.141701 29.485 0.141701C30.7428 0.141701 32.3913 0.250003 33.9857 1.09459C36.995 2.68886 39.1815 4.99974 39.3264 5.155C39.8892 5.53314 40.168 5.89938 40.1543 6.24347C40.14 6.60111 39.8165 6.78614 39.8027 6.79391C39.7912 6.80036 39.7781 6.80432 39.7649 6.80515C39.7503 6.80598 38.3095 6.92304 36.3366 8.45679C35.0414 9.46342 33.2435 10.0646 31.5267 10.0646C30.7844 10.0646 30.1068 9.94739 29.5675 9.72566C28.917 9.45813 28.3963 9.33362 27.9284 9.33362C27.1989 9.33362 26.6367 9.64414 26.0175 10.1108C25.5527 10.4605 23.8973 11.6018 22.1102 11.6018C21.6882 11.6018 21.2869 11.5362 20.9182 11.4066C20.5199 11.2669 20.149 11.1961 19.8157 11.1961C18.7449 11.1961 18.124 11.9157 17.58 12.6526C16.8738 13.609 14.9052 14.9926 13.1926 14.9926C13.0897 14.9926 12.9882 14.9873 12.8907 14.9769C12.5963 14.9455 12.3568 14.9301 12.1583 14.9301C11.2653 14.9301 11.0004 15.2352 10.2924 16.0501L10.1327 16.2337C9.01544 17.5115 7.7608 18.1596 6.40364 18.1596ZM2.57058 17.3122C3.23792 17.3122 4.06862 17.464 5.03937 17.7636C6.87206 18.329 8.54917 17.7712 9.99628 16.1145L10.1557 15.9314C10.882 15.0954 11.1825 14.7494 12.1578 14.7494C12.3627 14.7494 12.6086 14.7649 12.9092 14.7972C13.0003 14.8069 13.0955 14.8117 13.1921 14.8117C14.7839 14.8117 16.7356 13.4916 17.4342 12.5451C17.9808 11.8049 18.6604 11.0152 19.8152 11.0152C20.1689 11.0152 20.5597 11.0896 20.9776 11.2361C21.327 11.3588 21.7081 11.4211 22.1097 11.4211C23.8409 11.4211 25.4548 10.3077 25.9085 9.96657C26.4694 9.54411 27.1023 9.15307 27.9279 9.15307C28.4201 9.15307 28.9628 9.28187 29.6358 9.55866C30.1533 9.77146 30.8069 9.88406 31.526 9.88406C33.2039 9.88406 34.9607 9.29725 36.2253 8.31427C38.1327 6.83144 39.5269 6.64642 39.7288 6.62691C39.7829 6.59086 39.9654 6.45379 39.9734 6.23487C39.9833 5.96023 39.7219 5.63665 39.2167 5.29918C39.211 5.29521 39.2055 5.29058 39.2005 5.28529C39.1787 5.26148 36.972 2.88116 33.9004 1.25432C32.3415 0.428412 30.7216 0.322424 29.4845 0.322424C28.9744 0.322424 28.4664 0.341936 27.9749 0.360785C27.4887 0.379469 27.0294 0.397161 26.5729 0.397327C25.9049 0.397327 25.3707 0.357808 24.8918 0.27282C24.5474 0.211807 24.1583 0.180888 23.7352 0.180888C21.2276 0.180888 17.9233 1.26986 17.0041 1.97589C15.9532 2.78426 13.7933 3.82016 12.6875 3.89456C11.6398 3.96533 8.86134 5.5176 7.89208 6.5735C7.60091 6.89097 7.37736 7.20413 7.16092 7.50721C6.64355 8.23225 6.15479 8.91695 4.8517 9.54312C3.13656 10.3667 1.63472 12.1232 1.19854 13.8147C1.06031 14.3514 0.867352 14.8737 0.680511 15.379C0.314931 16.3683 -0.00121119 17.2236 0.298561 17.682C0.333119 17.7082 0.478623 17.8086 0.684645 17.8086C0.819732 17.8086 0.956474 17.7658 1.09156 17.6816C1.49484 17.4296 1.96475 17.3122 2.57058 17.3122Z" fill="#374151"/>
<path opacity="0.5" d="M36.2814 8.38096C38.304 6.80852 39.7587 6.71047 39.7587 6.71047C39.7587 6.71047 40.7055 6.1807 39.2677 5.21954C39.2677 5.21954 37.0653 2.82351 33.9434 1.16989C30.8216 -0.483905 27.5342 0.644749 24.9083 0.179299C22.2822 -0.28615 17.9918 1.09912 16.9496 1.89973C15.9082 2.70066 13.7731 3.72647 12.682 3.79988C11.5914 3.87363 8.81207 5.434 7.82644 6.50809C6.84048 7.58201 6.64339 8.57806 4.81317 9.4572C2.98295 10.3363 1.53138 12.1598 1.1119 13.7876C0.69258 15.4158 -0.270727 17.0049 0.232256 17.7392C0.232256 17.7392 0.620489 18.0785 1.14017 17.7536C1.65985 17.4289 2.63341 17.1112 5.0134 17.8452C7.39307 18.579 9.04735 17.3338 10.0651 16.1694C11.0823 15.0051 11.2382 14.7046 12.9003 14.8822C14.5623 15.06 16.7343 13.6416 17.5075 12.594C18.2806 11.5468 19.1419 10.6827 20.9483 11.3165C22.7544 11.9506 24.8602 10.8638 25.9633 10.0338C27.0658 9.20356 27.9178 8.94463 29.6019 9.63726C31.2861 10.3301 34.2588 9.95307 36.2814 8.38096ZM4.38244 10.8497C4.57077 10.7239 4.7672 10.6123 4.96909 10.5186C5.30309 10.3626 5.66239 10.2428 6.0197 10.1528C6.55609 10.0171 7.21482 9.9501 7.57759 9.48101C8.20343 8.67197 8.42913 7.37384 9.08572 6.58663C10.0943 5.37745 11.5983 4.62827 13.1508 4.4358C13.8961 4.34354 14.7105 4.41133 15.4284 4.64116C15.8763 4.78485 16.3456 5.09554 16.8267 4.93796C17.4091 4.74632 17.6756 4.02856 17.9261 3.53368C18.2833 2.82781 18.7302 2.24249 19.4319 1.8445C20.507 1.23421 21.8137 0.923356 23.0497 1.01463C24.0788 1.09069 24.8935 1.78134 25.8627 2.04837C26.9158 2.33822 27.6389 1.93693 28.5395 1.53878C30.3185 0.75272 32.797 1.39691 34.2329 2.65784C35.3956 3.67902 35.7926 4.78253 34.6532 5.98659C33.1224 7.60483 30.6184 6.85581 28.9177 5.98659C28.3431 5.69326 27.5574 5.38886 26.9378 5.76453C26.47 6.04826 26.1222 6.39367 25.7569 6.80306C24.8703 7.79713 23.745 8.30986 22.4379 8.46628C21.486 8.58004 20.4966 8.35137 19.5945 8.07143C19.1867 7.94494 18.7664 7.74587 18.3272 7.76191C18.0432 7.77216 17.9301 7.90725 17.7618 8.09723C17.3188 8.59707 17.1341 9.60502 16.7535 10.1817C15.7669 11.6753 13.7141 12.5315 11.9528 12.4283C11.5252 12.4033 11.1061 12.301 10.6962 12.1808C10.2455 12.0483 9.70031 11.8688 9.32001 12.2499C8.9708 12.5999 8.80529 13.0698 8.56405 13.4908C7.85819 14.7245 6.35188 15.7447 4.89601 15.6863C4.51522 15.6709 4.00248 15.6039 3.65889 15.4288C3.09522 15.1421 2.64598 14.3481 2.61721 13.7382C2.58067 12.9778 2.96973 12.2451 3.46114 11.6904C3.72767 11.3893 4.04712 11.0745 4.38244 10.8497Z" fill="#374151"/>
<path opacity="0.5" d="M36.2814 8.38096C38.304 6.80852 39.7587 6.71047 39.7587 6.71047C39.7587 6.71047 40.7055 6.1807 39.2677 5.21954C39.2677 5.21954 37.0653 2.82351 33.9434 1.16989C30.8216 -0.483905 27.5342 0.644749 24.9083 0.179299C22.2822 -0.28615 17.9918 1.09912 16.9496 1.89973C15.9082 2.70066 13.7731 3.72647 12.682 3.79988C11.5914 3.87363 8.81207 5.434 7.82644 6.50809C6.84048 7.58201 6.64339 8.57806 4.81317 9.4572C2.98295 10.3363 1.53138 12.1598 1.1119 13.7876C0.69258 15.4158 -0.270727 17.0049 0.232256 17.7392C0.232256 17.7392 0.620489 18.0785 1.14017 17.7536C1.65985 17.4289 2.63341 17.1112 5.0134 17.8452C7.39307 18.579 9.04735 17.3338 10.0651 16.1694C11.0823 15.0051 11.2382 14.7046 12.9003 14.8822C14.5623 15.06 16.7343 13.6416 17.5075 12.594C18.2806 11.5468 19.1419 10.6827 20.9483 11.3165C22.7544 11.9506 24.8602 10.8638 25.9633 10.0338C27.0658 9.20356 27.9178 8.94463 29.6019 9.63726C31.2861 10.3301 34.2588 9.95307 36.2814 8.38096ZM32.9961 8.22421C31.6394 8.44495 30.3782 8.19842 29.0544 7.90989C28.3046 7.7462 27.4357 7.5787 26.7052 7.91518C26.0167 8.23199 25.4547 8.76639 24.8025 9.14751C23.5189 9.89735 21.9768 10.2234 20.5035 9.95307C20.0528 9.8704 19.6229 9.75962 19.1994 9.66901C18.5849 9.68009 18.0184 9.86065 17.5734 10.4408C17.1746 10.9607 16.7999 11.5077 16.3545 11.9893C15.395 13.0257 14.1334 13.6294 12.7058 13.6429C12.2865 13.6472 11.867 13.6337 11.4563 13.5414C11.0047 13.4402 10.2593 13.1702 9.85507 13.5353C9.34134 13.9989 9.20989 14.7281 8.74196 15.2275C7.6019 16.4444 5.84989 16.7779 4.27414 16.5019C3.38293 16.3457 2.57108 16.2294 1.67341 16.4158C1.46094 16.4601 1.19275 16.4717 1.15737 16.1904C1.11124 15.8167 1.13604 15.4305 1.21375 15.0437C1.3328 14.0551 1.65853 13.0809 2.21939 12.2628C2.80554 11.4071 3.59358 10.8203 4.45983 10.296C4.51687 10.2571 4.57358 10.2178 4.63245 10.1821C4.78457 10.0885 4.9428 10.0007 5.10236 9.91405C5.7358 9.51937 6.4501 9.28673 6.90447 8.65279C7.30907 8.08813 7.51625 7.32242 8.00303 6.8239C8.37357 6.44476 8.76742 6.1144 9.18575 5.82521C9.65054 5.41664 10.2144 5.1038 10.7709 4.86223C11.613 4.49665 12.529 4.13868 13.4389 3.98871C14.2447 3.85643 15.0765 3.80418 15.8449 3.51962C16.4699 3.15652 17.0233 2.67404 17.6467 2.2911C18.4187 1.81755 19.2525 1.44684 20.11 1.15765C20.8389 0.911286 21.6171 0.7509 22.3905 0.716342C22.4677 0.708571 22.5436 0.696832 22.6213 0.690549C24.3723 0.555957 26.0329 1.16146 27.7836 0.833574C29.0977 0.587208 30.419 0.418224 31.6877 0.777686C32.3939 0.887972 33.0733 1.17915 33.7011 1.51067C34.4791 1.92056 35.2896 2.36699 35.9679 2.93198C36.6243 3.47845 37.0452 4.0942 37.1084 4.75377C37.5706 6.68468 34.4442 7.98876 32.9961 8.22421Z" fill="#374151"/>
<path opacity="0.5" d="M39.2579 5.20752C39 5.24753 38.7001 5.28705 38.5164 5.46248C38.2158 5.74952 38.0291 6.2955 38.2574 6.67943C38.3388 6.81617 38.4415 6.93241 38.5537 7.03972C39.3049 6.73978 39.7583 6.70853 39.7583 6.70853C39.7583 6.70853 40.7051 6.17876 39.2672 5.21761C39.2672 5.21761 39.2636 5.2138 39.2579 5.20752Z" fill="#374151"/>
<path d="M43.7677 5.99629C43.7677 5.99629 43.6287 5.23768 42.955 5.71123C42.2816 6.18462 40.4365 6.095 39.8652 5.84384C39.8652 5.84384 39.2503 6.43959 39.7607 6.72001C39.7607 6.72001 41.3034 6.80517 42.016 7.66381C42.729 8.52262 43.3686 8.29047 43.7391 7.81196C44.11 7.33361 43.7677 5.99629 43.7677 5.99629Z" fill="#374151"/>
<path d="M42.978 8.32622C42.6286 8.32622 42.2816 8.12136 41.9462 7.71742C41.2667 6.89846 39.7704 6.80686 39.7556 6.80603C39.742 6.80537 39.7288 6.80156 39.717 6.79495C39.5725 6.71558 39.4899 6.60579 39.4715 6.46823C39.4275 6.142 39.787 5.78965 39.8024 5.77476C39.8286 5.74914 39.8678 5.74203 39.9014 5.75691C40.1709 5.8753 40.7394 5.95483 41.3164 5.95483C42.0337 5.95483 42.6121 5.83743 42.9031 5.63306C43.0653 5.51897 43.2161 5.46094 43.3504 5.46094C43.7574 5.46094 43.8525 5.95466 43.8565 5.97549C43.8697 6.02576 44.2037 7.35564 43.8105 7.86292C43.579 8.16187 43.2834 8.32622 42.978 8.32622ZM39.7871 6.62729C39.987 6.64134 41.394 6.76916 42.0855 7.60217C42.3846 7.96279 42.685 8.1455 42.9782 8.14566C43.2263 8.14566 43.4711 8.00611 43.6673 7.7528C43.9496 7.38904 43.7723 6.37481 43.6799 6.01468C43.6779 6.00509 43.6066 5.64199 43.3502 5.64199C43.2536 5.64199 43.1381 5.68879 43.0066 5.78121C42.5678 6.08975 41.7592 6.13588 41.3163 6.13588C40.7457 6.13588 40.197 6.06247 39.8877 5.94656C39.7883 6.05602 39.6273 6.27477 39.6504 6.44475C39.6603 6.51816 39.705 6.57818 39.7871 6.62729Z" fill="#374151"/>
<path d="M43.7354 7.80676C44.1063 7.32841 43.764 5.99109 43.764 5.99109C43.764 5.99109 43.7131 5.7196 43.5276 5.60303C42.8754 5.84179 43.3098 6.36858 43.0682 6.85122C43.008 6.97143 42.9065 7.11363 42.7448 7.08354C42.4037 7.01905 41.3288 6.62867 40.5146 6.3456C40.1788 6.29269 39.8483 6.28607 39.5581 6.37718C39.5475 6.50201 39.5933 6.62503 39.7572 6.71481C39.7572 6.71481 41.2998 6.79997 42.0125 7.65861C42.7253 8.51742 43.3648 8.28527 43.7354 7.80676Z" fill="#374151"/>
<path d="M43.7333 7.81283C44.1042 7.33448 43.7619 5.99716 43.7619 5.99716C43.7619 5.99716 43.7477 5.92259 43.7077 5.83496C43.5941 6.0762 43.5152 7.03008 43.4889 7.15756C43.4216 7.48561 43.3092 7.73991 42.9849 7.8545C42.6336 7.97834 42.3467 7.58978 42.1336 7.38475C41.6779 6.94642 41.04 6.7819 40.4204 6.8229C40.9267 6.93683 41.6035 7.17443 42.0104 7.66485C42.7232 8.52349 43.3627 8.29134 43.7333 7.81283Z" fill="#374151"/>
<path opacity="0.5" d="M28.4634 7.1052C28.2686 6.66025 27.8142 6.26623 27.3521 6.32162C27.0201 6.36065 26.4929 6.88512 26.4521 7.21466C26.4341 7.36 26.6846 7.43159 26.7866 7.40382C27.2702 7.27137 27.7651 7.20127 28.2651 7.2679C28.3585 7.28014 28.5194 7.23351 28.4634 7.1052Z" fill="white"/>
<path opacity="0.5" d="M18.71 9.15013C18.9187 9.11557 19.1302 9.19196 19.3427 9.14666C19.4104 9.13144 19.4971 9.07787 19.4625 8.99206C19.1285 8.16185 17.8159 7.86109 17.7715 9.2829C17.7681 9.38591 17.9328 9.45784 18.0338 9.41683C18.2565 9.32655 18.4705 9.18931 18.71 9.15013Z" fill="white"/>
<path opacity="0.5" d="M10.5244 13.0397C10.6625 13.0082 10.6489 12.8688 10.5621 12.7896C10.3424 12.59 9.94536 12.4744 9.68312 12.5751C9.46007 12.6609 9.28249 12.9572 9.28977 13.2238C9.3025 13.6922 10.3379 13.0824 10.5244 13.0397Z" fill="white"/>
<path opacity="0.5" d="M27.5331 1.30263C27.5609 1.22542 27.4709 1.15795 27.4089 1.13646C27.215 1.06916 27.0143 1.10405 26.82 1.15051C26.7568 1.16573 26.6923 1.17102 26.627 1.173C26.358 1.12951 26.0931 1.02254 25.8216 1.12819C25.7723 1.14721 25.7062 1.18209 25.7176 1.24873C25.7834 1.64159 26.257 1.7828 26.6011 1.81239C26.9562 1.84365 27.4041 1.65945 27.5331 1.30263Z" fill="white"/>
<path opacity="0.5" d="M17.182 3.32109C17.146 3.19757 16.9429 3.15938 16.8541 3.23709C16.7109 3.36292 16.5811 3.50231 16.4221 3.60896C16.2981 3.69229 16.1545 3.73545 16.0229 3.80258C15.9123 3.83647 15.8179 3.88575 15.764 3.99587C15.6368 4.25364 16.141 4.41965 16.2979 4.43569C16.8743 4.49554 17.3404 3.86326 17.182 3.32109Z" fill="white"/>
<path opacity="0.5" d="M7.60428 8.76423C7.58824 8.63477 7.3513 8.52779 7.25821 8.64254C7.1552 8.76969 7.05582 8.90015 6.94537 9.02069C6.92933 9.03805 6.91131 9.05227 6.89378 9.06798C6.87427 9.08352 6.85675 9.09972 6.83558 9.11493C6.67735 9.23101 6.46752 9.30707 6.3579 9.47671C6.30647 9.55591 6.36269 9.62255 6.43032 9.66769C6.9505 10.0138 7.6681 9.27499 7.60428 8.76423Z" fill="white"/>
<path opacity="0.6" d="M16.3444 7.06493C16.7127 6.22513 16.0939 5.73323 15.4512 5.29605C14.832 4.87442 14.1675 4.84532 13.4777 4.92452C12.8173 4.93758 12.1613 5.11748 11.5102 5.44553C10.2814 6.06343 8.77588 7.74433 8.9361 9.21129C8.9485 9.32389 9.1527 9.41218 9.2319 9.31562C10.6289 7.60875 12.2736 6.64462 14.5334 7.2774C14.9962 7.40719 16.0653 7.70019 16.3444 7.06493Z" fill="#DBDBDB"/>
<path opacity="0.6" d="M6.3448 12.1056C6.37803 12.112 6.41094 12.1183 6.44434 12.1256C6.86299 12.2122 7.37805 12.4586 7.77571 12.1909C8.11185 11.965 8.10293 11.4271 7.85639 11.1647C6.58687 9.81468 4.51095 10.9822 3.68455 12.2101C3.39321 12.6433 3.13064 13.3318 3.19347 13.8678C3.20207 13.9437 3.36245 14.0262 3.41255 13.9454C3.83369 13.265 4.33369 12.553 5.07709 12.197C5.4845 12.0022 5.91639 12.025 6.3448 12.1056Z" fill="#DBDBDB"/>
<path opacity="0.6" d="M25.5505 3.55301C24.5857 1.55249 22.0094 0.887629 20.2052 1.96354C19.6149 2.31572 18.9437 2.83673 18.5229 3.38568C18.4077 3.53614 17.9326 4.43133 18.4536 4.42306C18.7324 4.4181 19.0572 4.13751 19.2761 3.9925C19.5735 3.79557 19.868 3.58657 20.181 3.41379C20.8717 3.03217 21.7521 2.95512 22.498 3.20744C23.3613 3.49911 23.8142 4.34171 24.5672 4.79377C25.6563 5.44655 25.8721 4.22018 25.5505 3.55301Z" fill="#DBDBDB"/>
<path opacity="0.6" d="M34.5341 4.7822C34.5104 4.02524 34.0708 3.45877 33.5174 2.95959C33.142 2.62096 32.7181 2.35707 32.2637 2.13864C30.9484 1.50669 29.1863 1.46006 28.0447 2.47661C27.9449 2.56524 28.1692 2.66924 28.2412 2.64593C29.7258 2.16229 31.519 2.41477 32.29 3.93364C32.623 4.58924 32.6141 5.67242 33.3586 6.04693C34.0524 6.39614 34.5339 5.41531 34.5349 4.84834C34.5349 4.82618 34.5342 4.80402 34.5341 4.7822Z" fill="#DBDBDB"/>
</svg>
