<svg width="28" height="28" viewBox="0 0 28 28" fill="none" xmlns="http://www.w3.org/2000/svg">
<g clip-path="url(#clip0_3164_7421)">
<path d="M13.1795 1.65758C12.9225 1.65758 12.6709 1.69586 12.4248 1.77898C11.6866 2.03328 10.9756 2.70484 10.4834 4.08242C9.95297 5.54477 9.77797 6.83539 8.985 7.91273C8.18656 8.99008 6.80297 9.67914 4.15992 9.96352C3.03719 10.0893 2.30492 10.5705 1.8357 11.2377C1.36594 11.9049 1.16961 12.7745 1.24836 13.6659C1.40641 15.4377 2.61828 17.1768 4.72047 17.3791C7.49203 17.6471 9.59203 17.4448 11.2108 16.8924C11.1889 16.5424 11.1725 16.1924 11.167 15.837C11.1123 13.0698 12.9827 10.8877 15.0608 10.133C15.5803 9.94164 16.1163 9.8432 16.6467 9.84867C16.6905 9.84867 16.7288 9.85414 16.7725 9.85414C16.9256 9.28539 17.0623 8.68383 17.1881 8.06586C17.7131 5.50648 16.4061 3.15984 14.8038 2.17C14.3061 1.86047 13.792 1.68547 13.2944 1.65977C13.2561 1.65977 13.2178 1.6543 13.1795 1.6543V1.65758ZM11.4077 3.93367L12.3702 4.11523C11.8069 7.1307 10.9209 9.04477 9.44984 10.2534C8.42719 11.0955 7.16391 11.5713 5.62172 11.8885L5.37781 10.9315C6.84672 10.6307 7.96781 10.1987 8.82641 9.4932C10.0569 8.48148 10.8608 6.84086 11.4077 3.93367ZM16.6248 10.833C16.2311 10.8276 15.8155 10.9041 15.3944 11.0573C13.7209 11.6698 12.1022 13.5127 12.1514 15.8151C12.2061 18.5877 12.7311 21.0268 14.2788 22.8534C15.8209 24.6799 18.435 25.9651 22.8756 26.326C24.9155 26.4955 26.2717 25.2924 26.66 23.9635C26.8514 23.2963 26.7967 22.6073 26.4631 22.0166C26.135 21.426 25.5116 20.9065 24.467 20.6112C22.0061 19.9166 20.7209 18.8229 20.0647 17.5159C19.4084 16.2143 19.3592 14.7924 19.1131 13.4143V13.4088C18.8944 12.1291 18.353 11.4401 17.7077 11.0955C17.3795 10.926 17.0131 10.8385 16.6248 10.833ZM4.40656 11.1065L4.64719 12.069C4.25234 12.1291 3.84328 12.1838 3.41453 12.2385L3.29422 11.2651C3.68359 11.2159 4.05273 11.1666 4.40656 11.1065ZM16.6194 11.8885L16.6959 12.8729C16.3842 12.9002 16.1108 12.9549 15.8702 13.0315L15.4381 12.1455C15.7936 12.0143 16.1873 11.9268 16.6194 11.8885ZM14.5686 12.6104L15.0116 13.5182C14.935 13.5838 14.8694 13.6549 14.8038 13.7315C14.4155 14.1963 14.2022 14.8416 14.1366 15.5854C13.9998 17.0784 14.4756 18.9268 14.9405 20.0807L14.0327 20.4526C13.5186 19.1838 12.9991 17.2588 13.1522 15.4979C13.2342 14.6229 13.4858 13.7698 14.0491 13.1026C14.1967 12.9221 14.3717 12.758 14.5686 12.6104Z" fill="#BEBEBE"/>
</g>
<defs>
<clipPath id="clip0_3164_7421">
<rect width="28" height="28" fill="white"/>
</clipPath>
</defs>
</svg>
