<svg width="32" height="32" viewBox="0 0 32 32" fill="none" xmlns="http://www.w3.org/2000/svg">
<path d="M15.093 4.22428C11.9165 4.78828 9.71335 2.91709 7.51554 6.02359C4.90366 9.71534 9.57498 16.5555 17.2421 14.7367C24.538 13.0058 26.1521 5.63009 22.2496 3.03472C19.6368 1.29703 17.9023 3.72547 15.093 4.22428Z" fill="#FFECA1"/>
<path d="M16.1945 9.88362C16.1802 9.89544 16.166 9.90725 16.1518 9.91906C16.016 10.0326 15.815 10.0154 15.7 9.88094C14.9831 9.04206 13.8922 8.57219 12.7887 8.424C10.6307 8.13419 9.09797 9.38169 7.40234 10.8379C8.79078 13.6032 12.4248 15.8792 17.2424 14.7363C20.2119 14.0319 22.24 12.3922 23.3382 10.5204C20.538 9.62325 18.3952 8.06212 16.1945 9.88362Z" fill="#FFDF85"/>
<path d="M15.093 4.22397C15.9825 4.06603 16.7642 3.71466 17.5002 3.36328C17.9829 4.42516 18.1973 6.03522 15.4377 6.51497C12.8868 6.95841 12.4386 5.57778 12.5367 4.27972C13.322 4.34572 14.166 4.38859 15.093 4.22397Z" fill="#CC624E"/>
<path d="M17.618 3.64941C17.524 4.39323 16.9418 5.09423 15.2767 5.38373C13.5975 5.67566 12.8296 5.17704 12.5288 4.43191C12.4776 5.68285 12.9868 6.94141 15.4383 6.51523C17.96 6.07679 17.9984 4.69473 17.618 3.64941Z" fill="#BC574A"/>
<path d="M23.7291 11.823C20.5216 11.4761 18.9298 9.06341 15.9508 11.4313C12.4107 14.2452 14.9825 22.1189 22.8523 22.517C30.3411 22.8958 33.9537 16.2658 30.9329 12.6825C28.9103 10.2834 26.5658 12.1298 23.7291 11.823Z" fill="#FFECA1"/>
<path d="M31.9653 15.0724C31.6974 17.4051 29.8586 19.7904 26.8327 20.8307C26.6981 19.0386 25.8201 17.3858 24.1736 16.284C20.6765 13.9437 19.0738 16.7543 15.7986 17.8224C15.0031 16.7361 14.5406 15.5195 14.4235 14.3525C14.0617 17.7655 16.9833 22.2199 22.8525 22.5169C28.8693 22.8212 32.3828 18.6015 31.9653 15.0724Z" fill="#FFDF85"/>
<path d="M23.7298 11.8235C24.628 11.9206 25.4768 11.8019 26.2817 11.6704C26.4482 12.825 26.2037 14.4307 23.42 14.1195C20.8469 13.8318 20.8027 12.3809 21.2599 11.1621C21.9954 11.445 22.7938 11.7222 23.7298 11.8235Z" fill="#CC624E"/>
<path d="M23.5541 12.9377C21.9272 12.7558 21.3116 12.1089 21.1941 11.3496C20.8138 12.5253 20.9782 13.8457 23.4199 14.1187C26.0376 14.4114 26.4099 13.0089 26.3065 11.8805C26.0224 12.5918 25.2717 13.1297 23.5541 12.9377Z" fill="#BC574A"/>
<path d="M6.4196 13.4777C9.2116 11.8612 9.68973 9.01047 13.3725 9.96872C17.749 11.1075 18.587 19.348 11.553 22.8998C4.8596 26.2797 -1.1289 21.6813 0.181541 17.1816C1.05892 14.1688 3.95035 14.9073 6.4196 13.4777Z" fill="#FFECA1"/>
<path d="M16.7263 14.6143C16.6419 15.6784 16.3265 16.7833 15.7469 17.8353C15.7454 17.8355 15.744 17.8359 15.7424 17.8363C12.3195 18.4427 9.64581 16.9216 7.68112 20.4223C7.24699 21.1959 7.01574 22.0384 6.97306 22.9045C3.24206 22.9249 0.397244 20.5917 0.0389317 17.8635C-0.382006 21.0682 2.74656 24.1147 7.02618 24.0655V24.0656C7.03062 24.0656 7.03506 24.0653 7.03949 24.0652C8.44824 24.0469 9.98112 23.6938 11.5532 22.8999C15.4823 20.9159 16.9544 17.4692 16.7263 14.6143Z" fill="#FFDF85"/>
<path d="M6.41954 13.4782C5.63773 13.9308 4.8136 14.166 4.02441 14.3719C4.33985 15.4949 5.21385 16.864 7.63285 15.4519C9.86885 14.1466 9.3216 12.8022 8.40979 11.873C7.85198 12.4297 7.23435 13.0065 6.41954 13.4782Z" fill="#CC624E"/>
<path d="M8.55206 12.0244C8.78369 12.78 8.50456 13.6432 7.05419 14.4898C5.56144 15.3612 4.65725 15.1734 4.10938 14.638C4.48625 15.6915 5.40325 16.753 7.63306 15.4514C9.75 14.2156 9.37206 12.9448 8.55206 12.0244Z" fill="#BC574A"/>
<path d="M15.9645 18.9048C19.0942 18.1219 20.3407 15.5139 23.6158 17.4514C27.508 19.754 26.0387 27.9057 18.2976 29.3779C10.9313 30.7787 6.44469 24.7061 8.94631 20.7428C10.6212 18.0893 13.1966 19.5972 15.9645 18.9048Z" fill="#FFECA1"/>
<path d="M18.2975 28.2162C12.6542 29.2894 8.70124 25.9764 8.28537 22.586C7.81899 26.3216 12.008 30.5736 18.2975 29.3775C23.6199 28.3653 25.9774 24.1957 25.6661 20.9404C25.3913 23.9577 23.0036 27.3212 18.2975 28.2162Z" fill="#FFDF85"/>
<path d="M15.9639 18.9046C15.0875 19.1238 14.2304 19.1224 13.4151 19.1024C13.4083 20.2689 13.8704 21.8261 16.5852 21.1365C19.0947 20.4991 18.9398 19.0559 18.3199 17.9111C17.6301 18.2921 16.8773 18.6761 15.9639 18.9046Z" fill="#CC624E"/>
<path d="M18.4206 18.1094C18.4314 18.8969 17.923 19.646 16.3002 20.0582C14.6157 20.486 13.7989 20.0487 13.4229 19.3766C13.4927 20.4946 14.0784 21.7731 16.585 21.1365C18.9517 20.5354 18.9485 19.2176 18.4206 18.1094Z" fill="#BC574A"/>
</svg>
