<svg width="35" height="28" viewBox="0 0 35 28" fill="none" xmlns="http://www.w3.org/2000/svg">
<g opacity="0.3">
<path fill-rule="evenodd" clip-rule="evenodd" d="M29.1093 3.75598L28.8814 3.31099L28.8029 3.3512L28.7429 3.41583L29.1093 3.75598ZM29.5205 3.71301L29.9619 3.47818L29.9315 3.4211L29.8876 3.37362L29.5205 3.71301ZM29.9297 8.68469L29.4557 8.52554L29.3415 8.86553L29.627 9.08265L29.9297 8.68469ZM30.9375 10.5001L30.4451 10.587V10.587L30.9375 10.5001ZM31.0039 11.0997L30.5508 11.3111L31.5032 11.0739L31.0039 11.0997ZM30.9961 11.0841L31.4489 10.8721L31.4486 10.8714L30.9961 11.0841ZM30.7236 10.5831L31.1476 10.3181L31.1174 10.2698L31.0772 10.2296L30.7236 10.5831ZM30.7217 10.5812L31.0752 10.2276L30.2976 10.846L30.7217 10.5812ZM30.9941 11.0822L31.4472 10.8707L31.4466 10.8694L30.9941 11.0822ZM31.0019 11.0978L30.5486 11.3086L30.5487 11.3089L31.0019 11.0978ZM31.248 11.7316L31.7253 11.5827L31.7253 11.5827L31.248 11.7316ZM31.4892 13.5206L31.9889 13.5375L31.9889 13.5374L31.4892 13.5206ZM30.9824 15.84L31.4471 16.0245L31.4471 16.0244L30.9824 15.84ZM30.7412 16.3898L31.1922 16.6056L31.1922 16.6056L30.7412 16.3898ZM29.8213 17.9396L30.229 18.2289L30.229 18.2289L29.8213 17.9396ZM26.4472 21.2579L26.7347 21.667L26.7347 21.667L26.4472 21.2579ZM26.3457 21.3282L26.0615 20.9168L26.0615 20.9169L26.3457 21.3282ZM26.2666 21.382L25.9849 20.9689L25.9848 20.9689L26.2666 21.382ZM23.2431 23.0148L23.4361 23.476L23.4361 23.476L23.2431 23.0148ZM20.7568 23.8546L20.8836 24.3383V24.3383L20.7568 23.8546ZM18.0517 24.3654L18.1103 24.8619H18.1103L18.0517 24.3654ZM15.6963 24.505L15.6951 24.005H15.6951L15.6963 24.505ZM8.37107 23.2091L8.19807 23.6782L8.19837 23.6783L8.37107 23.2091ZM8.34763 23.1993L8.5258 22.7322L8.51585 22.7284L8.50574 22.725L8.34763 23.1993ZM8.33884 23.1964L8.15746 23.6624L8.16899 23.6668L8.18073 23.6708L8.33884 23.1964ZM8.32712 23.1915L8.50878 22.7257L8.49711 22.7211L8.48523 22.7172L8.32712 23.1915ZM8.32419 23.1905L8.14297 23.6566L8.15442 23.661L8.16608 23.6649L8.32419 23.1905ZM8.30564 23.1837L8.11994 23.648L8.12172 23.6487L8.30564 23.1837ZM8.29099 23.1779L8.47668 22.7136L8.47597 22.7133L8.29099 23.1779ZM8.26364 23.1661L8.4513 22.7027L8.45003 22.7022L8.26364 23.1661ZM8.25876 23.1642L8.44768 22.7012L8.44446 22.6999L8.25876 23.1642ZM8.25486 23.1632L8.44404 22.7004L8.44309 22.7L8.25486 23.1632ZM7.34177 22.7618L7.54969 22.3071L7.53395 22.2999L7.51776 22.2938L7.34177 22.7618ZM7.32126 22.755L7.13553 23.2193L7.14459 23.2227L7.32126 22.755ZM7.31638 22.753L7.10819 23.2076L7.11932 23.2127L7.13068 23.2173L7.31638 22.753ZM7.2695 22.7316L7.47826 22.2772L7.47802 22.2771L7.2695 22.7316ZM7.2197 22.7091L7.00985 23.1629L7.01031 23.1631L7.2197 22.7091ZM7.16989 22.6857L6.95986 23.1394L6.96007 23.1395L7.16989 22.6857ZM7.0615 22.6359L6.84998 23.0889L6.8503 23.0891L7.0615 22.6359ZM7.02732 22.6193L7.23912 22.1663L7.23882 22.1662L7.02732 22.6193ZM6.96189 22.589L6.74938 23.0416L6.7496 23.0417L6.96189 22.589ZM6.92478 22.5714L7.13776 22.119L7.13757 22.119L6.92478 22.5714ZM6.8613 22.5411L7.07495 22.0891L7.07442 22.0888L6.8613 22.5411ZM6.81931 22.5216L7.03329 22.0697L7.03323 22.0697L6.81931 22.5216ZM6.75876 22.4923L6.97355 22.0408L6.97342 22.0407L6.75876 22.4923ZM6.71189 22.4708L6.49656 22.9221L6.49662 22.9221L6.71189 22.4708ZM6.65036 22.4415L6.86641 21.9906L6.86622 21.9905L6.65036 22.4415ZM6.60642 22.42L6.38981 22.8707L6.39018 22.8709L6.60642 22.42ZM6.54196 22.3888L6.7591 21.9384L6.75909 21.9384L6.54196 22.3888ZM6.499 22.3683L6.71669 21.9182L6.71661 21.9181L6.499 22.3683ZM6.43259 22.3361L6.214 22.7857L6.2141 22.7858L6.43259 22.3361ZM6.39255 22.3165L6.17363 22.7661L6.17377 22.7661L6.39255 22.3165ZM6.13376 22.1896L5.91115 22.6373L5.91157 22.6375L6.13376 22.1896ZM6.1113 22.1779L6.33381 21.7301L6.33364 21.73L6.1113 22.1779ZM6.03903 22.1427L5.81543 22.5899L5.81558 22.59L6.03903 22.1427ZM5.93161 22.089L5.70642 22.5354L5.70801 22.5362L5.93161 22.089ZM5.88767 22.0665L6.11338 21.6204L6.11299 21.6202L5.88767 22.0665ZM5.81931 22.0314L5.59278 22.4771L5.59284 22.4771L5.81931 22.0314ZM5.77732 22.0099L5.54991 22.4552L5.55025 22.4554L5.77732 22.0099ZM5.71189 21.9767L5.94013 21.5318L5.94002 21.5318L5.71189 21.9767ZM5.66501 21.9523L5.89414 21.5079L5.89397 21.5078L5.66501 21.9523ZM5.59958 21.9191L5.36939 22.3629L5.36953 22.363L5.59958 21.9191ZM5.55857 21.8976L5.3276 22.341L5.3278 22.3411L5.55857 21.8976ZM5.48923 21.8614L5.25701 22.3042L5.25721 22.3044L5.48923 21.8614ZM5.45212 21.8419L5.21923 22.2844L5.21969 22.2846L5.45212 21.8419ZM5.38083 21.8038L5.61462 21.3619L5.61439 21.3617L5.38083 21.8038ZM5.36618 21.797L5.60079 21.3555L5.60034 21.3552L5.36618 21.797ZM5.18943 21.7023L4.95075 22.1416L4.95157 22.1421L5.18943 21.7023ZM5.17575 21.6945L4.93772 22.1342L4.93775 22.1342L5.17575 21.6945ZM5.10544 21.6564L4.8657 22.0951L4.86578 22.0952L5.10544 21.6564ZM5.07028 21.6368L5.31113 21.1987L5.31076 21.1985L5.07028 21.6368ZM5.00583 21.6017L4.76337 22.039L4.76364 22.0391L5.00583 21.6017ZM4.96677 21.5792L4.72348 22.016L4.72407 22.0164L4.96677 21.5792ZM4.90427 21.545L5.14921 21.1091L5.14872 21.1089L4.90427 21.545ZM4.86521 21.5226L4.61943 21.958L4.61948 21.958L4.86521 21.5226ZM4.80466 21.4884L5.05241 21.0541L5.05212 21.0539L4.80466 21.4884ZM4.7656 21.4659L5.01437 21.0322L5.01413 21.0321L4.7656 21.4659ZM4.707 21.4318L4.95783 20.9992L4.9573 20.9989L4.707 21.4318ZM4.66989 21.4103L4.41794 21.8422L4.41796 21.8422L4.66989 21.4103ZM4.61032 21.3761L4.35623 21.8067L4.35625 21.8067L4.61032 21.3761ZM4.5781 21.3566L4.83354 20.9267L4.83348 20.9267L4.5781 21.3566ZM4.51657 21.3204L4.25853 21.7487L4.25902 21.749L4.51657 21.3204ZM4.499 21.3097L4.24065 21.7378L4.24082 21.7379L4.499 21.3097ZM4.35056 21.2179L4.61579 20.794L4.57783 20.7703L4.53625 20.7537L4.35056 21.2179ZM4.34568 21.2159L4.08005 21.6395L4.11819 21.6635L4.15998 21.6802L4.34568 21.2159ZM4.29099 21.1808L4.55947 20.759L4.55909 20.7587L4.29099 21.1808ZM4.26071 21.1613L3.99014 21.5817L3.99098 21.5823L4.26071 21.1613ZM4.21189 21.13L3.93825 21.5485L3.93882 21.5488L4.21189 21.13ZM4.17966 21.1085L4.45549 20.6915L4.45489 20.6911L4.17966 21.1085ZM4.13376 21.0782L4.41236 20.6631L4.41232 20.663L4.13376 21.0782ZM4.10251 21.0568L3.82113 21.4701L3.82117 21.4701L4.10251 21.0568ZM4.05857 21.0265L4.34329 20.6155L4.34242 20.6149L4.05857 21.0265ZM4.02829 21.006L3.74092 21.4151L3.74107 21.4153L4.02829 21.006ZM3.98728 20.9767L4.27883 20.5705L4.27864 20.5703L3.98728 20.9767ZM3.95896 20.9562L4.25376 20.5523L4.25347 20.5521L3.95896 20.9562ZM3.91892 20.9269L3.61968 21.3274L3.61969 21.3275L3.91892 20.9269ZM3.8945 20.9073L3.59184 21.3053L3.59225 21.3057L3.8945 20.9073ZM3.85544 20.878L3.54729 21.2718L3.54744 21.2719L3.85544 20.878ZM3.83689 20.8634L4.14819 20.4721L4.1478 20.4718L3.83689 20.8634ZM3.71579 20.7609L3.37994 21.1313L3.37998 21.1313L3.71579 20.7609ZM3.69724 20.7443L4.03803 20.3784L4.03796 20.3783L3.69724 20.7443ZM3.67087 20.7189L3.32124 21.0763L3.32199 21.077L3.67087 20.7189ZM3.65329 20.7013L3.29747 21.0526L3.29789 21.053L3.65329 20.7013ZM3.62986 20.6769L3.26417 21.0179L3.26459 21.0183L3.62986 20.6769ZM3.61423 20.6593L3.9873 20.3264L3.98682 20.3259L3.61423 20.6593ZM3.59372 20.6368L3.97792 20.3169L3.97737 20.3162L3.59372 20.6368ZM3.58005 20.6193L3.18719 20.9286L3.18738 20.9288L3.58005 20.6193ZM3.56345 20.5978L3.96949 20.306L3.96908 20.3054L3.56345 20.5978ZM3.55271 20.5812L3.96853 20.3035L3.96846 20.3034L3.55271 20.5812ZM3.53903 20.5607L3.96916 20.3057L3.96858 20.3048L3.53903 20.5607ZM3.53025 20.545L3.08882 20.7799L3.08923 20.7806L3.53025 20.545ZM3.52048 20.5255L3.06363 20.7287L3.06515 20.7321L3.52048 20.5255ZM3.51462 20.5109L3.98198 20.3332L3.98193 20.333L3.51462 20.5109ZM3.50778 20.4913L3.84351 20.1208L2.55876 18.9567L3.02631 20.6262L3.50778 20.4913ZM4.63767 21.3243L4.3801 21.7529L4.38011 21.7529L4.63767 21.3243ZM8.88083 22.8429L8.96546 22.3501L8.96546 22.3501L8.88083 22.8429ZM14.2549 23.0236L14.2136 22.5253H14.2136L14.2549 23.0236ZM19.2549 21.6515L19.4824 22.0967L19.4824 22.0967L19.2549 21.6515ZM21.2617 20.2345L21.6173 20.586L21.6173 20.586L21.2617 20.2345ZM22.6279 18.4708L23.0446 18.7471L23.0446 18.7471L22.6279 18.4708ZM23.8008 16.8019L23.431 16.4653L23.431 16.4653L23.8008 16.8019ZM23.9668 16.6261L24.3201 16.9799L23.6223 16.2637L23.9668 16.6261ZM23.7978 16.7989L23.4282 16.4623L23.4281 16.4623L23.7978 16.7989ZM22.625 18.4689L23.0417 18.7452L23.0417 18.7452L22.625 18.4689ZM21.2588 20.2325L21.6143 20.5841L21.6143 20.5841L21.2588 20.2325ZM19.2529 21.6495L19.4805 22.0947L19.4805 22.0947L19.2529 21.6495ZM14.2519 23.0216L14.2932 23.5199L14.2932 23.5199L14.2519 23.0216ZM8.8779 22.8409L8.79327 23.3337H8.79327L8.8779 22.8409ZM4.63474 21.3214L4.37715 21.7499L4.37718 21.75L4.63474 21.3214ZM3.50681 20.4904L3.02605 20.6277L3.0653 20.7651L3.1712 20.861L3.50681 20.4904ZM3.62497 20.3068L3.45129 19.8379L3.45118 19.8379L3.62497 20.3068ZM9.59958 20.7423L9.60595 21.2423H9.60595L9.59958 20.7423ZM15.4062 19.6437L15.6039 20.103L15.6039 20.103L15.4062 19.6437ZM22.6963 12.837L23.1157 13.1092V13.1092L22.6963 12.837ZM24.6035 10.1847L24.2433 9.83792L24.2433 9.83794L24.6035 10.1847ZM26.6611 8.86536L26.5196 8.3858L26.5195 8.38581L26.6611 8.86536ZM26.7256 8.84778L26.8566 9.3303L26.5954 8.36501L26.7256 8.84778ZM26.6601 8.86438L26.3931 8.44167L26.8016 9.34393L26.6601 8.86438ZM28.3759 8.10657L28.2879 7.61438L28.2878 7.61439L28.3759 8.10657ZM29.5703 8.172L29.4144 8.64707L29.8689 8.79623L30.038 8.34871L29.5703 8.172ZM29.0146 3.99231L28.5311 4.11979L28.5466 4.17823L28.5754 4.23132L29.0146 3.99231ZM25.0547 15.7296L24.7787 15.3126L24.7626 15.3233L24.7473 15.3352L25.0547 15.7296ZM24.9394 15.8185L24.6353 15.4216L25.2339 16.2226L24.9394 15.8185ZM25.0576 15.7325L24.7664 15.3261L24.7663 15.3261L25.0576 15.7325ZM25.2109 15.6261L25.4979 16.0355L24.9346 15.2094L25.2109 15.6261ZM27.7217 9.42102L28.0768 9.06903L28.0692 9.0614L28.0613 9.0541L27.7217 9.42102ZM28.3945 10.6554L28.8823 10.5458L28.8823 10.5458L28.3945 10.6554ZM27.5859 13.7462L27.9625 14.0751L27.9626 14.0751L27.5859 13.7462ZM26.0791 15.0236L25.7851 14.6191L26.3646 15.434L26.0791 15.0236ZM27.5888 13.7491L27.9655 14.078L27.9655 14.078L27.5888 13.7491ZM28.3974 10.6573L28.8853 10.5477L28.8853 10.5477L28.3974 10.6573ZM27.5508 9.26282L27.8718 8.87949L27.2111 9.62973L27.5508 9.26282ZM29.6953 3.48254L29.7714 2.98835L29.7683 2.9879L29.6953 3.48254ZM29.705 3.4845L29.607 3.97479L29.6078 3.97494L29.705 3.4845ZM29.7373 3.49426L29.5428 3.9549L29.5428 3.95491L29.7373 3.49426ZM29.747 3.49914L29.9792 3.05632L29.9787 3.05602L29.747 3.49914ZM29.7793 3.52161L30.2207 3.28678L30.1905 3.2301L30.1471 3.18288L29.7793 3.52161ZM30.1875 8.49328L29.7135 8.3341L29.5993 8.67411L29.8848 8.89125L30.1875 8.49328ZM31.1953 10.3087L31.6877 10.2219L31.6877 10.2219L31.1953 10.3087ZM31.2519 11.7306L30.7746 11.8794L31.7508 11.7645L31.2519 11.7306ZM31.0049 11.0968L30.5055 11.1226L30.5105 11.2198L30.5516 11.3079L31.0049 11.0968ZM30.9394 10.4972L31.4318 10.4104L31.4318 10.4103L30.9394 10.4972ZM29.9316 8.68274L29.4576 8.52355L29.3435 8.86349L29.6288 9.08064L29.9316 8.68274ZM29.5224 3.71106L29.9639 3.47625L29.9337 3.41955L29.8902 3.37232L29.5224 3.71106ZM29.1113 3.75403L29.3349 4.20126L29.3393 4.19902L29.1113 3.75403ZM29.1093 3.755L28.7423 3.41552L29.333 4.20222L29.1093 3.755ZM29.124 3.73938L28.7681 3.38821L28.7679 3.38838L29.124 3.73938ZM29.1377 3.72668L28.7909 3.36648L28.7907 3.36662L29.1377 3.72668ZM29.1855 3.68371L29.5026 4.07035L29.5051 4.06824L29.1855 3.68371ZM29.1894 3.68078L29.5008 4.07202L29.5042 4.06925L29.1894 3.68078ZM29.2402 3.64172L28.9522 3.23297L28.952 3.23311L29.2402 3.64172ZM29.2568 3.63098L28.9768 3.21673L28.9767 3.21681L29.2568 3.63098ZM29.3037 3.60071L29.0456 3.17249L29.0455 3.1725L29.3037 3.60071ZM29.3174 3.59289L29.0654 3.16101L29.0649 3.16129L29.3174 3.59289ZM29.3769 3.56067L29.6007 4.0078L29.601 4.00763L29.3769 3.56067ZM29.3925 3.55286L29.1767 3.10187L29.176 3.1022L29.3925 3.55286ZM29.4404 3.53137L29.632 3.99322L29.6323 3.99309L29.4404 3.53137ZM29.458 3.52453L29.6393 3.9905L29.6399 3.99028L29.458 3.52453ZM29.5185 3.50305L29.6632 3.98166L29.704 3.96933L29.7421 3.95026L29.5185 3.50305ZM29.5205 3.50207L29.3773 3.023L29.3357 3.03544L29.2969 3.05486L29.5205 3.50207ZM29.5771 3.4884L29.4797 2.99798L29.4788 2.99817L29.5771 3.4884ZM29.5927 3.48547L29.6754 3.9786L29.6754 3.97859L29.5927 3.48547ZM29.6357 3.48059L29.6035 2.98163L29.6033 2.98164L29.6357 3.48059ZM29.6474 3.47961L29.6317 2.97986L29.6314 2.97987L29.6474 3.47961ZM30.3916 10.1212L30.7784 9.80435L30.7732 9.79807L30.7679 9.79196L30.3916 10.1212ZM30.5127 10.2784L30.112 10.5776L30.9136 9.97974L30.5127 10.2784ZM30.207 9.91028L30.5712 9.56768L29.8307 10.2395L30.207 9.91028ZM27.4463 8.73059L27.4236 8.2311L27.4236 8.2311L27.4463 8.73059ZM27.2646 8.74426L27.3161 9.2416L27.317 9.24151L27.2646 8.74426ZM27.1875 8.75403L27.124 8.25808L27.123 8.25821L27.1875 8.75403ZM27.0908 8.7677L27.1693 9.26149L27.1702 9.26136L27.0908 8.7677ZM26.9902 8.78528L26.8967 8.2941L26.8953 8.29437L26.9902 8.78528ZM26.9267 8.79797L27.0299 9.28722L27.0301 9.28718L26.9267 8.79797ZM26.8134 8.82629L26.6934 8.34091L26.9303 9.31245L26.8134 8.82629ZM26.9306 8.8009L26.827 8.31175L26.8268 8.3118L26.9306 8.8009ZM26.9941 8.78821L26.8995 8.29724L26.8992 8.2973L26.9941 8.78821ZM27.0947 8.77063L27.0152 8.277L27.015 8.27702L27.0947 8.77063ZM27.1914 8.75696L27.2559 9.25277L27.2561 9.25275L27.1914 8.75696ZM27.2685 8.74719L27.3208 9.24445L27.3209 9.24444L27.2685 8.74719ZM27.4502 8.73254L27.4275 8.23305H27.4275L27.4502 8.73254ZM27.8701 8.74231L27.9141 8.24425L27.914 8.24424L27.8701 8.74231ZM28.2842 8.80578L28.1781 9.2944L28.1781 9.29441L28.2842 8.80578ZM28.3857 8.82922L28.2689 9.31539L28.5072 8.34419L28.3857 8.82922ZM28.2812 8.80286L28.3874 8.31425L28.3873 8.31423L28.2812 8.80286ZM27.8662 8.73938L27.9101 8.24131L27.9101 8.24131L27.8662 8.73938ZM29.1093 3.75598L29.3373 4.20097C29.3865 4.17579 29.4159 4.16994 29.4159 4.16994C29.4153 4.17002 29.3888 4.17393 29.3459 4.16482C29.3004 4.15516 29.2224 4.12715 29.1533 4.05241L29.5205 3.71301L29.8876 3.37362C29.6817 3.15082 29.4039 3.16285 29.2851 3.17853C29.1384 3.19789 28.9973 3.25156 28.8814 3.31099L29.1093 3.75598ZM29.5205 3.71301L29.0791 3.94784C29.8326 5.36427 29.9634 7.0134 29.4557 8.52554L29.9297 8.68469L30.4037 8.84384C30.9983 7.07288 30.8453 5.13867 29.9619 3.47818L29.5205 3.71301ZM29.9297 8.68469L29.627 9.08265C30.0209 9.38231 30.3229 9.89436 30.4451 10.587L30.9375 10.5001L31.4299 10.4133C31.2747 9.5336 30.8707 8.77228 30.2324 8.28673L29.9297 8.68469ZM30.9375 10.5001L30.4451 10.587C30.476 10.7625 30.4951 10.9422 30.5045 11.1255L31.0039 11.0997L31.5032 11.0739C31.4919 10.8555 31.4689 10.6346 31.4299 10.4133L30.9375 10.5001ZM31.0039 11.0997L31.457 10.8883C31.4536 10.881 31.4506 10.875 31.4485 10.8709C31.4466 10.8671 31.4448 10.8636 31.4443 10.8626C31.4434 10.8609 31.4438 10.8617 31.4444 10.8628C31.4451 10.8642 31.4467 10.8675 31.4489 10.8721L30.9961 11.0841L30.5432 11.2961C30.5466 11.3033 30.5496 11.3092 30.5516 11.3132C30.5534 11.3169 30.5552 11.3204 30.5557 11.3212C30.5565 11.3228 30.556 11.322 30.5554 11.3207C30.5547 11.3193 30.553 11.3158 30.5508 11.3111L31.0039 11.0997ZM30.9961 11.0841L31.4486 10.8714C31.3594 10.6816 31.259 10.4964 31.1476 10.3181L30.7236 10.5831L30.2996 10.8481C30.3891 10.9913 30.4705 11.1415 30.5436 11.2968L30.9961 11.0841ZM30.7236 10.5831L31.0772 10.2296L31.0752 10.2276L30.7217 10.5812L30.3681 10.9347L30.3701 10.9367L30.7236 10.5831ZM30.7217 10.5812L30.2976 10.846C30.3872 10.9895 30.4686 11.1395 30.5416 11.2949L30.9941 11.0822L31.4466 10.8694C31.3573 10.6795 31.257 10.4945 31.1457 10.3163L30.7217 10.5812ZM30.9941 11.0822L30.541 11.2936C30.5445 11.301 30.5475 11.3072 30.5496 11.3113C30.5516 11.3153 30.5535 11.3188 30.5539 11.3197C30.5548 11.3213 30.5542 11.3203 30.5535 11.3189C30.5527 11.3172 30.5508 11.3136 30.5486 11.3086L31.0019 11.0978L31.4553 10.8869C31.4518 10.8794 31.4487 10.8731 31.4465 10.8688C31.4445 10.8648 31.4426 10.8612 31.4421 10.8602C31.4412 10.8585 31.4417 10.8595 31.4424 10.8608C31.4432 10.8624 31.445 10.8659 31.4472 10.8707L30.9941 11.0822ZM31.0019 11.0978L30.5487 11.3089C30.6353 11.4948 30.71 11.6858 30.7707 11.8804L31.248 11.7316L31.7253 11.5827C31.6506 11.3431 31.5594 11.1105 31.4552 10.8867L31.0019 11.0978ZM31.248 11.7316L30.7707 11.8804C30.9337 12.4033 31.0079 12.9586 30.9895 13.5038L31.4892 13.5206L31.9889 13.5374C32.011 12.8809 31.9221 12.2135 31.7253 11.5827L31.248 11.7316ZM31.4892 13.5206L30.9895 13.5038C30.9648 14.2352 30.7947 14.9576 30.5177 15.6555L30.9824 15.84L31.4471 16.0244C31.7593 15.2379 31.9598 14.4019 31.9889 13.5375L31.4892 13.5206ZM30.9824 15.84L30.5177 15.6554C30.4487 15.8292 30.3723 16.0024 30.2902 16.1739L30.7412 16.3898L31.1922 16.6056C31.283 16.4158 31.3688 16.2217 31.4471 16.0245L30.9824 15.84ZM30.7412 16.3898L30.2902 16.1739C30.0446 16.6869 29.746 17.1817 29.4135 17.6502L29.8213 17.9396L30.229 18.2289C30.5898 17.7206 30.9187 17.1769 31.1922 16.6056L30.7412 16.3898ZM29.8213 17.9396L29.4135 17.6502C28.5288 18.8968 27.4182 19.9644 26.1597 20.8489L26.4472 21.2579L26.7347 21.667C28.0761 20.7243 29.2714 19.5783 30.229 18.2289L29.8213 17.9396ZM26.4472 21.2579L26.1597 20.8489C26.1285 20.8708 26.0979 20.8917 26.0615 20.9168L26.3457 21.3282L26.6298 21.7396C26.6608 21.7182 26.6991 21.6921 26.7347 21.667L26.4472 21.2579ZM26.3457 21.3282L26.0615 20.9169C26.0351 20.9351 26.0196 20.9452 25.9849 20.9689L26.2666 21.382L26.5483 21.795C26.5661 21.7829 26.6039 21.7575 26.6299 21.7396L26.3457 21.3282ZM26.2666 21.382L25.9848 20.9689C25.0701 21.5929 24.082 22.1218 23.0502 22.5535L23.2431 23.0148L23.4361 23.476C24.5261 23.02 25.5742 22.4595 26.5483 21.795L26.2666 21.382ZM23.2431 23.0148L23.0502 22.5535C22.2635 22.8826 21.4522 23.1555 20.63 23.371L20.7568 23.8546L20.8836 24.3383C21.7497 24.1113 22.6053 23.8236 23.4361 23.476L23.2431 23.0148ZM20.7568 23.8546L20.63 23.371C19.7636 23.5981 18.882 23.764 17.9932 23.8688L18.0517 24.3654L18.1103 24.8619C19.0446 24.7518 19.9718 24.5773 20.8836 24.3383L20.7568 23.8546ZM18.0517 24.3654L17.9932 23.8688C17.2314 23.9586 16.4635 24.0032 15.6951 24.005L15.6963 24.505L15.6974 25.005C16.503 25.0031 17.3092 24.9563 18.1103 24.8619L18.0517 24.3654ZM15.6963 24.505L15.6951 24.005C13.2622 24.0106 10.8259 23.5798 8.54376 22.7399L8.37107 23.2091L8.19837 23.6783C10.592 24.5593 13.146 25.0109 15.6974 25.005L15.6963 24.505ZM8.37107 23.2091L8.54406 22.74C8.55166 22.7428 8.55719 22.7451 8.55925 22.746C8.5611 22.7467 8.56232 22.7473 8.55992 22.7462C8.55854 22.7456 8.5538 22.7435 8.54862 22.7414C8.54313 22.739 8.53522 22.7358 8.5258 22.7322L8.34763 23.1993L8.16946 23.6665C8.16416 23.6645 8.16035 23.6629 8.15892 23.6623C8.15779 23.6618 8.15705 23.6615 8.1596 23.6626C8.16113 23.6633 8.16621 23.6655 8.17184 23.6679C8.17768 23.6703 8.18689 23.6741 8.19807 23.6782L8.37107 23.2091ZM8.34763 23.1993L8.50574 22.725L8.49695 22.7221L8.33884 23.1964L8.18073 23.6708L8.18951 23.6737L8.34763 23.1993ZM8.33884 23.1964L8.52022 22.7305C8.52494 22.7323 8.52841 22.7338 8.52964 22.7343C8.53078 22.7348 8.53162 22.7351 8.53023 22.7345C8.5295 22.7342 8.52667 22.733 8.52353 22.7317C8.52029 22.7303 8.51509 22.7282 8.50878 22.7257L8.32712 23.1915L8.14546 23.6574C8.14105 23.6556 8.1378 23.6543 8.13655 23.6538C8.1354 23.6533 8.13459 23.6529 8.13586 23.6535C8.13648 23.6537 8.13931 23.655 8.14239 23.6562C8.14556 23.6576 8.15093 23.6598 8.15746 23.6624L8.33884 23.1964ZM8.32712 23.1915L8.48523 22.7172L8.48231 22.7162L8.32419 23.1905L8.16608 23.6649L8.16901 23.6659L8.32712 23.1915ZM8.32419 23.1905L8.50541 22.7245C8.49926 22.7222 8.494 22.7202 8.4904 22.7189C8.4871 22.7177 8.48378 22.7165 8.48298 22.7162C8.48153 22.7157 8.48196 22.7159 8.48287 22.7162C8.48394 22.7166 8.48634 22.7175 8.48955 22.7188L8.30564 23.1837L8.12172 23.6487C8.12813 23.6512 8.13369 23.6533 8.1379 23.6548C8.14196 23.6563 8.14552 23.6576 8.14717 23.6582C8.14947 23.659 8.14921 23.6589 8.14895 23.6588C8.14839 23.6586 8.14614 23.6578 8.14297 23.6566L8.32419 23.1905ZM8.30564 23.1837L8.49133 22.7195L8.47668 22.7136L8.29099 23.1779L8.10529 23.6421L8.11994 23.648L8.30564 23.1837ZM8.29099 23.1779L8.47597 22.7133C8.47935 22.7147 8.48163 22.7157 8.48216 22.7159C8.48247 22.716 8.48235 22.716 8.47988 22.7149C8.47808 22.7141 8.47391 22.7122 8.46945 22.7103C8.46472 22.7083 8.4585 22.7056 8.4513 22.7027L8.26364 23.1661L8.07599 23.6296C8.07219 23.628 8.06946 23.6268 8.07529 23.6294C8.07733 23.6303 8.08168 23.6322 8.08645 23.6343C8.09143 23.6364 8.09816 23.6393 8.106 23.6424L8.29099 23.1779ZM8.26364 23.1661L8.45003 22.7022C8.44894 22.7017 8.44797 22.7013 8.44741 22.7011C8.44711 22.701 8.44682 22.7009 8.44661 22.7008C8.44637 22.7007 8.44623 22.7007 8.44609 22.7006C8.44516 22.7002 8.44614 22.7006 8.44768 22.7012L8.25876 23.1642L8.06985 23.6271C8.07281 23.6283 8.07552 23.6294 8.07632 23.6297C8.07806 23.6304 8.07754 23.6302 8.07726 23.6301L8.26364 23.1661ZM8.25876 23.1642L8.44446 22.6999C8.42756 22.6932 8.41253 22.6882 8.40037 22.6846C8.38821 22.681 8.37782 22.6784 8.37011 22.6767C8.36244 22.6749 8.35622 22.6737 8.35261 22.673C8.34932 22.6723 8.34636 22.6718 8.34691 22.6719C8.34691 22.6719 8.34691 22.6719 8.34691 22.6719C8.34692 22.6719 8.34692 22.6719 8.34693 22.6719C8.34695 22.6719 8.34697 22.6719 8.347 22.6719C8.34706 22.6719 8.34715 22.6719 8.34727 22.6719C8.3475 22.672 8.34788 22.6721 8.34834 22.6721C8.34926 22.6723 8.35077 22.6726 8.35265 22.673C8.35629 22.6737 8.36249 22.6749 8.37016 22.6768C8.37787 22.6786 8.38822 22.6812 8.40032 22.6849C8.41243 22.6885 8.42732 22.6935 8.44404 22.7004L8.25486 23.1632L8.06568 23.626C8.08269 23.633 8.09789 23.6381 8.11031 23.6419C8.12272 23.6456 8.1334 23.6484 8.14144 23.6502C8.14944 23.6521 8.15598 23.6535 8.15995 23.6542C8.162 23.6546 8.16368 23.655 8.16477 23.6552C8.16579 23.6553 8.16664 23.6555 8.16672 23.6555C8.16761 23.6557 8.16498 23.6552 8.16204 23.6546C8.15876 23.654 8.15288 23.6528 8.14553 23.6511C8.13815 23.6494 8.12808 23.6469 8.11624 23.6434C8.10439 23.6399 8.08967 23.6351 8.07306 23.6284L8.25876 23.1642ZM8.25486 23.1632L8.44309 22.7C8.26216 22.6265 7.94288 22.4869 7.54969 22.3071L7.34177 22.7618L7.13385 23.2166C7.53131 23.3983 7.86582 23.5448 8.06662 23.6264L8.25486 23.1632ZM7.34177 22.7618L7.51776 22.2938C7.50719 22.2899 7.49826 22.2869 7.49242 22.2849C7.4869 22.2831 7.48185 22.2816 7.48076 22.2812C7.47851 22.2805 7.48014 22.281 7.48237 22.2817C7.48489 22.2826 7.49055 22.2845 7.49794 22.2873L7.32126 22.755L7.14459 23.2227C7.15527 23.2268 7.16431 23.2298 7.17026 23.2318C7.17592 23.2337 7.18104 23.2352 7.18227 23.2356C7.18466 23.2364 7.18309 23.2359 7.181 23.2352C7.1786 23.2344 7.17305 23.2326 7.16578 23.2298L7.34177 22.7618ZM7.32126 22.755L7.50696 22.2908L7.50207 22.2888L7.31638 22.753L7.13068 23.2173L7.13557 23.2192L7.32126 22.755ZM7.31638 22.753L7.52456 22.2985C7.50908 22.2914 7.49338 22.2842 7.47826 22.2772L7.2695 22.7316L7.06075 23.1859C7.07661 23.1932 7.0931 23.2007 7.10819 23.2076L7.31638 22.753ZM7.2695 22.7316L7.47802 22.2771C7.46702 22.2721 7.45621 22.2673 7.44853 22.2638C7.43998 22.26 7.43426 22.2574 7.42909 22.2551L7.2197 22.7091L7.01031 23.1631C7.02176 23.1684 7.03273 23.1733 7.04083 23.1769C7.04979 23.1809 7.05557 23.1835 7.06098 23.186L7.2695 22.7316ZM7.2197 22.7091L7.42955 22.2553C7.424 22.2527 7.41801 22.2499 7.40928 22.2457C7.40134 22.242 7.39072 22.2369 7.37972 22.2318L7.16989 22.6857L6.96007 23.1395C6.96571 23.1421 6.97177 23.145 6.98046 23.1491C6.98835 23.1529 6.99894 23.1579 7.00985 23.1629L7.2197 22.7091ZM7.16989 22.6857L7.37993 22.2319C7.3321 22.2098 7.31391 22.2019 7.27269 22.1827L7.0615 22.6359L6.8503 23.0891C6.88174 23.1037 6.93672 23.1287 6.95986 23.1394L7.16989 22.6857ZM7.0615 22.6359L7.27302 22.1828C7.27332 22.183 7.27276 22.1827 7.26629 22.1795C7.26147 22.1771 7.25079 22.1718 7.23912 22.1663L7.02732 22.6193L6.81552 23.0722C6.8154 23.0721 6.81608 23.0724 6.8226 23.0757C6.82746 23.0781 6.83821 23.0834 6.84998 23.0889L7.0615 22.6359ZM7.02732 22.6193L7.23882 22.1662C7.19965 22.1479 7.20588 22.1512 7.17417 22.1363L6.96189 22.589L6.7496 23.0417C6.76121 23.0471 6.81216 23.0706 6.81582 23.0723L7.02732 22.6193ZM6.96189 22.589L7.17439 22.1364C7.15424 22.1269 7.16319 22.131 7.13776 22.119L6.92478 22.5714L6.71179 23.0238C6.71698 23.0262 6.72224 23.0287 6.72867 23.0318C6.73478 23.0347 6.74197 23.0381 6.74938 23.0416L6.96189 22.589ZM6.92478 22.5714L7.13757 22.119C7.10691 22.1045 7.11379 22.1074 7.07495 22.0891L6.8613 22.5411L6.64765 22.9932C6.65098 22.9948 6.70082 23.0186 6.71198 23.0239L6.92478 22.5714ZM6.8613 22.5411L7.07442 22.0888C7.03047 22.0681 7.06659 22.0855 7.03329 22.0697L6.81931 22.5216L6.60532 22.9735C6.61483 22.978 6.62395 22.9822 6.63081 22.9854C6.63837 22.9889 6.64341 22.9912 6.64818 22.9934L6.8613 22.5411ZM6.81931 22.5216L7.03323 22.0697C7.02635 22.0664 7.01894 22.0628 7.00858 22.0578C6.9991 22.0531 6.98651 22.047 6.97355 22.0408L6.75876 22.4923L6.54397 22.9438C6.55132 22.9473 6.55894 22.951 6.56962 22.9563C6.57943 22.961 6.59213 22.9673 6.60538 22.9735L6.81931 22.5216ZM6.75876 22.4923L6.97342 22.0407C6.96007 22.0344 6.94723 22.0286 6.94038 22.0256C6.93179 22.0217 6.92898 22.0204 6.92715 22.0195L6.71189 22.4708L6.49662 22.9221C6.51024 22.9286 6.52318 22.9344 6.53032 22.9376C6.53921 22.9416 6.54207 22.9429 6.54411 22.9439L6.75876 22.4923ZM6.71189 22.4708L6.92722 22.0196C6.9034 22.0082 6.88747 22.0007 6.86641 21.9906L6.65036 22.4415L6.43432 22.8924C6.45436 22.902 6.47953 22.914 6.49656 22.9221L6.71189 22.4708ZM6.65036 22.4415L6.86622 21.9905C6.86216 21.9886 6.85752 21.9863 6.84976 21.9825C6.84295 21.9791 6.83296 21.9742 6.82266 21.9692L6.60642 22.42L6.39018 22.8709C6.39443 22.8729 6.39917 22.8752 6.40707 22.8791C6.41401 22.8826 6.42406 22.8875 6.4345 22.8925L6.65036 22.4415ZM6.60642 22.42L6.82302 21.9694C6.7955 21.9562 6.79178 21.9542 6.7591 21.9384L6.54196 22.3888L6.32483 22.8392C6.33497 22.8441 6.37474 22.8634 6.38981 22.8707L6.60642 22.42ZM6.54196 22.3888L6.75909 21.9384C6.71922 21.9192 6.74843 21.9335 6.71669 21.9182L6.499 22.3683L6.2813 22.8184C6.29034 22.8228 6.29911 22.8269 6.30615 22.8303C6.31371 22.8339 6.31939 22.8366 6.32484 22.8392L6.54196 22.3888ZM6.499 22.3683L6.71661 21.9181C6.69529 21.9078 6.67349 21.8972 6.65108 21.8863L6.43259 22.3361L6.2141 22.7858C6.23569 22.7963 6.25891 22.8076 6.28139 22.8184L6.499 22.3683ZM6.43259 22.3361L6.65118 21.8864C6.63489 21.8785 6.62975 21.8759 6.61133 21.8669L6.39255 22.3165L6.17377 22.7661C6.1817 22.77 6.20402 22.7809 6.214 22.7857L6.43259 22.3361ZM6.39255 22.3165L6.61147 21.867C6.52619 21.8255 6.44079 21.7837 6.35596 21.7417L6.13376 22.1896L5.91157 22.6375C5.99975 22.6812 6.0878 22.7243 6.17363 22.7661L6.39255 22.3165ZM6.13376 22.1896L6.35637 21.7419C6.35877 21.7431 6.36032 21.7439 6.36052 21.744C6.36053 21.744 6.36028 21.7438 6.35813 21.7427C6.35653 21.7418 6.35305 21.74 6.34928 21.738C6.34533 21.7359 6.34001 21.7332 6.33381 21.7301L6.1113 22.1779L5.88879 22.6256C5.88637 22.6244 5.8848 22.6236 5.88459 22.6235C5.88456 22.6235 5.8848 22.6236 5.88693 22.6247C5.88851 22.6256 5.89199 22.6274 5.89574 22.6294C5.89967 22.6315 5.90498 22.6342 5.91115 22.6373L6.13376 22.1896ZM6.1113 22.1779L6.33364 21.73C6.31831 21.7224 6.30315 21.7151 6.29183 21.7097C6.27944 21.7037 6.27058 21.6994 6.26249 21.6954L6.03903 22.1427L5.81558 22.59C5.83138 22.5979 5.84673 22.6053 5.85852 22.6109C5.8714 22.6171 5.88043 22.6215 5.88896 22.6257L6.1113 22.1779ZM6.03903 22.1427L6.26264 21.6955L6.15522 21.6418L5.93161 22.089L5.70801 22.5362L5.81543 22.5899L6.03903 22.1427ZM5.93161 22.089L6.1568 21.6426C6.12079 21.6244 6.15779 21.6428 6.11338 21.6204L5.88767 22.0665L5.66196 22.5127C5.66756 22.5155 5.67334 22.5185 5.68103 22.5224C5.68819 22.5261 5.69713 22.5307 5.70642 22.5354L5.93161 22.089ZM5.88767 22.0665L6.11299 21.6202C6.07602 21.6015 6.09378 21.61 6.04577 21.5856L5.81931 22.0314L5.59284 22.4771C5.60199 22.4818 5.61141 22.4867 5.62343 22.4929C5.63472 22.4988 5.64833 22.5058 5.66235 22.5129L5.88767 22.0665ZM5.81931 22.0314L6.04584 21.5856C6.02893 21.577 6.02503 21.5749 6.00438 21.5644L5.77732 22.0099L5.55025 22.4554C5.55759 22.4591 5.58167 22.4715 5.59278 22.4771L5.81931 22.0314ZM5.77732 22.0099L6.00473 21.5646C5.97155 21.5476 5.96706 21.5456 5.94013 21.5318L5.71189 21.9767L5.48364 22.4215C5.49996 22.4299 5.5398 22.45 5.54991 22.4552L5.77732 22.0099ZM5.71189 21.9767L5.94002 21.5318C5.91321 21.518 5.93021 21.5265 5.89414 21.5079L5.66501 21.9523L5.43588 22.3967C5.4418 22.3997 5.44796 22.403 5.45632 22.4073C5.46405 22.4114 5.47374 22.4165 5.48375 22.4216L5.71189 21.9767ZM5.66501 21.9523L5.89397 21.5078C5.83762 21.4787 5.87294 21.4976 5.82964 21.4751L5.59958 21.9191L5.36953 22.363C5.38342 22.3702 5.39688 22.377 5.40763 22.3824C5.4192 22.3882 5.42778 22.3925 5.43606 22.3968L5.66501 21.9523ZM5.59958 21.9191L5.82977 21.4752C5.80715 21.4635 5.818 21.4689 5.78933 21.454L5.55857 21.8976L5.3278 22.3411C5.3334 22.3441 5.33913 22.3471 5.34629 22.3508C5.35306 22.3544 5.3611 22.3586 5.36939 22.3629L5.59958 21.9191ZM5.55857 21.8976L5.78954 21.4541C5.76566 21.4417 5.74333 21.4301 5.72125 21.4185L5.48923 21.8614L5.25721 22.3044C5.28066 22.3166 5.30573 22.3296 5.3276 22.341L5.55857 21.8976ZM5.48923 21.8614L5.72145 21.4186C5.70592 21.4105 5.70225 21.4085 5.68455 21.3992L5.45212 21.8419L5.21969 22.2846C5.22674 22.2883 5.24776 22.2994 5.25701 22.3042L5.48923 21.8614ZM5.45212 21.8419L5.68501 21.3995C5.6491 21.3806 5.65944 21.3856 5.61462 21.3619L5.38083 21.8038L5.14704 22.2458C5.14938 22.247 5.20775 22.2783 5.21923 22.2844L5.45212 21.8419ZM5.38083 21.8038L5.61439 21.3617C5.60225 21.3553 5.59203 21.3505 5.58562 21.3476C5.58231 21.3461 5.57951 21.3448 5.5776 21.344C5.57582 21.3432 5.57417 21.3424 5.57377 21.3423C5.57189 21.3415 5.57492 21.3428 5.57866 21.3445C5.5828 21.3464 5.59079 21.3501 5.60079 21.3555L5.36618 21.797L5.13158 22.2385C5.14391 22.2451 5.15431 22.25 5.16089 22.253C5.1671 22.2559 5.17261 22.2583 5.17323 22.2586C5.17408 22.2589 5.17368 22.2588 5.17314 22.2585C5.17247 22.2582 5.17091 22.2575 5.16883 22.2566C5.16487 22.2548 5.15707 22.2511 5.14727 22.2459L5.38083 21.8038ZM5.36618 21.797L5.60034 21.3552C5.54246 21.3245 5.4847 21.2935 5.42728 21.2625L5.18943 21.7023L4.95157 22.1421C5.0107 22.174 5.07103 22.2064 5.13203 22.2388L5.36618 21.797ZM5.18943 21.7023L5.4281 21.2629C5.4317 21.2649 5.43433 21.2664 5.43542 21.267C5.4363 21.2675 5.43692 21.2679 5.43542 21.267C5.43452 21.2665 5.43158 21.2647 5.42829 21.2628C5.42482 21.2609 5.41978 21.258 5.41376 21.2547L5.17575 21.6945L4.93775 22.1342C4.93401 22.1322 4.93125 22.1306 4.93006 22.1299C4.92905 22.1293 4.92837 22.1289 4.92975 22.1297C4.93052 22.1302 4.93342 22.1319 4.93658 22.1337C4.93994 22.1356 4.94486 22.1384 4.95075 22.1416L5.18943 21.7023ZM5.17575 21.6945L5.41378 21.2547C5.38854 21.2411 5.36733 21.2297 5.3451 21.2176L5.10544 21.6564L4.86578 22.0952C4.89009 22.1085 4.91602 22.1224 4.93772 22.1342L5.17575 21.6945ZM5.10544 21.6564L5.34518 21.2176C5.32148 21.2046 5.34485 21.2172 5.31113 21.1987L5.07028 21.6368L4.82944 22.075C4.8333 22.0771 4.83734 22.0794 4.84376 22.083C4.84953 22.0862 4.85739 22.0906 4.8657 22.0951L5.10544 21.6564ZM5.07028 21.6368L5.31076 21.1985C5.27972 21.1814 5.2712 21.1771 5.24802 21.1643L5.00583 21.6017L4.76364 22.0391C4.78295 22.0498 4.81787 22.0687 4.82981 22.0752L5.07028 21.6368ZM5.00583 21.6017L5.24829 21.1644C5.2483 21.1644 5.24768 21.1641 5.24602 21.1631C5.24423 21.1621 5.24222 21.1609 5.2388 21.1589C5.23322 21.1556 5.22179 21.1489 5.20947 21.1421L4.96677 21.5792L4.72407 22.0164C4.72407 22.0164 4.72471 22.0167 4.7264 22.0177C4.72824 22.0188 4.73026 22.0199 4.73375 22.022C4.73947 22.0253 4.75092 22.0321 4.76337 22.039L5.00583 21.6017ZM4.96677 21.5792L5.21005 21.1424C5.14942 21.1086 5.19277 21.1336 5.14921 21.1091L4.90427 21.545L4.65933 21.9809C4.67364 21.989 4.6874 21.9964 4.69763 22.002C4.70894 22.0081 4.71638 22.0121 4.72348 22.016L4.96677 21.5792ZM4.90427 21.545L5.14872 21.1089C5.14609 21.1074 5.14276 21.1055 5.13597 21.1015C5.13028 21.0982 5.12076 21.0927 5.11093 21.0871L4.86521 21.5226L4.61948 21.958C4.62258 21.9598 4.62607 21.9618 4.63342 21.9661C4.63967 21.9697 4.6494 21.9754 4.65982 21.9812L4.90427 21.545ZM4.86521 21.5226L5.11099 21.0872C5.08801 21.0742 5.07126 21.0648 5.05241 21.0541L4.80466 21.4884L4.55691 21.9227C4.57809 21.9348 4.60185 21.9481 4.61943 21.958L4.86521 21.5226ZM4.80466 21.4884L5.05212 21.0539C5.03895 21.0464 5.03189 21.0423 5.01437 21.0322L4.7656 21.4659L4.51682 21.8997C4.52509 21.9044 4.54435 21.9156 4.5572 21.9229L4.80466 21.4884ZM4.7656 21.4659L5.01413 21.0321C4.99305 21.02 4.98763 21.0165 4.95783 20.9992L4.707 21.4318L4.45618 21.8643C4.46519 21.8695 4.49875 21.8893 4.51706 21.8998L4.7656 21.4659ZM4.707 21.4318L4.9573 20.9989C4.94365 20.991 4.93297 20.9849 4.92183 20.9784L4.66989 21.4103L4.41796 21.8422C4.43128 21.8499 4.44563 21.8582 4.45671 21.8646L4.707 21.4318ZM4.66989 21.4103L4.92185 20.9784C4.86997 20.9481 4.89927 20.966 4.8644 20.9455L4.61032 21.3761L4.35625 21.8067C4.37007 21.8149 4.3834 21.8225 4.39324 21.828C4.40418 21.8342 4.41121 21.8382 4.41794 21.8422L4.66989 21.4103ZM4.61032 21.3761L4.86442 20.9455C4.86321 20.9448 4.86119 20.9435 4.85544 20.94C4.85093 20.9373 4.84234 20.932 4.83354 20.9267L4.5781 21.3566L4.32266 21.7864C4.32438 21.7874 4.32659 21.7888 4.3329 21.7926C4.33798 21.7957 4.3468 21.8012 4.35623 21.8067L4.61032 21.3761ZM4.5781 21.3566L4.83348 20.9267C4.79264 20.9024 4.80158 20.9084 4.77413 20.8919L4.51657 21.3204L4.25902 21.749C4.27185 21.7567 4.32252 21.7863 4.32271 21.7864L4.5781 21.3566ZM4.51657 21.3204L4.77462 20.8922C4.774 20.8918 4.77302 20.8912 4.76979 20.8892C4.76723 20.8876 4.76235 20.8846 4.75718 20.8815L4.499 21.3097L4.24082 21.7379C4.24147 21.7383 4.24245 21.7389 4.24576 21.7409C4.24839 21.7425 4.25328 21.7455 4.25853 21.7487L4.51657 21.3204ZM4.499 21.3097L4.75734 20.8816C4.71069 20.8534 4.66454 20.8245 4.61579 20.794L4.35056 21.2179L4.08533 21.6418C4.13254 21.6713 4.1858 21.7047 4.24065 21.7378L4.499 21.3097ZM4.35056 21.2179L4.53625 20.7537L4.53137 20.7517L4.34568 21.2159L4.15998 21.6802L4.16486 21.6821L4.35056 21.2179ZM4.34568 21.2159L4.6113 20.7923C4.58865 20.7781 4.59499 20.7816 4.55947 20.759L4.29099 21.1808L4.0225 21.6026C4.02327 21.6031 4.06553 21.6304 4.08005 21.6395L4.34568 21.2159ZM4.29099 21.1808L4.55909 20.7587C4.54557 20.7502 4.55234 20.7543 4.53045 20.7403L4.26071 21.1613L3.99098 21.5823C3.99441 21.5845 3.99795 21.5868 4.0037 21.5905C4.00881 21.5938 4.01568 21.5983 4.02289 21.6028L4.29099 21.1808ZM4.26071 21.1613L4.53129 20.7408C4.50477 20.7237 4.5019 20.7222 4.48496 20.7112L4.21189 21.13L3.93882 21.5488C3.954 21.5587 3.98375 21.5776 3.99014 21.5817L4.26071 21.1613ZM4.21189 21.13L4.48552 20.7115C4.47141 20.7023 4.47982 20.7076 4.45549 20.6915L4.17966 21.1085L3.90383 21.5256C3.90732 21.5279 3.91082 21.5302 3.91706 21.5344C3.92255 21.5381 3.93014 21.5432 3.93826 21.5485L4.21189 21.13ZM4.17966 21.1085L4.45489 20.6911C4.43497 20.678 4.4254 20.6718 4.41236 20.6631L4.13376 21.0782L3.85516 21.4934C3.87225 21.5049 3.89338 21.5187 3.90443 21.5259L4.17966 21.1085ZM4.13376 21.0782L4.41232 20.663C4.39769 20.6532 4.41141 20.6622 4.38386 20.6434L4.10251 21.0568L3.82117 21.4701C3.824 21.472 3.82685 21.474 3.83317 21.4784C3.83852 21.4821 3.84653 21.4876 3.8552 21.4935L4.13376 21.0782ZM4.10251 21.0568L4.38389 20.6435C4.37112 20.6348 4.35805 20.6257 4.34329 20.6155L4.05857 21.0265L3.77384 21.4375C3.78778 21.4472 3.80436 21.4587 3.82113 21.4701L4.10251 21.0568ZM4.05857 21.0265L4.34242 20.6149C4.33369 20.6089 4.32495 20.603 4.32122 20.6005C4.3161 20.5971 4.31529 20.5966 4.31551 20.5967L4.02829 21.006L3.74107 21.4153C3.75112 21.4223 3.76042 21.4285 3.76546 21.4319C3.7719 21.4362 3.77338 21.4372 3.77471 21.4381L4.05857 21.0265ZM4.02829 21.006L4.31566 20.5968C4.30459 20.589 4.2941 20.5814 4.27883 20.5705L3.98728 20.9767L3.69573 21.3829C3.70721 21.3911 3.72433 21.4035 3.74092 21.4151L4.02829 21.006ZM3.98728 20.9767L4.27864 20.5703C4.2707 20.5647 4.26216 20.5585 4.25376 20.5523L3.95896 20.9562L3.66415 21.36C3.67409 21.3673 3.68503 21.3752 3.69592 21.383L3.98728 20.9767ZM3.95896 20.9562L4.25347 20.5521C4.23685 20.54 4.22789 20.5336 4.21814 20.5263L3.91892 20.9269L3.61969 21.3275C3.63569 21.3394 3.65432 21.3529 3.66444 21.3602L3.95896 20.9562ZM3.91892 20.9269L4.21816 20.5263C4.22198 20.5292 4.22467 20.5313 4.22567 20.5321C4.22647 20.5328 4.22674 20.533 4.22472 20.5313C4.22344 20.5303 4.21939 20.5269 4.21521 20.5235C4.2107 20.5199 4.20433 20.5148 4.19675 20.509L3.8945 20.9073L3.59225 21.3057C3.5888 21.303 3.58649 21.3012 3.58601 21.3008C3.58585 21.3006 3.5858 21.3006 3.58853 21.3029C3.59052 21.3045 3.59481 21.308 3.5997 21.312C3.60478 21.316 3.61161 21.3214 3.61968 21.3274L3.91892 20.9269ZM3.8945 20.9073L4.19717 20.5094C4.18733 20.5019 4.17694 20.4942 4.17217 20.4907C4.16917 20.4885 4.16717 20.487 4.16557 20.4858C4.16401 20.4846 4.16341 20.4842 4.16344 20.4842L3.85544 20.878L3.54744 21.2719C3.55934 21.2812 3.57057 21.2896 3.57736 21.2946C3.58578 21.3008 3.58874 21.303 3.59184 21.3053L3.8945 20.9073ZM3.85544 20.878L4.16359 20.4843C4.1585 20.4803 4.15352 20.4764 4.14819 20.4721L3.83689 20.8634L3.52558 21.2547C3.5326 21.2602 3.53972 21.2659 3.54729 21.2718L3.85544 20.878ZM3.83689 20.8634L4.1478 20.4718C4.11187 20.4433 4.07954 20.4157 4.05161 20.3904L3.71579 20.7609L3.37998 21.1313C3.42457 21.1717 3.47355 21.2134 3.52597 21.255L3.83689 20.8634ZM3.71579 20.7609L4.05165 20.3905C4.04818 20.3873 4.04507 20.3845 4.0428 20.3825C4.04088 20.3808 4.03823 20.3785 4.03747 20.3778C4.03686 20.3773 4.03644 20.3769 4.03613 20.3766C4.03582 20.3764 4.0357 20.3763 4.03572 20.3763C4.03574 20.3763 4.03595 20.3765 4.03632 20.3768C4.03669 20.3771 4.03727 20.3777 4.03803 20.3784L3.69724 20.7443L3.35645 21.1101C3.36463 21.1178 3.37212 21.1244 3.37539 21.1273C3.37779 21.1294 3.37831 21.1298 3.37953 21.1309C3.3804 21.1317 3.38039 21.1317 3.37994 21.1313L3.71579 20.7609ZM3.69724 20.7443L4.03796 20.3783C4.03412 20.3748 4.03118 20.3718 4.01975 20.3607L3.67087 20.7189L3.32199 21.077C3.32771 21.0826 3.34203 21.0967 3.35652 21.1102L3.69724 20.7443ZM3.67087 20.7189L4.0205 20.3614C4.01802 20.359 4.01507 20.356 4.00869 20.3496L3.65329 20.7013L3.29789 21.053C3.30284 21.058 3.31183 21.0671 3.32125 21.0763L3.67087 20.7189ZM3.65329 20.7013L4.00911 20.35C4.00467 20.3455 3.99968 20.3403 3.99512 20.3354L3.62986 20.6769L3.26459 21.0183C3.27474 21.0292 3.28604 21.041 3.29747 21.0526L3.65329 20.7013ZM3.62986 20.6769L3.99554 20.3359C3.99812 20.3387 3.99948 20.3402 3.99777 20.3383C3.9974 20.3379 3.99698 20.3374 3.99635 20.3367C3.9958 20.336 3.99497 20.3351 3.99415 20.3342C3.9925 20.3323 3.99007 20.3295 3.98729 20.3264L3.61423 20.6593L3.24117 20.9922C3.24094 20.9919 3.24105 20.9921 3.24197 20.9931C3.24243 20.9936 3.24288 20.9942 3.24362 20.995C3.24428 20.9958 3.24516 20.9968 3.24609 20.9978C3.24956 21.0018 3.25619 21.0093 3.26417 21.0179L3.62986 20.6769ZM3.61423 20.6593L3.98682 20.3259C3.98173 20.3202 3.97727 20.3154 3.97434 20.3122C3.97285 20.3106 3.97148 20.3092 3.97055 20.3082C3.96946 20.307 3.96899 20.3065 3.96847 20.306C3.96746 20.3049 3.96817 20.3057 3.96954 20.3072C3.97098 20.3088 3.97401 20.3122 3.97792 20.3169L3.59372 20.6368L3.20952 20.9568C3.22273 20.9727 3.23479 20.9855 3.23903 20.99C3.24026 20.9913 3.24154 20.9927 3.24221 20.9934C3.24304 20.9943 3.24343 20.9947 3.2437 20.995C3.24428 20.9956 3.24331 20.9946 3.24164 20.9927L3.61423 20.6593ZM3.59372 20.6368L3.97737 20.3162C3.98025 20.3196 3.98236 20.3223 3.98345 20.3237C3.98451 20.325 3.98507 20.3258 3.98457 20.3251C3.98431 20.3248 3.98403 20.3244 3.9834 20.3236C3.98287 20.3229 3.982 20.3217 3.98108 20.3205C3.97927 20.3181 3.97628 20.3142 3.97272 20.3097L3.58005 20.6193L3.18738 20.9288C3.18603 20.9271 3.18526 20.9261 3.18568 20.9266C3.18587 20.9269 3.18613 20.9272 3.18672 20.928C3.18721 20.9286 3.18806 20.9297 3.18894 20.9309C3.19209 20.935 3.20006 20.9455 3.21008 20.9575L3.59372 20.6368ZM3.58005 20.6193L3.97291 20.31C3.97092 20.3074 3.96884 20.3048 3.96775 20.3034C3.9664 20.3017 3.96576 20.3009 3.96533 20.3004C3.96429 20.299 3.96628 20.3015 3.96949 20.306L3.56345 20.5978L3.15741 20.8895C3.16567 20.901 3.17313 20.9107 3.17771 20.9165C3.1801 20.9196 3.18231 20.9224 3.18381 20.9243C3.18557 20.9265 3.18635 20.9275 3.18719 20.9286L3.58005 20.6193ZM3.56345 20.5978L3.96908 20.3054C3.97353 20.3116 3.9769 20.3167 3.97899 20.3198C3.98099 20.3229 3.9823 20.325 3.98213 20.3247C3.98198 20.3245 3.98195 20.3244 3.98127 20.3234C3.98076 20.3225 3.97983 20.321 3.97877 20.3194C3.97668 20.316 3.97306 20.3103 3.96853 20.3035L3.55271 20.5812L3.13688 20.8588C3.13415 20.8547 3.13228 20.8517 3.13192 20.8512C3.13172 20.8509 3.13166 20.8508 3.13202 20.8513C3.1322 20.8516 3.13303 20.853 3.13376 20.8541C3.13651 20.8585 3.14559 20.8731 3.15782 20.8901L3.56345 20.5978ZM3.55271 20.5812L3.96846 20.3034C3.96522 20.2986 3.96237 20.2944 3.96079 20.2921C3.96015 20.2912 3.95907 20.2896 3.95886 20.2893C3.95864 20.289 3.95849 20.2888 3.95837 20.2886C3.95827 20.2885 3.95822 20.2884 3.95822 20.2884C3.95822 20.2884 3.95829 20.2885 3.9584 20.2887C3.95852 20.2888 3.95869 20.2891 3.95892 20.2894C3.95936 20.2901 3.96007 20.2912 3.96097 20.2925C3.96269 20.2952 3.96561 20.2997 3.96916 20.3057L3.53903 20.5607L3.10891 20.8156C3.11944 20.8334 3.12912 20.8476 3.13306 20.8533C3.13484 20.8559 3.1375 20.8598 3.13758 20.8599C3.13837 20.861 3.13788 20.8603 3.13695 20.8589L3.55271 20.5812ZM3.53903 20.5607L3.96858 20.3048C3.97028 20.3076 3.97123 20.3094 3.97126 20.3095L3.53025 20.545L3.08923 20.7806C3.09477 20.791 3.10152 20.8032 3.10949 20.8166L3.53903 20.5607ZM3.53025 20.545L3.97167 20.3102C3.97111 20.3092 3.97123 20.3094 3.97178 20.3105C3.97228 20.3114 3.97377 20.3144 3.97581 20.3189L3.52048 20.5255L3.06515 20.7321C3.07443 20.7526 3.08358 20.77 3.08882 20.7799L3.53025 20.545ZM3.52048 20.5255L3.97732 20.3223C3.98021 20.3288 3.98209 20.3335 3.98265 20.335C3.98298 20.3358 3.98313 20.3362 3.983 20.3358C3.98277 20.3352 3.98267 20.335 3.98198 20.3332L3.51462 20.5109L3.04726 20.6886C3.04748 20.6891 3.05468 20.7086 3.06364 20.7287L3.52048 20.5255ZM3.51462 20.5109L3.98193 20.333C3.98107 20.3308 3.98092 20.3304 3.98073 20.3299C3.98062 20.3296 3.98096 20.3305 3.98152 20.332C3.98208 20.3336 3.9831 20.3365 3.98436 20.3403C3.9856 20.3441 3.98734 20.3496 3.98926 20.3565L3.50778 20.4913L3.02631 20.6262C3.03168 20.6453 3.03712 20.661 3.04035 20.67C3.0435 20.6788 3.04674 20.6872 3.04731 20.6887L3.51462 20.5109ZM3.50778 20.4913L3.17205 20.8619C3.54637 21.201 3.95685 21.4985 4.3801 21.7529L4.63767 21.3243L4.89524 20.8958C4.52152 20.6712 4.16453 20.4117 3.84351 20.1208L3.50778 20.4913ZM4.63767 21.3243L4.38011 21.7529C5.73674 22.5682 7.2645 23.0726 8.7962 23.3357L8.88083 22.8429L8.96546 22.3501C7.53094 22.1037 6.12571 21.6353 4.89522 20.8958L4.63767 21.3243ZM8.88083 22.8429L8.7962 23.3357C10.6074 23.6467 12.487 23.6716 14.2961 23.5219L14.2549 23.0236L14.2136 22.5253C12.4671 22.6699 10.6747 22.6437 8.96546 22.3501L8.88083 22.8429ZM14.2549 23.0236L14.2961 23.5219C16.0799 23.3742 17.8673 22.9223 19.4824 22.0967L19.2549 21.6515L19.0273 21.2063C17.5454 21.9638 15.8879 22.3867 14.2136 22.5253L14.2549 23.0236ZM19.2549 21.6515L19.4824 22.0967C20.2532 21.7027 20.9826 21.228 21.6173 20.586L21.2617 20.2345L20.9061 19.883C20.3687 20.4266 19.7367 20.8436 19.0273 21.2063L19.2549 21.6515ZM21.2617 20.2345L21.6173 20.586C22.1783 20.0184 22.6309 19.3711 23.0446 18.7471L22.6279 18.4708L22.2112 18.1945C21.8025 18.8109 21.3944 19.389 20.9061 19.883L21.2617 20.2345ZM22.6279 18.4708L23.0446 18.7471C23.4448 18.1435 23.7477 17.6028 24.1705 17.1385L23.8008 16.8019L23.431 16.4653C22.9394 17.0052 22.5586 17.6705 22.2112 18.1945L22.6279 18.4708ZM23.8008 16.8019L24.1705 17.1385C24.2238 17.0799 24.2719 17.028 24.3201 16.9799L23.9668 16.6261L23.6135 16.2723C23.5476 16.338 23.4863 16.4046 23.431 16.4653L23.8008 16.8019ZM23.9668 16.6261L23.6223 16.2637C23.5489 16.3335 23.4837 16.4013 23.4282 16.4623L23.7978 16.7989L24.1675 17.1356C24.2095 17.0895 24.2579 17.0392 24.3113 16.9885L23.9668 16.6261ZM23.7978 16.7989L23.4281 16.4623C22.9365 17.0023 22.5554 17.6689 22.2082 18.1926L22.625 18.4689L23.0417 18.7452C23.4422 18.1411 23.7448 17.5999 24.1675 17.1356L23.7978 16.7989ZM22.625 18.4689L22.2083 18.1926C21.7996 18.809 21.3915 19.3871 20.9032 19.881L21.2588 20.2325L21.6143 20.5841C22.1754 20.0165 22.628 19.3691 23.0417 18.7452L22.625 18.4689ZM21.2588 20.2325L20.9032 19.881C20.3658 20.4247 19.7344 20.8418 19.0253 21.2043L19.2529 21.6495L19.4805 22.0947C20.2514 21.7006 20.9799 21.2259 21.6143 20.5841L21.2588 20.2325ZM19.2529 21.6495L19.0253 21.2043C17.5434 21.9619 15.8852 22.3847 14.2107 22.5233L14.2519 23.0216L14.2932 23.5199C16.0769 23.3722 17.8653 22.9204 19.4805 22.0947L19.2529 21.6495ZM14.2519 23.0216L14.2107 22.5233C12.4642 22.6679 10.6717 22.6417 8.96254 22.3482L8.8779 22.8409L8.79327 23.3337C10.6044 23.6448 12.4842 23.6696 14.2932 23.5199L14.2519 23.0216ZM8.8779 22.8409L8.96254 22.3482C7.52825 22.1018 6.12292 21.6324 4.8923 20.8928L4.63474 21.3214L4.37718 21.75C5.73363 22.5652 7.26137 23.0706 8.79327 23.3337L8.8779 22.8409ZM4.63474 21.3214L4.89233 20.8929C4.51919 20.6686 4.16279 20.4098 3.84242 20.1197L3.50681 20.4904L3.1712 20.861C3.54502 21.1995 3.95486 21.4961 4.37715 21.7499L4.63474 21.3214ZM3.50681 20.4904L3.98756 20.353C4.00491 20.4137 4.01415 20.5296 3.94286 20.6454C3.88113 20.7457 3.80173 20.7745 3.79877 20.7756L3.62497 20.3068L3.45118 19.8379C3.34096 19.8788 3.19099 19.9592 3.09125 20.1212C2.98194 20.2988 2.98573 20.4866 3.02605 20.6277L3.50681 20.4904ZM3.62497 20.3068L3.79865 20.7756C3.7355 20.799 3.69575 20.7954 3.73909 20.7936C3.76382 20.7926 3.80467 20.7927 3.86509 20.795C3.9849 20.7996 4.15078 20.8119 4.35808 20.8306C4.77231 20.8679 5.31709 20.9274 5.92609 20.9906C7.12842 21.1156 8.57898 21.2553 9.60595 21.2423L9.59958 20.7423L9.59322 20.2423C8.63525 20.2545 7.24496 20.1223 6.02944 19.996C5.42951 19.9337 4.87112 19.8727 4.4478 19.8346C4.23632 19.8156 4.04983 19.8014 3.90366 19.7957C3.83109 19.7929 3.76054 19.7919 3.69797 19.7945C3.65401 19.7963 3.55106 19.8009 3.45129 19.8379L3.62497 20.3068ZM9.59958 20.7423L9.60595 21.2423C11.6502 21.2162 13.6871 20.9277 15.6039 20.103L15.4062 19.6437L15.2086 19.1844C13.4513 19.9406 11.5555 20.2174 9.59321 20.2423L9.59958 20.7423ZM15.4062 19.6437L15.6039 20.103C18.8357 18.7122 21.2574 15.9737 23.1157 13.1092L22.6963 12.837L22.2768 12.5649C20.4629 15.361 18.1754 17.9077 15.2086 19.1844L15.4062 19.6437ZM22.6963 12.837L23.1157 13.1092C23.7276 12.166 24.25 11.2729 24.9637 10.5314L24.6035 10.1847L24.2433 9.83794C23.444 10.6683 22.8523 11.6779 22.2768 12.5649L22.6963 12.837ZM24.6035 10.1847L24.9637 10.5315C25.4917 9.98293 26.1275 9.5442 26.8027 9.3449L26.6611 8.86536L26.5195 8.38581C25.6344 8.64712 24.8554 9.20202 24.2433 9.83792L24.6035 10.1847ZM26.6611 8.86536L26.8026 9.34491C26.8174 9.34054 26.8228 9.33949 26.8566 9.3303L26.7256 8.84778L26.5945 8.36525C26.5854 8.36774 26.5475 8.37757 26.5196 8.3858L26.6611 8.86536ZM26.7256 8.84778L26.5954 8.36501C26.5954 8.36501 26.5951 8.3651 26.5943 8.3653C26.5935 8.36551 26.5923 8.36579 26.5907 8.36619C26.5865 8.36721 26.5837 8.36787 26.5763 8.36965C26.5647 8.37243 26.5428 8.37767 26.5186 8.38482L26.6601 8.86438L26.8016 9.34393C26.799 9.34471 26.799 9.34459 26.8093 9.34212C26.8128 9.34128 26.8209 9.33935 26.8277 9.3377C26.8353 9.33586 26.845 9.33344 26.8557 9.33054L26.7256 8.84778ZM26.6601 8.86438L26.9272 9.28708C27.5452 8.89662 28.074 8.66857 28.4641 8.59874L28.3759 8.10657L28.2878 7.61439C27.7152 7.71691 27.0596 8.02055 26.3931 8.44167L26.6601 8.86438ZM28.3759 8.10657L28.464 8.59875C28.8291 8.53344 29.146 8.559 29.4144 8.64707L29.5703 8.172L29.7262 7.69692C29.2854 7.55226 28.7995 7.52286 28.2879 7.61438L28.3759 8.10657ZM29.5703 8.172L30.038 8.34871C30.6191 6.81072 30.1781 5.08423 29.4538 3.7533L29.0146 3.99231L28.5754 4.23132C29.2314 5.43654 29.538 6.84271 29.1026 7.99528L29.5703 8.172ZM29.0146 3.99231L29.4981 3.86483C29.5242 3.96377 29.5007 4.04047 29.4874 4.07169C29.475 4.10081 29.4648 4.108 29.4758 4.09614L29.1093 3.75598L28.7429 3.41583C28.6471 3.51902 28.4418 3.78081 28.5311 4.11979L29.0146 3.99231ZM25.0547 15.7296C24.7473 15.3352 24.7473 15.3352 24.7473 15.3352C24.7473 15.3352 24.7473 15.3352 24.7473 15.3352C24.7473 15.3352 24.7473 15.3352 24.7473 15.3352C24.7473 15.3352 24.7473 15.3352 24.7473 15.3352C24.7473 15.3352 24.7473 15.3352 24.7473 15.3353C24.7472 15.3353 24.7471 15.3354 24.747 15.3355C24.7467 15.3357 24.7463 15.336 24.7457 15.3365C24.7445 15.3374 24.7426 15.3389 24.7401 15.3408C24.7352 15.3446 24.7278 15.3504 24.7182 15.3578C24.6989 15.3727 24.6707 15.3945 24.6353 15.4216L24.9394 15.8185L25.2436 16.2153C25.2803 16.1872 25.3096 16.1646 25.33 16.1488C25.3401 16.141 25.348 16.1349 25.3534 16.1307C25.3561 16.1286 25.3582 16.1269 25.3597 16.1258C25.3604 16.1253 25.3609 16.1248 25.3613 16.1245C25.3615 16.1244 25.3617 16.1243 25.3618 16.1242C25.3618 16.1241 25.3619 16.1241 25.3619 16.1241C25.3619 16.124 25.362 16.124 25.362 16.124C25.362 16.124 25.362 16.124 25.362 16.124C25.362 16.124 25.362 16.124 25.362 16.124C25.362 16.124 25.362 16.124 25.0547 15.7296ZM24.9394 15.8185L25.2339 16.2226C25.2761 16.1918 25.3114 16.1658 25.3488 16.139L25.0576 15.7325L24.7663 15.3261C24.7247 15.356 24.6815 15.3877 24.645 15.4144L24.9394 15.8185ZM25.0576 15.7325L25.3488 16.139C25.401 16.1016 25.4293 16.0836 25.4979 16.0355L25.2109 15.6261L24.9239 15.2167C24.8906 15.24 24.8151 15.2912 24.7664 15.3261L25.0576 15.7325ZM25.2109 15.6261L24.9346 15.2094C24.8376 15.2737 24.7807 15.3114 24.7787 15.3126L25.0547 15.7296L25.3306 16.1466C25.3327 16.1452 25.3898 16.1074 25.4872 16.0428L25.2109 15.6261ZM27.7217 9.42102L27.3665 9.773C27.6285 10.0373 27.8187 10.3737 27.9067 10.765L28.3945 10.6554L28.8823 10.5458C28.7527 9.96887 28.4694 9.46513 28.0768 9.06903L27.7217 9.42102ZM28.3945 10.6554L27.9067 10.765C28.1158 11.696 27.842 12.6927 27.2093 13.4174L27.5859 13.7462L27.9626 14.0751C28.7931 13.1238 29.1652 11.805 28.8823 10.5458L28.3945 10.6554ZM27.5859 13.7462L27.2093 13.4174C26.9011 13.7703 26.3248 14.2269 25.7851 14.6191L26.0791 15.0236L26.373 15.428C26.9095 15.0381 27.5716 14.5228 27.9625 14.0751L27.5859 13.7462ZM26.0791 15.0236L26.3646 15.434C26.9131 15.0525 27.4862 14.6269 27.9655 14.078L27.5888 13.7491L27.2122 13.4203C26.8187 13.871 26.3321 14.2385 25.7936 14.6131L26.0791 15.0236ZM27.5888 13.7491L27.9655 14.078C28.7961 13.1266 29.1682 11.807 28.8853 10.5477L28.3974 10.6573L27.9096 10.767C28.1188 11.6982 27.8449 12.6956 27.2122 13.4203L27.5888 13.7491ZM28.3974 10.6573L28.8853 10.5477C28.7335 9.87269 28.3719 9.29833 27.8718 8.87949L27.5508 9.26282L27.2297 9.64614C27.5645 9.92652 27.8068 10.3098 27.9096 10.767L28.3974 10.6573ZM27.5508 9.26282L27.2111 9.62973L27.382 9.78794L27.7217 9.42102L28.0613 9.0541L27.8904 8.8959L27.5508 9.26282ZM29.6953 3.48254L29.6192 3.97672C29.6127 3.97572 29.6074 3.97476 29.6038 3.97406C29.6002 3.97338 29.5975 3.97282 29.5967 3.97263C29.5962 3.97254 29.5959 3.97248 29.5962 3.97253C29.5963 3.97256 29.5964 3.97257 29.5967 3.97263C29.5969 3.97269 29.5973 3.97277 29.5977 3.97285C29.5992 3.97317 29.6027 3.97393 29.607 3.97479L29.705 3.4845L29.8031 2.9942C29.8045 2.99449 29.8057 2.99473 29.8064 2.99488C29.8071 2.99503 29.8076 2.99513 29.8076 2.99513C29.8087 2.99536 29.8054 2.99466 29.8037 2.99431C29.7993 2.99337 29.7869 2.99076 29.7714 2.98836L29.6953 3.48254ZM29.705 3.4845L29.6078 3.97494C29.5878 3.97099 29.566 3.96469 29.5428 3.9549L29.7373 3.49426L29.9317 3.03362C29.8888 3.01549 29.8451 3.00254 29.8023 2.99405L29.705 3.4845ZM29.7373 3.49426L29.5428 3.95491C29.5282 3.94871 29.5173 3.94319 29.5134 3.94117C29.5114 3.94013 29.5099 3.93937 29.5105 3.93967C29.5106 3.93974 29.5107 3.93978 29.511 3.93993C29.5112 3.94005 29.5116 3.94024 29.512 3.94045C29.5128 3.94086 29.514 3.94151 29.5154 3.94226L29.747 3.49914L29.9787 3.05602C29.9795 3.05647 29.9806 3.05704 29.9788 3.05609C29.9778 3.05554 29.9747 3.05394 29.9711 3.05206C29.9639 3.04837 29.9498 3.04124 29.9317 3.03362L29.7373 3.49426ZM29.747 3.49914L29.5149 3.94197C29.5149 3.94197 29.5119 3.94044 29.5076 3.93794C29.5031 3.9354 29.496 3.93116 29.4872 3.92531C29.4702 3.91399 29.4417 3.89309 29.4115 3.86033L29.7793 3.52161L30.1471 3.18288C30.0746 3.10419 29.9938 3.06395 29.9792 3.05632L29.747 3.49914ZM29.7793 3.52161L29.3378 3.75643C30.0913 5.17282 30.2214 6.82173 29.7135 8.3341L30.1875 8.49328L30.6615 8.65247C31.2562 6.88157 31.1042 4.94754 30.2207 3.28678L29.7793 3.52161ZM30.1875 8.49328L29.8848 8.89125C30.2787 9.19089 30.5807 9.70295 30.7029 10.3956L31.1953 10.3087L31.6877 10.2219C31.5325 9.3422 31.1285 8.58086 30.4902 8.09532L30.1875 8.49328ZM31.1953 10.3087L30.7029 10.3955C30.7762 10.8118 30.7837 11.2462 30.7531 11.6967L31.2519 11.7306L31.7508 11.7645C31.7848 11.2625 31.7794 10.7422 31.6877 10.2219L31.1953 10.3087ZM31.2519 11.7306L31.7293 11.5817C31.6541 11.3408 31.5618 11.1083 31.4581 10.8857L31.0049 11.0968L30.5516 11.3079C30.6388 11.4952 30.7143 11.686 30.7746 11.8794L31.2519 11.7306ZM31.0049 11.0968L31.5042 11.071C31.493 10.8543 31.4711 10.6331 31.4318 10.4104L30.9394 10.4972L30.447 10.584C30.4777 10.7581 30.4959 10.9376 30.5055 11.1226L31.0049 11.0968ZM30.9394 10.4972L31.4318 10.4103C31.2766 9.53063 30.8722 8.77019 30.2344 8.28483L29.9316 8.68274L29.6288 9.08064C30.0228 9.38044 30.3249 9.89203 30.447 10.5841L30.9394 10.4972ZM29.9316 8.68274L30.4056 8.84192C31.0004 7.07091 30.8471 5.13673 29.9639 3.47625L29.5224 3.71106L29.081 3.94587C29.8345 5.36238 29.9654 7.01148 29.4576 8.52355L29.9316 8.68274ZM29.5224 3.71106L29.8902 3.37232C29.6842 3.1487 29.4059 3.1608 29.287 3.17651C29.1402 3.1959 28.9992 3.24966 28.8833 3.30903L29.1113 3.75403L29.3393 4.19902C29.3886 4.17373 29.4181 4.16788 29.418 4.16789C29.4174 4.16797 29.3907 4.1719 29.3476 4.16273C29.3019 4.15299 29.2237 4.1248 29.1547 4.0498L29.5224 3.71106ZM29.1113 3.75403L28.8877 3.30681L28.8857 3.30779L29.1093 3.755L29.333 4.20222L29.3349 4.20124L29.1113 3.75403ZM29.1093 3.755L29.4764 4.09449C29.4781 4.09269 29.4798 4.09079 29.4807 4.0898C29.4819 4.08857 29.4825 4.08794 29.4829 4.0875C29.4838 4.08648 29.4826 4.08787 29.4801 4.09037L29.124 3.73938L28.7679 3.38838C28.7605 3.39591 28.7542 3.40258 28.7503 3.40684C28.7482 3.40904 28.7464 3.41106 28.7451 3.41244C28.7436 3.41407 28.743 3.41477 28.7423 3.41552L29.1093 3.755ZM29.124 3.73938L29.4799 4.09055C29.4748 4.09573 29.4707 4.09962 29.4684 4.10177C29.4662 4.10382 29.4647 4.10515 29.4654 4.10456C29.4655 4.10445 29.4656 4.10432 29.4659 4.10405C29.4662 4.10382 29.4666 4.10344 29.467 4.10305C29.4679 4.10228 29.4693 4.10105 29.4708 4.09963C29.4739 4.09684 29.4788 4.09232 29.4846 4.08675L29.1377 3.72668L28.7907 3.36662C28.7943 3.3632 28.7969 3.3608 28.7977 3.36011C28.7978 3.35997 28.7988 3.35907 28.7962 3.36147C28.7945 3.36297 28.7907 3.3664 28.7862 3.37056C28.7817 3.37482 28.7753 3.38086 28.7681 3.38821L29.124 3.73938ZM29.1377 3.72668L29.4844 4.08689C29.4943 4.0774 29.4996 4.0728 29.5026 4.07035L29.1855 3.68371L28.8685 3.29708C28.8375 3.32248 28.8113 3.34679 28.7909 3.36648L29.1377 3.72668ZM29.1855 3.68371L29.5051 4.06824C29.4968 4.07519 29.49 4.08036 29.4865 4.08292C29.4846 4.08435 29.4831 4.08547 29.4822 4.08617C29.4812 4.08684 29.4805 4.08734 29.4805 4.08738C29.48 4.08775 29.481 4.087 29.4814 4.08675C29.482 4.08628 29.4833 4.08536 29.4848 4.08422C29.4876 4.08217 29.4935 4.07777 29.5008 4.07201L29.1894 3.68078L28.8781 3.28956C28.8847 3.28427 28.89 3.28035 28.8921 3.27879C28.8933 3.2779 28.8943 3.27723 28.8946 3.277C28.8946 3.277 28.8953 3.2765 28.8944 3.27711C28.8939 3.27751 28.8905 3.27997 28.8864 3.28305C28.8823 3.28611 28.8749 3.29177 28.8659 3.29919L29.1855 3.68371ZM29.1894 3.68078L29.5042 4.06925C29.5194 4.05698 29.5254 4.05243 29.5284 4.05033L29.2402 3.64172L28.952 3.23311C28.92 3.25574 28.892 3.27821 28.8746 3.29232L29.1894 3.68078ZM29.2402 3.64172L29.5282 4.05047C29.5229 4.05422 29.5186 4.05699 29.5163 4.05848C29.5142 4.05987 29.5128 4.06074 29.5138 4.06011C29.514 4.05997 29.5142 4.05984 29.5146 4.05958C29.515 4.05935 29.5155 4.05903 29.5161 4.05868C29.5172 4.05798 29.5188 4.05695 29.5207 4.05575C29.5245 4.05339 29.5302 4.04971 29.5369 4.04515L29.2568 3.63098L28.9767 3.21681C28.9807 3.2141 28.9837 3.21222 28.9846 3.21162C28.985 3.21136 28.9859 3.21081 28.9831 3.21253C28.9814 3.21364 28.9772 3.21628 28.9723 3.21945C28.9672 3.22274 28.9602 3.22733 28.9522 3.23297L29.2402 3.64172ZM29.2568 3.63098L29.5368 4.04523C29.5495 4.03663 29.5571 4.03175 29.5618 4.02891L29.3037 3.60071L29.0455 3.1725C29.0187 3.18867 28.9944 3.20483 28.9768 3.21673L29.2568 3.63098ZM29.3037 3.60071L29.5618 4.02892C29.5589 4.03068 29.5567 4.03195 29.5557 4.03254C29.5547 4.0331 29.5542 4.03338 29.555 4.03291C29.5552 4.0328 29.5577 4.03139 29.5597 4.03028C29.5621 4.02896 29.5656 4.02693 29.5698 4.0245L29.3174 3.59289L29.0649 3.16129C29.0669 3.16016 29.0682 3.15943 29.0682 3.1594C29.0683 3.15937 29.0682 3.15942 29.0678 3.15965C29.0676 3.15976 29.0674 3.15988 29.0671 3.16005C29.0668 3.16021 29.0664 3.16042 29.066 3.16064C29.0645 3.16147 29.0617 3.16305 29.0585 3.16491C29.0552 3.1668 29.0507 3.16939 29.0456 3.17249L29.3037 3.60071ZM29.3174 3.59289L29.5693 4.02478C29.5795 4.01883 29.59 4.01316 29.6007 4.0078L29.3769 3.56067L29.1532 3.11353C29.1237 3.12826 29.0944 3.14407 29.0654 3.16101L29.3174 3.59289ZM29.3769 3.56067L29.601 4.00763C29.6031 4.00657 29.6051 4.00556 29.6065 4.00487C29.6081 4.00406 29.6089 4.00365 29.6098 4.00319C29.6118 4.00221 29.611 4.00259 29.6091 4.00351L29.3925 3.55286L29.176 3.1022C29.1691 3.10551 29.163 3.10856 29.1596 3.11027C29.154 3.11309 29.1552 3.11252 29.1528 3.1137L29.3769 3.56067ZM29.3925 3.55286L29.6084 4.00384C29.6184 3.99908 29.626 3.99569 29.632 3.99322L29.4404 3.53137L29.2488 3.06952C29.2229 3.08029 29.1987 3.09134 29.1767 3.10187L29.3925 3.55286ZM29.4404 3.53137L29.6323 3.99309C29.6285 3.99466 29.6261 3.99554 29.6277 3.99494C29.6288 3.99451 29.629 3.99444 29.6315 3.99351C29.6333 3.99281 29.6361 3.99174 29.6393 3.9905L29.458 3.52453L29.2767 3.05857C29.2769 3.05846 29.2768 3.05851 29.2757 3.05893C29.2753 3.05911 29.2725 3.06015 29.2707 3.06085C29.2664 3.0625 29.2581 3.06566 29.2485 3.06965L29.4404 3.53137ZM29.458 3.52453L29.6399 3.99028C29.6475 3.98728 29.6531 3.9852 29.6573 3.98369C29.6615 3.98218 29.6633 3.98164 29.6632 3.98166L29.5185 3.50305L29.3738 3.02444C29.3352 3.03613 29.3005 3.04924 29.2761 3.05879L29.458 3.52453ZM29.5185 3.50305L29.7421 3.95026L29.7441 3.94929L29.5205 3.50207L29.2969 3.05486L29.2949 3.05584L29.5185 3.50305ZM29.5205 3.50207L29.6636 3.98115C29.6622 3.98157 29.6622 3.98151 29.6643 3.98102C29.6664 3.98052 29.6698 3.97977 29.6755 3.97864L29.5771 3.4884L29.4788 2.99817C29.4541 3.00312 29.4179 3.01089 29.3773 3.023L29.5205 3.50207ZM29.5771 3.4884L29.6745 3.97882L29.6754 3.9786L29.5927 3.48547L29.5101 2.99235C29.4967 2.99459 29.4848 2.99697 29.4797 2.99798L29.5771 3.4884ZM29.5927 3.48547L29.6754 3.97859C29.673 3.97899 29.6712 3.97923 29.67 3.97936C29.6694 3.97943 29.6689 3.97947 29.6686 3.9795C29.6684 3.97951 29.6683 3.97952 29.6682 3.97953C29.6682 3.97954 29.6681 3.97954 29.6681 3.97954L29.6357 3.48059L29.6033 2.98164C29.5758 2.98343 29.5443 2.98661 29.51 2.99236L29.5927 3.48547ZM29.6357 3.48059L29.6679 3.97955C29.6759 3.97903 29.6825 3.97844 29.6861 3.97809C29.688 3.97791 29.6895 3.97776 29.6904 3.97767C29.6908 3.97763 29.6912 3.97759 29.6913 3.97758C29.6915 3.97755 29.6916 3.97755 29.6915 3.97756C29.6914 3.97756 29.6907 3.97764 29.6895 3.97775C29.6884 3.97785 29.6866 3.97802 29.6843 3.9782C29.68 3.97854 29.6726 3.97906 29.6634 3.97936L29.6474 3.47961L29.6314 2.97987C29.6203 2.98022 29.6111 2.98086 29.6048 2.98137C29.5986 2.98186 29.5936 2.98236 29.5917 2.98255C29.5912 2.9826 29.5907 2.98265 29.5904 2.98268C29.5901 2.98272 29.59 2.98272 29.5899 2.98273C29.5898 2.98275 29.5903 2.98269 29.5912 2.9826C29.5929 2.98245 29.5974 2.98202 29.6035 2.98163L29.6357 3.48059ZM29.6474 3.47961L29.6632 3.97936C29.6453 3.97993 29.6313 3.97851 29.6223 3.97718L29.6953 3.48254L29.7683 2.9879C29.7295 2.98218 29.6833 2.97824 29.6317 2.97986L29.6474 3.47961ZM30.3916 10.1212L30.0048 10.4381C30.0384 10.4791 30.0716 10.5233 30.1117 10.5771L30.5127 10.2784L30.9136 9.97974C30.8746 9.92739 30.8286 9.86565 30.7784 9.80435L30.3916 10.1212ZM30.5127 10.2784L30.9133 9.97929C30.8097 9.84056 30.6968 9.70122 30.5712 9.56768L30.207 9.91028L29.8428 10.2529C29.9359 10.3518 30.0244 10.4603 30.112 10.5776L30.5127 10.2784ZM30.207 9.91028L29.8307 10.2395L30.0153 10.4505L30.3916 10.1212L30.7679 9.79196L30.5833 9.58102L30.207 9.91028ZM27.4463 8.73059L27.4236 8.2311C27.3528 8.23432 27.2824 8.23963 27.2123 8.24701L27.2646 8.74426L27.317 9.24151C27.3674 9.2362 27.418 9.23239 27.4689 9.23008L27.4463 8.73059ZM27.2646 8.74426L27.2131 8.24692C27.1797 8.25038 27.1361 8.25652 27.124 8.25808L27.1875 8.75403L27.251 9.24998C27.2902 9.24495 27.2979 9.24348 27.3161 9.2416L27.2646 8.74426ZM27.1875 8.75403L27.123 8.25821C27.0904 8.26245 27.0516 8.26758 27.0114 8.27404L27.0908 8.7677L27.1702 9.26136C27.1942 9.25749 27.22 9.25401 27.252 9.24985L27.1875 8.75403ZM27.0908 8.7677L27.0122 8.27391C26.9735 8.28006 26.935 8.2868 26.8967 8.29411L26.9902 8.78528L27.0838 9.27645C27.1122 9.27103 27.1407 9.26604 27.1693 9.26149L27.0908 8.7677ZM26.9902 8.78528L26.8953 8.29437C26.874 8.29849 26.8489 8.30338 26.8234 8.30877L26.9267 8.79797L27.0301 9.28718C27.0465 9.28371 27.0643 9.28021 27.0851 9.27618L26.9902 8.78528ZM26.9267 8.79797L26.8236 8.30872C26.7919 8.3154 26.7632 8.32283 26.7431 8.3281C26.7197 8.33425 26.7089 8.33718 26.6966 8.34014L26.8134 8.82629L26.9303 9.31245C27.0139 9.29235 26.991 9.29541 27.0299 9.28722L26.9267 8.79797ZM26.8134 8.82629L26.9335 9.31167C26.9616 9.30473 26.9819 9.30116 27.0344 9.29001L26.9306 8.8009L26.8268 8.3118C26.8012 8.31723 26.7429 8.32868 26.6934 8.34091L26.8134 8.82629ZM26.9306 8.8009L27.0342 9.29005C27.0504 9.28663 27.068 9.28318 27.089 9.27911L26.9941 8.78821L26.8992 8.2973C26.8781 8.30137 26.8528 8.3063 26.827 8.31175L26.9306 8.8009ZM26.9941 8.78821L27.0887 9.27918C27.1152 9.27407 27.1434 9.26924 27.1744 9.26424L27.0947 8.77063L27.015 8.27702C26.9788 8.28286 26.9398 8.28948 26.8995 8.29724L26.9941 8.78821ZM27.0947 8.77063L27.1742 9.26426C27.1981 9.26041 27.2237 9.25696 27.2559 9.25277L27.1914 8.75696L27.1268 8.26114C27.0945 8.26535 27.0555 8.2705 27.0152 8.277L27.0947 8.77063ZM27.1914 8.75696L27.2561 9.25275C27.2906 9.24825 27.3033 9.24629 27.3208 9.24445L27.2685 8.74719L27.2162 8.24993C27.1822 8.25352 27.1435 8.25897 27.1267 8.26116L27.1914 8.75696ZM27.2685 8.74719L27.3209 9.24444C27.3774 9.23849 27.4265 9.23413 27.4728 9.23203L27.4502 8.73254L27.4275 8.23305C27.352 8.23647 27.2802 8.2432 27.2162 8.24994L27.2685 8.74719ZM27.4502 8.73254L27.4728 9.23203C27.5888 9.22678 27.707 9.22987 27.8262 9.24037L27.8701 8.74231L27.914 8.24424C27.7545 8.23018 27.5917 8.22562 27.4275 8.23305L27.4502 8.73254ZM27.8701 8.74231L27.8261 9.24037C27.9432 9.25071 28.0607 9.26893 28.1781 9.2944L28.2842 8.80578L28.3902 8.31716C28.2343 8.28331 28.0752 8.25848 27.9141 8.24425L27.8701 8.74231ZM28.2842 8.80578L28.1781 9.29441C28.209 9.30112 28.2385 9.30809 28.2689 9.31539L28.3857 8.82922L28.5025 8.34306C28.4701 8.33528 28.4321 8.32625 28.3902 8.31716L28.2842 8.80578ZM28.3857 8.82922L28.5072 8.34419C28.4988 8.3421 28.4306 8.32364 28.3874 8.31425L28.2812 8.80286L28.1751 9.29146C28.2025 9.29742 28.2033 9.29899 28.2643 9.31425L28.3857 8.82922ZM28.2812 8.80286L28.3873 8.31423C28.2309 8.28028 28.0712 8.25552 27.9101 8.24131L27.8662 8.73938L27.8222 9.23744C27.9398 9.24781 28.058 9.26604 28.1752 9.29148L28.2812 8.80286ZM27.8662 8.73938L27.9101 8.24131C27.7483 8.22704 27.5855 8.22377 27.4236 8.2311L27.4463 8.73059L27.4689 9.23008C27.5872 9.22472 27.7055 9.22714 27.8223 9.23744L27.8662 8.73938Z" fill="#4B4B4B"/>
<path d="M26.9997 9.5L28.4997 9C28.9997 9.5 29.8997 11.1 29.4997 13.5C28.9997 16.5 24.8506 20.9771 20.4997 22.5C11.1661 25.7669 6.62361 21.6284 4.84009 21.0626C4.41312 21.0224 4.24544 21 4.49966 21C4.59958 21 4.71281 21.0222 4.84009 21.0626C6.42855 21.2119 11.6059 21.6059 11.9997 22C16.1664 20.3333 24.5996 16.4 24.9996 14C25.3996 11.6 26.4997 10 26.9997 9.5Z" fill="white"/>
</g>
</svg>
