<svg width="35" height="28" viewBox="0 0 35 28" fill="none" xmlns="http://www.w3.org/2000/svg">
<path d="M30.9959 11.0818C30.6715 10.3916 30.1921 9.7845 29.5606 9.35487C29.4994 9.3132 29.4367 9.27371 29.373 9.23587C29.3686 9.23325 29.3642 9.23052 29.3597 9.22789C29.1614 9.11124 28.9519 9.01305 28.7355 8.93457C29.3214 9.76116 29.6915 10.8463 29.8515 11.7522C30.034 12.786 30.0426 13.8995 29.6133 14.8781C29.3342 15.5141 28.8787 16.0187 28.2769 16.3667C27.5119 16.809 26.5435 16.8748 25.873 17.4714C25.2528 18.0232 24.9135 18.8359 24.4275 19.4967C23.9347 20.1664 23.3659 20.7837 22.7256 21.3148C21.4769 22.3505 19.9949 23.0467 18.4388 23.4826C16.7614 23.9524 14.9927 24.1758 13.2522 24.0748C11.5149 23.9741 9.79111 23.5962 8.14343 23.0444C7.87272 22.9537 7.59629 22.856 7.31787 22.7508C7.72446 22.937 8.06113 23.0835 8.25601 23.1627C8.25738 23.1633 8.25893 23.1639 8.26029 23.1645C8.26173 23.165 8.26318 23.1656 8.26461 23.1662C8.27441 23.1702 8.2834 23.1738 8.29244 23.1774C8.29575 23.1787 8.29939 23.1802 8.30259 23.1814C8.30401 23.182 8.30546 23.1826 8.30686 23.1831C8.31338 23.1857 8.31915 23.1879 8.32521 23.1903C8.32626 23.1907 8.32734 23.1911 8.32839 23.1915C8.33221 23.193 8.33646 23.1947 8.3401 23.1961C8.34107 23.1965 8.34202 23.1969 8.34298 23.1972C8.34513 23.198 8.34686 23.1987 8.34894 23.1995C8.35722 23.2026 8.36548 23.2058 8.37265 23.2084C10.7105 24.0688 13.2055 24.511 15.6977 24.5053C16.4847 24.5034 17.2714 24.4569 18.0528 24.3648C18.9645 24.2574 19.8689 24.0879 20.7581 23.8548C21.6023 23.6336 22.4355 23.3528 23.2443 23.0145C24.3053 22.5706 25.3237 22.0261 26.2682 21.3817C26.2946 21.3637 26.3212 21.3459 26.3475 21.3277C26.3812 21.3045 26.4148 21.2811 26.4483 21.2576C27.7483 20.3439 28.9016 19.2376 29.8228 17.9395C30.1695 17.4511 30.4832 16.932 30.7427 16.3898C30.8292 16.2091 30.9097 16.0258 30.9834 15.8402C31.2782 15.0978 31.4641 14.3187 31.4911 13.5206C31.5113 12.9195 31.4297 12.308 31.2498 11.731C31.1821 11.5139 31.0989 11.3025 31.0035 11.0975C31.001 11.0922 30.9984 11.0871 30.9959 11.0818Z" fill="#B71828"/>
<path d="M29.8541 11.7567C29.6942 10.8508 29.324 9.76564 28.7381 8.93905C28.7381 8.93905 28.6225 8.87873 28.2835 8.80516C28.1467 8.77545 28.0082 8.75416 27.8689 8.74187C27.7296 8.72958 27.5894 8.72631 27.4494 8.73265C27.3883 8.73541 27.3277 8.74049 27.2673 8.74684C27.2415 8.74956 27.2159 8.7531 27.1903 8.75645C27.158 8.76065 27.1257 8.76503 27.0936 8.77021C27.0599 8.77565 27.0262 8.78144 26.9927 8.7879C26.9716 8.79197 26.9507 8.79641 26.9297 8.80085C26.8903 8.80922 26.8509 8.8176 26.8118 8.82729C27.605 9.13732 28.203 9.79612 28.3964 10.6572C28.6425 11.7525 28.3195 12.9106 27.5877 13.7487C26.8774 14.5622 25.9253 15.1097 25.0566 15.7323C24.6097 16.0525 24.1705 16.3937 23.7993 16.8014C23.3421 17.3036 23.0008 17.9069 22.6269 18.4707C22.2157 19.091 21.7851 19.7037 21.2603 20.2345C20.6743 20.8273 19.9943 21.2731 19.2542 21.6514C17.7056 22.443 15.983 22.8803 14.2539 23.0235C12.4761 23.1706 10.64 23.145 8.87978 22.8427C7.39663 22.5879 5.93044 22.1011 4.63685 21.3237C4.23835 21.0842 3.85452 20.8062 3.50684 20.4911C3.50859 20.4974 3.51138 20.504 3.51384 20.5105C3.51566 20.5152 3.51715 20.5199 3.51933 20.5248C3.52224 20.5313 3.52594 20.538 3.5295 20.5447C3.53227 20.5499 3.5349 20.5551 3.53806 20.5604C3.54209 20.5672 3.54671 20.5741 3.55135 20.5811C3.55503 20.5866 3.5587 20.5921 3.56276 20.5977C3.56788 20.6048 3.57343 20.6121 3.57917 20.6193C3.58367 20.6251 3.58832 20.6308 3.59319 20.6366C3.59943 20.6441 3.6059 20.6517 3.61275 20.6593C3.61797 20.6652 3.62351 20.6711 3.62906 20.6771C3.63643 20.685 3.64386 20.6929 3.65181 20.7009C3.65761 20.7068 3.66383 20.7128 3.66994 20.7187C3.67855 20.7271 3.68706 20.7355 3.69625 20.7441C3.70208 20.7495 3.7084 20.7551 3.71445 20.7606C3.75079 20.7935 3.79123 20.8276 3.83553 20.8628C3.84193 20.8679 3.84806 20.8729 3.85462 20.878C3.86702 20.8877 3.88008 20.8976 3.89303 20.9074C3.90135 20.9138 3.90951 20.92 3.91807 20.9264C3.93097 20.9361 3.94432 20.9458 3.95772 20.9556C3.96701 20.9624 3.9763 20.9691 3.98584 20.976C3.9994 20.9857 4.01329 20.9955 4.02732 21.0054C4.03722 21.0123 4.04717 21.0193 4.0573 21.0263C4.07172 21.0363 4.08633 21.0463 4.10117 21.0564C4.11149 21.0635 4.12198 21.0705 4.13251 21.0776C4.14777 21.0878 4.1631 21.0981 4.17879 21.1084C4.18938 21.1154 4.20025 21.1225 4.21104 21.1295C4.22724 21.1401 4.24343 21.1507 4.26003 21.1613C4.26993 21.1677 4.28008 21.1741 4.29012 21.1805C4.30831 21.1921 4.32643 21.2036 4.34507 21.2153C4.34659 21.2163 4.34816 21.2172 4.34968 21.2182C4.39768 21.2482 4.44728 21.2786 4.49805 21.3093C4.50392 21.3128 4.50963 21.3163 4.51554 21.3199C4.53588 21.3321 4.55667 21.3444 4.57741 21.3567C4.58796 21.363 4.59839 21.3692 4.60904 21.3755C4.62867 21.3871 4.6486 21.3987 4.66855 21.4104C4.68084 21.4175 4.69312 21.4247 4.70554 21.4319C4.72508 21.4432 4.74484 21.4546 4.76467 21.4659C4.77758 21.4733 4.79053 21.4808 4.80356 21.4882C4.82363 21.4996 4.84382 21.5111 4.86415 21.5226C4.87709 21.5299 4.8901 21.5372 4.90316 21.5445C4.92385 21.5561 4.94461 21.5677 4.96553 21.5794C4.97861 21.5867 4.9918 21.5939 5.00495 21.6012C5.02621 21.613 5.04747 21.6248 5.06898 21.6366C5.08082 21.6431 5.0928 21.6496 5.10471 21.6561C5.12799 21.6688 5.15125 21.6815 5.17474 21.6942C5.17937 21.6967 5.18408 21.6992 5.18872 21.7018C5.2471 21.7333 5.30612 21.7649 5.36566 21.7965C5.37035 21.799 5.375 21.8015 5.3797 21.804C5.4033 21.8165 5.42704 21.8289 5.45075 21.8414C5.4634 21.848 5.47597 21.8547 5.48863 21.8613C5.51141 21.8733 5.53431 21.8852 5.5572 21.8971C5.57098 21.9042 5.58478 21.9114 5.5986 21.9186C5.62032 21.9299 5.64209 21.9411 5.66388 21.9523C5.67939 21.9603 5.69488 21.9683 5.71042 21.9763C5.73221 21.9874 5.75402 21.9986 5.77583 22.0097C5.7901 22.017 5.80435 22.0243 5.81864 22.0315C5.84132 22.0431 5.86398 22.0546 5.88669 22.066C5.90141 22.0735 5.91616 22.0809 5.9309 22.0883C5.95307 22.0995 5.97524 22.1107 5.9974 22.1218C6.01096 22.1286 6.0245 22.1353 6.03806 22.1421C6.06201 22.1541 6.08595 22.166 6.10986 22.1779C6.11764 22.1818 6.1254 22.1856 6.13318 22.1895C6.21987 22.2325 6.30625 22.2749 6.39198 22.3167C6.40531 22.3232 6.41868 22.3297 6.43198 22.3362C6.45399 22.3468 6.47589 22.3574 6.4978 22.368C6.51232 22.375 6.52685 22.3821 6.54133 22.3891C6.5629 22.3995 6.58437 22.4098 6.60583 22.4201C6.6204 22.4271 6.63497 22.4341 6.64949 22.441C6.67009 22.4509 6.6906 22.4607 6.71106 22.4704C6.72653 22.4778 6.74195 22.4851 6.75734 22.4925C6.77777 22.5022 6.79816 22.5119 6.81842 22.5215C6.83241 22.5281 6.8463 22.5346 6.8602 22.5412C6.8813 22.5512 6.9024 22.5611 6.92332 22.571C6.93604 22.577 6.94863 22.5828 6.96126 22.5888C6.98293 22.5989 7.00464 22.6091 7.02606 22.6191C7.03773 22.6246 7.04921 22.6299 7.06078 22.6353C7.09712 22.6522 7.133 22.6689 7.1685 22.6854C7.18538 22.6932 7.20242 22.7011 7.21911 22.7088C7.23587 22.7165 7.25228 22.724 7.26883 22.7316C7.28434 22.7388 7.29997 22.746 7.31527 22.753L7.32057 22.7553C7.599 22.8604 7.87542 22.9582 8.14612 23.0489C9.79381 23.6007 11.5176 23.9785 13.2549 24.0793C14.9954 24.1803 16.7641 23.9569 18.4415 23.487C19.9976 23.0512 21.4796 22.3549 22.7283 21.3193C23.3686 20.7882 23.9374 20.1709 24.4302 19.5011C24.9162 18.8404 25.2555 18.0276 25.8757 17.4759C26.5462 16.8793 27.5146 16.8135 28.2796 16.3712C28.8813 16.0232 29.3369 15.5186 29.616 14.8825C30.0452 13.904 30.0367 12.7905 29.8541 11.7567Z" fill="#CE1421"/>
<path d="M26.99 8.78519C27.0235 8.77881 27.0571 8.77287 27.0909 8.7675C27.123 8.76234 27.1552 8.75795 27.1875 8.75374C27.2132 8.75045 27.2388 8.74681 27.2646 8.74414C27.325 8.73778 27.3856 8.7327 27.4466 8.72995C27.5867 8.7236 27.7268 8.72688 27.8662 8.73917C28.0055 8.75145 28.144 8.77276 28.2808 8.80245C28.6596 8.88468 28.9952 9.02375 29.3597 9.22968C29.3642 9.23222 29.3685 9.23504 29.3729 9.23766C29.4366 9.27568 29.4994 9.31501 29.5606 9.35666C30.192 9.78629 30.6714 10.3934 30.9959 11.0836C30.9983 11.0889 31.001 11.094 31.0034 11.0993C30.993 10.8984 30.9721 10.6984 30.9371 10.4999C30.7984 9.71378 30.4456 9.07741 29.9294 8.6848C30.4808 7.04314 30.3389 5.25175 29.5204 3.71317C29.4501 3.6369 29.275 3.67148 29.1097 3.75614C29.0372 3.83422 28.995 3.91802 29.0148 3.99235C29.7049 5.26048 30.0791 6.8268 29.5708 8.17211C29.2161 8.0556 28.8148 8.02798 28.3763 8.10644C27.8949 8.19256 27.3026 8.45852 26.6602 8.86444C26.7481 8.83848 26.8373 8.81704 26.927 8.79813C26.9479 8.79371 26.9689 8.78926 26.99 8.78519Z" fill="#5A8A30"/>
<path d="M29.5203 3.71049C30.3388 5.24906 30.4807 7.04047 29.9294 8.68213C30.4456 9.07472 30.7984 9.71111 30.937 10.4972C30.972 10.6957 30.993 10.8958 31.0034 11.0967C31.0988 11.3016 31.182 11.513 31.2497 11.7301C31.282 11.2539 31.2762 10.7766 31.1936 10.3083C31.0549 9.52215 30.7021 8.88576 30.1859 8.49317C30.7373 6.85151 30.5954 5.06011 29.7769 3.52153C29.7681 3.51203 29.7573 3.50482 29.7455 3.49864C29.7422 3.49689 29.7386 3.49543 29.7351 3.49394C29.7251 3.48974 29.7144 3.48649 29.7028 3.48422C29.6996 3.48357 29.6966 3.48263 29.6932 3.48213C29.6783 3.47993 29.6624 3.47912 29.6456 3.47965C29.6417 3.47977 29.6377 3.4803 29.6337 3.48055C29.6199 3.48145 29.6055 3.48312 29.5907 3.48561C29.5854 3.48649 29.5802 3.48735 29.5748 3.48843C29.5565 3.4921 29.5378 3.49651 29.5186 3.50226C29.5179 3.50246 29.5173 3.50257 29.5167 3.50275C29.4968 3.50876 29.4765 3.51612 29.4561 3.5241C29.4502 3.52637 29.4444 3.52883 29.4385 3.53127C29.4224 3.53795 29.4063 3.54518 29.3902 3.55291C29.3852 3.5553 29.3803 3.5575 29.3753 3.55998C29.355 3.57011 29.3349 3.58097 29.3151 3.59253C29.3106 3.59518 29.3062 3.59802 29.3017 3.60072C29.286 3.61022 29.2705 3.62011 29.2553 3.63036C29.2497 3.63418 29.2441 3.638 29.2385 3.64191C29.221 3.65427 29.2039 3.66699 29.1876 3.68018C29.1864 3.6812 29.185 3.68214 29.1838 3.68316C29.1667 3.6972 29.1507 3.71172 29.1354 3.72644C29.1309 3.73075 29.1267 3.73512 29.1224 3.73947C29.1175 3.7445 29.1121 3.74944 29.1074 3.75453C29.1082 3.75415 29.1089 3.75385 29.1097 3.75347C29.2749 3.6688 29.4501 3.63424 29.5203 3.71049Z" fill="#53802F"/>
<path d="M28.3948 10.6548C28.2013 9.79398 27.6037 9.13536 26.8107 8.8252C26.7606 8.83729 26.7107 8.8502 26.6612 8.86481C25.8809 9.09509 25.1739 9.59217 24.6037 10.1845C23.8471 10.9704 23.2898 11.9215 22.6961 12.8366C20.8599 15.6669 18.5058 18.3098 15.4064 19.6435C13.5693 20.4341 11.603 20.7162 9.5996 20.7417C7.61459 20.767 3.91801 20.198 3.62539 20.3066C3.51775 20.3464 3.48377 20.4096 3.50689 20.4902C3.85412 20.8046 4.23732 21.0822 4.63518 21.3213C5.92877 22.0987 7.39496 22.5856 8.87811 22.8403C10.6384 23.1426 12.4744 23.1682 14.2522 23.0211C15.9813 22.8779 17.7039 22.4406 19.2525 21.649C19.9926 21.2707 20.6726 20.825 21.2587 20.2321C21.7835 19.7013 22.214 19.0887 22.6253 18.4684C22.9991 17.9045 23.3404 17.3012 23.7977 16.799C24.1688 16.3913 24.6081 16.0501 25.055 15.7299C25.9236 15.1074 26.8757 14.5598 27.5861 13.7463C28.3178 12.9083 28.6409 11.7501 28.3948 10.6548Z" fill="#DD181D"/>
<path d="M24.0272 12.9079C24.1822 12.9927 24.3768 12.9684 24.5389 12.8981C24.9009 12.741 25.2157 12.4714 25.4975 12.1995C25.883 11.8276 26.2579 11.4054 26.4128 10.8805C26.4611 10.7171 26.4865 10.5328 26.4566 10.3637C26.399 10.0378 26.0961 9.9593 25.8118 10.0494C25.5103 10.1449 25.2417 10.3314 25.01 10.5423C24.8994 10.643 24.7905 10.7461 24.6858 10.853C24.5531 10.9886 24.4269 11.1304 24.3121 11.2816C24.0552 11.6197 23.4423 12.5882 24.0272 12.9079Z" fill="#E8412F"/>
<path d="M15.8431 21.0377C16.1464 21.0231 16.4462 20.9146 16.7229 20.7956C17.1014 20.6328 17.4861 20.4309 17.7403 20.0953C17.8195 19.9908 17.8878 19.8651 17.9123 19.7353C17.9595 19.4851 17.7629 19.3463 17.5338 19.3338C17.291 19.3206 17.0469 19.3818 16.8228 19.4706C16.7158 19.513 16.6095 19.5575 16.505 19.606C16.3727 19.6675 16.2433 19.7353 16.1195 19.8128C15.8428 19.9863 15.1383 20.5166 15.4723 20.9056C15.5608 21.0088 15.7074 21.0442 15.8431 21.0377Z" fill="#E8412F"/>
<path d="M22.7152 14.8037C22.785 14.7917 22.8502 14.7605 22.911 14.7242C23.0742 14.6269 23.2115 14.4922 23.3419 14.3541C23.5135 14.1725 23.6805 13.9752 23.7554 13.7369C23.7759 13.6717 23.7893 13.6029 23.7813 13.535C23.7734 13.4671 23.7421 13.3998 23.6871 13.3592C23.5898 13.2875 23.4516 13.3166 23.3424 13.3684C23.1831 13.4441 23.0462 13.5599 22.9203 13.6835C22.9012 13.7021 22.8824 13.721 22.8638 13.7402C22.723 13.8851 22.5952 14.0442 22.4994 14.2225C22.4416 14.33 22.3885 14.459 22.3994 14.5835C22.4135 14.744 22.5624 14.83 22.7152 14.8037Z" fill="#E8412F"/>
<path d="M14.0807 21.3855C14.1164 21.3999 14.1555 21.4042 14.194 21.4048C14.2974 21.4065 14.3996 21.3835 14.4995 21.357C14.631 21.3221 14.7648 21.2787 14.8678 21.1899C14.896 21.1656 14.9218 21.1375 14.9377 21.1039C14.9535 21.0702 14.9583 21.0301 14.9444 20.9955C14.92 20.9345 14.8477 20.9083 14.7823 20.9011C14.6868 20.8904 14.5903 20.9048 14.4966 20.9259C14.4825 20.9291 14.4683 20.9324 14.4542 20.9359C14.3475 20.9626 14.2428 20.9997 14.1473 21.0547C14.0898 21.0879 14.0282 21.1324 13.9976 21.1931C13.9581 21.2714 14.0024 21.3538 14.0807 21.3855Z" fill="#E8412F"/>
<path d="M6.10236 21.3732C6.13286 21.3968 6.16932 21.4114 6.20627 21.4225C6.30531 21.4522 6.40988 21.4578 6.51327 21.4593C6.64926 21.4614 6.78983 21.4558 6.91306 21.3983C6.94679 21.3825 6.97929 21.3626 7.00366 21.3344C7.02802 21.3063 7.04351 21.269 7.03954 21.232C7.03256 21.1666 6.97007 21.1218 6.90912 21.0971C6.82014 21.061 6.72333 21.0486 6.62743 21.0435C6.61294 21.0428 6.59843 21.0422 6.58389 21.0417C6.47395 21.0385 6.36309 21.0458 6.25631 21.0729C6.19191 21.0892 6.1206 21.1153 6.07462 21.1655C6.01536 21.2301 6.03561 21.3215 6.10236 21.3732Z" fill="#E8412F"/>
</svg>
