<svg width="32" height="32" viewBox="0 0 32 32" fill="none" xmlns="http://www.w3.org/2000/svg">
<path d="M14.7873 3.51265C15.1716 2.6504 15.3638 2.21927 15.6314 2.08651C15.8639 1.97116 16.1368 1.97116 16.3692 2.08651C16.6368 2.21927 16.8291 2.6504 17.2134 3.51265L20.2747 10.3806C20.3884 10.6355 20.4452 10.7629 20.5332 10.8605C20.6109 10.9469 20.706 11.016 20.8121 11.0633C20.9321 11.1167 21.0709 11.1314 21.3485 11.1606L28.8263 11.9499C29.7651 12.049 30.2345 12.0985 30.4435 12.312C30.6249 12.4974 30.7093 12.7571 30.6714 13.0138C30.6279 13.3093 30.2773 13.6252 29.5761 14.2572L23.9901 19.2911C23.783 19.4779 23.6792 19.5714 23.6136 19.6851C23.5555 19.7859 23.5192 19.8976 23.507 20.0131C23.4933 20.1438 23.5221 20.2803 23.5801 20.5534L25.1403 27.909C25.3362 28.8325 25.4341 29.2942 25.2957 29.5589C25.1753 29.789 24.9545 29.9493 24.6987 29.9927C24.4042 30.0425 23.9953 29.8067 23.1775 29.3351L16.6639 25.5781C16.4222 25.4387 16.3013 25.3691 16.1728 25.3417C16.0591 25.3177 15.9416 25.3177 15.8278 25.3417C15.6993 25.3691 15.5785 25.4387 15.3368 25.5781L8.82319 29.3351C8.00543 29.8067 7.59656 30.0425 7.30203 29.9927C7.04618 29.9493 6.82532 29.789 6.70505 29.5589C6.56662 29.2942 6.66455 28.8325 6.86043 27.909L8.42057 20.5534C8.47848 20.2803 8.50743 20.1438 8.49369 20.0131C8.48152 19.8976 8.44521 19.7859 8.3871 19.6851C8.32144 19.5714 8.21778 19.4779 8.01048 19.2911L2.4247 14.2572C1.72344 13.6252 1.3728 13.3093 1.3292 13.0138C1.29135 12.7571 1.3757 12.4974 1.55722 12.312C1.7662 12.0985 2.23561 12.049 3.17443 11.9499L10.6522 11.1606C10.9298 11.1314 11.0685 11.1167 11.1885 11.0633C11.2947 11.016 11.3898 10.9469 11.4675 10.8605C11.5555 10.7629 11.6123 10.6355 11.7259 10.3806L14.7873 3.51265Z" fill="#E3B911" stroke="#E3B911" stroke-width="2" stroke-linecap="round" stroke-linejoin="round"/>
</svg>
