<svg width="32" height="32" viewBox="0 0 32 32" fill="none" xmlns="http://www.w3.org/2000/svg">
<path d="M3.77832 26.7615H8.66718V28.717H3.77832V26.7615ZM22.356 26.7615H27.2449V28.717H22.356V26.7615ZM29.2004 11.1172H31.156V15.0283H29.2004V11.1172Z" fill="white"/>
<path d="M21.8678 8.18329V18.9388H9.1567V8.18329C9.1567 8.18329 7.20117 8.18329 7.20117 6.22776C7.20117 4.27224 8.51456 3.29443 10.1345 3.29443H20.89C22.5099 3.29443 23.8233 4.2722 23.8233 6.22776C23.8233 8.18333 21.8678 8.18329 21.8678 8.18329Z" fill="#FFB957"/>
<path d="M25.2898 8.18359H26.2676C27.8875 8.18359 29.2009 9.49698 29.2009 11.1169V26.7612H1.82324V11.1169C1.82324 9.49702 3.13663 8.18359 4.75657 8.18359H5.73434" fill="#EEEEEE"/>
<path d="M8.6678 29.2058H3.77894C3.50871 29.2058 3.29004 28.9871 3.29004 28.7169V26.7614C3.29004 26.4911 3.50871 26.2725 3.77894 26.2725H8.6678C8.93803 26.2725 9.1567 26.4911 9.1567 26.7614V28.7169C9.1567 28.9872 8.93803 29.2058 8.6678 29.2058ZM4.26784 28.228H8.17894V27.2503H4.26784V28.228ZM27.2455 29.2058H22.3566C22.0864 29.2058 21.8677 28.9871 21.8677 28.7169V26.7614C21.8677 26.4911 22.0864 26.2725 22.3566 26.2725H27.2455C27.5157 26.2725 27.7344 26.4911 27.7344 26.7614V28.7169C27.7344 28.9872 27.5157 29.2058 27.2455 29.2058ZM22.8455 28.228H26.7566V27.2503H22.8455V28.228Z" fill="#4D5152"/>
<path d="M29.2005 27.2502H1.82289C1.55266 27.2502 1.33398 27.0316 1.33398 26.7613V11.117C1.33398 9.23023 2.86939 7.69482 4.75618 7.69482H26.2672C28.154 7.69482 29.6894 9.23023 29.6894 11.117V26.7613C29.6894 27.0316 29.4708 27.2502 29.2005 27.2502ZM2.31175 26.2725H28.7116V11.117C28.7116 9.76922 27.615 8.67259 26.2672 8.67259H4.75618C3.40838 8.67259 2.31175 9.76922 2.31175 11.117V26.2725Z" fill="#4D5152"/>
<path d="M21.8674 8.67228V7.69452C22.11 7.69164 23.3341 7.60809 23.3341 6.22785C23.3341 4.69722 22.4203 3.78343 20.8897 3.78343H10.1341C8.60351 3.78343 7.68972 4.69722 7.68972 6.22785C7.68972 7.60809 8.91384 7.69164 9.15923 7.69452L9.15634 8.67228C8.31083 8.67228 6.71191 8.16143 6.71191 6.22785C6.71191 4.18114 8.08739 2.80566 10.1341 2.80566H20.8896C22.9363 2.80566 24.3118 4.18114 24.3118 6.22785C24.3119 8.16143 22.713 8.67228 21.8674 8.67228ZM31.1563 15.5167H29.2007C28.9305 15.5167 28.7118 15.298 28.7118 15.0278V11.1167C28.7118 10.8465 28.9305 10.6278 29.2007 10.6278H31.1563C31.4265 10.6278 31.6452 10.8465 31.6452 11.1167V15.0278C31.6452 15.298 31.4265 15.5167 31.1563 15.5167ZM29.6896 14.5389H30.6674V11.6056H29.6896V14.5389ZM22.8452 10.6278H26.7563V11.6056H22.8452V10.6278Z" fill="#4D5152"/>
<path d="M0.845703 22.8501H30.1789V26.7612H0.845703V22.8501Z" fill="#F28C13"/>
<path d="M30.1786 27.2502H0.845347C0.575119 27.2502 0.356445 27.0315 0.356445 26.7613V22.8502C0.356445 22.58 0.575119 22.3613 0.845347 22.3613H30.1785C30.4487 22.3613 30.6674 22.58 30.6674 22.8502V26.7613C30.6674 27.0315 30.4488 27.2502 30.1786 27.2502ZM1.33425 26.2725H29.6897V23.3391H1.33425V26.2725Z" fill="#4D5152"/>
<path d="M15.0229 24.3169H16.0007V25.2947H15.0229V24.3169ZM16.9784 24.3169H17.9562V25.2947H16.9784V24.3169ZM13.0674 24.3169H14.0451V25.2947H13.0674V24.3169Z" fill="#4D5152"/>
</svg>
