<svg width="32" height="32" viewBox="0 0 32 32" fill="none" xmlns="http://www.w3.org/2000/svg">
<g clip-path="url(#clip0_2147_9169)">
<path fill-rule="evenodd" clip-rule="evenodd" d="M16 7.00098C11.0295 7.00098 7 11.0305 7 16.001C7 20.9715 11.0295 25.001 16 25.001C20.9705 25.001 25 20.9715 25 16.001C25 11.0305 20.9705 7.00098 16 7.00098ZM16 24.001C11.5815 24.001 8 20.419 8 16.001C8 11.583 11.5815 8.00098 16 8.00098C20.4185 8.00098 24 11.583 24 16.001C24 20.419 20.4185 24.001 16 24.001Z" fill="#394240"/>
<path fill-rule="evenodd" clip-rule="evenodd" d="M31.5 15.5H26.5C26.2235 15.5 26 15.7235 26 16C26 16.2765 26.2235 16.5 26.5 16.5H31.5C31.7765 16.5 32 16.2765 32 16C32 15.7235 31.7765 15.5 31.5 15.5Z" fill="#394240"/>
<path fill-rule="evenodd" clip-rule="evenodd" d="M5.72815 18.2344L3.79665 18.7519C3.52965 18.8244 3.37115 19.0984 3.44315 19.3654C3.51465 19.6319 3.78815 19.7904 4.05565 19.7179L5.98715 19.2004C6.25365 19.1289 6.41215 18.8559 6.34065 18.5879C6.26915 18.3214 5.99465 18.1629 5.72815 18.2344Z" fill="#394240"/>
<path fill-rule="evenodd" clip-rule="evenodd" d="M24.6595 11.0002C24.798 11.2397 25.1035 11.3217 25.343 11.1827L29.673 8.68269C29.9125 8.54519 29.9945 8.23919 29.8555 8.00019C29.718 7.76069 29.412 7.67869 29.173 7.81769L24.843 10.3177C24.6035 10.4562 24.522 10.7607 24.6595 11.0002Z" fill="#394240"/>
<path fill-rule="evenodd" clip-rule="evenodd" d="M8.92948 23.0715C8.73448 22.876 8.41798 22.877 8.22248 23.0715L6.80848 24.4855C6.61298 24.681 6.61348 24.998 6.80898 25.1925C7.00398 25.388 7.31998 25.388 7.51548 25.1925L8.92948 23.7785C9.12498 23.584 9.12498 23.2665 8.92948 23.0715Z" fill="#394240"/>
<path fill-rule="evenodd" clip-rule="evenodd" d="M20.9997 7.34003C21.2392 7.47753 21.5447 7.39653 21.6832 7.15653L24.1832 2.82653C24.3217 2.58703 24.2397 2.28103 23.9997 2.14353C23.7607 2.00503 23.4557 2.08703 23.3172 2.32603L20.8177 6.65703C20.6787 6.89653 20.7607 7.20103 20.9997 7.34003Z" fill="#394240"/>
<path fill-rule="evenodd" clip-rule="evenodd" d="M13.4117 25.6592C13.1457 25.5877 12.8717 25.7472 12.7992 26.0127L12.2817 27.9442C12.2102 28.2117 12.3697 28.4852 12.6362 28.5567C12.9027 28.6292 13.1762 28.4707 13.2477 28.2032L13.7652 26.2717C13.8377 26.0062 13.6792 25.7317 13.4117 25.6592Z" fill="#394240"/>
<path fill-rule="evenodd" clip-rule="evenodd" d="M16.0005 6C16.2775 6 16.501 5.7765 16.5015 5.5V0.5C16.5015 0.2235 16.278 0 16.0005 0C15.725 0 15.5015 0.2235 15.501 0.5L15.5015 5.5C15.5015 5.7765 15.725 6 16.0005 6Z" fill="#394240"/>
<path fill-rule="evenodd" clip-rule="evenodd" d="M19.2006 26.0123C19.1301 25.7458 18.8561 25.5873 18.5881 25.6588C18.3216 25.7303 18.1641 26.0043 18.2346 26.2713L18.7521 28.2028C18.8241 28.4703 19.0986 28.6278 19.3656 28.5563C19.6326 28.4848 19.7901 28.2118 19.7181 27.9438L19.2006 26.0123Z" fill="#394240"/>
<path fill-rule="evenodd" clip-rule="evenodd" d="M10.318 7.15603C10.4555 7.39553 10.7615 7.47753 10.9995 7.33953C11.2395 7.20103 11.322 6.89603 11.1835 6.65603L8.68353 2.32603C8.54553 2.08703 8.23953 2.00503 7.99953 2.14353C7.76103 2.28103 7.67903 2.58703 7.81703 2.82603L10.318 7.15603Z" fill="#394240"/>
<path fill-rule="evenodd" clip-rule="evenodd" d="M23.7788 23.0707C23.5848 22.8762 23.2678 22.8762 23.0718 23.0707C22.8763 23.2662 22.8778 23.5832 23.0718 23.7777L24.4858 25.1917C24.6818 25.3882 24.9983 25.3862 25.1933 25.1917C25.3888 24.9962 25.3888 24.6812 25.1928 24.4847L23.7788 23.0707Z" fill="#394240"/>
<path fill-rule="evenodd" clip-rule="evenodd" d="M2.32709 8.68257L6.65809 11.1816C6.89659 11.3201 7.20209 11.2381 7.33959 11.0001C7.47809 10.7601 7.39709 10.4551 7.15759 10.3166L2.82709 7.81657C2.58809 7.67757 2.28209 7.76007 2.14359 8.00007C2.00659 8.23857 2.08809 8.54407 2.32709 8.68257Z" fill="#394240"/>
<path fill-rule="evenodd" clip-rule="evenodd" d="M26.0133 19.1999L27.9448 19.7174C28.2123 19.7899 28.4858 19.6294 28.5573 19.3629C28.6293 19.0964 28.4713 18.8229 28.2038 18.7514L26.2723 18.2339C26.0068 18.1614 25.7318 18.3199 25.6598 18.5874C25.5878 18.8544 25.7478 19.1279 26.0133 19.1999Z" fill="#394240"/>
<path fill-rule="evenodd" clip-rule="evenodd" d="M6 16C6.0005 15.7225 5.7775 15.5 5.501 15.499L0.5 15.5C0.224 15.5 0 15.7225 0 16C0.0005 16.2755 0.224 16.5 0.5005 16.5L5.501 16.499C5.7765 16.499 6.0005 16.2755 6 16Z" fill="#394240"/>
<path fill-rule="evenodd" clip-rule="evenodd" d="M26.2722 13.7643L28.2037 13.2468C28.4712 13.1753 28.6287 12.9003 28.5567 12.6333C28.4857 12.3678 28.2127 12.2093 27.9447 12.2808L26.0132 12.7983C25.7467 12.8688 25.5882 13.1438 25.6597 13.4108C25.7302 13.6773 26.0057 13.8348 26.2722 13.7643Z" fill="#394240"/>
<path d="M16 24C20.4183 24 24 20.4183 24 16C24 11.5817 20.4183 8 16 8C11.5817 8 8 11.5817 8 16C8 20.4183 11.5817 24 16 24Z" fill="#F9EBB2"/>
<path fill-rule="evenodd" clip-rule="evenodd" d="M7.33978 20.9999C7.20228 20.7599 6.89678 20.6774 6.65728 20.8154L2.32678 23.3164C2.08778 23.4549 2.00478 23.7599 2.14328 23.9999C2.28178 24.2384 2.58778 24.3204 2.82678 24.1824L7.15678 21.6814C7.39528 21.5439 7.47828 21.2394 7.33978 20.9999Z" fill="#394240"/>
<path fill-rule="evenodd" clip-rule="evenodd" d="M23.0724 8.92729C23.2669 9.12379 23.5834 9.12179 23.7794 8.92729L25.1934 7.51329C25.3894 7.31779 25.3884 7.00179 25.1924 6.80629C24.9984 6.61079 24.6819 6.61079 24.4864 6.80629L23.0724 8.22029C22.8764 8.41479 22.8774 8.73229 23.0724 8.92729Z" fill="#394240"/>
<path fill-rule="evenodd" clip-rule="evenodd" d="M10.9996 24.6602C10.7601 24.5217 10.4556 24.6037 10.3171 24.8417L7.81713 29.1737C7.67963 29.4122 7.75963 29.7177 7.99963 29.8562C8.23913 29.9927 8.54463 29.9107 8.68313 29.6727L11.1821 25.3417C11.3201 25.1037 11.2396 24.7982 10.9996 24.6602Z" fill="#394240"/>
<path fill-rule="evenodd" clip-rule="evenodd" d="M18.5891 6.33987C18.8546 6.41237 19.1281 6.25187 19.2016 5.98637L19.7191 4.05487C19.7906 3.78737 19.6311 3.51287 19.3646 3.44237C19.0991 3.36987 18.8246 3.52837 18.7531 3.79587L18.2356 5.72737C18.1621 5.99287 18.3226 6.26737 18.5891 6.33987Z" fill="#394240"/>
<path fill-rule="evenodd" clip-rule="evenodd" d="M16 26C15.7235 25.999 15.501 26.2225 15.5 26.499L15.501 31.501C15.501 31.7755 15.7225 32 16 32C16.2765 32 16.5 31.7755 16.5005 31.5L16.499 26.499C16.499 26.2235 16.2775 26 16 26Z" fill="#394240"/>
<path fill-rule="evenodd" clip-rule="evenodd" d="M12.7997 5.98637C12.8692 6.25287 13.1452 6.41137 13.4122 6.33987C13.6782 6.26937 13.8352 5.99437 13.7657 5.72737L13.2482 3.79587C13.1757 3.52837 12.9017 3.36987 12.6347 3.44237C12.3692 3.51387 12.2097 3.78687 12.2822 4.05487L12.7997 5.98637Z" fill="#394240"/>
<path fill-rule="evenodd" clip-rule="evenodd" d="M21.6815 24.8429C21.544 24.6044 21.24 24.5214 21 24.6599C20.7605 24.7974 20.6795 25.1024 20.8165 25.3424L23.3185 29.6724C23.456 29.9119 23.76 29.9949 24 29.8559C24.2395 29.7174 24.321 29.4114 24.1835 29.1724L21.6815 24.8429Z" fill="#394240"/>
<path fill-rule="evenodd" clip-rule="evenodd" d="M8.22122 8.92728C8.41472 9.12478 8.73272 9.12278 8.92822 8.92728C9.12372 8.73378 9.12172 8.41728 8.92822 8.22028L7.51422 6.80628C7.31772 6.61078 7.00172 6.61178 6.80672 6.80728C6.61172 7.00178 6.61072 7.31778 6.80722 7.51328L8.22122 8.92728Z" fill="#394240"/>
<path fill-rule="evenodd" clip-rule="evenodd" d="M29.6742 23.3166L25.3427 20.8176C25.1037 20.6801 24.7992 20.7601 24.6612 21.0011C24.5222 21.2396 24.6052 21.5441 24.8432 21.6826L29.1752 24.1826C29.4137 24.3201 29.7182 24.2401 29.8567 24.0001C29.9942 23.7601 29.9122 23.4551 29.6742 23.3166Z" fill="#394240"/>
<path fill-rule="evenodd" clip-rule="evenodd" d="M5.98674 12.7988L4.05474 12.2808C3.78674 12.2093 3.51324 12.3688 3.44224 12.6353C3.37024 12.9008 3.52774 13.1753 3.79574 13.2478L5.72724 13.7643C5.99274 13.8373 6.26774 13.6773 6.33974 13.4108C6.41224 13.1463 6.25224 12.8728 5.98674 12.7988Z" fill="#394240"/>
<path fill-rule="evenodd" clip-rule="evenodd" d="M16 10.001C15.7235 10.001 15.5 10.2245 15.5 10.501C15.5 10.7775 15.7235 11.001 16 11.001C18.761 11.001 21 13.2395 21 16.001C21 16.2775 21.2235 16.501 21.5 16.501C21.7765 16.501 22 16.2775 22 16.001C22 12.6875 19.3135 10.001 16 10.001Z" fill="#394240"/>
</g>
<defs>
<clipPath id="clip0_2147_9169">
<rect width="32" height="32" fill="white"/>
</clipPath>
</defs>
</svg>
