<svg width="32" height="32" viewBox="0 0 32 32" fill="none" xmlns="http://www.w3.org/2000/svg">
<g clip-path="url(#clip0_2147_2278)">
<path fill-rule="evenodd" clip-rule="evenodd" d="M3.2 0H28.8C30.5674 0 32 1.43258 32 3.2V28.8C32 30.5674 30.5674 32 28.8 32H3.2C1.43258 32 0 30.5674 0 28.8V3.2C0 1.43258 1.43258 0 3.2 0Z" fill="#010101"/>
<path d="M19.8157 28.5414C20.2893 28.5414 20.6732 28.1607 20.6732 27.6911C20.6732 27.2215 20.2893 26.8408 19.8157 26.8408C19.3422 26.8408 18.9583 27.2215 18.9583 27.6911C18.9583 28.1607 19.3422 28.5414 19.8157 28.5414Z" fill="#010101"/>
<path fill-rule="evenodd" clip-rule="evenodd" d="M20.6294 12.9918C22.0302 13.9926 23.7464 14.5816 25.5999 14.5816V11.0166C25.2491 11.0168 24.8992 10.9802 24.556 10.9074V13.7136C22.7027 13.7136 20.9868 13.1247 19.5855 12.1238V19.3987C19.5855 23.038 16.6339 25.988 12.9929 25.988C11.6344 25.988 10.3717 25.5775 9.32275 24.8735C10.5199 26.097 12.1894 26.856 14.0365 26.856C17.6777 26.856 20.6295 23.906 20.6295 20.2666L20.6294 12.9918ZM21.9171 9.39526C21.2012 8.61356 20.7311 7.60326 20.6294 6.48633V6.02783H19.6402C19.8892 7.44735 20.7384 8.66015 21.9171 9.39526ZM11.6256 22.081C11.2257 21.5568 11.0095 20.9155 11.0104 20.2562C11.0104 18.5917 12.3606 17.2422 14.0262 17.2422C14.3366 17.242 14.6452 17.2896 14.9411 17.3834V13.7388C14.5954 13.6915 14.2465 13.6714 13.8976 13.6788V16.5155C13.6016 16.4217 13.2929 16.3741 12.9824 16.3743C11.3167 16.3743 9.96672 17.7238 9.96672 19.3885C9.96672 20.5654 10.6415 21.5846 11.6256 22.081Z" fill="#EE1D52"/>
<path fill-rule="evenodd" clip-rule="evenodd" d="M19.5857 12.1238C20.9869 13.1247 22.7029 13.7136 24.5562 13.7136V10.9074C23.5217 10.6873 22.6058 10.1469 21.9172 9.39526C20.7386 8.66015 19.8893 7.44735 19.6403 6.02783H17.0421V20.2664C17.0362 21.9263 15.6883 23.2703 14.0262 23.2703C13.0468 23.2703 12.1766 22.8038 11.6256 22.081C10.6415 21.5846 9.96673 20.5654 9.96673 19.3885C9.96673 17.7238 11.3167 16.3743 12.9824 16.3743C13.3015 16.3743 13.6091 16.424 13.8976 16.5155V13.6788C10.3206 13.7526 7.44385 16.6738 7.44385 20.2666C7.44385 22.06 8.16026 23.6858 9.32289 24.8737C10.3718 25.5777 11.6346 25.9882 12.993 25.9882C16.634 25.9882 19.5857 23.038 19.5857 19.3988V12.1238Z" fill="white"/>
<path fill-rule="evenodd" clip-rule="evenodd" d="M24.5559 10.9076V10.1488C23.623 10.1502 22.7085 9.88911 21.917 9.39529C22.6176 10.162 23.5402 10.6907 24.5559 10.9076ZM19.6401 6.028C19.6163 5.89235 19.5981 5.75579 19.5854 5.61865V5.16016H15.9979V19.3989C15.9921 21.0587 14.6444 22.4027 12.9822 22.4027C12.4941 22.4027 12.0334 22.2869 11.6254 22.0811C12.1764 22.8039 13.0466 23.2705 14.026 23.2705C15.688 23.2705 17.0359 21.9265 17.0418 20.2666V6.028H19.6401ZM13.8975 13.6789V12.8711C13.5977 12.8301 13.2955 12.8097 12.9929 12.8098C9.35158 12.8098 6.3999 15.76 6.3999 19.3989C6.3999 21.6803 7.55997 23.691 9.32278 24.8737C8.16016 23.6859 7.44374 22.06 7.44374 20.2666C7.44374 16.674 10.3204 13.7528 13.8975 13.6789Z" fill="#69C9D0"/>
</g>
<defs>
<clipPath id="clip0_2147_2278">
<rect width="32" height="32" fill="white"/>
</clipPath>
</defs>
</svg>
