<svg width="40" height="41" viewBox="0 0 40 41" fill="none" xmlns="http://www.w3.org/2000/svg">
<path d="M37.5 8.96875V19.2188C37.5002 19.4723 37.4269 19.7202 37.2896 19.9311C37.1523 20.142 36.957 20.3064 36.7284 20.4034C36.4999 20.5005 36.2484 20.5259 36.0058 20.4763C35.7632 20.4268 35.5404 20.3046 35.3656 20.1252L31.25 15.9051L22.1343 25.2502C22.0182 25.3694 21.8804 25.4639 21.7286 25.5283C21.5769 25.5928 21.4142 25.626 21.25 25.626C21.0857 25.626 20.923 25.5928 20.7713 25.5283C20.6195 25.4639 20.4817 25.3694 20.3656 25.2502L15 19.7489L4.63434 30.3752C4.39979 30.6157 4.08167 30.7507 3.74996 30.7507C3.41826 30.7507 3.10014 30.6157 2.86559 30.3752C2.63104 30.1348 2.49927 29.8087 2.49927 29.4688C2.49927 29.1288 2.63104 28.8027 2.86559 28.5623L14.1156 17.031C14.2317 16.9119 14.3695 16.8174 14.5213 16.7529C14.673 16.6884 14.8357 16.6552 15 16.6552C15.1642 16.6552 15.3269 16.6884 15.4786 16.7529C15.6304 16.8174 15.7682 16.9119 15.8843 17.031L21.25 22.5324L29.4828 14.0938L25.3656 9.87523C25.1906 9.69604 25.0714 9.46766 25.0231 9.21899C24.9747 8.97032 24.9995 8.71254 25.0942 8.4783C25.1889 8.24406 25.3492 8.04388 25.555 7.90311C25.7607 7.76234 26.0026 7.6873 26.25 7.6875H36.25C36.5815 7.6875 36.8994 7.82249 37.1338 8.06277C37.3683 8.30305 37.5 8.62894 37.5 8.96875Z" fill="#FF0000"/>
</svg>
