<svg width="14" height="14" viewBox="0 0 14 14" fill="none" xmlns="http://www.w3.org/2000/svg">
<g clip-path="url(#clip0_2154_2116)">
<path d="M7.00585 0.0117188C5.08085 0.0117188 3.50586 1.58671 3.50586 3.5117V4.9117H4.90585V3.5117C4.90585 2.35671 5.85085 1.41171 7.00585 1.41171C8.16084 1.41171 9.10584 2.35671 9.10584 3.5117H10.5058C10.5058 1.58671 8.93084 0.0117188 7.00585 0.0117188Z" fill="#424242"/>
<path d="M11.2062 14.0116H2.80624C2.03625 14.0116 1.40625 13.3816 1.40625 12.6116V6.31162C1.40625 5.54162 2.03625 4.91162 2.80624 4.91162H11.2062C11.9762 4.91162 12.6062 5.54162 12.6062 6.31162V12.6116C12.6062 13.3816 11.9762 14.0116 11.2062 14.0116Z" fill="#FB8C00"/>
<path d="M5.95508 9.46162C5.95508 9.74009 6.0657 10.0072 6.26261 10.2041C6.45953 10.401 6.7266 10.5116 7.00507 10.5116C7.28355 10.5116 7.55062 10.401 7.74753 10.2041C7.94445 10.0072 8.05507 9.74009 8.05507 9.46162C8.05507 9.18314 7.94445 8.91607 7.74753 8.71916C7.55062 8.52225 7.28355 8.41162 7.00507 8.41162C6.7266 8.41162 6.45953 8.52225 6.26261 8.71916C6.0657 8.91607 5.95508 9.18314 5.95508 9.46162Z" fill="#C76E00"/>
</g>
<defs>
<clipPath id="clip0_2154_2116">
<rect width="14" height="14" fill="white"/>
</clipPath>
</defs>
</svg>
