<svg width="32" height="32" viewBox="0 0 32 32" fill="none" xmlns="http://www.w3.org/2000/svg">
<path d="M16 32C24.8366 32 32 24.8366 32 16C32 7.16344 24.8366 0 16 0C7.16344 0 0 7.16344 0 16C0 24.8366 7.16344 32 16 32Z" fill="#253B68"/>
<path d="M28.9099 14.8615L23.9636 19.1554L19.0178 14.8615H21.9953C21.9623 10.8122 18.67 7.54002 14.6131 7.54002C12.3324 7.54002 10.0933 8.48716 8.73926 10.1125C9.56459 8.56788 10.6879 7.44307 12.0186 6.70368C13.3488 5.96528 14.8868 5.6123 16.5408 5.6123C21.6623 5.6123 25.8182 9.74757 25.8511 14.8615L28.9099 14.8615Z" fill="white"/>
<path d="M3.09082 17.139L8.0371 12.8452L12.9829 17.139H10.0054C10.0384 21.1884 13.3306 24.4606 17.3876 24.4606C19.6683 24.4606 21.9074 23.5134 23.2614 21.8881C22.4361 23.4327 21.3127 24.5575 19.982 25.2969C18.6519 26.0353 17.1139 26.3882 15.4599 26.3882C10.3383 26.3882 6.18253 22.253 6.14956 17.139H3.09082Z" fill="white"/>
</svg>
