<svg width="73" height="69" viewBox="0 0 73 69" fill="none" xmlns="http://www.w3.org/2000/svg">
<path d="M54.6118 58.7C56.7585 58.7 58.8172 59.5534 60.3352 61.0724C61.8531 62.5915 62.7059 64.6518 62.7059 66.8C62.7059 64.6518 63.5587 62.5915 65.0766 61.0724C66.5945 59.5534 68.6533 58.7 70.8 58.7C68.6533 58.7 66.5945 57.8466 65.0766 56.3276C63.5587 54.8085 62.7059 52.7483 62.7059 50.6C62.7059 52.7483 61.8531 54.8085 60.3352 56.3276C58.8172 57.8466 56.7585 58.7 54.6118 58.7ZM54.6118 10.1C56.7585 10.1 58.8172 10.9534 60.3352 12.4724C61.8531 13.9915 62.7059 16.0517 62.7059 18.2C62.7059 16.0517 63.5587 13.9915 65.0766 12.4724C66.5945 10.9534 68.6533 10.1 70.8 10.1C68.6533 10.1 66.5945 9.24661 65.0766 7.72757C63.5587 6.20852 62.7059 4.14825 62.7059 2C62.7059 4.14825 61.8531 6.20852 60.3352 7.72757C58.8172 9.24661 56.7585 10.1 54.6118 10.1ZM26.2824 58.7C26.2824 52.2552 28.8407 46.0744 33.3945 41.5173C37.9483 36.9602 44.1246 34.4 50.5647 34.4C44.1246 34.4 37.9483 31.8398 33.3945 27.2827C28.8407 22.7256 26.2824 16.5448 26.2824 10.1C26.2824 16.5448 23.724 22.7256 19.1702 27.2827C14.6164 31.8398 8.44008 34.4 2 34.4C8.44008 34.4 14.6164 36.9602 19.1702 41.5173C23.724 46.0744 26.2824 52.2552 26.2824 58.7Z" stroke="#C83A2D" stroke-width="4" stroke-linecap="round" stroke-linejoin="round"/>
</svg>
