<svg width="32" height="32" viewBox="0 0 32 32" fill="none" xmlns="http://www.w3.org/2000/svg">
<g clip-path="url(#clip0_2147_3102)">
<path d="M5.67111 26.3289C14.7926 35.4505 36.0262 19.1175 31.3308 0.669198C12.8824 -4.02619 -3.45041 17.2074 5.67111 26.3289Z" fill="#76CC5B"/>
<path opacity="0.2" d="M5.67125 23.4361C4.22675 21.9916 3.42125 20.2429 3.16087 18.3418C2.78337 21.3456 3.51725 24.175 5.67125 26.329C14.1482 34.8059 33.0857 21.2987 31.9512 4.54004C30.9142 19.9054 13.6542 31.4191 5.67125 23.4361Z" fill="black"/>
<path d="M24.9483 12.9176L20.9471 12.076L24.8649 8.15816C25.1473 7.87572 25.1473 7.41778 24.8649 7.13535C24.5824 6.85291 24.1245 6.85291 23.8421 7.13535L19.9242 11.0533L19.0826 7.05203C19.0003 6.66122 18.617 6.41084 18.226 6.49322C17.8351 6.57547 17.5849 6.95897 17.6671 7.34978L18.7029 12.2745L15.0411 15.9364L14.1995 11.9351C14.1172 11.5442 13.7339 11.2939 13.3429 11.3762C12.9521 11.4584 12.7019 11.8419 12.7841 12.2327L13.82 17.1575L10.1582 20.8193L9.31653 16.8181C9.23428 16.4272 8.85085 16.177 8.45997 16.2592C8.06903 16.3415 7.81891 16.725 7.90109 17.1158L8.93697 22.0405L0.211829 30.7656C-0.0706095 31.0481 -0.0706095 31.506 0.211829 31.7884C0.353016 31.9296 0.538142 32.0001 0.723205 32.0001C0.908267 32.0001 1.09339 31.9296 1.23458 31.7884L9.95972 23.0633L14.8845 24.0991C14.9347 24.1098 14.9848 24.1148 15.034 24.1148C15.3689 24.1148 15.6694 23.8809 15.741 23.5403C15.8233 23.1494 15.573 22.7658 15.1821 22.6837L11.1809 21.8421L14.8427 18.1802L19.7674 19.2161C19.8177 19.2266 19.8677 19.2317 19.917 19.2317C20.2518 19.2317 20.5522 18.9979 20.624 18.6572C20.7062 18.2664 20.456 17.8829 20.0652 17.8007L16.0639 16.9591L19.7257 13.2972L24.6505 14.3332C24.7008 14.3437 24.7508 14.3488 24.8001 14.3488C25.1349 14.3488 25.4354 14.115 25.5071 13.7743C25.5894 13.3833 25.3393 12.9998 24.9483 12.9176Z" fill="#599944"/>
</g>
<defs>
<clipPath id="clip0_2147_3102">
<rect width="32" height="32" fill="white"/>
</clipPath>
</defs>
</svg>
