<svg width="32" height="32" viewBox="0 0 32 32" fill="none" xmlns="http://www.w3.org/2000/svg">
<path d="M16.2563 29.7089C23.8143 29.7089 29.9413 23.5819 29.9413 16.0239C29.9413 8.46585 23.8143 2.33887 16.2563 2.33887C8.69827 2.33887 2.57129 8.46585 2.57129 16.0239C2.57129 23.5819 8.69827 29.7089 16.2563 29.7089Z" fill="#CF9F66"/>
<path d="M16.2818 27.7414C22.7392 27.7414 27.9738 22.5067 27.9738 16.0494C27.9738 9.59211 22.7392 4.35742 16.2818 4.35742C9.82453 4.35742 4.58984 9.59211 4.58984 16.0494C4.58984 22.5067 9.82453 27.7414 16.2818 27.7414Z" fill="#89643D"/>
<path d="M14.9334 24.5036C20.0382 24.5036 24.1764 20.3653 24.1764 15.2606C24.1764 10.1558 20.0382 6.01758 14.9334 6.01758C9.82866 6.01758 5.69043 10.1558 5.69043 15.2606C5.69043 20.3653 9.82866 24.5036 14.9334 24.5036Z" fill="#C45C00"/>
<path d="M5.02362 12.9908C5.02362 12.9908 7.56962 10.6908 10.3266 11.1748C13.0836 11.6588 13.4946 14.3748 12.3766 15.4093C12.3766 15.4093 12.0116 15.3653 11.8181 14.7638C11.6246 14.1623 11.0266 12.8598 9.84062 12.8638C8.65462 12.8678 7.38712 13.0548 4.79462 15.1258C4.72701 14.406 4.80488 13.6799 5.02362 12.9908Z" fill="#C98019"/>
<path d="M14.6633 10.323C14.6633 10.323 18.2918 7.93804 20.6488 10.496C21.1188 11.3503 21.6848 12.1482 22.3358 12.874C23.0313 13.492 24.7858 14.021 24.6858 16.162C24.5858 18.303 23.5888 19.012 23.0298 19.062C22.4708 19.112 19.3033 18.65 18.5893 19.65C17.8753 20.65 18.2123 23.0815 17.3043 24.216C16.3963 25.3505 12.1448 23.748 13.3743 20.616C14.6038 17.484 12.5053 15.729 12.1133 14.891C11.7213 14.053 10.6913 11.955 13.4998 10.972C16.3083 9.98904 15.6813 12.0465 14.9398 12.2925C14.1983 12.5385 12.7763 12.702 13.0493 14.197C13.3223 15.692 15.1373 16.367 15.0113 18.547C14.8853 20.727 13.9848 21.285 14.4138 22.15C14.8428 23.015 16.3053 23.8215 16.6183 22.872C16.9313 21.9225 16.5563 19.15 18.4498 18.0335C20.3433 16.917 22.4038 18.1775 23.0098 17.5795C23.6158 16.9815 23.5248 15.4485 22.3053 14.5895C21.1943 13.7594 20.2842 12.69 19.6423 11.4605C19.0423 10.38 16.9263 10.4 15.0923 11.5015C13.2583 12.603 12.9998 11.3265 14.6633 10.323Z" fill="#EB9800"/>
<path d="M13.3453 9.13551C13.3453 9.13551 11.9033 7.34051 13.4543 5.63201C15.0053 3.92351 19.9118 5.17101 19.4473 7.86101C18.9828 10.551 19.5658 10.4635 20.2973 10.9475C21.0288 11.4315 22.3053 11.3295 23.2808 11.922C24.2563 12.5145 25.0753 13.74 23.7433 15.436C23.1218 16.2736 22.2187 16.8587 21.2002 17.0836C20.1817 17.3085 19.1163 17.158 18.1998 16.66C16.0918 15.6335 14.5688 14.836 13.5203 17.6135C12.4718 20.391 11.9443 22.4605 10.3878 22.5875C8.83131 22.7145 8.46431 22.1565 9.08181 21.461C9.69931 20.7655 10.3818 21.4805 10.9888 20.566C11.5958 19.6515 11.5768 18.326 12.9438 16.338C14.3108 14.35 16.2218 14.5625 18.1113 15.602C18.4515 15.8165 18.8312 15.9606 19.228 16.0258C19.6247 16.0909 20.0306 16.0759 20.4215 15.9815C20.8123 15.8871 21.1803 15.7153 21.5036 15.4762C21.827 15.2371 22.099 14.9356 22.3038 14.5895C23.0783 13.419 22.8078 12.556 19.6073 12.227C19.6073 12.227 17.3548 11.577 17.7118 9.44851C18.0688 7.32001 17.4568 6.17701 16.1188 6.13351C14.7808 6.09001 13.6898 7.18351 14.3048 9.15351C14.9198 11.1235 13.3453 9.13551 13.3453 9.13551Z" fill="#D68B00"/>
<path d="M23.7962 13.0497C23.7962 13.0497 24.3707 10.4322 22.1517 9.01715C19.9327 7.60215 17.9337 9.90815 16.9077 12.0172C15.8817 14.1262 16.7762 16.0322 15.4997 16.9247C14.2232 17.8172 11.9837 16.7547 10.5997 16.9422C9.21573 17.1297 5.76723 19.3197 10.1497 23.1112C14.5322 26.9027 19.7092 22.6512 20.3867 21.6267C21.0642 20.6022 21.2787 19.4827 22.1642 18.7012C23.0497 17.9197 21.3577 17.6942 20.9217 18.1947C20.2996 18.9578 19.7786 19.7981 19.3717 20.6947C18.8887 21.7447 16.3022 23.0292 14.4412 23.0602C12.5802 23.0912 10.0102 22.1272 9.66173 19.9512C9.31323 17.7752 12.4667 18.4937 13.1617 18.7952C13.8567 19.0967 17.9997 18.4727 17.9997 14.8967C17.9997 11.3207 20.1962 10.1467 21.6692 10.3827C23.1422 10.6187 22.6042 13.4202 22.1802 13.8232C21.7562 14.2262 19.9247 15.8017 17.5802 13.9372L17.1347 15.1672C17.1347 15.1672 19.1007 17.2037 21.2142 16.3932C23.3277 15.5827 23.7962 13.0497 23.7962 13.0497Z" fill="#EBBA1D"/>
<path d="M11.2655 15.897C11.2655 15.897 8.20101 13.673 10.6705 10.297C13.14 6.92101 17.7125 7.46251 18 8.99401C18.2875 10.5255 17.2075 11.9805 18.5 13.9005C19.7925 15.8205 22.429 15.5925 23.55 18.426C24.671 21.2595 19.95 24.761 17.004 22.062C14.058 19.363 16.513 17.557 17.304 17.1345C18.095 16.712 18.418 17.477 17.9825 18.1345C17.547 18.792 15.6725 20.1955 18.3235 21.673C20.9745 23.1505 23.627 19.9755 22.034 18.33C20.441 16.6845 20.0505 17.3335 18.054 15.224C16.0575 13.1145 16.8355 11.224 16.842 10.439C16.8485 9.65401 15.9135 8.44401 14.301 9.15251C12.6885 9.86101 9.01351 12.7935 12.4635 15.746C12.469 15.747 12.5715 16.367 11.2655 15.897Z" fill="#FFCA1F"/>
<path d="M24.3639 12.8165C24.3639 12.8165 21.2069 10.991 19.1499 14.5745C17.0929 18.158 23.3549 20.301 23.7869 18.6935C24.2189 17.086 23.6494 17.709 22.8839 17.833C22.1184 17.957 19.3839 18.0405 19.8574 15.095C20.2699 12.5415 23.4179 13.0225 24.1154 13.656C24.1609 13.7015 24.2163 13.7358 24.2773 13.7564C24.3382 13.7769 24.4031 13.7831 24.4669 13.7745C24.5306 13.7658 24.5915 13.7425 24.6448 13.7064C24.698 13.6704 24.7422 13.6225 24.7739 13.5665C24.8654 13.3835 24.8109 13.134 24.3639 12.8165Z" fill="#FFD85E"/>
<path d="M16.4496 19.8722C16.4496 19.8722 18.5166 18.7152 18.2181 16.9007C17.9196 15.0862 17.6181 15.4797 17.6681 15.8262C17.7181 16.1727 18.1751 17.3847 17.4851 18.3087C17.1531 18.8487 16.7024 19.3058 16.1671 19.6452C15.4466 20.1952 16.3031 19.9732 16.4496 19.8722Z" fill="#FFE38A"/>
<path d="M15.7774 8.06952C15.7774 8.06952 17.3914 7.83602 17.7509 8.90202C18.1104 9.96802 17.8894 9.34852 17.3954 9.02202C16.9014 8.69552 14.7384 8.45002 15.7774 8.06952Z" fill="#FFD85E"/>
<path d="M18.3564 26.223C22.8649 26.223 26.5199 22.5681 26.5199 18.0595C26.5199 13.5509 22.8649 9.896 18.3564 9.896C13.8478 9.896 10.1929 13.5509 10.1929 18.0595C10.1929 22.5681 13.8478 26.223 18.3564 26.223Z" fill="#D96600"/>
<path d="M22.3608 26.0951C22.3608 26.0951 23.8063 23.4321 22.8198 21.1656C21.8333 18.8991 19.4153 19.1101 18.7588 20.2846C18.7588 20.2846 18.8728 20.5891 19.4293 20.6306C19.9858 20.6721 21.2293 20.9151 21.4703 21.9341C21.7113 22.9531 21.8153 24.0796 20.5753 26.7341C21.2073 26.6431 21.8145 26.4257 22.3608 26.0951Z" fill="#C98019"/>
<path d="M22.65 17.2662C22.65 17.2662 23.9445 13.6567 21.259 12.1662C20.4281 11.9398 19.6257 11.6194 18.8675 11.2112C18.193 10.7422 17.375 9.34667 15.558 9.87817C13.741 10.4097 13.34 11.4092 13.4125 11.8997C13.485 12.3902 14.5395 15.0112 13.829 15.8317C13.1185 16.6522 10.9615 16.8672 10.176 17.8817C9.39047 18.8962 11.648 22.2137 14.0805 20.5087C16.513 18.8037 18.456 20.2407 19.2565 20.4037C20.057 20.5667 22.0745 21.0142 22.336 18.4007C22.5975 15.7872 20.961 16.7507 20.9035 17.4387C20.846 18.1267 21.0035 19.3812 19.661 19.4572C18.3185 19.5332 17.365 18.1147 15.5215 18.6747C13.678 19.2347 13.3815 20.1247 12.5525 19.9337C11.7235 19.7427 10.7245 18.6567 11.475 18.1912C12.2255 17.7257 14.683 17.4722 15.2465 15.6152C15.81 13.7582 14.3025 12.2497 14.69 11.6072C15.0775 10.9647 16.4125 10.7227 17.403 11.5912C18.346 12.3728 19.4528 12.9321 20.6415 13.2277C21.6915 13.5187 22.1155 15.3397 21.5505 17.1417C20.9855 18.9437 22.135 18.9022 22.65 17.2662Z" fill="#EB9800"/>
<path d="M23.9437 18.15C24.4579 18.3887 25.0401 18.4373 25.5866 18.287C26.1332 18.1368 26.6088 17.7975 26.9287 17.3295C28.0737 15.6435 25.9847 11.6905 23.7722 12.6475C21.5597 13.6045 21.5132 13.0855 20.9457 12.558C20.3782 12.0305 20.1997 10.9145 19.4902 10.2C18.7807 9.48552 17.5567 9.03652 16.3777 10.5315C15.7881 11.2389 15.4735 12.1354 15.4919 13.0562C15.5103 13.977 15.8603 14.8602 16.4777 15.5435C17.7962 17.1405 18.7972 18.2825 16.6277 19.759C14.4582 21.2355 12.7942 22.1175 13.0077 23.48C13.2212 24.8425 13.7767 25.042 14.2457 24.3675C14.7147 23.693 13.9587 23.254 14.6182 22.545C15.2777 21.836 16.4182 21.5755 17.8422 19.989C19.2662 18.4025 18.6862 16.8065 17.4022 15.4005C17.1476 15.1529 16.9451 14.8568 16.8069 14.5297C16.6687 14.2025 16.5975 13.8509 16.5975 13.4958C16.5975 13.1406 16.6687 12.789 16.8069 12.4619C16.9451 12.1347 17.1476 11.8386 17.4022 11.591C18.2462 10.6835 19.0432 10.7365 19.9897 13.4155C19.9897 13.4155 21.0142 15.2155 22.7682 14.4655C24.5222 13.7155 25.6297 14.0055 25.9447 15.145C26.2597 16.2845 25.5497 17.45 23.7292 17.3305C21.9087 17.211 23.9437 18.15 23.9437 18.15Z" fill="#D68B00"/>
<path d="M18.4139 9.99245C18.4139 9.99245 20.5414 8.95645 22.2169 10.5674C23.8924 12.1784 22.3274 14.3729 20.7304 15.6914C19.1334 17.0099 17.3114 16.6374 16.8094 17.9164C16.3074 19.1954 17.6849 20.8994 17.8094 22.1284C17.9339 23.3574 16.7719 26.7704 12.6094 23.7964C8.44687 20.8224 11.0209 15.4964 11.7594 14.7009C12.4979 13.9054 13.4149 13.4899 13.9024 12.5674C14.3899 11.6449 14.9339 13.0509 14.5949 13.5294C14.0687 14.2219 13.4555 14.8437 12.7704 15.3794C11.9704 16.0109 11.4034 18.4984 11.7629 20.1024C12.1224 21.7064 13.4834 23.7124 15.4234 23.5604C17.3634 23.4084 16.0929 20.8499 15.6899 20.3164C15.2869 19.7829 14.9614 16.0949 18.0319 15.3534C21.1024 14.6119 21.6554 12.4814 21.1454 11.2664C20.6354 10.0514 18.3454 11.0939 18.0859 11.5414C17.8264 11.9889 16.8549 13.8884 18.9419 15.5119L17.9789 16.1499C17.9789 16.1499 15.8229 14.8849 16.0789 12.8999C16.3349 10.9149 18.4139 9.99245 18.4139 9.99245Z" fill="#EBBA1D"/>
<path d="M18.5706 21.3406C18.5706 21.3406 21.1161 23.5096 23.5011 20.6906C25.8861 17.8716 24.4736 14.0571 23.1011 14.1276C21.7286 14.1981 20.7011 15.4276 18.7851 14.7156C16.8691 14.0036 16.5176 11.6936 13.8521 11.3156C11.1866 10.9376 9.15856 15.7201 12.0871 17.6901C15.0156 19.6601 16.0561 17.1766 16.2546 16.4086C16.4531 15.6406 15.7291 15.5231 15.2546 16.0336C14.7801 16.5441 13.9646 18.4446 12.1461 16.4751C10.3276 14.5056 12.5031 11.5701 14.2461 12.5966C15.9891 13.6231 15.5131 14.0921 17.7381 15.3686C19.9631 16.6451 21.4251 15.5846 22.0976 15.4186C22.7701 15.2526 24.0026 15.8021 23.7291 17.3331C23.4556 18.8641 21.6996 22.6251 18.4496 20.2761C18.4496 20.2761 17.8966 20.3166 18.5706 21.3406Z" fill="#FFCA1F"/>
<path d="M27.1682 19.7753C26.38 19.4945 25.6904 18.9908 25.1832 18.3253C24.1107 17.0898 22.7072 15.7838 19.8747 17.0373C17.0422 18.2908 17.4472 21.5243 19.5927 22.8873C19.5927 22.8873 20.2982 23.0673 19.5267 22.1908C18.7552 21.3143 17.9992 19.7383 19.4767 18.5748C20.9542 17.4113 22.3512 17.3608 23.5822 18.4248C24.8132 19.4888 25.3927 20.7438 26.8432 21.0613C27.015 20.6512 27.1246 20.2177 27.1682 19.7753Z" fill="#FFD03B"/>
<path d="M22.7233 25.3216C22.7233 25.3216 26.4708 24.3641 26.3233 19.6621C26.3233 19.6621 26.0488 17.1851 23.3068 17.5306C20.5648 17.8761 19.5498 17.0911 18.6733 16.1571C17.7968 15.2231 16.0453 14.5461 14.3698 16.5181C12.6943 18.4901 14.3963 24.6366 18.6958 23.5971C22.9953 22.5576 18.8928 26.2006 18.2118 26.1226C17.5308 26.0446 17.2373 25.8906 16.2403 25.0426C15.2433 24.1946 13.0928 21.5596 10.6138 21.7926C10.6138 21.7926 10.3948 21.9856 11.0573 22.6811C11.7198 23.3766 12.4853 22.3811 14.8933 24.7416C17.3013 27.1021 18.1338 27.9541 20.8523 25.2451C23.5708 22.5361 20.9523 22.3226 20.3388 22.4271C19.7253 22.5316 17.4278 23.2106 16.1213 21.7576C14.8148 20.3046 14.6453 17.8851 15.7423 16.9611C16.8393 16.0371 17.5293 16.3611 18.4103 17.4196C19.2913 18.4781 21.7378 19.0466 23.3228 18.5371C24.9078 18.0276 26.1178 20.2241 24.5918 22.9311C23.0658 25.6381 19.2338 24.8931 18.4498 24.8001C17.7963 24.7211 15.4783 24.4166 14.4433 25.1126C14.3683 25.1661 14.3071 25.2367 14.2648 25.3185C14.2224 25.4004 14.2002 25.4911 14.1999 25.5833C14.1996 25.6754 14.2213 25.7663 14.2631 25.8484C14.3049 25.9306 14.3656 26.0016 14.4403 26.0556C14.6234 26.222 14.865 26.3092 15.1123 26.2981C15.5413 26.2041 15.1968 25.4981 20.2598 25.7021C20.8555 25.7254 21.4515 25.6646 22.0303 25.5216C22.2603 25.4631 22.4998 25.3966 22.7233 25.3216Z" fill="#FFD85E"/>
<path d="M18.4999 9.45655C18.4999 9.45655 20.7219 11.7881 18.0719 14.2956C15.4219 16.8031 12.2839 11.8741 13.5719 11.1696C14.8599 10.4651 14.4459 11.0831 14.4979 11.7666C14.5499 12.4501 15.0479 14.8166 17.4764 13.7966C19.5829 12.9126 18.5169 10.3096 17.8264 9.84255C17.7779 9.81292 17.7369 9.7725 17.7066 9.72443C17.6763 9.67635 17.6576 9.62194 17.6518 9.56541C17.6459 9.50889 17.6533 9.45179 17.6732 9.39857C17.693 9.34534 17.7249 9.29742 17.7664 9.25855C17.9069 9.14405 18.1324 9.13855 18.4999 9.45655Z" fill="#FFD85E"/>
<path d="M14.0826 17.715C14.0826 17.715 14.6466 15.701 16.2661 15.5805C17.8856 15.46 17.6106 15.799 17.3031 15.8305C16.9956 15.862 15.8601 15.718 15.2101 16.502C14.8154 16.8991 14.5165 17.381 14.3361 17.911C14.0131 18.6425 14.0261 17.861 14.0826 17.715Z" fill="#FFE38A"/>
<path d="M24.3541 15.8427C24.3541 15.8427 24.2201 14.4087 23.2301 14.3212C22.2401 14.2337 22.8181 14.2947 23.2011 14.6512C23.5841 15.0077 24.2456 16.8127 24.3541 15.8427Z" fill="#FFD85E"/>
<path d="M10.7 6.01863C10.7 6.01863 11.1775 6.96563 12.823 7.81863C14.4685 8.67163 16.2785 9.86863 15.6525 13.3186C15.0265 16.7686 11.3605 17.1836 9.29147 15.1841C9.29147 15.1841 8.90547 14.4556 10.0755 15.0721C11.2455 15.6886 13.181 16.1006 14.068 14.1636C14.955 12.2266 14.6395 10.6766 13.1395 9.60513C11.6395 8.53363 10.1055 8.22963 9.37047 6.71763C9.37147 6.71663 10.427 5.99513 10.7 6.01863Z" fill="#FFD03B"/>
<path d="M5.77881 12.3861C5.77881 12.3861 5.83631 8.00665 11.0503 6.92065C11.0503 6.92065 13.8503 6.56365 14.2003 9.67365C14.5503 12.7836 15.6833 13.6916 16.9453 14.4076C18.2073 15.1236 19.4173 16.8711 17.6923 19.2401C15.9673 21.6091 8.74981 21.3706 8.74981 16.3621C8.74981 11.3536 5.83231 16.8376 6.09981 17.5666C6.36731 18.2956 6.61431 18.5776 7.81281 19.4491C9.01131 20.3206 12.4838 21.9866 12.8863 24.7771C12.8863 24.7771 12.7318 25.0691 11.7903 24.5271C10.8488 23.9851 11.7403 22.8771 8.50181 20.8536C5.26331 18.8301 4.10181 18.1416 6.36231 14.4296C8.62281 10.7176 9.55231 13.5421 9.60031 14.2446C9.64831 14.9471 9.51231 17.6566 11.4593 18.7081C13.4063 19.7596 16.1128 19.2996 16.8373 17.8496C17.5618 16.3996 17.0213 15.7231 15.6228 15.0346C14.2243 14.3461 12.9498 11.8036 13.0868 9.92365C13.2238 8.04365 10.4868 7.29665 7.91331 9.69615C5.33981 12.0956 7.17881 16.1122 7.49231 16.9496C7.75331 17.6496 8.70481 20.1176 8.21381 21.4421C8.17481 21.5389 8.11336 21.625 8.03452 21.6933C7.95568 21.7616 7.86173 21.8101 7.76041 21.8349C7.6591 21.8598 7.55334 21.8601 7.45186 21.836C7.35038 21.8119 7.2561 21.7639 7.17681 21.6961C6.9451 21.5387 6.78497 21.2961 6.73131 21.0211C6.72081 20.5241 7.58831 20.7156 6.01781 15.1976C5.83409 14.5482 5.74253 13.8761 5.74581 13.2011C5.74681 12.9331 5.75531 12.6496 5.77881 12.3861Z" fill="#FFE38C"/>
<path d="M13.2778 7.62695C13.2778 7.62695 14.1153 8.08395 14.2868 10.331C14.3528 11.1893 14.6378 12.0164 15.1145 12.7332C15.5912 13.4501 16.2438 14.0327 17.0098 14.4255C17.3711 14.6144 17.6888 14.877 17.9423 15.1963C18.1959 15.5156 18.3797 15.8844 18.482 16.2791C18.5843 16.6738 18.6027 17.0855 18.5361 17.4878C18.4695 17.89 18.3194 18.2738 18.0953 18.6145C18.0953 18.6145 19.3713 15.9105 16.8573 14.5585C14.3433 13.2065 14.1538 11.3585 14.0393 10.293C13.9248 9.22745 13.9058 8.48395 13.2778 7.62695Z" fill="#FFF4D1"/>
<path d="M22.7355 9.74697C22.4462 9.31108 22.0161 8.98761 21.5171 8.83055C21.0181 8.67349 20.4803 8.69234 19.9935 8.88397C19.9935 8.88397 19.435 9.21397 20.171 9.16347C20.5948 9.08551 21.0309 9.10694 21.445 9.22606C21.8591 9.34518 22.2399 9.55875 22.5575 9.84997C23.3195 10.6105 22.837 9.87397 22.7355 9.74697Z" fill="#FFD03B"/>
<path d="M17.5813 17.7703C17.5813 17.7703 18.1903 16.8563 17.7313 16.0943C17.2723 15.3323 17.4868 15.2003 17.7363 15.3683C17.9718 15.5889 18.1534 15.8607 18.2671 16.1626C18.3808 16.4646 18.4234 16.7887 18.3918 17.1098C18.3543 18.0598 17.7568 19.3953 16.7418 19.7253C15.7268 20.0553 16.3623 19.1158 17.5813 17.7703Z" fill="#FFF0C2"/>
<path d="M7.09509 13.4537C7.09509 13.4537 8.00909 12.4127 8.61859 12.6922C8.85087 12.8423 9.04515 13.0442 9.18614 13.2821C9.32713 13.52 9.41098 13.7874 9.43109 14.0632C9.45609 14.3172 9.53109 15.4597 9.58109 15.7387C9.63109 16.0177 9.27659 15.9422 9.25109 15.4342C9.22559 14.9262 9.25109 13.1492 8.54009 13.0222C8.28339 12.9795 8.01982 13.0119 7.78111 13.1155C7.5424 13.2191 7.33872 13.3895 7.19459 13.6062C7.01909 13.8602 6.99359 13.6062 7.09509 13.4537Z" fill="#FFF0C2"/>
<path opacity="0.51" d="M27.1558 15.0625C28.4673 20.897 22.5933 28.5625 16.3278 26.7815C10.5778 25.146 4.90576 22.7925 4.90576 16.8125C4.90576 10.8325 10.0498 4.75 16.0308 4.75C22.0118 4.75 26.2183 10.8905 27.1558 15.0625Z" fill="#FFF276"/>
<path d="M21.7807 6.90643C21.7807 6.90643 21.0932 6.24993 20.6872 6.96893C20.2812 7.68793 21.0622 7.78143 21.4372 7.84393C21.4372 7.84393 20.9997 8.28143 21.5932 8.46893C22.1867 8.65643 23.0622 8.40643 24.0622 9.49993C25.0622 10.5934 26.5932 13.6564 25.9372 15.3749C25.2812 17.0934 26.9997 18.5624 26.6872 19.6564C26.3747 20.7504 25.9682 22.3749 25.1872 22.9999C24.4062 23.6249 23.5307 24.5624 24.4372 24.4374C24.4372 24.4374 27.0622 22.0314 27.3432 17.2499C27.5723 15.7658 27.3319 14.2472 26.6557 12.9064C25.9467 11.6558 25.1532 10.455 24.2807 9.31243C24.0622 8.93743 23.8122 7.93743 21.7807 6.90643Z" fill="#FFF2FF"/>
<path d="M10.2183 24.5313C10.2183 24.5313 9.46827 23.8748 10.3123 23.5313C11.1563 23.1878 11.7498 24.2813 11.7498 24.6248C11.7498 24.9683 12.4373 25.4688 13.7183 25.7813C14.9993 26.0938 15.0933 25.6248 15.7498 25.8123C16.4063 25.9998 17.4373 26.8748 18.4683 26.6873C19.4993 26.4998 19.7808 26.8438 19.0308 26.9688C18.2808 27.0938 13.7498 26.6248 10.2183 24.5313Z" fill="#FFF2FF"/>
<path d="M18.8905 9.37475C19.2442 9.37475 19.531 9.11597 19.531 8.79675C19.531 8.47753 19.2442 8.21875 18.8905 8.21875C18.5368 8.21875 18.25 8.47753 18.25 8.79675C18.25 9.11597 18.5368 9.37475 18.8905 9.37475Z" fill="#FFF2FF"/>
<path d="M13.9033 13.0997C13.9211 13.665 13.8223 14.228 13.6132 14.7535C13.4041 15.2791 13.0891 15.756 12.6878 16.1546C12.2865 16.5533 11.8075 16.8651 11.2806 17.0706C10.7536 17.2762 10.19 17.3712 9.6248 17.3497C8.42193 17.3411 7.27008 16.8625 6.41525 16.0162C5.56043 15.1699 5.07039 14.0229 5.0498 12.8202C5.0498 10.3482 7.1658 8.55566 9.6378 8.55566C12.1098 8.55566 13.9033 10.6297 13.9033 13.0997Z" fill="#965030"/>
<path d="M9.62476 16.8457C11.8168 16.8457 13.5938 15.0687 13.5938 12.8767C13.5938 10.6847 11.8168 8.90771 9.62476 8.90771C7.43274 8.90771 5.65576 10.6847 5.65576 12.8767C5.65576 15.0687 7.43274 16.8457 9.62476 16.8457Z" fill="#FFB95C"/>
<path d="M9.62473 16.5922C11.6088 16.5922 13.2172 14.9838 13.2172 12.9997C13.2172 11.0156 11.6088 9.40723 9.62473 9.40723C7.64064 9.40723 6.03223 11.0156 6.03223 12.9997C6.03223 14.9838 7.64064 16.5922 9.62473 16.5922Z" fill="#FFE9CC"/>
<path d="M9.62491 16.3865C11.3947 16.3865 12.8294 14.9518 12.8294 13.182C12.8294 11.4122 11.3947 9.97754 9.62491 9.97754C7.85511 9.97754 6.42041 11.4122 6.42041 13.182C6.42041 14.9518 7.85511 16.3865 9.62491 16.3865Z" fill="url(#paint0_linear_2147_2942)"/>
<path opacity="0.47" d="M6.28906 14.9999C6.28906 14.9999 8.10456 11.0099 10.8701 9.21536C10.8701 9.21536 11.3556 9.06536 11.7356 9.67986C12.1156 10.2944 7.19656 13.5224 8.56906 14.0079C9.94156 14.4934 12.6436 10.8409 13.5091 12.3189C13.5091 12.3189 13.7836 12.9734 12.6436 13.9234C11.5036 14.8734 10.2996 16.4799 10.2366 16.8174C9.92859 16.855 9.61819 16.8692 9.30806 16.8599C10.1834 15.5859 11.2114 14.424 12.3691 13.3999C13.2556 12.7879 12.7071 12.3864 11.5691 13.3154C10.4311 14.2444 7.98006 15.4269 7.87406 14.0544C7.76806 12.6819 9.90106 10.8454 10.3656 10.5289C10.8301 10.2124 10.5556 10.0219 10.1121 10.4234C8.56128 11.796 7.35993 13.5184 6.60756 15.4479C6.48373 15.3119 6.37679 15.1615 6.28906 14.9999Z" fill="#FF9100"/>
<path d="M6.28911 14.9998C6.97743 13.6009 7.82776 12.2877 8.82261 11.0873C10.1456 9.65181 10.8351 9.13081 11.1871 9.24331C11.0963 9.1948 11.0022 9.15253 10.9056 9.11681C10.7506 9.06031 9.72311 9.67981 8.44261 11.1718C7.54146 12.2977 6.77602 13.5259 6.16211 14.8308L6.28911 14.9998Z" fill="#FFE9CC"/>
<path d="M5.20525 13.9886C4.93571 13.0109 5.02786 11.9689 5.46478 11.0537C5.9017 10.1385 6.65406 9.41168 7.58375 9.00657C8.51022 8.51983 9.58351 8.39138 10.5987 8.64574C11.6138 8.90011 12.4998 9.51947 13.0872 10.3856C13.0872 10.3856 10.7647 7.44407 7.58375 9.09107C6.6983 9.5257 5.98339 10.2436 5.55249 11.1309C5.12158 12.0182 4.99937 13.0239 5.20525 13.9886Z" fill="#70270F"/>
<path d="M10.9839 5.3061C11.4636 5.00629 11.9998 4.80837 12.5592 4.72463C13.1187 4.6409 13.6893 4.67315 14.2358 4.81937C14.7822 4.96559 15.2927 5.22266 15.7355 5.57459C16.1784 5.92653 16.5441 6.3658 16.8099 6.8651C17.4082 7.90942 17.5742 9.1463 17.2725 10.3114C16.9708 11.4765 16.2253 12.4774 15.1954 13.1001C13.0589 14.3436 10.4454 13.4166 9.20143 11.2806C7.95743 9.1446 8.84993 6.5501 10.9839 5.3061Z" fill="#965030"/>
<path d="M12.9421 13.0859C15.1342 13.0859 16.9111 11.309 16.9111 9.11695C16.9111 6.92493 15.1342 5.14795 12.9421 5.14795C10.7501 5.14795 8.97314 6.92493 8.97314 9.11695C8.97314 11.309 10.7501 13.0859 12.9421 13.0859Z" fill="#FFB95C"/>
<path d="M13.0486 12.6474C15.0326 12.6474 16.6411 11.039 16.6411 9.0549C16.6411 7.07082 15.0326 5.4624 13.0486 5.4624C11.0645 5.4624 9.45605 7.07082 9.45605 9.0549C9.45605 11.039 11.0645 12.6474 13.0486 12.6474Z" fill="#FFE9CC"/>
<path d="M13.206 12.1678C14.9758 12.1678 16.4105 10.7331 16.4105 8.96329C16.4105 7.19349 14.9758 5.75879 13.206 5.75879C11.4362 5.75879 10.0015 7.19349 10.0015 8.96329C10.0015 10.7331 11.4362 12.1678 13.206 12.1678Z" fill="url(#paint1_linear_2147_2942)"/>
<path opacity="0.47" d="M16.4571 10.9303C16.4571 10.9303 12.0951 11.3688 9.15309 9.88029C9.03803 9.74419 8.97208 9.57337 8.96582 9.39526C8.95957 9.21716 9.01337 9.04213 9.11859 8.89829C9.45659 8.26179 14.7231 10.8878 14.4521 9.45729C14.1811 8.02679 9.66559 7.52979 10.5071 6.03779C10.5071 6.03779 10.9346 5.47129 12.3291 5.97879C13.7236 6.48629 15.7156 6.71879 16.0396 6.60329C16.2271 6.85068 16.3956 7.11193 16.5436 7.38479C15.0015 7.27001 13.4793 6.96658 12.0111 6.48129C11.0361 6.02329 10.9656 6.69929 12.3416 7.21729C13.7176 7.73529 15.9721 9.25679 14.8391 10.0383C13.7061 10.8198 11.0461 9.90129 10.5391 9.65929C10.0321 9.41729 10.0056 9.75029 10.5751 9.93129C12.5416 10.5809 14.6346 10.7523 16.6806 10.4313C16.6266 10.6061 16.5516 10.7736 16.4571 10.9303Z" fill="#FF9100"/>
<path d="M16.4571 10.9303C14.9018 11.0391 13.3391 10.965 11.8011 10.7093C9.89457 10.2883 9.09757 9.95425 9.01807 9.59375C9.0213 9.69672 9.03199 9.79932 9.05007 9.90075C9.07907 10.0628 10.1316 10.6392 12.0651 10.9952C13.4915 11.2075 14.938 11.2509 16.3746 11.1248L16.4571 10.9303Z" fill="#FFE9CC"/>
<path d="M16.1267 12.3765C15.4175 13.1006 14.4709 13.5448 13.4606 13.6275C12.4504 13.7101 11.4442 13.4257 10.6267 12.8265C9.73969 12.2709 9.08851 11.408 8.7976 10.4026C8.50668 9.39718 8.59643 8.31986 9.04969 7.37646C9.04969 7.37646 7.67619 10.8635 10.6997 12.7835C11.5204 13.3297 12.5 13.5862 13.4831 13.5125C14.4662 13.4388 15.3966 13.039 16.1267 12.3765Z" fill="#70270F"/>
<path d="M20.9215 11.6846C20.5592 12.1191 20.1115 12.4744 19.6061 12.7284C19.1007 12.9825 18.5484 13.1298 17.9836 13.1613C17.4188 13.1927 16.8536 13.1077 16.3231 12.9113C15.7926 12.715 15.3082 12.4117 14.9 12.0201C14.0064 11.2144 13.4633 10.0912 13.3868 8.89049C13.3103 7.68975 13.7064 6.5067 14.4905 5.59411C16.1325 3.74661 18.905 3.81211 20.753 5.45361C22.601 7.09511 22.5635 9.83661 20.9215 11.6846Z" fill="#965030"/>
<path d="M17.8723 12.6436C20.0643 12.6436 21.8413 10.8666 21.8413 8.67457C21.8413 6.48255 20.0643 4.70557 17.8723 4.70557C15.6803 4.70557 13.9033 6.48255 13.9033 8.67457C13.9033 10.8666 15.6803 12.6436 17.8723 12.6436Z" fill="#FFB95C"/>
<path d="M17.7907 12.3588C19.7748 12.3588 21.3832 10.7504 21.3832 8.76633C21.3832 6.78225 19.7748 5.17383 17.7907 5.17383C15.8067 5.17383 14.1982 6.78225 14.1982 8.76633C14.1982 10.7504 15.8067 12.3588 17.7907 12.3588Z" fill="#FFE9CC"/>
<path d="M17.6698 12.1068C19.4396 12.1068 20.8743 10.6721 20.8743 8.90225C20.8743 7.13246 19.4396 5.69775 17.6698 5.69775C15.9 5.69775 14.4653 7.13246 14.4653 8.90225C14.4653 10.6721 15.9 12.1068 17.6698 12.1068Z" fill="url(#paint2_linear_2147_2942)"/>
<path opacity="0.47" d="M13.9674 8.04989C13.9674 8.04989 17.9749 6.27289 21.2344 6.76839C21.3861 6.86176 21.502 7.00347 21.5634 7.17072C21.6248 7.33797 21.6282 7.52102 21.5729 7.69039C21.4504 8.40089 15.6274 7.54839 16.3309 8.82289C17.0344 10.0974 21.4809 9.16139 21.1459 10.8414C21.1459 10.8414 20.9164 11.5129 19.4329 11.4659C17.9494 11.4189 15.9829 11.8189 15.7129 12.0294C15.4575 11.8529 15.2159 11.6572 14.9904 11.4439C16.4914 11.0724 18.0322 10.8861 19.5784 10.8889C20.6479 11.0204 20.5039 10.3559 19.0349 10.2929C17.5659 10.2299 14.9494 9.48739 15.7819 8.39289C16.6144 7.29839 19.4284 7.34289 19.9859 7.41189C20.5434 7.48089 20.4644 7.15939 19.8669 7.16489C17.7958 7.161 15.7535 7.65069 13.9094 8.59339C13.9069 8.41055 13.9263 8.22808 13.9674 8.04989Z" fill="#FF9100"/>
<path d="M13.9673 8.05002C15.411 7.46153 16.9188 7.04468 18.4598 6.80802C20.4023 6.61352 21.2638 6.68202 21.4523 7.00002C21.4169 6.90329 21.3746 6.80922 21.3258 6.71852C21.2473 6.57352 20.0683 6.35402 18.1198 6.61852C16.6982 6.86155 15.3102 7.27155 13.9848 7.84002L13.9673 8.05002Z" fill="#FFE9CC"/>
<path d="M13.8301 6.57023C14.2778 5.66023 15.0387 4.94228 15.9732 4.54825C16.9077 4.15421 17.953 4.11053 18.9171 4.42523C19.9334 4.67606 20.8216 5.29265 21.412 6.15712C22.0023 7.0216 22.2533 8.07332 22.1171 9.11123C22.1171 9.11123 22.3346 5.36973 18.8631 4.48823C17.9121 4.22459 16.9003 4.28628 15.9885 4.6635C15.0766 5.04072 14.3169 5.71183 13.8301 6.57023Z" fill="#70270F"/>
<path d="M26.6998 16.8737C26.3078 17.7364 25.5932 18.4109 24.7094 18.7527C23.8256 19.0944 22.8431 19.076 21.9727 18.7015C21.1023 18.3269 20.4134 17.6261 20.0539 16.7494C19.6944 15.8727 19.6929 14.89 20.0498 14.0122C21.2523 11.2872 23.3998 10.1527 25.2368 10.9432C27.0738 11.7337 27.7598 14.4077 26.6998 16.8737Z" fill="#FFF0DB"/>
<path d="M23.2262 18.6018C24.7823 18.6018 26.0437 17.3404 26.0437 15.7843C26.0437 14.2282 24.7823 12.9668 23.2262 12.9668C21.6701 12.9668 20.4087 14.2282 20.4087 15.7843C20.4087 17.3404 21.6701 18.6018 23.2262 18.6018Z" fill="#FFBC00"/>
<path d="M20.7162 12.7869C21.4864 12.2101 22.3719 11.8059 23.3124 11.6019C24.2528 11.398 25.2262 11.399 26.1662 11.6049L26.4382 11.9019C26.4382 11.9019 23.8142 11.2724 20.3882 13.3359L20.7162 12.7869Z" fill="#FFF8F0"/>
<path opacity="0.24" d="M23.2029 17.7813C24.3249 17.7813 25.2344 16.8717 25.2344 15.7498C25.2344 14.6278 24.3249 13.7183 23.2029 13.7183C22.0809 13.7183 21.1714 14.6278 21.1714 15.7498C21.1714 16.8717 22.0809 17.7813 23.2029 17.7813Z" fill="#FFF276"/>
<path d="M23.2545 24.4223C22.3625 24.7777 21.3658 24.7642 20.4837 24.3847C19.6016 24.0052 18.9064 23.2909 18.551 22.3988C18.1957 21.5068 18.2092 20.5101 18.5887 19.628C18.9681 18.7459 19.6825 18.0507 20.5745 17.6953C23.351 16.6188 25.6745 17.3353 26.412 19.1953C27.1495 21.0553 25.7495 23.4288 23.2545 24.4223Z" fill="#FFF8ED"/>
<path d="M21.5695 24.0144C23.1255 24.0144 24.387 22.753 24.387 21.1969C24.387 19.6408 23.1255 18.3794 21.5695 18.3794C20.0134 18.3794 18.752 19.6408 18.752 21.1969C18.752 22.753 20.0134 24.0144 21.5695 24.0144Z" fill="#FFBC00"/>
<path d="M21.9149 17.2998C22.8677 17.4366 23.7799 17.777 24.5893 18.298C25.3987 18.8189 26.0863 19.5082 26.6054 20.3188L26.5874 20.7188C26.5874 20.7188 25.1769 18.4188 21.2959 17.4548L21.9149 17.2998Z" fill="white"/>
<path d="M18.8338 26.5078C18.8338 26.5078 14.8448 22.7338 15.7933 18.9638C16.7418 15.1938 18.0358 18.9163 17.2153 19.4773C16.3948 20.0383 16.7028 21.5578 17.1653 22.4773C17.6278 23.3968 18.4888 24.5728 19.1223 24.6398C19.7558 24.7068 21.1818 27.4623 18.8338 26.5078Z" fill="#351207"/>
<path d="M20.2284 25.7958C20.2284 25.7958 16.3194 23.3998 16.4449 20.1568C16.5704 16.9138 18.2684 19.7318 17.6949 20.3313C17.1214 20.9308 17.6349 22.1193 18.1704 22.7913C18.7059 23.4633 19.6124 24.2748 20.1414 24.2203C20.6704 24.1658 22.3109 26.1713 20.2284 25.7958Z" fill="#4A190A"/>
<path d="M17.7267 26.3829C17.7267 26.3829 14.6937 23.8829 15.8712 21.7859C17.0487 19.6889 17.7877 21.9404 17.0337 22.1974C16.2797 22.4544 16.3932 23.3554 16.6967 23.9234C17.0002 24.4914 17.6207 25.2394 18.1542 25.3294C18.6877 25.4194 19.6352 27.1239 17.7267 26.3829Z" fill="#6B240E"/>
<path d="M20.2726 26.2237C20.2726 26.2237 17.0091 22.9622 17.8931 19.8182C18.7771 16.6742 19.7771 19.8297 19.0751 20.2817C18.3731 20.7337 18.5966 22.0172 18.9631 22.8007C19.3296 23.5842 20.0261 24.5907 20.5571 24.6617C21.0881 24.7327 22.2221 27.0792 20.2726 26.2237Z" fill="#6B240E"/>
<path d="M10.7497 15.6684C10.7497 15.6684 11.0997 15.0714 10.1637 15.2584C9.22773 15.4454 9.57973 15.8119 9.57973 15.8119C9.57973 15.8119 9.79973 14.9499 9.22623 15.4454C8.86778 15.8112 8.66785 16.3034 8.66973 16.8154C8.66973 16.8154 8.38323 15.7704 7.62873 16.5929C7.52342 16.6802 7.43819 16.7891 7.37885 16.9123C7.31951 17.0355 7.28746 17.17 7.2849 17.3067C7.28233 17.4435 7.30931 17.5791 7.36399 17.7044C7.41867 17.8298 7.49977 17.9418 7.60173 18.0329C7.60173 18.0329 7.37723 18.5929 7.13373 18.6079C6.89023 18.6229 7.13123 19.2699 7.13123 19.2699L7.02523 19.8499C7.02523 19.8499 7.13073 20.5474 7.66273 20.6309C8.19473 20.7144 6.72473 20.8174 6.77623 21.1884C6.82773 21.5594 7.64223 21.7104 7.64223 21.7104C7.64223 21.7104 6.87923 21.9299 7.61823 22.4884C7.8631 22.6533 8.13921 22.7662 8.42947 22.8202C8.71973 22.8741 9.01796 22.8679 9.30573 22.8019L8.92823 23.2134C8.92823 23.2134 9.53973 23.8089 9.74673 23.6664C9.95373 23.5239 10.0787 24.1494 10.4167 24.2729C10.7547 24.3964 11.1667 23.8099 11.1667 23.8099C11.1667 23.8099 11.9312 24.5539 12.4077 24.5819C12.8842 24.6099 12.9737 23.9214 12.9737 23.9214C12.9737 23.9214 13.2357 24.0134 13.6602 23.6714C14.0847 23.3294 14.6137 23.9214 14.7572 22.8889C14.9007 21.8564 14.2107 22.3289 14.2107 22.3289C14.2107 22.3289 15.1567 22.5189 15.1137 22.0524C15.0707 21.5859 14.2437 21.2899 14.2437 21.2899C14.2437 21.2899 15.3307 21.3499 14.9997 20.5654C14.9332 20.3563 14.8106 20.1694 14.6452 20.025C14.4798 19.8807 14.278 19.7845 14.0617 19.7469C14.0617 19.7469 14.1427 19.4269 14.1937 19.1664C14.2447 18.9059 13.4872 18.6234 13.4872 18.6234C13.4872 18.6234 13.6657 18.8879 13.3307 18.2089C13.0808 17.7762 12.6726 17.4575 12.1922 17.3199C12.1922 17.3199 12.6492 16.8029 12.3652 16.3894C12.0812 15.9759 11.1907 16.2309 11.1907 16.2309C11.1907 16.2309 12.2782 15.2294 10.7497 15.6684Z" fill="#009C08"/>
<path d="M9.85312 16.121C9.8636 16.1605 9.86619 16.2016 9.86075 16.242C9.85531 16.2824 9.84194 16.3214 9.8214 16.3567C9.80087 16.3919 9.77358 16.4228 9.7411 16.4475C9.70862 16.4722 9.67158 16.4902 9.63212 16.5005C9.59265 16.5109 9.55153 16.5135 9.51109 16.508C9.47065 16.5025 9.43169 16.489 9.39645 16.4685C9.3612 16.4479 9.33036 16.4206 9.30568 16.3881C9.281 16.3556 9.26297 16.3185 9.25262 16.279L9.01562 15.379C9.00522 15.3396 9.0027 15.2985 9.00821 15.2581C9.01372 15.2177 9.02715 15.1788 9.04773 15.1436C9.0683 15.1084 9.09562 15.0776 9.12812 15.0529C9.16062 15.0283 9.19766 15.0103 9.23712 15C9.27655 14.9896 9.31764 14.9871 9.35805 14.9926C9.39846 14.998 9.4374 15.0114 9.47264 15.0319C9.50788 15.0524 9.53874 15.0797 9.56344 15.1122C9.58814 15.1446 9.60621 15.1816 9.61662 15.221L9.85312 16.121Z" fill="#00C40A"/>
<path d="M10.5963 16.324C10.5498 16.402 10.3928 16.394 10.2463 16.306C10.0993 16.218 10.0173 16.0835 10.0638 16.006L10.3168 15.582C10.3633 15.504 10.5208 15.512 10.6668 15.6C10.8168 15.688 10.8958 15.8225 10.8493 15.9L10.5963 16.324Z" fill="#00C40A"/>
<path d="M9.68972 16.2298C9.74941 16.2685 9.79201 16.3287 9.80874 16.3979C9.82548 16.467 9.81509 16.54 9.77972 16.6018C9.71472 16.7608 9.56972 16.8518 9.45522 16.8048L8.83372 16.5498C8.77383 16.5112 8.73108 16.451 8.71433 16.3818C8.69757 16.3125 8.7081 16.2395 8.74372 16.1778C8.80822 16.0188 8.95372 15.9278 9.06822 15.9748L9.68972 16.2298Z" fill="#1CFF28"/>
<path d="M7.56689 19.492C7.6401 19.5298 7.69533 19.595 7.72045 19.6735C7.74558 19.752 7.73854 19.8372 7.70089 19.9105C7.68228 19.9468 7.6567 19.979 7.6256 20.0054C7.59451 20.0318 7.55852 20.0517 7.51969 20.0642C7.48086 20.0766 7.43996 20.0813 7.39932 20.0779C7.35869 20.0745 7.31912 20.0632 7.28289 20.0445L6.45439 19.619C6.38112 19.5814 6.32579 19.5162 6.30057 19.4378C6.27535 19.3594 6.2823 19.2742 6.31989 19.201C6.35748 19.1277 6.42264 19.0724 6.50103 19.0472C6.57942 19.0219 6.66462 19.0289 6.73789 19.0665L7.56689 19.492Z" fill="#00C40A"/>
<path d="M8.2138 19.0748C8.2408 19.1618 8.12981 19.2748 7.96381 19.3248C7.80031 19.3748 7.64581 19.3468 7.61881 19.2598L7.47231 18.7888C7.44531 18.7018 7.55631 18.5888 7.7223 18.5388C7.88631 18.4888 8.0408 18.5173 8.0678 18.6038L8.2138 19.0748Z" fill="#00C40A"/>
<path d="M7.5383 19.6871C7.6498 19.6331 7.8003 19.7146 7.8753 19.8686C7.9148 19.9279 7.92998 20.0001 7.9177 20.0703C7.90541 20.1405 7.8666 20.2032 7.8093 20.2456L7.2053 20.5386C7.0943 20.5926 6.9433 20.5116 6.8688 20.3571C6.82937 20.2978 6.81418 20.2257 6.82637 20.1555C6.83856 20.0854 6.87719 20.0226 6.9343 19.9801L7.5383 19.6871Z" fill="#1CFF28"/>
<path d="M9.61291 20.8553C9.62332 20.8948 9.62584 20.9359 9.62034 20.9763C9.61483 21.0168 9.60141 21.0557 9.58084 21.091C9.56026 21.1262 9.53295 21.1571 9.50044 21.1817C9.46794 21.2064 9.43089 21.2245 9.39142 21.2348C9.31172 21.2557 9.227 21.2441 9.15585 21.2025C9.0847 21.161 9.03294 21.093 9.01191 21.0133L8.77542 20.1133C8.76501 20.0739 8.76247 20.0328 8.76795 19.9925C8.77343 19.9521 8.78681 19.9132 8.80734 19.878C8.82787 19.8428 8.85513 19.812 8.88757 19.7873C8.92002 19.7627 8.957 19.7446 8.99641 19.7343C9.07604 19.7134 9.1607 19.7249 9.23184 19.7664C9.30298 19.8078 9.35479 19.8757 9.37592 19.9553L9.61291 20.8553Z" fill="#00C40A"/>
<path d="M10.3551 21.0584C10.3086 21.1364 10.1516 21.1284 10.0051 21.0404C9.85813 20.9524 9.77663 20.8179 9.82313 20.7404L10.0761 20.3169C10.1226 20.2389 10.2796 20.2469 10.4261 20.3344C10.5736 20.4224 10.6551 20.5569 10.6086 20.6344L10.3551 21.0584Z" fill="#00C40A"/>
<path d="M9.4498 20.9651C9.50969 21.0037 9.55244 21.0638 9.56919 21.1331C9.58595 21.2023 9.57542 21.2754 9.5398 21.3371C9.4748 21.4956 9.3298 21.5871 9.2153 21.5401L8.5938 21.2861C8.53401 21.2474 8.49134 21.1872 8.47459 21.118C8.45785 21.0488 8.4683 20.9758 8.5038 20.9141C8.5688 20.7556 8.7138 20.6641 8.8283 20.7111L9.4498 20.9651Z" fill="#1CFF28"/>
<path d="M9.23144 17.7294C9.25233 17.809 9.24079 17.8937 9.19937 17.9648C9.15794 18.036 9.09 18.0878 9.01044 18.1089C8.97097 18.1193 8.92985 18.1218 8.88941 18.1163C8.84897 18.1108 8.81002 18.0974 8.77477 18.0768C8.73952 18.0563 8.70868 18.0289 8.684 17.9964C8.65932 17.9639 8.64129 17.9269 8.63094 17.8874L8.39394 16.9874C8.37306 16.9077 8.38467 16.823 8.42619 16.7518C8.46772 16.6807 8.53578 16.6289 8.61544 16.6079C8.65487 16.5975 8.69596 16.595 8.73637 16.6005C8.77677 16.606 8.81569 16.6194 8.8509 16.64C8.8861 16.6606 8.9169 16.6879 8.94153 16.7204C8.96617 16.7529 8.98414 16.7899 8.99444 16.8294L9.23144 17.7294Z" fill="#00C40A"/>
<path d="M9.97428 17.9324C9.92778 18.0104 9.77028 18.0023 9.62428 17.9143C9.47678 17.8263 9.39528 17.6919 9.44178 17.6144L9.69478 17.1904C9.74128 17.1124 9.89828 17.1203 10.0448 17.2083C10.1948 17.2963 10.2738 17.4308 10.2273 17.5083L9.97428 17.9324Z" fill="#00C40A"/>
<path d="M9.06761 17.8381C9.12731 17.8769 9.1699 17.9371 9.18664 18.0062C9.20338 18.0754 9.19299 18.1484 9.15761 18.2101C9.09261 18.3691 8.94711 18.4601 8.83311 18.4131L8.21111 18.1596C8.1514 18.1209 8.10884 18.0607 8.09219 17.9915C8.07553 17.9223 8.08607 17.8493 8.12161 17.7876C8.18611 17.6286 8.33161 17.5376 8.44611 17.5846L9.06761 17.8381Z" fill="#1CFF28"/>
<path d="M13.1956 18.1874C13.1442 18.2518 13.0695 18.2933 12.9876 18.3027C12.9058 18.312 12.8236 18.2886 12.7591 18.2374C12.7271 18.2121 12.7005 18.1807 12.6807 18.1451C12.6609 18.1094 12.6483 18.0703 12.6436 18.0298C12.639 17.9893 12.6424 17.9483 12.6536 17.9091C12.6648 17.8699 12.6837 17.8333 12.7091 17.8014L13.2851 17.0694C13.3363 17.005 13.411 16.9635 13.4927 16.9542C13.5745 16.9448 13.6566 16.9683 13.7211 17.0194C13.7855 17.0706 13.8269 17.1453 13.8363 17.227C13.8456 17.3088 13.8222 17.3909 13.7711 17.4554L13.1956 18.1874Z" fill="#00C40A"/>
<path d="M13.4813 18.9C13.3908 18.91 13.3028 18.78 13.2843 18.6095C13.2653 18.439 13.3238 18.2925 13.4138 18.283L13.9048 18.2295C13.9948 18.2195 14.0833 18.3495 14.1018 18.52C14.1203 18.6905 14.0623 18.837 13.9723 18.8465L13.4813 18.9Z" fill="#00C40A"/>
<path d="M13.0099 18.1223C13.0419 18.2418 12.9329 18.3723 12.7674 18.4183C12.7016 18.4456 12.6278 18.4466 12.5613 18.4211C12.4948 18.3956 12.4406 18.3456 12.4099 18.2813L12.2374 17.6313C12.2059 17.5123 12.3144 17.3813 12.4804 17.3358C12.5461 17.3084 12.6198 17.3073 12.6863 17.3327C12.7529 17.3581 12.8071 17.4081 12.8379 17.4723L13.0099 18.1223Z" fill="#1CFF28"/>
<path d="M12.1145 20.9143C12.0923 20.9486 12.0636 20.9781 12.0301 21.0013C11.9965 21.0245 11.9587 21.0408 11.9188 21.0493C11.8789 21.0579 11.8377 21.0585 11.7976 21.0511C11.7575 21.0437 11.7192 21.0285 11.685 21.0063C11.6508 20.9842 11.6213 20.9554 11.5982 20.9218C11.575 20.8882 11.5588 20.8504 11.5503 20.8105C11.5418 20.7707 11.5412 20.7295 11.5486 20.6894C11.556 20.6493 11.5713 20.6111 11.5935 20.5768L12.1 19.7948C12.1222 19.7606 12.1509 19.7311 12.1845 19.708C12.2181 19.6849 12.2559 19.6686 12.2958 19.6601C12.3357 19.6516 12.3768 19.6511 12.4169 19.6585C12.457 19.6659 12.4953 19.6811 12.5295 19.7033C12.5637 19.7255 12.5933 19.7541 12.6164 19.7876C12.6396 19.8212 12.6559 19.8589 12.6644 19.8988C12.673 19.9386 12.6736 19.9798 12.6662 20.0198C12.6588 20.0599 12.6436 20.0981 12.6215 20.1323L12.1145 20.9143Z" fill="#00C40A"/>
<path d="M12.4647 21.5999C12.3757 21.6179 12.2757 21.4964 12.2417 21.3284C12.2072 21.1604 12.2517 21.0094 12.3417 20.9909L12.8257 20.8909C12.9147 20.8729 13.0147 20.9944 13.0487 21.1624C13.0832 21.3304 13.0387 21.4814 12.9487 21.4994L12.4647 21.5999Z" fill="#00C40A"/>
<path d="M11.9232 20.8668C11.9662 20.9828 11.8702 21.1248 11.7092 21.1843C11.6461 21.2174 11.5727 21.2252 11.5041 21.2059C11.4355 21.1867 11.3768 21.1419 11.3402 21.0808L11.1092 20.4508C11.0667 20.3348 11.1627 20.1928 11.3237 20.1338C11.3866 20.1005 11.4599 20.0927 11.5285 20.1118C11.597 20.131 11.6556 20.1757 11.6922 20.2368L11.9232 20.8668Z" fill="#1CFF28"/>
<path d="M12.8691 23.3753C12.8795 23.4148 12.8821 23.4558 12.8766 23.4963C12.8711 23.5367 12.8578 23.5756 12.8372 23.6108C12.8167 23.6461 12.7894 23.6769 12.757 23.7016C12.7245 23.7263 12.6876 23.7444 12.6481 23.7548C12.6087 23.7652 12.5675 23.7677 12.5271 23.7622C12.4867 23.7567 12.4477 23.7433 12.4125 23.7227C12.3772 23.7022 12.3464 23.6749 12.3217 23.6423C12.297 23.6098 12.279 23.5728 12.2686 23.5333L12.0316 22.6333C12.0108 22.5537 12.0224 22.469 12.0639 22.398C12.1054 22.3269 12.1735 22.2752 12.2531 22.2543C12.3327 22.2334 12.4174 22.245 12.4885 22.2864C12.5597 22.3278 12.6115 22.3958 12.6326 22.4753L12.8691 23.3753Z" fill="#00C40A"/>
<path d="M13.6125 23.5784C13.566 23.6564 13.409 23.6484 13.2625 23.5604C13.115 23.4724 13.0335 23.3379 13.08 23.2604L13.333 22.8369C13.3795 22.7589 13.537 22.7669 13.683 22.8544C13.833 22.9424 13.912 23.0769 13.8655 23.1544L13.6125 23.5784Z" fill="#00C40A"/>
<path d="M12.7058 23.4851C12.7656 23.5238 12.8083 23.5839 12.825 23.6531C12.8418 23.7223 12.8313 23.7954 12.7958 23.8571C12.7308 24.0156 12.5858 24.1071 12.4713 24.0601L11.8498 23.8061C11.7899 23.7675 11.7472 23.7073 11.7304 23.6381C11.7137 23.5688 11.7242 23.4958 11.7598 23.4341C11.8243 23.2756 11.9698 23.1841 12.0843 23.2311L12.7058 23.4851Z" fill="#1CFF28"/>
<path d="M10.3856 23.0416C10.3615 23.0745 10.3312 23.1023 10.2963 23.1235C10.2614 23.1446 10.2227 23.1587 10.1824 23.1649C10.1421 23.1711 10.101 23.1692 10.0613 23.1595C10.0217 23.1497 9.98445 23.1323 9.95161 23.1081C9.9187 23.084 9.89086 23.0536 9.8697 23.0188C9.84853 22.9839 9.83446 22.9452 9.82828 22.9049C9.82211 22.8646 9.82395 22.8234 9.8337 22.7838C9.84345 22.7442 9.86092 22.7069 9.88511 22.6741L10.4351 21.9241C10.4838 21.8577 10.557 21.8134 10.6383 21.8009C10.7197 21.7885 10.8027 21.8088 10.8691 21.8576C10.9355 21.9063 10.9798 21.9794 10.9922 22.0608C11.0047 22.1422 10.9843 22.2252 10.9356 22.2916L10.3856 23.0416Z" fill="#00C40A"/>
<path d="M10.6959 23.7465C10.6059 23.7595 10.5129 23.632 10.4889 23.4625C10.4644 23.2925 10.5174 23.1445 10.6074 23.1315L11.0959 23.0615C11.1859 23.0485 11.2789 23.1755 11.3029 23.3455C11.3274 23.515 11.2744 23.6635 11.1844 23.676L10.6959 23.7465Z" fill="#00C40A"/>
<path d="M10.1997 22.9827C10.2357 23.1007 10.1317 23.2372 9.96725 23.2867C9.90244 23.3163 9.82876 23.3198 9.7614 23.2967C9.69404 23.2735 9.63815 23.2254 9.60525 23.1622L9.41125 22.5197C9.37575 22.4012 9.47975 22.2652 9.64375 22.2157C9.70853 22.186 9.78226 22.1823 9.84965 22.2055C9.91704 22.2287 9.97294 22.2769 10.0057 22.3402L10.1997 22.9827Z" fill="#1CFF28"/>
<path d="M7.78715 22.1942C7.82783 22.1912 7.8687 22.1962 7.90743 22.209C7.94616 22.2219 7.98199 22.2422 8.01286 22.2688C8.04374 22.2955 8.06907 22.3279 8.08739 22.3644C8.10571 22.4008 8.11667 22.4405 8.11965 22.4812C8.12265 22.5219 8.1176 22.5628 8.1048 22.6015C8.092 22.6402 8.07169 22.676 8.04504 22.7069C8.01839 22.7378 7.98591 22.7631 7.94947 22.7814C7.91303 22.7998 7.87333 22.8107 7.83265 22.8137L6.90365 22.8817C6.86297 22.8847 6.8221 22.8797 6.78337 22.8669C6.74464 22.854 6.70882 22.8337 6.67794 22.8071C6.64706 22.7804 6.62174 22.748 6.60341 22.7115C6.58509 22.6751 6.57413 22.6354 6.57115 22.5947C6.56815 22.554 6.5732 22.5132 6.58601 22.4745C6.59882 22.4358 6.61913 22.4 6.64579 22.3692C6.67245 22.3383 6.70493 22.3131 6.74137 22.2948C6.77781 22.2765 6.81749 22.2656 6.85815 22.2627L7.78715 22.1942Z" fill="#00C40A"/>
<path d="M8.12257 21.5C8.19057 21.56 8.15407 21.713 8.04057 21.8415C7.92707 21.9705 7.78007 22.026 7.71207 21.966L7.34157 21.64C7.27307 21.58 7.31007 21.4265 7.42307 21.298C7.53657 21.1695 7.68357 21.1135 7.75207 21.1735L8.12257 21.5Z" fill="#00C40A"/>
<path d="M7.86487 22.3754C7.91382 22.3237 7.98072 22.2928 8.05178 22.289C8.12285 22.2852 8.19267 22.3087 8.24687 22.3549C8.31143 22.3849 8.36199 22.4386 8.38813 22.5048C8.41428 22.5711 8.414 22.6448 8.38737 22.7109L8.02437 23.2759C7.97542 23.3275 7.90852 23.3585 7.83746 23.3623C7.76639 23.3661 7.69657 23.3425 7.64237 23.2964C7.57742 23.2666 7.5264 23.213 7.49987 23.1466C7.47335 23.0802 7.47335 23.0062 7.49987 22.9399L7.86487 22.3754Z" fill="#1CFF28"/>
<path d="M14.1914 20.2464C14.1348 20.3062 14.0568 20.3411 13.9745 20.3434C13.8922 20.3458 13.8123 20.3154 13.7524 20.2589C13.6926 20.2023 13.6577 20.1243 13.6554 20.042C13.6531 19.9597 13.6834 19.8799 13.7399 19.8199L14.3799 19.1429C14.4078 19.1132 14.4414 19.0893 14.4786 19.0726C14.5158 19.0559 14.556 19.0467 14.5968 19.0455C14.6376 19.0444 14.6782 19.0513 14.7163 19.0658C14.7544 19.0804 14.7893 19.1024 14.8189 19.1304C14.8786 19.1871 14.9135 19.2651 14.9159 19.3473C14.9182 19.4296 14.8878 19.5095 14.8314 19.5694L14.1914 20.2464Z" fill="#00C40A"/>
<path d="M14.4118 20.984C14.3208 20.984 14.2448 20.8485 14.2413 20.677C14.2383 20.5055 14.3093 20.365 14.4003 20.3635L14.8938 20.354C14.9843 20.354 15.0608 20.49 15.0638 20.6615C15.0673 20.833 14.9963 20.9735 14.9053 20.975L14.4118 20.984Z" fill="#00C40A"/>
<path d="M14.0124 20.1647C14.0334 20.2867 13.9124 20.4087 13.7439 20.4377C13.5749 20.4667 13.4209 20.3912 13.4004 20.2697L13.2869 19.6077C13.2664 19.4857 13.3869 19.3637 13.5554 19.3347C13.7244 19.3062 13.8784 19.3812 13.8994 19.5032L14.0124 20.1647Z" fill="#1CFF28"/>
<path d="M14.525 22.2952C14.5354 22.3347 14.5379 22.3758 14.5324 22.4163C14.5269 22.4567 14.5135 22.4957 14.4929 22.5309C14.4724 22.5662 14.4451 22.597 14.4126 22.6217C14.38 22.6464 14.343 22.6644 14.3035 22.6747C14.2238 22.6956 14.1391 22.684 14.068 22.6425C13.9968 22.601 13.945 22.5329 13.924 22.4532L13.6875 21.5532C13.6771 21.5138 13.6746 21.4728 13.6801 21.4324C13.6855 21.392 13.6989 21.3531 13.7194 21.3179C13.74 21.2827 13.7672 21.2519 13.7997 21.2273C13.8321 21.2026 13.8691 21.1846 13.9085 21.1742C13.9881 21.1534 14.0728 21.1649 14.1439 21.2063C14.2151 21.2477 14.2669 21.3157 14.288 21.3952L14.525 22.2952Z" fill="#00C40A"/>
<path d="M15.2674 22.4998C15.2209 22.5778 15.0639 22.5698 14.9174 22.4818C14.7704 22.3938 14.6884 22.2593 14.7354 22.1818L14.9884 21.7583C15.0349 21.6803 15.1919 21.6883 15.3384 21.7758C15.4884 21.8638 15.5674 21.9983 15.5209 22.0758L15.2674 22.4998Z" fill="#00C40A"/>
<path d="M14.3606 22.405C14.4205 22.4436 14.4633 22.5038 14.48 22.573C14.4968 22.6423 14.4862 22.7153 14.4506 22.777C14.3856 22.9355 14.2406 23.027 14.1261 22.98L13.5046 22.726C13.4447 22.6874 13.402 22.6273 13.3852 22.558C13.3685 22.4888 13.379 22.4157 13.4146 22.354C13.4796 22.1955 13.6246 22.104 13.7391 22.151L14.3606 22.405Z" fill="#1CFF28"/>
<path d="M10.5126 19.4223C10.4972 19.46 10.4745 19.4943 10.4459 19.5232C10.4172 19.5521 10.3831 19.5751 10.3455 19.5909C10.308 19.6066 10.2677 19.6148 10.2269 19.6149C10.1862 19.6151 10.1458 19.6072 10.1081 19.5918C10.0704 19.5764 10.036 19.5537 10.0071 19.525C9.97807 19.4963 9.95503 19.4621 9.93924 19.4245C9.92345 19.3869 9.91523 19.3466 9.91504 19.3058C9.91486 19.265 9.92271 19.2245 9.93815 19.1868L10.2906 18.3248C10.3219 18.2486 10.3821 18.1879 10.458 18.1561C10.5339 18.1242 10.6194 18.1237 10.6956 18.1548C10.7334 18.1702 10.7678 18.1929 10.7967 18.2216C10.8257 18.2503 10.8488 18.2845 10.8646 18.3221C10.8803 18.3597 10.8886 18.4 10.8888 18.4408C10.8889 18.4816 10.8811 18.522 10.8656 18.5598L10.5126 19.4223Z" fill="#00C40A"/>
<path d="M10.9841 20.0308C10.9001 20.0653 10.7796 19.9643 10.7146 19.8058C10.6496 19.6468 10.6646 19.4903 10.7496 19.4558L11.2066 19.2693C11.2906 19.2353 11.4116 19.3363 11.4761 19.4948C11.5411 19.6538 11.5261 19.8103 11.4411 19.8448L10.9841 20.0308Z" fill="#00C40A"/>
<path d="M10.3167 19.4107C10.3407 19.4772 10.3386 19.5503 10.3107 19.6153C10.2829 19.6803 10.2314 19.7323 10.1667 19.7607C10.1109 19.805 10.0403 19.8262 9.96931 19.82C9.89835 19.8137 9.83247 19.7806 9.78523 19.7272L9.44123 19.1507C9.37773 19.0447 9.44623 18.8877 9.59123 18.8007C9.64698 18.7564 9.71759 18.7351 9.78855 18.7413C9.85951 18.7474 9.92542 18.7805 9.97273 18.8337L10.3167 19.4107Z" fill="#1CFF28"/>
<path d="M11.2836 17.3291C11.2533 17.3563 11.2179 17.3773 11.1794 17.3909C11.141 17.4045 11.1002 17.4103 11.0595 17.4081C11.0188 17.406 10.9789 17.3958 10.9421 17.3782C10.9053 17.3606 10.8724 17.3359 10.8451 17.3056C10.8179 17.2752 10.7969 17.2398 10.7833 17.2014C10.7697 17.1629 10.7639 17.1222 10.7661 17.0815C10.7683 17.0407 10.7784 17.0008 10.796 16.9641C10.8136 16.9273 10.8383 16.8943 10.8686 16.8671L11.5616 16.2441C11.592 16.2168 11.6274 16.1958 11.6658 16.1822C11.7043 16.1687 11.745 16.1628 11.7858 16.165C11.8265 16.1672 11.8664 16.1774 11.9032 16.195C11.9399 16.2126 11.9729 16.2372 12.0001 16.2676C12.0274 16.2979 12.0484 16.3333 12.062 16.3718C12.0755 16.4102 12.0814 16.451 12.0792 16.4917C12.077 16.5324 12.0668 16.5723 12.0492 16.6091C12.0317 16.6459 12.007 16.6788 11.9766 16.7061L11.2836 17.3291Z" fill="#00C40A"/>
<path d="M11.4431 18.0821C11.3526 18.0766 11.2876 17.9321 11.2986 17.7621C11.3096 17.5906 11.3916 17.4566 11.4821 17.4621L11.9751 17.4931C12.0656 17.4986 12.1306 17.6431 12.1196 17.8131C12.1086 17.9846 12.0266 18.1186 11.9356 18.1131L11.4431 18.0821Z" fill="#00C40A"/>
<path d="M11.1122 17.2329C11.1227 17.3559 10.9932 17.4679 10.8222 17.4829C10.6512 17.4979 10.5042 17.4104 10.4932 17.2874L10.4347 16.6184C10.4237 16.4954 10.5537 16.3834 10.7242 16.3684C10.8952 16.3534 11.0427 16.4409 11.0532 16.5644L11.1122 17.2329Z" fill="#1CFF28"/>
<path d="M13.1742 26.8074C13.1742 26.8074 12.8427 27.3429 13.6987 27.1919C14.5547 27.0409 14.2412 26.7004 14.2412 26.7004C14.2412 26.7004 14.0237 27.4794 14.5552 27.0409C14.8885 26.7156 15.0803 26.2721 15.0892 25.8064C15.0892 25.8064 15.3282 26.7624 16.0312 26.0294C16.1288 25.9523 16.2086 25.8551 16.2651 25.7442C16.3216 25.6334 16.3534 25.5117 16.3585 25.3875C16.3636 25.2632 16.3418 25.1393 16.2945 25.0242C16.2472 24.9092 16.1757 24.8057 16.0847 24.7209C16.0847 24.7209 16.2997 24.2159 16.5217 24.2074C16.7437 24.1989 16.5372 23.6074 16.5372 23.6074L16.6472 23.0804C16.6472 23.0804 16.5657 22.4444 16.0837 22.3579C15.6017 22.2714 16.9397 22.2079 16.9007 21.8689C16.8617 21.5299 16.1237 21.3764 16.1237 21.3764C16.1237 21.3764 16.8237 21.1924 16.1612 20.6694C15.9418 20.5147 15.693 20.4066 15.4302 20.3517C15.1674 20.2969 14.8961 20.2964 14.6332 20.3504L14.9832 19.9839C14.9832 19.9839 14.4392 19.4304 14.2482 19.5554C14.0572 19.6804 13.9562 19.1094 13.6512 18.9909C13.3462 18.8724 12.9617 19.3969 12.9617 19.3969C12.9617 19.3969 12.2812 18.7049 11.8487 18.6694C11.4162 18.6339 11.3207 19.2589 11.3207 19.2589C11.3207 19.2589 11.0847 19.1694 10.6912 19.4724C10.2977 19.7754 9.82917 19.2224 9.67817 20.1614C9.52717 21.1004 10.1637 20.6819 10.1637 20.6819C10.1637 20.6819 9.30767 20.4899 9.33717 20.9149C9.36667 21.3399 10.1127 21.6259 10.1127 21.6259C10.1127 21.6259 9.12417 21.5509 9.41267 22.2704C9.46907 22.4618 9.57696 22.6341 9.72456 22.7684C9.87216 22.9026 10.0538 22.9938 10.2497 23.0319C10.2497 23.0319 10.1697 23.3219 10.1177 23.5574C10.0657 23.7929 10.7497 24.0654 10.7497 24.0654C10.7497 24.0654 10.5932 23.8214 10.8837 24.4454C11.1017 24.8438 11.466 25.1417 11.8997 25.2764C11.8997 25.2764 11.4732 25.7374 11.7237 26.1194C11.9742 26.5014 12.7882 26.2869 12.7882 26.2869C12.7882 26.2869 11.7777 27.1754 13.1742 26.8074Z" fill="#009C08"/>
<path d="M13.9998 26.4141C13.9825 26.3412 13.9948 26.2645 14.034 26.2006C14.0732 26.1368 14.136 26.0911 14.2088 26.0736C14.2817 26.0563 14.3585 26.0686 14.4223 26.1077C14.4861 26.1469 14.5318 26.2098 14.5493 26.2826L14.7463 27.1066C14.7638 27.1794 14.7516 27.2561 14.7126 27.32C14.6735 27.3838 14.6106 27.4295 14.5378 27.4471C14.465 27.4644 14.3882 27.4521 14.3244 27.4129C14.2606 27.3737 14.2149 27.3109 14.1973 27.2381L13.9998 26.4141Z" fill="#00C40A"/>
<path d="M13.3291 26.2143C13.3731 26.1443 13.5156 26.1548 13.6476 26.2378C13.7801 26.3208 13.8516 26.4448 13.8076 26.5148L13.5691 26.8948C13.5251 26.9648 13.3826 26.9543 13.2501 26.8718C13.1181 26.7888 13.0466 26.6648 13.0906 26.5948L13.3291 26.2143Z" fill="#00C40A"/>
<path d="M14.15 26.3176C14.0959 26.2818 14.0578 26.2262 14.0439 26.1627C14.03 26.0993 14.0413 26.0329 14.0755 25.9776C14.1375 25.8346 14.2715 25.7546 14.3755 25.7996L14.9355 26.0426C14.9892 26.0789 15.0268 26.1345 15.0407 26.1978C15.0546 26.261 15.0436 26.3272 15.01 26.3826C14.948 26.5261 14.814 26.6056 14.71 26.5606L14.15 26.3176Z" fill="#1CFF28"/>
<path d="M16.1497 23.3949C16.0838 23.3592 16.0349 23.2988 16.0136 23.2269C15.9923 23.1551 16.0004 23.0778 16.0362 23.0119C16.0538 22.9793 16.0777 22.9506 16.1065 22.9272C16.1353 22.9039 16.1684 22.8865 16.2039 22.8759C16.2394 22.8654 16.2767 22.8619 16.3135 22.8658C16.3504 22.8697 16.3861 22.8807 16.4187 22.8984L17.1637 23.3019C17.2295 23.3377 17.2784 23.3981 17.2997 23.4699C17.321 23.5417 17.3129 23.6191 17.2772 23.6849C17.2595 23.7175 17.2356 23.7463 17.2068 23.7696C17.178 23.793 17.1449 23.8104 17.1094 23.8209C17.0739 23.8315 17.0367 23.8349 16.9998 23.8311C16.9629 23.8272 16.9272 23.8161 16.8947 23.7984L16.1497 23.3949Z" fill="#00C40A"/>
<path d="M15.55 23.7612C15.5275 23.6817 15.6305 23.5822 15.7805 23.5392C15.9305 23.4962 16.0705 23.5262 16.093 23.6057L16.217 24.0372C16.2395 24.1167 16.1365 24.2157 15.9865 24.2587C15.8365 24.3017 15.6965 24.2722 15.674 24.1927L15.55 23.7612Z" fill="#00C40A"/>
<path d="M16.1772 23.2183C16.0772 23.2653 15.9397 23.1883 15.8772 23.0463C15.8425 22.9916 15.8301 22.9256 15.8427 22.8621C15.8552 22.7985 15.8918 22.7422 15.9447 22.7048L16.4997 22.4508C16.5997 22.4038 16.7372 22.4808 16.8022 22.6228C16.8369 22.6775 16.8493 22.7435 16.8367 22.807C16.8241 22.8706 16.7876 22.9269 16.7347 22.9643L16.1772 23.2183Z" fill="#1CFF28"/>
<path d="M14.3154 22.1138C14.2979 22.041 14.3101 21.9642 14.3492 21.9004C14.3883 21.8365 14.4511 21.7908 14.5239 21.7733C14.5968 21.756 14.6735 21.7683 14.7373 21.8074C14.8012 21.8466 14.8468 21.9095 14.8644 21.9823L15.0619 22.8063C15.0792 22.8791 15.0669 22.9559 15.0278 23.0197C14.9886 23.0835 14.9257 23.1292 14.8529 23.1468C14.78 23.1641 14.7033 23.1518 14.6395 23.1126C14.5757 23.0735 14.53 23.0106 14.5124 22.9378L14.3154 22.1138Z" fill="#00C40A"/>
<path d="M13.6436 21.9145C13.6876 21.8445 13.8301 21.855 13.9621 21.938C14.0946 22.021 14.1661 22.145 14.1221 22.215L13.8836 22.595C13.8396 22.665 13.6971 22.6545 13.5646 22.572C13.4326 22.489 13.3611 22.365 13.4051 22.295L13.6436 21.9145Z" fill="#00C40A"/>
<path d="M14.4664 22.0177C14.4123 21.9818 14.3742 21.9262 14.3603 21.8628C14.3464 21.7993 14.3577 21.7329 14.3919 21.6777C14.4539 21.5347 14.5879 21.4552 14.6919 21.4997L15.2524 21.7427C15.3059 21.7792 15.3434 21.8348 15.3572 21.8982C15.371 21.9615 15.3599 22.0277 15.3264 22.0832C15.2644 22.2262 15.1304 22.3057 15.0264 22.2612L14.4664 22.0177Z" fill="#1CFF28"/>
<path d="M14.5996 24.964C14.5821 24.8912 14.5943 24.8144 14.6334 24.7506C14.6725 24.6867 14.7353 24.641 14.8081 24.6235C14.8442 24.6148 14.8816 24.6134 14.9182 24.6192C14.9549 24.6251 14.99 24.6381 15.0216 24.6575C15.0532 24.6769 15.0807 24.7023 15.1025 24.7323C15.1243 24.7624 15.14 24.7964 15.1486 24.8325L15.3461 25.6565C15.3634 25.7293 15.3511 25.8061 15.3119 25.8699C15.2728 25.9337 15.2099 25.9794 15.1371 25.997C15.0642 26.0143 14.9875 26.002 14.9237 25.9628C14.8598 25.9237 14.8141 25.8608 14.7966 25.788L14.5996 24.964Z" fill="#00C40A"/>
<path d="M13.9273 24.7648C13.9713 24.6948 14.1138 24.7048 14.2463 24.7878C14.3783 24.8708 14.4498 24.9948 14.4058 25.0648L14.1673 25.4448C14.1233 25.5148 13.9808 25.5043 13.8488 25.4218C13.7163 25.3388 13.6448 25.2148 13.6888 25.1448L13.9273 24.7648Z" fill="#00C40A"/>
<path d="M14.7495 24.8678C14.696 24.8314 14.6584 24.7759 14.6445 24.7126C14.6307 24.6494 14.6416 24.5832 14.675 24.5278C14.7375 24.3848 14.871 24.3053 14.975 24.3498L15.535 24.5933C15.5885 24.6297 15.626 24.6853 15.6398 24.7485C15.6535 24.8118 15.6425 24.8779 15.609 24.9333C15.547 25.0763 15.413 25.1558 15.309 25.1113L14.7495 24.8678Z" fill="#1CFF28"/>
<path d="M11.0035 24.4676C11.0272 24.4387 11.0563 24.4148 11.0893 24.3972C11.1222 24.3796 11.1583 24.3687 11.1955 24.3651C11.2327 24.3615 11.2702 24.3653 11.3059 24.3763C11.3416 24.3873 11.3748 24.4053 11.4035 24.4291C11.4325 24.4528 11.4564 24.4819 11.474 24.5149C11.4916 24.5479 11.5025 24.584 11.506 24.6212C11.5096 24.6584 11.5057 24.6959 11.4946 24.7316C11.4835 24.7673 11.4655 24.8005 11.4415 24.8291L10.9 25.4806C10.8524 25.5384 10.7838 25.575 10.7092 25.5822C10.6347 25.5894 10.5603 25.5667 10.5025 25.5191C10.4735 25.4955 10.4495 25.4664 10.4319 25.4335C10.4142 25.4005 10.4033 25.3644 10.3997 25.3272C10.3962 25.29 10.4 25.2524 10.411 25.2167C10.4221 25.181 10.4401 25.1478 10.464 25.1191L11.0035 24.4676Z" fill="#00C40A"/>
<path d="M10.7581 23.8118C10.8401 23.8048 10.9181 23.9248 10.9316 24.0803C10.9451 24.2358 10.8891 24.3673 10.8066 24.3748L10.3596 24.4133C10.2771 24.4203 10.1996 24.3003 10.1861 24.1448C10.1726 23.9898 10.2286 23.8578 10.3106 23.8508L10.7581 23.8118Z" fill="#00C40A"/>
<path d="M11.1712 24.5302C11.1447 24.4212 11.2462 24.3027 11.3977 24.2662C11.4581 24.2428 11.5251 24.2433 11.5851 24.2678C11.6451 24.2922 11.6934 24.3387 11.7202 24.3977L11.8632 24.9912C11.8897 25.1002 11.7882 25.2187 11.6367 25.2552C11.5763 25.2789 11.5092 25.2784 11.4491 25.2539C11.3891 25.2295 11.3408 25.1828 11.3142 25.1237L11.1712 24.5302Z" fill="#1CFF28"/>
<path d="M12.0412 22.0099C12.0834 21.948 12.1484 21.9053 12.222 21.8913C12.2956 21.8772 12.3717 21.8929 12.4337 21.9349C12.4956 21.9771 12.5383 22.0421 12.5524 22.1156C12.5664 22.1892 12.5507 22.2653 12.5087 22.3274L12.0327 23.0274C11.9906 23.0893 11.9256 23.1319 11.852 23.146C11.7784 23.16 11.7023 23.1444 11.6402 23.1024C11.5783 23.0602 11.5357 22.9952 11.5216 22.9216C11.5076 22.848 11.5233 22.7719 11.5652 22.7099L12.0412 22.0099Z" fill="#00C40A"/>
<path d="M11.7367 21.3792C11.8177 21.3647 11.9062 21.4792 11.9342 21.6292C11.9617 21.7827 11.9182 21.9187 11.8372 21.9337L11.3952 22.0132C11.3142 22.0282 11.2257 21.9132 11.1977 21.7632C11.1702 21.6097 11.2137 21.4732 11.2947 21.4587L11.7367 21.3792Z" fill="#00C40A"/>
<path d="M12.2142 22.0571C12.1777 21.9506 12.2677 21.8236 12.4142 21.7731C12.472 21.744 12.5388 21.7382 12.6008 21.7568C12.6628 21.7754 12.7154 21.817 12.7477 21.8731L12.9452 22.4511C12.9812 22.5571 12.8912 22.6846 12.7452 22.7351C12.6874 22.7641 12.6207 22.7699 12.5588 22.7513C12.4968 22.7328 12.4444 22.6911 12.4122 22.6351L12.2142 22.0571Z" fill="#1CFF28"/>
<path d="M11.4047 19.7568C11.3961 19.7208 11.3947 19.6833 11.4005 19.6467C11.4063 19.6101 11.4193 19.5749 11.4387 19.5433C11.4581 19.5117 11.4836 19.4842 11.5136 19.4624C11.5436 19.4406 11.5777 19.425 11.6137 19.4163C11.6865 19.399 11.7632 19.4113 11.827 19.4505C11.8907 19.4897 11.9363 19.5526 11.9537 19.6253L12.1497 20.4498C12.167 20.5227 12.1548 20.5994 12.1156 20.6633C12.0764 20.7271 12.0135 20.7728 11.9407 20.7903C11.8679 20.8076 11.7911 20.7954 11.7273 20.7562C11.6635 20.717 11.6178 20.6541 11.6002 20.5813L11.4047 19.7568Z" fill="#00C40A"/>
<path d="M10.7334 19.5578C10.7774 19.4878 10.9199 19.4978 11.0524 19.5808C11.1844 19.6638 11.2559 19.7878 11.2119 19.8578L10.9734 20.2378C10.9294 20.3078 10.7869 20.2978 10.6549 20.2148C10.5224 20.1318 10.4509 20.0078 10.4949 19.9378L10.7334 19.5578Z" fill="#00C40A"/>
<path d="M11.5557 19.6607C11.5021 19.6243 11.4645 19.5688 11.4507 19.5056C11.4368 19.4423 11.4477 19.3762 11.4812 19.3207C11.5437 19.1777 11.6772 19.0982 11.7812 19.1427L12.3412 19.3862C12.3947 19.4227 12.4322 19.4782 12.4459 19.5415C12.4597 19.6047 12.4487 19.6708 12.4152 19.7262C12.3532 19.8692 12.2192 19.9487 12.1152 19.9042L11.5557 19.6607Z" fill="#1CFF28"/>
<path d="M13.6562 20.1111C13.7021 20.052 13.7696 20.0136 13.8438 20.0042C13.9181 19.9948 13.993 20.0153 14.0522 20.0611C14.1113 20.107 14.1497 20.1745 14.1591 20.2487C14.1685 20.323 14.148 20.3979 14.1022 20.4571L13.5862 21.1291C13.5403 21.1882 13.4728 21.2266 13.3985 21.236C13.3243 21.2454 13.2494 21.2249 13.1902 21.1791C13.1311 21.1332 13.0927 21.0657 13.0833 20.9914C13.0739 20.9172 13.0944 20.8423 13.1402 20.7831L13.6562 20.1111Z" fill="#00C40A"/>
<path d="M13.389 19.464C13.471 19.454 13.5525 19.5715 13.5715 19.7265C13.59 19.881 13.5385 20.0145 13.4565 20.0265L13.011 20.0805C12.929 20.0905 12.8475 19.973 12.8285 19.818C12.81 19.6635 12.861 19.53 12.943 19.518L13.389 19.464Z" fill="#00C40A"/>
<path d="M13.8257 20.1679C13.7957 20.0599 13.8932 19.9379 14.0432 19.8964C14.1026 19.8701 14.17 19.868 14.2309 19.8905C14.2918 19.913 14.3416 19.9583 14.3697 20.0169L14.5332 20.6049C14.5632 20.7134 14.4662 20.8349 14.3157 20.8769C14.2562 20.9024 14.1892 20.9041 14.1285 20.8817C14.0677 20.8592 14.0179 20.8144 13.9892 20.7564L13.8257 20.1679Z" fill="#1CFF28"/>
<path d="M16 20.9335C15.9252 20.9374 15.852 20.9113 15.7964 20.8612C15.7408 20.811 15.7074 20.7408 15.7035 20.666C15.7016 20.629 15.7069 20.5919 15.7193 20.557C15.7317 20.522 15.7509 20.4898 15.7757 20.4623C15.8006 20.4348 15.8306 20.4124 15.8641 20.3965C15.8976 20.3806 15.934 20.3714 15.971 20.3695L16.817 20.326C16.8541 20.3242 16.8912 20.3296 16.9261 20.342C16.9611 20.3545 16.9933 20.3737 17.0208 20.3986C17.0483 20.4235 17.0707 20.4536 17.0866 20.4871C17.1025 20.5206 17.1117 20.557 17.1135 20.594C17.1154 20.6311 17.11 20.6681 17.0976 20.703C17.0851 20.7379 17.0659 20.77 17.0411 20.7975C17.0163 20.825 16.9862 20.8473 16.9528 20.8632C16.9193 20.8791 16.883 20.8882 16.846 20.89L16 20.9335Z" fill="#00C40A"/>
<path d="M15.6826 21.5567C15.6221 21.5007 15.6581 21.3622 15.7641 21.2477C15.8696 21.1327 16.0046 21.0852 16.0641 21.1412L16.3946 21.4452C16.4551 21.5012 16.4191 21.6397 16.3131 21.7542C16.2076 21.8692 16.0726 21.9167 16.0131 21.8607L15.6826 21.5567Z" fill="#00C40A"/>
<path d="M15.9349 20.7676C15.8892 20.8141 15.8273 20.8412 15.7621 20.8432C15.6969 20.8453 15.6335 20.8221 15.5849 20.7786C15.5269 20.7497 15.4822 20.6997 15.4599 20.6389C15.4375 20.5781 15.4393 20.5111 15.4649 20.4516L15.8064 19.9456C15.8519 19.8996 15.9133 19.8728 15.978 19.8707C16.0426 19.8687 16.1056 19.8915 16.1539 19.9346C16.2121 19.9632 16.257 20.0132 16.2794 20.074C16.3019 20.1349 16.3001 20.202 16.2744 20.2616L15.9349 20.7676Z" fill="#1CFF28"/>
<path d="M10.1397 22.5752C10.1657 22.5486 10.1968 22.5275 10.231 22.513C10.2652 22.4985 10.302 22.491 10.3392 22.4907C10.3763 22.4905 10.4132 22.4976 10.4476 22.5117C10.482 22.5257 10.5133 22.5465 10.5397 22.5727C10.5661 22.5989 10.587 22.63 10.6013 22.6644C10.6155 22.6987 10.6229 22.7355 10.6229 22.7727C10.6229 22.8098 10.6155 22.8467 10.6013 22.881C10.587 22.9153 10.5661 22.9465 10.5397 22.9727L9.94469 23.5757C9.89163 23.6287 9.81969 23.6585 9.74469 23.6585C9.66969 23.6585 9.59776 23.6287 9.54469 23.5757C9.51822 23.5496 9.49716 23.5186 9.4827 23.4843C9.46825 23.4501 9.46069 23.4133 9.46045 23.3762C9.46022 23.339 9.46732 23.3022 9.48135 23.2678C9.49537 23.2334 9.51605 23.2021 9.54219 23.1757L10.1397 22.5752Z" fill="#00C40A"/>
<path d="M9.95449 21.8999C10.037 21.8999 10.1045 22.0269 10.1045 22.1829C10.1045 22.3384 10.0365 22.4649 9.95449 22.4644H9.50449C9.42199 22.4644 9.35449 22.3374 9.35449 22.1814C9.35449 22.0254 9.42249 21.8994 9.50449 21.8999H9.95449Z" fill="#00C40A"/>
<path d="M10.3 22.653C10.2835 22.542 10.3955 22.4335 10.55 22.4105C10.7045 22.3875 10.843 22.4605 10.8595 22.5705L10.949 23.1745C10.9655 23.2855 10.8535 23.394 10.699 23.417C10.5445 23.44 10.406 23.367 10.3895 23.257L10.3 22.653Z" fill="#1CFF28"/>
<path d="M9.87776 20.7053C9.86047 20.6325 9.87277 20.5558 9.91195 20.4921C9.95113 20.4283 10.014 20.3828 10.0868 20.3653C10.1228 20.3566 10.1602 20.3551 10.1969 20.3609C10.2335 20.3666 10.2686 20.3796 10.3003 20.3989C10.3319 20.4183 10.3594 20.4437 10.3812 20.4737C10.403 20.5037 10.4186 20.5377 10.4273 20.5738L10.6243 21.3978C10.633 21.4339 10.6345 21.4713 10.6287 21.5079C10.623 21.5445 10.61 21.5797 10.5906 21.6113C10.5713 21.6429 10.5459 21.6704 10.5159 21.6922C10.4858 21.714 10.4518 21.7297 10.4158 21.7383C10.3797 21.747 10.3422 21.7485 10.3056 21.7427C10.2689 21.7369 10.2338 21.7239 10.2021 21.7045C10.1705 21.6851 10.143 21.6596 10.1212 21.6296C10.0995 21.5995 10.0838 21.5654 10.0753 21.5293L9.87776 20.7053Z" fill="#00C40A"/>
<path d="M9.20656 20.5063C9.25056 20.4363 9.39306 20.4468 9.52506 20.5293C9.65756 20.6123 9.72906 20.7363 9.68506 20.8063L9.44656 21.1863C9.40256 21.2563 9.25956 21.2463 9.12756 21.1633C8.99556 21.0803 8.92406 20.9563 8.96806 20.8863L9.20656 20.5063Z" fill="#00C40A"/>
<path d="M10.029 20.61C9.9755 20.5734 9.938 20.5178 9.92424 20.4544C9.91048 20.3911 9.92149 20.3249 9.95502 20.2695C10.017 20.1265 10.151 20.047 10.255 20.0915L10.815 20.335C10.8692 20.3708 10.9072 20.4264 10.9212 20.4899C10.9351 20.5533 10.9237 20.6197 10.8895 20.675C10.8275 20.818 10.6935 20.8975 10.5895 20.853L10.029 20.61Z" fill="#1CFF28"/>
<path d="M13.4672 23.4001C13.4821 23.3661 13.5035 23.3353 13.5302 23.3095C13.5569 23.2838 13.5884 23.2636 13.623 23.25C13.6575 23.2364 13.6944 23.2298 13.7315 23.2305C13.7686 23.2312 13.8052 23.2392 13.8392 23.2541C13.8732 23.2689 13.904 23.2902 13.9297 23.3169C13.9555 23.3435 13.9757 23.375 13.9893 23.4095C14.0028 23.4441 14.0095 23.4809 14.0088 23.518C14.0081 23.555 14.0001 23.5916 13.9852 23.6256L13.6497 24.4001C13.635 24.4341 13.6136 24.4648 13.5869 24.4906C13.5603 24.5163 13.5288 24.5365 13.4943 24.5501C13.4598 24.5637 13.4229 24.5703 13.3858 24.5696C13.3488 24.5689 13.3122 24.5609 13.2782 24.5461C13.2096 24.5162 13.1556 24.4603 13.1281 24.3906C13.1006 24.321 13.1019 24.2433 13.1317 24.1746L13.4672 23.4001Z" fill="#00C40A"/>
<path d="M13.05 22.836C13.127 22.8065 13.235 22.9005 13.2905 23.0465C13.346 23.192 13.3285 23.334 13.2515 23.3635L12.832 23.524C12.755 23.5535 12.6475 23.459 12.5915 23.3135C12.536 23.168 12.5535 23.026 12.6305 22.9965L13.05 22.836Z" fill="#00C40A"/>
<path d="M13.6458 23.4136C13.5903 23.3136 13.6553 23.1741 13.7913 23.0971C13.8428 23.0578 13.9075 23.0398 13.9719 23.0469C14.0363 23.054 14.0955 23.0856 14.1373 23.1351L14.4373 23.6661C14.4928 23.7661 14.4278 23.9056 14.2918 23.9821C14.2403 24.0214 14.1757 24.0394 14.1113 24.0324C14.0469 24.0255 13.9877 23.994 13.9458 23.9446L13.6458 23.4136Z" fill="#1CFF28"/>
<path d="M12.7242 25.2869C12.7524 25.2624 12.7851 25.2438 12.8205 25.2321C12.8559 25.2204 12.8933 25.2158 12.9305 25.2186C12.9677 25.2214 13.0039 25.2315 13.0372 25.2483C13.0704 25.2652 13.1 25.2885 13.1242 25.3169C13.1487 25.345 13.1674 25.3777 13.1792 25.4131C13.1909 25.4486 13.1956 25.4859 13.1928 25.5231C13.19 25.5603 13.1798 25.5966 13.1629 25.6299C13.146 25.6631 13.1227 25.6927 13.0942 25.7169L12.4517 26.2669C12.4236 26.2914 12.3909 26.3102 12.3555 26.322C12.3201 26.3338 12.2827 26.3384 12.2455 26.3356C12.2082 26.3328 12.1719 26.3227 12.1387 26.3057C12.1054 26.2888 12.0759 26.2654 12.0517 26.2369C12.0272 26.2087 12.0086 26.176 11.9968 26.1406C11.985 26.1052 11.9804 26.0678 11.9832 26.0306C11.986 25.9934 11.9961 25.9571 12.0131 25.9239C12.03 25.8906 12.0533 25.861 12.0817 25.8369L12.7242 25.2869Z" fill="#00C40A"/>
<path d="M12.5942 24.5998C12.6767 24.6068 12.7327 24.7383 12.7197 24.8938C12.7062 25.0493 12.6287 25.1693 12.5462 25.1623L12.0992 25.1243C12.0167 25.1173 11.9607 24.9858 11.9742 24.8303C11.9872 24.6748 12.0647 24.5543 12.1472 24.5613L12.5942 24.5998Z" fill="#00C40A"/>
<path d="M12.8788 25.3776C12.8713 25.2656 12.9913 25.1661 13.1473 25.1561C13.3028 25.1461 13.4348 25.2286 13.4423 25.3406L13.4823 25.9501C13.4893 26.0621 13.3693 26.1611 13.2138 26.1716C13.0578 26.1816 12.9258 26.0991 12.9183 25.9871L12.8788 25.3776Z" fill="#1CFF28"/>
<path d="M15.6318 14.2164L15.1818 14.5164C15.123 14.556 15.0755 14.6103 15.0441 14.674C15.0128 14.7377 14.9987 14.8085 15.0033 14.8793C15.0078 14.9501 15.0309 15.0185 15.0701 15.0776C15.1093 15.1368 15.1634 15.1846 15.2268 15.2164L15.2393 15.2229C15.3031 15.2546 15.3741 15.269 15.4452 15.2647C15.5163 15.2604 15.585 15.2375 15.6445 15.1982C15.7039 15.159 15.752 15.1048 15.7839 15.0411C15.8159 14.9774 15.8305 14.9065 15.8263 14.8354L15.7953 14.2954C15.7938 14.2771 15.7875 14.2595 15.7771 14.2444C15.7668 14.2293 15.7526 14.2172 15.7361 14.2092C15.7196 14.2013 15.7013 14.1977 15.683 14.199C15.6647 14.2002 15.6471 14.2062 15.6318 14.2164Z" fill="white"/>
<path d="M15.3496 16.0654L14.8996 16.3654C14.8409 16.4051 14.7935 16.4595 14.7623 16.5231C14.731 16.5868 14.717 16.6575 14.7215 16.7283C14.7261 16.799 14.7491 16.8674 14.7882 16.9265C14.8273 16.9857 14.8813 17.0335 14.9446 17.0654L14.9576 17.0719C15.0213 17.1036 15.0922 17.1181 15.1633 17.1138C15.2343 17.1095 15.303 17.0866 15.3624 17.0474C15.4218 17.0082 15.4699 16.9541 15.5018 16.8905C15.5337 16.8268 15.5483 16.7559 15.5441 16.6849L15.5131 16.1444C15.5117 16.126 15.5055 16.1084 15.4952 16.0932C15.4848 16.078 15.4707 16.0658 15.4541 16.0578C15.4375 16.0498 15.4192 16.0463 15.4008 16.0476C15.3825 16.049 15.3648 16.0551 15.3496 16.0654Z" fill="white"/>
<path d="M17.7967 15.5657L17.6532 16.0872C17.6347 16.1557 17.6345 16.2278 17.6525 16.2965C17.6706 16.3651 17.7063 16.4279 17.7561 16.4784C17.8059 16.529 17.868 16.5656 17.9364 16.5847C18.0048 16.6038 18.0769 16.6046 18.1457 16.5872L18.1597 16.5837C18.2287 16.566 18.2918 16.5306 18.3428 16.4808C18.3938 16.4311 18.4307 16.3689 18.45 16.3003C18.4693 16.2318 18.4703 16.1594 18.4528 16.0904C18.4352 16.0214 18.3999 15.9582 18.3502 15.9072L17.9737 15.5187C17.9607 15.5053 17.9444 15.4956 17.9264 15.4906C17.9085 15.4856 17.8895 15.4855 17.8715 15.4903C17.8534 15.4951 17.837 15.5046 17.8239 15.5179C17.8107 15.5311 17.8014 15.5476 17.7967 15.5657Z" fill="white"/>
<path d="M14.5604 14.5501L14.3199 15.0351C14.2884 15.0988 14.2742 15.1698 14.2786 15.2408C14.2831 15.3118 14.3061 15.3803 14.3454 15.4397C14.3847 15.499 14.4388 15.5469 14.5024 15.5788C14.5661 15.6106 14.6369 15.6252 14.7079 15.6211H14.7219C14.793 15.617 14.8618 15.5943 14.9213 15.5552C14.9809 15.5162 15.0291 15.4621 15.0611 15.3986C15.0932 15.335 15.108 15.2641 15.104 15.193C15.1 15.1219 15.0774 15.0531 15.0384 14.9936L14.7429 14.5401C14.7328 14.5245 14.7188 14.512 14.7023 14.5036C14.6857 14.4952 14.6673 14.4913 14.6488 14.4923C14.6303 14.4934 14.6124 14.4992 14.5969 14.5094C14.5814 14.5195 14.5688 14.5335 14.5604 14.5501Z" fill="white"/>
<path d="M16.2672 13.9883L15.8927 13.5978C15.8435 13.5463 15.7817 13.5086 15.7133 13.4886C15.645 13.4685 15.5726 13.4668 15.5035 13.4836C15.4343 13.5004 15.3707 13.535 15.3191 13.5841C15.2676 13.6332 15.2298 13.695 15.2097 13.7633L15.2057 13.7768C15.1855 13.845 15.1836 13.9174 15.2001 13.9866C15.2167 14.0559 15.2511 14.1196 15.3 14.1713C15.349 14.2231 15.4106 14.261 15.4788 14.2815C15.547 14.3019 15.6194 14.3041 15.6887 14.2878L16.2152 14.1638C16.2332 14.1595 16.2499 14.1505 16.2634 14.1377C16.2768 14.125 16.2867 14.1089 16.292 14.0911C16.2973 14.0733 16.2978 14.0544 16.2934 14.0363C16.289 14.0183 16.28 14.0017 16.2672 13.9883Z" fill="white"/>
<path d="M16.6043 17.0998L17.1383 17.0108C17.2087 16.9993 17.2747 16.9695 17.3299 16.9245C17.3851 16.8794 17.4275 16.8206 17.4528 16.754C17.4781 16.6875 17.4855 16.6154 17.4742 16.545C17.4629 16.4747 17.4333 16.4086 17.3883 16.3533L17.3793 16.3423C17.3344 16.2872 17.2757 16.2448 17.2092 16.2195C17.1428 16.1942 17.0708 16.1867 17.0006 16.1979C16.9303 16.2091 16.8642 16.2385 16.8089 16.2833C16.7536 16.328 16.711 16.3864 16.6853 16.4528L16.4903 16.9578C16.4838 16.975 16.4818 16.9936 16.4847 17.0118C16.4875 17.03 16.4951 17.0471 16.5066 17.0614C16.5182 17.0758 16.5332 17.0869 16.5504 17.0936C16.5675 17.1003 16.5861 17.1025 16.6043 17.0998Z" fill="white"/>
<path d="M17.1498 14.3665L17.3898 14.8515C17.4213 14.9151 17.4689 14.9693 17.5279 15.0088C17.587 15.0483 17.6553 15.0716 17.7261 15.0764C17.797 15.0812 17.8678 15.0673 17.9316 15.0362C17.9954 15.0051 18.05 14.9578 18.0898 14.899L18.0978 14.8875C18.1375 14.8284 18.1611 14.76 18.1661 14.689C18.1711 14.618 18.1574 14.5469 18.1263 14.4828C18.0953 14.4188 18.0479 14.3641 17.989 14.3241C17.9301 14.2841 17.8618 14.2602 17.7908 14.255L17.2498 14.215C17.2315 14.2141 17.2133 14.218 17.1969 14.2263C17.1806 14.2345 17.1667 14.2469 17.1566 14.2622C17.1465 14.2775 17.1406 14.2952 17.1394 14.3134C17.1382 14.3317 17.1418 14.35 17.1498 14.3665Z" fill="white"/>
<path d="M16.3955 15L15.9455 15.3C15.8866 15.3397 15.8391 15.394 15.8078 15.4577C15.7765 15.5214 15.7624 15.5921 15.7669 15.663C15.7715 15.7338 15.7945 15.8022 15.8338 15.8613C15.873 15.9205 15.927 15.9683 15.9905 16L16.003 16.0065C16.0668 16.0383 16.1378 16.0527 16.2089 16.0484C16.28 16.0441 16.3487 16.0211 16.4081 15.9819C16.4676 15.9427 16.5157 15.8885 16.5476 15.8248C16.5795 15.7611 16.5941 15.6902 16.59 15.619L16.559 15.079C16.5575 15.0608 16.5512 15.0432 16.5408 15.0281C16.5304 15.013 16.5163 15.0009 16.4998 14.9929C16.4833 14.985 16.465 14.9814 16.4467 14.9827C16.4284 14.9839 16.4108 14.9899 16.3955 15Z" fill="white"/>
<path d="M16.8228 13.3591L16.3728 13.6591C16.3139 13.6987 16.2664 13.753 16.2351 13.8167C16.2037 13.8804 16.1896 13.9512 16.1942 14.022C16.1987 14.0928 16.2218 14.1612 16.261 14.2204C16.3002 14.2795 16.3543 14.3273 16.4178 14.3591L16.4303 14.3651C16.494 14.3968 16.5649 14.4112 16.636 14.4069C16.707 14.4026 16.7757 14.3797 16.8352 14.3405C16.8946 14.3014 16.9427 14.2473 16.9747 14.1836C17.0066 14.12 17.0213 14.0491 17.0173 13.9781L16.9863 13.4376C16.9845 13.4194 16.9781 13.402 16.9676 13.3871C16.9572 13.3721 16.9431 13.3601 16.9266 13.3522C16.9102 13.3443 16.892 13.3408 16.8738 13.342C16.8556 13.3432 16.838 13.3491 16.8228 13.3591Z" fill="white"/>
<path opacity="0.24" d="M21.4998 23.313C22.6217 23.313 23.5313 22.4035 23.5313 21.2815C23.5313 20.1595 22.6217 19.25 21.4998 19.25C20.3778 19.25 19.4683 20.1595 19.4683 21.2815C19.4683 22.4035 20.3778 23.313 21.4998 23.313Z" fill="#FFF276"/>
<defs>
<linearGradient id="paint0_linear_2147_2942" x1="7.81041" y1="10.4895" x2="11.3009" y2="15.669" gradientUnits="userSpaceOnUse">
<stop offset="0.102" stop-color="#FFD59E"/>
<stop offset="0.301" stop-color="#FFB76C"/>
</linearGradient>
<linearGradient id="paint1_linear_2147_2942" x1="11.7928" y1="11.89" x2="14.5122" y2="6.26888" gradientUnits="userSpaceOnUse">
<stop offset="0.102" stop-color="#FFD59E"/>
<stop offset="0.301" stop-color="#FFB76C"/>
</linearGradient>
<linearGradient id="paint2_linear_2147_2942" x1="18.1013" y1="5.68407" x2="17.2706" y2="11.8744" gradientUnits="userSpaceOnUse">
<stop offset="0.102" stop-color="#FFD59E"/>
<stop offset="0.301" stop-color="#FFB76C"/>
</linearGradient>
</defs>
</svg>
