<svg width="24" height="24" viewBox="0 0 24 24" fill="none" xmlns="http://www.w3.org/2000/svg">
<path fill-rule="evenodd" clip-rule="evenodd" d="M10.3811 20.0886C9.64864 19.1022 9.35566 17.8961 9.52168 16.5924C9.717 15.1031 10.5032 13.5356 11.8558 11.934C11.9974 11.7631 12.1292 11.5971 12.2513 11.4359C12.1292 11.0404 12.0315 10.6546 11.929 10.2542C11.763 9.60479 11.5872 8.93582 11.304 8.13989C11.011 7.32931 10.4348 6.78241 9.7463 6.63592C9.73654 6.25504 9.6877 5.88882 9.60469 5.53236C10.7961 5.89858 11.9583 5.54701 12.7152 5.02941C13.35 4.5997 13.6332 3.84284 13.931 3.04202C13.9848 2.89553 14.0385 2.74904 14.0971 2.60255C13.6527 2.91995 13.223 3.22269 12.8031 3.50102L13.0374 3.5645C13.1644 3.59868 13.2377 3.72564 13.2035 3.8526C13.1742 3.95514 13.0814 4.02839 12.9789 4.02839C12.9593 4.02839 12.9398 4.02351 12.9203 4.01862L12.2855 3.84772C12.1243 3.95026 11.9632 4.0528 11.802 4.15535L12.012 4.20906C12.139 4.24324 12.2122 4.3702 12.178 4.49716C12.1487 4.60459 12.056 4.67295 11.9534 4.67295C11.9339 4.67295 11.9144 4.67295 11.8899 4.66318L11.2503 4.49228C11.0208 4.629 10.7961 4.75596 10.5764 4.87803L10.7376 4.92198C10.8645 4.95616 10.9378 5.08312 10.9036 5.21008C10.8743 5.31262 10.7815 5.38098 10.679 5.38098C10.6594 5.38098 10.6399 5.38098 10.6204 5.37122L9.97092 5.19543C9.83908 5.26379 9.70724 5.32727 9.5754 5.39075C9.53633 5.23938 9.4875 5.088 9.43379 4.93663C9.53633 4.8878 9.63887 4.83409 9.74142 4.78526L9.91232 4.15047C9.9465 4.02351 10.0735 3.95026 10.2004 3.98444C10.3274 4.01862 10.4006 4.14558 10.3664 4.27254L10.3078 4.48739C10.5373 4.36043 10.7717 4.22859 11.011 4.08699L11.1819 3.44243C11.2161 3.31547 11.343 3.24222 11.47 3.27641C11.597 3.31059 11.6702 3.43755 11.636 3.5645L11.5921 3.73541C11.7386 3.64263 11.8899 3.54985 12.0413 3.44731L12.2171 2.79787C12.2513 2.67091 12.3782 2.59767 12.5052 2.63185C12.6322 2.66603 12.7054 2.79299 12.6712 2.91995L12.6322 3.05667C12.974 2.82717 13.3304 2.57814 13.6918 2.32422C13.4379 2.35352 13.1693 2.36817 12.9007 2.39258C11.6604 2.48048 10.3811 2.57325 9.80001 3.39848C9.56075 3.74029 9.38984 4.17 9.27753 4.54599C8.96014 3.8233 8.48648 3.15433 7.89564 2.54395C7.75891 2.40235 7.53918 2.40235 7.39757 2.53907C7.26085 2.6758 7.25596 2.89553 7.39269 3.03714C8.38394 4.0528 8.9992 5.25403 9.04315 6.6408C8.34488 6.77753 7.75403 7.32931 7.46105 8.14477C7.17784 8.9407 7.00205 9.60967 6.83603 10.2591C6.60652 11.1576 6.38679 12.0023 5.90337 13.018C4.38964 16.231 4.5166 18.9753 6.25495 20.5379C7.63196 21.7733 9.83419 22.0321 11.5335 21.1922C11.0891 20.8845 10.6985 20.5134 10.3811 20.0886ZM6.06939 16.4508C5.99127 16.9879 5.97173 17.4957 6.02545 17.9596C6.0401 18.0866 5.94732 18.2038 5.82036 18.2184C5.81059 18.2184 5.80083 18.2184 5.79594 18.2184C5.67875 18.2184 5.57621 18.1305 5.56156 18.0085C5.50785 17.5055 5.5225 16.9586 5.61039 16.3824C5.62992 16.2555 5.74711 16.1676 5.87407 16.1871C5.99615 16.2017 6.08404 16.3238 6.06939 16.4508ZM7.88587 11.7533C7.68567 12.1781 7.48058 12.5932 7.25108 13.0278C7.0167 13.4721 6.57723 14.3804 6.28913 15.4253C6.25983 15.5279 6.16705 15.5962 6.06451 15.5962C6.04498 15.5962 6.02056 15.5914 6.00103 15.5865C5.87407 15.5523 5.80083 15.4253 5.83501 15.2984C6.13776 14.2095 6.59188 13.267 6.83603 12.808C7.06064 12.3832 7.26573 11.973 7.46105 11.5531C7.51476 11.4359 7.65637 11.3871 7.77356 11.4408C7.88587 11.4945 7.93959 11.6361 7.88587 11.7533Z" fill="#BBBBBB"/>
<path fill-rule="evenodd" clip-rule="evenodd" d="M18.9408 14.0384C18.7406 12.9299 18.7504 12.0559 18.7553 11.1281C18.7601 10.4591 18.765 9.76574 18.6967 8.92586C18.6137 7.91996 18.0521 7.15821 17.2366 6.94336C17.0853 6.9043 16.929 6.87988 16.7776 6.87988C16.1087 6.87988 15.4495 7.25587 14.9856 7.92973C14.5022 8.62312 14.1604 9.22861 13.8332 9.80969C13.4914 10.4152 13.1593 10.9963 12.7101 11.6115C12.7101 11.6164 12.7052 11.6164 12.7052 11.6213C12.5587 11.8215 12.3976 12.0266 12.2218 12.2365C9.82424 15.0687 9.29687 17.8276 10.7618 19.8052C12.0118 21.4899 14.4973 22.1539 16.4212 21.3189C18.6771 20.3423 19.6 17.6909 18.9408 14.0384ZM16.4993 18.7651C16.0501 19.2925 15.3762 19.5757 14.6487 19.5757C14.3996 19.5757 14.1408 19.5415 13.882 19.4732C12.8712 19.2046 12.1388 18.4673 11.9679 17.5493C11.8507 16.9096 11.9972 16.2211 12.4122 15.5082C12.8712 14.7171 13.6525 13.9212 14.7317 13.1301C14.9953 12.9397 15.3127 12.8811 15.6253 12.9641C15.9378 13.0471 16.1868 13.2571 16.3138 13.555C16.8558 14.7757 17.1292 15.8597 17.1341 16.7729C17.139 17.5981 16.9241 18.2671 16.4993 18.7651Z" fill="#BBBBBB"/>
<path fill-rule="evenodd" clip-rule="evenodd" d="M15.5034 13.418C15.4497 13.4033 15.396 13.3936 15.3423 13.3936C15.2251 13.3936 15.1079 13.4326 15.0054 13.5107C13.1205 14.8878 12.2074 16.2892 12.4271 17.466C12.5639 18.2033 13.1694 18.799 14.0043 19.0237C14.8393 19.2483 15.6597 19.0334 16.148 18.4621C16.9244 17.5539 16.8316 15.879 15.8892 13.75C15.8111 13.5742 15.6841 13.4619 15.5034 13.418Z" fill="#BBBBBB"/>
</svg>
