<svg width="28" height="28" viewBox="0 0 28 28" fill="none" xmlns="http://www.w3.org/2000/svg">
<g clip-path="url(#clip0_2147_9871)">
<path d="M0.820313 14.126C0.820312 15.8657 1.16298 17.5885 1.82876 19.1958C2.49454 20.8031 3.47038 22.2636 4.70058 23.4938C5.93077 24.724 7.39122 25.6998 8.99855 26.3656C10.6059 27.0314 12.3286 27.374 14.0684 27.374C15.8081 27.374 17.5308 27.0314 19.1382 26.3656C20.7455 25.6998 22.2059 24.724 23.4361 23.4938C24.6663 22.2636 25.6422 20.8031 26.308 19.1958C26.9737 17.5885 27.3164 15.8657 27.3164 14.126C27.3164 12.3862 26.9737 10.6635 26.308 9.05617C25.6422 7.44884 24.6663 5.98839 23.4361 4.75819C22.2059 3.528 20.7455 2.55215 19.1382 1.88638C17.5308 1.2206 15.8081 0.87793 14.0684 0.87793C12.3286 0.87793 10.6059 1.2206 8.99855 1.88638C7.39122 2.55215 5.93077 3.528 4.70058 4.75819C3.47038 5.98839 2.49454 7.44884 1.82876 9.05617C1.16298 10.6635 0.820312 12.3862 0.820313 14.126Z" fill="#44C0C6"/>
<path d="M14.0682 27.6446C12.2443 27.6446 10.4725 27.2864 8.80449 26.581C7.19394 25.9001 5.74746 24.9239 4.50605 23.6825C3.26465 22.4411 2.28848 20.9946 1.60762 19.3841C0.902148 17.7161 0.543945 15.947 0.543945 14.1204C0.543945 12.2938 0.902148 10.5247 1.60762 8.85674C2.28848 7.24619 3.26465 5.79971 4.50605 4.5583C5.74746 3.31689 7.19394 2.34072 8.80449 1.65986C10.4725 0.954395 12.2416 0.596191 14.0682 0.596191C15.8947 0.596191 17.6639 0.962598 19.3318 1.66807C20.9424 2.34893 22.3889 3.3251 23.6303 4.5665C24.8717 5.80791 25.8478 7.2544 26.5287 8.86494C27.2342 10.5329 27.5924 12.3021 27.5924 14.1286C27.5924 15.9552 27.2342 17.7243 26.5287 19.3923C25.8478 21.0028 24.8717 22.4493 23.6303 23.6907C22.3889 24.9321 20.9424 25.9083 19.3318 26.5892C17.6639 27.2892 15.8947 27.6446 14.0682 27.6446ZM14.0682 1.15127C12.3154 1.15127 10.6174 1.49307 9.01777 2.17119C7.47285 2.82471 6.08652 3.75986 4.89434 4.95205C3.70215 6.14424 2.76699 7.53057 2.11348 9.07549C1.43809 10.6751 1.09355 12.3731 1.09355 14.1259C1.09355 15.8786 1.43535 17.5767 2.11348 19.1763C2.76699 20.7212 3.70215 22.1075 4.89434 23.2997C6.08652 24.4919 7.47285 25.4271 9.01777 26.0806C10.6174 26.756 12.3154 27.1005 14.0682 27.1005C15.8209 27.1005 17.5189 26.7587 19.1186 26.0806C20.6635 25.4271 22.0498 24.4919 23.242 23.2997C24.4342 22.1075 25.3693 20.7212 26.0229 19.1763C26.6982 17.5767 27.0428 15.8786 27.0428 14.1259C27.0428 12.3731 26.701 10.6751 26.0229 9.07549C25.3693 7.53057 24.4342 6.14424 23.242 4.95205C22.0498 3.75986 20.6635 2.82471 19.1186 2.17119C17.5189 1.4958 15.8209 1.15127 14.0682 1.15127Z" fill="black"/>
<path d="M14.4373 0.896973C12.8103 2.82471 11.3365 5.36221 14.8502 5.36221C20.5213 5.36221 19.0447 9.54033 12.6955 9.83838C6.34352 10.1364 8.13454 14.6153 11.7166 15.061C13.9205 15.3372 14.708 16.4583 14.9924 17.5247V17.5657C14.9924 18.1509 15.0498 18.7087 15.1509 19.2255V19.2364C15.1509 19.302 15.1646 19.3622 15.1892 19.4142C15.5775 21.1778 16.499 21.5251 17.5763 21.5251C19.0037 21.5251 19.9607 18.5474 20.133 16.9095C20.3982 14.4267 22.9193 14.4431 22.7607 11.3259C22.7142 10.4263 25.0658 10.3935 26.8131 10.5329C25.2791 5.08057 20.3435 1.0583 14.4373 0.896973Z" fill="#60C13D"/>
<path d="M17.5733 21.8039C16.578 21.8039 15.3804 21.5414 14.9237 19.5042C14.8937 19.4277 14.8772 19.3429 14.8745 19.2554C14.7706 18.7031 14.7159 18.1371 14.7159 17.5683V17.5601C14.3605 16.275 13.3651 15.5449 11.6808 15.3343C10.7265 15.214 9.8378 14.8175 9.18155 14.216C8.53077 13.6199 8.1753 12.8761 8.20264 12.1734C8.22178 11.6812 8.43233 10.9757 9.33467 10.407C10.1112 9.91753 11.2378 9.63589 12.6815 9.56753C14.7733 9.46909 16.0722 8.9687 16.794 8.56401C17.6308 8.09644 18.123 7.50855 18.1093 6.99448C18.0956 6.36831 17.2315 5.63823 14.8499 5.63823C13.6085 5.63823 12.8347 5.32105 12.5448 4.69761C12.3179 4.20815 12.4081 3.5519 12.8155 2.75073C13.1163 2.16011 13.5921 1.47651 14.2292 0.721827C14.2839 0.658936 14.3632 0.623389 14.4452 0.626124C15.9218 0.667139 17.3683 0.943311 18.7437 1.44917C20.0753 1.93862 21.3167 2.63589 22.4351 3.51909C23.5425 4.39409 24.5022 5.43042 25.2897 6.60073C26.0882 7.79019 26.6897 9.08902 27.0753 10.4644C27.0999 10.5492 27.0808 10.6421 27.0233 10.7132C26.9659 10.7816 26.8784 10.8199 26.7909 10.8117C24.8905 10.6585 23.4796 10.7898 23.105 11.1535C23.0366 11.2191 23.0312 11.2738 23.0312 11.3175C23.1241 13.1496 22.3202 14.0027 21.6093 14.7546C21.046 15.3535 20.5128 15.9167 20.4034 16.9421C20.3022 17.8964 19.9741 19.075 19.5694 19.95C19.0089 21.164 18.3198 21.8039 17.5733 21.8039ZM14.5601 1.173C13.2968 2.69058 12.7581 3.85816 13.0397 4.46519C13.2804 4.97925 14.1554 5.08862 14.8499 5.08862C16.0257 5.08862 16.9608 5.26089 17.628 5.59995C18.2761 5.93081 18.6425 6.42026 18.6534 6.98081C18.6698 7.71362 18.0901 8.46558 17.0593 9.0398C16.2855 9.47183 14.9046 10.0078 12.7062 10.1117C10.2726 10.2265 8.79327 11.0031 8.74678 12.1925C8.72491 12.7339 9.01748 13.3246 9.54795 13.8113C10.1222 14.339 10.9042 14.6863 11.7464 14.7902C13.6659 15.0308 14.8472 15.9277 15.2519 17.4562C15.2573 17.4781 15.2601 17.5027 15.2601 17.5273V17.5683C15.2601 18.1097 15.312 18.6511 15.4132 19.1761C15.4159 19.1925 15.4187 19.2117 15.4187 19.2281V19.239C15.4187 19.2636 15.4241 19.2855 15.4323 19.3046C15.4405 19.321 15.446 19.3402 15.4515 19.3593C15.796 20.9316 16.5507 21.2542 17.5733 21.2542C18.2597 21.2542 18.8093 20.2917 19.0745 19.7203C19.5366 18.7195 19.7882 17.5656 19.8593 16.8847C19.9878 15.6761 20.6112 15.0171 21.2101 14.38C21.9073 13.6417 22.5663 12.9417 22.4843 11.3449C22.4733 11.1261 22.5554 10.9238 22.7222 10.7625C23.023 10.4726 23.6026 10.2976 24.4995 10.232C25.1585 10.1828 25.8667 10.2046 26.4355 10.2375C26.0636 9.0562 25.5276 7.93784 24.8331 6.90425C24.0784 5.78042 23.1569 4.78511 22.0933 3.94565C21.0214 3.098 19.8292 2.43081 18.5495 1.9605C17.2726 1.49019 15.93 1.22495 14.5601 1.173Z" fill="black"/>
</g>
<defs>
<clipPath id="clip0_2147_9871">
<rect width="28" height="28" fill="white"/>
</clipPath>
</defs>
</svg>
